%TF.GenerationSoftware,KiCad,Pcbnew,9.0.5*%
%TF.CreationDate,2025-10-31T12:22:53+09:00*%
%TF.ProjectId,MCU_Datalogger,4d43555f-4461-4746-916c-6f676765722e,1*%
%TF.SameCoordinates,Original*%
%TF.FileFunction,Copper,L1,Top*%
%TF.FilePolarity,Positive*%
%FSLAX46Y46*%
G04 Gerber Fmt 4.6, Leading zero omitted, Abs format (unit mm)*
G04 Created by KiCad (PCBNEW 9.0.5) date 2025-10-31 12:22:53*
%MOMM*%
%LPD*%
G01*
G04 APERTURE LIST*
G04 Aperture macros list*
%AMRoundRect*
0 Rectangle with rounded corners*
0 $1 Rounding radius*
0 $2 $3 $4 $5 $6 $7 $8 $9 X,Y pos of 4 corners*
0 Add a 4 corners polygon primitive as box body*
4,1,4,$2,$3,$4,$5,$6,$7,$8,$9,$2,$3,0*
0 Add four circle primitives for the rounded corners*
1,1,$1+$1,$2,$3*
1,1,$1+$1,$4,$5*
1,1,$1+$1,$6,$7*
1,1,$1+$1,$8,$9*
0 Add four rect primitives between the rounded corners*
20,1,$1+$1,$2,$3,$4,$5,0*
20,1,$1+$1,$4,$5,$6,$7,0*
20,1,$1+$1,$6,$7,$8,$9,0*
20,1,$1+$1,$8,$9,$2,$3,0*%
G04 Aperture macros list end*
%TA.AperFunction,ComponentPad*%
%ADD10R,1.700000X1.700000*%
%TD*%
%TA.AperFunction,ComponentPad*%
%ADD11C,1.700000*%
%TD*%
%TA.AperFunction,SMDPad,CuDef*%
%ADD12RoundRect,0.073750X-0.911250X-0.221250X0.911250X-0.221250X0.911250X0.221250X-0.911250X0.221250X0*%
%TD*%
%TA.AperFunction,SMDPad,CuDef*%
%ADD13RoundRect,0.250000X-0.262500X-0.450000X0.262500X-0.450000X0.262500X0.450000X-0.262500X0.450000X0*%
%TD*%
%TA.AperFunction,SMDPad,CuDef*%
%ADD14RoundRect,0.243750X-0.243750X-0.456250X0.243750X-0.456250X0.243750X0.456250X-0.243750X0.456250X0*%
%TD*%
%TA.AperFunction,SMDPad,CuDef*%
%ADD15RoundRect,0.150000X-0.650000X-0.150000X0.650000X-0.150000X0.650000X0.150000X-0.650000X0.150000X0*%
%TD*%
%TA.AperFunction,SMDPad,CuDef*%
%ADD16RoundRect,0.250000X-0.250000X-0.475000X0.250000X-0.475000X0.250000X0.475000X-0.250000X0.475000X0*%
%TD*%
%TA.AperFunction,SMDPad,CuDef*%
%ADD17RoundRect,0.250000X0.250000X0.475000X-0.250000X0.475000X-0.250000X-0.475000X0.250000X-0.475000X0*%
%TD*%
%TA.AperFunction,SMDPad,CuDef*%
%ADD18RoundRect,0.250000X0.262500X0.450000X-0.262500X0.450000X-0.262500X-0.450000X0.262500X-0.450000X0*%
%TD*%
%TA.AperFunction,SMDPad,CuDef*%
%ADD19RoundRect,0.250001X1.499999X0.949999X-1.499999X0.949999X-1.499999X-0.949999X1.499999X-0.949999X0*%
%TD*%
%TA.AperFunction,SMDPad,CuDef*%
%ADD20RoundRect,0.250001X0.949999X-1.499999X0.949999X1.499999X-0.949999X1.499999X-0.949999X-1.499999X0*%
%TD*%
%TA.AperFunction,SMDPad,CuDef*%
%ADD21RoundRect,0.068750X-0.666250X-0.206250X0.666250X-0.206250X0.666250X0.206250X-0.666250X0.206250X0*%
%TD*%
%TA.AperFunction,SMDPad,CuDef*%
%ADD22RoundRect,0.068750X-0.206250X-0.666250X0.206250X-0.666250X0.206250X0.666250X-0.206250X0.666250X0*%
%TD*%
%TA.AperFunction,ViaPad*%
%ADD23C,0.900000*%
%TD*%
%TA.AperFunction,ViaPad*%
%ADD24C,0.800000*%
%TD*%
%TA.AperFunction,Conductor*%
%ADD25C,0.350000*%
%TD*%
%TA.AperFunction,Conductor*%
%ADD26C,0.250000*%
%TD*%
G04 APERTURE END LIST*
D10*
%TO.P,J3,1,Pin_1*%
%TO.N,GND*%
X169607000Y-86995000D03*
D11*
%TO.P,J3,2,Pin_2*%
%TO.N,/VCC*%
X172147000Y-86995000D03*
%TO.P,J3,3,Pin_3*%
%TO.N,/RX*%
X174687000Y-86995000D03*
%TO.P,J3,4,Pin_4*%
%TO.N,/TX*%
X177227000Y-86995000D03*
%TD*%
D12*
%TO.P,U2,1,X1*%
%TO.N,Net-(U2-X1)*%
X147004000Y-76073000D03*
%TO.P,U2,2,X2*%
%TO.N,Net-(U2-X2)*%
X147004000Y-77343000D03*
%TO.P,U2,3,~{INTA}*%
%TO.N,Net-(U2-~{INTA})*%
X147004000Y-78613000D03*
%TO.P,U2,4,GND*%
%TO.N,GND*%
X147004000Y-79883000D03*
%TO.P,U2,5,SDA*%
%TO.N,/SDA*%
X151954000Y-79883000D03*
%TO.P,U2,6,SCL*%
%TO.N,/SCK*%
X151954000Y-78613000D03*
%TO.P,U2,7,SQW/~INT*%
%TO.N,Net-(U2-SQW{slash}~INT)*%
X151954000Y-77343000D03*
%TO.P,U2,8,VCC*%
%TO.N,/VCC*%
X151954000Y-76073000D03*
%TD*%
D13*
%TO.P,R7,1*%
%TO.N,Net-(D2-K)*%
X170054000Y-66421000D03*
%TO.P,R7,2*%
%TO.N,GND*%
X171879000Y-66421000D03*
%TD*%
D10*
%TO.P,BAT1,1*%
%TO.N,/VCC*%
X141605000Y-69337000D03*
D11*
%TO.P,BAT1,2*%
%TO.N,GND*%
X141605000Y-71877000D03*
%TD*%
D14*
%TO.P,D2,1,K*%
%TO.N,Net-(D2-K)*%
X170049000Y-62103000D03*
%TO.P,D2,2,A*%
%TO.N,/VCC*%
X171924000Y-62103000D03*
%TD*%
D15*
%TO.P,U1,1,A0*%
%TO.N,/VCC*%
X145424000Y-69215000D03*
%TO.P,U1,2,A1*%
X145424000Y-70485000D03*
%TO.P,U1,3,A2*%
X145424000Y-71755000D03*
%TO.P,U1,4,GND*%
%TO.N,GND*%
X145424000Y-73025000D03*
%TO.P,U1,5,SDA*%
%TO.N,/SDA*%
X152624000Y-73025000D03*
%TO.P,U1,6,SCL*%
%TO.N,/SCK*%
X152624000Y-71755000D03*
%TO.P,U1,7,WP*%
%TO.N,GND*%
X152624000Y-70485000D03*
%TO.P,U1,8,VCC*%
%TO.N,/VCC*%
X152624000Y-69215000D03*
%TD*%
D16*
%TO.P,C1,1*%
%TO.N,/VCC*%
X156211000Y-62088000D03*
%TO.P,C1,2*%
%TO.N,GND*%
X158111000Y-62088000D03*
%TD*%
D17*
%TO.P,C2,1*%
%TO.N,GND*%
X171916500Y-76581000D03*
%TO.P,C2,2*%
%TO.N,Net-(U4-PB6)*%
X170016500Y-76581000D03*
%TD*%
D10*
%TO.P,J4,1,Pin_1*%
%TO.N,/MISO*%
X180457000Y-66548000D03*
D11*
%TO.P,J4,2,Pin_2*%
%TO.N,/VCC*%
X182997000Y-66548000D03*
%TO.P,J4,3,Pin_3*%
%TO.N,/SCK*%
X180457000Y-69088000D03*
%TO.P,J4,4,Pin_4*%
%TO.N,/MOSI*%
X182997000Y-69088000D03*
%TO.P,J4,5,Pin_5*%
%TO.N,/RESET*%
X180457000Y-71628000D03*
%TO.P,J4,6,Pin_6*%
%TO.N,GND*%
X182997000Y-71628000D03*
%TD*%
D18*
%TO.P,R4,1*%
%TO.N,/VCC*%
X171879000Y-69850000D03*
%TO.P,R4,2*%
%TO.N,/SDA*%
X170054000Y-69850000D03*
%TD*%
D19*
%TO.P,Y2,1,1*%
%TO.N,Net-(U4-PB7)*%
X163763000Y-79502000D03*
%TO.P,Y2,2,2*%
%TO.N,Net-(U4-PB6)*%
X158563000Y-79502000D03*
%TD*%
D16*
%TO.P,C3,1*%
%TO.N,GND*%
X160849000Y-62088000D03*
%TO.P,C3,2*%
%TO.N,Net-(U4-PB7)*%
X162749000Y-62088000D03*
%TD*%
D10*
%TO.P,J1,1,Pin_1*%
%TO.N,GND*%
X183007000Y-75184000D03*
D11*
%TO.P,J1,2,Pin_2*%
%TO.N,/VCC*%
X183007000Y-77724000D03*
%TO.P,J1,3,Pin_3*%
%TO.N,/SDA*%
X183007000Y-80264000D03*
%TO.P,J1,4,Pin_4*%
%TO.N,/SCK*%
X183007000Y-82804000D03*
%TD*%
D17*
%TO.P,C4,1*%
%TO.N,GND*%
X171916500Y-80264000D03*
%TO.P,C4,2*%
%TO.N,Net-(U4-AREF)*%
X170016500Y-80264000D03*
%TD*%
D16*
%TO.P,C5,1*%
%TO.N,/VCC*%
X165167000Y-62088000D03*
%TO.P,C5,2*%
%TO.N,GND*%
X167067000Y-62088000D03*
%TD*%
D15*
%TO.P,U3,1,A0*%
%TO.N,/VCC*%
X145424000Y-61976000D03*
%TO.P,U3,2,A1*%
%TO.N,GND*%
X145424000Y-63246000D03*
%TO.P,U3,3,A2*%
%TO.N,/VCC*%
X145424000Y-64516000D03*
%TO.P,U3,4,GND*%
%TO.N,GND*%
X145424000Y-65786000D03*
%TO.P,U3,5,SDA*%
%TO.N,/SDA*%
X152624000Y-65786000D03*
%TO.P,U3,6,SCL*%
%TO.N,/SCK*%
X152624000Y-64516000D03*
%TO.P,U3,7,WP*%
%TO.N,GND*%
X152624000Y-63246000D03*
%TO.P,U3,8,VCC*%
%TO.N,/VCC*%
X152624000Y-61976000D03*
%TD*%
D10*
%TO.P,J2,1,Pin_1*%
%TO.N,/D2*%
X143953000Y-86995000D03*
D11*
%TO.P,J2,2,Pin_2*%
%TO.N,/D3*%
X146493000Y-86995000D03*
%TO.P,J2,3,Pin_3*%
%TO.N,/D4*%
X149033000Y-86995000D03*
%TO.P,J2,4,Pin_4*%
%TO.N,/D5*%
X151573000Y-86995000D03*
%TO.P,J2,5,Pin_5*%
%TO.N,/D6*%
X154113000Y-86995000D03*
%TO.P,J2,6,Pin_6*%
%TO.N,/D7*%
X156653000Y-86995000D03*
%TO.P,J2,7,Pin_7*%
%TO.N,/D8*%
X159193000Y-86995000D03*
%TO.P,J2,8,Pin_8*%
%TO.N,GND*%
X161733000Y-86995000D03*
%TO.P,J2,9,Pin_9*%
%TO.N,/VCC*%
X164273000Y-86995000D03*
%TD*%
D14*
%TO.P,D1,1,K*%
%TO.N,Net-(D1-K)*%
X174827000Y-62103000D03*
%TO.P,D1,2,A*%
%TO.N,/SCK*%
X176702000Y-62103000D03*
%TD*%
D20*
%TO.P,Y1,1,1*%
%TO.N,Net-(U2-X2)*%
X141286000Y-81407000D03*
%TO.P,Y1,2,2*%
%TO.N,Net-(U2-X1)*%
X141286000Y-76207000D03*
%TD*%
D13*
%TO.P,R6,1*%
%TO.N,/VCC*%
X174832000Y-69977000D03*
%TO.P,R6,2*%
%TO.N,/RESET*%
X176657000Y-69977000D03*
%TD*%
%TO.P,R1,1*%
%TO.N,/VCC*%
X146239000Y-82931000D03*
%TO.P,R1,2*%
%TO.N,Net-(U2-~{INTA})*%
X148064000Y-82931000D03*
%TD*%
D18*
%TO.P,R2,1*%
%TO.N,/VCC*%
X152208000Y-83058000D03*
%TO.P,R2,2*%
%TO.N,Net-(U2-SQW{slash}~INT)*%
X150383000Y-83058000D03*
%TD*%
%TO.P,R3,1*%
%TO.N,/VCC*%
X171879000Y-73279000D03*
%TO.P,R3,2*%
%TO.N,/SCK*%
X170054000Y-73279000D03*
%TD*%
%TO.P,R5,1*%
%TO.N,GND*%
X176657000Y-66421000D03*
%TO.P,R5,2*%
%TO.N,Net-(D1-K)*%
X174832000Y-66421000D03*
%TD*%
D21*
%TO.P,U4,1,PD3*%
%TO.N,/D3*%
X157589500Y-67826000D03*
%TO.P,U4,2,PD4*%
%TO.N,/D4*%
X157589500Y-68626000D03*
%TO.P,U4,3,GND*%
%TO.N,GND*%
X157589500Y-69426000D03*
%TO.P,U4,4,VCC*%
%TO.N,/VCC*%
X157589500Y-70226000D03*
%TO.P,U4,5,GND*%
%TO.N,GND*%
X157589500Y-71026000D03*
%TO.P,U4,6,VCC*%
%TO.N,unconnected-(U4-VCC-Pad6)*%
X157589500Y-71826000D03*
%TO.P,U4,7,PB6*%
%TO.N,Net-(U4-PB6)*%
X157589500Y-72626000D03*
%TO.P,U4,8,PB7*%
%TO.N,Net-(U4-PB7)*%
X157589500Y-73426000D03*
D22*
%TO.P,U4,9,PD5*%
%TO.N,/D5*%
X158959500Y-74796000D03*
%TO.P,U4,10,PD6*%
%TO.N,/D6*%
X159759500Y-74796000D03*
%TO.P,U4,11,PD7*%
%TO.N,/D7*%
X160559500Y-74796000D03*
%TO.P,U4,12,PB0*%
%TO.N,/D8*%
X161359500Y-74796000D03*
%TO.P,U4,13,PB1*%
%TO.N,unconnected-(U4-PB1-Pad13)*%
X162159500Y-74796000D03*
%TO.P,U4,14,PB2*%
%TO.N,unconnected-(U4-PB2-Pad14)*%
X162959500Y-74796000D03*
%TO.P,U4,15,PB3*%
%TO.N,/MOSI*%
X163759500Y-74796000D03*
%TO.P,U4,16,PB4*%
%TO.N,/MISO*%
X164559500Y-74796000D03*
D21*
%TO.P,U4,17,PB5*%
%TO.N,/SCK*%
X165929500Y-73426000D03*
%TO.P,U4,18,AVCC*%
%TO.N,/VCC*%
X165929500Y-72626000D03*
%TO.P,U4,19,ADC6*%
%TO.N,unconnected-(U4-ADC6-Pad19)*%
X165929500Y-71826000D03*
%TO.P,U4,20,AREF*%
%TO.N,Net-(U4-AREF)*%
X165929500Y-71026000D03*
%TO.P,U4,21,GND*%
%TO.N,GND*%
X165929500Y-70226000D03*
%TO.P,U4,22,ADC7*%
%TO.N,unconnected-(U4-ADC7-Pad22)*%
X165929500Y-69426000D03*
%TO.P,U4,23,PC0*%
%TO.N,unconnected-(U4-PC0-Pad23)*%
X165929500Y-68626000D03*
%TO.P,U4,24,PC1*%
%TO.N,unconnected-(U4-PC1-Pad24)*%
X165929500Y-67826000D03*
D22*
%TO.P,U4,25,PC2*%
%TO.N,unconnected-(U4-PC2-Pad25)*%
X164559500Y-66456000D03*
%TO.P,U4,26,PC3*%
%TO.N,unconnected-(U4-PC3-Pad26)*%
X163759500Y-66456000D03*
%TO.P,U4,27,PC4*%
%TO.N,/SDA*%
X162959500Y-66456000D03*
%TO.P,U4,28,PC5*%
%TO.N,/SCK*%
X162159500Y-66456000D03*
%TO.P,U4,29,PC6/~{RESET}*%
%TO.N,/RESET*%
X161359500Y-66456000D03*
%TO.P,U4,30,PD0*%
%TO.N,/RX*%
X160559500Y-66456000D03*
%TO.P,U4,31,PD1*%
%TO.N,/TX*%
X159759500Y-66456000D03*
%TO.P,U4,32,PD2*%
%TO.N,/D2*%
X158959500Y-66456000D03*
%TD*%
D23*
%TO.N,GND*%
X147066000Y-63246000D03*
X171704000Y-81788000D03*
X158496000Y-60706000D03*
X148527000Y-79883000D03*
X147066000Y-73025000D03*
X176657000Y-64897000D03*
X159385000Y-69469000D03*
X150876000Y-63119000D03*
X167513000Y-70201000D03*
X171958000Y-78168000D03*
X168402000Y-62103000D03*
X160274000Y-60833000D03*
X151574000Y-70485000D03*
X159131000Y-70993000D03*
X160782000Y-63754000D03*
X173228000Y-66421000D03*
X146939000Y-65786000D03*
%TO.N,/VCC*%
X147193000Y-71755000D03*
X147066000Y-64516000D03*
X145414986Y-81448713D03*
X165100000Y-63754000D03*
X156210000Y-60386000D03*
X171958000Y-63754000D03*
X152019000Y-74676000D03*
X152654000Y-67818000D03*
X156122614Y-70524614D03*
X174752000Y-71374000D03*
X172795364Y-71044636D03*
X172974000Y-73660000D03*
X151003000Y-61976000D03*
X167513000Y-72601000D03*
X152273000Y-81407000D03*
D24*
%TO.N,Net-(U4-PB6)*%
X158623000Y-77597000D03*
X156083000Y-72644000D03*
%TO.N,Net-(U4-PB7)*%
X161798000Y-77470000D03*
X163449000Y-77597000D03*
X156173000Y-73660000D03*
X159684500Y-65024000D03*
%TO.N,/SCK*%
X150749000Y-64516000D03*
X154432000Y-63500000D03*
X164322181Y-64531819D03*
X173355000Y-75184000D03*
X169926000Y-74803000D03*
X150749000Y-71755000D03*
X149987000Y-78613000D03*
%TO.N,/SDA*%
X165608000Y-64770000D03*
X150749000Y-73025000D03*
X150114000Y-79883000D03*
X153199754Y-66862930D03*
%TO.N,/TX*%
X159766000Y-68072000D03*
%TO.N,/RX*%
X160528000Y-69088000D03*
%TO.N,/MISO*%
X166497000Y-74930000D03*
%TO.N,/MOSI*%
X165735000Y-75819000D03*
%TO.N,/RESET*%
X161384085Y-67474001D03*
%TD*%
D25*
%TO.N,GND*%
X165929500Y-70226000D02*
X167488000Y-70226000D01*
X145424000Y-73025000D02*
X147066000Y-73025000D01*
X145424000Y-63246000D02*
X147066000Y-63246000D01*
X152624000Y-70485000D02*
X151574000Y-70485000D01*
X171916500Y-76581000D02*
X171916500Y-78126500D01*
X145424000Y-65786000D02*
X146939000Y-65786000D01*
X157589500Y-71026000D02*
X159098000Y-71026000D01*
X151003000Y-63246000D02*
X150876000Y-63119000D01*
X171916500Y-81575500D02*
X171704000Y-81788000D01*
X158111000Y-62088000D02*
X158111000Y-61091000D01*
X159098000Y-71026000D02*
X159131000Y-70993000D01*
X158111000Y-61091000D02*
X158496000Y-60706000D01*
X171916500Y-80264000D02*
X171916500Y-81575500D01*
X167067000Y-62088000D02*
X168387000Y-62088000D01*
X167488000Y-70226000D02*
X167513000Y-70201000D01*
X171879000Y-66421000D02*
X173228000Y-66421000D01*
X168387000Y-62088000D02*
X168402000Y-62103000D01*
X176657000Y-66421000D02*
X176657000Y-64897000D01*
X160849000Y-62088000D02*
X160849000Y-61408000D01*
X159342000Y-69426000D02*
X159385000Y-69469000D01*
X157589500Y-69426000D02*
X159342000Y-69426000D01*
X152624000Y-63246000D02*
X151003000Y-63246000D01*
X171916500Y-78126500D02*
X171958000Y-78168000D01*
X160849000Y-63687000D02*
X160782000Y-63754000D01*
X160849000Y-62088000D02*
X160849000Y-63687000D01*
X147004000Y-79883000D02*
X148527000Y-79883000D01*
X160849000Y-61408000D02*
X160274000Y-60833000D01*
%TO.N,/VCC*%
X152624000Y-67848000D02*
X152654000Y-67818000D01*
X152624000Y-61976000D02*
X151003000Y-61976000D01*
X165929500Y-72626000D02*
X167488000Y-72626000D01*
X167488000Y-72626000D02*
X167513000Y-72601000D01*
X146239000Y-82272727D02*
X145414986Y-81448713D01*
X146239000Y-82931000D02*
X146239000Y-82272727D01*
X171924000Y-62103000D02*
X171924000Y-63720000D01*
X171879000Y-70128272D02*
X172795364Y-71044636D01*
X152208000Y-83058000D02*
X152208000Y-81472000D01*
X145075256Y-61976000D02*
X144198000Y-62853256D01*
X157589500Y-70226000D02*
X156421228Y-70226000D01*
X145424000Y-61976000D02*
X145075256Y-61976000D01*
X165167000Y-63687000D02*
X165100000Y-63754000D01*
X171924000Y-63720000D02*
X171958000Y-63754000D01*
X156211000Y-62088000D02*
X156211000Y-60387000D01*
X174832000Y-71294000D02*
X174752000Y-71374000D01*
X145424000Y-69215000D02*
X145424000Y-70485000D01*
X152208000Y-81472000D02*
X152273000Y-81407000D01*
X174832000Y-69977000D02*
X174832000Y-71294000D01*
X172593000Y-73279000D02*
X172974000Y-73660000D01*
X145424000Y-71755000D02*
X147193000Y-71755000D01*
X144198000Y-63638744D02*
X145075256Y-64516000D01*
X145424000Y-70485000D02*
X145424000Y-71755000D01*
X171879000Y-69850000D02*
X171879000Y-70128272D01*
X151954000Y-76073000D02*
X151954000Y-74741000D01*
X151954000Y-74741000D02*
X152019000Y-74676000D01*
X171879000Y-73279000D02*
X172593000Y-73279000D01*
X145424000Y-64516000D02*
X147066000Y-64516000D01*
X165167000Y-62088000D02*
X165167000Y-63687000D01*
X145075256Y-64516000D02*
X145424000Y-64516000D01*
X144198000Y-62853256D02*
X144198000Y-63638744D01*
X152624000Y-69215000D02*
X152624000Y-67848000D01*
X156421228Y-70226000D02*
X156122614Y-70524614D01*
X156211000Y-60387000D02*
X156210000Y-60386000D01*
D26*
%TO.N,Net-(U4-PB6)*%
X158563000Y-79502000D02*
X158563000Y-77657000D01*
X157571500Y-72644000D02*
X157589500Y-72626000D01*
X170016500Y-76581000D02*
X161484000Y-76581000D01*
X161484000Y-76581000D02*
X158563000Y-79502000D01*
X156083000Y-72644000D02*
X157571500Y-72644000D01*
X158563000Y-77657000D02*
X158623000Y-77597000D01*
%TO.N,Net-(U4-PB7)*%
X161798000Y-77537000D02*
X161798000Y-77470000D01*
X161417000Y-65024000D02*
X162749000Y-63692000D01*
X159684500Y-65024000D02*
X161417000Y-65024000D01*
X157355500Y-73660000D02*
X157589500Y-73426000D01*
X162749000Y-63692000D02*
X162749000Y-62088000D01*
X156173000Y-73660000D02*
X157355500Y-73660000D01*
X163763000Y-79502000D02*
X163763000Y-77911000D01*
X163763000Y-79502000D02*
X161798000Y-77537000D01*
X163763000Y-77911000D02*
X163449000Y-77597000D01*
%TO.N,Net-(U4-AREF)*%
X170892500Y-79388000D02*
X170892500Y-72583486D01*
X170016500Y-80264000D02*
X170892500Y-79388000D01*
X170892500Y-72583486D02*
X169335014Y-71026000D01*
X169335014Y-71026000D02*
X165929500Y-71026000D01*
%TO.N,/SCK*%
X162159500Y-65721000D02*
X162159500Y-66456000D01*
X162159500Y-70391000D02*
X165194500Y-73426000D01*
X165194500Y-73426000D02*
X165929500Y-73426000D01*
X152624000Y-64516000D02*
X153416000Y-64516000D01*
X176702000Y-62103000D02*
X175586000Y-60987000D01*
X165929500Y-73426000D02*
X169907000Y-73426000D01*
X162159500Y-66456000D02*
X162159500Y-70391000D01*
X175586000Y-60987000D02*
X164438000Y-60987000D01*
X177545500Y-62946500D02*
X177545500Y-66176500D01*
X164322181Y-64531819D02*
X163348681Y-64531819D01*
X176702000Y-62103000D02*
X177545500Y-62946500D01*
X169926000Y-74803000D02*
X169926000Y-73407000D01*
X150749000Y-71755000D02*
X152624000Y-71755000D01*
X169926000Y-73407000D02*
X170054000Y-73279000D01*
X183007000Y-82804000D02*
X175387000Y-75184000D01*
X163575000Y-61850000D02*
X163575000Y-64305500D01*
X164438000Y-60987000D02*
X163575000Y-61850000D01*
X175387000Y-75184000D02*
X173355000Y-75184000D01*
X177545500Y-66176500D02*
X180457000Y-69088000D01*
X163348681Y-64531819D02*
X162159500Y-65721000D01*
X169907000Y-73426000D02*
X170054000Y-73279000D01*
X150749000Y-64516000D02*
X152624000Y-64516000D01*
X153416000Y-64516000D02*
X154432000Y-63500000D01*
X163575000Y-64305500D02*
X163348681Y-64531819D01*
X151954000Y-78613000D02*
X149987000Y-78613000D01*
%TO.N,Net-(D1-K)*%
X174832000Y-62108000D02*
X174827000Y-62103000D01*
X174832000Y-66421000D02*
X174832000Y-62108000D01*
%TO.N,Net-(D2-K)*%
X170049000Y-62103000D02*
X170049000Y-66416000D01*
X170049000Y-66416000D02*
X170054000Y-66421000D01*
%TO.N,/SDA*%
X175317000Y-74733000D02*
X171510000Y-70926000D01*
X170307000Y-69850000D02*
X170054000Y-69850000D01*
X181104810Y-80264000D02*
X175573810Y-74733000D01*
X150992280Y-73025000D02*
X150023000Y-72055720D01*
X152624000Y-65786000D02*
X152624000Y-66287176D01*
X150023000Y-72055720D02*
X150023000Y-68387000D01*
X175573810Y-74733000D02*
X175317000Y-74733000D01*
X165608000Y-64770000D02*
X165608000Y-65404000D01*
X150023000Y-68387000D02*
X152624000Y-65786000D01*
X171130000Y-70926000D02*
X170054000Y-69850000D01*
X162959500Y-65823334D02*
X163387834Y-65395000D01*
X151954000Y-79883000D02*
X150114000Y-79883000D01*
X162959500Y-66456000D02*
X162959500Y-65823334D01*
X163387834Y-65395000D02*
X165599000Y-65395000D01*
X183007000Y-80264000D02*
X181104810Y-80264000D01*
X150749000Y-73025000D02*
X152624000Y-73025000D01*
X165599000Y-65395000D02*
X165608000Y-65404000D01*
X152624000Y-73025000D02*
X150992280Y-73025000D01*
X165608000Y-65404000D02*
X170054000Y-69850000D01*
X152624000Y-66287176D02*
X153199754Y-66862930D01*
X171510000Y-70926000D02*
X171130000Y-70926000D01*
%TO.N,/D4*%
X155080000Y-70400500D02*
X155080000Y-75116810D01*
X155080000Y-75116810D02*
X154341405Y-75855405D01*
X154341405Y-75855405D02*
X154341405Y-83804941D01*
X154341405Y-83804941D02*
X152327346Y-85819000D01*
X150209000Y-85819000D02*
X149033000Y-86995000D01*
X152327346Y-85819000D02*
X150209000Y-85819000D01*
X157589500Y-68626000D02*
X156854500Y-68626000D01*
X156854500Y-68626000D02*
X155080000Y-70400500D01*
%TO.N,/D7*%
X160131166Y-75857000D02*
X160559500Y-75428666D01*
X158077797Y-76308000D02*
X159517976Y-76308000D01*
X156653000Y-86995000D02*
X155694405Y-86036405D01*
X155694405Y-76446620D02*
X156690025Y-75451000D01*
X157220797Y-75451000D02*
X158077797Y-76308000D01*
X155694405Y-86036405D02*
X155694405Y-76446620D01*
X159517976Y-76308000D02*
X159968976Y-75857000D01*
X156690025Y-75451000D02*
X157220797Y-75451000D01*
X160559500Y-75428666D02*
X160559500Y-74796000D01*
X159968976Y-75857000D02*
X160131166Y-75857000D01*
%TO.N,/D2*%
X153416000Y-75438000D02*
X154178000Y-74676000D01*
X153162000Y-83439000D02*
X153416000Y-83185000D01*
X152736726Y-84134000D02*
X153162000Y-83708726D01*
X155886000Y-63189000D02*
X158820000Y-63189000D01*
X143953000Y-86995000D02*
X146814000Y-84134000D01*
X153162000Y-83708726D02*
X153162000Y-83439000D01*
X158820000Y-63189000D02*
X158959500Y-63328500D01*
X153416000Y-83185000D02*
X153416000Y-75438000D01*
X154305000Y-64770000D02*
X155886000Y-63189000D01*
X154178000Y-74676000D02*
X154178000Y-64770000D01*
X154178000Y-64770000D02*
X154305000Y-64770000D01*
X158959500Y-63328500D02*
X158959500Y-66456000D01*
X146814000Y-84134000D02*
X152736726Y-84134000D01*
%TO.N,/D6*%
X159331166Y-75857000D02*
X158264607Y-75857000D01*
X159759500Y-74796000D02*
X159759500Y-75428666D01*
X157407607Y-75000000D02*
X156503215Y-75000000D01*
X155243405Y-76259810D02*
X155243405Y-85864595D01*
X156503215Y-75000000D02*
X155243405Y-76259810D01*
X155243405Y-85864595D02*
X154113000Y-86995000D01*
X158264607Y-75857000D02*
X157407607Y-75000000D01*
X159759500Y-75428666D02*
X159331166Y-75857000D01*
%TO.N,/D8*%
X161359500Y-75428666D02*
X161359500Y-74796000D01*
X157301835Y-76327000D02*
X157733835Y-76759000D01*
X157733835Y-76759000D02*
X160029166Y-76759000D01*
X156145405Y-83947405D02*
X156145405Y-76633430D01*
X156451835Y-76327000D02*
X157301835Y-76327000D01*
X159193000Y-86995000D02*
X156145405Y-83947405D01*
X160029166Y-76759000D02*
X161359500Y-75428666D01*
X156145405Y-76633430D02*
X156451835Y-76327000D01*
%TO.N,/D5*%
X158489000Y-74796000D02*
X158959500Y-74796000D01*
X156316405Y-74549000D02*
X158242000Y-74549000D01*
X158242000Y-74549000D02*
X158489000Y-74796000D01*
X154792405Y-83991751D02*
X154792405Y-76073000D01*
X151573000Y-86995000D02*
X151789156Y-86995000D01*
X154792405Y-76073000D02*
X156316405Y-74549000D01*
X151789156Y-86995000D02*
X154792405Y-83991751D01*
%TO.N,/D3*%
X153867000Y-83641536D02*
X153867000Y-75692000D01*
X152923536Y-84585000D02*
X153867000Y-83641536D01*
X148903000Y-84585000D02*
X152923536Y-84585000D01*
X154629000Y-68961000D02*
X155764000Y-67826000D01*
X154629000Y-74930000D02*
X154629000Y-68961000D01*
X146493000Y-86995000D02*
X148903000Y-84585000D01*
X155764000Y-67826000D02*
X157589500Y-67826000D01*
X153867000Y-75692000D02*
X154629000Y-74930000D01*
%TO.N,/TX*%
X159759500Y-68065500D02*
X159766000Y-68072000D01*
X159759500Y-66456000D02*
X159759500Y-68065500D01*
%TO.N,/RX*%
X160559500Y-66456000D02*
X160559500Y-69056500D01*
X160559500Y-69056500D02*
X160528000Y-69088000D01*
%TO.N,/MISO*%
X164693500Y-74930000D02*
X164559500Y-74796000D01*
X166497000Y-74930000D02*
X164693500Y-74930000D01*
%TO.N,/MOSI*%
X165697000Y-75857000D02*
X164187834Y-75857000D01*
X165735000Y-75819000D02*
X165697000Y-75857000D01*
X164187834Y-75857000D02*
X163759500Y-75428666D01*
X163759500Y-75428666D02*
X163759500Y-74796000D01*
%TO.N,/RESET*%
X161359500Y-67449416D02*
X161384085Y-67474001D01*
X161359500Y-66456000D02*
X161359500Y-67449416D01*
X176657000Y-69977000D02*
X178806000Y-69977000D01*
X178806000Y-69977000D02*
X180457000Y-71628000D01*
%TO.N,Net-(U2-~{INTA})*%
X148064000Y-82931000D02*
X145643000Y-80510000D01*
X146503414Y-78613000D02*
X147004000Y-78613000D01*
X145643000Y-79473414D02*
X146503414Y-78613000D01*
X145643000Y-80510000D02*
X145643000Y-79473414D01*
%TO.N,Net-(U2-SQW{slash}~INT)*%
X149261000Y-78312280D02*
X149352000Y-78221280D01*
X149352000Y-78221280D02*
X149352000Y-77851000D01*
X149352000Y-77851000D02*
X149860000Y-77343000D01*
X149352000Y-79004720D02*
X149261000Y-78913720D01*
X150383000Y-83058000D02*
X149352000Y-82027000D01*
X149860000Y-77343000D02*
X151954000Y-77343000D01*
X149352000Y-82027000D02*
X149352000Y-79004720D01*
X149261000Y-78913720D02*
X149261000Y-78312280D01*
%TO.N,Net-(U2-X1)*%
X141420000Y-76073000D02*
X141286000Y-76207000D01*
X147004000Y-76073000D02*
X141420000Y-76073000D01*
%TO.N,Net-(U2-X2)*%
X145350000Y-77343000D02*
X141286000Y-81407000D01*
X147004000Y-77343000D02*
X145350000Y-77343000D01*
%TD*%
M02*
