%TF.GenerationSoftware,KiCad,Pcbnew,9.0.5*%
%TF.CreationDate,2025-10-31T12:22:53+09:00*%
%TF.ProjectId,MCU_Datalogger,4d43555f-4461-4746-916c-6f676765722e,1*%
%TF.SameCoordinates,Original*%
%TF.FileFunction,Copper,L2,Inr*%
%TF.FilePolarity,Positive*%
%FSLAX46Y46*%
G04 Gerber Fmt 4.6, Leading zero omitted, Abs format (unit mm)*
G04 Created by KiCad (PCBNEW 9.0.5) date 2025-10-31 12:22:53*
%MOMM*%
%LPD*%
G01*
G04 APERTURE LIST*
%TA.AperFunction,ComponentPad*%
%ADD10R,1.700000X1.700000*%
%TD*%
%TA.AperFunction,ComponentPad*%
%ADD11C,1.700000*%
%TD*%
%TA.AperFunction,ViaPad*%
%ADD12C,0.900000*%
%TD*%
%TA.AperFunction,ViaPad*%
%ADD13C,0.800000*%
%TD*%
%TA.AperFunction,Conductor*%
%ADD14C,0.250000*%
%TD*%
G04 APERTURE END LIST*
D10*
%TO.N,GND*%
%TO.C,J3*%
X169607000Y-86995000D03*
D11*
%TO.N,/VCC*%
X172147000Y-86995000D03*
%TO.N,/RX*%
X174687000Y-86995000D03*
%TO.N,/TX*%
X177227000Y-86995000D03*
%TD*%
D10*
%TO.N,/VCC*%
%TO.C,BAT1*%
X141605000Y-69337000D03*
D11*
%TO.N,GND*%
X141605000Y-71877000D03*
%TD*%
D10*
%TO.N,/MISO*%
%TO.C,J4*%
X180457000Y-66548000D03*
D11*
%TO.N,/VCC*%
X182997000Y-66548000D03*
%TO.N,/SCK*%
X180457000Y-69088000D03*
%TO.N,/MOSI*%
X182997000Y-69088000D03*
%TO.N,/RESET*%
X180457000Y-71628000D03*
%TO.N,GND*%
X182997000Y-71628000D03*
%TD*%
D10*
%TO.N,GND*%
%TO.C,J1*%
X183007000Y-75184000D03*
D11*
%TO.N,/VCC*%
X183007000Y-77724000D03*
%TO.N,/SDA*%
X183007000Y-80264000D03*
%TO.N,/SCK*%
X183007000Y-82804000D03*
%TD*%
D10*
%TO.N,/D2*%
%TO.C,J2*%
X143953000Y-86995000D03*
D11*
%TO.N,/D3*%
X146493000Y-86995000D03*
%TO.N,/D4*%
X149033000Y-86995000D03*
%TO.N,/D5*%
X151573000Y-86995000D03*
%TO.N,/D6*%
X154113000Y-86995000D03*
%TO.N,/D7*%
X156653000Y-86995000D03*
%TO.N,/D8*%
X159193000Y-86995000D03*
%TO.N,GND*%
X161733000Y-86995000D03*
%TO.N,/VCC*%
X164273000Y-86995000D03*
%TD*%
D12*
%TO.N,GND*%
X147066000Y-63246000D03*
X171704000Y-81788000D03*
X158496000Y-60706000D03*
X148527000Y-79883000D03*
X147066000Y-73025000D03*
X176657000Y-64897000D03*
X159385000Y-69469000D03*
X150876000Y-63119000D03*
X167513000Y-70201000D03*
X171958000Y-78168000D03*
X168402000Y-62103000D03*
X160274000Y-60833000D03*
X151574000Y-70485000D03*
X159131000Y-70993000D03*
X160782000Y-63754000D03*
X173228000Y-66421000D03*
X146939000Y-65786000D03*
%TO.N,/VCC*%
X147193000Y-71755000D03*
X147066000Y-64516000D03*
X145414986Y-81448713D03*
X165100000Y-63754000D03*
X156210000Y-60386000D03*
X171958000Y-63754000D03*
X152019000Y-74676000D03*
X152654000Y-67818000D03*
X156122614Y-70524614D03*
X174752000Y-71374000D03*
X172795364Y-71044636D03*
X172974000Y-73660000D03*
X151003000Y-61976000D03*
X167513000Y-72601000D03*
X152273000Y-81407000D03*
D13*
%TO.N,Net-(U4-PB6)*%
X158623000Y-77597000D03*
X156083000Y-72644000D03*
%TO.N,Net-(U4-PB7)*%
X161798000Y-77470000D03*
X163449000Y-77597000D03*
X156173000Y-73660000D03*
X159684500Y-65024000D03*
%TO.N,/SCK*%
X150749000Y-64516000D03*
X154432000Y-63500000D03*
X164322181Y-64531819D03*
X173355000Y-75184000D03*
X169926000Y-74803000D03*
X150749000Y-71755000D03*
X149987000Y-78613000D03*
%TO.N,/SDA*%
X165608000Y-64770000D03*
X150749000Y-73025000D03*
X150114000Y-79883000D03*
X153199754Y-66862930D03*
%TO.N,/TX*%
X159766000Y-68072000D03*
%TO.N,/RX*%
X160528000Y-69088000D03*
%TO.N,/MISO*%
X166497000Y-74930000D03*
%TO.N,/MOSI*%
X165735000Y-75819000D03*
%TO.N,/RESET*%
X161384085Y-67474001D03*
%TD*%
D14*
%TO.N,Net-(U4-PB6)*%
X155448000Y-73279000D02*
X156083000Y-72644000D01*
X158623000Y-77597000D02*
X155448000Y-74422000D01*
X155448000Y-74422000D02*
X155448000Y-73279000D01*
%TO.N,Net-(U4-PB7)*%
X162687000Y-76835000D02*
X163449000Y-77597000D01*
X160147000Y-76835000D02*
X162687000Y-76835000D01*
X159684500Y-66756500D02*
X157099000Y-69342000D01*
X159684500Y-65024000D02*
X159684500Y-66756500D01*
X161798000Y-77470000D02*
X159983000Y-77470000D01*
X157099000Y-73787000D02*
X160147000Y-76835000D01*
X157099000Y-69342000D02*
X157099000Y-73787000D01*
X159983000Y-77470000D02*
X156173000Y-73660000D01*
%TO.N,/SCK*%
X155004000Y-62928000D02*
X162718362Y-62928000D01*
X150749000Y-71755000D02*
X150749000Y-64516000D01*
X173355000Y-75184000D02*
X170307000Y-75184000D01*
X154432000Y-63500000D02*
X155004000Y-62928000D01*
X170307000Y-75184000D02*
X169926000Y-74803000D01*
X150749000Y-71755000D02*
X149987000Y-72517000D01*
X162718362Y-62928000D02*
X164322181Y-64531819D01*
X149987000Y-72517000D02*
X149987000Y-78613000D01*
%TO.N,/SDA*%
X159994859Y-64135000D02*
X161117678Y-65257819D01*
X150749000Y-79248000D02*
X150749000Y-73025000D01*
X150114000Y-79883000D02*
X150749000Y-79248000D01*
X155927684Y-64135000D02*
X159994859Y-64135000D01*
X165120181Y-65257819D02*
X165608000Y-64770000D01*
X153199754Y-66862930D02*
X155927684Y-64135000D01*
X161117678Y-65257819D02*
X165120181Y-65257819D01*
%TO.N,/TX*%
X172271810Y-84131000D02*
X160979000Y-72838190D01*
X160979000Y-69663720D02*
X161254000Y-69388720D01*
X175863000Y-86507884D02*
X175837463Y-86482347D01*
X160979000Y-72838190D02*
X160979000Y-69663720D01*
X160828720Y-68362000D02*
X160056000Y-68362000D01*
X160056000Y-68362000D02*
X159766000Y-68072000D01*
X176408000Y-85911810D02*
X176408000Y-85087810D01*
X161254000Y-68787280D02*
X160828720Y-68362000D01*
X176462810Y-84131000D02*
X172271810Y-84131000D01*
X175837463Y-86482347D02*
X176408000Y-85911810D01*
X175863000Y-86995000D02*
X175863000Y-86507884D01*
X176408000Y-85087810D02*
X176727000Y-84768810D01*
X161254000Y-69388720D02*
X161254000Y-68787280D01*
X177227000Y-86995000D02*
X175863000Y-86995000D01*
X176727000Y-84768810D02*
X176727000Y-84395190D01*
X176727000Y-84395190D02*
X176462810Y-84131000D01*
%TO.N,/RX*%
X160528000Y-69088000D02*
X160528000Y-73025000D01*
X172085000Y-84582000D02*
X176276000Y-84582000D01*
X160528000Y-73025000D02*
X172085000Y-84582000D01*
X176276000Y-84582000D02*
X175957000Y-84901000D01*
X175957000Y-84901000D02*
X175957000Y-85725000D01*
X175957000Y-85725000D02*
X174687000Y-86995000D01*
%TO.N,/MISO*%
X166370000Y-75057000D02*
X166497000Y-74930000D01*
X174368380Y-76441000D02*
X166994810Y-76441000D01*
X166994810Y-76441000D02*
X166461000Y-75907190D01*
X166461000Y-75518280D02*
X166370000Y-75427280D01*
X178830000Y-71979380D02*
X174368380Y-76441000D01*
X178830000Y-68175000D02*
X178830000Y-71979380D01*
X166370000Y-75427280D02*
X166370000Y-75057000D01*
X166461000Y-75907190D02*
X166461000Y-75518280D01*
X180457000Y-66548000D02*
X178830000Y-68175000D01*
%TO.N,/MOSI*%
X182997000Y-69088000D02*
X181288558Y-70796442D01*
X179281000Y-71140884D02*
X179281000Y-72115116D01*
X180944116Y-70452000D02*
X179969884Y-70452000D01*
X179969884Y-70452000D02*
X179281000Y-71140884D01*
X174555190Y-76892000D02*
X166808000Y-76892000D01*
X166808000Y-76892000D02*
X165735000Y-75819000D01*
X179306537Y-72140653D02*
X174555190Y-76892000D01*
X181288558Y-70796442D02*
X180944116Y-70452000D01*
X179281000Y-72115116D02*
X179306537Y-72140653D01*
%TO.N,/RESET*%
X161658084Y-69622446D02*
X161658084Y-72879464D01*
X161658084Y-67748000D02*
X161658084Y-68553554D01*
X174742000Y-77343000D02*
X180457000Y-71628000D01*
X161705000Y-68600470D02*
X161705000Y-69575530D01*
X161384085Y-67474001D02*
X161658084Y-67748000D01*
X161705000Y-69575530D02*
X161658084Y-69622446D01*
X161658084Y-72879464D02*
X166121620Y-77343000D01*
X161658084Y-68553554D02*
X161705000Y-68600470D01*
X166121620Y-77343000D02*
X174742000Y-77343000D01*
%TD*%
M02*
