%TF.GenerationSoftware,KiCad,Pcbnew,9.0.5*%
%TF.CreationDate,2025-10-31T12:22:54+09:00*%
%TF.ProjectId,MCU_Datalogger,4d43555f-4461-4746-916c-6f676765722e,1*%
%TF.SameCoordinates,Original*%
%TF.FileFunction,Legend,Bot*%
%TF.FilePolarity,Positive*%
%FSLAX46Y46*%
G04 Gerber Fmt 4.6, Leading zero omitted, Abs format (unit mm)*
G04 Created by KiCad (PCBNEW 9.0.5) date 2025-10-31 12:22:54*
%MOMM*%
%LPD*%
G01*
G04 APERTURE LIST*
%ADD10C,0.100000*%
G04 APERTURE END LIST*
D10*
X149352000Y-66675000D02*
X167386000Y-66675000D01*
X167386000Y-76835000D01*
X149352000Y-76835000D01*
X149352000Y-66675000D01*
X166256687Y-75977180D02*
X166304306Y-76024800D01*
X166304306Y-76024800D02*
X166447163Y-76072419D01*
X166447163Y-76072419D02*
X166542401Y-76072419D01*
X166542401Y-76072419D02*
X166685258Y-76024800D01*
X166685258Y-76024800D02*
X166780496Y-75929561D01*
X166780496Y-75929561D02*
X166828115Y-75834323D01*
X166828115Y-75834323D02*
X166875734Y-75643847D01*
X166875734Y-75643847D02*
X166875734Y-75500990D01*
X166875734Y-75500990D02*
X166828115Y-75310514D01*
X166828115Y-75310514D02*
X166780496Y-75215276D01*
X166780496Y-75215276D02*
X166685258Y-75120038D01*
X166685258Y-75120038D02*
X166542401Y-75072419D01*
X166542401Y-75072419D02*
X166447163Y-75072419D01*
X166447163Y-75072419D02*
X166304306Y-75120038D01*
X166304306Y-75120038D02*
X166256687Y-75167657D01*
X165923353Y-75072419D02*
X165685258Y-76072419D01*
X165685258Y-76072419D02*
X165494782Y-75358133D01*
X165494782Y-75358133D02*
X165304306Y-76072419D01*
X165304306Y-76072419D02*
X165066211Y-75072419D01*
X164209068Y-76072419D02*
X164685258Y-76072419D01*
X164685258Y-76072419D02*
X164685258Y-75072419D01*
X164113830Y-76167657D02*
X163351925Y-76167657D01*
X162542401Y-75977180D02*
X162590020Y-76024800D01*
X162590020Y-76024800D02*
X162732877Y-76072419D01*
X162732877Y-76072419D02*
X162828115Y-76072419D01*
X162828115Y-76072419D02*
X162970972Y-76024800D01*
X162970972Y-76024800D02*
X163066210Y-75929561D01*
X163066210Y-75929561D02*
X163113829Y-75834323D01*
X163113829Y-75834323D02*
X163161448Y-75643847D01*
X163161448Y-75643847D02*
X163161448Y-75500990D01*
X163161448Y-75500990D02*
X163113829Y-75310514D01*
X163113829Y-75310514D02*
X163066210Y-75215276D01*
X163066210Y-75215276D02*
X162970972Y-75120038D01*
X162970972Y-75120038D02*
X162828115Y-75072419D01*
X162828115Y-75072419D02*
X162732877Y-75072419D01*
X162732877Y-75072419D02*
X162590020Y-75120038D01*
X162590020Y-75120038D02*
X162542401Y-75167657D01*
X161970972Y-76072419D02*
X162066210Y-76024800D01*
X162066210Y-76024800D02*
X162113829Y-75977180D01*
X162113829Y-75977180D02*
X162161448Y-75881942D01*
X162161448Y-75881942D02*
X162161448Y-75596228D01*
X162161448Y-75596228D02*
X162113829Y-75500990D01*
X162113829Y-75500990D02*
X162066210Y-75453371D01*
X162066210Y-75453371D02*
X161970972Y-75405752D01*
X161970972Y-75405752D02*
X161828115Y-75405752D01*
X161828115Y-75405752D02*
X161732877Y-75453371D01*
X161732877Y-75453371D02*
X161685258Y-75500990D01*
X161685258Y-75500990D02*
X161637639Y-75596228D01*
X161637639Y-75596228D02*
X161637639Y-75881942D01*
X161637639Y-75881942D02*
X161685258Y-75977180D01*
X161685258Y-75977180D02*
X161732877Y-76024800D01*
X161732877Y-76024800D02*
X161828115Y-76072419D01*
X161828115Y-76072419D02*
X161970972Y-76072419D01*
X161209067Y-76072419D02*
X161209067Y-75405752D01*
X161209067Y-75500990D02*
X161161448Y-75453371D01*
X161161448Y-75453371D02*
X161066210Y-75405752D01*
X161066210Y-75405752D02*
X160923353Y-75405752D01*
X160923353Y-75405752D02*
X160828115Y-75453371D01*
X160828115Y-75453371D02*
X160780496Y-75548609D01*
X160780496Y-75548609D02*
X160780496Y-76072419D01*
X160780496Y-75548609D02*
X160732877Y-75453371D01*
X160732877Y-75453371D02*
X160637639Y-75405752D01*
X160637639Y-75405752D02*
X160494782Y-75405752D01*
X160494782Y-75405752D02*
X160399543Y-75453371D01*
X160399543Y-75453371D02*
X160351924Y-75548609D01*
X160351924Y-75548609D02*
X160351924Y-76072419D01*
X159875734Y-75405752D02*
X159875734Y-76405752D01*
X159875734Y-75453371D02*
X159780496Y-75405752D01*
X159780496Y-75405752D02*
X159590020Y-75405752D01*
X159590020Y-75405752D02*
X159494782Y-75453371D01*
X159494782Y-75453371D02*
X159447163Y-75500990D01*
X159447163Y-75500990D02*
X159399544Y-75596228D01*
X159399544Y-75596228D02*
X159399544Y-75881942D01*
X159399544Y-75881942D02*
X159447163Y-75977180D01*
X159447163Y-75977180D02*
X159494782Y-76024800D01*
X159494782Y-76024800D02*
X159590020Y-76072419D01*
X159590020Y-76072419D02*
X159780496Y-76072419D01*
X159780496Y-76072419D02*
X159875734Y-76024800D01*
X158542401Y-76072419D02*
X158542401Y-75548609D01*
X158542401Y-75548609D02*
X158590020Y-75453371D01*
X158590020Y-75453371D02*
X158685258Y-75405752D01*
X158685258Y-75405752D02*
X158875734Y-75405752D01*
X158875734Y-75405752D02*
X158970972Y-75453371D01*
X158542401Y-76024800D02*
X158637639Y-76072419D01*
X158637639Y-76072419D02*
X158875734Y-76072419D01*
X158875734Y-76072419D02*
X158970972Y-76024800D01*
X158970972Y-76024800D02*
X159018591Y-75929561D01*
X159018591Y-75929561D02*
X159018591Y-75834323D01*
X159018591Y-75834323D02*
X158970972Y-75739085D01*
X158970972Y-75739085D02*
X158875734Y-75691466D01*
X158875734Y-75691466D02*
X158637639Y-75691466D01*
X158637639Y-75691466D02*
X158542401Y-75643847D01*
X158066210Y-75405752D02*
X158066210Y-76072419D01*
X158066210Y-75500990D02*
X158018591Y-75453371D01*
X158018591Y-75453371D02*
X157923353Y-75405752D01*
X157923353Y-75405752D02*
X157780496Y-75405752D01*
X157780496Y-75405752D02*
X157685258Y-75453371D01*
X157685258Y-75453371D02*
X157637639Y-75548609D01*
X157637639Y-75548609D02*
X157637639Y-76072419D01*
X157256686Y-75405752D02*
X157018591Y-76072419D01*
X156780496Y-75405752D02*
X157018591Y-76072419D01*
X157018591Y-76072419D02*
X157113829Y-76310514D01*
X157113829Y-76310514D02*
X157161448Y-76358133D01*
X157161448Y-76358133D02*
X157256686Y-76405752D01*
X166875734Y-67330881D02*
X166828115Y-67283262D01*
X166828115Y-67283262D02*
X166732877Y-67235643D01*
X166732877Y-67235643D02*
X166494782Y-67235643D01*
X166494782Y-67235643D02*
X166399544Y-67283262D01*
X166399544Y-67283262D02*
X166351925Y-67330881D01*
X166351925Y-67330881D02*
X166304306Y-67426119D01*
X166304306Y-67426119D02*
X166304306Y-67521357D01*
X166304306Y-67521357D02*
X166351925Y-67664214D01*
X166351925Y-67664214D02*
X166923353Y-68235643D01*
X166923353Y-68235643D02*
X166304306Y-68235643D01*
X165732877Y-68235643D02*
X165828115Y-68188024D01*
X165828115Y-68188024D02*
X165875734Y-68092785D01*
X165875734Y-68092785D02*
X165875734Y-67235643D01*
X164923353Y-68235643D02*
X164923353Y-67711833D01*
X164923353Y-67711833D02*
X164970972Y-67616595D01*
X164970972Y-67616595D02*
X165066210Y-67568976D01*
X165066210Y-67568976D02*
X165256686Y-67568976D01*
X165256686Y-67568976D02*
X165351924Y-67616595D01*
X164923353Y-68188024D02*
X165018591Y-68235643D01*
X165018591Y-68235643D02*
X165256686Y-68235643D01*
X165256686Y-68235643D02*
X165351924Y-68188024D01*
X165351924Y-68188024D02*
X165399543Y-68092785D01*
X165399543Y-68092785D02*
X165399543Y-67997547D01*
X165399543Y-67997547D02*
X165351924Y-67902309D01*
X165351924Y-67902309D02*
X165256686Y-67854690D01*
X165256686Y-67854690D02*
X165018591Y-67854690D01*
X165018591Y-67854690D02*
X164923353Y-67807071D01*
X164542400Y-67568976D02*
X164304305Y-68235643D01*
X164066210Y-67568976D02*
X164304305Y-68235643D01*
X164304305Y-68235643D02*
X164399543Y-68473738D01*
X164399543Y-68473738D02*
X164447162Y-68521357D01*
X164447162Y-68521357D02*
X164542400Y-68568976D01*
X163304305Y-68188024D02*
X163399543Y-68235643D01*
X163399543Y-68235643D02*
X163590019Y-68235643D01*
X163590019Y-68235643D02*
X163685257Y-68188024D01*
X163685257Y-68188024D02*
X163732876Y-68092785D01*
X163732876Y-68092785D02*
X163732876Y-67711833D01*
X163732876Y-67711833D02*
X163685257Y-67616595D01*
X163685257Y-67616595D02*
X163590019Y-67568976D01*
X163590019Y-67568976D02*
X163399543Y-67568976D01*
X163399543Y-67568976D02*
X163304305Y-67616595D01*
X163304305Y-67616595D02*
X163256686Y-67711833D01*
X163256686Y-67711833D02*
X163256686Y-67807071D01*
X163256686Y-67807071D02*
X163732876Y-67902309D01*
X162828114Y-68235643D02*
X162828114Y-67568976D01*
X162828114Y-67759452D02*
X162780495Y-67664214D01*
X162780495Y-67664214D02*
X162732876Y-67616595D01*
X162732876Y-67616595D02*
X162637638Y-67568976D01*
X162637638Y-67568976D02*
X162542400Y-67568976D01*
X162447162Y-68330881D02*
X161685257Y-68330881D01*
X161447161Y-68235643D02*
X161447161Y-67235643D01*
X161447161Y-67235643D02*
X161113828Y-67949928D01*
X161113828Y-67949928D02*
X160780495Y-67235643D01*
X160780495Y-67235643D02*
X160780495Y-68235643D01*
X159732876Y-68140404D02*
X159780495Y-68188024D01*
X159780495Y-68188024D02*
X159923352Y-68235643D01*
X159923352Y-68235643D02*
X160018590Y-68235643D01*
X160018590Y-68235643D02*
X160161447Y-68188024D01*
X160161447Y-68188024D02*
X160256685Y-68092785D01*
X160256685Y-68092785D02*
X160304304Y-67997547D01*
X160304304Y-67997547D02*
X160351923Y-67807071D01*
X160351923Y-67807071D02*
X160351923Y-67664214D01*
X160351923Y-67664214D02*
X160304304Y-67473738D01*
X160304304Y-67473738D02*
X160256685Y-67378500D01*
X160256685Y-67378500D02*
X160161447Y-67283262D01*
X160161447Y-67283262D02*
X160018590Y-67235643D01*
X160018590Y-67235643D02*
X159923352Y-67235643D01*
X159923352Y-67235643D02*
X159780495Y-67283262D01*
X159780495Y-67283262D02*
X159732876Y-67330881D01*
X159304304Y-67235643D02*
X159304304Y-68045166D01*
X159304304Y-68045166D02*
X159256685Y-68140404D01*
X159256685Y-68140404D02*
X159209066Y-68188024D01*
X159209066Y-68188024D02*
X159113828Y-68235643D01*
X159113828Y-68235643D02*
X158923352Y-68235643D01*
X158923352Y-68235643D02*
X158828114Y-68188024D01*
X158828114Y-68188024D02*
X158780495Y-68140404D01*
X158780495Y-68140404D02*
X158732876Y-68045166D01*
X158732876Y-68045166D02*
X158732876Y-67235643D01*
X158494781Y-68330881D02*
X157732876Y-68330881D01*
X157494780Y-68235643D02*
X157494780Y-67235643D01*
X157494780Y-67235643D02*
X157256685Y-67235643D01*
X157256685Y-67235643D02*
X157113828Y-67283262D01*
X157113828Y-67283262D02*
X157018590Y-67378500D01*
X157018590Y-67378500D02*
X156970971Y-67473738D01*
X156970971Y-67473738D02*
X156923352Y-67664214D01*
X156923352Y-67664214D02*
X156923352Y-67807071D01*
X156923352Y-67807071D02*
X156970971Y-67997547D01*
X156970971Y-67997547D02*
X157018590Y-68092785D01*
X157018590Y-68092785D02*
X157113828Y-68188024D01*
X157113828Y-68188024D02*
X157256685Y-68235643D01*
X157256685Y-68235643D02*
X157494780Y-68235643D01*
X156066209Y-68235643D02*
X156066209Y-67711833D01*
X156066209Y-67711833D02*
X156113828Y-67616595D01*
X156113828Y-67616595D02*
X156209066Y-67568976D01*
X156209066Y-67568976D02*
X156399542Y-67568976D01*
X156399542Y-67568976D02*
X156494780Y-67616595D01*
X156066209Y-68188024D02*
X156161447Y-68235643D01*
X156161447Y-68235643D02*
X156399542Y-68235643D01*
X156399542Y-68235643D02*
X156494780Y-68188024D01*
X156494780Y-68188024D02*
X156542399Y-68092785D01*
X156542399Y-68092785D02*
X156542399Y-67997547D01*
X156542399Y-67997547D02*
X156494780Y-67902309D01*
X156494780Y-67902309D02*
X156399542Y-67854690D01*
X156399542Y-67854690D02*
X156161447Y-67854690D01*
X156161447Y-67854690D02*
X156066209Y-67807071D01*
X155732875Y-67568976D02*
X155351923Y-67568976D01*
X155590018Y-67235643D02*
X155590018Y-68092785D01*
X155590018Y-68092785D02*
X155542399Y-68188024D01*
X155542399Y-68188024D02*
X155447161Y-68235643D01*
X155447161Y-68235643D02*
X155351923Y-68235643D01*
X154590018Y-68235643D02*
X154590018Y-67711833D01*
X154590018Y-67711833D02*
X154637637Y-67616595D01*
X154637637Y-67616595D02*
X154732875Y-67568976D01*
X154732875Y-67568976D02*
X154923351Y-67568976D01*
X154923351Y-67568976D02*
X155018589Y-67616595D01*
X154590018Y-68188024D02*
X154685256Y-68235643D01*
X154685256Y-68235643D02*
X154923351Y-68235643D01*
X154923351Y-68235643D02*
X155018589Y-68188024D01*
X155018589Y-68188024D02*
X155066208Y-68092785D01*
X155066208Y-68092785D02*
X155066208Y-67997547D01*
X155066208Y-67997547D02*
X155018589Y-67902309D01*
X155018589Y-67902309D02*
X154923351Y-67854690D01*
X154923351Y-67854690D02*
X154685256Y-67854690D01*
X154685256Y-67854690D02*
X154590018Y-67807071D01*
X153970970Y-68235643D02*
X154066208Y-68188024D01*
X154066208Y-68188024D02*
X154113827Y-68092785D01*
X154113827Y-68092785D02*
X154113827Y-67235643D01*
X153447160Y-68235643D02*
X153542398Y-68188024D01*
X153542398Y-68188024D02*
X153590017Y-68140404D01*
X153590017Y-68140404D02*
X153637636Y-68045166D01*
X153637636Y-68045166D02*
X153637636Y-67759452D01*
X153637636Y-67759452D02*
X153590017Y-67664214D01*
X153590017Y-67664214D02*
X153542398Y-67616595D01*
X153542398Y-67616595D02*
X153447160Y-67568976D01*
X153447160Y-67568976D02*
X153304303Y-67568976D01*
X153304303Y-67568976D02*
X153209065Y-67616595D01*
X153209065Y-67616595D02*
X153161446Y-67664214D01*
X153161446Y-67664214D02*
X153113827Y-67759452D01*
X153113827Y-67759452D02*
X153113827Y-68045166D01*
X153113827Y-68045166D02*
X153161446Y-68140404D01*
X153161446Y-68140404D02*
X153209065Y-68188024D01*
X153209065Y-68188024D02*
X153304303Y-68235643D01*
X153304303Y-68235643D02*
X153447160Y-68235643D01*
X152256684Y-67568976D02*
X152256684Y-68378500D01*
X152256684Y-68378500D02*
X152304303Y-68473738D01*
X152304303Y-68473738D02*
X152351922Y-68521357D01*
X152351922Y-68521357D02*
X152447160Y-68568976D01*
X152447160Y-68568976D02*
X152590017Y-68568976D01*
X152590017Y-68568976D02*
X152685255Y-68521357D01*
X152256684Y-68188024D02*
X152351922Y-68235643D01*
X152351922Y-68235643D02*
X152542398Y-68235643D01*
X152542398Y-68235643D02*
X152637636Y-68188024D01*
X152637636Y-68188024D02*
X152685255Y-68140404D01*
X152685255Y-68140404D02*
X152732874Y-68045166D01*
X152732874Y-68045166D02*
X152732874Y-67759452D01*
X152732874Y-67759452D02*
X152685255Y-67664214D01*
X152685255Y-67664214D02*
X152637636Y-67616595D01*
X152637636Y-67616595D02*
X152542398Y-67568976D01*
X152542398Y-67568976D02*
X152351922Y-67568976D01*
X152351922Y-67568976D02*
X152256684Y-67616595D01*
X151351922Y-67568976D02*
X151351922Y-68378500D01*
X151351922Y-68378500D02*
X151399541Y-68473738D01*
X151399541Y-68473738D02*
X151447160Y-68521357D01*
X151447160Y-68521357D02*
X151542398Y-68568976D01*
X151542398Y-68568976D02*
X151685255Y-68568976D01*
X151685255Y-68568976D02*
X151780493Y-68521357D01*
X151351922Y-68188024D02*
X151447160Y-68235643D01*
X151447160Y-68235643D02*
X151637636Y-68235643D01*
X151637636Y-68235643D02*
X151732874Y-68188024D01*
X151732874Y-68188024D02*
X151780493Y-68140404D01*
X151780493Y-68140404D02*
X151828112Y-68045166D01*
X151828112Y-68045166D02*
X151828112Y-67759452D01*
X151828112Y-67759452D02*
X151780493Y-67664214D01*
X151780493Y-67664214D02*
X151732874Y-67616595D01*
X151732874Y-67616595D02*
X151637636Y-67568976D01*
X151637636Y-67568976D02*
X151447160Y-67568976D01*
X151447160Y-67568976D02*
X151351922Y-67616595D01*
X150494779Y-68188024D02*
X150590017Y-68235643D01*
X150590017Y-68235643D02*
X150780493Y-68235643D01*
X150780493Y-68235643D02*
X150875731Y-68188024D01*
X150875731Y-68188024D02*
X150923350Y-68092785D01*
X150923350Y-68092785D02*
X150923350Y-67711833D01*
X150923350Y-67711833D02*
X150875731Y-67616595D01*
X150875731Y-67616595D02*
X150780493Y-67568976D01*
X150780493Y-67568976D02*
X150590017Y-67568976D01*
X150590017Y-67568976D02*
X150494779Y-67616595D01*
X150494779Y-67616595D02*
X150447160Y-67711833D01*
X150447160Y-67711833D02*
X150447160Y-67807071D01*
X150447160Y-67807071D02*
X150923350Y-67902309D01*
X150018588Y-68235643D02*
X150018588Y-67568976D01*
X150018588Y-67759452D02*
X149970969Y-67664214D01*
X149970969Y-67664214D02*
X149923350Y-67616595D01*
X149923350Y-67616595D02*
X149828112Y-67568976D01*
X149828112Y-67568976D02*
X149732874Y-67568976D01*
X166828115Y-69464634D02*
X166066211Y-69464634D01*
X164875734Y-68940825D02*
X164828115Y-68893206D01*
X164828115Y-68893206D02*
X164732877Y-68845587D01*
X164732877Y-68845587D02*
X164494782Y-68845587D01*
X164494782Y-68845587D02*
X164399544Y-68893206D01*
X164399544Y-68893206D02*
X164351925Y-68940825D01*
X164351925Y-68940825D02*
X164304306Y-69036063D01*
X164304306Y-69036063D02*
X164304306Y-69131301D01*
X164304306Y-69131301D02*
X164351925Y-69274158D01*
X164351925Y-69274158D02*
X164923353Y-69845587D01*
X164923353Y-69845587D02*
X164304306Y-69845587D01*
X163875734Y-69845587D02*
X163875734Y-68845587D01*
X163875734Y-68845587D02*
X163542401Y-69559872D01*
X163542401Y-69559872D02*
X163209068Y-68845587D01*
X163209068Y-68845587D02*
X163209068Y-69845587D01*
X162732877Y-69845587D02*
X162732877Y-68845587D01*
X162732877Y-69226539D02*
X162637639Y-69178920D01*
X162637639Y-69178920D02*
X162447163Y-69178920D01*
X162447163Y-69178920D02*
X162351925Y-69226539D01*
X162351925Y-69226539D02*
X162304306Y-69274158D01*
X162304306Y-69274158D02*
X162256687Y-69369396D01*
X162256687Y-69369396D02*
X162256687Y-69655110D01*
X162256687Y-69655110D02*
X162304306Y-69750348D01*
X162304306Y-69750348D02*
X162351925Y-69797968D01*
X162351925Y-69797968D02*
X162447163Y-69845587D01*
X162447163Y-69845587D02*
X162637639Y-69845587D01*
X162637639Y-69845587D02*
X162732877Y-69797968D01*
X161828115Y-69845587D02*
X161828115Y-69178920D01*
X161828115Y-68845587D02*
X161875734Y-68893206D01*
X161875734Y-68893206D02*
X161828115Y-68940825D01*
X161828115Y-68940825D02*
X161780496Y-68893206D01*
X161780496Y-68893206D02*
X161828115Y-68845587D01*
X161828115Y-68845587D02*
X161828115Y-68940825D01*
X161494782Y-69178920D02*
X161113830Y-69178920D01*
X161351925Y-68845587D02*
X161351925Y-69702729D01*
X161351925Y-69702729D02*
X161304306Y-69797968D01*
X161304306Y-69797968D02*
X161209068Y-69845587D01*
X161209068Y-69845587D02*
X161113830Y-69845587D01*
X160018591Y-69321777D02*
X159685258Y-69321777D01*
X159542401Y-69845587D02*
X160018591Y-69845587D01*
X160018591Y-69845587D02*
X160018591Y-68845587D01*
X160018591Y-68845587D02*
X159542401Y-68845587D01*
X159113829Y-69321777D02*
X158780496Y-69321777D01*
X158637639Y-69845587D02*
X159113829Y-69845587D01*
X159113829Y-69845587D02*
X159113829Y-68845587D01*
X159113829Y-68845587D02*
X158637639Y-68845587D01*
X158209067Y-69845587D02*
X158209067Y-68845587D01*
X158209067Y-68845587D02*
X157828115Y-68845587D01*
X157828115Y-68845587D02*
X157732877Y-68893206D01*
X157732877Y-68893206D02*
X157685258Y-68940825D01*
X157685258Y-68940825D02*
X157637639Y-69036063D01*
X157637639Y-69036063D02*
X157637639Y-69178920D01*
X157637639Y-69178920D02*
X157685258Y-69274158D01*
X157685258Y-69274158D02*
X157732877Y-69321777D01*
X157732877Y-69321777D02*
X157828115Y-69369396D01*
X157828115Y-69369396D02*
X158209067Y-69369396D01*
X156637639Y-69845587D02*
X156970972Y-69369396D01*
X157209067Y-69845587D02*
X157209067Y-68845587D01*
X157209067Y-68845587D02*
X156828115Y-68845587D01*
X156828115Y-68845587D02*
X156732877Y-68893206D01*
X156732877Y-68893206D02*
X156685258Y-68940825D01*
X156685258Y-68940825D02*
X156637639Y-69036063D01*
X156637639Y-69036063D02*
X156637639Y-69178920D01*
X156637639Y-69178920D02*
X156685258Y-69274158D01*
X156685258Y-69274158D02*
X156732877Y-69321777D01*
X156732877Y-69321777D02*
X156828115Y-69369396D01*
X156828115Y-69369396D02*
X157209067Y-69369396D01*
X156018591Y-68845587D02*
X155828115Y-68845587D01*
X155828115Y-68845587D02*
X155732877Y-68893206D01*
X155732877Y-68893206D02*
X155637639Y-68988444D01*
X155637639Y-68988444D02*
X155590020Y-69178920D01*
X155590020Y-69178920D02*
X155590020Y-69512253D01*
X155590020Y-69512253D02*
X155637639Y-69702729D01*
X155637639Y-69702729D02*
X155732877Y-69797968D01*
X155732877Y-69797968D02*
X155828115Y-69845587D01*
X155828115Y-69845587D02*
X156018591Y-69845587D01*
X156018591Y-69845587D02*
X156113829Y-69797968D01*
X156113829Y-69797968D02*
X156209067Y-69702729D01*
X156209067Y-69702729D02*
X156256686Y-69512253D01*
X156256686Y-69512253D02*
X156256686Y-69178920D01*
X156256686Y-69178920D02*
X156209067Y-68988444D01*
X156209067Y-68988444D02*
X156113829Y-68893206D01*
X156113829Y-68893206D02*
X156018591Y-68845587D01*
X155161448Y-69845587D02*
X155161448Y-68845587D01*
X155161448Y-68845587D02*
X154828115Y-69559872D01*
X154828115Y-69559872D02*
X154494782Y-68845587D01*
X154494782Y-68845587D02*
X154494782Y-69845587D01*
X166828115Y-71074578D02*
X166066211Y-71074578D01*
X164256687Y-71455531D02*
X164590020Y-70979340D01*
X164828115Y-71455531D02*
X164828115Y-70455531D01*
X164828115Y-70455531D02*
X164447163Y-70455531D01*
X164447163Y-70455531D02*
X164351925Y-70503150D01*
X164351925Y-70503150D02*
X164304306Y-70550769D01*
X164304306Y-70550769D02*
X164256687Y-70646007D01*
X164256687Y-70646007D02*
X164256687Y-70788864D01*
X164256687Y-70788864D02*
X164304306Y-70884102D01*
X164304306Y-70884102D02*
X164351925Y-70931721D01*
X164351925Y-70931721D02*
X164447163Y-70979340D01*
X164447163Y-70979340D02*
X164828115Y-70979340D01*
X163970972Y-70455531D02*
X163399544Y-70455531D01*
X163685258Y-71455531D02*
X163685258Y-70455531D01*
X162494782Y-71360292D02*
X162542401Y-71407912D01*
X162542401Y-71407912D02*
X162685258Y-71455531D01*
X162685258Y-71455531D02*
X162780496Y-71455531D01*
X162780496Y-71455531D02*
X162923353Y-71407912D01*
X162923353Y-71407912D02*
X163018591Y-71312673D01*
X163018591Y-71312673D02*
X163066210Y-71217435D01*
X163066210Y-71217435D02*
X163113829Y-71026959D01*
X163113829Y-71026959D02*
X163113829Y-70884102D01*
X163113829Y-70884102D02*
X163066210Y-70693626D01*
X163066210Y-70693626D02*
X163018591Y-70598388D01*
X163018591Y-70598388D02*
X162923353Y-70503150D01*
X162923353Y-70503150D02*
X162780496Y-70455531D01*
X162780496Y-70455531D02*
X162685258Y-70455531D01*
X162685258Y-70455531D02*
X162542401Y-70503150D01*
X162542401Y-70503150D02*
X162494782Y-70550769D01*
X166828115Y-72684522D02*
X166066211Y-72684522D01*
X164828115Y-73065475D02*
X164828115Y-72065475D01*
X164399544Y-72160713D02*
X164351925Y-72113094D01*
X164351925Y-72113094D02*
X164256687Y-72065475D01*
X164256687Y-72065475D02*
X164018592Y-72065475D01*
X164018592Y-72065475D02*
X163923354Y-72113094D01*
X163923354Y-72113094D02*
X163875735Y-72160713D01*
X163875735Y-72160713D02*
X163828116Y-72255951D01*
X163828116Y-72255951D02*
X163828116Y-72351189D01*
X163828116Y-72351189D02*
X163875735Y-72494046D01*
X163875735Y-72494046D02*
X164447163Y-73065475D01*
X164447163Y-73065475D02*
X163828116Y-73065475D01*
X162828116Y-72970236D02*
X162875735Y-73017856D01*
X162875735Y-73017856D02*
X163018592Y-73065475D01*
X163018592Y-73065475D02*
X163113830Y-73065475D01*
X163113830Y-73065475D02*
X163256687Y-73017856D01*
X163256687Y-73017856D02*
X163351925Y-72922617D01*
X163351925Y-72922617D02*
X163399544Y-72827379D01*
X163399544Y-72827379D02*
X163447163Y-72636903D01*
X163447163Y-72636903D02*
X163447163Y-72494046D01*
X163447163Y-72494046D02*
X163399544Y-72303570D01*
X163399544Y-72303570D02*
X163351925Y-72208332D01*
X163351925Y-72208332D02*
X163256687Y-72113094D01*
X163256687Y-72113094D02*
X163113830Y-72065475D01*
X163113830Y-72065475D02*
X163018592Y-72065475D01*
X163018592Y-72065475D02*
X162875735Y-72113094D01*
X162875735Y-72113094D02*
X162828116Y-72160713D01*
X162351925Y-73017856D02*
X162351925Y-73065475D01*
X162351925Y-73065475D02*
X162399544Y-73160713D01*
X162399544Y-73160713D02*
X162447163Y-73208332D01*
X161209068Y-73017856D02*
X161066211Y-73065475D01*
X161066211Y-73065475D02*
X160828116Y-73065475D01*
X160828116Y-73065475D02*
X160732878Y-73017856D01*
X160732878Y-73017856D02*
X160685259Y-72970236D01*
X160685259Y-72970236D02*
X160637640Y-72874998D01*
X160637640Y-72874998D02*
X160637640Y-72779760D01*
X160637640Y-72779760D02*
X160685259Y-72684522D01*
X160685259Y-72684522D02*
X160732878Y-72636903D01*
X160732878Y-72636903D02*
X160828116Y-72589284D01*
X160828116Y-72589284D02*
X161018592Y-72541665D01*
X161018592Y-72541665D02*
X161113830Y-72494046D01*
X161113830Y-72494046D02*
X161161449Y-72446427D01*
X161161449Y-72446427D02*
X161209068Y-72351189D01*
X161209068Y-72351189D02*
X161209068Y-72255951D01*
X161209068Y-72255951D02*
X161161449Y-72160713D01*
X161161449Y-72160713D02*
X161113830Y-72113094D01*
X161113830Y-72113094D02*
X161018592Y-72065475D01*
X161018592Y-72065475D02*
X160780497Y-72065475D01*
X160780497Y-72065475D02*
X160637640Y-72113094D01*
X160209068Y-73065475D02*
X160209068Y-72065475D01*
X160209068Y-72065475D02*
X159828116Y-72065475D01*
X159828116Y-72065475D02*
X159732878Y-72113094D01*
X159732878Y-72113094D02*
X159685259Y-72160713D01*
X159685259Y-72160713D02*
X159637640Y-72255951D01*
X159637640Y-72255951D02*
X159637640Y-72398808D01*
X159637640Y-72398808D02*
X159685259Y-72494046D01*
X159685259Y-72494046D02*
X159732878Y-72541665D01*
X159732878Y-72541665D02*
X159828116Y-72589284D01*
X159828116Y-72589284D02*
X160209068Y-72589284D01*
X159209068Y-73065475D02*
X159209068Y-72065475D01*
X158685259Y-73017856D02*
X158685259Y-73065475D01*
X158685259Y-73065475D02*
X158732878Y-73160713D01*
X158732878Y-73160713D02*
X158780497Y-73208332D01*
X156970974Y-72113094D02*
X157066212Y-72065475D01*
X157066212Y-72065475D02*
X157209069Y-72065475D01*
X157209069Y-72065475D02*
X157351926Y-72113094D01*
X157351926Y-72113094D02*
X157447164Y-72208332D01*
X157447164Y-72208332D02*
X157494783Y-72303570D01*
X157494783Y-72303570D02*
X157542402Y-72494046D01*
X157542402Y-72494046D02*
X157542402Y-72636903D01*
X157542402Y-72636903D02*
X157494783Y-72827379D01*
X157494783Y-72827379D02*
X157447164Y-72922617D01*
X157447164Y-72922617D02*
X157351926Y-73017856D01*
X157351926Y-73017856D02*
X157209069Y-73065475D01*
X157209069Y-73065475D02*
X157113831Y-73065475D01*
X157113831Y-73065475D02*
X156970974Y-73017856D01*
X156970974Y-73017856D02*
X156923355Y-72970236D01*
X156923355Y-72970236D02*
X156923355Y-72636903D01*
X156923355Y-72636903D02*
X157113831Y-72636903D01*
X156494783Y-73065475D02*
X156494783Y-72065475D01*
X156494783Y-72065475D02*
X156113831Y-72065475D01*
X156113831Y-72065475D02*
X156018593Y-72113094D01*
X156018593Y-72113094D02*
X155970974Y-72160713D01*
X155970974Y-72160713D02*
X155923355Y-72255951D01*
X155923355Y-72255951D02*
X155923355Y-72398808D01*
X155923355Y-72398808D02*
X155970974Y-72494046D01*
X155970974Y-72494046D02*
X156018593Y-72541665D01*
X156018593Y-72541665D02*
X156113831Y-72589284D01*
X156113831Y-72589284D02*
X156494783Y-72589284D01*
X155494783Y-73065475D02*
X155494783Y-72065475D01*
X154828117Y-72065475D02*
X154637641Y-72065475D01*
X154637641Y-72065475D02*
X154542403Y-72113094D01*
X154542403Y-72113094D02*
X154447165Y-72208332D01*
X154447165Y-72208332D02*
X154399546Y-72398808D01*
X154399546Y-72398808D02*
X154399546Y-72732141D01*
X154399546Y-72732141D02*
X154447165Y-72922617D01*
X154447165Y-72922617D02*
X154542403Y-73017856D01*
X154542403Y-73017856D02*
X154637641Y-73065475D01*
X154637641Y-73065475D02*
X154828117Y-73065475D01*
X154828117Y-73065475D02*
X154923355Y-73017856D01*
X154923355Y-73017856D02*
X155018593Y-72922617D01*
X155018593Y-72922617D02*
X155066212Y-72732141D01*
X155066212Y-72732141D02*
X155066212Y-72398808D01*
X155066212Y-72398808D02*
X155018593Y-72208332D01*
X155018593Y-72208332D02*
X154923355Y-72113094D01*
X154923355Y-72113094D02*
X154828117Y-72065475D01*
X154018593Y-73017856D02*
X153923355Y-73065475D01*
X153923355Y-73065475D02*
X153732879Y-73065475D01*
X153732879Y-73065475D02*
X153637641Y-73017856D01*
X153637641Y-73017856D02*
X153590022Y-72922617D01*
X153590022Y-72922617D02*
X153590022Y-72874998D01*
X153590022Y-72874998D02*
X153637641Y-72779760D01*
X153637641Y-72779760D02*
X153732879Y-72732141D01*
X153732879Y-72732141D02*
X153875736Y-72732141D01*
X153875736Y-72732141D02*
X153970974Y-72684522D01*
X153970974Y-72684522D02*
X154018593Y-72589284D01*
X154018593Y-72589284D02*
X154018593Y-72541665D01*
X154018593Y-72541665D02*
X153970974Y-72446427D01*
X153970974Y-72446427D02*
X153875736Y-72398808D01*
X153875736Y-72398808D02*
X153732879Y-72398808D01*
X153732879Y-72398808D02*
X153637641Y-72446427D01*
X166970972Y-73675419D02*
X166637639Y-74675419D01*
X166637639Y-74675419D02*
X166304306Y-73675419D01*
X165590020Y-74627800D02*
X165685258Y-74675419D01*
X165685258Y-74675419D02*
X165875734Y-74675419D01*
X165875734Y-74675419D02*
X165970972Y-74627800D01*
X165970972Y-74627800D02*
X166018591Y-74532561D01*
X166018591Y-74532561D02*
X166018591Y-74151609D01*
X166018591Y-74151609D02*
X165970972Y-74056371D01*
X165970972Y-74056371D02*
X165875734Y-74008752D01*
X165875734Y-74008752D02*
X165685258Y-74008752D01*
X165685258Y-74008752D02*
X165590020Y-74056371D01*
X165590020Y-74056371D02*
X165542401Y-74151609D01*
X165542401Y-74151609D02*
X165542401Y-74246847D01*
X165542401Y-74246847D02*
X166018591Y-74342085D01*
X165113829Y-74675419D02*
X165113829Y-74008752D01*
X165113829Y-74199228D02*
X165066210Y-74103990D01*
X165066210Y-74103990D02*
X165018591Y-74056371D01*
X165018591Y-74056371D02*
X164923353Y-74008752D01*
X164923353Y-74008752D02*
X164828115Y-74008752D01*
X164542400Y-74627800D02*
X164447162Y-74675419D01*
X164447162Y-74675419D02*
X164256686Y-74675419D01*
X164256686Y-74675419D02*
X164161448Y-74627800D01*
X164161448Y-74627800D02*
X164113829Y-74532561D01*
X164113829Y-74532561D02*
X164113829Y-74484942D01*
X164113829Y-74484942D02*
X164161448Y-74389704D01*
X164161448Y-74389704D02*
X164256686Y-74342085D01*
X164256686Y-74342085D02*
X164399543Y-74342085D01*
X164399543Y-74342085D02*
X164494781Y-74294466D01*
X164494781Y-74294466D02*
X164542400Y-74199228D01*
X164542400Y-74199228D02*
X164542400Y-74151609D01*
X164542400Y-74151609D02*
X164494781Y-74056371D01*
X164494781Y-74056371D02*
X164399543Y-74008752D01*
X164399543Y-74008752D02*
X164256686Y-74008752D01*
X164256686Y-74008752D02*
X164161448Y-74056371D01*
X163685257Y-74675419D02*
X163685257Y-74008752D01*
X163685257Y-73675419D02*
X163732876Y-73723038D01*
X163732876Y-73723038D02*
X163685257Y-73770657D01*
X163685257Y-73770657D02*
X163637638Y-73723038D01*
X163637638Y-73723038D02*
X163685257Y-73675419D01*
X163685257Y-73675419D02*
X163685257Y-73770657D01*
X163066210Y-74675419D02*
X163161448Y-74627800D01*
X163161448Y-74627800D02*
X163209067Y-74580180D01*
X163209067Y-74580180D02*
X163256686Y-74484942D01*
X163256686Y-74484942D02*
X163256686Y-74199228D01*
X163256686Y-74199228D02*
X163209067Y-74103990D01*
X163209067Y-74103990D02*
X163161448Y-74056371D01*
X163161448Y-74056371D02*
X163066210Y-74008752D01*
X163066210Y-74008752D02*
X162923353Y-74008752D01*
X162923353Y-74008752D02*
X162828115Y-74056371D01*
X162828115Y-74056371D02*
X162780496Y-74103990D01*
X162780496Y-74103990D02*
X162732877Y-74199228D01*
X162732877Y-74199228D02*
X162732877Y-74484942D01*
X162732877Y-74484942D02*
X162780496Y-74580180D01*
X162780496Y-74580180D02*
X162828115Y-74627800D01*
X162828115Y-74627800D02*
X162923353Y-74675419D01*
X162923353Y-74675419D02*
X163066210Y-74675419D01*
X162304305Y-74008752D02*
X162304305Y-74675419D01*
X162304305Y-74103990D02*
X162256686Y-74056371D01*
X162256686Y-74056371D02*
X162161448Y-74008752D01*
X162161448Y-74008752D02*
X162018591Y-74008752D01*
X162018591Y-74008752D02*
X161923353Y-74056371D01*
X161923353Y-74056371D02*
X161875734Y-74151609D01*
X161875734Y-74151609D02*
X161875734Y-74675419D01*
X160113829Y-74675419D02*
X160685257Y-74675419D01*
X160399543Y-74675419D02*
X160399543Y-73675419D01*
X160399543Y-73675419D02*
X160494781Y-73818276D01*
X160494781Y-73818276D02*
X160590019Y-73913514D01*
X160590019Y-73913514D02*
X160685257Y-73961133D01*
X159685257Y-74580180D02*
X159637638Y-74627800D01*
X159637638Y-74627800D02*
X159685257Y-74675419D01*
X159685257Y-74675419D02*
X159732876Y-74627800D01*
X159732876Y-74627800D02*
X159685257Y-74580180D01*
X159685257Y-74580180D02*
X159685257Y-74675419D01*
X159018591Y-73675419D02*
X158923353Y-73675419D01*
X158923353Y-73675419D02*
X158828115Y-73723038D01*
X158828115Y-73723038D02*
X158780496Y-73770657D01*
X158780496Y-73770657D02*
X158732877Y-73865895D01*
X158732877Y-73865895D02*
X158685258Y-74056371D01*
X158685258Y-74056371D02*
X158685258Y-74294466D01*
X158685258Y-74294466D02*
X158732877Y-74484942D01*
X158732877Y-74484942D02*
X158780496Y-74580180D01*
X158780496Y-74580180D02*
X158828115Y-74627800D01*
X158828115Y-74627800D02*
X158923353Y-74675419D01*
X158923353Y-74675419D02*
X159018591Y-74675419D01*
X159018591Y-74675419D02*
X159113829Y-74627800D01*
X159113829Y-74627800D02*
X159161448Y-74580180D01*
X159161448Y-74580180D02*
X159209067Y-74484942D01*
X159209067Y-74484942D02*
X159256686Y-74294466D01*
X159256686Y-74294466D02*
X159256686Y-74056371D01*
X159256686Y-74056371D02*
X159209067Y-73865895D01*
X159209067Y-73865895D02*
X159161448Y-73770657D01*
X159161448Y-73770657D02*
X159113829Y-73723038D01*
X159113829Y-73723038D02*
X159018591Y-73675419D01*
M02*
