%TF.GenerationSoftware,KiCad,Pcbnew,9.0.5*%
%TF.CreationDate,2025-10-31T12:22:53+09:00*%
%TF.ProjectId,MCU_Datalogger,4d43555f-4461-4746-916c-6f676765722e,1*%
%TF.SameCoordinates,Original*%
%TF.FileFunction,Copper,L3,Inr*%
%TF.FilePolarity,Positive*%
%FSLAX46Y46*%
G04 Gerber Fmt 4.6, Leading zero omitted, Abs format (unit mm)*
G04 Created by KiCad (PCBNEW 9.0.5) date 2025-10-31 12:22:53*
%MOMM*%
%LPD*%
G01*
G04 APERTURE LIST*
%TA.AperFunction,ComponentPad*%
%ADD10R,1.700000X1.700000*%
%TD*%
%TA.AperFunction,ComponentPad*%
%ADD11C,1.700000*%
%TD*%
%TA.AperFunction,ViaPad*%
%ADD12C,0.900000*%
%TD*%
%TA.AperFunction,ViaPad*%
%ADD13C,0.800000*%
%TD*%
G04 APERTURE END LIST*
D10*
%TO.N,GND*%
%TO.C,J3*%
X169607000Y-86995000D03*
D11*
%TO.N,/VCC*%
X172147000Y-86995000D03*
%TO.N,/RX*%
X174687000Y-86995000D03*
%TO.N,/TX*%
X177227000Y-86995000D03*
%TD*%
D10*
%TO.N,/VCC*%
%TO.C,BAT1*%
X141605000Y-69337000D03*
D11*
%TO.N,GND*%
X141605000Y-71877000D03*
%TD*%
D10*
%TO.N,/MISO*%
%TO.C,J4*%
X180457000Y-66548000D03*
D11*
%TO.N,/VCC*%
X182997000Y-66548000D03*
%TO.N,/SCK*%
X180457000Y-69088000D03*
%TO.N,/MOSI*%
X182997000Y-69088000D03*
%TO.N,/RESET*%
X180457000Y-71628000D03*
%TO.N,GND*%
X182997000Y-71628000D03*
%TD*%
D10*
%TO.N,GND*%
%TO.C,J1*%
X183007000Y-75184000D03*
D11*
%TO.N,/VCC*%
X183007000Y-77724000D03*
%TO.N,/SDA*%
X183007000Y-80264000D03*
%TO.N,/SCK*%
X183007000Y-82804000D03*
%TD*%
D10*
%TO.N,/D2*%
%TO.C,J2*%
X143953000Y-86995000D03*
D11*
%TO.N,/D3*%
X146493000Y-86995000D03*
%TO.N,/D4*%
X149033000Y-86995000D03*
%TO.N,/D5*%
X151573000Y-86995000D03*
%TO.N,/D6*%
X154113000Y-86995000D03*
%TO.N,/D7*%
X156653000Y-86995000D03*
%TO.N,/D8*%
X159193000Y-86995000D03*
%TO.N,GND*%
X161733000Y-86995000D03*
%TO.N,/VCC*%
X164273000Y-86995000D03*
%TD*%
D12*
%TO.N,GND*%
X147066000Y-63246000D03*
X171704000Y-81788000D03*
X158496000Y-60706000D03*
X148527000Y-79883000D03*
X147066000Y-73025000D03*
X176657000Y-64897000D03*
X159385000Y-69469000D03*
X150876000Y-63119000D03*
X167513000Y-70201000D03*
X171958000Y-78168000D03*
X168402000Y-62103000D03*
X160274000Y-60833000D03*
X151574000Y-70485000D03*
X159131000Y-70993000D03*
X160782000Y-63754000D03*
X173228000Y-66421000D03*
X146939000Y-65786000D03*
%TO.N,/VCC*%
X147193000Y-71755000D03*
X147066000Y-64516000D03*
X145414986Y-81448713D03*
X165100000Y-63754000D03*
X156210000Y-60386000D03*
X171958000Y-63754000D03*
X152019000Y-74676000D03*
X152654000Y-67818000D03*
X156122614Y-70524614D03*
X174752000Y-71374000D03*
X172795364Y-71044636D03*
X172974000Y-73660000D03*
X151003000Y-61976000D03*
X167513000Y-72601000D03*
X152273000Y-81407000D03*
D13*
%TO.N,Net-(U4-PB6)*%
X158623000Y-77597000D03*
X156083000Y-72644000D03*
%TO.N,Net-(U4-PB7)*%
X161798000Y-77470000D03*
X163449000Y-77597000D03*
X156173000Y-73660000D03*
X159684500Y-65024000D03*
%TO.N,/SCK*%
X150749000Y-64516000D03*
X154432000Y-63500000D03*
X164322181Y-64531819D03*
X173355000Y-75184000D03*
X169926000Y-74803000D03*
X150749000Y-71755000D03*
X149987000Y-78613000D03*
%TO.N,/SDA*%
X165608000Y-64770000D03*
X150749000Y-73025000D03*
X150114000Y-79883000D03*
X153199754Y-66862930D03*
%TO.N,/TX*%
X159766000Y-68072000D03*
%TO.N,/RX*%
X160528000Y-69088000D03*
%TO.N,/MISO*%
X166497000Y-74930000D03*
%TO.N,/MOSI*%
X165735000Y-75819000D03*
%TO.N,/RESET*%
X161384085Y-67474001D03*
%TD*%
%TA.AperFunction,Conductor*%
%TO.N,/VCC*%
G36*
X182531075Y-66740993D02*
G01*
X182596901Y-66855007D01*
X182689993Y-66948099D01*
X182804007Y-67013925D01*
X182867590Y-67030962D01*
X182235282Y-67663269D01*
X182235282Y-67663270D01*
X182289452Y-67702626D01*
X182289451Y-67702626D01*
X182298495Y-67707234D01*
X182349292Y-67755208D01*
X182366087Y-67823029D01*
X182343550Y-67889164D01*
X182298499Y-67928202D01*
X182289182Y-67932949D01*
X182117213Y-68057890D01*
X181966890Y-68208213D01*
X181841949Y-68380182D01*
X181837484Y-68388946D01*
X181789509Y-68439742D01*
X181721688Y-68456536D01*
X181655553Y-68433998D01*
X181616516Y-68388946D01*
X181612050Y-68380182D01*
X181487109Y-68208213D01*
X181373569Y-68094673D01*
X181340084Y-68033350D01*
X181345068Y-67963658D01*
X181386940Y-67907725D01*
X181417915Y-67890810D01*
X181549331Y-67841796D01*
X181664546Y-67755546D01*
X181750796Y-67640331D01*
X181801091Y-67505483D01*
X181807500Y-67445873D01*
X181807499Y-67435312D01*
X181827179Y-67368275D01*
X181843818Y-67347626D01*
X182514037Y-66677408D01*
X182531075Y-66740993D01*
G37*
%TD.AperFunction*%
%TA.AperFunction,Conductor*%
G36*
X157702058Y-59956185D02*
G01*
X157747813Y-60008989D01*
X157757757Y-60078147D01*
X157738121Y-60129391D01*
X157653681Y-60255762D01*
X157653676Y-60255771D01*
X157582027Y-60428748D01*
X157582025Y-60428756D01*
X157545500Y-60612379D01*
X157545500Y-60799620D01*
X157582025Y-60983243D01*
X157582027Y-60983251D01*
X157653676Y-61156228D01*
X157653681Y-61156237D01*
X157757697Y-61311907D01*
X157757700Y-61311911D01*
X157890088Y-61444299D01*
X157890092Y-61444302D01*
X158045762Y-61548318D01*
X158045768Y-61548321D01*
X158045769Y-61548322D01*
X158218749Y-61619973D01*
X158402379Y-61656499D01*
X158402383Y-61656500D01*
X158402384Y-61656500D01*
X158589617Y-61656500D01*
X158589618Y-61656499D01*
X158773251Y-61619973D01*
X158946231Y-61548322D01*
X159101908Y-61444302D01*
X159234302Y-61311908D01*
X159239466Y-61304178D01*
X159293076Y-61259373D01*
X159362400Y-61250663D01*
X159425429Y-61280815D01*
X159445672Y-61304176D01*
X159535697Y-61438907D01*
X159535700Y-61438911D01*
X159668088Y-61571299D01*
X159668092Y-61571302D01*
X159823762Y-61675318D01*
X159823771Y-61675323D01*
X159850755Y-61686500D01*
X159996749Y-61746973D01*
X160180379Y-61783499D01*
X160180383Y-61783500D01*
X160180384Y-61783500D01*
X160367617Y-61783500D01*
X160367618Y-61783499D01*
X160551251Y-61746973D01*
X160697245Y-61686500D01*
X162029510Y-61686500D01*
X163021000Y-61686500D01*
X164019000Y-61686500D01*
X165521000Y-61686500D01*
X165521000Y-60934500D01*
X164019000Y-60934500D01*
X164019000Y-61686500D01*
X163021000Y-61686500D01*
X163021000Y-60934500D01*
X162222500Y-60934500D01*
X162222500Y-60951118D01*
X162222351Y-60957200D01*
X162220545Y-60993975D01*
X162220097Y-61000046D01*
X162215294Y-61048815D01*
X162214549Y-61054858D01*
X162209145Y-61091286D01*
X162208104Y-61097281D01*
X162162015Y-61328987D01*
X162160682Y-61334924D01*
X162151733Y-61370652D01*
X162150109Y-61376522D01*
X162135882Y-61423418D01*
X162133973Y-61429197D01*
X162121570Y-61463859D01*
X162119380Y-61469535D01*
X162029510Y-61686500D01*
X160697245Y-61686500D01*
X160724231Y-61675322D01*
X160879908Y-61571302D01*
X161012302Y-61438908D01*
X161116322Y-61283231D01*
X161187973Y-61110251D01*
X161224500Y-60926616D01*
X161224500Y-60739384D01*
X161187973Y-60555749D01*
X161116322Y-60382769D01*
X161116321Y-60382768D01*
X161116318Y-60382762D01*
X161012302Y-60227092D01*
X161012299Y-60227088D01*
X160933392Y-60148181D01*
X160899907Y-60086858D01*
X160904891Y-60017166D01*
X160946763Y-59961233D01*
X161012227Y-59936816D01*
X161021073Y-59936500D01*
X179962000Y-59936500D01*
X180029039Y-59956185D01*
X180074794Y-60008989D01*
X180086000Y-60060500D01*
X180086000Y-64262000D01*
X180467000Y-64643000D01*
X185176500Y-64643000D01*
X185243539Y-64662685D01*
X185289294Y-64715489D01*
X185300500Y-64767000D01*
X185300500Y-84204000D01*
X185280815Y-84271039D01*
X185228011Y-84316794D01*
X185176500Y-84328000D01*
X183469823Y-84328000D01*
X183402784Y-84308315D01*
X183357029Y-84255511D01*
X183347085Y-84186353D01*
X183376110Y-84122797D01*
X183431503Y-84086069D01*
X183525412Y-84055557D01*
X183714816Y-83959051D01*
X183736789Y-83943086D01*
X183886786Y-83834109D01*
X183886788Y-83834106D01*
X183886792Y-83834104D01*
X184037104Y-83683792D01*
X184037106Y-83683788D01*
X184037109Y-83683786D01*
X184162048Y-83511820D01*
X184162047Y-83511820D01*
X184162051Y-83511816D01*
X184258557Y-83322412D01*
X184324246Y-83120243D01*
X184357500Y-82910287D01*
X184357500Y-82697713D01*
X184324246Y-82487757D01*
X184258557Y-82285588D01*
X184162051Y-82096184D01*
X184162049Y-82096181D01*
X184162048Y-82096179D01*
X184037109Y-81924213D01*
X183886786Y-81773890D01*
X183714820Y-81648951D01*
X183714115Y-81648591D01*
X183706054Y-81644485D01*
X183655259Y-81596512D01*
X183638463Y-81528692D01*
X183660999Y-81462556D01*
X183706054Y-81423515D01*
X183714816Y-81419051D01*
X183803979Y-81354271D01*
X183886786Y-81294109D01*
X183886788Y-81294106D01*
X183886792Y-81294104D01*
X184037104Y-81143792D01*
X184037106Y-81143788D01*
X184037109Y-81143786D01*
X184162048Y-80971820D01*
X184162047Y-80971820D01*
X184162051Y-80971816D01*
X184258557Y-80782412D01*
X184324246Y-80580243D01*
X184357500Y-80370287D01*
X184357500Y-80157713D01*
X184324246Y-79947757D01*
X184258557Y-79745588D01*
X184162051Y-79556184D01*
X184162049Y-79556181D01*
X184162048Y-79556179D01*
X184037109Y-79384213D01*
X183886786Y-79233890D01*
X183714817Y-79108949D01*
X183705504Y-79104204D01*
X183654707Y-79056230D01*
X183637912Y-78988409D01*
X183660449Y-78922274D01*
X183705507Y-78883232D01*
X183714555Y-78878622D01*
X183768716Y-78839270D01*
X183768717Y-78839270D01*
X183136408Y-78206962D01*
X183199993Y-78189925D01*
X183314007Y-78124099D01*
X183407099Y-78031007D01*
X183472925Y-77916993D01*
X183489962Y-77853409D01*
X184122270Y-78485717D01*
X184122270Y-78485716D01*
X184161622Y-78431554D01*
X184258095Y-78242217D01*
X184323757Y-78040130D01*
X184323757Y-78040127D01*
X184357000Y-77830246D01*
X184357000Y-77617753D01*
X184323757Y-77407872D01*
X184323757Y-77407869D01*
X184258095Y-77205782D01*
X184161624Y-77016449D01*
X184122270Y-76962282D01*
X184122269Y-76962282D01*
X183489962Y-77594590D01*
X183472925Y-77531007D01*
X183407099Y-77416993D01*
X183314007Y-77323901D01*
X183199993Y-77258075D01*
X183136409Y-77241037D01*
X183806627Y-76570818D01*
X183867950Y-76537333D01*
X183894307Y-76534499D01*
X183904872Y-76534499D01*
X183964483Y-76528091D01*
X184099331Y-76477796D01*
X184214546Y-76391546D01*
X184300796Y-76276331D01*
X184351091Y-76141483D01*
X184357500Y-76081873D01*
X184357499Y-74286128D01*
X184352299Y-74237757D01*
X184351091Y-74226516D01*
X184300797Y-74091671D01*
X184300793Y-74091664D01*
X184214547Y-73976455D01*
X184214544Y-73976452D01*
X184099335Y-73890206D01*
X184099328Y-73890202D01*
X183964482Y-73839908D01*
X183964483Y-73839908D01*
X183904883Y-73833501D01*
X183904881Y-73833500D01*
X183904873Y-73833500D01*
X183904864Y-73833500D01*
X182109129Y-73833500D01*
X182109123Y-73833501D01*
X182049516Y-73839908D01*
X181914671Y-73890202D01*
X181914664Y-73890206D01*
X181799455Y-73976452D01*
X181799452Y-73976455D01*
X181713206Y-74091664D01*
X181713202Y-74091671D01*
X181662908Y-74226517D01*
X181656782Y-74283500D01*
X181656501Y-74286123D01*
X181656500Y-74286135D01*
X181656500Y-76081870D01*
X181656501Y-76081876D01*
X181662908Y-76141483D01*
X181713202Y-76276328D01*
X181713206Y-76276335D01*
X181799452Y-76391544D01*
X181799455Y-76391547D01*
X181914664Y-76477793D01*
X181914671Y-76477797D01*
X181953154Y-76492150D01*
X182049517Y-76528091D01*
X182109127Y-76534500D01*
X182119685Y-76534499D01*
X182186723Y-76554179D01*
X182207372Y-76570818D01*
X182877591Y-77241037D01*
X182814007Y-77258075D01*
X182699993Y-77323901D01*
X182606901Y-77416993D01*
X182541075Y-77531007D01*
X182524037Y-77594591D01*
X181891728Y-76962282D01*
X181891727Y-76962282D01*
X181852380Y-77016439D01*
X181755904Y-77205782D01*
X181690242Y-77407869D01*
X181690242Y-77407872D01*
X181657000Y-77617753D01*
X181657000Y-77830246D01*
X181690242Y-78040127D01*
X181690242Y-78040130D01*
X181755904Y-78242217D01*
X181852375Y-78431550D01*
X181891728Y-78485716D01*
X182524037Y-77853408D01*
X182541075Y-77916993D01*
X182606901Y-78031007D01*
X182699993Y-78124099D01*
X182814007Y-78189925D01*
X182877590Y-78206962D01*
X182245282Y-78839269D01*
X182245282Y-78839270D01*
X182299452Y-78878626D01*
X182299451Y-78878626D01*
X182308495Y-78883234D01*
X182359292Y-78931208D01*
X182376087Y-78999029D01*
X182353550Y-79065164D01*
X182308499Y-79104202D01*
X182299182Y-79108949D01*
X182127213Y-79233890D01*
X181976890Y-79384213D01*
X181851951Y-79556179D01*
X181755444Y-79745585D01*
X181755443Y-79745587D01*
X181755443Y-79745588D01*
X181739613Y-79794309D01*
X181689753Y-79947760D01*
X181658409Y-80145658D01*
X181656500Y-80157713D01*
X181656500Y-80370287D01*
X181689754Y-80580243D01*
X181744552Y-80748894D01*
X181755444Y-80782414D01*
X181851951Y-80971820D01*
X181976890Y-81143786D01*
X182127213Y-81294109D01*
X182299182Y-81419050D01*
X182307946Y-81423516D01*
X182358742Y-81471491D01*
X182375536Y-81539312D01*
X182352998Y-81605447D01*
X182307946Y-81644484D01*
X182299182Y-81648949D01*
X182127213Y-81773890D01*
X181976890Y-81924213D01*
X181851951Y-82096179D01*
X181755444Y-82285585D01*
X181689753Y-82487760D01*
X181656500Y-82697713D01*
X181656500Y-82910286D01*
X181686022Y-83096685D01*
X181689754Y-83120243D01*
X181742385Y-83282225D01*
X181755444Y-83322414D01*
X181851951Y-83511820D01*
X181976890Y-83683786D01*
X182127213Y-83834109D01*
X182299179Y-83959048D01*
X182299181Y-83959049D01*
X182299184Y-83959051D01*
X182488588Y-84055557D01*
X182582496Y-84086069D01*
X182640171Y-84125507D01*
X182667369Y-84189865D01*
X182655454Y-84258712D01*
X182608210Y-84310187D01*
X182544177Y-84328000D01*
X180467000Y-84328000D01*
X180467000Y-89037500D01*
X180447315Y-89104539D01*
X180394511Y-89150294D01*
X180343000Y-89161500D01*
X141602000Y-89161500D01*
X141534961Y-89141815D01*
X141489206Y-89089011D01*
X141478000Y-89037500D01*
X141478000Y-86097135D01*
X142602500Y-86097135D01*
X142602500Y-87892870D01*
X142602501Y-87892876D01*
X142608908Y-87952483D01*
X142659202Y-88087328D01*
X142659206Y-88087335D01*
X142745452Y-88202544D01*
X142745455Y-88202547D01*
X142860664Y-88288793D01*
X142860671Y-88288797D01*
X142995517Y-88339091D01*
X142995516Y-88339091D01*
X143002444Y-88339835D01*
X143055127Y-88345500D01*
X144850872Y-88345499D01*
X144910483Y-88339091D01*
X145045331Y-88288796D01*
X145160546Y-88202546D01*
X145246796Y-88087331D01*
X145295810Y-87955916D01*
X145337681Y-87899984D01*
X145403145Y-87875566D01*
X145471418Y-87890417D01*
X145499673Y-87911569D01*
X145613213Y-88025109D01*
X145785179Y-88150048D01*
X145785181Y-88150049D01*
X145785184Y-88150051D01*
X145974588Y-88246557D01*
X146176757Y-88312246D01*
X146386713Y-88345500D01*
X146386714Y-88345500D01*
X146599286Y-88345500D01*
X146599287Y-88345500D01*
X146809243Y-88312246D01*
X147011412Y-88246557D01*
X147200816Y-88150051D01*
X147287138Y-88087335D01*
X147372786Y-88025109D01*
X147372788Y-88025106D01*
X147372792Y-88025104D01*
X147523104Y-87874792D01*
X147523106Y-87874788D01*
X147523109Y-87874786D01*
X147648048Y-87702820D01*
X147648047Y-87702820D01*
X147648051Y-87702816D01*
X147652514Y-87694054D01*
X147700488Y-87643259D01*
X147768308Y-87626463D01*
X147834444Y-87648999D01*
X147873486Y-87694056D01*
X147877951Y-87702820D01*
X148002890Y-87874786D01*
X148153213Y-88025109D01*
X148325179Y-88150048D01*
X148325181Y-88150049D01*
X148325184Y-88150051D01*
X148514588Y-88246557D01*
X148716757Y-88312246D01*
X148926713Y-88345500D01*
X148926714Y-88345500D01*
X149139286Y-88345500D01*
X149139287Y-88345500D01*
X149349243Y-88312246D01*
X149551412Y-88246557D01*
X149740816Y-88150051D01*
X149827138Y-88087335D01*
X149912786Y-88025109D01*
X149912788Y-88025106D01*
X149912792Y-88025104D01*
X150063104Y-87874792D01*
X150063106Y-87874788D01*
X150063109Y-87874786D01*
X150188048Y-87702820D01*
X150188047Y-87702820D01*
X150188051Y-87702816D01*
X150192514Y-87694054D01*
X150240488Y-87643259D01*
X150308308Y-87626463D01*
X150374444Y-87648999D01*
X150413486Y-87694056D01*
X150417951Y-87702820D01*
X150542890Y-87874786D01*
X150693213Y-88025109D01*
X150865179Y-88150048D01*
X150865181Y-88150049D01*
X150865184Y-88150051D01*
X151054588Y-88246557D01*
X151256757Y-88312246D01*
X151466713Y-88345500D01*
X151466714Y-88345500D01*
X151679286Y-88345500D01*
X151679287Y-88345500D01*
X151889243Y-88312246D01*
X152091412Y-88246557D01*
X152280816Y-88150051D01*
X152367138Y-88087335D01*
X152452786Y-88025109D01*
X152452788Y-88025106D01*
X152452792Y-88025104D01*
X152603104Y-87874792D01*
X152603106Y-87874788D01*
X152603109Y-87874786D01*
X152728048Y-87702820D01*
X152728047Y-87702820D01*
X152728051Y-87702816D01*
X152732514Y-87694054D01*
X152780488Y-87643259D01*
X152848308Y-87626463D01*
X152914444Y-87648999D01*
X152953486Y-87694056D01*
X152957951Y-87702820D01*
X153082890Y-87874786D01*
X153233213Y-88025109D01*
X153405179Y-88150048D01*
X153405181Y-88150049D01*
X153405184Y-88150051D01*
X153594588Y-88246557D01*
X153796757Y-88312246D01*
X154006713Y-88345500D01*
X154006714Y-88345500D01*
X154219286Y-88345500D01*
X154219287Y-88345500D01*
X154429243Y-88312246D01*
X154631412Y-88246557D01*
X154820816Y-88150051D01*
X154907138Y-88087335D01*
X154992786Y-88025109D01*
X154992788Y-88025106D01*
X154992792Y-88025104D01*
X155143104Y-87874792D01*
X155143106Y-87874788D01*
X155143109Y-87874786D01*
X155268048Y-87702820D01*
X155268047Y-87702820D01*
X155268051Y-87702816D01*
X155272514Y-87694054D01*
X155320488Y-87643259D01*
X155388308Y-87626463D01*
X155454444Y-87648999D01*
X155493486Y-87694056D01*
X155497951Y-87702820D01*
X155622890Y-87874786D01*
X155773213Y-88025109D01*
X155945179Y-88150048D01*
X155945181Y-88150049D01*
X155945184Y-88150051D01*
X156134588Y-88246557D01*
X156336757Y-88312246D01*
X156546713Y-88345500D01*
X156546714Y-88345500D01*
X156759286Y-88345500D01*
X156759287Y-88345500D01*
X156969243Y-88312246D01*
X157171412Y-88246557D01*
X157360816Y-88150051D01*
X157447138Y-88087335D01*
X157532786Y-88025109D01*
X157532788Y-88025106D01*
X157532792Y-88025104D01*
X157683104Y-87874792D01*
X157683106Y-87874788D01*
X157683109Y-87874786D01*
X157808048Y-87702820D01*
X157808047Y-87702820D01*
X157808051Y-87702816D01*
X157812514Y-87694054D01*
X157860488Y-87643259D01*
X157928308Y-87626463D01*
X157994444Y-87648999D01*
X158033486Y-87694056D01*
X158037951Y-87702820D01*
X158162890Y-87874786D01*
X158313213Y-88025109D01*
X158485179Y-88150048D01*
X158485181Y-88150049D01*
X158485184Y-88150051D01*
X158674588Y-88246557D01*
X158876757Y-88312246D01*
X159086713Y-88345500D01*
X159086714Y-88345500D01*
X159299286Y-88345500D01*
X159299287Y-88345500D01*
X159509243Y-88312246D01*
X159711412Y-88246557D01*
X159900816Y-88150051D01*
X159987138Y-88087335D01*
X160072786Y-88025109D01*
X160072788Y-88025106D01*
X160072792Y-88025104D01*
X160223104Y-87874792D01*
X160223106Y-87874788D01*
X160223109Y-87874786D01*
X160348048Y-87702820D01*
X160348047Y-87702820D01*
X160348051Y-87702816D01*
X160352514Y-87694054D01*
X160400488Y-87643259D01*
X160468308Y-87626463D01*
X160534444Y-87648999D01*
X160573486Y-87694056D01*
X160577951Y-87702820D01*
X160702890Y-87874786D01*
X160853213Y-88025109D01*
X161025179Y-88150048D01*
X161025181Y-88150049D01*
X161025184Y-88150051D01*
X161214588Y-88246557D01*
X161416757Y-88312246D01*
X161626713Y-88345500D01*
X161626714Y-88345500D01*
X161839286Y-88345500D01*
X161839287Y-88345500D01*
X162049243Y-88312246D01*
X162251412Y-88246557D01*
X162440816Y-88150051D01*
X162527138Y-88087335D01*
X162612786Y-88025109D01*
X162612788Y-88025106D01*
X162612792Y-88025104D01*
X162763104Y-87874792D01*
X162763106Y-87874788D01*
X162763109Y-87874786D01*
X162848890Y-87756717D01*
X162888051Y-87702816D01*
X162892793Y-87693508D01*
X162940763Y-87642711D01*
X163008583Y-87625911D01*
X163074719Y-87648445D01*
X163113763Y-87693500D01*
X163118373Y-87702547D01*
X163157728Y-87756716D01*
X163790037Y-87124408D01*
X163807075Y-87187993D01*
X163872901Y-87302007D01*
X163965993Y-87395099D01*
X164080007Y-87460925D01*
X164143590Y-87477962D01*
X163511282Y-88110269D01*
X163511282Y-88110270D01*
X163565449Y-88149624D01*
X163754782Y-88246095D01*
X163956870Y-88311757D01*
X164166754Y-88345000D01*
X164379246Y-88345000D01*
X164589127Y-88311757D01*
X164589130Y-88311757D01*
X164791217Y-88246095D01*
X164980554Y-88149622D01*
X165034716Y-88110270D01*
X165034717Y-88110270D01*
X164402408Y-87477962D01*
X164465993Y-87460925D01*
X164580007Y-87395099D01*
X164673099Y-87302007D01*
X164738925Y-87187993D01*
X164755962Y-87124408D01*
X165388270Y-87756717D01*
X165388270Y-87756716D01*
X165427622Y-87702554D01*
X165524095Y-87513217D01*
X165589757Y-87311130D01*
X165589757Y-87311127D01*
X165623000Y-87101246D01*
X165623000Y-86888753D01*
X165589757Y-86678872D01*
X165589757Y-86678869D01*
X165524095Y-86476782D01*
X165438701Y-86309189D01*
X166519000Y-86309189D01*
X166544974Y-86389130D01*
X166546389Y-86393794D01*
X166554391Y-86422171D01*
X166555621Y-86426887D01*
X166564769Y-86465004D01*
X166565811Y-86469756D01*
X166571551Y-86498619D01*
X166572406Y-86503407D01*
X166601406Y-86686500D01*
X167258500Y-86686500D01*
X167258500Y-86097135D01*
X168256500Y-86097135D01*
X168256500Y-87892870D01*
X168256501Y-87892876D01*
X168262908Y-87952483D01*
X168313202Y-88087328D01*
X168313206Y-88087335D01*
X168399452Y-88202544D01*
X168399455Y-88202547D01*
X168514664Y-88288793D01*
X168514671Y-88288797D01*
X168649517Y-88339091D01*
X168649516Y-88339091D01*
X168656444Y-88339835D01*
X168709127Y-88345500D01*
X170504872Y-88345499D01*
X170564483Y-88339091D01*
X170699331Y-88288796D01*
X170814546Y-88202546D01*
X170900796Y-88087331D01*
X170951091Y-87952483D01*
X170957500Y-87892873D01*
X170957499Y-87882312D01*
X170977179Y-87815275D01*
X170993818Y-87794626D01*
X171664036Y-87124407D01*
X171681075Y-87187993D01*
X171746901Y-87302007D01*
X171839993Y-87395099D01*
X171954007Y-87460925D01*
X172017590Y-87477962D01*
X171385282Y-88110269D01*
X171385282Y-88110270D01*
X171439449Y-88149624D01*
X171628782Y-88246095D01*
X171830870Y-88311757D01*
X172040754Y-88345000D01*
X172253246Y-88345000D01*
X172463127Y-88311757D01*
X172463130Y-88311757D01*
X172665217Y-88246095D01*
X172854554Y-88149622D01*
X172908716Y-88110270D01*
X172908717Y-88110270D01*
X172276408Y-87477962D01*
X172339993Y-87460925D01*
X172454007Y-87395099D01*
X172547099Y-87302007D01*
X172612925Y-87187993D01*
X172629962Y-87124409D01*
X173262270Y-87756717D01*
X173262270Y-87756716D01*
X173301622Y-87702555D01*
X173306232Y-87693507D01*
X173354205Y-87642709D01*
X173422025Y-87625912D01*
X173488161Y-87648447D01*
X173527204Y-87693504D01*
X173531949Y-87702817D01*
X173656890Y-87874786D01*
X173807213Y-88025109D01*
X173979179Y-88150048D01*
X173979181Y-88150049D01*
X173979184Y-88150051D01*
X174168588Y-88246557D01*
X174370757Y-88312246D01*
X174580713Y-88345500D01*
X174580714Y-88345500D01*
X174793286Y-88345500D01*
X174793287Y-88345500D01*
X175003243Y-88312246D01*
X175205412Y-88246557D01*
X175394816Y-88150051D01*
X175481138Y-88087335D01*
X175566786Y-88025109D01*
X175566788Y-88025106D01*
X175566792Y-88025104D01*
X175717104Y-87874792D01*
X175717106Y-87874788D01*
X175717109Y-87874786D01*
X175842048Y-87702820D01*
X175842047Y-87702820D01*
X175842051Y-87702816D01*
X175846514Y-87694054D01*
X175894488Y-87643259D01*
X175962308Y-87626463D01*
X176028444Y-87648999D01*
X176067486Y-87694056D01*
X176071951Y-87702820D01*
X176196890Y-87874786D01*
X176347213Y-88025109D01*
X176519179Y-88150048D01*
X176519181Y-88150049D01*
X176519184Y-88150051D01*
X176708588Y-88246557D01*
X176910757Y-88312246D01*
X177120713Y-88345500D01*
X177120714Y-88345500D01*
X177333286Y-88345500D01*
X177333287Y-88345500D01*
X177543243Y-88312246D01*
X177745412Y-88246557D01*
X177934816Y-88150051D01*
X178021138Y-88087335D01*
X178106786Y-88025109D01*
X178106788Y-88025106D01*
X178106792Y-88025104D01*
X178257104Y-87874792D01*
X178257106Y-87874788D01*
X178257109Y-87874786D01*
X178382048Y-87702820D01*
X178382047Y-87702820D01*
X178382051Y-87702816D01*
X178478557Y-87513412D01*
X178544246Y-87311243D01*
X178577500Y-87101287D01*
X178577500Y-86888713D01*
X178544246Y-86678757D01*
X178478557Y-86476588D01*
X178382051Y-86287184D01*
X178382049Y-86287181D01*
X178382048Y-86287179D01*
X178257109Y-86115213D01*
X178106786Y-85964890D01*
X177934820Y-85839951D01*
X177745414Y-85743444D01*
X177745413Y-85743443D01*
X177745412Y-85743443D01*
X177543243Y-85677754D01*
X177543241Y-85677753D01*
X177543240Y-85677753D01*
X177381957Y-85652208D01*
X177333287Y-85644500D01*
X177120713Y-85644500D01*
X177072042Y-85652208D01*
X176910760Y-85677753D01*
X176708585Y-85743444D01*
X176519179Y-85839951D01*
X176347213Y-85964890D01*
X176196890Y-86115213D01*
X176071949Y-86287182D01*
X176067484Y-86295946D01*
X176019509Y-86346742D01*
X175951688Y-86363536D01*
X175885553Y-86340998D01*
X175846516Y-86295946D01*
X175842050Y-86287182D01*
X175717109Y-86115213D01*
X175566786Y-85964890D01*
X175394820Y-85839951D01*
X175205414Y-85743444D01*
X175205413Y-85743443D01*
X175205412Y-85743443D01*
X175003243Y-85677754D01*
X175003241Y-85677753D01*
X175003240Y-85677753D01*
X174841957Y-85652208D01*
X174793287Y-85644500D01*
X174580713Y-85644500D01*
X174532042Y-85652208D01*
X174370760Y-85677753D01*
X174168585Y-85743444D01*
X173979179Y-85839951D01*
X173807213Y-85964890D01*
X173656890Y-86115213D01*
X173531949Y-86287182D01*
X173527202Y-86296499D01*
X173479227Y-86347293D01*
X173411405Y-86364087D01*
X173345271Y-86341548D01*
X173306234Y-86296495D01*
X173301626Y-86287452D01*
X173262270Y-86233282D01*
X173262269Y-86233282D01*
X172629962Y-86865590D01*
X172612925Y-86802007D01*
X172547099Y-86687993D01*
X172454007Y-86594901D01*
X172339993Y-86529075D01*
X172276409Y-86512037D01*
X172908716Y-85879728D01*
X172854550Y-85840375D01*
X172665217Y-85743904D01*
X172463129Y-85678242D01*
X172253246Y-85645000D01*
X172040754Y-85645000D01*
X171830872Y-85678242D01*
X171830869Y-85678242D01*
X171628782Y-85743904D01*
X171439439Y-85840380D01*
X171385282Y-85879727D01*
X171385282Y-85879728D01*
X172017591Y-86512037D01*
X171954007Y-86529075D01*
X171839993Y-86594901D01*
X171746901Y-86687993D01*
X171681075Y-86802007D01*
X171664037Y-86865591D01*
X170993818Y-86195372D01*
X170960333Y-86134049D01*
X170957499Y-86107691D01*
X170957499Y-86097129D01*
X170957498Y-86097123D01*
X170957497Y-86097116D01*
X170951091Y-86037517D01*
X170900796Y-85902669D01*
X170900795Y-85902668D01*
X170900793Y-85902664D01*
X170814547Y-85787455D01*
X170814544Y-85787452D01*
X170699335Y-85701206D01*
X170699328Y-85701202D01*
X170564482Y-85650908D01*
X170564483Y-85650908D01*
X170504883Y-85644501D01*
X170504881Y-85644500D01*
X170504873Y-85644500D01*
X170504864Y-85644500D01*
X168709129Y-85644500D01*
X168709123Y-85644501D01*
X168649516Y-85650908D01*
X168514671Y-85701202D01*
X168514664Y-85701206D01*
X168399455Y-85787452D01*
X168399452Y-85787455D01*
X168313206Y-85902664D01*
X168313202Y-85902671D01*
X168262908Y-86037517D01*
X168258510Y-86078431D01*
X168256501Y-86097123D01*
X168256500Y-86097135D01*
X167258500Y-86097135D01*
X167258500Y-86083752D01*
X167258545Y-86080428D01*
X167259084Y-86060327D01*
X167259217Y-86057007D01*
X167260649Y-86030320D01*
X167260871Y-86027011D01*
X167262481Y-86007018D01*
X167262792Y-86003715D01*
X167273962Y-85899825D01*
X167275029Y-85892157D01*
X167282936Y-85845971D01*
X167284481Y-85838381D01*
X167298826Y-85777670D01*
X167300842Y-85770191D01*
X167314450Y-85725328D01*
X167316929Y-85717988D01*
X167390587Y-85520498D01*
X167393975Y-85512318D01*
X167416233Y-85463581D01*
X167420195Y-85455667D01*
X167454372Y-85393077D01*
X167458890Y-85385463D01*
X167487854Y-85340396D01*
X167492902Y-85333126D01*
X167604164Y-85184500D01*
X166519000Y-85184500D01*
X166519000Y-86309189D01*
X165438701Y-86309189D01*
X165427624Y-86287449D01*
X165388270Y-86233282D01*
X165388269Y-86233282D01*
X164755962Y-86865590D01*
X164738925Y-86802007D01*
X164673099Y-86687993D01*
X164580007Y-86594901D01*
X164465993Y-86529075D01*
X164402409Y-86512037D01*
X165034716Y-85879728D01*
X164980550Y-85840375D01*
X164791217Y-85743904D01*
X164589129Y-85678242D01*
X164379246Y-85645000D01*
X164166754Y-85645000D01*
X163956872Y-85678242D01*
X163956869Y-85678242D01*
X163754782Y-85743904D01*
X163565439Y-85840380D01*
X163511282Y-85879727D01*
X163511282Y-85879728D01*
X164143591Y-86512037D01*
X164080007Y-86529075D01*
X163965993Y-86594901D01*
X163872901Y-86687993D01*
X163807075Y-86802007D01*
X163790037Y-86865591D01*
X163157728Y-86233282D01*
X163157727Y-86233282D01*
X163118380Y-86287440D01*
X163118376Y-86287446D01*
X163113760Y-86296505D01*
X163065781Y-86347297D01*
X162997959Y-86364087D01*
X162931826Y-86341543D01*
X162892794Y-86296493D01*
X162888051Y-86287184D01*
X162888049Y-86287181D01*
X162888048Y-86287179D01*
X162763109Y-86115213D01*
X162612786Y-85964890D01*
X162440820Y-85839951D01*
X162251414Y-85743444D01*
X162251413Y-85743443D01*
X162251412Y-85743443D01*
X162049243Y-85677754D01*
X162049241Y-85677753D01*
X162049240Y-85677753D01*
X161887957Y-85652208D01*
X161839287Y-85644500D01*
X161626713Y-85644500D01*
X161578042Y-85652208D01*
X161416760Y-85677753D01*
X161214585Y-85743444D01*
X161025179Y-85839951D01*
X160853213Y-85964890D01*
X160702890Y-86115213D01*
X160577949Y-86287182D01*
X160573484Y-86295946D01*
X160525509Y-86346742D01*
X160457688Y-86363536D01*
X160391553Y-86340998D01*
X160352516Y-86295946D01*
X160348050Y-86287182D01*
X160223109Y-86115213D01*
X160072786Y-85964890D01*
X159900820Y-85839951D01*
X159711414Y-85743444D01*
X159711413Y-85743443D01*
X159711412Y-85743443D01*
X159509243Y-85677754D01*
X159509241Y-85677753D01*
X159509240Y-85677753D01*
X159347957Y-85652208D01*
X159299287Y-85644500D01*
X159086713Y-85644500D01*
X159038042Y-85652208D01*
X158876760Y-85677753D01*
X158674585Y-85743444D01*
X158485179Y-85839951D01*
X158313213Y-85964890D01*
X158162890Y-86115213D01*
X158037949Y-86287182D01*
X158033484Y-86295946D01*
X157985509Y-86346742D01*
X157917688Y-86363536D01*
X157851553Y-86340998D01*
X157812516Y-86295946D01*
X157808050Y-86287182D01*
X157683109Y-86115213D01*
X157532786Y-85964890D01*
X157360820Y-85839951D01*
X157171414Y-85743444D01*
X157171413Y-85743443D01*
X157171412Y-85743443D01*
X156969243Y-85677754D01*
X156969241Y-85677753D01*
X156969240Y-85677753D01*
X156807957Y-85652208D01*
X156759287Y-85644500D01*
X156546713Y-85644500D01*
X156498042Y-85652208D01*
X156336760Y-85677753D01*
X156134585Y-85743444D01*
X155945179Y-85839951D01*
X155773213Y-85964890D01*
X155622890Y-86115213D01*
X155497949Y-86287182D01*
X155493484Y-86295946D01*
X155445509Y-86346742D01*
X155377688Y-86363536D01*
X155311553Y-86340998D01*
X155272516Y-86295946D01*
X155268050Y-86287182D01*
X155143109Y-86115213D01*
X154992786Y-85964890D01*
X154820820Y-85839951D01*
X154631414Y-85743444D01*
X154631413Y-85743443D01*
X154631412Y-85743443D01*
X154429243Y-85677754D01*
X154429241Y-85677753D01*
X154429240Y-85677753D01*
X154267957Y-85652208D01*
X154219287Y-85644500D01*
X154006713Y-85644500D01*
X153958042Y-85652208D01*
X153796760Y-85677753D01*
X153594585Y-85743444D01*
X153405179Y-85839951D01*
X153233213Y-85964890D01*
X153082890Y-86115213D01*
X152957949Y-86287182D01*
X152953484Y-86295946D01*
X152905509Y-86346742D01*
X152837688Y-86363536D01*
X152771553Y-86340998D01*
X152732516Y-86295946D01*
X152728050Y-86287182D01*
X152603109Y-86115213D01*
X152452786Y-85964890D01*
X152280820Y-85839951D01*
X152091414Y-85743444D01*
X152091413Y-85743443D01*
X152091412Y-85743443D01*
X151889243Y-85677754D01*
X151889241Y-85677753D01*
X151889240Y-85677753D01*
X151727957Y-85652208D01*
X151679287Y-85644500D01*
X151466713Y-85644500D01*
X151418042Y-85652208D01*
X151256760Y-85677753D01*
X151054585Y-85743444D01*
X150865179Y-85839951D01*
X150693213Y-85964890D01*
X150542890Y-86115213D01*
X150417949Y-86287182D01*
X150413484Y-86295946D01*
X150365509Y-86346742D01*
X150297688Y-86363536D01*
X150231553Y-86340998D01*
X150192516Y-86295946D01*
X150188050Y-86287182D01*
X150063109Y-86115213D01*
X149912786Y-85964890D01*
X149740820Y-85839951D01*
X149551414Y-85743444D01*
X149551413Y-85743443D01*
X149551412Y-85743443D01*
X149349243Y-85677754D01*
X149349241Y-85677753D01*
X149349240Y-85677753D01*
X149187957Y-85652208D01*
X149139287Y-85644500D01*
X148926713Y-85644500D01*
X148878042Y-85652208D01*
X148716760Y-85677753D01*
X148514585Y-85743444D01*
X148325179Y-85839951D01*
X148153213Y-85964890D01*
X148002890Y-86115213D01*
X147877949Y-86287182D01*
X147873484Y-86295946D01*
X147825509Y-86346742D01*
X147757688Y-86363536D01*
X147691553Y-86340998D01*
X147652516Y-86295946D01*
X147648050Y-86287182D01*
X147523109Y-86115213D01*
X147372786Y-85964890D01*
X147200820Y-85839951D01*
X147011414Y-85743444D01*
X147011413Y-85743443D01*
X147011412Y-85743443D01*
X146809243Y-85677754D01*
X146809241Y-85677753D01*
X146809240Y-85677753D01*
X146647957Y-85652208D01*
X146599287Y-85644500D01*
X146386713Y-85644500D01*
X146338042Y-85652208D01*
X146176760Y-85677753D01*
X145974585Y-85743444D01*
X145785179Y-85839951D01*
X145613215Y-85964889D01*
X145499673Y-86078431D01*
X145438350Y-86111915D01*
X145368658Y-86106931D01*
X145312725Y-86065059D01*
X145295810Y-86034082D01*
X145246797Y-85902671D01*
X145246793Y-85902664D01*
X145160547Y-85787455D01*
X145160544Y-85787452D01*
X145045335Y-85701206D01*
X145045328Y-85701202D01*
X144910482Y-85650908D01*
X144910483Y-85650908D01*
X144850883Y-85644501D01*
X144850881Y-85644500D01*
X144850873Y-85644500D01*
X144850864Y-85644500D01*
X143055129Y-85644500D01*
X143055123Y-85644501D01*
X142995516Y-85650908D01*
X142860671Y-85701202D01*
X142860664Y-85701206D01*
X142745455Y-85787452D01*
X142745452Y-85787455D01*
X142659206Y-85902664D01*
X142659202Y-85902671D01*
X142608908Y-86037517D01*
X142604510Y-86078431D01*
X142602501Y-86097123D01*
X142602500Y-86097135D01*
X141478000Y-86097135D01*
X141478000Y-84201000D01*
X136449362Y-84201000D01*
X136382323Y-84181315D01*
X136361681Y-84164681D01*
X136307319Y-84110319D01*
X136273834Y-84048996D01*
X136271000Y-84022638D01*
X136271000Y-83077000D01*
X139019000Y-83077000D01*
X140521000Y-83077000D01*
X141519000Y-83077000D01*
X141892214Y-83077000D01*
X141959253Y-83096685D01*
X141979895Y-83113319D01*
X142565681Y-83699105D01*
X142599166Y-83760428D01*
X142602000Y-83786786D01*
X142602000Y-84186500D01*
X143021000Y-84186500D01*
X144019000Y-84186500D01*
X145521000Y-84186500D01*
X146519000Y-84186500D01*
X148021000Y-84186500D01*
X149019000Y-84186500D01*
X150521000Y-84186500D01*
X151519000Y-84186500D01*
X153021000Y-84186500D01*
X154019000Y-84186500D01*
X155521000Y-84186500D01*
X156519000Y-84186500D01*
X158021000Y-84186500D01*
X159019000Y-84186500D01*
X160521000Y-84186500D01*
X161519000Y-84186500D01*
X163021000Y-84186500D01*
X164019000Y-84186500D01*
X165521000Y-84186500D01*
X166519000Y-84186500D01*
X168021000Y-84186500D01*
X169019000Y-84186500D01*
X170521000Y-84186500D01*
X170521000Y-83732328D01*
X171519000Y-83732328D01*
X171519000Y-84186500D01*
X173021000Y-84186500D01*
X174019000Y-84186500D01*
X175521000Y-84186500D01*
X176519000Y-84186500D01*
X178021000Y-84186500D01*
X179019000Y-84186500D01*
X179343000Y-84186500D01*
X179343000Y-83913786D01*
X179362685Y-83846747D01*
X179379319Y-83826105D01*
X179965105Y-83240319D01*
X180026428Y-83206834D01*
X180052786Y-83204000D01*
X180521000Y-83204000D01*
X180521000Y-82684500D01*
X179019000Y-82684500D01*
X179019000Y-84186500D01*
X178021000Y-84186500D01*
X178021000Y-82684500D01*
X176519000Y-82684500D01*
X176519000Y-84186500D01*
X175521000Y-84186500D01*
X175521000Y-82684500D01*
X174019000Y-82684500D01*
X174019000Y-84186500D01*
X173021000Y-84186500D01*
X173021000Y-83226595D01*
X172998273Y-83249322D01*
X172993864Y-83253520D01*
X172966577Y-83278251D01*
X172961970Y-83282225D01*
X172924088Y-83313314D01*
X172919288Y-83317060D01*
X172889714Y-83338993D01*
X172884740Y-83342496D01*
X172688314Y-83473744D01*
X172683170Y-83477001D01*
X172651578Y-83495936D01*
X172646282Y-83498936D01*
X172603061Y-83522037D01*
X172597626Y-83524773D01*
X172564346Y-83540513D01*
X172558783Y-83542979D01*
X172340535Y-83633380D01*
X172334859Y-83635570D01*
X172300197Y-83647973D01*
X172294418Y-83649882D01*
X172247522Y-83664109D01*
X172241652Y-83665733D01*
X172205924Y-83674682D01*
X172199987Y-83676015D01*
X171968281Y-83722104D01*
X171962286Y-83723145D01*
X171925858Y-83728549D01*
X171919815Y-83729294D01*
X171871046Y-83734097D01*
X171864975Y-83734545D01*
X171828200Y-83736351D01*
X171822118Y-83736500D01*
X171585882Y-83736500D01*
X171579800Y-83736351D01*
X171543025Y-83734545D01*
X171536954Y-83734097D01*
X171519000Y-83732328D01*
X170521000Y-83732328D01*
X170521000Y-83340904D01*
X170518286Y-83338993D01*
X170488712Y-83317060D01*
X170483912Y-83313314D01*
X170446030Y-83282225D01*
X170441423Y-83278251D01*
X170414136Y-83253520D01*
X170409727Y-83249322D01*
X170242678Y-83082273D01*
X170238480Y-83077864D01*
X170213749Y-83050577D01*
X170209775Y-83045970D01*
X170178686Y-83008088D01*
X170174940Y-83003288D01*
X170153007Y-82973714D01*
X170149504Y-82968740D01*
X170018256Y-82772314D01*
X170014999Y-82767170D01*
X169996064Y-82735578D01*
X169993064Y-82730282D01*
X169969963Y-82687061D01*
X169968674Y-82684500D01*
X169019000Y-82684500D01*
X169019000Y-84186500D01*
X168021000Y-84186500D01*
X168021000Y-82684500D01*
X166519000Y-82684500D01*
X166519000Y-84186500D01*
X165521000Y-84186500D01*
X165521000Y-82684500D01*
X164019000Y-82684500D01*
X164019000Y-84186500D01*
X163021000Y-84186500D01*
X163021000Y-82684500D01*
X161519000Y-82684500D01*
X161519000Y-84186500D01*
X160521000Y-84186500D01*
X160521000Y-82684500D01*
X159019000Y-82684500D01*
X159019000Y-84186500D01*
X158021000Y-84186500D01*
X158021000Y-82684500D01*
X156519000Y-82684500D01*
X156519000Y-84186500D01*
X155521000Y-84186500D01*
X155521000Y-82684500D01*
X154019000Y-82684500D01*
X154019000Y-84186500D01*
X153021000Y-84186500D01*
X153021000Y-82684500D01*
X152625813Y-82684500D01*
X152592319Y-82695383D01*
X152573399Y-82699925D01*
X152386840Y-82729473D01*
X152367442Y-82731000D01*
X152178558Y-82731000D01*
X152159160Y-82729473D01*
X151972601Y-82699925D01*
X151953681Y-82695383D01*
X151920187Y-82684500D01*
X151519000Y-82684500D01*
X151519000Y-84186500D01*
X150521000Y-84186500D01*
X150521000Y-82684500D01*
X149019000Y-82684500D01*
X149019000Y-84186500D01*
X148021000Y-84186500D01*
X148021000Y-82684500D01*
X146519000Y-82684500D01*
X146519000Y-84186500D01*
X145521000Y-84186500D01*
X145521000Y-82771802D01*
X145509428Y-82772713D01*
X145320544Y-82772713D01*
X145301146Y-82771186D01*
X145114587Y-82741638D01*
X145095667Y-82737096D01*
X144933792Y-82684500D01*
X144019000Y-82684500D01*
X144019000Y-84186500D01*
X143021000Y-84186500D01*
X143021000Y-82684500D01*
X141519000Y-82684500D01*
X141519000Y-83077000D01*
X140521000Y-83077000D01*
X140521000Y-82684500D01*
X139019000Y-82684500D01*
X139019000Y-83077000D01*
X136271000Y-83077000D01*
X136271000Y-81694379D01*
X170753500Y-81694379D01*
X170753500Y-81881620D01*
X170790025Y-82065243D01*
X170790027Y-82065251D01*
X170861676Y-82238228D01*
X170861681Y-82238237D01*
X170965697Y-82393907D01*
X170965700Y-82393911D01*
X171098088Y-82526299D01*
X171098092Y-82526302D01*
X171253762Y-82630318D01*
X171253768Y-82630321D01*
X171253769Y-82630322D01*
X171426749Y-82701973D01*
X171565002Y-82729473D01*
X171610379Y-82738499D01*
X171610383Y-82738500D01*
X171610384Y-82738500D01*
X171797617Y-82738500D01*
X171797618Y-82738499D01*
X171981251Y-82701973D01*
X172154231Y-82630322D01*
X172309908Y-82526302D01*
X172442302Y-82393908D01*
X172546322Y-82238231D01*
X172617973Y-82065251D01*
X172654500Y-81881616D01*
X172654500Y-81694384D01*
X172652932Y-81686500D01*
X174019000Y-81686500D01*
X175521000Y-81686500D01*
X176519000Y-81686500D01*
X178021000Y-81686500D01*
X179019000Y-81686500D01*
X180521000Y-81686500D01*
X180521000Y-80184500D01*
X179019000Y-80184500D01*
X179019000Y-81686500D01*
X178021000Y-81686500D01*
X178021000Y-80184500D01*
X176519000Y-80184500D01*
X176519000Y-81686500D01*
X175521000Y-81686500D01*
X175521000Y-80184500D01*
X174019000Y-80184500D01*
X174019000Y-81686500D01*
X172652932Y-81686500D01*
X172617973Y-81510749D01*
X172546322Y-81337769D01*
X172546321Y-81337768D01*
X172546318Y-81337762D01*
X172442302Y-81182092D01*
X172442299Y-81182088D01*
X172309911Y-81049700D01*
X172309907Y-81049697D01*
X172154237Y-80945681D01*
X172154228Y-80945676D01*
X171981251Y-80874027D01*
X171981243Y-80874025D01*
X171797620Y-80837500D01*
X171797616Y-80837500D01*
X171610384Y-80837500D01*
X171610379Y-80837500D01*
X171426756Y-80874025D01*
X171426748Y-80874027D01*
X171253771Y-80945676D01*
X171253762Y-80945681D01*
X171098092Y-81049697D01*
X171098088Y-81049700D01*
X170965700Y-81182088D01*
X170965697Y-81182092D01*
X170861681Y-81337762D01*
X170861676Y-81337771D01*
X170790027Y-81510748D01*
X170790025Y-81510756D01*
X170753500Y-81694379D01*
X136271000Y-81694379D01*
X136271000Y-81686500D01*
X137395000Y-81686500D01*
X138021000Y-81686500D01*
X139019000Y-81686500D01*
X140521000Y-81686500D01*
X141519000Y-81686500D01*
X143021000Y-81686500D01*
X144019000Y-81686500D01*
X144112144Y-81686500D01*
X144092513Y-81562553D01*
X144090986Y-81543155D01*
X144090986Y-81354271D01*
X144092513Y-81334873D01*
X144122061Y-81148314D01*
X144126603Y-81129394D01*
X144184971Y-80949755D01*
X144192417Y-80931778D01*
X144278169Y-80763481D01*
X144288336Y-80746891D01*
X144310973Y-80715733D01*
X146519000Y-80715733D01*
X146541637Y-80746891D01*
X146551803Y-80763481D01*
X146637555Y-80931778D01*
X146645001Y-80949755D01*
X146703369Y-81129394D01*
X146707911Y-81148314D01*
X146737459Y-81334873D01*
X146738986Y-81354271D01*
X146738986Y-81543155D01*
X146737459Y-81562553D01*
X146717828Y-81686500D01*
X147789357Y-81686500D01*
X154019000Y-81686500D01*
X155521000Y-81686500D01*
X156519000Y-81686500D01*
X158021000Y-81686500D01*
X159019000Y-81686500D01*
X160521000Y-81686500D01*
X161519000Y-81686500D01*
X163021000Y-81686500D01*
X164019000Y-81686500D01*
X165521000Y-81686500D01*
X166519000Y-81686500D01*
X168021000Y-81686500D01*
X169019000Y-81686500D01*
X169755500Y-81686500D01*
X169755500Y-81669882D01*
X169755649Y-81663800D01*
X169757455Y-81627025D01*
X169757903Y-81620954D01*
X169762706Y-81572185D01*
X169763451Y-81566142D01*
X169768855Y-81529714D01*
X169769896Y-81523719D01*
X169815985Y-81292013D01*
X169817318Y-81286076D01*
X169826267Y-81250348D01*
X169827891Y-81244478D01*
X169842118Y-81197582D01*
X169844027Y-81191803D01*
X169856430Y-81157141D01*
X169858620Y-81151465D01*
X169949021Y-80933217D01*
X169951487Y-80927654D01*
X169967227Y-80894374D01*
X169969963Y-80888939D01*
X169993064Y-80845718D01*
X169996064Y-80840422D01*
X170014999Y-80808830D01*
X170018256Y-80803686D01*
X170149504Y-80607260D01*
X170153007Y-80602286D01*
X170174940Y-80572712D01*
X170178686Y-80567912D01*
X170209775Y-80530030D01*
X170213749Y-80525423D01*
X170238480Y-80498136D01*
X170242678Y-80493727D01*
X170409727Y-80326678D01*
X170414136Y-80322480D01*
X170441423Y-80297749D01*
X170446030Y-80293775D01*
X170483912Y-80262686D01*
X170488712Y-80258940D01*
X170518286Y-80237007D01*
X170521000Y-80235095D01*
X170521000Y-80184500D01*
X169019000Y-80184500D01*
X169019000Y-81686500D01*
X168021000Y-81686500D01*
X168021000Y-80184500D01*
X166519000Y-80184500D01*
X166519000Y-81686500D01*
X165521000Y-81686500D01*
X165521000Y-80184500D01*
X164019000Y-80184500D01*
X164019000Y-81686500D01*
X163021000Y-81686500D01*
X163021000Y-80184500D01*
X161519000Y-80184500D01*
X161519000Y-81686500D01*
X160521000Y-81686500D01*
X160521000Y-80184500D01*
X159019000Y-80184500D01*
X159019000Y-81686500D01*
X158021000Y-81686500D01*
X158021000Y-80184500D01*
X156519000Y-80184500D01*
X156519000Y-81686500D01*
X155521000Y-81686500D01*
X155521000Y-80184500D01*
X154019000Y-80184500D01*
X154019000Y-81686500D01*
X147789357Y-81686500D01*
X147672217Y-81637979D01*
X147666654Y-81635513D01*
X147633374Y-81619773D01*
X147627939Y-81617037D01*
X147584718Y-81593936D01*
X147579422Y-81590936D01*
X147547830Y-81572001D01*
X147542686Y-81568744D01*
X147346260Y-81437496D01*
X147341286Y-81433993D01*
X147311712Y-81412060D01*
X147306912Y-81408314D01*
X147269030Y-81377225D01*
X147264423Y-81373251D01*
X147237136Y-81348520D01*
X147232727Y-81344322D01*
X147065678Y-81177273D01*
X147061480Y-81172864D01*
X147036749Y-81145577D01*
X147032775Y-81140970D01*
X147001686Y-81103088D01*
X146997940Y-81098288D01*
X146976007Y-81068714D01*
X146972504Y-81063740D01*
X146841256Y-80867314D01*
X146837999Y-80862170D01*
X146819064Y-80830578D01*
X146816064Y-80825282D01*
X146792963Y-80782061D01*
X146790227Y-80776626D01*
X146774487Y-80743346D01*
X146772021Y-80737783D01*
X146681620Y-80519535D01*
X146679430Y-80513859D01*
X146667027Y-80479197D01*
X146665118Y-80473418D01*
X146650891Y-80426522D01*
X146649267Y-80420652D01*
X146640318Y-80384924D01*
X146638985Y-80378987D01*
X146600299Y-80184500D01*
X146519000Y-80184500D01*
X146519000Y-80715733D01*
X144310973Y-80715733D01*
X144399359Y-80594080D01*
X144411996Y-80579284D01*
X144545557Y-80445723D01*
X144560353Y-80433086D01*
X144713164Y-80322063D01*
X144729754Y-80311896D01*
X144898051Y-80226144D01*
X144916028Y-80218698D01*
X145021279Y-80184500D01*
X144019000Y-80184500D01*
X144019000Y-81686500D01*
X143021000Y-81686500D01*
X143021000Y-80184500D01*
X141519000Y-80184500D01*
X141519000Y-81686500D01*
X140521000Y-81686500D01*
X140521000Y-80184500D01*
X139019000Y-80184500D01*
X139019000Y-81686500D01*
X138021000Y-81686500D01*
X138021000Y-80184500D01*
X137395000Y-80184500D01*
X137395000Y-81686500D01*
X136271000Y-81686500D01*
X136271000Y-79789379D01*
X147576500Y-79789379D01*
X147576500Y-79976620D01*
X147613025Y-80160243D01*
X147613027Y-80160251D01*
X147684676Y-80333228D01*
X147684681Y-80333237D01*
X147788697Y-80488907D01*
X147788700Y-80488911D01*
X147921088Y-80621299D01*
X147921092Y-80621302D01*
X148076762Y-80725318D01*
X148076768Y-80725321D01*
X148076769Y-80725322D01*
X148249749Y-80796973D01*
X148392069Y-80825282D01*
X148433379Y-80833499D01*
X148433383Y-80833500D01*
X148433384Y-80833500D01*
X148620617Y-80833500D01*
X148620618Y-80833499D01*
X148804251Y-80796973D01*
X148977231Y-80725322D01*
X149132908Y-80621302D01*
X149265302Y-80488908D01*
X149265304Y-80488904D01*
X149268173Y-80486036D01*
X149329496Y-80452551D01*
X149399188Y-80457535D01*
X149443536Y-80486036D01*
X149539961Y-80582461D01*
X149539965Y-80582464D01*
X149687446Y-80681009D01*
X149687459Y-80681016D01*
X149794428Y-80725323D01*
X149851334Y-80748894D01*
X149851336Y-80748894D01*
X149851341Y-80748896D01*
X150025304Y-80783499D01*
X150025307Y-80783500D01*
X150025309Y-80783500D01*
X150202693Y-80783500D01*
X150202694Y-80783499D01*
X150303333Y-80763481D01*
X150376658Y-80748896D01*
X150376661Y-80748894D01*
X150376666Y-80748894D01*
X150540547Y-80681013D01*
X150688035Y-80582464D01*
X150813464Y-80457035D01*
X150912013Y-80309547D01*
X150979894Y-80145666D01*
X151014500Y-79971691D01*
X151014500Y-79794309D01*
X151014500Y-79794306D01*
X151014499Y-79794304D01*
X150979896Y-79620341D01*
X150979893Y-79620332D01*
X150912016Y-79456459D01*
X150912009Y-79456446D01*
X150813464Y-79308965D01*
X150813461Y-79308961D01*
X150760453Y-79255953D01*
X150726968Y-79194630D01*
X150731952Y-79124938D01*
X150745028Y-79099386D01*
X150785013Y-79039547D01*
X150852894Y-78875666D01*
X150853553Y-78872357D01*
X150881417Y-78732274D01*
X150887500Y-78701691D01*
X150887500Y-78524309D01*
X150887500Y-78524306D01*
X150887499Y-78524304D01*
X150852896Y-78350341D01*
X150852893Y-78350332D01*
X150846561Y-78335046D01*
X150808111Y-78242217D01*
X150785016Y-78186459D01*
X150785009Y-78186446D01*
X150686464Y-78038965D01*
X150686461Y-78038961D01*
X150561038Y-77913538D01*
X150561034Y-77913535D01*
X150413553Y-77814990D01*
X150413540Y-77814983D01*
X150249667Y-77747106D01*
X150249658Y-77747103D01*
X150075694Y-77712500D01*
X150075691Y-77712500D01*
X149898309Y-77712500D01*
X149898306Y-77712500D01*
X149724341Y-77747103D01*
X149724332Y-77747106D01*
X149560459Y-77814983D01*
X149560446Y-77814990D01*
X149412965Y-77913535D01*
X149412961Y-77913538D01*
X149287538Y-78038961D01*
X149287535Y-78038965D01*
X149188990Y-78186446D01*
X149188983Y-78186459D01*
X149121106Y-78350332D01*
X149121103Y-78350341D01*
X149086500Y-78524304D01*
X149086500Y-78701695D01*
X149121103Y-78875658D01*
X149122873Y-78881489D01*
X149120227Y-78882291D01*
X149126239Y-78940112D01*
X149094745Y-79002481D01*
X149034532Y-79037923D01*
X148964716Y-79035184D01*
X148956834Y-79032229D01*
X148804251Y-78969027D01*
X148804243Y-78969025D01*
X148620620Y-78932500D01*
X148620616Y-78932500D01*
X148433384Y-78932500D01*
X148433379Y-78932500D01*
X148249756Y-78969025D01*
X148249748Y-78969027D01*
X148076771Y-79040676D01*
X148076762Y-79040681D01*
X147921092Y-79144697D01*
X147921088Y-79144700D01*
X147788700Y-79277088D01*
X147788697Y-79277092D01*
X147684681Y-79432762D01*
X147684676Y-79432771D01*
X147613027Y-79605748D01*
X147613025Y-79605756D01*
X147576500Y-79789379D01*
X136271000Y-79789379D01*
X136271000Y-79186500D01*
X137395000Y-79186500D01*
X138021000Y-79186500D01*
X139019000Y-79186500D01*
X140521000Y-79186500D01*
X141519000Y-79186500D01*
X143021000Y-79186500D01*
X144019000Y-79186500D01*
X145521000Y-79186500D01*
X146519000Y-79186500D01*
X146706458Y-79186500D01*
X146772021Y-79028217D01*
X146774487Y-79022654D01*
X146790227Y-78989374D01*
X146792963Y-78983939D01*
X146816064Y-78940718D01*
X146819064Y-78935422D01*
X146837999Y-78903830D01*
X146841256Y-78898686D01*
X146972504Y-78702260D01*
X146976007Y-78697286D01*
X146997940Y-78667712D01*
X147001686Y-78662912D01*
X147032775Y-78625030D01*
X147036749Y-78620423D01*
X147061480Y-78593136D01*
X147065678Y-78588727D01*
X147232727Y-78421678D01*
X147237136Y-78417480D01*
X147264423Y-78392749D01*
X147269030Y-78388775D01*
X147306912Y-78357686D01*
X147311712Y-78353940D01*
X147341286Y-78332007D01*
X147346260Y-78328504D01*
X147542686Y-78197256D01*
X147547830Y-78193999D01*
X147579422Y-78175064D01*
X147584718Y-78172064D01*
X147627939Y-78148963D01*
X147633374Y-78146227D01*
X147666654Y-78130487D01*
X147672217Y-78128021D01*
X147890465Y-78037620D01*
X147896141Y-78035430D01*
X147930803Y-78023027D01*
X147936582Y-78021118D01*
X147983478Y-78006891D01*
X147989348Y-78005267D01*
X148021000Y-77997338D01*
X148021000Y-77684500D01*
X151647866Y-77684500D01*
X151650627Y-77689106D01*
X151653627Y-77694401D01*
X151676729Y-77737623D01*
X151679466Y-77743062D01*
X151695206Y-77776344D01*
X151697671Y-77781905D01*
X151784301Y-77991051D01*
X151786491Y-77996728D01*
X151798890Y-78031380D01*
X151800798Y-78037155D01*
X151815025Y-78084048D01*
X151816649Y-78089916D01*
X151825601Y-78125651D01*
X151826935Y-78131592D01*
X151871104Y-78353643D01*
X151872145Y-78359640D01*
X151877549Y-78396071D01*
X151878294Y-78402112D01*
X151883097Y-78450884D01*
X151883545Y-78456954D01*
X151885351Y-78493726D01*
X151885500Y-78499809D01*
X151885500Y-78726191D01*
X151885351Y-78732274D01*
X151883545Y-78769046D01*
X151883097Y-78775116D01*
X151878294Y-78823888D01*
X151877549Y-78829929D01*
X151872145Y-78866360D01*
X151871104Y-78872357D01*
X151831912Y-79069386D01*
X151880421Y-79186500D01*
X153021000Y-79186500D01*
X154019000Y-79186500D01*
X155521000Y-79186500D01*
X156519000Y-79186500D01*
X157584644Y-79186500D01*
X164487356Y-79186500D01*
X165521000Y-79186500D01*
X166519000Y-79186500D01*
X168021000Y-79186500D01*
X169019000Y-79186500D01*
X170295098Y-79186500D01*
X174019000Y-79186500D01*
X175521000Y-79186500D01*
X176519000Y-79186500D01*
X178021000Y-79186500D01*
X179019000Y-79186500D01*
X180521000Y-79186500D01*
X180521000Y-77684500D01*
X179019000Y-77684500D01*
X179019000Y-79186500D01*
X178021000Y-79186500D01*
X178021000Y-77684500D01*
X176519000Y-77684500D01*
X176519000Y-79186500D01*
X175521000Y-79186500D01*
X175521000Y-77684500D01*
X174019000Y-77684500D01*
X174019000Y-79186500D01*
X170295098Y-79186500D01*
X170272256Y-79152314D01*
X170268999Y-79147170D01*
X170250064Y-79115578D01*
X170247064Y-79110282D01*
X170223963Y-79067061D01*
X170221227Y-79061626D01*
X170205487Y-79028346D01*
X170203021Y-79022783D01*
X170112620Y-78804535D01*
X170110430Y-78798859D01*
X170098027Y-78764197D01*
X170096118Y-78758418D01*
X170081891Y-78711522D01*
X170080267Y-78705652D01*
X170071318Y-78669924D01*
X170069985Y-78663987D01*
X170023896Y-78432281D01*
X170022855Y-78426286D01*
X170017451Y-78389858D01*
X170016706Y-78383815D01*
X170011903Y-78335046D01*
X170011455Y-78328975D01*
X170009649Y-78292200D01*
X170009500Y-78286118D01*
X170009500Y-78074379D01*
X171007500Y-78074379D01*
X171007500Y-78261620D01*
X171044025Y-78445243D01*
X171044027Y-78445251D01*
X171115676Y-78618228D01*
X171115681Y-78618237D01*
X171219697Y-78773907D01*
X171219700Y-78773911D01*
X171352088Y-78906299D01*
X171352092Y-78906302D01*
X171507762Y-79010318D01*
X171507771Y-79010323D01*
X171529888Y-79019484D01*
X171680749Y-79081973D01*
X171823069Y-79110282D01*
X171864379Y-79118499D01*
X171864383Y-79118500D01*
X171864384Y-79118500D01*
X172051617Y-79118500D01*
X172051618Y-79118499D01*
X172235251Y-79081973D01*
X172408231Y-79010322D01*
X172563908Y-78906302D01*
X172696302Y-78773908D01*
X172800322Y-78618231D01*
X172871973Y-78445251D01*
X172908500Y-78261616D01*
X172908500Y-78074384D01*
X172871973Y-77890749D01*
X172806489Y-77732658D01*
X172800323Y-77717771D01*
X172800318Y-77717762D01*
X172696302Y-77562092D01*
X172696299Y-77562088D01*
X172563911Y-77429700D01*
X172563907Y-77429697D01*
X172408237Y-77325681D01*
X172408228Y-77325676D01*
X172235251Y-77254027D01*
X172235243Y-77254025D01*
X172051620Y-77217500D01*
X172051616Y-77217500D01*
X171864384Y-77217500D01*
X171864379Y-77217500D01*
X171680756Y-77254025D01*
X171680748Y-77254027D01*
X171507771Y-77325676D01*
X171507762Y-77325681D01*
X171352092Y-77429697D01*
X171352088Y-77429700D01*
X171219700Y-77562088D01*
X171219697Y-77562092D01*
X171115681Y-77717762D01*
X171115676Y-77717771D01*
X171044027Y-77890748D01*
X171044025Y-77890756D01*
X171007500Y-78074379D01*
X170009500Y-78074379D01*
X170009500Y-78049882D01*
X170009649Y-78043800D01*
X170011455Y-78007025D01*
X170011903Y-78000954D01*
X170016706Y-77952185D01*
X170017451Y-77946142D01*
X170022855Y-77909714D01*
X170023896Y-77903719D01*
X170067501Y-77684500D01*
X169019000Y-77684500D01*
X169019000Y-79186500D01*
X168021000Y-79186500D01*
X168021000Y-77684500D01*
X166519000Y-77684500D01*
X166519000Y-79186500D01*
X165521000Y-79186500D01*
X165521000Y-77709910D01*
X165518071Y-77709549D01*
X165481640Y-77704145D01*
X165475643Y-77703104D01*
X165382115Y-77684500D01*
X165347500Y-77684500D01*
X165347500Y-77710191D01*
X165347351Y-77716274D01*
X165345545Y-77753046D01*
X165345097Y-77759116D01*
X165340294Y-77807888D01*
X165339549Y-77813929D01*
X165334145Y-77850360D01*
X165333104Y-77856357D01*
X165288935Y-78078408D01*
X165287601Y-78084349D01*
X165278649Y-78120084D01*
X165277025Y-78125952D01*
X165262798Y-78172845D01*
X165260890Y-78178620D01*
X165248491Y-78213272D01*
X165246301Y-78218949D01*
X165159671Y-78428095D01*
X165157206Y-78433656D01*
X165141466Y-78466938D01*
X165138729Y-78472377D01*
X165115627Y-78515599D01*
X165112627Y-78520894D01*
X165093691Y-78552488D01*
X165090434Y-78557632D01*
X164964657Y-78745869D01*
X164961153Y-78750845D01*
X164939221Y-78780417D01*
X164935476Y-78785215D01*
X164904387Y-78823097D01*
X164900413Y-78827704D01*
X164875682Y-78854991D01*
X164871484Y-78859400D01*
X164711400Y-79019484D01*
X164706991Y-79023682D01*
X164679704Y-79048413D01*
X164675097Y-79052387D01*
X164637215Y-79083476D01*
X164632417Y-79087221D01*
X164602845Y-79109153D01*
X164597869Y-79112657D01*
X164487356Y-79186500D01*
X157584644Y-79186500D01*
X157474131Y-79112657D01*
X157469155Y-79109153D01*
X157439583Y-79087221D01*
X157434785Y-79083476D01*
X157396903Y-79052387D01*
X157392296Y-79048413D01*
X157365009Y-79023682D01*
X157360600Y-79019484D01*
X157200516Y-78859400D01*
X157196318Y-78854991D01*
X157171587Y-78827704D01*
X157167613Y-78823097D01*
X157136524Y-78785215D01*
X157132779Y-78780417D01*
X157110847Y-78750845D01*
X157107343Y-78745869D01*
X156981566Y-78557632D01*
X156978309Y-78552488D01*
X156959373Y-78520894D01*
X156956373Y-78515599D01*
X156933271Y-78472377D01*
X156930534Y-78466938D01*
X156914794Y-78433656D01*
X156912329Y-78428095D01*
X156825699Y-78218949D01*
X156823509Y-78213272D01*
X156811110Y-78178620D01*
X156809202Y-78172845D01*
X156794975Y-78125952D01*
X156793351Y-78120084D01*
X156784399Y-78084349D01*
X156783065Y-78078408D01*
X156738896Y-77856357D01*
X156737855Y-77850360D01*
X156732451Y-77813929D01*
X156731706Y-77807888D01*
X156726903Y-77759116D01*
X156726455Y-77753046D01*
X156724649Y-77716274D01*
X156724500Y-77710191D01*
X156724500Y-77684500D01*
X156519000Y-77684500D01*
X156519000Y-79186500D01*
X155521000Y-79186500D01*
X155521000Y-77684500D01*
X154019000Y-77684500D01*
X154019000Y-79186500D01*
X153021000Y-79186500D01*
X153021000Y-77684500D01*
X151647866Y-77684500D01*
X148021000Y-77684500D01*
X146519000Y-77684500D01*
X146519000Y-79186500D01*
X145521000Y-79186500D01*
X145521000Y-77684500D01*
X144019000Y-77684500D01*
X144019000Y-79186500D01*
X143021000Y-79186500D01*
X143021000Y-77684500D01*
X141519000Y-77684500D01*
X141519000Y-79186500D01*
X140521000Y-79186500D01*
X140521000Y-77684500D01*
X139019000Y-77684500D01*
X139019000Y-79186500D01*
X138021000Y-79186500D01*
X138021000Y-77684500D01*
X137395000Y-77684500D01*
X137395000Y-79186500D01*
X136271000Y-79186500D01*
X136271000Y-77508304D01*
X157722500Y-77508304D01*
X157722500Y-77685695D01*
X157757103Y-77859658D01*
X157757106Y-77859667D01*
X157824983Y-78023540D01*
X157824990Y-78023553D01*
X157923535Y-78171034D01*
X157923538Y-78171038D01*
X158048961Y-78296461D01*
X158048965Y-78296464D01*
X158196446Y-78395009D01*
X158196459Y-78395016D01*
X158286427Y-78432281D01*
X158360334Y-78462894D01*
X158360336Y-78462894D01*
X158360341Y-78462896D01*
X158534304Y-78497499D01*
X158534307Y-78497500D01*
X158534309Y-78497500D01*
X158711693Y-78497500D01*
X158711694Y-78497499D01*
X158770933Y-78485716D01*
X158885658Y-78462896D01*
X158885661Y-78462894D01*
X158885666Y-78462894D01*
X159049547Y-78395013D01*
X159197035Y-78296464D01*
X159322464Y-78171035D01*
X159421013Y-78023547D01*
X159423662Y-78017153D01*
X159453075Y-77946142D01*
X159488894Y-77859666D01*
X159489553Y-77856357D01*
X159518167Y-77712500D01*
X159523500Y-77685691D01*
X159523500Y-77508309D01*
X159523500Y-77508306D01*
X159523499Y-77508304D01*
X159498237Y-77381304D01*
X160897500Y-77381304D01*
X160897500Y-77558695D01*
X160932103Y-77732658D01*
X160932106Y-77732667D01*
X160999983Y-77896540D01*
X160999990Y-77896553D01*
X161098535Y-78044034D01*
X161098538Y-78044038D01*
X161223961Y-78169461D01*
X161223965Y-78169464D01*
X161371446Y-78268009D01*
X161371459Y-78268016D01*
X161494363Y-78318923D01*
X161535334Y-78335894D01*
X161535336Y-78335894D01*
X161535341Y-78335896D01*
X161709304Y-78370499D01*
X161709307Y-78370500D01*
X161709309Y-78370500D01*
X161886693Y-78370500D01*
X161886694Y-78370499D01*
X161951111Y-78357686D01*
X162060658Y-78335896D01*
X162060661Y-78335894D01*
X162060666Y-78335894D01*
X162224547Y-78268013D01*
X162372035Y-78169464D01*
X162490862Y-78050636D01*
X162552183Y-78017153D01*
X162621875Y-78022137D01*
X162677809Y-78064008D01*
X162681644Y-78069428D01*
X162749535Y-78171034D01*
X162749538Y-78171038D01*
X162874961Y-78296461D01*
X162874965Y-78296464D01*
X163022446Y-78395009D01*
X163022459Y-78395016D01*
X163112427Y-78432281D01*
X163186334Y-78462894D01*
X163186336Y-78462894D01*
X163186341Y-78462896D01*
X163360304Y-78497499D01*
X163360307Y-78497500D01*
X163360309Y-78497500D01*
X163537693Y-78497500D01*
X163537694Y-78497499D01*
X163596933Y-78485716D01*
X163711658Y-78462896D01*
X163711661Y-78462894D01*
X163711666Y-78462894D01*
X163875547Y-78395013D01*
X164023035Y-78296464D01*
X164148464Y-78171035D01*
X164247013Y-78023547D01*
X164249662Y-78017153D01*
X164279075Y-77946142D01*
X164314894Y-77859666D01*
X164315553Y-77856357D01*
X164344167Y-77712500D01*
X164349500Y-77685691D01*
X164349500Y-77508309D01*
X164349500Y-77508306D01*
X164349499Y-77508304D01*
X164314896Y-77334341D01*
X164314893Y-77334332D01*
X164311308Y-77325678D01*
X164269193Y-77224000D01*
X164247016Y-77170459D01*
X164247009Y-77170446D01*
X164148464Y-77022965D01*
X164148461Y-77022961D01*
X164023038Y-76897538D01*
X164023034Y-76897535D01*
X163875553Y-76798990D01*
X163875540Y-76798983D01*
X163711667Y-76731106D01*
X163711658Y-76731103D01*
X163537694Y-76696500D01*
X163537691Y-76696500D01*
X163360309Y-76696500D01*
X163360306Y-76696500D01*
X163186341Y-76731103D01*
X163186332Y-76731106D01*
X163022459Y-76798983D01*
X163022446Y-76798990D01*
X162874965Y-76897534D01*
X162756138Y-77016362D01*
X162694815Y-77049846D01*
X162625123Y-77044862D01*
X162569190Y-77002990D01*
X162565355Y-76997571D01*
X162497464Y-76895964D01*
X162372038Y-76770538D01*
X162372034Y-76770535D01*
X162224553Y-76671990D01*
X162224540Y-76671983D01*
X162060667Y-76604106D01*
X162060658Y-76604103D01*
X161886694Y-76569500D01*
X161886691Y-76569500D01*
X161709309Y-76569500D01*
X161709306Y-76569500D01*
X161535341Y-76604103D01*
X161535332Y-76604106D01*
X161371459Y-76671983D01*
X161371446Y-76671990D01*
X161223965Y-76770535D01*
X161223961Y-76770538D01*
X161098538Y-76895961D01*
X161098535Y-76895965D01*
X160999990Y-77043446D01*
X160999983Y-77043459D01*
X160932106Y-77207332D01*
X160932103Y-77207341D01*
X160897500Y-77381304D01*
X159498237Y-77381304D01*
X159488896Y-77334341D01*
X159488893Y-77334332D01*
X159485308Y-77325678D01*
X159443193Y-77224000D01*
X159421016Y-77170459D01*
X159421009Y-77170446D01*
X159322464Y-77022965D01*
X159322461Y-77022961D01*
X159197038Y-76897538D01*
X159197034Y-76897535D01*
X159049553Y-76798990D01*
X159049540Y-76798983D01*
X158885667Y-76731106D01*
X158885658Y-76731103D01*
X158711694Y-76696500D01*
X158711691Y-76696500D01*
X158534309Y-76696500D01*
X158534306Y-76696500D01*
X158360341Y-76731103D01*
X158360332Y-76731106D01*
X158196459Y-76798983D01*
X158196446Y-76798990D01*
X158048965Y-76897535D01*
X158048961Y-76897538D01*
X157923538Y-77022961D01*
X157923535Y-77022965D01*
X157824990Y-77170446D01*
X157824983Y-77170459D01*
X157757106Y-77334332D01*
X157757103Y-77334341D01*
X157722500Y-77508304D01*
X136271000Y-77508304D01*
X136271000Y-76686500D01*
X137395000Y-76686500D01*
X138021000Y-76686500D01*
X139019000Y-76686500D01*
X140521000Y-76686500D01*
X141519000Y-76686500D01*
X143021000Y-76686500D01*
X144019000Y-76686500D01*
X145521000Y-76686500D01*
X146519000Y-76686500D01*
X148021000Y-76686500D01*
X149019000Y-76686500D01*
X150521000Y-76686500D01*
X150521000Y-75905583D01*
X151519000Y-75905583D01*
X151519000Y-76686500D01*
X153021000Y-76686500D01*
X154019000Y-76686500D01*
X155521000Y-76686500D01*
X155521000Y-75526869D01*
X156519000Y-75526869D01*
X156519000Y-76686500D01*
X156952044Y-76686500D01*
X156956373Y-76678401D01*
X156959373Y-76673106D01*
X156978309Y-76641512D01*
X156981566Y-76636368D01*
X157107343Y-76448131D01*
X157110847Y-76443155D01*
X157132779Y-76413583D01*
X157136524Y-76408785D01*
X157167613Y-76370903D01*
X157171587Y-76366296D01*
X157196318Y-76339009D01*
X157200516Y-76334600D01*
X157360600Y-76174516D01*
X157365009Y-76170318D01*
X157392296Y-76145587D01*
X157396903Y-76141613D01*
X157434785Y-76110524D01*
X157439583Y-76106779D01*
X157469155Y-76084847D01*
X157474131Y-76081343D01*
X157662368Y-75955566D01*
X157667512Y-75952309D01*
X157699106Y-75933373D01*
X157704401Y-75930373D01*
X157747623Y-75907271D01*
X157753062Y-75904534D01*
X157786344Y-75888794D01*
X157791905Y-75886329D01*
X158001051Y-75799699D01*
X158006728Y-75797509D01*
X158021000Y-75792402D01*
X158021000Y-75740075D01*
X159019000Y-75740075D01*
X159104409Y-75757065D01*
X159110349Y-75758399D01*
X159146084Y-75767351D01*
X159151952Y-75768975D01*
X159198845Y-75783202D01*
X159204620Y-75785110D01*
X159239272Y-75797509D01*
X159244949Y-75799699D01*
X159454095Y-75886329D01*
X159459656Y-75888794D01*
X159492938Y-75904534D01*
X159498377Y-75907271D01*
X159541599Y-75930373D01*
X159546894Y-75933373D01*
X159578488Y-75952309D01*
X159583632Y-75955566D01*
X159771869Y-76081343D01*
X159776845Y-76084847D01*
X159806417Y-76106779D01*
X159811215Y-76110524D01*
X159849097Y-76141613D01*
X159853704Y-76145587D01*
X159880991Y-76170318D01*
X159885400Y-76174516D01*
X160045484Y-76334600D01*
X160049682Y-76339009D01*
X160074413Y-76366296D01*
X160078387Y-76370903D01*
X160109476Y-76408785D01*
X160113221Y-76413583D01*
X160135153Y-76443155D01*
X160138657Y-76448131D01*
X160168070Y-76492150D01*
X160282343Y-76321131D01*
X160285847Y-76316155D01*
X160307779Y-76286583D01*
X160311524Y-76281785D01*
X160342613Y-76243903D01*
X160346587Y-76239296D01*
X160371318Y-76212009D01*
X160375516Y-76207600D01*
X160521000Y-76062116D01*
X160521000Y-75589803D01*
X161519000Y-75589803D01*
X161538643Y-75585896D01*
X161544640Y-75584855D01*
X161581071Y-75579451D01*
X161587112Y-75578706D01*
X161635884Y-75573903D01*
X161641954Y-75573455D01*
X161678726Y-75571649D01*
X161684809Y-75571500D01*
X161911191Y-75571500D01*
X161917274Y-75571649D01*
X161954046Y-75573455D01*
X161960116Y-75573903D01*
X162008888Y-75578706D01*
X162014929Y-75579451D01*
X162051360Y-75584855D01*
X162057357Y-75585896D01*
X162279408Y-75630065D01*
X162285349Y-75631399D01*
X162321084Y-75640351D01*
X162326952Y-75641975D01*
X162373845Y-75656202D01*
X162379620Y-75658110D01*
X162414272Y-75670509D01*
X162419949Y-75672699D01*
X162629095Y-75759329D01*
X162634656Y-75761794D01*
X162667938Y-75777534D01*
X162673377Y-75780271D01*
X162716599Y-75803373D01*
X162721894Y-75806373D01*
X162753488Y-75825309D01*
X162758128Y-75828247D01*
X162827051Y-75799699D01*
X162832728Y-75797509D01*
X162867380Y-75785110D01*
X162873155Y-75783202D01*
X162920048Y-75768975D01*
X162925916Y-75767351D01*
X162961651Y-75758399D01*
X162967592Y-75757065D01*
X163021000Y-75746441D01*
X163021000Y-75730304D01*
X164834500Y-75730304D01*
X164834500Y-75907695D01*
X164869103Y-76081658D01*
X164869106Y-76081667D01*
X164936983Y-76245540D01*
X164936990Y-76245553D01*
X165035535Y-76393034D01*
X165035538Y-76393038D01*
X165160961Y-76518461D01*
X165160965Y-76518464D01*
X165308446Y-76617009D01*
X165308459Y-76617016D01*
X165362469Y-76639387D01*
X165472334Y-76684894D01*
X165472336Y-76684894D01*
X165472341Y-76684896D01*
X165646304Y-76719499D01*
X165646307Y-76719500D01*
X165646309Y-76719500D01*
X165823693Y-76719500D01*
X165823694Y-76719499D01*
X165881682Y-76707964D01*
X165989594Y-76686500D01*
X174521861Y-76686500D01*
X175521000Y-76686500D01*
X176519000Y-76686500D01*
X178021000Y-76686500D01*
X179019000Y-76686500D01*
X180521000Y-76686500D01*
X180521000Y-75184500D01*
X179019000Y-75184500D01*
X179019000Y-76686500D01*
X178021000Y-76686500D01*
X178021000Y-75184500D01*
X176519000Y-75184500D01*
X176519000Y-76686500D01*
X175521000Y-76686500D01*
X175521000Y-75184500D01*
X175253500Y-75184500D01*
X175253500Y-75297191D01*
X175253351Y-75303274D01*
X175251545Y-75340046D01*
X175251097Y-75346116D01*
X175246294Y-75394888D01*
X175245549Y-75400929D01*
X175240145Y-75437360D01*
X175239104Y-75443357D01*
X175194935Y-75665408D01*
X175193601Y-75671349D01*
X175184649Y-75707084D01*
X175183025Y-75712952D01*
X175168798Y-75759845D01*
X175166890Y-75765620D01*
X175154491Y-75800272D01*
X175152301Y-75805949D01*
X175065671Y-76015095D01*
X175063206Y-76020656D01*
X175047466Y-76053938D01*
X175044729Y-76059377D01*
X175021627Y-76102599D01*
X175018627Y-76107894D01*
X174999691Y-76139488D01*
X174996434Y-76144632D01*
X174870657Y-76332869D01*
X174867153Y-76337845D01*
X174845221Y-76367417D01*
X174841476Y-76372215D01*
X174810387Y-76410097D01*
X174806413Y-76414704D01*
X174781682Y-76441991D01*
X174777484Y-76446400D01*
X174617400Y-76606484D01*
X174612991Y-76610682D01*
X174585704Y-76635413D01*
X174581097Y-76639387D01*
X174543215Y-76670476D01*
X174538417Y-76674221D01*
X174521861Y-76686500D01*
X165989594Y-76686500D01*
X165997658Y-76684896D01*
X165997661Y-76684894D01*
X165997666Y-76684894D01*
X166161547Y-76617013D01*
X166309035Y-76518464D01*
X166434464Y-76393035D01*
X166533013Y-76245547D01*
X166600894Y-76081666D01*
X166600896Y-76081658D01*
X166636689Y-75901717D01*
X166638586Y-75902094D01*
X166661373Y-75845614D01*
X166718396Y-75805239D01*
X166734439Y-75800911D01*
X166759666Y-75795894D01*
X166923547Y-75728013D01*
X167071035Y-75629464D01*
X167196464Y-75504035D01*
X167295013Y-75356547D01*
X167362894Y-75192666D01*
X167364519Y-75184500D01*
X167397499Y-75018695D01*
X167397500Y-75018693D01*
X167397500Y-74841306D01*
X167397499Y-74841304D01*
X167372237Y-74714304D01*
X169025500Y-74714304D01*
X169025500Y-74891695D01*
X169060103Y-75065658D01*
X169060106Y-75065667D01*
X169127983Y-75229540D01*
X169127990Y-75229553D01*
X169226535Y-75377034D01*
X169226538Y-75377038D01*
X169351961Y-75502461D01*
X169351965Y-75502464D01*
X169499446Y-75601009D01*
X169499459Y-75601016D01*
X169569591Y-75630065D01*
X169663334Y-75668894D01*
X169663336Y-75668894D01*
X169663341Y-75668896D01*
X169837304Y-75703499D01*
X169837307Y-75703500D01*
X169837309Y-75703500D01*
X170014693Y-75703500D01*
X170014694Y-75703499D01*
X170074380Y-75691627D01*
X170188658Y-75668896D01*
X170188661Y-75668894D01*
X170188666Y-75668894D01*
X170352547Y-75601013D01*
X170500035Y-75502464D01*
X170625464Y-75377035D01*
X170724013Y-75229547D01*
X170779618Y-75095304D01*
X172454500Y-75095304D01*
X172454500Y-75272695D01*
X172489103Y-75446658D01*
X172489106Y-75446667D01*
X172556983Y-75610540D01*
X172556990Y-75610553D01*
X172655535Y-75758034D01*
X172655538Y-75758038D01*
X172780961Y-75883461D01*
X172780965Y-75883464D01*
X172928446Y-75982009D01*
X172928459Y-75982016D01*
X173021746Y-76020656D01*
X173092334Y-76049894D01*
X173092336Y-76049894D01*
X173092341Y-76049896D01*
X173266304Y-76084499D01*
X173266307Y-76084500D01*
X173266309Y-76084500D01*
X173443693Y-76084500D01*
X173443694Y-76084499D01*
X173501682Y-76072964D01*
X173617658Y-76049896D01*
X173617661Y-76049894D01*
X173617666Y-76049894D01*
X173781547Y-75982013D01*
X173929035Y-75883464D01*
X174054464Y-75758035D01*
X174153013Y-75610547D01*
X174220894Y-75446666D01*
X174221553Y-75443357D01*
X174249783Y-75301434D01*
X174255500Y-75272691D01*
X174255500Y-75095309D01*
X174255500Y-75095306D01*
X174255499Y-75095304D01*
X174220896Y-74921341D01*
X174220893Y-74921332D01*
X174153016Y-74757459D01*
X174153009Y-74757446D01*
X174054464Y-74609965D01*
X174054461Y-74609961D01*
X173929038Y-74484538D01*
X173929034Y-74484535D01*
X173781553Y-74385990D01*
X173781540Y-74385983D01*
X173617667Y-74318106D01*
X173617658Y-74318103D01*
X173443694Y-74283500D01*
X173443691Y-74283500D01*
X173266309Y-74283500D01*
X173266306Y-74283500D01*
X173092341Y-74318103D01*
X173092332Y-74318106D01*
X172928459Y-74385983D01*
X172928446Y-74385990D01*
X172780965Y-74484535D01*
X172780961Y-74484538D01*
X172655538Y-74609961D01*
X172655535Y-74609965D01*
X172556990Y-74757446D01*
X172556983Y-74757459D01*
X172489106Y-74921332D01*
X172489103Y-74921341D01*
X172454500Y-75095304D01*
X170779618Y-75095304D01*
X170791894Y-75065666D01*
X170800782Y-75020987D01*
X170826499Y-74891695D01*
X170826500Y-74891693D01*
X170826500Y-74714306D01*
X170826499Y-74714304D01*
X170791896Y-74540341D01*
X170791893Y-74540332D01*
X170724016Y-74376459D01*
X170724009Y-74376446D01*
X170625464Y-74228965D01*
X170625461Y-74228961D01*
X170500038Y-74103538D01*
X170500034Y-74103535D01*
X170352553Y-74004990D01*
X170352540Y-74004983D01*
X170188667Y-73937106D01*
X170188658Y-73937103D01*
X170014694Y-73902500D01*
X170014691Y-73902500D01*
X169837309Y-73902500D01*
X169837306Y-73902500D01*
X169663341Y-73937103D01*
X169663332Y-73937106D01*
X169499459Y-74004983D01*
X169499446Y-74004990D01*
X169351965Y-74103535D01*
X169351961Y-74103538D01*
X169226538Y-74228961D01*
X169226535Y-74228965D01*
X169127990Y-74376446D01*
X169127983Y-74376459D01*
X169060106Y-74540332D01*
X169060103Y-74540341D01*
X169025500Y-74714304D01*
X167372237Y-74714304D01*
X167362896Y-74667341D01*
X167362893Y-74667332D01*
X167295016Y-74503459D01*
X167295009Y-74503446D01*
X167196464Y-74355965D01*
X167196461Y-74355961D01*
X167071038Y-74230538D01*
X167071034Y-74230535D01*
X166923553Y-74131990D01*
X166923540Y-74131983D01*
X166759667Y-74064106D01*
X166759658Y-74064103D01*
X166585694Y-74029500D01*
X166585691Y-74029500D01*
X166408309Y-74029500D01*
X166408306Y-74029500D01*
X166234341Y-74064103D01*
X166234332Y-74064106D01*
X166070459Y-74131983D01*
X166070446Y-74131990D01*
X165922965Y-74230535D01*
X165922961Y-74230538D01*
X165797538Y-74355961D01*
X165797535Y-74355965D01*
X165698990Y-74503446D01*
X165698983Y-74503459D01*
X165631106Y-74667332D01*
X165631103Y-74667341D01*
X165595311Y-74847283D01*
X165593421Y-74846907D01*
X165570601Y-74903416D01*
X165513565Y-74943773D01*
X165497553Y-74948089D01*
X165472339Y-74953104D01*
X165472329Y-74953107D01*
X165308459Y-75020983D01*
X165308446Y-75020990D01*
X165160965Y-75119535D01*
X165160961Y-75119538D01*
X165035538Y-75244961D01*
X165035535Y-75244965D01*
X164936990Y-75392446D01*
X164936983Y-75392459D01*
X164869106Y-75556332D01*
X164869103Y-75556341D01*
X164834500Y-75730304D01*
X163021000Y-75730304D01*
X163021000Y-75184500D01*
X161519000Y-75184500D01*
X161519000Y-75589803D01*
X160521000Y-75589803D01*
X160521000Y-75184500D01*
X159019000Y-75184500D01*
X159019000Y-75740075D01*
X158021000Y-75740075D01*
X158021000Y-75184500D01*
X157308635Y-75184500D01*
X157133632Y-75301434D01*
X157128488Y-75304691D01*
X157096894Y-75323627D01*
X157091599Y-75326627D01*
X157048377Y-75349729D01*
X157042938Y-75352466D01*
X157009656Y-75368206D01*
X157004095Y-75370671D01*
X156794949Y-75457301D01*
X156789272Y-75459491D01*
X156754620Y-75471890D01*
X156748845Y-75473798D01*
X156701952Y-75488025D01*
X156696084Y-75489649D01*
X156660349Y-75498601D01*
X156654408Y-75499935D01*
X156519000Y-75526869D01*
X155521000Y-75526869D01*
X155521000Y-75444853D01*
X155341905Y-75370671D01*
X155336344Y-75368206D01*
X155303062Y-75352466D01*
X155297623Y-75349729D01*
X155254401Y-75326627D01*
X155249106Y-75323627D01*
X155217512Y-75304691D01*
X155212368Y-75301434D01*
X155037365Y-75184500D01*
X154019000Y-75184500D01*
X154019000Y-76686500D01*
X153021000Y-76686500D01*
X153021000Y-75546419D01*
X152888429Y-75678990D01*
X152873633Y-75691627D01*
X152720822Y-75802650D01*
X152704232Y-75812817D01*
X152535935Y-75898569D01*
X152517958Y-75906015D01*
X152338319Y-75964383D01*
X152319399Y-75968925D01*
X152132840Y-75998473D01*
X152113442Y-76000000D01*
X151924558Y-76000000D01*
X151905160Y-75998473D01*
X151718601Y-75968925D01*
X151699681Y-75964383D01*
X151520042Y-75906015D01*
X151519000Y-75905583D01*
X150521000Y-75905583D01*
X150521000Y-75184500D01*
X149019000Y-75184500D01*
X149019000Y-76686500D01*
X148021000Y-76686500D01*
X148021000Y-75184500D01*
X146519000Y-75184500D01*
X146519000Y-76686500D01*
X145521000Y-76686500D01*
X145521000Y-75184500D01*
X144019000Y-75184500D01*
X144019000Y-76686500D01*
X143021000Y-76686500D01*
X143021000Y-75184500D01*
X141519000Y-75184500D01*
X141519000Y-76686500D01*
X140521000Y-76686500D01*
X140521000Y-75184500D01*
X139019000Y-75184500D01*
X139019000Y-76686500D01*
X138021000Y-76686500D01*
X138021000Y-75184500D01*
X137395000Y-75184500D01*
X137395000Y-76686500D01*
X136271000Y-76686500D01*
X136271000Y-74186500D01*
X137395000Y-74186500D01*
X138021000Y-74186500D01*
X139019000Y-74186500D01*
X140521000Y-74186500D01*
X144019000Y-74186500D01*
X145498648Y-74186500D01*
X145380256Y-74009314D01*
X145376999Y-74004170D01*
X145358064Y-73972578D01*
X145355064Y-73967282D01*
X145331963Y-73924061D01*
X145329227Y-73918626D01*
X145313487Y-73885346D01*
X145311021Y-73879783D01*
X145220620Y-73661535D01*
X145218430Y-73655859D01*
X145206027Y-73621197D01*
X145204118Y-73615418D01*
X145189891Y-73568522D01*
X145188267Y-73562652D01*
X145179318Y-73526924D01*
X145177985Y-73520987D01*
X145131896Y-73289281D01*
X145130855Y-73283286D01*
X145125451Y-73246858D01*
X145124706Y-73240815D01*
X145119903Y-73192046D01*
X145119455Y-73185975D01*
X145117649Y-73149200D01*
X145117500Y-73143118D01*
X145117500Y-72931379D01*
X146115500Y-72931379D01*
X146115500Y-73118620D01*
X146152025Y-73302243D01*
X146152027Y-73302251D01*
X146223676Y-73475228D01*
X146223681Y-73475237D01*
X146327697Y-73630907D01*
X146327700Y-73630911D01*
X146460088Y-73763299D01*
X146460092Y-73763302D01*
X146615762Y-73867318D01*
X146615768Y-73867321D01*
X146615769Y-73867322D01*
X146788749Y-73938973D01*
X146941556Y-73969368D01*
X146972379Y-73975499D01*
X146972383Y-73975500D01*
X146972384Y-73975500D01*
X147159617Y-73975500D01*
X147159618Y-73975499D01*
X147343251Y-73938973D01*
X147516231Y-73867322D01*
X147671908Y-73763302D01*
X147804302Y-73630908D01*
X147908322Y-73475231D01*
X147979973Y-73302251D01*
X148016500Y-73118616D01*
X148016500Y-72931384D01*
X147979973Y-72747749D01*
X147908322Y-72574769D01*
X147908321Y-72574768D01*
X147908318Y-72574762D01*
X147804302Y-72419092D01*
X147804299Y-72419088D01*
X147671911Y-72286700D01*
X147671907Y-72286697D01*
X147516237Y-72182681D01*
X147516228Y-72182676D01*
X147343251Y-72111027D01*
X147343243Y-72111025D01*
X147159620Y-72074500D01*
X147159616Y-72074500D01*
X146972384Y-72074500D01*
X146972379Y-72074500D01*
X146788756Y-72111025D01*
X146788748Y-72111027D01*
X146615771Y-72182676D01*
X146615762Y-72182681D01*
X146460092Y-72286697D01*
X146460088Y-72286700D01*
X146327700Y-72419088D01*
X146327697Y-72419092D01*
X146223681Y-72574762D01*
X146223676Y-72574771D01*
X146152027Y-72747748D01*
X146152025Y-72747756D01*
X146115500Y-72931379D01*
X145117500Y-72931379D01*
X145117500Y-72906882D01*
X145117649Y-72900800D01*
X145119455Y-72864025D01*
X145119903Y-72857954D01*
X145124706Y-72809185D01*
X145125451Y-72803142D01*
X145130855Y-72766714D01*
X145131896Y-72760719D01*
X145147057Y-72684500D01*
X144019000Y-72684500D01*
X144019000Y-74186500D01*
X140521000Y-74186500D01*
X140521000Y-73960456D01*
X140426640Y-73912378D01*
X140422346Y-73910083D01*
X140396650Y-73895693D01*
X140392450Y-73893231D01*
X140359027Y-73872750D01*
X140354927Y-73870126D01*
X140330432Y-73853760D01*
X140326435Y-73850974D01*
X140122731Y-73702975D01*
X140118843Y-73700032D01*
X140095684Y-73681773D01*
X140091919Y-73678683D01*
X140062112Y-73653222D01*
X140058473Y-73649988D01*
X140036868Y-73630014D01*
X140033364Y-73626644D01*
X139855356Y-73448636D01*
X139851986Y-73445132D01*
X139832012Y-73423527D01*
X139828778Y-73419888D01*
X139803317Y-73390081D01*
X139800227Y-73386316D01*
X139781968Y-73363157D01*
X139779025Y-73359269D01*
X139631026Y-73155565D01*
X139628240Y-73151568D01*
X139611874Y-73127073D01*
X139609250Y-73122973D01*
X139588769Y-73089550D01*
X139586307Y-73085350D01*
X139571917Y-73059654D01*
X139569622Y-73055361D01*
X139455314Y-72831019D01*
X139453189Y-72826636D01*
X139440846Y-72799861D01*
X139438891Y-72795392D01*
X139423893Y-72759175D01*
X139422121Y-72754647D01*
X139411936Y-72727037D01*
X139410342Y-72722440D01*
X139398015Y-72684500D01*
X139019000Y-72684500D01*
X139019000Y-74186500D01*
X138021000Y-74186500D01*
X138021000Y-72684500D01*
X137395000Y-72684500D01*
X137395000Y-74186500D01*
X136271000Y-74186500D01*
X136271000Y-71770713D01*
X140254500Y-71770713D01*
X140254500Y-71983286D01*
X140286080Y-72182678D01*
X140287754Y-72193243D01*
X140350965Y-72387787D01*
X140353444Y-72395414D01*
X140449951Y-72584820D01*
X140574890Y-72756786D01*
X140725213Y-72907109D01*
X140897179Y-73032048D01*
X140897181Y-73032049D01*
X140897184Y-73032051D01*
X141086588Y-73128557D01*
X141288757Y-73194246D01*
X141498713Y-73227500D01*
X141498714Y-73227500D01*
X141711286Y-73227500D01*
X141711287Y-73227500D01*
X141921243Y-73194246D01*
X142123412Y-73128557D01*
X142312816Y-73032051D01*
X142391660Y-72974768D01*
X142484786Y-72907109D01*
X142484788Y-72907106D01*
X142484792Y-72907104D01*
X142635104Y-72756792D01*
X142635106Y-72756788D01*
X142635109Y-72756786D01*
X142760048Y-72584820D01*
X142760047Y-72584820D01*
X142760051Y-72584816D01*
X142856557Y-72395412D01*
X142922246Y-72193243D01*
X142955500Y-71983287D01*
X142955500Y-71770713D01*
X142942162Y-71686500D01*
X144019000Y-71686500D01*
X145521000Y-71686500D01*
X145521000Y-71666304D01*
X149848500Y-71666304D01*
X149848500Y-71843695D01*
X149883103Y-72017658D01*
X149883106Y-72017667D01*
X149950983Y-72181540D01*
X149950990Y-72181553D01*
X150044239Y-72321109D01*
X150065117Y-72387787D01*
X150046633Y-72455167D01*
X150044239Y-72458891D01*
X149950990Y-72598446D01*
X149950983Y-72598459D01*
X149883106Y-72762332D01*
X149883103Y-72762341D01*
X149848500Y-72936304D01*
X149848500Y-73113695D01*
X149883103Y-73287658D01*
X149883106Y-73287667D01*
X149950983Y-73451540D01*
X149950990Y-73451553D01*
X150049535Y-73599034D01*
X150049538Y-73599038D01*
X150174961Y-73724461D01*
X150174965Y-73724464D01*
X150322446Y-73823009D01*
X150322459Y-73823016D01*
X150429428Y-73867323D01*
X150486334Y-73890894D01*
X150486336Y-73890894D01*
X150486341Y-73890896D01*
X150660304Y-73925499D01*
X150660307Y-73925500D01*
X150660309Y-73925500D01*
X150837693Y-73925500D01*
X150837694Y-73925499D01*
X150916308Y-73909862D01*
X151011658Y-73890896D01*
X151011661Y-73890894D01*
X151011666Y-73890894D01*
X151175547Y-73823013D01*
X151323035Y-73724464D01*
X151448464Y-73599035D01*
X151547013Y-73451547D01*
X151614894Y-73287666D01*
X151615766Y-73283286D01*
X151642437Y-73149200D01*
X151649500Y-73113691D01*
X151649500Y-72936309D01*
X151649500Y-72936306D01*
X151649499Y-72936304D01*
X151614896Y-72762341D01*
X151614893Y-72762332D01*
X151613585Y-72759175D01*
X151587614Y-72696473D01*
X151547016Y-72598459D01*
X151547014Y-72598455D01*
X151547013Y-72598453D01*
X151518181Y-72555304D01*
X155182500Y-72555304D01*
X155182500Y-72732695D01*
X155217103Y-72906658D01*
X155217106Y-72906667D01*
X155284983Y-73070540D01*
X155284990Y-73070553D01*
X155345377Y-73160928D01*
X155366255Y-73227606D01*
X155356837Y-73277270D01*
X155307105Y-73397337D01*
X155307103Y-73397341D01*
X155272500Y-73571304D01*
X155272500Y-73748695D01*
X155307103Y-73922658D01*
X155307106Y-73922667D01*
X155374983Y-74086540D01*
X155374990Y-74086553D01*
X155473535Y-74234034D01*
X155473538Y-74234038D01*
X155598961Y-74359461D01*
X155598965Y-74359464D01*
X155746446Y-74458009D01*
X155746459Y-74458016D01*
X155869363Y-74508923D01*
X155910334Y-74525894D01*
X155910336Y-74525894D01*
X155910341Y-74525896D01*
X156084304Y-74560499D01*
X156084307Y-74560500D01*
X156084309Y-74560500D01*
X156261693Y-74560500D01*
X156261694Y-74560499D01*
X156319682Y-74548964D01*
X156435658Y-74525896D01*
X156435661Y-74525894D01*
X156435666Y-74525894D01*
X156599547Y-74458013D01*
X156747035Y-74359464D01*
X156872464Y-74234035D01*
X156971013Y-74086547D01*
X157038894Y-73922666D01*
X157039169Y-73921287D01*
X157073499Y-73748695D01*
X157073500Y-73748693D01*
X157073500Y-73571306D01*
X157073499Y-73571304D01*
X157038896Y-73397341D01*
X157038893Y-73397332D01*
X156971016Y-73233459D01*
X156971009Y-73233446D01*
X156910622Y-73143071D01*
X156889744Y-73076394D01*
X156899163Y-73026728D01*
X156934465Y-72941500D01*
X159019000Y-72941500D01*
X159019000Y-74186500D01*
X160521000Y-74186500D01*
X161519000Y-74186500D01*
X163021000Y-74186500D01*
X164019000Y-74186500D01*
X164750046Y-74186500D01*
X164786329Y-74098904D01*
X164788794Y-74093344D01*
X164804534Y-74060062D01*
X164807271Y-74054623D01*
X164830373Y-74011401D01*
X164833373Y-74006106D01*
X164852309Y-73974512D01*
X164855566Y-73969368D01*
X164981343Y-73781131D01*
X164984847Y-73776155D01*
X165006779Y-73746583D01*
X165010524Y-73741785D01*
X165041613Y-73703903D01*
X165045587Y-73699296D01*
X165070318Y-73672009D01*
X165074516Y-73667600D01*
X165234600Y-73507516D01*
X165239009Y-73503318D01*
X165266296Y-73478587D01*
X165270903Y-73474613D01*
X165308785Y-73443524D01*
X165313583Y-73439779D01*
X165343155Y-73417847D01*
X165348131Y-73414343D01*
X165521000Y-73298834D01*
X165521000Y-73130173D01*
X169019000Y-73130173D01*
X169050623Y-73113271D01*
X169056062Y-73110534D01*
X169089344Y-73094794D01*
X169094905Y-73092329D01*
X169304051Y-73005699D01*
X169309728Y-73003509D01*
X169344380Y-72991110D01*
X169350155Y-72989202D01*
X169397048Y-72974975D01*
X169402916Y-72973351D01*
X169438651Y-72964399D01*
X169444592Y-72963065D01*
X169666643Y-72918896D01*
X169672640Y-72917855D01*
X169709071Y-72912451D01*
X169715112Y-72911706D01*
X169763884Y-72906903D01*
X169769954Y-72906455D01*
X169806726Y-72904649D01*
X169812809Y-72904500D01*
X170039191Y-72904500D01*
X170045274Y-72904649D01*
X170082046Y-72906455D01*
X170088116Y-72906903D01*
X170136888Y-72911706D01*
X170142929Y-72912451D01*
X170179360Y-72917855D01*
X170185357Y-72918896D01*
X170407408Y-72963065D01*
X170413349Y-72964399D01*
X170449084Y-72973351D01*
X170454952Y-72974975D01*
X170501845Y-72989202D01*
X170507620Y-72991110D01*
X170521000Y-72995897D01*
X170521000Y-72845795D01*
X174019000Y-72845795D01*
X174100650Y-72958178D01*
X174110817Y-72974768D01*
X174196569Y-73143065D01*
X174204015Y-73161042D01*
X174262383Y-73340681D01*
X174266925Y-73359601D01*
X174293804Y-73529309D01*
X174310488Y-73539309D01*
X174315632Y-73542566D01*
X174503869Y-73668343D01*
X174508845Y-73671847D01*
X174538417Y-73693779D01*
X174543215Y-73697524D01*
X174581097Y-73728613D01*
X174585704Y-73732587D01*
X174612991Y-73757318D01*
X174617400Y-73761516D01*
X174777484Y-73921600D01*
X174781682Y-73926009D01*
X174806413Y-73953296D01*
X174810387Y-73957903D01*
X174841476Y-73995785D01*
X174845221Y-74000583D01*
X174867153Y-74030155D01*
X174870657Y-74035131D01*
X174971799Y-74186500D01*
X175521000Y-74186500D01*
X176519000Y-74186500D01*
X178021000Y-74186500D01*
X179019000Y-74186500D01*
X180521000Y-74186500D01*
X180521000Y-73976500D01*
X180331103Y-73976500D01*
X180326231Y-73976404D01*
X180296779Y-73975246D01*
X180291914Y-73974959D01*
X180252835Y-73971881D01*
X180247997Y-73971404D01*
X180218764Y-73967944D01*
X180213941Y-73967277D01*
X179965272Y-73927892D01*
X179960477Y-73927036D01*
X179931577Y-73921287D01*
X179926817Y-73920242D01*
X179888700Y-73911089D01*
X179883995Y-73909862D01*
X179855653Y-73901869D01*
X179850993Y-73900455D01*
X179611560Y-73822658D01*
X179606963Y-73821064D01*
X179579353Y-73810879D01*
X179574825Y-73809107D01*
X179538608Y-73794109D01*
X179534139Y-73792154D01*
X179507364Y-73779811D01*
X179502981Y-73777686D01*
X179278639Y-73663378D01*
X179274346Y-73661083D01*
X179248650Y-73646693D01*
X179244450Y-73644231D01*
X179211027Y-73623750D01*
X179206927Y-73621126D01*
X179182432Y-73604760D01*
X179178435Y-73601974D01*
X179019000Y-73486138D01*
X179019000Y-74186500D01*
X178021000Y-74186500D01*
X178021000Y-72684500D01*
X176519000Y-72684500D01*
X176519000Y-74186500D01*
X175521000Y-74186500D01*
X175521000Y-72684500D01*
X174941435Y-72684500D01*
X174865840Y-72696473D01*
X174846442Y-72698000D01*
X174657558Y-72698000D01*
X174638160Y-72696473D01*
X174562565Y-72684500D01*
X174019000Y-72684500D01*
X174019000Y-72845795D01*
X170521000Y-72845795D01*
X170521000Y-72684500D01*
X169019000Y-72684500D01*
X169019000Y-73130173D01*
X165521000Y-73130173D01*
X165521000Y-72684500D01*
X164019000Y-72684500D01*
X164019000Y-74186500D01*
X163021000Y-74186500D01*
X163021000Y-72684500D01*
X161519000Y-72684500D01*
X161519000Y-74186500D01*
X160521000Y-74186500D01*
X160521000Y-72684500D01*
X160106001Y-72684500D01*
X160078578Y-72700936D01*
X160073282Y-72703936D01*
X160030061Y-72727037D01*
X160024626Y-72729773D01*
X159991346Y-72745513D01*
X159985783Y-72747979D01*
X159767535Y-72838380D01*
X159761859Y-72840570D01*
X159727197Y-72852973D01*
X159721418Y-72854882D01*
X159674522Y-72869109D01*
X159668652Y-72870733D01*
X159632924Y-72879682D01*
X159626987Y-72881015D01*
X159395281Y-72927104D01*
X159389286Y-72928145D01*
X159352858Y-72933549D01*
X159346815Y-72934294D01*
X159298046Y-72939097D01*
X159291975Y-72939545D01*
X159255200Y-72941351D01*
X159249118Y-72941500D01*
X159019000Y-72941500D01*
X156934465Y-72941500D01*
X156948894Y-72906666D01*
X156949296Y-72904649D01*
X156980505Y-72747748D01*
X156983500Y-72732691D01*
X156983500Y-72555309D01*
X156983500Y-72555306D01*
X156983499Y-72555304D01*
X156948896Y-72381341D01*
X156948893Y-72381332D01*
X156881016Y-72217459D01*
X156881009Y-72217446D01*
X156782464Y-72069965D01*
X156782461Y-72069961D01*
X156657038Y-71944538D01*
X156657034Y-71944535D01*
X156509553Y-71845990D01*
X156509540Y-71845983D01*
X156345667Y-71778106D01*
X156345658Y-71778103D01*
X156171694Y-71743500D01*
X156171691Y-71743500D01*
X155994309Y-71743500D01*
X155994306Y-71743500D01*
X155820341Y-71778103D01*
X155820332Y-71778106D01*
X155656459Y-71845983D01*
X155656446Y-71845990D01*
X155508965Y-71944535D01*
X155508961Y-71944538D01*
X155383538Y-72069961D01*
X155383535Y-72069965D01*
X155284990Y-72217446D01*
X155284983Y-72217459D01*
X155217106Y-72381332D01*
X155217103Y-72381341D01*
X155182500Y-72555304D01*
X151518181Y-72555304D01*
X151453759Y-72458890D01*
X151432882Y-72392214D01*
X151451366Y-72324834D01*
X151453760Y-72321109D01*
X151547013Y-72181547D01*
X151614894Y-72017666D01*
X151621733Y-71983287D01*
X151649499Y-71843695D01*
X151649500Y-71843693D01*
X151649500Y-71686500D01*
X154019000Y-71686500D01*
X154439583Y-71686500D01*
X154441566Y-71683368D01*
X154567343Y-71495131D01*
X154570847Y-71490155D01*
X154592779Y-71460583D01*
X154596524Y-71455785D01*
X154627613Y-71417903D01*
X154631587Y-71413296D01*
X154656318Y-71386009D01*
X154660516Y-71381600D01*
X154820600Y-71221516D01*
X154825009Y-71217318D01*
X154852296Y-71192587D01*
X154856903Y-71188613D01*
X154894785Y-71157524D01*
X154899583Y-71153779D01*
X154929155Y-71131847D01*
X154934130Y-71128344D01*
X154941694Y-71123289D01*
X154900045Y-71041549D01*
X154892599Y-71023572D01*
X154852246Y-70899379D01*
X158180500Y-70899379D01*
X158180500Y-71086620D01*
X158217025Y-71270243D01*
X158217027Y-71270251D01*
X158288676Y-71443228D01*
X158288681Y-71443237D01*
X158392697Y-71598907D01*
X158392700Y-71598911D01*
X158525088Y-71731299D01*
X158525092Y-71731302D01*
X158680762Y-71835318D01*
X158680768Y-71835321D01*
X158680769Y-71835322D01*
X158853749Y-71906973D01*
X159037379Y-71943499D01*
X159037383Y-71943500D01*
X159037384Y-71943500D01*
X159224617Y-71943500D01*
X159224618Y-71943499D01*
X159408251Y-71906973D01*
X159581231Y-71835322D01*
X159736908Y-71731302D01*
X159869302Y-71598908D01*
X159973322Y-71443231D01*
X160044973Y-71270251D01*
X160081500Y-71086616D01*
X160081500Y-70899384D01*
X160044973Y-70715749D01*
X160042236Y-70709142D01*
X161519000Y-70709142D01*
X161519000Y-71686500D01*
X163021000Y-71686500D01*
X164019000Y-71686500D01*
X165521000Y-71686500D01*
X165521000Y-71444622D01*
X169019000Y-71444622D01*
X169019000Y-71686500D01*
X170521000Y-71686500D01*
X176519000Y-71686500D01*
X178021000Y-71686500D01*
X178021000Y-70184500D01*
X176519000Y-70184500D01*
X176519000Y-71686500D01*
X170521000Y-71686500D01*
X170521000Y-70184500D01*
X169461500Y-70184500D01*
X169461500Y-70319118D01*
X169461351Y-70325200D01*
X169459545Y-70361975D01*
X169459097Y-70368046D01*
X169454294Y-70416815D01*
X169453549Y-70422858D01*
X169448145Y-70459286D01*
X169447104Y-70465281D01*
X169401015Y-70696987D01*
X169399682Y-70702924D01*
X169390733Y-70738652D01*
X169389109Y-70744522D01*
X169374882Y-70791418D01*
X169372973Y-70797197D01*
X169360570Y-70831859D01*
X169358380Y-70837535D01*
X169267979Y-71055783D01*
X169265513Y-71061346D01*
X169249773Y-71094626D01*
X169247037Y-71100061D01*
X169223936Y-71143282D01*
X169220936Y-71148578D01*
X169202001Y-71180170D01*
X169198744Y-71185314D01*
X169067496Y-71381740D01*
X169063993Y-71386714D01*
X169042060Y-71416288D01*
X169038314Y-71421088D01*
X169019000Y-71444622D01*
X165521000Y-71444622D01*
X165521000Y-70184500D01*
X164019000Y-70184500D01*
X164019000Y-71686500D01*
X163021000Y-71686500D01*
X163021000Y-70184500D01*
X162078649Y-70184500D01*
X162043657Y-70236869D01*
X162040153Y-70241845D01*
X162018221Y-70271417D01*
X162014476Y-70276215D01*
X161983387Y-70314097D01*
X161979413Y-70318704D01*
X161954682Y-70345991D01*
X161950484Y-70350400D01*
X161790400Y-70510484D01*
X161785991Y-70514682D01*
X161758704Y-70539413D01*
X161754097Y-70543387D01*
X161716215Y-70574476D01*
X161711417Y-70578221D01*
X161681845Y-70600153D01*
X161676869Y-70603657D01*
X161519000Y-70709142D01*
X160042236Y-70709142D01*
X159986456Y-70574476D01*
X159973323Y-70542771D01*
X159973318Y-70542762D01*
X159892675Y-70422072D01*
X159871797Y-70355395D01*
X159890281Y-70288014D01*
X159926885Y-70250080D01*
X159990908Y-70207302D01*
X160090831Y-70107379D01*
X166562500Y-70107379D01*
X166562500Y-70294620D01*
X166599025Y-70478243D01*
X166599027Y-70478251D01*
X166670676Y-70651228D01*
X166670681Y-70651237D01*
X166774697Y-70806907D01*
X166774700Y-70806911D01*
X166907088Y-70939299D01*
X166907092Y-70939302D01*
X167062762Y-71043318D01*
X167062768Y-71043321D01*
X167062769Y-71043322D01*
X167235749Y-71114973D01*
X167378069Y-71143282D01*
X167419379Y-71151499D01*
X167419383Y-71151500D01*
X167419384Y-71151500D01*
X167606617Y-71151500D01*
X167606618Y-71151499D01*
X167790251Y-71114973D01*
X167963231Y-71043322D01*
X168118908Y-70939302D01*
X168251302Y-70806908D01*
X168355322Y-70651231D01*
X168426973Y-70478251D01*
X168463500Y-70294616D01*
X168463500Y-70107384D01*
X168426973Y-69923749D01*
X168355322Y-69750769D01*
X168355321Y-69750768D01*
X168355318Y-69750762D01*
X168251302Y-69595092D01*
X168251299Y-69595088D01*
X168118911Y-69462700D01*
X168118907Y-69462697D01*
X167963237Y-69358681D01*
X167963228Y-69358676D01*
X167790251Y-69287027D01*
X167790243Y-69287025D01*
X167606620Y-69250500D01*
X167606616Y-69250500D01*
X167419384Y-69250500D01*
X167419379Y-69250500D01*
X167235756Y-69287025D01*
X167235748Y-69287027D01*
X167062771Y-69358676D01*
X167062762Y-69358681D01*
X166907092Y-69462697D01*
X166907088Y-69462700D01*
X166774700Y-69595088D01*
X166774697Y-69595092D01*
X166670681Y-69750762D01*
X166670676Y-69750771D01*
X166599027Y-69923748D01*
X166599025Y-69923756D01*
X166562500Y-70107379D01*
X160090831Y-70107379D01*
X160123302Y-70074908D01*
X160165306Y-70012042D01*
X160218914Y-69967239D01*
X160288239Y-69958530D01*
X160292578Y-69959313D01*
X160335204Y-69967792D01*
X160439306Y-69988500D01*
X160439309Y-69988500D01*
X160616693Y-69988500D01*
X160616694Y-69988499D01*
X160674682Y-69976964D01*
X160790658Y-69953896D01*
X160790661Y-69953894D01*
X160790666Y-69953894D01*
X160954547Y-69886013D01*
X161102035Y-69787464D01*
X161227464Y-69662035D01*
X161326013Y-69514547D01*
X161393894Y-69350666D01*
X161426549Y-69186500D01*
X164019000Y-69186500D01*
X165521000Y-69186500D01*
X165521000Y-68957377D01*
X169019000Y-68957377D01*
X169038314Y-68980912D01*
X169042060Y-68985712D01*
X169063993Y-69015286D01*
X169067496Y-69020260D01*
X169178574Y-69186500D01*
X170521000Y-69186500D01*
X171519000Y-69186500D01*
X173021000Y-69186500D01*
X173021000Y-68363162D01*
X173012185Y-68362294D01*
X173006142Y-68361549D01*
X172969714Y-68356145D01*
X172963719Y-68355104D01*
X172732013Y-68309015D01*
X172726076Y-68307682D01*
X172690348Y-68298733D01*
X172684478Y-68297109D01*
X172637582Y-68282882D01*
X172631803Y-68280973D01*
X172597141Y-68268570D01*
X172591465Y-68266380D01*
X172436998Y-68202398D01*
X174019000Y-68202398D01*
X174019000Y-69186500D01*
X175521000Y-69186500D01*
X176519000Y-69186500D01*
X178021000Y-69186500D01*
X178021000Y-67684500D01*
X176519000Y-67684500D01*
X176519000Y-69186500D01*
X175521000Y-69186500D01*
X175521000Y-67684500D01*
X174717414Y-67684500D01*
X174693520Y-67710864D01*
X174689322Y-67715273D01*
X174522273Y-67882322D01*
X174517864Y-67886520D01*
X174490577Y-67911251D01*
X174485970Y-67915225D01*
X174448088Y-67946314D01*
X174443288Y-67950060D01*
X174413714Y-67971993D01*
X174408740Y-67975496D01*
X174212314Y-68106744D01*
X174207170Y-68110001D01*
X174175578Y-68128936D01*
X174170282Y-68131936D01*
X174127061Y-68155037D01*
X174121626Y-68157773D01*
X174088346Y-68173513D01*
X174082782Y-68175979D01*
X174019000Y-68202398D01*
X172436998Y-68202398D01*
X172373217Y-68175979D01*
X172367654Y-68173513D01*
X172334374Y-68157773D01*
X172328939Y-68155037D01*
X172285718Y-68131936D01*
X172280422Y-68128936D01*
X172248830Y-68110001D01*
X172243686Y-68106744D01*
X172047260Y-67975496D01*
X172042286Y-67971993D01*
X172012712Y-67950060D01*
X172007912Y-67946314D01*
X171970030Y-67915225D01*
X171965423Y-67911251D01*
X171938136Y-67886520D01*
X171933727Y-67882322D01*
X171766678Y-67715273D01*
X171762480Y-67710864D01*
X171738586Y-67684500D01*
X171519000Y-67684500D01*
X171519000Y-69186500D01*
X170521000Y-69186500D01*
X170521000Y-67684500D01*
X169019000Y-67684500D01*
X169019000Y-68957377D01*
X165521000Y-68957377D01*
X165521000Y-68521727D01*
X166519000Y-68521727D01*
X166528686Y-68515256D01*
X166533830Y-68511999D01*
X166565422Y-68493064D01*
X166570718Y-68490064D01*
X166613939Y-68466963D01*
X166619374Y-68464227D01*
X166652654Y-68448487D01*
X166658217Y-68446021D01*
X166876465Y-68355620D01*
X166882141Y-68353430D01*
X166916803Y-68341027D01*
X166922582Y-68339118D01*
X166969478Y-68324891D01*
X166975348Y-68323267D01*
X167011076Y-68314318D01*
X167017013Y-68312985D01*
X167248719Y-68266896D01*
X167254714Y-68265855D01*
X167291142Y-68260451D01*
X167297185Y-68259706D01*
X167345954Y-68254903D01*
X167352025Y-68254455D01*
X167388800Y-68252649D01*
X167394882Y-68252500D01*
X167631118Y-68252500D01*
X167637200Y-68252649D01*
X167673975Y-68254455D01*
X167680046Y-68254903D01*
X167728815Y-68259706D01*
X167734858Y-68260451D01*
X167771286Y-68265855D01*
X167777281Y-68266896D01*
X168008987Y-68312985D01*
X168014924Y-68314318D01*
X168021000Y-68315839D01*
X168021000Y-67684500D01*
X166519000Y-67684500D01*
X166519000Y-68521727D01*
X165521000Y-68521727D01*
X165521000Y-67684500D01*
X164019000Y-67684500D01*
X164019000Y-69186500D01*
X161426549Y-69186500D01*
X161428500Y-69176691D01*
X161428500Y-68999309D01*
X161428500Y-68999306D01*
X161428499Y-68999304D01*
X161393896Y-68825341D01*
X161393893Y-68825332D01*
X161326016Y-68661459D01*
X161326012Y-68661452D01*
X161263162Y-68567391D01*
X161242285Y-68500715D01*
X161260769Y-68433335D01*
X161312748Y-68386644D01*
X161366265Y-68374501D01*
X161472778Y-68374501D01*
X161472779Y-68374500D01*
X161537890Y-68361549D01*
X161646743Y-68339897D01*
X161646746Y-68339895D01*
X161646751Y-68339895D01*
X161810632Y-68272014D01*
X161958120Y-68173465D01*
X162083549Y-68048036D01*
X162182098Y-67900548D01*
X162249979Y-67736667D01*
X162250248Y-67735319D01*
X162284584Y-67562696D01*
X162284585Y-67562694D01*
X162284585Y-67385307D01*
X162284584Y-67385305D01*
X162249981Y-67211342D01*
X162249978Y-67211333D01*
X162182101Y-67047460D01*
X162182094Y-67047447D01*
X162083549Y-66899966D01*
X162083546Y-66899962D01*
X161958123Y-66774539D01*
X161958119Y-66774536D01*
X161810638Y-66675991D01*
X161810625Y-66675984D01*
X161646752Y-66608107D01*
X161646743Y-66608104D01*
X161472779Y-66573501D01*
X161472776Y-66573501D01*
X161295394Y-66573501D01*
X161295391Y-66573501D01*
X161121426Y-66608104D01*
X161121417Y-66608107D01*
X160957544Y-66675984D01*
X160957531Y-66675991D01*
X160810050Y-66774536D01*
X160810046Y-66774539D01*
X160684623Y-66899962D01*
X160684620Y-66899966D01*
X160586075Y-67047447D01*
X160586068Y-67047460D01*
X160518191Y-67211333D01*
X160518189Y-67211341D01*
X160505191Y-67276686D01*
X160472806Y-67338597D01*
X160412090Y-67373171D01*
X160342320Y-67369430D01*
X160314683Y-67355596D01*
X160192552Y-67273990D01*
X160192540Y-67273983D01*
X160028667Y-67206106D01*
X160028658Y-67206103D01*
X159854694Y-67171500D01*
X159854691Y-67171500D01*
X159677309Y-67171500D01*
X159677306Y-67171500D01*
X159503341Y-67206103D01*
X159503332Y-67206106D01*
X159339459Y-67273983D01*
X159339446Y-67273990D01*
X159191965Y-67372535D01*
X159191961Y-67372538D01*
X159066538Y-67497961D01*
X159066535Y-67497965D01*
X158967990Y-67645446D01*
X158967983Y-67645459D01*
X158900106Y-67809332D01*
X158900103Y-67809341D01*
X158865500Y-67983304D01*
X158865500Y-68160695D01*
X158900103Y-68334658D01*
X158900106Y-68334667D01*
X158963411Y-68487501D01*
X158970880Y-68556971D01*
X158939604Y-68619450D01*
X158917741Y-68638055D01*
X158779092Y-68730697D01*
X158779088Y-68730700D01*
X158646700Y-68863088D01*
X158646697Y-68863092D01*
X158542681Y-69018762D01*
X158542676Y-69018771D01*
X158471027Y-69191748D01*
X158471025Y-69191756D01*
X158434500Y-69375379D01*
X158434500Y-69562620D01*
X158471025Y-69746243D01*
X158471027Y-69746251D01*
X158542676Y-69919228D01*
X158542681Y-69919237D01*
X158623324Y-70039927D01*
X158644202Y-70106605D01*
X158625717Y-70173985D01*
X158589113Y-70211920D01*
X158525092Y-70254697D01*
X158525088Y-70254700D01*
X158392700Y-70387088D01*
X158392697Y-70387092D01*
X158288681Y-70542762D01*
X158288676Y-70542771D01*
X158217027Y-70715748D01*
X158217025Y-70715756D01*
X158180500Y-70899379D01*
X154852246Y-70899379D01*
X154834231Y-70843933D01*
X154829689Y-70825013D01*
X154800141Y-70638454D01*
X154798614Y-70619056D01*
X154798614Y-70430172D01*
X154800141Y-70410774D01*
X154829689Y-70224215D01*
X154834231Y-70205295D01*
X154840988Y-70184500D01*
X154019000Y-70184500D01*
X154019000Y-71686500D01*
X151649500Y-71686500D01*
X151649500Y-71666306D01*
X151630217Y-71569369D01*
X151636444Y-71499778D01*
X151679306Y-71444600D01*
X151727643Y-71423560D01*
X151734648Y-71422166D01*
X151851251Y-71398973D01*
X152024231Y-71327322D01*
X152179908Y-71223302D01*
X152312302Y-71090908D01*
X152416322Y-70935231D01*
X152487973Y-70762251D01*
X152524500Y-70578616D01*
X152524500Y-70391384D01*
X152487973Y-70207749D01*
X152416322Y-70034769D01*
X152416321Y-70034768D01*
X152416318Y-70034762D01*
X152312302Y-69879092D01*
X152312299Y-69879088D01*
X152179911Y-69746700D01*
X152179907Y-69746697D01*
X152024237Y-69642681D01*
X152024228Y-69642676D01*
X151851251Y-69571027D01*
X151851243Y-69571025D01*
X151667620Y-69534500D01*
X151667616Y-69534500D01*
X151480384Y-69534500D01*
X151480379Y-69534500D01*
X151296756Y-69571025D01*
X151296748Y-69571027D01*
X151123771Y-69642676D01*
X151123762Y-69642681D01*
X150968092Y-69746697D01*
X150968088Y-69746700D01*
X150835700Y-69879088D01*
X150835697Y-69879092D01*
X150731681Y-70034762D01*
X150731676Y-70034771D01*
X150660027Y-70207748D01*
X150660025Y-70207756D01*
X150623500Y-70391379D01*
X150623500Y-70578620D01*
X150653497Y-70729425D01*
X150647270Y-70799017D01*
X150604407Y-70854194D01*
X150556073Y-70875233D01*
X150486338Y-70889104D01*
X150486332Y-70889106D01*
X150322459Y-70956983D01*
X150322446Y-70956990D01*
X150174965Y-71055535D01*
X150174961Y-71055538D01*
X150049538Y-71180961D01*
X150049535Y-71180965D01*
X149950990Y-71328446D01*
X149950983Y-71328459D01*
X149883106Y-71492332D01*
X149883103Y-71492341D01*
X149848500Y-71666304D01*
X145521000Y-71666304D01*
X145521000Y-70612459D01*
X146519000Y-70612459D01*
X146676065Y-70532431D01*
X146694042Y-70524985D01*
X146873681Y-70466617D01*
X146892601Y-70462075D01*
X147079160Y-70432527D01*
X147098558Y-70431000D01*
X147287442Y-70431000D01*
X147306840Y-70432527D01*
X147493399Y-70462075D01*
X147512319Y-70466617D01*
X147691958Y-70524985D01*
X147709935Y-70532431D01*
X147878232Y-70618183D01*
X147894822Y-70628350D01*
X148021000Y-70720023D01*
X148021000Y-70184500D01*
X146519000Y-70184500D01*
X146519000Y-70612459D01*
X145521000Y-70612459D01*
X145521000Y-70184500D01*
X144019000Y-70184500D01*
X144019000Y-71686500D01*
X142942162Y-71686500D01*
X142922246Y-71560757D01*
X142856557Y-71358588D01*
X142760051Y-71169184D01*
X142760049Y-71169181D01*
X142760048Y-71169179D01*
X142635109Y-70997213D01*
X142521181Y-70883285D01*
X142487696Y-70821962D01*
X142492680Y-70752270D01*
X142534552Y-70696337D01*
X142565529Y-70679422D01*
X142697086Y-70630354D01*
X142697093Y-70630350D01*
X142812187Y-70544190D01*
X142812190Y-70544187D01*
X142898350Y-70429093D01*
X142898354Y-70429086D01*
X142948596Y-70294379D01*
X142948598Y-70294372D01*
X142954999Y-70234844D01*
X142955000Y-70234827D01*
X142955000Y-69587000D01*
X142038012Y-69587000D01*
X142070925Y-69529993D01*
X142105000Y-69402826D01*
X142105000Y-69271174D01*
X142082311Y-69186500D01*
X144019000Y-69186500D01*
X145521000Y-69186500D01*
X145521000Y-67689129D01*
X146519000Y-67689129D01*
X146519000Y-69186500D01*
X148021000Y-69186500D01*
X149019000Y-69186500D01*
X150116905Y-69186500D01*
X150279727Y-69023678D01*
X150284136Y-69019480D01*
X150311423Y-68994749D01*
X150316030Y-68990775D01*
X150353912Y-68959686D01*
X150358712Y-68955940D01*
X150388286Y-68934007D01*
X150393260Y-68930504D01*
X150521000Y-68845150D01*
X150521000Y-68578509D01*
X154019000Y-68578509D01*
X154019000Y-69186500D01*
X155521000Y-69186500D01*
X156519000Y-69186500D01*
X157454520Y-69186500D01*
X157496985Y-68973013D01*
X157498318Y-68967076D01*
X157507267Y-68931348D01*
X157508891Y-68925478D01*
X157523118Y-68878582D01*
X157525027Y-68872803D01*
X157537430Y-68838141D01*
X157539620Y-68832465D01*
X157630021Y-68614217D01*
X157632487Y-68608654D01*
X157648227Y-68575374D01*
X157650963Y-68569939D01*
X157674064Y-68526718D01*
X157677064Y-68521422D01*
X157695999Y-68489830D01*
X157699256Y-68484686D01*
X157830504Y-68288260D01*
X157834007Y-68283286D01*
X157855940Y-68253712D01*
X157859686Y-68248912D01*
X157870109Y-68236211D01*
X157869903Y-68234116D01*
X157869455Y-68228046D01*
X157867649Y-68191274D01*
X157867500Y-68185191D01*
X157867500Y-67958809D01*
X157867649Y-67952726D01*
X157869455Y-67915954D01*
X157869903Y-67909884D01*
X157874706Y-67861112D01*
X157875451Y-67855071D01*
X157880855Y-67818640D01*
X157881896Y-67812643D01*
X157907385Y-67684500D01*
X156519000Y-67684500D01*
X156519000Y-69186500D01*
X155521000Y-69186500D01*
X155521000Y-67684500D01*
X154914370Y-67684500D01*
X154910425Y-67694025D01*
X154907960Y-67699586D01*
X154892220Y-67732868D01*
X154889483Y-67738307D01*
X154866381Y-67781529D01*
X154863381Y-67786824D01*
X154844445Y-67818418D01*
X154841188Y-67823562D01*
X154715411Y-68011799D01*
X154711907Y-68016775D01*
X154689975Y-68046347D01*
X154686230Y-68051145D01*
X154655141Y-68089027D01*
X154651167Y-68093634D01*
X154626436Y-68120921D01*
X154622238Y-68125330D01*
X154462154Y-68285414D01*
X154457745Y-68289612D01*
X154430458Y-68314343D01*
X154425851Y-68318317D01*
X154387969Y-68349406D01*
X154383171Y-68353151D01*
X154353599Y-68375083D01*
X154348623Y-68378587D01*
X154160386Y-68504364D01*
X154155242Y-68507621D01*
X154123648Y-68526557D01*
X154118353Y-68529557D01*
X154075131Y-68552659D01*
X154069692Y-68555396D01*
X154036410Y-68571136D01*
X154030848Y-68573602D01*
X154019000Y-68578509D01*
X150521000Y-68578509D01*
X150521000Y-67684500D01*
X149019000Y-67684500D01*
X149019000Y-69186500D01*
X148021000Y-69186500D01*
X148021000Y-67684500D01*
X147382275Y-67684500D01*
X147203281Y-67720104D01*
X147197286Y-67721145D01*
X147160858Y-67726549D01*
X147154815Y-67727294D01*
X147106046Y-67732097D01*
X147099975Y-67732545D01*
X147063200Y-67734351D01*
X147057118Y-67734500D01*
X146820882Y-67734500D01*
X146814800Y-67734351D01*
X146778025Y-67732545D01*
X146771954Y-67732097D01*
X146723185Y-67727294D01*
X146717142Y-67726549D01*
X146680714Y-67721145D01*
X146674719Y-67720104D01*
X146519000Y-67689129D01*
X145521000Y-67689129D01*
X145521000Y-67684500D01*
X144019000Y-67684500D01*
X144019000Y-69186500D01*
X142082311Y-69186500D01*
X142070925Y-69144007D01*
X142038012Y-69087000D01*
X142955000Y-69087000D01*
X142955000Y-68439172D01*
X142954999Y-68439155D01*
X142948598Y-68379627D01*
X142948596Y-68379620D01*
X142898354Y-68244913D01*
X142898350Y-68244906D01*
X142812190Y-68129812D01*
X142812187Y-68129809D01*
X142697093Y-68043649D01*
X142697086Y-68043645D01*
X142562379Y-67993403D01*
X142562372Y-67993401D01*
X142502844Y-67987000D01*
X141855000Y-67987000D01*
X141855000Y-68903988D01*
X141797993Y-68871075D01*
X141670826Y-68837000D01*
X141539174Y-68837000D01*
X141412007Y-68871075D01*
X141355000Y-68903988D01*
X141355000Y-67987000D01*
X140707155Y-67987000D01*
X140647627Y-67993401D01*
X140647620Y-67993403D01*
X140512913Y-68043645D01*
X140512906Y-68043649D01*
X140397812Y-68129809D01*
X140397809Y-68129812D01*
X140311649Y-68244906D01*
X140311645Y-68244913D01*
X140261403Y-68379620D01*
X140261401Y-68379627D01*
X140255000Y-68439155D01*
X140255000Y-69087000D01*
X141171988Y-69087000D01*
X141139075Y-69144007D01*
X141105000Y-69271174D01*
X141105000Y-69402826D01*
X141139075Y-69529993D01*
X141171988Y-69587000D01*
X140255000Y-69587000D01*
X140255000Y-70234844D01*
X140261401Y-70294372D01*
X140261403Y-70294379D01*
X140311645Y-70429086D01*
X140311649Y-70429093D01*
X140397809Y-70544187D01*
X140397812Y-70544190D01*
X140512906Y-70630350D01*
X140512913Y-70630354D01*
X140644470Y-70679422D01*
X140700404Y-70721293D01*
X140724821Y-70786758D01*
X140709969Y-70855031D01*
X140688819Y-70883285D01*
X140574889Y-70997215D01*
X140449951Y-71169179D01*
X140353444Y-71358585D01*
X140287753Y-71560760D01*
X140254500Y-71770713D01*
X136271000Y-71770713D01*
X136271000Y-71686500D01*
X137395000Y-71686500D01*
X138021000Y-71686500D01*
X139019000Y-71686500D01*
X139260043Y-71686500D01*
X139261119Y-71672835D01*
X139261596Y-71667997D01*
X139265056Y-71638764D01*
X139265723Y-71633941D01*
X139305108Y-71385272D01*
X139305964Y-71380477D01*
X139311713Y-71351577D01*
X139312758Y-71346817D01*
X139321911Y-71308700D01*
X139323138Y-71303995D01*
X139331131Y-71275653D01*
X139332545Y-71270993D01*
X139410342Y-71031560D01*
X139411936Y-71026963D01*
X139422121Y-70999353D01*
X139423893Y-70994825D01*
X139438891Y-70958608D01*
X139440846Y-70954139D01*
X139450188Y-70933871D01*
X139418638Y-70876091D01*
X139414677Y-70868177D01*
X139392419Y-70819441D01*
X139389030Y-70811261D01*
X139315421Y-70613904D01*
X139312942Y-70606564D01*
X139299332Y-70561695D01*
X139297315Y-70554212D01*
X139282972Y-70493501D01*
X139281428Y-70485916D01*
X139273522Y-70439738D01*
X139272455Y-70432069D01*
X139261289Y-70328217D01*
X139260977Y-70324905D01*
X139259364Y-70304856D01*
X139259142Y-70301542D01*
X139257713Y-70274855D01*
X139257580Y-70271539D01*
X139257044Y-70251491D01*
X139257000Y-70248177D01*
X139257000Y-70184500D01*
X139019000Y-70184500D01*
X139019000Y-71686500D01*
X138021000Y-71686500D01*
X138021000Y-70184500D01*
X137395000Y-70184500D01*
X137395000Y-71686500D01*
X136271000Y-71686500D01*
X136271000Y-69186500D01*
X137395000Y-69186500D01*
X138021000Y-69186500D01*
X139019000Y-69186500D01*
X139257000Y-69186500D01*
X139257000Y-68425823D01*
X139257044Y-68422509D01*
X139257580Y-68402461D01*
X139257713Y-68399145D01*
X139259142Y-68372458D01*
X139259364Y-68369144D01*
X139260977Y-68349095D01*
X139261289Y-68345783D01*
X139272455Y-68241931D01*
X139273522Y-68234262D01*
X139281428Y-68188084D01*
X139282972Y-68180499D01*
X139297315Y-68119788D01*
X139299332Y-68112305D01*
X139312942Y-68067436D01*
X139315421Y-68060096D01*
X139389030Y-67862739D01*
X139392419Y-67854559D01*
X139414677Y-67805823D01*
X139418638Y-67797909D01*
X139452815Y-67735319D01*
X139457333Y-67727705D01*
X139485100Y-67684500D01*
X139019000Y-67684500D01*
X139019000Y-69186500D01*
X138021000Y-69186500D01*
X138021000Y-67684500D01*
X137395000Y-67684500D01*
X137395000Y-69186500D01*
X136271000Y-69186500D01*
X136271000Y-66774234D01*
X152299254Y-66774234D01*
X152299254Y-66951625D01*
X152333857Y-67125588D01*
X152333860Y-67125597D01*
X152401737Y-67289470D01*
X152401744Y-67289483D01*
X152500289Y-67436964D01*
X152500292Y-67436968D01*
X152625715Y-67562391D01*
X152625719Y-67562394D01*
X152773200Y-67660939D01*
X152773213Y-67660946D01*
X152893728Y-67710864D01*
X152937088Y-67728824D01*
X152937090Y-67728824D01*
X152937095Y-67728826D01*
X153111058Y-67763429D01*
X153111061Y-67763430D01*
X153111063Y-67763430D01*
X153288447Y-67763430D01*
X153288448Y-67763429D01*
X153346436Y-67751894D01*
X153462412Y-67728826D01*
X153462415Y-67728824D01*
X153462420Y-67728824D01*
X153620683Y-67663270D01*
X153626294Y-67660946D01*
X153626294Y-67660945D01*
X153626301Y-67660943D01*
X153773789Y-67562394D01*
X153899218Y-67436965D01*
X153997767Y-67289477D01*
X154065648Y-67125596D01*
X154100254Y-66951621D01*
X154100254Y-66774239D01*
X154100254Y-66774236D01*
X154100253Y-66774234D01*
X154065650Y-66600271D01*
X154065647Y-66600262D01*
X154054562Y-66573501D01*
X154034183Y-66524299D01*
X153997770Y-66436389D01*
X153997763Y-66436376D01*
X153899218Y-66288895D01*
X153899215Y-66288891D01*
X153773792Y-66163468D01*
X153773788Y-66163465D01*
X153626307Y-66064920D01*
X153626294Y-66064913D01*
X153462421Y-65997036D01*
X153462412Y-65997033D01*
X153288448Y-65962430D01*
X153288445Y-65962430D01*
X153111063Y-65962430D01*
X153111060Y-65962430D01*
X152937095Y-65997033D01*
X152937086Y-65997036D01*
X152773213Y-66064913D01*
X152773200Y-66064920D01*
X152625719Y-66163465D01*
X152625715Y-66163468D01*
X152500292Y-66288891D01*
X152500289Y-66288895D01*
X152401744Y-66436376D01*
X152401737Y-66436389D01*
X152333860Y-66600262D01*
X152333857Y-66600271D01*
X152299254Y-66774234D01*
X136271000Y-66774234D01*
X136271000Y-66686500D01*
X137395000Y-66686500D01*
X138021000Y-66686500D01*
X139019000Y-66686500D01*
X140521000Y-66686500D01*
X140521000Y-65767000D01*
X139019000Y-65767000D01*
X139019000Y-66686500D01*
X138021000Y-66686500D01*
X138021000Y-65767000D01*
X137395000Y-65767000D01*
X137395000Y-66686500D01*
X136271000Y-66686500D01*
X136271000Y-65737415D01*
X141519000Y-65737415D01*
X141519000Y-66686500D01*
X143021000Y-66686500D01*
X144019000Y-66686500D01*
X145205732Y-66686500D01*
X145204963Y-66685061D01*
X145202227Y-66679626D01*
X145186487Y-66646346D01*
X145184021Y-66640783D01*
X145093620Y-66422535D01*
X145091430Y-66416859D01*
X145079027Y-66382197D01*
X145077118Y-66376418D01*
X145062891Y-66329522D01*
X145061267Y-66323652D01*
X145052318Y-66287924D01*
X145050985Y-66281987D01*
X145004896Y-66050281D01*
X145003855Y-66044286D01*
X144998451Y-66007858D01*
X144997706Y-66001815D01*
X144992903Y-65953046D01*
X144992455Y-65946975D01*
X144990649Y-65910200D01*
X144990500Y-65904118D01*
X144990500Y-65692379D01*
X145988500Y-65692379D01*
X145988500Y-65879620D01*
X146025025Y-66063243D01*
X146025027Y-66063251D01*
X146096676Y-66236228D01*
X146096681Y-66236237D01*
X146200697Y-66391907D01*
X146200700Y-66391911D01*
X146333088Y-66524299D01*
X146333092Y-66524302D01*
X146488762Y-66628318D01*
X146488768Y-66628321D01*
X146488769Y-66628322D01*
X146661749Y-66699973D01*
X146845379Y-66736499D01*
X146845383Y-66736500D01*
X146845384Y-66736500D01*
X147032617Y-66736500D01*
X147032618Y-66736499D01*
X147216251Y-66699973D01*
X147248778Y-66686500D01*
X149019000Y-66686500D01*
X150521000Y-66686500D01*
X150521000Y-66404906D01*
X150495640Y-66401145D01*
X150489643Y-66400104D01*
X150267592Y-66355935D01*
X150261651Y-66354601D01*
X150225916Y-66345649D01*
X150220048Y-66344025D01*
X150173155Y-66329798D01*
X150167380Y-66327890D01*
X150132728Y-66315491D01*
X150127051Y-66313301D01*
X149917905Y-66226671D01*
X149912344Y-66224206D01*
X149879062Y-66208466D01*
X149873623Y-66205729D01*
X149830401Y-66182627D01*
X149825106Y-66179627D01*
X149793512Y-66160691D01*
X149788368Y-66157434D01*
X149600131Y-66031657D01*
X149595155Y-66028153D01*
X149565583Y-66006221D01*
X149560785Y-66002476D01*
X149522903Y-65971387D01*
X149518296Y-65967413D01*
X149491009Y-65942682D01*
X149486600Y-65938484D01*
X149326516Y-65778400D01*
X149322318Y-65773991D01*
X149297587Y-65746704D01*
X149293613Y-65742097D01*
X149262524Y-65704215D01*
X149258779Y-65699417D01*
X149236847Y-65669845D01*
X149233343Y-65664869D01*
X149107566Y-65476632D01*
X149104309Y-65471488D01*
X149085373Y-65439894D01*
X149082373Y-65434599D01*
X149059271Y-65391377D01*
X149056534Y-65385938D01*
X149040794Y-65352656D01*
X149038329Y-65347095D01*
X149019000Y-65300430D01*
X149019000Y-66686500D01*
X147248778Y-66686500D01*
X147389231Y-66628322D01*
X147544908Y-66524302D01*
X147677302Y-66391908D01*
X147781322Y-66236231D01*
X147852973Y-66063251D01*
X147889500Y-65879616D01*
X147889500Y-65692384D01*
X147852973Y-65508749D01*
X147786070Y-65347231D01*
X147781323Y-65335771D01*
X147781318Y-65335762D01*
X147677302Y-65180092D01*
X147677299Y-65180088D01*
X147544911Y-65047700D01*
X147544907Y-65047697D01*
X147389237Y-64943681D01*
X147389228Y-64943676D01*
X147216251Y-64872027D01*
X147216243Y-64872025D01*
X147032620Y-64835500D01*
X147032616Y-64835500D01*
X146845384Y-64835500D01*
X146845379Y-64835500D01*
X146661756Y-64872025D01*
X146661748Y-64872027D01*
X146488771Y-64943676D01*
X146488762Y-64943681D01*
X146333092Y-65047697D01*
X146333088Y-65047700D01*
X146200700Y-65180088D01*
X146200697Y-65180092D01*
X146096681Y-65335762D01*
X146096676Y-65335771D01*
X146025027Y-65508748D01*
X146025025Y-65508756D01*
X145988500Y-65692379D01*
X144990500Y-65692379D01*
X144990500Y-65667882D01*
X144990649Y-65661800D01*
X144992455Y-65625025D01*
X144992903Y-65618954D01*
X144997706Y-65570185D01*
X144998451Y-65564142D01*
X145003855Y-65527714D01*
X145004896Y-65521719D01*
X145050985Y-65290013D01*
X145052318Y-65284076D01*
X145061267Y-65248348D01*
X145062891Y-65242478D01*
X145077118Y-65195582D01*
X145079027Y-65189803D01*
X145080925Y-65184500D01*
X144019000Y-65184500D01*
X144019000Y-66686500D01*
X143021000Y-66686500D01*
X143021000Y-65184500D01*
X142272075Y-65184500D01*
X141878135Y-65578440D01*
X141837907Y-65605320D01*
X141519000Y-65737415D01*
X136271000Y-65737415D01*
X136271000Y-64767000D01*
X136290685Y-64699961D01*
X136343489Y-64654206D01*
X136395000Y-64643000D01*
X141224000Y-64643000D01*
X141351000Y-64516000D01*
X141351000Y-64427304D01*
X149848500Y-64427304D01*
X149848500Y-64604695D01*
X149883103Y-64778658D01*
X149883106Y-64778667D01*
X149950983Y-64942540D01*
X149950990Y-64942553D01*
X150049535Y-65090034D01*
X150049538Y-65090038D01*
X150174961Y-65215461D01*
X150174965Y-65215464D01*
X150322446Y-65314009D01*
X150322459Y-65314016D01*
X150413245Y-65351620D01*
X150486334Y-65381894D01*
X150486336Y-65381894D01*
X150486341Y-65381896D01*
X150660304Y-65416499D01*
X150660307Y-65416500D01*
X150660309Y-65416500D01*
X150837693Y-65416500D01*
X150837694Y-65416499D01*
X150928183Y-65398500D01*
X154414832Y-65398500D01*
X154425851Y-65407543D01*
X154430458Y-65411517D01*
X154457745Y-65436248D01*
X154462154Y-65440446D01*
X154622238Y-65600530D01*
X154626436Y-65604939D01*
X154651167Y-65632226D01*
X154655141Y-65636833D01*
X154686230Y-65674715D01*
X154689975Y-65679513D01*
X154711907Y-65709085D01*
X154715411Y-65714061D01*
X154841188Y-65902298D01*
X154844445Y-65907442D01*
X154863381Y-65939036D01*
X154866381Y-65944331D01*
X154889483Y-65987553D01*
X154892220Y-65992992D01*
X154907960Y-66026274D01*
X154910425Y-66031835D01*
X154997055Y-66240981D01*
X154999245Y-66246658D01*
X155011644Y-66281310D01*
X155013552Y-66287085D01*
X155027779Y-66333978D01*
X155029403Y-66339846D01*
X155038355Y-66375581D01*
X155039689Y-66381522D01*
X155083858Y-66603573D01*
X155084899Y-66609570D01*
X155090303Y-66646001D01*
X155091048Y-66652042D01*
X155094441Y-66686500D01*
X155521000Y-66686500D01*
X156519000Y-66686500D01*
X158021000Y-66686500D01*
X158021000Y-65948105D01*
X158020873Y-65947894D01*
X158017873Y-65942599D01*
X157994771Y-65899377D01*
X157992034Y-65893938D01*
X157976294Y-65860656D01*
X157973829Y-65855095D01*
X157887199Y-65645949D01*
X157885009Y-65640272D01*
X157872610Y-65605620D01*
X157870702Y-65599845D01*
X157856475Y-65552952D01*
X157854851Y-65547084D01*
X157845899Y-65511349D01*
X157844565Y-65505408D01*
X157800396Y-65283357D01*
X157799355Y-65277360D01*
X157793951Y-65240929D01*
X157793206Y-65234888D01*
X157788403Y-65186116D01*
X157788284Y-65184500D01*
X156519000Y-65184500D01*
X156519000Y-66686500D01*
X155521000Y-66686500D01*
X155521000Y-65184500D01*
X155317160Y-65184500D01*
X155307377Y-65189729D01*
X155301938Y-65192466D01*
X155268656Y-65208206D01*
X155263095Y-65210671D01*
X155053949Y-65297301D01*
X155048272Y-65299491D01*
X155013620Y-65311890D01*
X155007845Y-65313798D01*
X154960952Y-65328025D01*
X154955084Y-65329649D01*
X154919349Y-65338601D01*
X154913408Y-65339935D01*
X154691357Y-65384104D01*
X154685360Y-65385145D01*
X154648929Y-65390549D01*
X154642888Y-65391294D01*
X154594116Y-65396097D01*
X154588046Y-65396545D01*
X154551274Y-65398351D01*
X154545191Y-65398500D01*
X154414832Y-65398500D01*
X150928183Y-65398500D01*
X150928932Y-65398351D01*
X151011658Y-65381896D01*
X151011661Y-65381894D01*
X151011666Y-65381894D01*
X151175547Y-65314013D01*
X151323035Y-65215464D01*
X151448464Y-65090035D01*
X151547013Y-64942547D01*
X151550013Y-64935304D01*
X158784000Y-64935304D01*
X158784000Y-65112695D01*
X158818603Y-65286658D01*
X158818606Y-65286667D01*
X158886483Y-65450540D01*
X158886490Y-65450553D01*
X158985035Y-65598034D01*
X158985038Y-65598038D01*
X159110461Y-65723461D01*
X159110465Y-65723464D01*
X159257946Y-65822009D01*
X159257959Y-65822016D01*
X159351246Y-65860656D01*
X159421834Y-65889894D01*
X159421836Y-65889894D01*
X159421841Y-65889896D01*
X159595804Y-65924499D01*
X159595807Y-65924500D01*
X159595809Y-65924500D01*
X159773193Y-65924500D01*
X159773194Y-65924499D01*
X159831182Y-65912964D01*
X159947158Y-65889896D01*
X159947161Y-65889894D01*
X159947166Y-65889894D01*
X160111047Y-65822013D01*
X160258535Y-65723464D01*
X160383964Y-65598035D01*
X160410872Y-65557765D01*
X161519000Y-65557765D01*
X161519000Y-65576418D01*
X161540131Y-65577456D01*
X161546201Y-65577904D01*
X161594973Y-65582707D01*
X161601014Y-65583452D01*
X161637445Y-65588856D01*
X161643442Y-65589897D01*
X161865493Y-65634066D01*
X161871434Y-65635400D01*
X161907169Y-65644352D01*
X161913037Y-65645976D01*
X161959930Y-65660203D01*
X161965705Y-65662111D01*
X162000357Y-65674510D01*
X162006034Y-65676700D01*
X162215180Y-65763330D01*
X162220741Y-65765795D01*
X162254023Y-65781535D01*
X162259462Y-65784272D01*
X162302684Y-65807374D01*
X162307979Y-65810374D01*
X162339573Y-65829310D01*
X162344717Y-65832567D01*
X162532954Y-65958344D01*
X162537930Y-65961848D01*
X162567502Y-65983780D01*
X162572300Y-65987525D01*
X162610182Y-66018614D01*
X162614789Y-66022588D01*
X162642076Y-66047319D01*
X162646485Y-66051517D01*
X162806569Y-66211601D01*
X162810767Y-66216010D01*
X162835498Y-66243297D01*
X162839472Y-66247904D01*
X162870561Y-66285786D01*
X162874306Y-66290584D01*
X162896238Y-66320156D01*
X162899742Y-66325132D01*
X163021000Y-66506605D01*
X163021000Y-66440688D01*
X166519000Y-66440688D01*
X166519000Y-66686500D01*
X168021000Y-66686500D01*
X169019000Y-66686500D01*
X170521000Y-66686500D01*
X170521000Y-66327379D01*
X172277500Y-66327379D01*
X172277500Y-66514620D01*
X172314025Y-66698243D01*
X172314027Y-66698251D01*
X172385676Y-66871228D01*
X172385681Y-66871237D01*
X172489697Y-67026907D01*
X172489700Y-67026911D01*
X172622088Y-67159299D01*
X172622092Y-67159302D01*
X172777762Y-67263318D01*
X172777768Y-67263321D01*
X172777769Y-67263322D01*
X172950749Y-67334973D01*
X173054429Y-67355596D01*
X173134379Y-67371499D01*
X173134383Y-67371500D01*
X173134384Y-67371500D01*
X173321617Y-67371500D01*
X173321618Y-67371499D01*
X173505251Y-67334973D01*
X173678231Y-67263322D01*
X173833908Y-67159302D01*
X173966302Y-67026908D01*
X174070322Y-66871231D01*
X174141973Y-66698251D01*
X174178500Y-66514616D01*
X174178500Y-66327384D01*
X174141973Y-66143749D01*
X174070322Y-65970769D01*
X174070321Y-65970768D01*
X174070318Y-65970762D01*
X173966302Y-65815092D01*
X173966299Y-65815088D01*
X173833911Y-65682700D01*
X173833907Y-65682697D01*
X173678237Y-65578681D01*
X173678228Y-65578676D01*
X173505251Y-65507027D01*
X173505243Y-65507025D01*
X173321620Y-65470500D01*
X173321616Y-65470500D01*
X173134384Y-65470500D01*
X173134379Y-65470500D01*
X172950756Y-65507025D01*
X172950748Y-65507027D01*
X172777771Y-65578676D01*
X172777762Y-65578681D01*
X172622092Y-65682697D01*
X172622088Y-65682700D01*
X172489700Y-65815088D01*
X172489697Y-65815092D01*
X172385681Y-65970762D01*
X172385676Y-65970771D01*
X172314027Y-66143748D01*
X172314025Y-66143756D01*
X172277500Y-66327379D01*
X170521000Y-66327379D01*
X170521000Y-65184500D01*
X169019000Y-65184500D01*
X169019000Y-66686500D01*
X168021000Y-66686500D01*
X168021000Y-65184500D01*
X167461244Y-65184500D01*
X167447935Y-65251408D01*
X167446601Y-65257349D01*
X167437649Y-65293084D01*
X167436025Y-65298952D01*
X167421798Y-65345845D01*
X167419890Y-65351620D01*
X167407491Y-65386272D01*
X167405301Y-65391949D01*
X167318671Y-65601095D01*
X167316206Y-65606656D01*
X167300466Y-65639938D01*
X167297729Y-65645377D01*
X167274627Y-65688599D01*
X167271627Y-65693894D01*
X167252691Y-65725488D01*
X167249434Y-65730632D01*
X167123657Y-65918869D01*
X167120153Y-65923845D01*
X167098221Y-65953417D01*
X167094476Y-65958215D01*
X167063387Y-65996097D01*
X167059413Y-66000704D01*
X167034682Y-66027991D01*
X167030484Y-66032400D01*
X166870400Y-66192484D01*
X166865991Y-66196682D01*
X166838704Y-66221413D01*
X166834097Y-66225387D01*
X166796215Y-66256476D01*
X166791417Y-66260221D01*
X166761845Y-66282153D01*
X166756869Y-66285657D01*
X166568632Y-66411434D01*
X166563488Y-66414691D01*
X166531894Y-66433627D01*
X166526599Y-66436627D01*
X166519000Y-66440688D01*
X163021000Y-66440688D01*
X163021000Y-65915522D01*
X162899697Y-65794219D01*
X162895499Y-65789810D01*
X162870768Y-65762523D01*
X162866794Y-65757916D01*
X162835705Y-65720034D01*
X162831960Y-65715236D01*
X162810028Y-65685664D01*
X162806524Y-65680688D01*
X162680747Y-65492451D01*
X162677490Y-65487307D01*
X162658554Y-65455713D01*
X162655554Y-65450418D01*
X162632452Y-65407196D01*
X162629715Y-65401757D01*
X162613975Y-65368475D01*
X162611510Y-65362914D01*
X162537609Y-65184500D01*
X162107095Y-65184500D01*
X162076273Y-65215322D01*
X162071864Y-65219520D01*
X162044577Y-65244251D01*
X162039970Y-65248225D01*
X162002088Y-65279314D01*
X161997288Y-65283060D01*
X161967714Y-65304993D01*
X161962740Y-65308496D01*
X161766314Y-65439744D01*
X161761170Y-65443001D01*
X161729578Y-65461936D01*
X161724282Y-65464936D01*
X161681061Y-65488037D01*
X161675626Y-65490773D01*
X161642346Y-65506513D01*
X161636782Y-65508979D01*
X161519000Y-65557765D01*
X160410872Y-65557765D01*
X160482513Y-65450547D01*
X160482567Y-65450418D01*
X160509136Y-65386272D01*
X160550394Y-65286666D01*
X160550910Y-65284076D01*
X160584999Y-65112695D01*
X160585000Y-65112693D01*
X160585000Y-64935306D01*
X160584999Y-64935304D01*
X160568567Y-64852691D01*
X160574794Y-64783100D01*
X160617657Y-64727922D01*
X160683547Y-64704678D01*
X160690184Y-64704500D01*
X160875617Y-64704500D01*
X160875618Y-64704499D01*
X161059251Y-64667973D01*
X161232231Y-64596322D01*
X161387908Y-64492302D01*
X161437087Y-64443123D01*
X163421681Y-64443123D01*
X163421681Y-64620514D01*
X163456284Y-64794477D01*
X163456287Y-64794486D01*
X163524164Y-64958359D01*
X163524171Y-64958372D01*
X163622716Y-65105853D01*
X163622719Y-65105857D01*
X163748142Y-65231280D01*
X163748146Y-65231283D01*
X163895627Y-65329828D01*
X163895640Y-65329835D01*
X163988927Y-65368475D01*
X164059515Y-65397713D01*
X164059517Y-65397713D01*
X164059522Y-65397715D01*
X164233485Y-65432318D01*
X164233488Y-65432319D01*
X164233490Y-65432319D01*
X164410874Y-65432319D01*
X164410875Y-65432318D01*
X164490404Y-65416499D01*
X164584839Y-65397715D01*
X164584842Y-65397713D01*
X164584847Y-65397713D01*
X164748728Y-65329832D01*
X164751395Y-65328049D01*
X164753005Y-65327545D01*
X164754095Y-65326963D01*
X164754205Y-65327169D01*
X164818071Y-65307170D01*
X164885452Y-65325653D01*
X164907969Y-65343469D01*
X165033961Y-65469461D01*
X165033965Y-65469464D01*
X165181446Y-65568009D01*
X165181459Y-65568016D01*
X165270601Y-65604939D01*
X165345334Y-65635894D01*
X165345336Y-65635894D01*
X165345341Y-65635896D01*
X165519304Y-65670499D01*
X165519307Y-65670500D01*
X165519309Y-65670500D01*
X165696693Y-65670500D01*
X165696694Y-65670499D01*
X165754682Y-65658964D01*
X165870658Y-65635896D01*
X165870661Y-65635894D01*
X165870666Y-65635894D01*
X166034547Y-65568013D01*
X166182035Y-65469464D01*
X166307464Y-65344035D01*
X166406013Y-65196547D01*
X166473894Y-65032666D01*
X166482259Y-64990616D01*
X166508499Y-64858695D01*
X166508500Y-64858693D01*
X166508500Y-64803379D01*
X175706500Y-64803379D01*
X175706500Y-64990620D01*
X175743025Y-65174243D01*
X175743027Y-65174251D01*
X175814676Y-65347228D01*
X175814681Y-65347237D01*
X175918697Y-65502907D01*
X175918700Y-65502911D01*
X176051088Y-65635299D01*
X176051092Y-65635302D01*
X176206762Y-65739318D01*
X176206771Y-65739323D01*
X176245956Y-65755554D01*
X176379749Y-65810973D01*
X176527936Y-65840449D01*
X176563379Y-65847499D01*
X176563383Y-65847500D01*
X176563384Y-65847500D01*
X176750617Y-65847500D01*
X176750618Y-65847499D01*
X176934251Y-65810973D01*
X177107231Y-65739322D01*
X177240709Y-65650135D01*
X179106500Y-65650135D01*
X179106500Y-67445870D01*
X179106501Y-67445876D01*
X179112908Y-67505483D01*
X179163202Y-67640328D01*
X179163206Y-67640335D01*
X179249452Y-67755544D01*
X179249455Y-67755547D01*
X179364664Y-67841793D01*
X179364671Y-67841797D01*
X179496082Y-67890810D01*
X179552016Y-67932681D01*
X179576433Y-67998145D01*
X179561582Y-68066418D01*
X179540431Y-68094673D01*
X179426889Y-68208215D01*
X179301951Y-68380179D01*
X179205444Y-68569585D01*
X179139753Y-68771760D01*
X179106500Y-68981713D01*
X179106500Y-69194286D01*
X179139529Y-69402826D01*
X179139754Y-69404243D01*
X179182077Y-69534500D01*
X179205444Y-69606414D01*
X179301951Y-69795820D01*
X179426890Y-69967786D01*
X179577213Y-70118109D01*
X179749182Y-70243050D01*
X179757946Y-70247516D01*
X179808742Y-70295491D01*
X179825536Y-70363312D01*
X179802998Y-70429447D01*
X179757946Y-70468484D01*
X179749182Y-70472949D01*
X179577213Y-70597890D01*
X179426890Y-70748213D01*
X179301951Y-70920179D01*
X179205444Y-71109585D01*
X179139753Y-71311760D01*
X179111153Y-71492334D01*
X179106500Y-71521713D01*
X179106500Y-71734287D01*
X179139754Y-71944243D01*
X179182077Y-72074500D01*
X179205444Y-72146414D01*
X179301951Y-72335820D01*
X179426890Y-72507786D01*
X179577213Y-72658109D01*
X179749179Y-72783048D01*
X179749181Y-72783049D01*
X179749184Y-72783051D01*
X179938588Y-72879557D01*
X180140757Y-72945246D01*
X180350713Y-72978500D01*
X180350714Y-72978500D01*
X180563286Y-72978500D01*
X180563287Y-72978500D01*
X180773243Y-72945246D01*
X180975412Y-72879557D01*
X181164816Y-72783051D01*
X181213396Y-72747756D01*
X181336786Y-72658109D01*
X181336788Y-72658106D01*
X181336792Y-72658104D01*
X181487104Y-72507792D01*
X181487106Y-72507788D01*
X181487109Y-72507786D01*
X181612048Y-72335820D01*
X181612047Y-72335820D01*
X181612051Y-72335816D01*
X181616514Y-72327054D01*
X181664488Y-72276259D01*
X181732308Y-72259463D01*
X181798444Y-72281999D01*
X181837486Y-72327056D01*
X181841951Y-72335820D01*
X181966890Y-72507786D01*
X182117213Y-72658109D01*
X182289179Y-72783048D01*
X182289181Y-72783049D01*
X182289184Y-72783051D01*
X182478588Y-72879557D01*
X182680757Y-72945246D01*
X182890713Y-72978500D01*
X182890714Y-72978500D01*
X183103286Y-72978500D01*
X183103287Y-72978500D01*
X183313243Y-72945246D01*
X183515412Y-72879557D01*
X183704816Y-72783051D01*
X183753396Y-72747756D01*
X183876786Y-72658109D01*
X183876788Y-72658106D01*
X183876792Y-72658104D01*
X184027104Y-72507792D01*
X184027106Y-72507788D01*
X184027109Y-72507786D01*
X184152048Y-72335820D01*
X184152047Y-72335820D01*
X184152051Y-72335816D01*
X184248557Y-72146412D01*
X184314246Y-71944243D01*
X184347500Y-71734287D01*
X184347500Y-71521713D01*
X184314246Y-71311757D01*
X184248557Y-71109588D01*
X184152051Y-70920184D01*
X184152049Y-70920181D01*
X184152048Y-70920179D01*
X184027109Y-70748213D01*
X183876786Y-70597890D01*
X183704820Y-70472951D01*
X183704115Y-70472591D01*
X183696054Y-70468485D01*
X183645259Y-70420512D01*
X183628463Y-70352692D01*
X183650999Y-70286556D01*
X183696054Y-70247515D01*
X183704816Y-70243051D01*
X183730742Y-70224215D01*
X183876786Y-70118109D01*
X183876788Y-70118106D01*
X183876792Y-70118104D01*
X184027104Y-69967792D01*
X184027106Y-69967788D01*
X184027109Y-69967786D01*
X184152048Y-69795820D01*
X184152047Y-69795820D01*
X184152051Y-69795816D01*
X184248557Y-69606412D01*
X184314246Y-69404243D01*
X184347500Y-69194287D01*
X184347500Y-68981713D01*
X184314246Y-68771757D01*
X184248557Y-68569588D01*
X184152051Y-68380184D01*
X184152049Y-68380181D01*
X184152048Y-68380179D01*
X184027109Y-68208213D01*
X183876786Y-68057890D01*
X183704817Y-67932949D01*
X183695504Y-67928204D01*
X183644707Y-67880230D01*
X183627912Y-67812409D01*
X183650449Y-67746274D01*
X183695507Y-67707232D01*
X183704555Y-67702622D01*
X183758716Y-67663270D01*
X183758717Y-67663270D01*
X183126408Y-67030962D01*
X183189993Y-67013925D01*
X183304007Y-66948099D01*
X183397099Y-66855007D01*
X183462925Y-66740993D01*
X183479962Y-66677408D01*
X184112270Y-67309717D01*
X184112270Y-67309716D01*
X184151622Y-67255554D01*
X184248095Y-67066217D01*
X184313757Y-66864130D01*
X184313757Y-66864127D01*
X184347000Y-66654246D01*
X184347000Y-66441753D01*
X184313757Y-66231872D01*
X184313757Y-66231869D01*
X184248095Y-66029782D01*
X184151624Y-65840449D01*
X184112270Y-65786282D01*
X184112269Y-65786282D01*
X183479962Y-66418590D01*
X183462925Y-66355007D01*
X183397099Y-66240993D01*
X183304007Y-66147901D01*
X183189993Y-66082075D01*
X183126409Y-66065037D01*
X183758716Y-65432728D01*
X183704550Y-65393375D01*
X183515217Y-65296904D01*
X183313129Y-65231242D01*
X183103246Y-65198000D01*
X182890754Y-65198000D01*
X182680872Y-65231242D01*
X182680869Y-65231242D01*
X182478782Y-65296904D01*
X182289439Y-65393380D01*
X182235282Y-65432727D01*
X182235282Y-65432728D01*
X182867591Y-66065037D01*
X182804007Y-66082075D01*
X182689993Y-66147901D01*
X182596901Y-66240993D01*
X182531075Y-66355007D01*
X182514037Y-66418591D01*
X181843818Y-65748372D01*
X181810333Y-65687049D01*
X181807499Y-65660691D01*
X181807499Y-65650129D01*
X181807498Y-65650123D01*
X181807497Y-65650116D01*
X181802094Y-65599845D01*
X181801091Y-65590516D01*
X181750797Y-65455671D01*
X181750793Y-65455664D01*
X181664547Y-65340455D01*
X181664544Y-65340452D01*
X181549335Y-65254206D01*
X181549328Y-65254202D01*
X181414482Y-65203908D01*
X181414483Y-65203908D01*
X181354883Y-65197501D01*
X181354881Y-65197500D01*
X181354873Y-65197500D01*
X181354864Y-65197500D01*
X179559129Y-65197500D01*
X179559123Y-65197501D01*
X179499516Y-65203908D01*
X179364671Y-65254202D01*
X179364664Y-65254206D01*
X179249455Y-65340452D01*
X179249452Y-65340455D01*
X179163206Y-65455664D01*
X179163202Y-65455671D01*
X179112908Y-65590517D01*
X179106949Y-65645949D01*
X179106501Y-65650123D01*
X179106500Y-65650135D01*
X177240709Y-65650135D01*
X177262908Y-65635302D01*
X177395302Y-65502908D01*
X177499322Y-65347231D01*
X177570973Y-65174251D01*
X177607500Y-64990616D01*
X177607500Y-64803384D01*
X177570973Y-64619749D01*
X177499322Y-64446769D01*
X177499321Y-64446768D01*
X177499318Y-64446762D01*
X177395302Y-64291092D01*
X177395299Y-64291088D01*
X177262911Y-64158700D01*
X177262907Y-64158697D01*
X177107237Y-64054681D01*
X177107228Y-64054676D01*
X176934251Y-63983027D01*
X176934243Y-63983025D01*
X176750620Y-63946500D01*
X176750616Y-63946500D01*
X176563384Y-63946500D01*
X176563379Y-63946500D01*
X176379756Y-63983025D01*
X176379748Y-63983027D01*
X176206771Y-64054676D01*
X176206762Y-64054681D01*
X176051092Y-64158697D01*
X176051088Y-64158700D01*
X175918700Y-64291088D01*
X175918697Y-64291092D01*
X175814681Y-64446762D01*
X175814676Y-64446771D01*
X175743027Y-64619748D01*
X175743025Y-64619756D01*
X175706500Y-64803379D01*
X166508500Y-64803379D01*
X166508500Y-64681306D01*
X166508499Y-64681304D01*
X166473896Y-64507341D01*
X166473893Y-64507332D01*
X166406016Y-64343459D01*
X166406009Y-64343446D01*
X166307464Y-64195965D01*
X166307461Y-64195961D01*
X166182038Y-64070538D01*
X166182034Y-64070535D01*
X166034553Y-63971990D01*
X166034540Y-63971983D01*
X165870667Y-63904106D01*
X165870658Y-63904103D01*
X165696694Y-63869500D01*
X165696691Y-63869500D01*
X165519309Y-63869500D01*
X165519306Y-63869500D01*
X165345341Y-63904103D01*
X165345332Y-63904106D01*
X165181460Y-63971983D01*
X165181445Y-63971991D01*
X165178773Y-63973777D01*
X165177161Y-63974281D01*
X165176079Y-63974860D01*
X165175969Y-63974654D01*
X165112094Y-63994648D01*
X165044715Y-63976157D01*
X165022211Y-63958349D01*
X164896219Y-63832357D01*
X164896215Y-63832354D01*
X164748734Y-63733809D01*
X164748721Y-63733802D01*
X164584848Y-63665925D01*
X164584839Y-63665922D01*
X164410875Y-63631319D01*
X164410872Y-63631319D01*
X164233490Y-63631319D01*
X164233487Y-63631319D01*
X164059522Y-63665922D01*
X164059513Y-63665925D01*
X163895640Y-63733802D01*
X163895627Y-63733809D01*
X163748146Y-63832354D01*
X163748142Y-63832357D01*
X163622719Y-63957780D01*
X163622716Y-63957784D01*
X163524171Y-64105265D01*
X163524164Y-64105278D01*
X163456287Y-64269151D01*
X163456284Y-64269160D01*
X163421681Y-64443123D01*
X161437087Y-64443123D01*
X161520302Y-64359908D01*
X161624322Y-64204231D01*
X161695973Y-64031251D01*
X161732500Y-63847616D01*
X161732500Y-63660384D01*
X161695973Y-63476749D01*
X161624322Y-63303769D01*
X161624321Y-63303768D01*
X161624318Y-63303762D01*
X161520302Y-63148092D01*
X161520299Y-63148088D01*
X161471522Y-63099311D01*
X166519000Y-63099311D01*
X166526599Y-63103373D01*
X166531894Y-63106373D01*
X166563488Y-63125309D01*
X166568632Y-63128566D01*
X166756869Y-63254343D01*
X166761845Y-63257847D01*
X166791417Y-63279779D01*
X166796215Y-63283524D01*
X166834097Y-63314613D01*
X166838704Y-63318587D01*
X166865991Y-63343318D01*
X166870400Y-63347516D01*
X167030484Y-63507600D01*
X167034682Y-63512009D01*
X167059413Y-63539296D01*
X167063387Y-63543903D01*
X167094476Y-63581785D01*
X167098221Y-63586583D01*
X167120153Y-63616155D01*
X167123657Y-63621131D01*
X167249434Y-63809368D01*
X167252691Y-63814512D01*
X167271627Y-63846106D01*
X167274627Y-63851401D01*
X167297729Y-63894623D01*
X167300466Y-63900062D01*
X167316206Y-63933344D01*
X167318671Y-63938905D01*
X167405301Y-64148051D01*
X167407491Y-64153728D01*
X167419217Y-64186500D01*
X168021000Y-64186500D01*
X168021000Y-64013887D01*
X167906013Y-63991015D01*
X167900076Y-63989682D01*
X167864348Y-63980733D01*
X167858478Y-63979109D01*
X167811582Y-63964882D01*
X167805803Y-63962973D01*
X167785000Y-63955529D01*
X169019000Y-63955529D01*
X169019000Y-64186500D01*
X170521000Y-64186500D01*
X174019000Y-64186500D01*
X174842257Y-64186500D01*
X174902021Y-64042217D01*
X174904487Y-64036654D01*
X174920227Y-64003374D01*
X174922963Y-63997939D01*
X174946064Y-63954718D01*
X174949064Y-63949422D01*
X174967999Y-63917830D01*
X174971256Y-63912686D01*
X175102504Y-63716260D01*
X175106007Y-63711286D01*
X175127940Y-63681712D01*
X175131686Y-63676912D01*
X175162775Y-63639030D01*
X175166749Y-63634423D01*
X175191480Y-63607136D01*
X175195678Y-63602727D01*
X175362727Y-63435678D01*
X175367136Y-63431480D01*
X175394423Y-63406749D01*
X175399030Y-63402775D01*
X175436912Y-63371686D01*
X175441712Y-63367940D01*
X175471286Y-63346007D01*
X175476260Y-63342504D01*
X175521000Y-63312609D01*
X175521000Y-62949326D01*
X176519000Y-62949326D01*
X176532800Y-62948649D01*
X176538882Y-62948500D01*
X176775118Y-62948500D01*
X176781200Y-62948649D01*
X176817975Y-62950455D01*
X176824046Y-62950903D01*
X176872815Y-62955706D01*
X176878858Y-62956451D01*
X176915286Y-62961855D01*
X176921281Y-62962896D01*
X177152987Y-63008985D01*
X177158924Y-63010318D01*
X177194652Y-63019267D01*
X177200522Y-63020891D01*
X177247418Y-63035118D01*
X177253197Y-63037027D01*
X177287859Y-63049430D01*
X177293535Y-63051620D01*
X177511783Y-63142021D01*
X177517346Y-63144487D01*
X177550626Y-63160227D01*
X177556061Y-63162963D01*
X177599282Y-63186064D01*
X177604578Y-63189064D01*
X177636170Y-63207999D01*
X177641314Y-63211256D01*
X177837740Y-63342504D01*
X177842714Y-63346007D01*
X177872288Y-63367940D01*
X177877088Y-63371686D01*
X177914970Y-63402775D01*
X177919577Y-63406749D01*
X177946864Y-63431480D01*
X177951273Y-63435678D01*
X178021000Y-63505405D01*
X178021000Y-62684500D01*
X176519000Y-62684500D01*
X176519000Y-62949326D01*
X175521000Y-62949326D01*
X175521000Y-62684500D01*
X174019000Y-62684500D01*
X174019000Y-64186500D01*
X170521000Y-64186500D01*
X170521000Y-62684500D01*
X170266587Y-62684500D01*
X170263882Y-62693418D01*
X170261973Y-62699197D01*
X170249570Y-62733859D01*
X170247380Y-62739535D01*
X170156979Y-62957783D01*
X170154513Y-62963346D01*
X170138773Y-62996626D01*
X170136037Y-63002061D01*
X170112936Y-63045282D01*
X170109936Y-63050578D01*
X170091001Y-63082170D01*
X170087744Y-63087314D01*
X169956496Y-63283740D01*
X169952993Y-63288714D01*
X169931060Y-63318288D01*
X169927314Y-63323088D01*
X169896225Y-63360970D01*
X169892251Y-63365577D01*
X169867520Y-63392864D01*
X169863322Y-63397273D01*
X169696273Y-63564322D01*
X169691864Y-63568520D01*
X169664577Y-63593251D01*
X169659970Y-63597225D01*
X169622088Y-63628314D01*
X169617288Y-63632060D01*
X169587714Y-63653993D01*
X169582740Y-63657496D01*
X169386314Y-63788744D01*
X169381170Y-63792001D01*
X169349578Y-63810936D01*
X169344282Y-63813936D01*
X169301061Y-63837037D01*
X169295626Y-63839773D01*
X169262346Y-63855513D01*
X169256783Y-63857979D01*
X169038535Y-63948380D01*
X169032859Y-63950570D01*
X169019000Y-63955529D01*
X167785000Y-63955529D01*
X167771141Y-63950570D01*
X167765465Y-63948380D01*
X167547217Y-63857979D01*
X167541654Y-63855513D01*
X167508374Y-63839773D01*
X167502939Y-63837037D01*
X167459718Y-63813936D01*
X167454422Y-63810936D01*
X167422830Y-63792001D01*
X167417686Y-63788744D01*
X167221260Y-63657496D01*
X167216286Y-63653993D01*
X167186712Y-63632060D01*
X167181912Y-63628314D01*
X167144030Y-63597225D01*
X167139423Y-63593251D01*
X167112136Y-63568520D01*
X167107727Y-63564322D01*
X166940678Y-63397273D01*
X166936480Y-63392864D01*
X166911749Y-63365577D01*
X166907775Y-63360970D01*
X166876686Y-63323088D01*
X166872940Y-63318288D01*
X166851007Y-63288714D01*
X166847504Y-63283740D01*
X166716256Y-63087314D01*
X166712999Y-63082170D01*
X166694064Y-63050578D01*
X166691064Y-63045282D01*
X166667963Y-63002061D01*
X166665227Y-62996626D01*
X166649487Y-62963346D01*
X166647021Y-62957783D01*
X166556620Y-62739535D01*
X166554430Y-62733859D01*
X166542027Y-62699197D01*
X166540118Y-62693418D01*
X166537413Y-62684500D01*
X166519000Y-62684500D01*
X166519000Y-63099311D01*
X161471522Y-63099311D01*
X161387911Y-63015700D01*
X161387907Y-63015697D01*
X161232237Y-62911681D01*
X161232228Y-62911676D01*
X161059251Y-62840027D01*
X161059243Y-62840025D01*
X160875620Y-62803500D01*
X160875616Y-62803500D01*
X160688384Y-62803500D01*
X160688379Y-62803500D01*
X160504756Y-62840025D01*
X160504748Y-62840027D01*
X160331771Y-62911676D01*
X160331762Y-62911681D01*
X160176092Y-63015697D01*
X160176088Y-63015700D01*
X160043700Y-63148088D01*
X160043697Y-63148092D01*
X159939681Y-63303762D01*
X159939676Y-63303771D01*
X159868027Y-63476748D01*
X159868025Y-63476756D01*
X159831500Y-63660379D01*
X159831500Y-63847620D01*
X159856899Y-63975309D01*
X159850672Y-64044901D01*
X159807809Y-64100078D01*
X159741919Y-64123322D01*
X159735282Y-64123500D01*
X159595806Y-64123500D01*
X159421841Y-64158103D01*
X159421832Y-64158106D01*
X159257959Y-64225983D01*
X159257946Y-64225990D01*
X159110465Y-64324535D01*
X159110461Y-64324538D01*
X158985038Y-64449961D01*
X158985035Y-64449965D01*
X158886490Y-64597446D01*
X158886483Y-64597459D01*
X158818606Y-64761332D01*
X158818603Y-64761341D01*
X158784000Y-64935304D01*
X151550013Y-64935304D01*
X151614894Y-64778666D01*
X151618341Y-64761341D01*
X151641880Y-64643000D01*
X151649500Y-64604691D01*
X151649500Y-64427309D01*
X151649500Y-64427306D01*
X151649499Y-64427304D01*
X151614896Y-64253341D01*
X151614893Y-64253332D01*
X151547016Y-64089459D01*
X151547014Y-64089455D01*
X151547013Y-64089453D01*
X151511734Y-64036654D01*
X151484486Y-63995875D01*
X151463608Y-63929198D01*
X151482092Y-63861818D01*
X151499903Y-63839306D01*
X151614302Y-63724908D01*
X151718322Y-63569231D01*
X151783738Y-63411304D01*
X153531500Y-63411304D01*
X153531500Y-63588695D01*
X153566103Y-63762658D01*
X153566106Y-63762667D01*
X153633983Y-63926540D01*
X153633990Y-63926553D01*
X153732535Y-64074034D01*
X153732538Y-64074038D01*
X153857961Y-64199461D01*
X153857965Y-64199464D01*
X154005446Y-64298009D01*
X154005459Y-64298016D01*
X154128363Y-64348923D01*
X154169334Y-64365894D01*
X154169336Y-64365894D01*
X154169341Y-64365896D01*
X154343304Y-64400499D01*
X154343307Y-64400500D01*
X154343309Y-64400500D01*
X154520693Y-64400500D01*
X154520694Y-64400499D01*
X154578682Y-64388964D01*
X154694658Y-64365896D01*
X154694661Y-64365894D01*
X154694666Y-64365894D01*
X154858547Y-64298013D01*
X155006035Y-64199464D01*
X155018999Y-64186500D01*
X156519000Y-64186500D01*
X157976693Y-64186500D01*
X157992034Y-64154062D01*
X157994771Y-64148623D01*
X158017873Y-64105401D01*
X158020872Y-64100107D01*
X158021000Y-64099893D01*
X158021000Y-62684500D01*
X156519000Y-62684500D01*
X156519000Y-64186500D01*
X155018999Y-64186500D01*
X155131464Y-64074035D01*
X155230013Y-63926547D01*
X155297894Y-63762666D01*
X155300827Y-63747924D01*
X155332499Y-63588695D01*
X155332500Y-63588693D01*
X155332500Y-63411306D01*
X155332499Y-63411304D01*
X155297896Y-63237341D01*
X155297893Y-63237332D01*
X155230016Y-63073459D01*
X155230009Y-63073446D01*
X155131464Y-62925965D01*
X155131461Y-62925961D01*
X155006038Y-62800538D01*
X155006034Y-62800535D01*
X154858553Y-62701990D01*
X154858540Y-62701983D01*
X154694667Y-62634106D01*
X154694658Y-62634103D01*
X154520694Y-62599500D01*
X154520691Y-62599500D01*
X154343309Y-62599500D01*
X154343306Y-62599500D01*
X154169341Y-62634103D01*
X154169332Y-62634106D01*
X154005459Y-62701983D01*
X154005446Y-62701990D01*
X153857965Y-62800535D01*
X153857961Y-62800538D01*
X153732538Y-62925961D01*
X153732535Y-62925965D01*
X153633990Y-63073446D01*
X153633983Y-63073459D01*
X153566106Y-63237332D01*
X153566103Y-63237341D01*
X153531500Y-63411304D01*
X151783738Y-63411304D01*
X151789973Y-63396251D01*
X151826500Y-63212616D01*
X151826500Y-63025384D01*
X151789973Y-62841749D01*
X151718322Y-62668769D01*
X151718321Y-62668768D01*
X151718318Y-62668762D01*
X151614302Y-62513092D01*
X151614299Y-62513088D01*
X151481911Y-62380700D01*
X151481907Y-62380697D01*
X151326237Y-62276681D01*
X151326228Y-62276676D01*
X151153251Y-62205027D01*
X151153243Y-62205025D01*
X150969620Y-62168500D01*
X150969616Y-62168500D01*
X150782384Y-62168500D01*
X150782379Y-62168500D01*
X150598756Y-62205025D01*
X150598748Y-62205027D01*
X150425771Y-62276676D01*
X150425762Y-62276681D01*
X150270092Y-62380697D01*
X150270088Y-62380700D01*
X150137700Y-62513088D01*
X150137697Y-62513092D01*
X150033681Y-62668762D01*
X150033676Y-62668771D01*
X149962027Y-62841748D01*
X149962025Y-62841756D01*
X149925500Y-63025379D01*
X149925500Y-63212620D01*
X149962025Y-63396243D01*
X149962027Y-63396251D01*
X150033676Y-63569228D01*
X150033681Y-63569237D01*
X150132788Y-63717560D01*
X150153666Y-63784237D01*
X150135182Y-63851618D01*
X150117368Y-63874132D01*
X150049535Y-63941965D01*
X149950990Y-64089446D01*
X149950983Y-64089459D01*
X149883106Y-64253332D01*
X149883103Y-64253341D01*
X149848500Y-64427304D01*
X141351000Y-64427304D01*
X141351000Y-64186500D01*
X142475000Y-64186500D01*
X143021000Y-64186500D01*
X144019000Y-64186500D01*
X145354112Y-64186500D01*
X145331963Y-64145061D01*
X145329227Y-64139626D01*
X145313487Y-64106346D01*
X145311021Y-64100783D01*
X145220620Y-63882535D01*
X145218430Y-63876859D01*
X145206027Y-63842197D01*
X145204118Y-63836418D01*
X145189891Y-63789522D01*
X145188267Y-63783652D01*
X145179318Y-63747924D01*
X145177985Y-63741987D01*
X145131896Y-63510281D01*
X145130855Y-63504286D01*
X145125451Y-63467858D01*
X145124706Y-63461815D01*
X145119903Y-63413046D01*
X145119455Y-63406975D01*
X145117649Y-63370200D01*
X145117500Y-63364118D01*
X145117500Y-63152379D01*
X146115500Y-63152379D01*
X146115500Y-63339620D01*
X146152025Y-63523243D01*
X146152027Y-63523251D01*
X146223676Y-63696228D01*
X146223681Y-63696237D01*
X146327697Y-63851907D01*
X146327700Y-63851911D01*
X146460088Y-63984299D01*
X146460092Y-63984302D01*
X146615762Y-64088318D01*
X146615771Y-64088323D01*
X146618485Y-64089447D01*
X146788749Y-64159973D01*
X146969674Y-64195961D01*
X146972379Y-64196499D01*
X146972383Y-64196500D01*
X146972384Y-64196500D01*
X147159617Y-64196500D01*
X147159618Y-64196499D01*
X147343251Y-64159973D01*
X147516231Y-64088322D01*
X147671908Y-63984302D01*
X147804302Y-63851908D01*
X147908322Y-63696231D01*
X147979973Y-63523251D01*
X148016500Y-63339616D01*
X148016500Y-63152384D01*
X147979973Y-62968749D01*
X147911524Y-62803500D01*
X147908323Y-62795771D01*
X147908318Y-62795762D01*
X147804302Y-62640092D01*
X147804299Y-62640088D01*
X147671911Y-62507700D01*
X147671907Y-62507697D01*
X147516237Y-62403681D01*
X147516228Y-62403676D01*
X147343251Y-62332027D01*
X147343243Y-62332025D01*
X147159620Y-62295500D01*
X147159616Y-62295500D01*
X146972384Y-62295500D01*
X146972379Y-62295500D01*
X146788756Y-62332025D01*
X146788748Y-62332027D01*
X146615771Y-62403676D01*
X146615762Y-62403681D01*
X146460092Y-62507697D01*
X146460088Y-62507700D01*
X146327700Y-62640088D01*
X146327697Y-62640092D01*
X146223681Y-62795762D01*
X146223676Y-62795771D01*
X146152027Y-62968748D01*
X146152025Y-62968756D01*
X146115500Y-63152379D01*
X145117500Y-63152379D01*
X145117500Y-63127882D01*
X145117649Y-63121800D01*
X145119455Y-63085025D01*
X145119903Y-63078954D01*
X145124706Y-63030185D01*
X145125451Y-63024142D01*
X145130855Y-62987714D01*
X145131896Y-62981719D01*
X145177985Y-62750013D01*
X145179318Y-62744076D01*
X145188267Y-62708348D01*
X145189891Y-62702478D01*
X145195345Y-62684500D01*
X144019000Y-62684500D01*
X144019000Y-64186500D01*
X143021000Y-64186500D01*
X143021000Y-62684500D01*
X142475000Y-62684500D01*
X142475000Y-64186500D01*
X141351000Y-64186500D01*
X141351000Y-62009379D01*
X167451500Y-62009379D01*
X167451500Y-62196620D01*
X167488025Y-62380243D01*
X167488027Y-62380251D01*
X167559676Y-62553228D01*
X167559681Y-62553237D01*
X167663697Y-62708907D01*
X167663700Y-62708911D01*
X167796088Y-62841299D01*
X167796092Y-62841302D01*
X167951762Y-62945318D01*
X167951771Y-62945323D01*
X167976838Y-62955706D01*
X168124749Y-63016973D01*
X168267069Y-63045282D01*
X168308379Y-63053499D01*
X168308383Y-63053500D01*
X168308384Y-63053500D01*
X168495617Y-63053500D01*
X168495618Y-63053499D01*
X168679251Y-63016973D01*
X168852231Y-62945322D01*
X169007908Y-62841302D01*
X169140302Y-62708908D01*
X169244322Y-62553231D01*
X169315973Y-62380251D01*
X169352500Y-62196616D01*
X169352500Y-62009384D01*
X169315973Y-61825749D01*
X169258294Y-61686500D01*
X171519000Y-61686500D01*
X173021000Y-61686500D01*
X174019000Y-61686500D01*
X175521000Y-61686500D01*
X176519000Y-61686500D01*
X178021000Y-61686500D01*
X178021000Y-60934500D01*
X176519000Y-60934500D01*
X176519000Y-61686500D01*
X175521000Y-61686500D01*
X175521000Y-60934500D01*
X174019000Y-60934500D01*
X174019000Y-61686500D01*
X173021000Y-61686500D01*
X173021000Y-60934500D01*
X171519000Y-60934500D01*
X171519000Y-61686500D01*
X169258294Y-61686500D01*
X169253662Y-61675318D01*
X169244323Y-61652771D01*
X169244318Y-61652762D01*
X169140302Y-61497092D01*
X169140299Y-61497088D01*
X169007911Y-61364700D01*
X169007907Y-61364697D01*
X168852237Y-61260681D01*
X168852228Y-61260676D01*
X168679251Y-61189027D01*
X168679243Y-61189025D01*
X168495620Y-61152500D01*
X168495616Y-61152500D01*
X168308384Y-61152500D01*
X168308379Y-61152500D01*
X168124756Y-61189025D01*
X168124748Y-61189027D01*
X167951771Y-61260676D01*
X167951762Y-61260681D01*
X167796092Y-61364697D01*
X167796088Y-61364700D01*
X167663700Y-61497088D01*
X167663697Y-61497092D01*
X167559681Y-61652762D01*
X167559676Y-61652771D01*
X167488027Y-61825748D01*
X167488025Y-61825756D01*
X167451500Y-62009379D01*
X141351000Y-62009379D01*
X141351000Y-61686500D01*
X144019000Y-61686500D01*
X145521000Y-61686500D01*
X149019000Y-61686500D01*
X149552905Y-61686500D01*
X149581727Y-61657678D01*
X149586136Y-61653480D01*
X149613423Y-61628749D01*
X149618030Y-61624775D01*
X149655912Y-61593686D01*
X149660712Y-61589940D01*
X149690286Y-61568007D01*
X149695259Y-61564504D01*
X149758239Y-61522420D01*
X149772985Y-61477041D01*
X149780431Y-61459065D01*
X149866183Y-61290768D01*
X149876350Y-61274178D01*
X149987373Y-61121367D01*
X150000010Y-61106571D01*
X150133571Y-60973010D01*
X150148367Y-60960373D01*
X150183978Y-60934500D01*
X151822022Y-60934500D01*
X151857633Y-60960373D01*
X151872429Y-60973010D01*
X152005990Y-61106571D01*
X152018627Y-61121367D01*
X152129650Y-61274178D01*
X152139817Y-61290768D01*
X152225569Y-61459065D01*
X152233015Y-61477042D01*
X152291383Y-61656681D01*
X152295925Y-61675601D01*
X152297651Y-61686500D01*
X153021000Y-61686500D01*
X153021000Y-61646457D01*
X154019000Y-61646457D01*
X154172643Y-61615896D01*
X154178640Y-61614855D01*
X154215071Y-61609451D01*
X154221112Y-61608706D01*
X154269884Y-61603903D01*
X154275954Y-61603455D01*
X154312726Y-61601649D01*
X154318809Y-61601500D01*
X154545191Y-61601500D01*
X154551274Y-61601649D01*
X154588046Y-61603455D01*
X154594116Y-61603903D01*
X154642888Y-61608706D01*
X154648929Y-61609451D01*
X154685360Y-61614855D01*
X154691357Y-61615896D01*
X154913408Y-61660065D01*
X154919349Y-61661399D01*
X154955084Y-61670351D01*
X154960952Y-61671975D01*
X155007845Y-61686202D01*
X155008747Y-61686500D01*
X155521000Y-61686500D01*
X155521000Y-61520507D01*
X155508178Y-61512650D01*
X155355367Y-61401627D01*
X155340571Y-61388990D01*
X155207010Y-61255429D01*
X155194373Y-61240633D01*
X155083350Y-61087822D01*
X155073183Y-61071232D01*
X155003514Y-60934500D01*
X154019000Y-60934500D01*
X154019000Y-61646457D01*
X153021000Y-61646457D01*
X153021000Y-60934500D01*
X151822022Y-60934500D01*
X150183978Y-60934500D01*
X149019000Y-60934500D01*
X149019000Y-61686500D01*
X145521000Y-61686500D01*
X145521000Y-61370946D01*
X146519000Y-61370946D01*
X146522478Y-61369891D01*
X146528348Y-61368267D01*
X146564076Y-61359318D01*
X146570013Y-61357985D01*
X146801719Y-61311896D01*
X146807714Y-61310855D01*
X146844142Y-61305451D01*
X146850185Y-61304706D01*
X146898954Y-61299903D01*
X146905025Y-61299455D01*
X146941800Y-61297649D01*
X146947882Y-61297500D01*
X147184118Y-61297500D01*
X147190200Y-61297649D01*
X147226975Y-61299455D01*
X147233046Y-61299903D01*
X147281815Y-61304706D01*
X147287858Y-61305451D01*
X147324286Y-61310855D01*
X147330281Y-61311896D01*
X147561987Y-61357985D01*
X147567924Y-61359318D01*
X147603652Y-61368267D01*
X147609522Y-61369891D01*
X147656418Y-61384118D01*
X147662197Y-61386027D01*
X147696859Y-61398430D01*
X147702535Y-61400620D01*
X147920783Y-61491021D01*
X147926346Y-61493487D01*
X147959626Y-61509227D01*
X147965061Y-61511963D01*
X148008282Y-61535064D01*
X148013578Y-61538064D01*
X148021000Y-61542512D01*
X148021000Y-60934500D01*
X146519000Y-60934500D01*
X146519000Y-61370946D01*
X145521000Y-61370946D01*
X145521000Y-60934500D01*
X144019000Y-60934500D01*
X144019000Y-61686500D01*
X141351000Y-61686500D01*
X141351000Y-60060500D01*
X141370685Y-59993461D01*
X141423489Y-59947706D01*
X141475000Y-59936500D01*
X157635019Y-59936500D01*
X157702058Y-59956185D01*
G37*
%TD.AperFunction*%
%TD*%
M02*
