M48
; DRILL file {KiCad 9.0.5} date 2025-10-30T10:34:48+0900
; FORMAT={-:-/ absolute / inch / decimal}
; #@! TF.CreationDate,2025-10-30T10:34:48+09:00
; #@! TF.GenerationSoftware,Kicad,Pcbnew,9.0.5
; #@! TF.FileFunction,Plated,1,2,PTH
FMAT,2
INCH
; #@! TA.AperFunction,Plated,PTH,ViaDrill
T1C0.0157
; #@! TA.AperFunction,Plated,PTH,ComponentDrill
T2C0.0394
%
G90
G05
T1
X5.77Y-2.59
X5.85Y-2.49
X5.8669Y-3.1069
X5.88Y-2.78
X5.925Y-2.845
X6.0703Y-2.8853
X6.1621Y-2.7648
X6.205Y-2.5115
X6.2329Y-3.015
X6.26Y-2.68
X6.26Y-2.89
X6.275Y-3.015
X6.2752Y-2.8495
X6.298Y-2.772
X6.3051Y-3.0404
X6.31Y-2.405
X6.3529Y-3.0883
X6.3557Y-2.6644
X6.3814Y-2.7837
X6.3997Y-2.7488
X6.4045Y-2.8598
X6.405Y-2.5
X6.455Y-2.795
X6.4759Y-2.8283
X6.4762Y-2.7353
X6.55Y-2.9252
X6.5865Y-2.7
X6.615Y-2.82
X6.625Y-2.495
X6.625Y-3.16
X6.715Y-2.815
X6.77Y-2.535
X6.81Y-2.505
X6.85Y-3.165
X6.895Y-3.0002
X6.905Y-2.845
X6.955Y-2.54
X7.015Y-2.785
T2
X5.5674Y-2.7324
X5.5674Y-2.8324
X5.6674Y-3.425
X5.7674Y-3.425
X5.8674Y-3.425
X5.9674Y-3.425
X6.0674Y-3.425
X6.1674Y-3.425
X6.2674Y-3.425
X6.3674Y-3.425
X6.4674Y-3.425
X6.6774Y-3.425
X6.7774Y-3.425
X6.8774Y-3.425
X6.9774Y-3.425
X7.1046Y-2.62
X7.1046Y-2.72
X7.1046Y-2.82
X7.2046Y-2.62
X7.2046Y-2.72
X7.2046Y-2.82
X7.205Y-2.96
X7.205Y-3.06
X7.205Y-3.16
X7.205Y-3.26
M30
