%TF.GenerationSoftware,KiCad,Pcbnew,9.0.5*%
%TF.CreationDate,2025-10-31T14:09:04+09:00*%
%TF.ProjectId,MCU_Datalogger,4d43555f-4461-4746-916c-6f676765722e,1*%
%TF.SameCoordinates,Original*%
%TF.FileFunction,Copper,L4,Bot*%
%TF.FilePolarity,Positive*%
%FSLAX46Y46*%
G04 Gerber Fmt 4.6, Leading zero omitted, Abs format (unit mm)*
G04 Created by KiCad (PCBNEW 9.0.5) date 2025-10-31 14:09:04*
%MOMM*%
%LPD*%
G01*
G04 APERTURE LIST*
%TA.AperFunction,ComponentPad*%
%ADD10R,1.700000X1.700000*%
%TD*%
%TA.AperFunction,ComponentPad*%
%ADD11C,1.700000*%
%TD*%
%TA.AperFunction,ViaPad*%
%ADD12C,0.800000*%
%TD*%
%TA.AperFunction,ViaPad*%
%ADD13C,0.900000*%
%TD*%
G04 APERTURE END LIST*
D10*
%TO.P,J3,1,Pin_1*%
%TO.N,GND*%
X169607000Y-86995000D03*
D11*
%TO.P,J3,2,Pin_2*%
%TO.N,/VCC*%
X172147000Y-86995000D03*
%TO.P,J3,3,Pin_3*%
%TO.N,/RX*%
X174687000Y-86995000D03*
%TO.P,J3,4,Pin_4*%
%TO.N,/TX*%
X177227000Y-86995000D03*
%TD*%
D10*
%TO.P,BAT1,1*%
%TO.N,/VCC*%
X141605000Y-69337000D03*
D11*
%TO.P,BAT1,2*%
%TO.N,GND*%
X141605000Y-71877000D03*
%TD*%
D10*
%TO.P,J4,1,Pin_1*%
%TO.N,/MISO*%
X180457000Y-66548000D03*
D11*
%TO.P,J4,2,Pin_2*%
%TO.N,/VCC*%
X182997000Y-66548000D03*
%TO.P,J4,3,Pin_3*%
%TO.N,/SCK*%
X180457000Y-69088000D03*
%TO.P,J4,4,Pin_4*%
%TO.N,/MOSI*%
X182997000Y-69088000D03*
%TO.P,J4,5,Pin_5*%
%TO.N,/RESET*%
X180457000Y-71628000D03*
%TO.P,J4,6,Pin_6*%
%TO.N,GND*%
X182997000Y-71628000D03*
%TD*%
D10*
%TO.P,J1,1,Pin_1*%
%TO.N,GND*%
X183007000Y-75184000D03*
D11*
%TO.P,J1,2,Pin_2*%
%TO.N,/VCC*%
X183007000Y-77724000D03*
%TO.P,J1,3,Pin_3*%
%TO.N,/SDA*%
X183007000Y-80264000D03*
%TO.P,J1,4,Pin_4*%
%TO.N,/SCL*%
X183007000Y-82804000D03*
%TD*%
D10*
%TO.P,J2,1,Pin_1*%
%TO.N,/D2*%
X143953000Y-86995000D03*
D11*
%TO.P,J2,2,Pin_2*%
%TO.N,/D3*%
X146493000Y-86995000D03*
%TO.P,J2,3,Pin_3*%
%TO.N,/D4*%
X149033000Y-86995000D03*
%TO.P,J2,4,Pin_4*%
%TO.N,/D5*%
X151573000Y-86995000D03*
%TO.P,J2,5,Pin_5*%
%TO.N,/D6*%
X154113000Y-86995000D03*
%TO.P,J2,6,Pin_6*%
%TO.N,/D7*%
X156653000Y-86995000D03*
%TO.P,J2,7,Pin_7*%
%TO.N,/D8*%
X159193000Y-86995000D03*
%TO.P,J2,8,Pin_8*%
%TO.N,GND*%
X161733000Y-86995000D03*
%TO.P,J2,9,Pin_9*%
%TO.N,/VCC*%
X164273000Y-86995000D03*
%TD*%
D12*
%TO.N,/SCL*%
X170053000Y-74676000D03*
X171831000Y-74803000D03*
X150009665Y-78699594D03*
X151130000Y-64516000D03*
X150876000Y-71755000D03*
X162433000Y-67945000D03*
X168783000Y-73152000D03*
%TO.N,/SCK*%
X178054000Y-68453000D03*
X167767000Y-73787000D03*
D13*
%TO.N,GND*%
X147066000Y-63246000D03*
X171704000Y-81788000D03*
X158496000Y-60706000D03*
X148527000Y-79883000D03*
X147066000Y-73025000D03*
X176657000Y-64897000D03*
X159385000Y-69469000D03*
X150876000Y-63119000D03*
X167513000Y-70201000D03*
X171958000Y-78168000D03*
X168402000Y-62103000D03*
X160274000Y-60833000D03*
X151574000Y-70485000D03*
X159131000Y-70993000D03*
X160070929Y-62103000D03*
X173228000Y-66421000D03*
X146939000Y-65786000D03*
%TO.N,/VCC*%
X147193000Y-71755000D03*
X147066000Y-64516000D03*
X145414986Y-81448713D03*
X165100000Y-63754000D03*
X156210000Y-60386000D03*
X171958000Y-63754000D03*
X152019000Y-74676000D03*
X152654000Y-67818000D03*
X156122614Y-70524614D03*
X174752000Y-71374000D03*
X172795364Y-71044636D03*
X172974000Y-73660000D03*
X151003000Y-61976000D03*
X167513000Y-72601000D03*
X152273000Y-81407000D03*
D12*
%TO.N,Net-(U4-PB6)*%
X158623000Y-77597000D03*
X156083000Y-72644000D03*
%TO.N,Net-(U4-PB7)*%
X161798000Y-77470000D03*
X163449000Y-77597000D03*
X156173000Y-73660000D03*
X160070929Y-63844000D03*
%TO.N,/SDA*%
X165608000Y-64770000D03*
X150749000Y-73025000D03*
X150114000Y-79883000D03*
X153199754Y-66862930D03*
%TO.N,/TX*%
X159766000Y-68072000D03*
%TO.N,/RX*%
X160528000Y-69088000D03*
%TO.N,/MISO*%
X166497000Y-74930000D03*
%TO.N,/MOSI*%
X165735000Y-75819000D03*
%TO.N,/RESET*%
X161384085Y-67474001D03*
%TD*%
%TA.AperFunction,Conductor*%
%TO.N,GND*%
G36*
X181798444Y-69741999D02*
G01*
X181837484Y-69787054D01*
X181841591Y-69795115D01*
X181841951Y-69795820D01*
X181966890Y-69967786D01*
X182117213Y-70118109D01*
X182289179Y-70243048D01*
X182289181Y-70243049D01*
X182289184Y-70243051D01*
X182298493Y-70247794D01*
X182349290Y-70295766D01*
X182366087Y-70363587D01*
X182343552Y-70429722D01*
X182298505Y-70468760D01*
X182289446Y-70473376D01*
X182289440Y-70473380D01*
X182235282Y-70512727D01*
X182235282Y-70512728D01*
X182867591Y-71145037D01*
X182804007Y-71162075D01*
X182689993Y-71227901D01*
X182596901Y-71320993D01*
X182531075Y-71435007D01*
X182514037Y-71498591D01*
X181881728Y-70866282D01*
X181881727Y-70866282D01*
X181842380Y-70920440D01*
X181842376Y-70920446D01*
X181837760Y-70929505D01*
X181789781Y-70980297D01*
X181721959Y-70997087D01*
X181655826Y-70974543D01*
X181616794Y-70929493D01*
X181612051Y-70920184D01*
X181612049Y-70920181D01*
X181612048Y-70920179D01*
X181487109Y-70748213D01*
X181336786Y-70597890D01*
X181164820Y-70472951D01*
X181156600Y-70468763D01*
X181156054Y-70468485D01*
X181105259Y-70420512D01*
X181088463Y-70352692D01*
X181110999Y-70286556D01*
X181156054Y-70247515D01*
X181164816Y-70243051D01*
X181245405Y-70184500D01*
X181336786Y-70118109D01*
X181336788Y-70118106D01*
X181336792Y-70118104D01*
X181487104Y-69967792D01*
X181487106Y-69967788D01*
X181487109Y-69967786D01*
X181612048Y-69795820D01*
X181612047Y-69795820D01*
X181612051Y-69795816D01*
X181616514Y-69787054D01*
X181664488Y-69736259D01*
X181732308Y-69719463D01*
X181798444Y-69741999D01*
G37*
%TD.AperFunction*%
%TA.AperFunction,Conductor*%
G36*
X155248835Y-59956185D02*
G01*
X155294590Y-60008989D01*
X155304534Y-60078147D01*
X155297741Y-60102905D01*
X155297795Y-60102922D01*
X155297184Y-60104935D01*
X155296356Y-60107954D01*
X155296028Y-60108743D01*
X155296025Y-60108756D01*
X155259500Y-60292379D01*
X155259500Y-60479620D01*
X155296025Y-60663243D01*
X155296027Y-60663251D01*
X155367676Y-60836228D01*
X155367681Y-60836237D01*
X155471697Y-60991907D01*
X155471700Y-60991911D01*
X155604088Y-61124299D01*
X155604092Y-61124302D01*
X155759762Y-61228318D01*
X155759771Y-61228323D01*
X155782409Y-61237700D01*
X155932749Y-61299973D01*
X156116379Y-61336499D01*
X156116383Y-61336500D01*
X156116384Y-61336500D01*
X156303617Y-61336500D01*
X156303618Y-61336499D01*
X156487251Y-61299973D01*
X156521376Y-61285838D01*
X161519000Y-61285838D01*
X161519000Y-61686500D01*
X163021000Y-61686500D01*
X164019000Y-61686500D01*
X165521000Y-61686500D01*
X166519000Y-61686500D01*
X167145193Y-61686500D01*
X167171985Y-61604042D01*
X167179431Y-61586065D01*
X167265183Y-61417768D01*
X167275350Y-61401178D01*
X167386373Y-61248367D01*
X167399010Y-61233571D01*
X167532571Y-61100010D01*
X167547367Y-61087373D01*
X167700178Y-60976350D01*
X167716768Y-60966183D01*
X167778949Y-60934500D01*
X169025051Y-60934500D01*
X169087232Y-60966183D01*
X169103822Y-60976350D01*
X169256633Y-61087373D01*
X169271429Y-61100010D01*
X169404990Y-61233571D01*
X169417627Y-61248367D01*
X169528650Y-61401178D01*
X169538817Y-61417768D01*
X169624569Y-61586065D01*
X169632015Y-61604042D01*
X169658807Y-61686500D01*
X170521000Y-61686500D01*
X171519000Y-61686500D01*
X173021000Y-61686500D01*
X174019000Y-61686500D01*
X175521000Y-61686500D01*
X176519000Y-61686500D01*
X178021000Y-61686500D01*
X178021000Y-60934500D01*
X176519000Y-60934500D01*
X176519000Y-61686500D01*
X175521000Y-61686500D01*
X175521000Y-60934500D01*
X174019000Y-60934500D01*
X174019000Y-61686500D01*
X173021000Y-61686500D01*
X173021000Y-60934500D01*
X171519000Y-60934500D01*
X171519000Y-61686500D01*
X170521000Y-61686500D01*
X170521000Y-60934500D01*
X169025051Y-60934500D01*
X167778949Y-60934500D01*
X166519000Y-60934500D01*
X166519000Y-61686500D01*
X165521000Y-61686500D01*
X165521000Y-60934500D01*
X164019000Y-60934500D01*
X164019000Y-61686500D01*
X163021000Y-61686500D01*
X163021000Y-60934500D01*
X161597444Y-60934500D01*
X161596473Y-60946840D01*
X161566925Y-61133399D01*
X161562383Y-61152319D01*
X161519000Y-61285838D01*
X156521376Y-61285838D01*
X156660231Y-61228322D01*
X156815908Y-61124302D01*
X156948302Y-60991908D01*
X157052322Y-60836231D01*
X157123973Y-60663251D01*
X157160500Y-60479616D01*
X157160500Y-60292384D01*
X157123973Y-60108749D01*
X157123644Y-60107954D01*
X157123595Y-60107506D01*
X157122205Y-60102922D01*
X157123074Y-60102658D01*
X157116174Y-60038485D01*
X157147448Y-59976005D01*
X157207537Y-59940352D01*
X157238204Y-59936500D01*
X179962000Y-59936500D01*
X180029039Y-59956185D01*
X180074794Y-60008989D01*
X180086000Y-60060500D01*
X180086000Y-64262000D01*
X180467000Y-64643000D01*
X185176500Y-64643000D01*
X185243539Y-64662685D01*
X185289294Y-64715489D01*
X185300500Y-64767000D01*
X185300500Y-84204000D01*
X185280815Y-84271039D01*
X185228011Y-84316794D01*
X185176500Y-84328000D01*
X183469823Y-84328000D01*
X183402784Y-84308315D01*
X183357029Y-84255511D01*
X183347085Y-84186353D01*
X183376110Y-84122797D01*
X183431503Y-84086069D01*
X183525412Y-84055557D01*
X183714816Y-83959051D01*
X183736789Y-83943086D01*
X183886786Y-83834109D01*
X183886788Y-83834106D01*
X183886792Y-83834104D01*
X184037104Y-83683792D01*
X184037106Y-83683788D01*
X184037109Y-83683786D01*
X184162048Y-83511820D01*
X184162047Y-83511820D01*
X184162051Y-83511816D01*
X184258557Y-83322412D01*
X184324246Y-83120243D01*
X184357500Y-82910287D01*
X184357500Y-82697713D01*
X184324246Y-82487757D01*
X184258557Y-82285588D01*
X184162051Y-82096184D01*
X184162049Y-82096181D01*
X184162048Y-82096179D01*
X184037109Y-81924213D01*
X183886786Y-81773890D01*
X183714820Y-81648951D01*
X183714115Y-81648591D01*
X183706054Y-81644485D01*
X183655259Y-81596512D01*
X183638463Y-81528692D01*
X183660999Y-81462556D01*
X183706054Y-81423515D01*
X183714816Y-81419051D01*
X183802842Y-81355097D01*
X183886786Y-81294109D01*
X183886788Y-81294106D01*
X183886792Y-81294104D01*
X184037104Y-81143792D01*
X184037106Y-81143788D01*
X184037109Y-81143786D01*
X184162048Y-80971820D01*
X184162047Y-80971820D01*
X184162051Y-80971816D01*
X184258557Y-80782412D01*
X184324246Y-80580243D01*
X184357500Y-80370287D01*
X184357500Y-80157713D01*
X184324246Y-79947757D01*
X184258557Y-79745588D01*
X184162051Y-79556184D01*
X184162049Y-79556181D01*
X184162048Y-79556179D01*
X184037109Y-79384213D01*
X183886786Y-79233890D01*
X183714820Y-79108951D01*
X183714115Y-79108591D01*
X183706054Y-79104485D01*
X183655259Y-79056512D01*
X183638463Y-78988692D01*
X183660999Y-78922556D01*
X183706054Y-78883515D01*
X183714816Y-78879051D01*
X183738684Y-78861710D01*
X183886786Y-78754109D01*
X183886788Y-78754106D01*
X183886792Y-78754104D01*
X184037104Y-78603792D01*
X184037106Y-78603788D01*
X184037109Y-78603786D01*
X184162048Y-78431820D01*
X184162047Y-78431820D01*
X184162051Y-78431816D01*
X184258557Y-78242412D01*
X184324246Y-78040243D01*
X184357500Y-77830287D01*
X184357500Y-77617713D01*
X184324246Y-77407757D01*
X184258557Y-77205588D01*
X184162051Y-77016184D01*
X184162049Y-77016181D01*
X184162048Y-77016179D01*
X184037109Y-76844213D01*
X183923181Y-76730285D01*
X183889696Y-76668962D01*
X183894680Y-76599270D01*
X183936552Y-76543337D01*
X183967529Y-76526422D01*
X184099086Y-76477354D01*
X184099093Y-76477350D01*
X184214187Y-76391190D01*
X184214190Y-76391187D01*
X184300350Y-76276093D01*
X184300354Y-76276086D01*
X184350596Y-76141379D01*
X184350598Y-76141372D01*
X184356999Y-76081844D01*
X184357000Y-76081827D01*
X184357000Y-75434000D01*
X183440012Y-75434000D01*
X183472925Y-75376993D01*
X183507000Y-75249826D01*
X183507000Y-75118174D01*
X183472925Y-74991007D01*
X183440012Y-74934000D01*
X184357000Y-74934000D01*
X184357000Y-74286172D01*
X184356999Y-74286155D01*
X184350598Y-74226627D01*
X184350596Y-74226620D01*
X184300354Y-74091913D01*
X184300350Y-74091906D01*
X184214190Y-73976812D01*
X184214187Y-73976809D01*
X184099093Y-73890649D01*
X184099086Y-73890645D01*
X183964379Y-73840403D01*
X183964372Y-73840401D01*
X183904844Y-73834000D01*
X183257000Y-73834000D01*
X183257000Y-74750988D01*
X183199993Y-74718075D01*
X183072826Y-74684000D01*
X182941174Y-74684000D01*
X182814007Y-74718075D01*
X182757000Y-74750988D01*
X182757000Y-73834000D01*
X182109155Y-73834000D01*
X182049627Y-73840401D01*
X182049620Y-73840403D01*
X181914913Y-73890645D01*
X181914906Y-73890649D01*
X181799812Y-73976809D01*
X181799809Y-73976812D01*
X181713649Y-74091906D01*
X181713645Y-74091913D01*
X181663403Y-74226620D01*
X181663401Y-74226627D01*
X181657000Y-74286155D01*
X181657000Y-74934000D01*
X182573988Y-74934000D01*
X182541075Y-74991007D01*
X182507000Y-75118174D01*
X182507000Y-75249826D01*
X182541075Y-75376993D01*
X182573988Y-75434000D01*
X181657000Y-75434000D01*
X181657000Y-76081844D01*
X181663401Y-76141372D01*
X181663403Y-76141379D01*
X181713645Y-76276086D01*
X181713649Y-76276093D01*
X181799809Y-76391187D01*
X181799812Y-76391190D01*
X181914906Y-76477350D01*
X181914913Y-76477354D01*
X182046470Y-76526422D01*
X182102404Y-76568293D01*
X182126821Y-76633758D01*
X182111969Y-76702031D01*
X182090819Y-76730285D01*
X181976889Y-76844215D01*
X181851951Y-77016179D01*
X181755444Y-77205585D01*
X181689753Y-77407760D01*
X181656500Y-77617713D01*
X181656500Y-77830287D01*
X181662552Y-77868499D01*
X181687110Y-78023553D01*
X181689754Y-78040243D01*
X181747819Y-78218949D01*
X181755444Y-78242414D01*
X181851951Y-78431820D01*
X181976890Y-78603786D01*
X182127213Y-78754109D01*
X182299182Y-78879050D01*
X182307946Y-78883516D01*
X182358742Y-78931491D01*
X182375536Y-78999312D01*
X182352998Y-79065447D01*
X182307946Y-79104484D01*
X182299182Y-79108949D01*
X182127213Y-79233890D01*
X181976890Y-79384213D01*
X181851951Y-79556179D01*
X181755444Y-79745585D01*
X181755443Y-79745587D01*
X181755443Y-79745588D01*
X181739613Y-79794309D01*
X181689753Y-79947760D01*
X181656500Y-80157713D01*
X181656500Y-80370286D01*
X181687851Y-80568232D01*
X181689754Y-80580243D01*
X181753405Y-80776141D01*
X181755444Y-80782414D01*
X181851951Y-80971820D01*
X181976890Y-81143786D01*
X182127213Y-81294109D01*
X182299182Y-81419050D01*
X182307946Y-81423516D01*
X182358742Y-81471491D01*
X182375536Y-81539312D01*
X182352998Y-81605447D01*
X182307946Y-81644484D01*
X182299182Y-81648949D01*
X182127213Y-81773890D01*
X181976890Y-81924213D01*
X181851951Y-82096179D01*
X181755444Y-82285585D01*
X181689753Y-82487760D01*
X181658593Y-82684500D01*
X181656500Y-82697713D01*
X181656500Y-82910287D01*
X181666534Y-82973644D01*
X181688206Y-83110473D01*
X181689754Y-83120243D01*
X181751603Y-83310595D01*
X181755444Y-83322414D01*
X181851951Y-83511820D01*
X181976890Y-83683786D01*
X182127213Y-83834109D01*
X182299179Y-83959048D01*
X182299181Y-83959049D01*
X182299184Y-83959051D01*
X182488588Y-84055557D01*
X182582496Y-84086069D01*
X182640171Y-84125507D01*
X182667369Y-84189865D01*
X182655454Y-84258712D01*
X182608210Y-84310187D01*
X182544177Y-84328000D01*
X180467000Y-84328000D01*
X180467000Y-89037500D01*
X180447315Y-89104539D01*
X180394511Y-89150294D01*
X180343000Y-89161500D01*
X141602000Y-89161500D01*
X141534961Y-89141815D01*
X141489206Y-89089011D01*
X141478000Y-89037500D01*
X141478000Y-86097135D01*
X142602500Y-86097135D01*
X142602500Y-87892870D01*
X142602501Y-87892876D01*
X142608908Y-87952483D01*
X142659202Y-88087328D01*
X142659206Y-88087335D01*
X142745452Y-88202544D01*
X142745455Y-88202547D01*
X142860664Y-88288793D01*
X142860671Y-88288797D01*
X142995517Y-88339091D01*
X142995516Y-88339091D01*
X143002444Y-88339835D01*
X143055127Y-88345500D01*
X144850872Y-88345499D01*
X144910483Y-88339091D01*
X145045331Y-88288796D01*
X145160546Y-88202546D01*
X145246796Y-88087331D01*
X145295810Y-87955916D01*
X145337681Y-87899984D01*
X145403145Y-87875566D01*
X145471418Y-87890417D01*
X145499673Y-87911569D01*
X145613213Y-88025109D01*
X145785179Y-88150048D01*
X145785181Y-88150049D01*
X145785184Y-88150051D01*
X145974588Y-88246557D01*
X146176757Y-88312246D01*
X146386713Y-88345500D01*
X146386714Y-88345500D01*
X146599286Y-88345500D01*
X146599287Y-88345500D01*
X146809243Y-88312246D01*
X147011412Y-88246557D01*
X147200816Y-88150051D01*
X147287138Y-88087335D01*
X147372786Y-88025109D01*
X147372788Y-88025106D01*
X147372792Y-88025104D01*
X147523104Y-87874792D01*
X147523106Y-87874788D01*
X147523109Y-87874786D01*
X147648048Y-87702820D01*
X147648047Y-87702820D01*
X147648051Y-87702816D01*
X147652514Y-87694054D01*
X147700488Y-87643259D01*
X147768308Y-87626463D01*
X147834444Y-87648999D01*
X147873486Y-87694056D01*
X147877951Y-87702820D01*
X148002890Y-87874786D01*
X148153213Y-88025109D01*
X148325179Y-88150048D01*
X148325181Y-88150049D01*
X148325184Y-88150051D01*
X148514588Y-88246557D01*
X148716757Y-88312246D01*
X148926713Y-88345500D01*
X148926714Y-88345500D01*
X149139286Y-88345500D01*
X149139287Y-88345500D01*
X149349243Y-88312246D01*
X149551412Y-88246557D01*
X149740816Y-88150051D01*
X149827138Y-88087335D01*
X149912786Y-88025109D01*
X149912788Y-88025106D01*
X149912792Y-88025104D01*
X150063104Y-87874792D01*
X150063106Y-87874788D01*
X150063109Y-87874786D01*
X150188048Y-87702820D01*
X150188047Y-87702820D01*
X150188051Y-87702816D01*
X150192514Y-87694054D01*
X150240488Y-87643259D01*
X150308308Y-87626463D01*
X150374444Y-87648999D01*
X150413486Y-87694056D01*
X150417951Y-87702820D01*
X150542890Y-87874786D01*
X150693213Y-88025109D01*
X150865179Y-88150048D01*
X150865181Y-88150049D01*
X150865184Y-88150051D01*
X151054588Y-88246557D01*
X151256757Y-88312246D01*
X151466713Y-88345500D01*
X151466714Y-88345500D01*
X151679286Y-88345500D01*
X151679287Y-88345500D01*
X151889243Y-88312246D01*
X152091412Y-88246557D01*
X152280816Y-88150051D01*
X152367138Y-88087335D01*
X152452786Y-88025109D01*
X152452788Y-88025106D01*
X152452792Y-88025104D01*
X152603104Y-87874792D01*
X152603106Y-87874788D01*
X152603109Y-87874786D01*
X152728048Y-87702820D01*
X152728047Y-87702820D01*
X152728051Y-87702816D01*
X152732514Y-87694054D01*
X152780488Y-87643259D01*
X152848308Y-87626463D01*
X152914444Y-87648999D01*
X152953486Y-87694056D01*
X152957951Y-87702820D01*
X153082890Y-87874786D01*
X153233213Y-88025109D01*
X153405179Y-88150048D01*
X153405181Y-88150049D01*
X153405184Y-88150051D01*
X153594588Y-88246557D01*
X153796757Y-88312246D01*
X154006713Y-88345500D01*
X154006714Y-88345500D01*
X154219286Y-88345500D01*
X154219287Y-88345500D01*
X154429243Y-88312246D01*
X154631412Y-88246557D01*
X154820816Y-88150051D01*
X154907138Y-88087335D01*
X154992786Y-88025109D01*
X154992788Y-88025106D01*
X154992792Y-88025104D01*
X155143104Y-87874792D01*
X155143106Y-87874788D01*
X155143109Y-87874786D01*
X155268048Y-87702820D01*
X155268047Y-87702820D01*
X155268051Y-87702816D01*
X155272514Y-87694054D01*
X155320488Y-87643259D01*
X155388308Y-87626463D01*
X155454444Y-87648999D01*
X155493486Y-87694056D01*
X155497951Y-87702820D01*
X155622890Y-87874786D01*
X155773213Y-88025109D01*
X155945179Y-88150048D01*
X155945181Y-88150049D01*
X155945184Y-88150051D01*
X156134588Y-88246557D01*
X156336757Y-88312246D01*
X156546713Y-88345500D01*
X156546714Y-88345500D01*
X156759286Y-88345500D01*
X156759287Y-88345500D01*
X156969243Y-88312246D01*
X157171412Y-88246557D01*
X157360816Y-88150051D01*
X157447138Y-88087335D01*
X157532786Y-88025109D01*
X157532788Y-88025106D01*
X157532792Y-88025104D01*
X157683104Y-87874792D01*
X157683106Y-87874788D01*
X157683109Y-87874786D01*
X157808048Y-87702820D01*
X157808047Y-87702820D01*
X157808051Y-87702816D01*
X157812514Y-87694054D01*
X157860488Y-87643259D01*
X157928308Y-87626463D01*
X157994444Y-87648999D01*
X158033486Y-87694056D01*
X158037951Y-87702820D01*
X158162890Y-87874786D01*
X158313213Y-88025109D01*
X158485179Y-88150048D01*
X158485181Y-88150049D01*
X158485184Y-88150051D01*
X158674588Y-88246557D01*
X158876757Y-88312246D01*
X159086713Y-88345500D01*
X159086714Y-88345500D01*
X159299286Y-88345500D01*
X159299287Y-88345500D01*
X159509243Y-88312246D01*
X159711412Y-88246557D01*
X159900816Y-88150051D01*
X159987138Y-88087335D01*
X160072786Y-88025109D01*
X160072788Y-88025106D01*
X160072792Y-88025104D01*
X160223104Y-87874792D01*
X160223106Y-87874788D01*
X160223109Y-87874786D01*
X160308890Y-87756717D01*
X160348051Y-87702816D01*
X160352793Y-87693508D01*
X160400763Y-87642711D01*
X160468583Y-87625911D01*
X160534719Y-87648445D01*
X160573763Y-87693500D01*
X160578373Y-87702547D01*
X160617728Y-87756716D01*
X161250037Y-87124408D01*
X161267075Y-87187993D01*
X161332901Y-87302007D01*
X161425993Y-87395099D01*
X161540007Y-87460925D01*
X161603590Y-87477962D01*
X160971282Y-88110269D01*
X160971282Y-88110270D01*
X161025449Y-88149624D01*
X161214782Y-88246095D01*
X161416870Y-88311757D01*
X161626754Y-88345000D01*
X161839246Y-88345000D01*
X162049127Y-88311757D01*
X162049130Y-88311757D01*
X162251217Y-88246095D01*
X162440554Y-88149622D01*
X162494716Y-88110270D01*
X162494717Y-88110270D01*
X161862408Y-87477962D01*
X161925993Y-87460925D01*
X162040007Y-87395099D01*
X162133099Y-87302007D01*
X162198925Y-87187993D01*
X162215962Y-87124409D01*
X162848270Y-87756717D01*
X162848270Y-87756716D01*
X162887622Y-87702555D01*
X162892232Y-87693507D01*
X162940205Y-87642709D01*
X163008025Y-87625912D01*
X163074161Y-87648447D01*
X163113204Y-87693504D01*
X163117949Y-87702817D01*
X163242890Y-87874786D01*
X163393213Y-88025109D01*
X163565179Y-88150048D01*
X163565181Y-88150049D01*
X163565184Y-88150051D01*
X163754588Y-88246557D01*
X163956757Y-88312246D01*
X164166713Y-88345500D01*
X164166714Y-88345500D01*
X164379286Y-88345500D01*
X164379287Y-88345500D01*
X164589243Y-88312246D01*
X164791412Y-88246557D01*
X164980816Y-88150051D01*
X165067138Y-88087335D01*
X165152786Y-88025109D01*
X165152788Y-88025106D01*
X165152792Y-88025104D01*
X165303104Y-87874792D01*
X165303106Y-87874788D01*
X165303109Y-87874786D01*
X165428048Y-87702820D01*
X165428047Y-87702820D01*
X165428051Y-87702816D01*
X165524557Y-87513412D01*
X165590246Y-87311243D01*
X165623500Y-87101287D01*
X165623500Y-86888713D01*
X165590246Y-86678757D01*
X165524557Y-86476588D01*
X165438440Y-86307573D01*
X166519000Y-86307573D01*
X166545455Y-86388993D01*
X166546869Y-86393653D01*
X166554862Y-86421995D01*
X166556089Y-86426700D01*
X166565242Y-86464817D01*
X166566287Y-86469577D01*
X166572036Y-86498477D01*
X166572892Y-86503272D01*
X166601912Y-86686500D01*
X167259000Y-86686500D01*
X167259000Y-86097155D01*
X168257000Y-86097155D01*
X168257000Y-86745000D01*
X169173988Y-86745000D01*
X169141075Y-86802007D01*
X169107000Y-86929174D01*
X169107000Y-87060826D01*
X169141075Y-87187993D01*
X169173988Y-87245000D01*
X168257000Y-87245000D01*
X168257000Y-87892844D01*
X168263401Y-87952372D01*
X168263403Y-87952379D01*
X168313645Y-88087086D01*
X168313649Y-88087093D01*
X168399809Y-88202187D01*
X168399812Y-88202190D01*
X168514906Y-88288350D01*
X168514913Y-88288354D01*
X168649620Y-88338596D01*
X168649627Y-88338598D01*
X168709155Y-88344999D01*
X168709172Y-88345000D01*
X169357000Y-88345000D01*
X169357000Y-87428012D01*
X169414007Y-87460925D01*
X169541174Y-87495000D01*
X169672826Y-87495000D01*
X169799993Y-87460925D01*
X169857000Y-87428012D01*
X169857000Y-88345000D01*
X170504828Y-88345000D01*
X170504844Y-88344999D01*
X170564372Y-88338598D01*
X170564379Y-88338596D01*
X170699086Y-88288354D01*
X170699093Y-88288350D01*
X170814187Y-88202190D01*
X170814190Y-88202187D01*
X170900350Y-88087093D01*
X170900354Y-88087086D01*
X170949422Y-87955529D01*
X170991293Y-87899595D01*
X171056757Y-87875178D01*
X171125030Y-87890030D01*
X171153285Y-87911181D01*
X171267213Y-88025109D01*
X171439179Y-88150048D01*
X171439181Y-88150049D01*
X171439184Y-88150051D01*
X171628588Y-88246557D01*
X171830757Y-88312246D01*
X172040713Y-88345500D01*
X172040714Y-88345500D01*
X172253286Y-88345500D01*
X172253287Y-88345500D01*
X172463243Y-88312246D01*
X172665412Y-88246557D01*
X172854816Y-88150051D01*
X172941138Y-88087335D01*
X173026786Y-88025109D01*
X173026788Y-88025106D01*
X173026792Y-88025104D01*
X173177104Y-87874792D01*
X173177106Y-87874788D01*
X173177109Y-87874786D01*
X173302048Y-87702820D01*
X173302047Y-87702820D01*
X173302051Y-87702816D01*
X173306514Y-87694054D01*
X173354488Y-87643259D01*
X173422308Y-87626463D01*
X173488444Y-87648999D01*
X173527486Y-87694056D01*
X173531951Y-87702820D01*
X173656890Y-87874786D01*
X173807213Y-88025109D01*
X173979179Y-88150048D01*
X173979181Y-88150049D01*
X173979184Y-88150051D01*
X174168588Y-88246557D01*
X174370757Y-88312246D01*
X174580713Y-88345500D01*
X174580714Y-88345500D01*
X174793286Y-88345500D01*
X174793287Y-88345500D01*
X175003243Y-88312246D01*
X175205412Y-88246557D01*
X175394816Y-88150051D01*
X175481138Y-88087335D01*
X175566786Y-88025109D01*
X175566788Y-88025106D01*
X175566792Y-88025104D01*
X175717104Y-87874792D01*
X175717106Y-87874788D01*
X175717109Y-87874786D01*
X175842048Y-87702820D01*
X175842047Y-87702820D01*
X175842051Y-87702816D01*
X175846514Y-87694054D01*
X175894488Y-87643259D01*
X175962308Y-87626463D01*
X176028444Y-87648999D01*
X176067486Y-87694056D01*
X176071951Y-87702820D01*
X176196890Y-87874786D01*
X176347213Y-88025109D01*
X176519179Y-88150048D01*
X176519181Y-88150049D01*
X176519184Y-88150051D01*
X176708588Y-88246557D01*
X176910757Y-88312246D01*
X177120713Y-88345500D01*
X177120714Y-88345500D01*
X177333286Y-88345500D01*
X177333287Y-88345500D01*
X177543243Y-88312246D01*
X177745412Y-88246557D01*
X177934816Y-88150051D01*
X178021138Y-88087335D01*
X178106786Y-88025109D01*
X178106788Y-88025106D01*
X178106792Y-88025104D01*
X178257104Y-87874792D01*
X178257106Y-87874788D01*
X178257109Y-87874786D01*
X178382048Y-87702820D01*
X178382047Y-87702820D01*
X178382051Y-87702816D01*
X178478557Y-87513412D01*
X178544246Y-87311243D01*
X178577500Y-87101287D01*
X178577500Y-86888713D01*
X178544246Y-86678757D01*
X178478557Y-86476588D01*
X178382051Y-86287184D01*
X178382049Y-86287181D01*
X178382048Y-86287179D01*
X178257109Y-86115213D01*
X178106786Y-85964890D01*
X177934820Y-85839951D01*
X177745414Y-85743444D01*
X177745413Y-85743443D01*
X177745412Y-85743443D01*
X177543243Y-85677754D01*
X177543241Y-85677753D01*
X177543240Y-85677753D01*
X177381957Y-85652208D01*
X177333287Y-85644500D01*
X177120713Y-85644500D01*
X177072042Y-85652208D01*
X176910760Y-85677753D01*
X176708585Y-85743444D01*
X176519179Y-85839951D01*
X176347213Y-85964890D01*
X176196890Y-86115213D01*
X176071949Y-86287182D01*
X176067484Y-86295946D01*
X176019509Y-86346742D01*
X175951688Y-86363536D01*
X175885553Y-86340998D01*
X175846516Y-86295946D01*
X175842050Y-86287182D01*
X175717109Y-86115213D01*
X175566786Y-85964890D01*
X175394820Y-85839951D01*
X175205414Y-85743444D01*
X175205413Y-85743443D01*
X175205412Y-85743443D01*
X175003243Y-85677754D01*
X175003241Y-85677753D01*
X175003240Y-85677753D01*
X174841957Y-85652208D01*
X174793287Y-85644500D01*
X174580713Y-85644500D01*
X174532042Y-85652208D01*
X174370760Y-85677753D01*
X174168585Y-85743444D01*
X173979179Y-85839951D01*
X173807213Y-85964890D01*
X173656890Y-86115213D01*
X173531949Y-86287182D01*
X173527484Y-86295946D01*
X173479509Y-86346742D01*
X173411688Y-86363536D01*
X173345553Y-86340998D01*
X173306516Y-86295946D01*
X173302050Y-86287182D01*
X173177109Y-86115213D01*
X173026786Y-85964890D01*
X172854820Y-85839951D01*
X172665414Y-85743444D01*
X172665413Y-85743443D01*
X172665412Y-85743443D01*
X172463243Y-85677754D01*
X172463241Y-85677753D01*
X172463240Y-85677753D01*
X172301957Y-85652208D01*
X172253287Y-85644500D01*
X172040713Y-85644500D01*
X171992042Y-85652208D01*
X171830760Y-85677753D01*
X171628585Y-85743444D01*
X171439179Y-85839951D01*
X171267215Y-85964889D01*
X171153285Y-86078819D01*
X171091962Y-86112303D01*
X171022270Y-86107319D01*
X170966337Y-86065447D01*
X170949422Y-86034470D01*
X170900354Y-85902913D01*
X170900350Y-85902906D01*
X170814190Y-85787812D01*
X170814187Y-85787809D01*
X170699093Y-85701649D01*
X170699086Y-85701645D01*
X170564379Y-85651403D01*
X170564372Y-85651401D01*
X170504844Y-85645000D01*
X169857000Y-85645000D01*
X169857000Y-86561988D01*
X169799993Y-86529075D01*
X169672826Y-86495000D01*
X169541174Y-86495000D01*
X169414007Y-86529075D01*
X169357000Y-86561988D01*
X169357000Y-85645000D01*
X168709155Y-85645000D01*
X168649627Y-85651401D01*
X168649620Y-85651403D01*
X168514913Y-85701645D01*
X168514906Y-85701649D01*
X168399812Y-85787809D01*
X168399809Y-85787812D01*
X168313649Y-85902906D01*
X168313645Y-85902913D01*
X168263403Y-86037620D01*
X168263401Y-86037627D01*
X168257000Y-86097155D01*
X167259000Y-86097155D01*
X167259000Y-86083823D01*
X167259044Y-86080509D01*
X167259580Y-86060461D01*
X167259713Y-86057145D01*
X167261142Y-86030458D01*
X167261364Y-86027144D01*
X167262977Y-86007095D01*
X167263289Y-86003783D01*
X167274455Y-85899931D01*
X167275522Y-85892262D01*
X167283428Y-85846084D01*
X167284972Y-85838499D01*
X167299315Y-85777788D01*
X167301332Y-85770305D01*
X167314942Y-85725436D01*
X167317421Y-85718096D01*
X167391030Y-85520739D01*
X167394419Y-85512559D01*
X167416677Y-85463823D01*
X167420638Y-85455909D01*
X167454815Y-85393319D01*
X167459333Y-85385705D01*
X167488297Y-85340638D01*
X167493345Y-85333368D01*
X167604788Y-85184500D01*
X166519000Y-85184500D01*
X166519000Y-86307573D01*
X165438440Y-86307573D01*
X165428051Y-86287184D01*
X165428049Y-86287181D01*
X165428048Y-86287179D01*
X165303109Y-86115213D01*
X165152786Y-85964890D01*
X164980820Y-85839951D01*
X164791414Y-85743444D01*
X164791413Y-85743443D01*
X164791412Y-85743443D01*
X164589243Y-85677754D01*
X164589241Y-85677753D01*
X164589240Y-85677753D01*
X164427957Y-85652208D01*
X164379287Y-85644500D01*
X164166713Y-85644500D01*
X164118042Y-85652208D01*
X163956760Y-85677753D01*
X163754585Y-85743444D01*
X163565179Y-85839951D01*
X163393213Y-85964890D01*
X163242890Y-86115213D01*
X163117949Y-86287182D01*
X163113202Y-86296499D01*
X163065227Y-86347293D01*
X162997405Y-86364087D01*
X162931271Y-86341548D01*
X162892234Y-86296495D01*
X162887626Y-86287452D01*
X162848270Y-86233282D01*
X162848269Y-86233282D01*
X162215962Y-86865590D01*
X162198925Y-86802007D01*
X162133099Y-86687993D01*
X162040007Y-86594901D01*
X161925993Y-86529075D01*
X161862409Y-86512037D01*
X162494716Y-85879728D01*
X162440550Y-85840375D01*
X162251217Y-85743904D01*
X162049129Y-85678242D01*
X161839246Y-85645000D01*
X161626754Y-85645000D01*
X161416872Y-85678242D01*
X161416869Y-85678242D01*
X161214782Y-85743904D01*
X161025439Y-85840380D01*
X160971282Y-85879727D01*
X160971282Y-85879728D01*
X161603591Y-86512037D01*
X161540007Y-86529075D01*
X161425993Y-86594901D01*
X161332901Y-86687993D01*
X161267075Y-86802007D01*
X161250037Y-86865591D01*
X160617728Y-86233282D01*
X160617727Y-86233282D01*
X160578380Y-86287440D01*
X160578376Y-86287446D01*
X160573760Y-86296505D01*
X160525781Y-86347297D01*
X160457959Y-86364087D01*
X160391826Y-86341543D01*
X160352794Y-86296493D01*
X160348051Y-86287184D01*
X160348049Y-86287181D01*
X160348048Y-86287179D01*
X160223109Y-86115213D01*
X160072786Y-85964890D01*
X159900820Y-85839951D01*
X159711414Y-85743444D01*
X159711413Y-85743443D01*
X159711412Y-85743443D01*
X159509243Y-85677754D01*
X159509241Y-85677753D01*
X159509240Y-85677753D01*
X159347957Y-85652208D01*
X159299287Y-85644500D01*
X159086713Y-85644500D01*
X159038042Y-85652208D01*
X158876760Y-85677753D01*
X158674585Y-85743444D01*
X158485179Y-85839951D01*
X158313213Y-85964890D01*
X158162890Y-86115213D01*
X158037949Y-86287182D01*
X158033484Y-86295946D01*
X157985509Y-86346742D01*
X157917688Y-86363536D01*
X157851553Y-86340998D01*
X157812516Y-86295946D01*
X157808050Y-86287182D01*
X157683109Y-86115213D01*
X157532786Y-85964890D01*
X157360820Y-85839951D01*
X157171414Y-85743444D01*
X157171413Y-85743443D01*
X157171412Y-85743443D01*
X156969243Y-85677754D01*
X156969241Y-85677753D01*
X156969240Y-85677753D01*
X156807957Y-85652208D01*
X156759287Y-85644500D01*
X156546713Y-85644500D01*
X156498042Y-85652208D01*
X156336760Y-85677753D01*
X156134585Y-85743444D01*
X155945179Y-85839951D01*
X155773213Y-85964890D01*
X155622890Y-86115213D01*
X155497949Y-86287182D01*
X155493484Y-86295946D01*
X155445509Y-86346742D01*
X155377688Y-86363536D01*
X155311553Y-86340998D01*
X155272516Y-86295946D01*
X155268050Y-86287182D01*
X155143109Y-86115213D01*
X154992786Y-85964890D01*
X154820820Y-85839951D01*
X154631414Y-85743444D01*
X154631413Y-85743443D01*
X154631412Y-85743443D01*
X154429243Y-85677754D01*
X154429241Y-85677753D01*
X154429240Y-85677753D01*
X154267957Y-85652208D01*
X154219287Y-85644500D01*
X154006713Y-85644500D01*
X153958042Y-85652208D01*
X153796760Y-85677753D01*
X153594585Y-85743444D01*
X153405179Y-85839951D01*
X153233213Y-85964890D01*
X153082890Y-86115213D01*
X152957949Y-86287182D01*
X152953484Y-86295946D01*
X152905509Y-86346742D01*
X152837688Y-86363536D01*
X152771553Y-86340998D01*
X152732516Y-86295946D01*
X152728050Y-86287182D01*
X152603109Y-86115213D01*
X152452786Y-85964890D01*
X152280820Y-85839951D01*
X152091414Y-85743444D01*
X152091413Y-85743443D01*
X152091412Y-85743443D01*
X151889243Y-85677754D01*
X151889241Y-85677753D01*
X151889240Y-85677753D01*
X151727957Y-85652208D01*
X151679287Y-85644500D01*
X151466713Y-85644500D01*
X151418042Y-85652208D01*
X151256760Y-85677753D01*
X151054585Y-85743444D01*
X150865179Y-85839951D01*
X150693213Y-85964890D01*
X150542890Y-86115213D01*
X150417949Y-86287182D01*
X150413484Y-86295946D01*
X150365509Y-86346742D01*
X150297688Y-86363536D01*
X150231553Y-86340998D01*
X150192516Y-86295946D01*
X150188050Y-86287182D01*
X150063109Y-86115213D01*
X149912786Y-85964890D01*
X149740820Y-85839951D01*
X149551414Y-85743444D01*
X149551413Y-85743443D01*
X149551412Y-85743443D01*
X149349243Y-85677754D01*
X149349241Y-85677753D01*
X149349240Y-85677753D01*
X149187957Y-85652208D01*
X149139287Y-85644500D01*
X148926713Y-85644500D01*
X148878042Y-85652208D01*
X148716760Y-85677753D01*
X148514585Y-85743444D01*
X148325179Y-85839951D01*
X148153213Y-85964890D01*
X148002890Y-86115213D01*
X147877949Y-86287182D01*
X147873484Y-86295946D01*
X147825509Y-86346742D01*
X147757688Y-86363536D01*
X147691553Y-86340998D01*
X147652516Y-86295946D01*
X147648050Y-86287182D01*
X147523109Y-86115213D01*
X147372786Y-85964890D01*
X147200820Y-85839951D01*
X147011414Y-85743444D01*
X147011413Y-85743443D01*
X147011412Y-85743443D01*
X146809243Y-85677754D01*
X146809241Y-85677753D01*
X146809240Y-85677753D01*
X146647957Y-85652208D01*
X146599287Y-85644500D01*
X146386713Y-85644500D01*
X146338042Y-85652208D01*
X146176760Y-85677753D01*
X145974585Y-85743444D01*
X145785179Y-85839951D01*
X145613215Y-85964889D01*
X145499673Y-86078431D01*
X145438350Y-86111915D01*
X145368658Y-86106931D01*
X145312725Y-86065059D01*
X145295810Y-86034082D01*
X145246797Y-85902671D01*
X145246793Y-85902664D01*
X145160547Y-85787455D01*
X145160544Y-85787452D01*
X145045335Y-85701206D01*
X145045328Y-85701202D01*
X144910482Y-85650908D01*
X144910483Y-85650908D01*
X144850883Y-85644501D01*
X144850881Y-85644500D01*
X144850873Y-85644500D01*
X144850864Y-85644500D01*
X143055129Y-85644500D01*
X143055123Y-85644501D01*
X142995516Y-85650908D01*
X142860671Y-85701202D01*
X142860664Y-85701206D01*
X142745455Y-85787452D01*
X142745452Y-85787455D01*
X142659206Y-85902664D01*
X142659202Y-85902671D01*
X142608908Y-86037517D01*
X142602501Y-86097116D01*
X142602500Y-86097135D01*
X141478000Y-86097135D01*
X141478000Y-84201000D01*
X136449362Y-84201000D01*
X136382323Y-84181315D01*
X136361681Y-84164681D01*
X136307319Y-84110319D01*
X136273834Y-84048996D01*
X136271000Y-84022638D01*
X136271000Y-83077000D01*
X139019000Y-83077000D01*
X140521000Y-83077000D01*
X141519000Y-83077000D01*
X141892214Y-83077000D01*
X141959253Y-83096685D01*
X141979895Y-83113319D01*
X142565681Y-83699105D01*
X142599166Y-83760428D01*
X142602000Y-83786786D01*
X142602000Y-84186500D01*
X143021000Y-84186500D01*
X144019000Y-84186500D01*
X145521000Y-84186500D01*
X145521000Y-83397213D01*
X145296868Y-83397213D01*
X145290786Y-83397064D01*
X145254011Y-83395258D01*
X145247940Y-83394810D01*
X145199171Y-83390007D01*
X145193128Y-83389262D01*
X145156700Y-83383858D01*
X145150705Y-83382817D01*
X144918999Y-83336728D01*
X144913062Y-83335395D01*
X144877334Y-83326446D01*
X144871464Y-83324822D01*
X144824568Y-83310595D01*
X144818789Y-83308686D01*
X144784127Y-83296283D01*
X144778451Y-83294093D01*
X144560203Y-83203692D01*
X144554640Y-83201226D01*
X144521360Y-83185486D01*
X144515925Y-83182750D01*
X144472704Y-83159649D01*
X144467408Y-83156649D01*
X144435816Y-83137714D01*
X144430672Y-83134457D01*
X144310971Y-83054475D01*
X146519000Y-83054475D01*
X146519000Y-84186500D01*
X148021000Y-84186500D01*
X149019000Y-84186500D01*
X150521000Y-84186500D01*
X151519000Y-84186500D01*
X153021000Y-84186500D01*
X154019000Y-84186500D01*
X155521000Y-84186500D01*
X156519000Y-84186500D01*
X158021000Y-84186500D01*
X159019000Y-84186500D01*
X160521000Y-84186500D01*
X161519000Y-84186500D01*
X163021000Y-84186500D01*
X164019000Y-84186500D01*
X165521000Y-84186500D01*
X166519000Y-84186500D01*
X168021000Y-84186500D01*
X169019000Y-84186500D01*
X170521000Y-84186500D01*
X170521000Y-83099202D01*
X171519000Y-83099202D01*
X171519000Y-84186500D01*
X173021000Y-84186500D01*
X174019000Y-84186500D01*
X175521000Y-84186500D01*
X176519000Y-84186500D01*
X178021000Y-84186500D01*
X179019000Y-84186500D01*
X179343000Y-84186500D01*
X179343000Y-83913786D01*
X179362685Y-83846747D01*
X179379319Y-83826105D01*
X179965105Y-83240319D01*
X180026428Y-83206834D01*
X180052786Y-83204000D01*
X180521000Y-83204000D01*
X180521000Y-82684500D01*
X179019000Y-82684500D01*
X179019000Y-84186500D01*
X178021000Y-84186500D01*
X178021000Y-82684500D01*
X176519000Y-82684500D01*
X176519000Y-84186500D01*
X175521000Y-84186500D01*
X175521000Y-82684500D01*
X174019000Y-82684500D01*
X174019000Y-84186500D01*
X173021000Y-84186500D01*
X173021000Y-82684500D01*
X172679919Y-82684500D01*
X172573429Y-82790990D01*
X172558633Y-82803627D01*
X172405822Y-82914650D01*
X172389232Y-82924817D01*
X172220935Y-83010569D01*
X172202958Y-83018015D01*
X172023319Y-83076383D01*
X172004399Y-83080925D01*
X171817840Y-83110473D01*
X171798442Y-83112000D01*
X171609558Y-83112000D01*
X171590160Y-83110473D01*
X171519000Y-83099202D01*
X170521000Y-83099202D01*
X170521000Y-82684500D01*
X169019000Y-82684500D01*
X169019000Y-84186500D01*
X168021000Y-84186500D01*
X168021000Y-82684500D01*
X166519000Y-82684500D01*
X166519000Y-84186500D01*
X165521000Y-84186500D01*
X165521000Y-82684500D01*
X164019000Y-82684500D01*
X164019000Y-84186500D01*
X163021000Y-84186500D01*
X163021000Y-82684500D01*
X161519000Y-82684500D01*
X161519000Y-84186500D01*
X160521000Y-84186500D01*
X160521000Y-82684500D01*
X159019000Y-82684500D01*
X159019000Y-84186500D01*
X158021000Y-84186500D01*
X158021000Y-82684500D01*
X156519000Y-82684500D01*
X156519000Y-84186500D01*
X155521000Y-84186500D01*
X155521000Y-82684500D01*
X154019000Y-82684500D01*
X154019000Y-84186500D01*
X153021000Y-84186500D01*
X153021000Y-83206209D01*
X152909535Y-83252380D01*
X152903859Y-83254570D01*
X152869197Y-83266973D01*
X152863418Y-83268882D01*
X152816522Y-83283109D01*
X152810652Y-83284733D01*
X152774924Y-83293682D01*
X152768987Y-83295015D01*
X152537281Y-83341104D01*
X152531286Y-83342145D01*
X152494858Y-83347549D01*
X152488815Y-83348294D01*
X152440046Y-83353097D01*
X152433975Y-83353545D01*
X152397200Y-83355351D01*
X152391118Y-83355500D01*
X152154882Y-83355500D01*
X152148800Y-83355351D01*
X152112025Y-83353545D01*
X152105954Y-83353097D01*
X152057185Y-83348294D01*
X152051142Y-83347549D01*
X152014714Y-83342145D01*
X152008719Y-83341104D01*
X151777013Y-83295015D01*
X151771076Y-83293682D01*
X151735348Y-83284733D01*
X151729478Y-83283109D01*
X151682582Y-83268882D01*
X151676803Y-83266973D01*
X151642141Y-83254570D01*
X151636465Y-83252380D01*
X151519000Y-83203724D01*
X151519000Y-84186500D01*
X150521000Y-84186500D01*
X150521000Y-82684500D01*
X149019000Y-82684500D01*
X149019000Y-84186500D01*
X148021000Y-84186500D01*
X148021000Y-82684500D01*
X146927416Y-82684500D01*
X146909211Y-82706683D01*
X146905237Y-82711290D01*
X146880506Y-82738577D01*
X146876308Y-82742986D01*
X146709259Y-82910035D01*
X146704850Y-82914233D01*
X146677563Y-82938964D01*
X146672956Y-82942938D01*
X146635074Y-82974027D01*
X146630274Y-82977773D01*
X146600700Y-82999706D01*
X146595726Y-83003209D01*
X146519000Y-83054475D01*
X144310971Y-83054475D01*
X144234246Y-83003209D01*
X144229272Y-82999706D01*
X144199698Y-82977773D01*
X144194898Y-82974027D01*
X144157016Y-82942938D01*
X144152409Y-82938964D01*
X144125122Y-82914233D01*
X144120713Y-82910035D01*
X144019000Y-82808322D01*
X144019000Y-84186500D01*
X143021000Y-84186500D01*
X143021000Y-82684500D01*
X141519000Y-82684500D01*
X141519000Y-83077000D01*
X140521000Y-83077000D01*
X140521000Y-82684500D01*
X139019000Y-82684500D01*
X139019000Y-83077000D01*
X136271000Y-83077000D01*
X136271000Y-81686500D01*
X137395000Y-81686500D01*
X138021000Y-81686500D01*
X139019000Y-81686500D01*
X140521000Y-81686500D01*
X141519000Y-81686500D01*
X143021000Y-81686500D01*
X143021000Y-81355092D01*
X144464486Y-81355092D01*
X144464486Y-81542333D01*
X144501011Y-81725956D01*
X144501013Y-81725964D01*
X144572662Y-81898941D01*
X144572667Y-81898950D01*
X144676683Y-82054620D01*
X144676686Y-82054624D01*
X144809074Y-82187012D01*
X144809078Y-82187015D01*
X144964748Y-82291031D01*
X144964754Y-82291034D01*
X144964755Y-82291035D01*
X145137735Y-82362686D01*
X145321365Y-82399212D01*
X145321369Y-82399213D01*
X145321370Y-82399213D01*
X145508603Y-82399213D01*
X145508604Y-82399212D01*
X145692237Y-82362686D01*
X145865217Y-82291035D01*
X146020894Y-82187015D01*
X146153288Y-82054621D01*
X146257308Y-81898944D01*
X146328959Y-81725964D01*
X146365486Y-81542329D01*
X146365486Y-81355097D01*
X146328959Y-81171462D01*
X146257308Y-80998482D01*
X146257307Y-80998481D01*
X146257304Y-80998475D01*
X146153288Y-80842805D01*
X146153285Y-80842801D01*
X146020897Y-80710413D01*
X146020893Y-80710410D01*
X145865223Y-80606394D01*
X145865214Y-80606389D01*
X145692237Y-80534740D01*
X145692229Y-80534738D01*
X145508606Y-80498213D01*
X145508602Y-80498213D01*
X145321370Y-80498213D01*
X145321365Y-80498213D01*
X145137742Y-80534738D01*
X145137734Y-80534740D01*
X144964757Y-80606389D01*
X144964748Y-80606394D01*
X144809078Y-80710410D01*
X144809074Y-80710413D01*
X144676686Y-80842801D01*
X144676683Y-80842805D01*
X144572667Y-80998475D01*
X144572662Y-80998484D01*
X144501013Y-81171461D01*
X144501011Y-81171469D01*
X144464486Y-81355092D01*
X143021000Y-81355092D01*
X143021000Y-80184500D01*
X146903754Y-80184500D01*
X146905237Y-80186136D01*
X146909211Y-80190743D01*
X146940300Y-80228625D01*
X146944046Y-80233425D01*
X146965979Y-80262999D01*
X146969482Y-80267973D01*
X147100730Y-80464399D01*
X147103987Y-80469543D01*
X147122922Y-80501135D01*
X147125922Y-80506431D01*
X147149023Y-80549652D01*
X147151759Y-80555087D01*
X147167499Y-80588367D01*
X147169965Y-80593930D01*
X147260366Y-80812178D01*
X147262556Y-80817854D01*
X147274959Y-80852516D01*
X147276868Y-80858295D01*
X147291095Y-80905191D01*
X147292719Y-80911061D01*
X147301668Y-80946789D01*
X147303001Y-80952726D01*
X147349090Y-81184432D01*
X147350131Y-81190427D01*
X147355535Y-81226855D01*
X147356280Y-81232898D01*
X147361083Y-81281667D01*
X147361531Y-81287738D01*
X147363337Y-81324513D01*
X147363486Y-81330595D01*
X147363486Y-81566831D01*
X147363337Y-81572913D01*
X147361531Y-81609688D01*
X147361083Y-81615759D01*
X147356280Y-81664528D01*
X147355535Y-81670571D01*
X147353172Y-81686500D01*
X148021000Y-81686500D01*
X148021000Y-81313379D01*
X151322500Y-81313379D01*
X151322500Y-81500620D01*
X151359025Y-81684243D01*
X151359027Y-81684251D01*
X151430676Y-81857228D01*
X151430681Y-81857237D01*
X151534697Y-82012907D01*
X151534700Y-82012911D01*
X151667088Y-82145299D01*
X151667092Y-82145302D01*
X151822762Y-82249318D01*
X151822768Y-82249321D01*
X151822769Y-82249322D01*
X151995749Y-82320973D01*
X152179379Y-82357499D01*
X152179383Y-82357500D01*
X152179384Y-82357500D01*
X152366617Y-82357500D01*
X152366618Y-82357499D01*
X152550251Y-82320973D01*
X152723231Y-82249322D01*
X152878908Y-82145302D01*
X153011302Y-82012908D01*
X153115322Y-81857231D01*
X153186973Y-81684251D01*
X153223500Y-81500616D01*
X153223500Y-81313384D01*
X153186973Y-81129749D01*
X153115322Y-80956769D01*
X153115321Y-80956768D01*
X153115318Y-80956762D01*
X153011302Y-80801092D01*
X153011299Y-80801088D01*
X152878911Y-80668700D01*
X152878907Y-80668697D01*
X152723237Y-80564681D01*
X152723228Y-80564676D01*
X152646472Y-80532883D01*
X154019000Y-80532883D01*
X154025513Y-80546654D01*
X154027979Y-80552217D01*
X154118380Y-80770465D01*
X154120570Y-80776141D01*
X154132973Y-80810803D01*
X154134882Y-80816582D01*
X154149109Y-80863478D01*
X154150733Y-80869348D01*
X154159682Y-80905076D01*
X154161015Y-80911013D01*
X154207104Y-81142719D01*
X154208145Y-81148714D01*
X154213549Y-81185142D01*
X154214294Y-81191185D01*
X154219097Y-81239954D01*
X154219545Y-81246025D01*
X154221351Y-81282800D01*
X154221500Y-81288882D01*
X154221500Y-81525118D01*
X154221351Y-81531200D01*
X154219545Y-81567975D01*
X154219097Y-81574046D01*
X154214294Y-81622815D01*
X154213549Y-81628858D01*
X154208145Y-81665286D01*
X154207104Y-81671281D01*
X154204077Y-81686500D01*
X155521000Y-81686500D01*
X156519000Y-81686500D01*
X158021000Y-81686500D01*
X159019000Y-81686500D01*
X160521000Y-81686500D01*
X161519000Y-81686500D01*
X163021000Y-81686500D01*
X164019000Y-81686500D01*
X165521000Y-81686500D01*
X166519000Y-81686500D01*
X168021000Y-81686500D01*
X169019000Y-81686500D01*
X170380556Y-81686500D01*
X174019000Y-81686500D01*
X175521000Y-81686500D01*
X176519000Y-81686500D01*
X178021000Y-81686500D01*
X179019000Y-81686500D01*
X180521000Y-81686500D01*
X180521000Y-80184500D01*
X179019000Y-80184500D01*
X179019000Y-81686500D01*
X178021000Y-81686500D01*
X178021000Y-80184500D01*
X176519000Y-80184500D01*
X176519000Y-81686500D01*
X175521000Y-81686500D01*
X175521000Y-80184500D01*
X174019000Y-80184500D01*
X174019000Y-81686500D01*
X170380556Y-81686500D01*
X170381527Y-81674160D01*
X170411075Y-81487601D01*
X170415617Y-81468681D01*
X170473985Y-81289042D01*
X170481431Y-81271065D01*
X170521000Y-81193406D01*
X170521000Y-80476797D01*
X171519000Y-80476797D01*
X171590160Y-80465527D01*
X171609558Y-80464000D01*
X171798442Y-80464000D01*
X171817840Y-80465527D01*
X172004399Y-80495075D01*
X172023319Y-80499617D01*
X172202958Y-80557985D01*
X172220935Y-80565431D01*
X172389232Y-80651183D01*
X172405822Y-80661350D01*
X172558633Y-80772373D01*
X172573429Y-80785010D01*
X172706990Y-80918571D01*
X172719627Y-80933367D01*
X172830650Y-81086178D01*
X172840817Y-81102768D01*
X172926569Y-81271065D01*
X172934015Y-81289042D01*
X172992383Y-81468681D01*
X172996925Y-81487601D01*
X173021000Y-81639604D01*
X173021000Y-80184500D01*
X171519000Y-80184500D01*
X171519000Y-80476797D01*
X170521000Y-80476797D01*
X170521000Y-80184500D01*
X169019000Y-80184500D01*
X169019000Y-81686500D01*
X168021000Y-81686500D01*
X168021000Y-80184500D01*
X166519000Y-80184500D01*
X166519000Y-81686500D01*
X165521000Y-81686500D01*
X165521000Y-80184500D01*
X164019000Y-80184500D01*
X164019000Y-81686500D01*
X163021000Y-81686500D01*
X163021000Y-80184500D01*
X161519000Y-80184500D01*
X161519000Y-81686500D01*
X160521000Y-81686500D01*
X160521000Y-80184500D01*
X159019000Y-80184500D01*
X159019000Y-81686500D01*
X158021000Y-81686500D01*
X158021000Y-80184500D01*
X156519000Y-80184500D01*
X156519000Y-81686500D01*
X155521000Y-81686500D01*
X155521000Y-80184500D01*
X154019000Y-80184500D01*
X154019000Y-80532883D01*
X152646472Y-80532883D01*
X152550251Y-80493027D01*
X152550243Y-80493025D01*
X152366620Y-80456500D01*
X152366616Y-80456500D01*
X152179384Y-80456500D01*
X152179379Y-80456500D01*
X151995756Y-80493025D01*
X151995748Y-80493027D01*
X151822771Y-80564676D01*
X151822762Y-80564681D01*
X151667092Y-80668697D01*
X151667088Y-80668700D01*
X151534700Y-80801088D01*
X151534697Y-80801092D01*
X151430681Y-80956762D01*
X151430676Y-80956771D01*
X151359027Y-81129748D01*
X151359025Y-81129756D01*
X151322500Y-81313379D01*
X148021000Y-81313379D01*
X148021000Y-81110097D01*
X148010065Y-81105569D01*
X147841768Y-81019817D01*
X147825178Y-81009650D01*
X147672367Y-80898627D01*
X147657571Y-80885990D01*
X147524010Y-80752429D01*
X147511373Y-80737633D01*
X147400350Y-80584822D01*
X147390183Y-80568232D01*
X147304431Y-80399935D01*
X147296985Y-80381958D01*
X147238617Y-80202319D01*
X147234339Y-80184500D01*
X146903754Y-80184500D01*
X143021000Y-80184500D01*
X141519000Y-80184500D01*
X141519000Y-81686500D01*
X140521000Y-81686500D01*
X140521000Y-80184500D01*
X139019000Y-80184500D01*
X139019000Y-81686500D01*
X138021000Y-81686500D01*
X138021000Y-80184500D01*
X137395000Y-80184500D01*
X137395000Y-81686500D01*
X136271000Y-81686500D01*
X136271000Y-79186500D01*
X137395000Y-79186500D01*
X138021000Y-79186500D01*
X139019000Y-79186500D01*
X140521000Y-79186500D01*
X141519000Y-79186500D01*
X143021000Y-79186500D01*
X144019000Y-79186500D01*
X145521000Y-79186500D01*
X146519000Y-79186500D01*
X147397088Y-79186500D01*
X147400350Y-79181178D01*
X147511373Y-79028367D01*
X147524010Y-79013571D01*
X147657571Y-78880010D01*
X147672367Y-78867373D01*
X147825178Y-78756350D01*
X147841768Y-78746183D01*
X148010065Y-78660431D01*
X148021000Y-78655901D01*
X148021000Y-78610898D01*
X149109165Y-78610898D01*
X149109165Y-78788289D01*
X149143768Y-78962252D01*
X149143771Y-78962261D01*
X149211648Y-79126134D01*
X149211655Y-79126147D01*
X149310200Y-79273628D01*
X149310203Y-79273632D01*
X149314939Y-79278368D01*
X149348424Y-79339691D01*
X149343440Y-79409383D01*
X149330363Y-79434936D01*
X149315990Y-79456448D01*
X149315983Y-79456460D01*
X149248106Y-79620332D01*
X149248103Y-79620341D01*
X149213500Y-79794304D01*
X149213500Y-79971695D01*
X149248103Y-80145658D01*
X149248106Y-80145667D01*
X149315983Y-80309540D01*
X149315990Y-80309553D01*
X149414535Y-80457034D01*
X149414538Y-80457038D01*
X149539961Y-80582461D01*
X149539965Y-80582464D01*
X149687446Y-80681009D01*
X149687459Y-80681016D01*
X149810363Y-80731923D01*
X149851334Y-80748894D01*
X149851336Y-80748894D01*
X149851341Y-80748896D01*
X150025304Y-80783499D01*
X150025307Y-80783500D01*
X150025309Y-80783500D01*
X150202693Y-80783500D01*
X150202694Y-80783499D01*
X150268222Y-80770465D01*
X150376658Y-80748896D01*
X150376661Y-80748894D01*
X150376666Y-80748894D01*
X150540547Y-80681013D01*
X150688035Y-80582464D01*
X150813464Y-80457035D01*
X150912013Y-80309547D01*
X150979894Y-80145666D01*
X151014500Y-79971691D01*
X151014500Y-79794309D01*
X151014500Y-79794306D01*
X151014499Y-79794304D01*
X150979896Y-79620341D01*
X150979893Y-79620332D01*
X150912016Y-79456459D01*
X150912009Y-79456446D01*
X150813464Y-79308965D01*
X150813461Y-79308961D01*
X150808724Y-79304224D01*
X150775239Y-79242901D01*
X150780223Y-79173209D01*
X150793297Y-79147662D01*
X150807678Y-79126141D01*
X150875559Y-78962260D01*
X150881680Y-78931491D01*
X150904082Y-78818868D01*
X150910165Y-78788285D01*
X150910165Y-78610903D01*
X150910165Y-78610900D01*
X150910164Y-78610898D01*
X150875561Y-78436935D01*
X150875558Y-78436926D01*
X150873441Y-78431816D01*
X150833710Y-78335894D01*
X150807681Y-78273053D01*
X150807674Y-78273040D01*
X150709129Y-78125559D01*
X150709126Y-78125555D01*
X150583703Y-78000132D01*
X150583699Y-78000129D01*
X150436218Y-77901584D01*
X150436205Y-77901577D01*
X150272332Y-77833700D01*
X150272323Y-77833697D01*
X150098359Y-77799094D01*
X150098356Y-77799094D01*
X149920974Y-77799094D01*
X149920971Y-77799094D01*
X149747006Y-77833697D01*
X149746997Y-77833700D01*
X149583124Y-77901577D01*
X149583111Y-77901584D01*
X149435630Y-78000129D01*
X149435626Y-78000132D01*
X149310203Y-78125555D01*
X149310200Y-78125559D01*
X149211655Y-78273040D01*
X149211648Y-78273053D01*
X149143771Y-78436926D01*
X149143768Y-78436935D01*
X149109165Y-78610898D01*
X148021000Y-78610898D01*
X148021000Y-77684500D01*
X151614708Y-77684500D01*
X151651099Y-77738962D01*
X151654356Y-77744106D01*
X151673292Y-77775700D01*
X151676292Y-77780995D01*
X151699394Y-77824217D01*
X151702131Y-77829656D01*
X151717871Y-77862938D01*
X151720336Y-77868499D01*
X151806966Y-78077645D01*
X151809156Y-78083322D01*
X151821555Y-78117974D01*
X151823463Y-78123749D01*
X151837690Y-78170642D01*
X151839314Y-78176510D01*
X151848266Y-78212245D01*
X151849600Y-78218186D01*
X151893769Y-78440237D01*
X151894810Y-78446234D01*
X151900214Y-78482665D01*
X151900959Y-78488706D01*
X151905762Y-78537478D01*
X151906210Y-78543548D01*
X151908016Y-78580320D01*
X151908165Y-78586403D01*
X151908165Y-78812785D01*
X151908016Y-78818868D01*
X151906210Y-78855640D01*
X151905762Y-78861710D01*
X151900959Y-78910482D01*
X151900214Y-78916523D01*
X151894810Y-78952954D01*
X151893769Y-78958952D01*
X151858860Y-79134446D01*
X151880421Y-79186500D01*
X153021000Y-79186500D01*
X154019000Y-79186500D01*
X155521000Y-79186500D01*
X156519000Y-79186500D01*
X157584644Y-79186500D01*
X164487356Y-79186500D01*
X165521000Y-79186500D01*
X166519000Y-79186500D01*
X168021000Y-79186500D01*
X169019000Y-79186500D01*
X170521000Y-79186500D01*
X174019000Y-79186500D01*
X175521000Y-79186500D01*
X176519000Y-79186500D01*
X178021000Y-79186500D01*
X179019000Y-79186500D01*
X180521000Y-79186500D01*
X180521000Y-77684500D01*
X179019000Y-77684500D01*
X179019000Y-79186500D01*
X178021000Y-79186500D01*
X178021000Y-77684500D01*
X176519000Y-77684500D01*
X176519000Y-79186500D01*
X175521000Y-79186500D01*
X175521000Y-77684500D01*
X174019000Y-77684500D01*
X174019000Y-79186500D01*
X170521000Y-79186500D01*
X170521000Y-77684500D01*
X169019000Y-77684500D01*
X169019000Y-79186500D01*
X168021000Y-79186500D01*
X168021000Y-77684500D01*
X166519000Y-77684500D01*
X166519000Y-79186500D01*
X165521000Y-79186500D01*
X165521000Y-77709910D01*
X165518071Y-77709549D01*
X165481640Y-77704145D01*
X165475643Y-77703104D01*
X165382115Y-77684500D01*
X165347500Y-77684500D01*
X165347500Y-77710191D01*
X165347351Y-77716274D01*
X165345545Y-77753046D01*
X165345097Y-77759116D01*
X165340294Y-77807888D01*
X165339549Y-77813929D01*
X165334145Y-77850360D01*
X165333104Y-77856357D01*
X165288935Y-78078408D01*
X165287601Y-78084349D01*
X165278649Y-78120084D01*
X165277025Y-78125952D01*
X165262798Y-78172845D01*
X165260890Y-78178620D01*
X165248491Y-78213272D01*
X165246301Y-78218949D01*
X165159671Y-78428095D01*
X165157206Y-78433656D01*
X165141466Y-78466938D01*
X165138729Y-78472377D01*
X165115627Y-78515599D01*
X165112627Y-78520894D01*
X165093691Y-78552488D01*
X165090434Y-78557632D01*
X164964657Y-78745869D01*
X164961153Y-78750845D01*
X164939221Y-78780417D01*
X164935476Y-78785215D01*
X164904387Y-78823097D01*
X164900413Y-78827704D01*
X164875682Y-78854991D01*
X164871484Y-78859400D01*
X164711400Y-79019484D01*
X164706991Y-79023682D01*
X164679704Y-79048413D01*
X164675097Y-79052387D01*
X164637215Y-79083476D01*
X164632417Y-79087221D01*
X164602845Y-79109153D01*
X164597869Y-79112657D01*
X164487356Y-79186500D01*
X157584644Y-79186500D01*
X157474131Y-79112657D01*
X157469155Y-79109153D01*
X157439583Y-79087221D01*
X157434785Y-79083476D01*
X157396903Y-79052387D01*
X157392296Y-79048413D01*
X157365009Y-79023682D01*
X157360600Y-79019484D01*
X157200516Y-78859400D01*
X157196318Y-78854991D01*
X157171587Y-78827704D01*
X157167613Y-78823097D01*
X157136524Y-78785215D01*
X157132779Y-78780417D01*
X157110847Y-78750845D01*
X157107343Y-78745869D01*
X156981566Y-78557632D01*
X156978309Y-78552488D01*
X156959373Y-78520894D01*
X156956373Y-78515599D01*
X156933271Y-78472377D01*
X156930534Y-78466938D01*
X156914794Y-78433656D01*
X156912329Y-78428095D01*
X156825699Y-78218949D01*
X156823509Y-78213272D01*
X156811110Y-78178620D01*
X156809202Y-78172845D01*
X156794975Y-78125952D01*
X156793351Y-78120084D01*
X156784399Y-78084349D01*
X156783065Y-78078408D01*
X156738896Y-77856357D01*
X156737855Y-77850360D01*
X156732451Y-77813929D01*
X156731706Y-77807888D01*
X156726903Y-77759116D01*
X156726455Y-77753046D01*
X156724649Y-77716274D01*
X156724500Y-77710191D01*
X156724500Y-77684500D01*
X156519000Y-77684500D01*
X156519000Y-79186500D01*
X155521000Y-79186500D01*
X155521000Y-77684500D01*
X154019000Y-77684500D01*
X154019000Y-79186500D01*
X153021000Y-79186500D01*
X153021000Y-77684500D01*
X151614708Y-77684500D01*
X148021000Y-77684500D01*
X146519000Y-77684500D01*
X146519000Y-79186500D01*
X145521000Y-79186500D01*
X145521000Y-77684500D01*
X144019000Y-77684500D01*
X144019000Y-79186500D01*
X143021000Y-79186500D01*
X143021000Y-77684500D01*
X141519000Y-77684500D01*
X141519000Y-79186500D01*
X140521000Y-79186500D01*
X140521000Y-77684500D01*
X139019000Y-77684500D01*
X139019000Y-79186500D01*
X138021000Y-79186500D01*
X138021000Y-77684500D01*
X137395000Y-77684500D01*
X137395000Y-79186500D01*
X136271000Y-79186500D01*
X136271000Y-77508304D01*
X157722500Y-77508304D01*
X157722500Y-77685695D01*
X157757103Y-77859658D01*
X157757106Y-77859667D01*
X157824983Y-78023540D01*
X157824990Y-78023553D01*
X157923535Y-78171034D01*
X157923538Y-78171038D01*
X158048961Y-78296461D01*
X158048965Y-78296464D01*
X158196446Y-78395009D01*
X158196459Y-78395016D01*
X158319363Y-78445923D01*
X158360334Y-78462894D01*
X158360336Y-78462894D01*
X158360341Y-78462896D01*
X158534304Y-78497499D01*
X158534307Y-78497500D01*
X158534309Y-78497500D01*
X158711693Y-78497500D01*
X158711694Y-78497499D01*
X158786271Y-78482665D01*
X158885658Y-78462896D01*
X158885661Y-78462894D01*
X158885666Y-78462894D01*
X159049547Y-78395013D01*
X159197035Y-78296464D01*
X159322464Y-78171035D01*
X159421013Y-78023547D01*
X159423662Y-78017153D01*
X159473615Y-77896553D01*
X159488894Y-77859666D01*
X159489553Y-77856357D01*
X159517417Y-77716274D01*
X159523500Y-77685691D01*
X159523500Y-77508309D01*
X159523500Y-77508306D01*
X159523499Y-77508304D01*
X159498237Y-77381304D01*
X160897500Y-77381304D01*
X160897500Y-77558695D01*
X160932103Y-77732658D01*
X160932106Y-77732667D01*
X160999983Y-77896540D01*
X160999990Y-77896553D01*
X161098535Y-78044034D01*
X161098538Y-78044038D01*
X161223961Y-78169461D01*
X161223965Y-78169464D01*
X161371446Y-78268009D01*
X161371459Y-78268016D01*
X161494363Y-78318923D01*
X161535334Y-78335894D01*
X161535336Y-78335894D01*
X161535341Y-78335896D01*
X161709304Y-78370499D01*
X161709307Y-78370500D01*
X161709309Y-78370500D01*
X161886693Y-78370500D01*
X161886694Y-78370499D01*
X161944682Y-78358964D01*
X162060658Y-78335896D01*
X162060661Y-78335894D01*
X162060666Y-78335894D01*
X162224547Y-78268013D01*
X162372035Y-78169464D01*
X162490862Y-78050636D01*
X162552183Y-78017153D01*
X162621875Y-78022137D01*
X162677809Y-78064008D01*
X162681644Y-78069428D01*
X162749535Y-78171034D01*
X162749538Y-78171038D01*
X162874961Y-78296461D01*
X162874965Y-78296464D01*
X163022446Y-78395009D01*
X163022459Y-78395016D01*
X163145363Y-78445923D01*
X163186334Y-78462894D01*
X163186336Y-78462894D01*
X163186341Y-78462896D01*
X163360304Y-78497499D01*
X163360307Y-78497500D01*
X163360309Y-78497500D01*
X163537693Y-78497500D01*
X163537694Y-78497499D01*
X163612271Y-78482665D01*
X163711658Y-78462896D01*
X163711661Y-78462894D01*
X163711666Y-78462894D01*
X163875547Y-78395013D01*
X164023035Y-78296464D01*
X164148464Y-78171035D01*
X164247013Y-78023547D01*
X164249662Y-78017153D01*
X164299615Y-77896553D01*
X164314894Y-77859666D01*
X164315553Y-77856357D01*
X164343417Y-77716274D01*
X164349500Y-77685691D01*
X164349500Y-77508309D01*
X164349500Y-77508306D01*
X164349499Y-77508304D01*
X164314896Y-77334341D01*
X164314893Y-77334332D01*
X164247016Y-77170459D01*
X164247009Y-77170446D01*
X164148464Y-77022965D01*
X164148461Y-77022961D01*
X164023038Y-76897538D01*
X164023034Y-76897535D01*
X163875553Y-76798990D01*
X163875540Y-76798983D01*
X163711667Y-76731106D01*
X163711658Y-76731103D01*
X163537694Y-76696500D01*
X163537691Y-76696500D01*
X163360309Y-76696500D01*
X163360306Y-76696500D01*
X163186341Y-76731103D01*
X163186332Y-76731106D01*
X163022459Y-76798983D01*
X163022446Y-76798990D01*
X162874965Y-76897534D01*
X162756138Y-77016362D01*
X162694815Y-77049846D01*
X162625123Y-77044862D01*
X162569190Y-77002990D01*
X162565355Y-76997571D01*
X162497464Y-76895964D01*
X162372038Y-76770538D01*
X162372034Y-76770535D01*
X162224553Y-76671990D01*
X162224540Y-76671983D01*
X162060667Y-76604106D01*
X162060658Y-76604103D01*
X161886694Y-76569500D01*
X161886691Y-76569500D01*
X161709309Y-76569500D01*
X161709306Y-76569500D01*
X161535341Y-76604103D01*
X161535332Y-76604106D01*
X161371459Y-76671983D01*
X161371446Y-76671990D01*
X161223965Y-76770535D01*
X161223961Y-76770538D01*
X161098538Y-76895961D01*
X161098535Y-76895965D01*
X160999990Y-77043446D01*
X160999983Y-77043459D01*
X160932106Y-77207332D01*
X160932103Y-77207341D01*
X160897500Y-77381304D01*
X159498237Y-77381304D01*
X159488896Y-77334341D01*
X159488893Y-77334332D01*
X159421016Y-77170459D01*
X159421009Y-77170446D01*
X159322464Y-77022965D01*
X159322461Y-77022961D01*
X159197038Y-76897538D01*
X159197034Y-76897535D01*
X159049553Y-76798990D01*
X159049540Y-76798983D01*
X158885667Y-76731106D01*
X158885658Y-76731103D01*
X158711694Y-76696500D01*
X158711691Y-76696500D01*
X158534309Y-76696500D01*
X158534306Y-76696500D01*
X158360341Y-76731103D01*
X158360332Y-76731106D01*
X158196459Y-76798983D01*
X158196446Y-76798990D01*
X158048965Y-76897535D01*
X158048961Y-76897538D01*
X157923538Y-77022961D01*
X157923535Y-77022965D01*
X157824990Y-77170446D01*
X157824983Y-77170459D01*
X157757106Y-77334332D01*
X157757103Y-77334341D01*
X157722500Y-77508304D01*
X136271000Y-77508304D01*
X136271000Y-76686500D01*
X137395000Y-76686500D01*
X138021000Y-76686500D01*
X139019000Y-76686500D01*
X140521000Y-76686500D01*
X141519000Y-76686500D01*
X143021000Y-76686500D01*
X144019000Y-76686500D01*
X145521000Y-76686500D01*
X146519000Y-76686500D01*
X148021000Y-76686500D01*
X149019000Y-76686500D01*
X150521000Y-76686500D01*
X154019000Y-76686500D01*
X155521000Y-76686500D01*
X155521000Y-75526869D01*
X156519000Y-75526869D01*
X156519000Y-76686500D01*
X156952044Y-76686500D01*
X156956373Y-76678401D01*
X156959373Y-76673106D01*
X156978309Y-76641512D01*
X156981566Y-76636368D01*
X157107343Y-76448131D01*
X157110847Y-76443155D01*
X157132779Y-76413583D01*
X157136524Y-76408785D01*
X157167613Y-76370903D01*
X157171587Y-76366296D01*
X157196318Y-76339009D01*
X157200516Y-76334600D01*
X157360600Y-76174516D01*
X157365009Y-76170318D01*
X157392296Y-76145587D01*
X157396903Y-76141613D01*
X157434785Y-76110524D01*
X157439583Y-76106779D01*
X157469155Y-76084847D01*
X157474131Y-76081343D01*
X157662368Y-75955566D01*
X157667512Y-75952309D01*
X157699106Y-75933373D01*
X157704401Y-75930373D01*
X157747623Y-75907271D01*
X157753062Y-75904534D01*
X157786344Y-75888794D01*
X157791905Y-75886329D01*
X158001051Y-75799699D01*
X158006728Y-75797509D01*
X158021000Y-75792402D01*
X158021000Y-75740075D01*
X159019000Y-75740075D01*
X159104409Y-75757065D01*
X159110349Y-75758399D01*
X159146084Y-75767351D01*
X159151952Y-75768975D01*
X159198845Y-75783202D01*
X159204620Y-75785110D01*
X159239272Y-75797509D01*
X159244949Y-75799699D01*
X159454095Y-75886329D01*
X159459656Y-75888794D01*
X159492938Y-75904534D01*
X159498377Y-75907271D01*
X159541599Y-75930373D01*
X159546894Y-75933373D01*
X159578488Y-75952309D01*
X159583632Y-75955566D01*
X159771869Y-76081343D01*
X159776845Y-76084847D01*
X159806417Y-76106779D01*
X159811215Y-76110524D01*
X159849097Y-76141613D01*
X159853704Y-76145587D01*
X159880991Y-76170318D01*
X159885400Y-76174516D01*
X160045484Y-76334600D01*
X160049682Y-76339009D01*
X160074413Y-76366296D01*
X160078387Y-76370903D01*
X160109476Y-76408785D01*
X160113221Y-76413583D01*
X160135153Y-76443155D01*
X160138657Y-76448131D01*
X160168070Y-76492150D01*
X160282343Y-76321131D01*
X160285847Y-76316155D01*
X160307779Y-76286583D01*
X160311524Y-76281785D01*
X160342613Y-76243903D01*
X160346587Y-76239296D01*
X160371318Y-76212009D01*
X160375516Y-76207600D01*
X160521000Y-76062116D01*
X160521000Y-75589803D01*
X161519000Y-75589803D01*
X161538643Y-75585896D01*
X161544640Y-75584855D01*
X161581071Y-75579451D01*
X161587112Y-75578706D01*
X161635884Y-75573903D01*
X161641954Y-75573455D01*
X161678726Y-75571649D01*
X161684809Y-75571500D01*
X161911191Y-75571500D01*
X161917274Y-75571649D01*
X161954046Y-75573455D01*
X161960116Y-75573903D01*
X162008888Y-75578706D01*
X162014929Y-75579451D01*
X162051360Y-75584855D01*
X162057357Y-75585896D01*
X162279408Y-75630065D01*
X162285349Y-75631399D01*
X162321084Y-75640351D01*
X162326952Y-75641975D01*
X162373845Y-75656202D01*
X162379620Y-75658110D01*
X162414272Y-75670509D01*
X162419949Y-75672699D01*
X162629095Y-75759329D01*
X162634656Y-75761794D01*
X162667938Y-75777534D01*
X162673377Y-75780271D01*
X162716599Y-75803373D01*
X162721894Y-75806373D01*
X162753488Y-75825309D01*
X162758128Y-75828247D01*
X162827051Y-75799699D01*
X162832728Y-75797509D01*
X162867380Y-75785110D01*
X162873155Y-75783202D01*
X162920048Y-75768975D01*
X162925916Y-75767351D01*
X162961651Y-75758399D01*
X162967592Y-75757065D01*
X163021000Y-75746441D01*
X163021000Y-75730304D01*
X164834500Y-75730304D01*
X164834500Y-75907695D01*
X164869103Y-76081658D01*
X164869106Y-76081667D01*
X164936983Y-76245540D01*
X164936990Y-76245553D01*
X165035535Y-76393034D01*
X165035538Y-76393038D01*
X165160961Y-76518461D01*
X165160965Y-76518464D01*
X165308446Y-76617009D01*
X165308459Y-76617016D01*
X165367599Y-76641512D01*
X165472334Y-76684894D01*
X165472336Y-76684894D01*
X165472341Y-76684896D01*
X165646304Y-76719499D01*
X165646307Y-76719500D01*
X165646309Y-76719500D01*
X165823693Y-76719500D01*
X165823694Y-76719499D01*
X165881682Y-76707964D01*
X165997658Y-76684896D01*
X165997661Y-76684894D01*
X165997666Y-76684894D01*
X166161547Y-76617013D01*
X166309035Y-76518464D01*
X166434464Y-76393035D01*
X166533013Y-76245547D01*
X166600894Y-76081666D01*
X166600896Y-76081658D01*
X166636689Y-75901717D01*
X166638586Y-75902094D01*
X166661373Y-75845614D01*
X166718396Y-75805239D01*
X166734439Y-75800911D01*
X166759666Y-75795894D01*
X166923547Y-75728013D01*
X167071035Y-75629464D01*
X167196464Y-75504035D01*
X167295013Y-75356547D01*
X167362894Y-75192666D01*
X167363612Y-75189060D01*
X167397499Y-75018695D01*
X167397500Y-75018693D01*
X167397500Y-74841306D01*
X167390282Y-74805020D01*
X167396509Y-74735428D01*
X167439372Y-74680251D01*
X167505262Y-74657006D01*
X167536091Y-74659211D01*
X167678306Y-74687500D01*
X167678309Y-74687500D01*
X167855693Y-74687500D01*
X167855694Y-74687499D01*
X167913682Y-74675964D01*
X168029658Y-74652896D01*
X168029661Y-74652894D01*
X168029666Y-74652894D01*
X168193547Y-74585013D01*
X168341035Y-74486464D01*
X168466464Y-74361035D01*
X168565013Y-74213547D01*
X168588855Y-74155987D01*
X168600014Y-74129048D01*
X168643855Y-74074644D01*
X168710149Y-74052579D01*
X168714575Y-74052500D01*
X168871693Y-74052500D01*
X168871694Y-74052499D01*
X168950871Y-74036750D01*
X169045658Y-74017896D01*
X169045661Y-74017894D01*
X169045666Y-74017894D01*
X169171366Y-73965828D01*
X169240835Y-73958359D01*
X169303314Y-73989635D01*
X169338966Y-74049724D01*
X169336472Y-74119549D01*
X169321920Y-74149280D01*
X169254990Y-74249446D01*
X169254983Y-74249459D01*
X169187106Y-74413332D01*
X169187103Y-74413341D01*
X169152500Y-74587304D01*
X169152500Y-74764695D01*
X169187103Y-74938658D01*
X169187106Y-74938667D01*
X169254983Y-75102540D01*
X169254990Y-75102553D01*
X169353535Y-75250034D01*
X169353538Y-75250038D01*
X169478961Y-75375461D01*
X169478965Y-75375464D01*
X169626446Y-75474009D01*
X169626459Y-75474016D01*
X169733428Y-75518323D01*
X169790334Y-75541894D01*
X169790336Y-75541894D01*
X169790341Y-75541896D01*
X169964304Y-75576499D01*
X169964307Y-75576500D01*
X169964309Y-75576500D01*
X170141693Y-75576500D01*
X170141694Y-75576499D01*
X170199682Y-75564964D01*
X170315658Y-75541896D01*
X170315661Y-75541894D01*
X170315666Y-75541894D01*
X170479547Y-75474013D01*
X170627035Y-75375464D01*
X170752464Y-75250035D01*
X170801989Y-75175915D01*
X170855601Y-75131111D01*
X170924926Y-75122404D01*
X170987953Y-75152558D01*
X171019652Y-75197354D01*
X171032985Y-75229543D01*
X171032990Y-75229553D01*
X171131535Y-75377034D01*
X171131538Y-75377038D01*
X171256961Y-75502461D01*
X171256965Y-75502464D01*
X171404446Y-75601009D01*
X171404459Y-75601016D01*
X171474591Y-75630065D01*
X171568334Y-75668894D01*
X171568336Y-75668894D01*
X171568341Y-75668896D01*
X171742304Y-75703499D01*
X171742307Y-75703500D01*
X171742309Y-75703500D01*
X171919693Y-75703500D01*
X171919694Y-75703499D01*
X171977682Y-75691964D01*
X172093658Y-75668896D01*
X172093661Y-75668894D01*
X172093666Y-75668894D01*
X172257547Y-75601013D01*
X172405035Y-75502464D01*
X172530464Y-75377035D01*
X172578467Y-75305194D01*
X174019000Y-75305194D01*
X174019000Y-76686500D01*
X175521000Y-76686500D01*
X176519000Y-76686500D01*
X178021000Y-76686500D01*
X179019000Y-76686500D01*
X180521000Y-76686500D01*
X180521000Y-75184500D01*
X179019000Y-75184500D01*
X179019000Y-76686500D01*
X178021000Y-76686500D01*
X178021000Y-75184500D01*
X176519000Y-75184500D01*
X176519000Y-76686500D01*
X175521000Y-76686500D01*
X175521000Y-75184500D01*
X174195080Y-75184500D01*
X174194088Y-75185314D01*
X174189288Y-75189060D01*
X174159714Y-75210993D01*
X174154740Y-75214496D01*
X174019000Y-75305194D01*
X172578467Y-75305194D01*
X172629013Y-75229547D01*
X172633166Y-75219522D01*
X172651227Y-75175916D01*
X172696894Y-75065666D01*
X172705782Y-75020987D01*
X172731499Y-74891695D01*
X172731500Y-74891693D01*
X172731500Y-74731979D01*
X172751185Y-74664940D01*
X172803989Y-74619185D01*
X172873147Y-74609241D01*
X172879701Y-74610364D01*
X172880384Y-74610500D01*
X173067617Y-74610500D01*
X173067618Y-74610499D01*
X173251251Y-74573973D01*
X173424231Y-74502322D01*
X173579908Y-74398302D01*
X173712302Y-74265908D01*
X173765361Y-74186500D01*
X174854526Y-74186500D01*
X175521000Y-74186500D01*
X176519000Y-74186500D01*
X178021000Y-74186500D01*
X179019000Y-74186500D01*
X180521000Y-74186500D01*
X180521000Y-73976500D01*
X180331103Y-73976500D01*
X180326231Y-73976404D01*
X180296779Y-73975246D01*
X180291914Y-73974959D01*
X180252835Y-73971881D01*
X180247997Y-73971404D01*
X180218764Y-73967944D01*
X180213941Y-73967277D01*
X179965272Y-73927892D01*
X179960477Y-73927036D01*
X179931577Y-73921287D01*
X179926817Y-73920242D01*
X179888700Y-73911089D01*
X179883995Y-73909862D01*
X179855653Y-73901869D01*
X179850993Y-73900455D01*
X179611560Y-73822658D01*
X179606963Y-73821064D01*
X179579353Y-73810879D01*
X179574825Y-73809107D01*
X179538608Y-73794109D01*
X179534139Y-73792154D01*
X179507364Y-73779811D01*
X179502981Y-73777686D01*
X179278639Y-73663378D01*
X179274346Y-73661083D01*
X179248650Y-73646693D01*
X179244450Y-73644231D01*
X179211027Y-73623750D01*
X179206927Y-73621126D01*
X179182432Y-73604760D01*
X179178435Y-73601974D01*
X179019000Y-73486138D01*
X179019000Y-74186500D01*
X178021000Y-74186500D01*
X178021000Y-72684500D01*
X176519000Y-72684500D01*
X176519000Y-74186500D01*
X175521000Y-74186500D01*
X175521000Y-73164511D01*
X175388535Y-73219380D01*
X175382859Y-73221570D01*
X175348197Y-73233973D01*
X175342418Y-73235882D01*
X175295522Y-73250109D01*
X175289652Y-73251733D01*
X175253924Y-73260682D01*
X175247987Y-73262015D01*
X175016281Y-73308104D01*
X175010286Y-73309145D01*
X174973858Y-73314549D01*
X174967815Y-73315294D01*
X174919046Y-73320097D01*
X174912975Y-73320545D01*
X174893342Y-73321509D01*
X174908104Y-73395719D01*
X174909145Y-73401714D01*
X174914549Y-73438142D01*
X174915294Y-73444185D01*
X174920097Y-73492954D01*
X174920545Y-73499025D01*
X174922351Y-73535800D01*
X174922500Y-73541882D01*
X174922500Y-73778118D01*
X174922351Y-73784200D01*
X174920545Y-73820975D01*
X174920097Y-73827046D01*
X174915294Y-73875815D01*
X174914549Y-73881858D01*
X174909145Y-73918286D01*
X174908104Y-73924281D01*
X174862015Y-74155987D01*
X174860682Y-74161924D01*
X174854526Y-74186500D01*
X173765361Y-74186500D01*
X173816322Y-74110231D01*
X173887973Y-73937251D01*
X173924500Y-73753616D01*
X173924500Y-73566384D01*
X173887973Y-73382749D01*
X173816322Y-73209769D01*
X173816321Y-73209768D01*
X173816318Y-73209762D01*
X173712302Y-73054092D01*
X173712299Y-73054088D01*
X173579911Y-72921700D01*
X173579907Y-72921697D01*
X173424237Y-72817681D01*
X173424228Y-72817676D01*
X173251251Y-72746027D01*
X173251243Y-72746025D01*
X173067620Y-72709500D01*
X173067616Y-72709500D01*
X172880384Y-72709500D01*
X172880379Y-72709500D01*
X172696756Y-72746025D01*
X172696748Y-72746027D01*
X172523771Y-72817676D01*
X172523762Y-72817681D01*
X172368092Y-72921697D01*
X172368088Y-72921700D01*
X172235700Y-73054088D01*
X172235697Y-73054092D01*
X172131681Y-73209762D01*
X172131676Y-73209771D01*
X172060027Y-73382748D01*
X172060025Y-73382756D01*
X172023500Y-73566379D01*
X172023500Y-73753616D01*
X172023639Y-73754315D01*
X172023605Y-73754688D01*
X172024097Y-73759679D01*
X172023150Y-73759772D01*
X172017408Y-73823906D01*
X171974542Y-73879081D01*
X171908651Y-73902323D01*
X171902020Y-73902500D01*
X171742306Y-73902500D01*
X171568341Y-73937103D01*
X171568332Y-73937106D01*
X171404459Y-74004983D01*
X171404446Y-74004990D01*
X171256965Y-74103535D01*
X171256961Y-74103538D01*
X171131538Y-74228961D01*
X171131533Y-74228967D01*
X171082009Y-74303084D01*
X171028396Y-74347889D01*
X170959071Y-74356595D01*
X170896044Y-74326439D01*
X170864346Y-74281643D01*
X170851013Y-74249453D01*
X170851009Y-74249446D01*
X170752464Y-74101965D01*
X170752461Y-74101961D01*
X170627038Y-73976538D01*
X170627034Y-73976535D01*
X170479553Y-73877990D01*
X170479540Y-73877983D01*
X170315667Y-73810106D01*
X170315658Y-73810103D01*
X170141694Y-73775500D01*
X170141691Y-73775500D01*
X169964309Y-73775500D01*
X169964306Y-73775500D01*
X169790341Y-73810103D01*
X169790337Y-73810105D01*
X169790335Y-73810105D01*
X169790334Y-73810106D01*
X169788468Y-73810879D01*
X169664632Y-73862172D01*
X169595163Y-73869639D01*
X169532684Y-73838364D01*
X169497032Y-73778274D01*
X169499527Y-73708449D01*
X169514080Y-73678718D01*
X169546886Y-73629622D01*
X169563498Y-73604760D01*
X169581008Y-73578555D01*
X169581009Y-73578552D01*
X169581013Y-73578547D01*
X169648894Y-73414666D01*
X169648959Y-73414343D01*
X169679258Y-73262015D01*
X169683500Y-73240691D01*
X169683500Y-73063309D01*
X169683500Y-73063306D01*
X169683499Y-73063304D01*
X169648896Y-72889341D01*
X169648893Y-72889332D01*
X169581016Y-72725459D01*
X169581009Y-72725446D01*
X169482464Y-72577965D01*
X169482461Y-72577961D01*
X169357038Y-72452538D01*
X169357034Y-72452535D01*
X169209553Y-72353990D01*
X169209540Y-72353983D01*
X169045667Y-72286106D01*
X169045658Y-72286103D01*
X168871694Y-72251500D01*
X168871691Y-72251500D01*
X168694309Y-72251500D01*
X168694304Y-72251500D01*
X168519482Y-72286274D01*
X168449890Y-72280047D01*
X168394713Y-72237183D01*
X168380730Y-72212109D01*
X168355325Y-72150775D01*
X168355318Y-72150762D01*
X168251302Y-71995092D01*
X168251299Y-71995088D01*
X168118911Y-71862700D01*
X168118907Y-71862697D01*
X167963237Y-71758681D01*
X167963228Y-71758676D01*
X167790251Y-71687027D01*
X167790243Y-71687025D01*
X167606620Y-71650500D01*
X167606616Y-71650500D01*
X167419384Y-71650500D01*
X167419379Y-71650500D01*
X167235756Y-71687025D01*
X167235748Y-71687027D01*
X167062771Y-71758676D01*
X167062762Y-71758681D01*
X166907092Y-71862697D01*
X166907088Y-71862700D01*
X166774700Y-71995088D01*
X166774697Y-71995092D01*
X166670681Y-72150762D01*
X166670676Y-72150771D01*
X166599027Y-72323748D01*
X166599025Y-72323756D01*
X166562500Y-72507379D01*
X166562500Y-72694620D01*
X166599025Y-72878243D01*
X166599027Y-72878251D01*
X166670676Y-73051228D01*
X166670681Y-73051237D01*
X166774697Y-73206907D01*
X166774700Y-73206911D01*
X166898465Y-73330676D01*
X166931950Y-73391999D01*
X166926966Y-73461691D01*
X166925346Y-73465807D01*
X166901107Y-73524328D01*
X166901104Y-73524336D01*
X166866500Y-73698304D01*
X166866500Y-73875691D01*
X166873718Y-73911982D01*
X166867489Y-73981573D01*
X166824625Y-74036750D01*
X166758735Y-74059993D01*
X166727909Y-74057788D01*
X166585695Y-74029500D01*
X166585691Y-74029500D01*
X166408309Y-74029500D01*
X166408306Y-74029500D01*
X166234341Y-74064103D01*
X166234332Y-74064106D01*
X166070459Y-74131983D01*
X166070446Y-74131990D01*
X165922965Y-74230535D01*
X165922961Y-74230538D01*
X165797538Y-74355961D01*
X165797535Y-74355965D01*
X165698990Y-74503446D01*
X165698983Y-74503459D01*
X165631106Y-74667332D01*
X165631103Y-74667341D01*
X165595311Y-74847283D01*
X165593421Y-74846907D01*
X165570601Y-74903416D01*
X165513565Y-74943773D01*
X165497553Y-74948089D01*
X165472339Y-74953104D01*
X165472329Y-74953107D01*
X165308459Y-75020983D01*
X165308446Y-75020990D01*
X165160965Y-75119535D01*
X165160961Y-75119538D01*
X165035538Y-75244961D01*
X165035535Y-75244965D01*
X164936990Y-75392446D01*
X164936983Y-75392459D01*
X164869106Y-75556332D01*
X164869103Y-75556341D01*
X164834500Y-75730304D01*
X163021000Y-75730304D01*
X163021000Y-75184500D01*
X161519000Y-75184500D01*
X161519000Y-75589803D01*
X160521000Y-75589803D01*
X160521000Y-75184500D01*
X159019000Y-75184500D01*
X159019000Y-75740075D01*
X158021000Y-75740075D01*
X158021000Y-75184500D01*
X157308635Y-75184500D01*
X157133632Y-75301434D01*
X157128488Y-75304691D01*
X157096894Y-75323627D01*
X157091599Y-75326627D01*
X157048377Y-75349729D01*
X157042938Y-75352466D01*
X157009656Y-75368206D01*
X157004095Y-75370671D01*
X156794949Y-75457301D01*
X156789272Y-75459491D01*
X156754620Y-75471890D01*
X156748845Y-75473798D01*
X156701952Y-75488025D01*
X156696084Y-75489649D01*
X156660349Y-75498601D01*
X156654408Y-75499935D01*
X156519000Y-75526869D01*
X155521000Y-75526869D01*
X155521000Y-75444853D01*
X155341905Y-75370671D01*
X155336344Y-75368206D01*
X155303062Y-75352466D01*
X155297623Y-75349729D01*
X155254401Y-75326627D01*
X155249106Y-75323627D01*
X155217512Y-75304691D01*
X155212368Y-75301434D01*
X155037365Y-75184500D01*
X154019000Y-75184500D01*
X154019000Y-76686500D01*
X150521000Y-76686500D01*
X150521000Y-75929370D01*
X150493686Y-75896088D01*
X150489940Y-75891288D01*
X150468007Y-75861714D01*
X150464504Y-75856740D01*
X150333256Y-75660314D01*
X150329999Y-75655170D01*
X150311064Y-75623578D01*
X150308064Y-75618282D01*
X150284963Y-75575061D01*
X150282227Y-75569626D01*
X150266487Y-75536346D01*
X150264021Y-75530783D01*
X150173620Y-75312535D01*
X150171430Y-75306859D01*
X150159027Y-75272197D01*
X150157118Y-75266418D01*
X150142891Y-75219522D01*
X150141267Y-75213652D01*
X150133965Y-75184500D01*
X149019000Y-75184500D01*
X149019000Y-76686500D01*
X148021000Y-76686500D01*
X148021000Y-75184500D01*
X146519000Y-75184500D01*
X146519000Y-76686500D01*
X145521000Y-76686500D01*
X145521000Y-75184500D01*
X144019000Y-75184500D01*
X144019000Y-76686500D01*
X143021000Y-76686500D01*
X143021000Y-75184500D01*
X141519000Y-75184500D01*
X141519000Y-76686500D01*
X140521000Y-76686500D01*
X140521000Y-75184500D01*
X139019000Y-75184500D01*
X139019000Y-76686500D01*
X138021000Y-76686500D01*
X138021000Y-75184500D01*
X137395000Y-75184500D01*
X137395000Y-76686500D01*
X136271000Y-76686500D01*
X136271000Y-74186500D01*
X137395000Y-74186500D01*
X138021000Y-74186500D01*
X139019000Y-74186500D01*
X140521000Y-74186500D01*
X144019000Y-74186500D01*
X145521000Y-74186500D01*
X145521000Y-72936304D01*
X149848500Y-72936304D01*
X149848500Y-73113695D01*
X149883103Y-73287658D01*
X149883106Y-73287667D01*
X149950983Y-73451540D01*
X149950990Y-73451553D01*
X150049535Y-73599034D01*
X150049538Y-73599038D01*
X150174961Y-73724461D01*
X150174965Y-73724464D01*
X150322446Y-73823009D01*
X150322459Y-73823016D01*
X150395626Y-73853322D01*
X150486334Y-73890894D01*
X150486336Y-73890894D01*
X150486341Y-73890896D01*
X150660304Y-73925499D01*
X150660307Y-73925500D01*
X150660309Y-73925500D01*
X150837693Y-73925500D01*
X150837694Y-73925499D01*
X150917384Y-73909648D01*
X151011658Y-73890896D01*
X151011661Y-73890894D01*
X151011666Y-73890894D01*
X151151535Y-73832958D01*
X151175540Y-73823016D01*
X151175540Y-73823015D01*
X151175547Y-73823013D01*
X151190230Y-73813201D01*
X151256907Y-73792322D01*
X151324288Y-73810805D01*
X151370979Y-73862782D01*
X151382158Y-73931752D01*
X151354274Y-73995816D01*
X151346806Y-74003983D01*
X151280697Y-74070092D01*
X151176681Y-74225762D01*
X151176676Y-74225771D01*
X151105027Y-74398748D01*
X151105025Y-74398756D01*
X151068500Y-74582379D01*
X151068500Y-74769620D01*
X151105025Y-74953243D01*
X151105027Y-74953251D01*
X151176676Y-75126228D01*
X151176681Y-75126237D01*
X151280697Y-75281907D01*
X151280700Y-75281911D01*
X151413088Y-75414299D01*
X151413092Y-75414302D01*
X151568762Y-75518318D01*
X151568768Y-75518321D01*
X151568769Y-75518322D01*
X151741749Y-75589973D01*
X151884069Y-75618282D01*
X151925379Y-75626499D01*
X151925383Y-75626500D01*
X151925384Y-75626500D01*
X152112617Y-75626500D01*
X152112618Y-75626499D01*
X152296251Y-75589973D01*
X152469231Y-75518322D01*
X152624908Y-75414302D01*
X152757302Y-75281908D01*
X152861322Y-75126231D01*
X152932973Y-74953251D01*
X152969500Y-74769616D01*
X152969500Y-74582384D01*
X152932973Y-74398749D01*
X152864746Y-74234035D01*
X152861323Y-74225771D01*
X152861318Y-74225762D01*
X152757302Y-74070092D01*
X152757299Y-74070088D01*
X152624911Y-73937700D01*
X152624907Y-73937697D01*
X152469237Y-73833681D01*
X152469228Y-73833676D01*
X152296251Y-73762027D01*
X152296243Y-73762025D01*
X152112620Y-73725500D01*
X152112616Y-73725500D01*
X151925384Y-73725500D01*
X151925379Y-73725500D01*
X151741756Y-73762025D01*
X151741748Y-73762027D01*
X151568771Y-73833676D01*
X151568761Y-73833682D01*
X151545888Y-73848965D01*
X151479210Y-73869841D01*
X151411831Y-73851355D01*
X151365142Y-73799375D01*
X151353967Y-73730405D01*
X151381854Y-73666342D01*
X151389308Y-73658190D01*
X151448464Y-73599035D01*
X151547013Y-73451547D01*
X151551796Y-73440001D01*
X151567654Y-73401714D01*
X151614894Y-73287666D01*
X151619997Y-73262015D01*
X151649499Y-73113695D01*
X151649500Y-73113693D01*
X151649500Y-72936306D01*
X151649499Y-72936304D01*
X151614896Y-72762341D01*
X151614893Y-72762332D01*
X151606997Y-72743270D01*
X151586845Y-72694616D01*
X151547015Y-72598457D01*
X151547013Y-72598454D01*
X151547013Y-72598453D01*
X151518181Y-72555304D01*
X155182500Y-72555304D01*
X155182500Y-72732695D01*
X155217103Y-72906658D01*
X155217106Y-72906667D01*
X155284983Y-73070540D01*
X155284990Y-73070553D01*
X155345377Y-73160928D01*
X155366255Y-73227606D01*
X155356837Y-73277270D01*
X155307105Y-73397337D01*
X155307103Y-73397341D01*
X155272500Y-73571304D01*
X155272500Y-73748695D01*
X155307103Y-73922658D01*
X155307106Y-73922667D01*
X155374983Y-74086540D01*
X155374990Y-74086553D01*
X155473535Y-74234034D01*
X155473538Y-74234038D01*
X155598961Y-74359461D01*
X155598965Y-74359464D01*
X155746446Y-74458009D01*
X155746459Y-74458016D01*
X155869363Y-74508923D01*
X155910334Y-74525894D01*
X155910336Y-74525894D01*
X155910341Y-74525896D01*
X156084304Y-74560499D01*
X156084307Y-74560500D01*
X156084309Y-74560500D01*
X156261693Y-74560500D01*
X156261694Y-74560499D01*
X156363072Y-74540334D01*
X156435658Y-74525896D01*
X156435661Y-74525894D01*
X156435666Y-74525894D01*
X156599547Y-74458013D01*
X156747035Y-74359464D01*
X156872464Y-74234035D01*
X156904226Y-74186500D01*
X159019000Y-74186500D01*
X160521000Y-74186500D01*
X161519000Y-74186500D01*
X163021000Y-74186500D01*
X164019000Y-74186500D01*
X164750046Y-74186500D01*
X164786329Y-74098904D01*
X164788794Y-74093344D01*
X164804534Y-74060062D01*
X164807271Y-74054623D01*
X164830373Y-74011401D01*
X164833373Y-74006106D01*
X164852309Y-73974512D01*
X164855566Y-73969368D01*
X164981343Y-73781131D01*
X164984847Y-73776155D01*
X165006779Y-73746583D01*
X165010524Y-73741785D01*
X165041613Y-73703903D01*
X165045587Y-73699296D01*
X165070318Y-73672009D01*
X165074516Y-73667600D01*
X165234600Y-73507516D01*
X165239009Y-73503318D01*
X165266296Y-73478587D01*
X165270903Y-73474613D01*
X165308785Y-73443524D01*
X165313583Y-73439779D01*
X165343155Y-73417847D01*
X165348131Y-73414343D01*
X165521000Y-73298834D01*
X165521000Y-72684500D01*
X164019000Y-72684500D01*
X164019000Y-74186500D01*
X163021000Y-74186500D01*
X163021000Y-72684500D01*
X161519000Y-72684500D01*
X161519000Y-74186500D01*
X160521000Y-74186500D01*
X160521000Y-72684500D01*
X159019000Y-72684500D01*
X159019000Y-74186500D01*
X156904226Y-74186500D01*
X156971013Y-74086547D01*
X157038894Y-73922666D01*
X157039169Y-73921287D01*
X157067310Y-73779811D01*
X157073500Y-73748691D01*
X157073500Y-73571309D01*
X157073500Y-73571306D01*
X157073499Y-73571304D01*
X157038896Y-73397341D01*
X157038893Y-73397332D01*
X156971016Y-73233459D01*
X156971009Y-73233446D01*
X156910622Y-73143071D01*
X156889744Y-73076394D01*
X156899163Y-73026728D01*
X156913436Y-72992269D01*
X156948894Y-72906666D01*
X156952341Y-72889341D01*
X156981396Y-72743269D01*
X156983500Y-72732691D01*
X156983500Y-72555309D01*
X156983500Y-72555306D01*
X156983499Y-72555304D01*
X156948896Y-72381341D01*
X156948893Y-72381332D01*
X156881016Y-72217459D01*
X156881009Y-72217446D01*
X156782464Y-72069965D01*
X156782461Y-72069961D01*
X156657038Y-71944538D01*
X156657034Y-71944535D01*
X156509553Y-71845990D01*
X156509540Y-71845983D01*
X156345667Y-71778106D01*
X156345658Y-71778103D01*
X156171694Y-71743500D01*
X156171691Y-71743500D01*
X155994309Y-71743500D01*
X155994306Y-71743500D01*
X155820341Y-71778103D01*
X155820332Y-71778106D01*
X155656459Y-71845983D01*
X155656446Y-71845990D01*
X155508965Y-71944535D01*
X155508961Y-71944538D01*
X155383538Y-72069961D01*
X155383535Y-72069965D01*
X155284990Y-72217446D01*
X155284983Y-72217459D01*
X155217106Y-72381332D01*
X155217103Y-72381341D01*
X155182500Y-72555304D01*
X151518181Y-72555304D01*
X151507031Y-72538617D01*
X151486153Y-72471942D01*
X151504637Y-72404562D01*
X151522450Y-72382047D01*
X151575464Y-72329035D01*
X151674013Y-72181547D01*
X151741894Y-72017666D01*
X151746385Y-71995092D01*
X151769874Y-71877000D01*
X151776500Y-71843691D01*
X151776500Y-71666309D01*
X151776500Y-71666306D01*
X151776499Y-71666304D01*
X151741896Y-71492341D01*
X151741893Y-71492332D01*
X151741804Y-71492118D01*
X151694122Y-71377000D01*
X151674016Y-71328459D01*
X151674009Y-71328446D01*
X151575464Y-71180965D01*
X151575461Y-71180961D01*
X151450038Y-71055538D01*
X151450034Y-71055535D01*
X151302553Y-70956990D01*
X151302540Y-70956983D01*
X151138667Y-70889106D01*
X151138658Y-70889103D01*
X150964694Y-70854500D01*
X150964691Y-70854500D01*
X150787309Y-70854500D01*
X150787306Y-70854500D01*
X150613341Y-70889103D01*
X150613332Y-70889106D01*
X150449459Y-70956983D01*
X150449446Y-70956990D01*
X150301965Y-71055535D01*
X150301961Y-71055538D01*
X150176538Y-71180961D01*
X150176535Y-71180965D01*
X150077990Y-71328446D01*
X150077983Y-71328459D01*
X150010106Y-71492332D01*
X150010103Y-71492341D01*
X149975500Y-71666304D01*
X149975500Y-71843695D01*
X150010103Y-72017658D01*
X150010106Y-72017667D01*
X150077984Y-72181542D01*
X150077985Y-72181544D01*
X150117967Y-72241381D01*
X150138845Y-72308059D01*
X150120360Y-72375439D01*
X150102547Y-72397952D01*
X150049539Y-72450960D01*
X150049535Y-72450965D01*
X149950990Y-72598446D01*
X149950983Y-72598459D01*
X149883106Y-72762332D01*
X149883103Y-72762341D01*
X149848500Y-72936304D01*
X145521000Y-72936304D01*
X145521000Y-72759883D01*
X145507256Y-72739314D01*
X145503999Y-72734170D01*
X145485064Y-72702578D01*
X145482064Y-72697282D01*
X145475232Y-72684500D01*
X144019000Y-72684500D01*
X144019000Y-74186500D01*
X140521000Y-74186500D01*
X140521000Y-73959896D01*
X140426891Y-73911945D01*
X140422595Y-73909648D01*
X140396883Y-73895248D01*
X140392681Y-73892785D01*
X140359260Y-73872303D01*
X140355159Y-73869678D01*
X140330682Y-73853322D01*
X140326691Y-73850541D01*
X140077301Y-73669351D01*
X140041997Y-73629622D01*
X139973924Y-73508072D01*
X139852376Y-73440001D01*
X139812647Y-73404697D01*
X139631458Y-73155308D01*
X139628676Y-73151316D01*
X139612321Y-73126840D01*
X139609697Y-73122740D01*
X139589215Y-73089319D01*
X139586752Y-73085117D01*
X139572352Y-73059405D01*
X139570056Y-73055110D01*
X139455786Y-72830846D01*
X139453660Y-72826463D01*
X139441331Y-72799719D01*
X139439381Y-72795261D01*
X139424379Y-72759045D01*
X139422604Y-72754509D01*
X139412405Y-72726864D01*
X139410809Y-72722262D01*
X139398540Y-72684500D01*
X139019000Y-72684500D01*
X139019000Y-74186500D01*
X138021000Y-74186500D01*
X138021000Y-72684500D01*
X137395000Y-72684500D01*
X137395000Y-74186500D01*
X136271000Y-74186500D01*
X136271000Y-71686500D01*
X137395000Y-71686500D01*
X138021000Y-71686500D01*
X139019000Y-71686500D01*
X139260546Y-71686500D01*
X139261619Y-71672875D01*
X139262095Y-71668038D01*
X139265555Y-71638804D01*
X139266223Y-71633980D01*
X139305594Y-71385407D01*
X139306449Y-71380619D01*
X139312189Y-71351756D01*
X139313231Y-71347004D01*
X139322379Y-71308887D01*
X139323609Y-71304171D01*
X139331611Y-71275794D01*
X139333026Y-71271130D01*
X139410809Y-71031737D01*
X139412405Y-71027136D01*
X139422604Y-70999491D01*
X139424378Y-70994956D01*
X139439380Y-70958739D01*
X139441333Y-70954276D01*
X139450224Y-70934990D01*
X139418195Y-70876333D01*
X139414233Y-70868419D01*
X139391975Y-70819682D01*
X139388587Y-70811502D01*
X139314931Y-70614018D01*
X139312452Y-70606679D01*
X139298847Y-70561828D01*
X139296832Y-70554352D01*
X139282484Y-70493637D01*
X139280939Y-70486045D01*
X139273028Y-70439840D01*
X139271959Y-70432167D01*
X139260788Y-70328245D01*
X139260477Y-70324936D01*
X139258865Y-70304899D01*
X139258643Y-70301587D01*
X139257214Y-70274905D01*
X139257081Y-70271587D01*
X139256545Y-70251536D01*
X139256501Y-70248222D01*
X139256501Y-70184500D01*
X139019000Y-70184500D01*
X139019000Y-71686500D01*
X138021000Y-71686500D01*
X138021000Y-70184500D01*
X137395000Y-70184500D01*
X137395000Y-71686500D01*
X136271000Y-71686500D01*
X136271000Y-69186500D01*
X137395000Y-69186500D01*
X138021000Y-69186500D01*
X139019000Y-69186500D01*
X139256500Y-69186500D01*
X139256500Y-68439135D01*
X140254500Y-68439135D01*
X140254500Y-70234870D01*
X140254501Y-70234876D01*
X140260908Y-70294483D01*
X140311202Y-70429328D01*
X140311206Y-70429335D01*
X140397452Y-70544544D01*
X140397455Y-70544547D01*
X140512664Y-70630793D01*
X140512671Y-70630797D01*
X140525817Y-70635700D01*
X140647517Y-70681091D01*
X140707127Y-70687500D01*
X140717685Y-70687499D01*
X140784723Y-70707179D01*
X140805372Y-70723818D01*
X141475591Y-71394037D01*
X141412007Y-71411075D01*
X141297993Y-71476901D01*
X141204901Y-71569993D01*
X141139075Y-71684007D01*
X141122037Y-71747591D01*
X140489728Y-71115282D01*
X140489727Y-71115282D01*
X140450380Y-71169439D01*
X140353904Y-71358782D01*
X140288242Y-71560869D01*
X140288242Y-71560872D01*
X140255000Y-71770753D01*
X140255000Y-71983246D01*
X140288242Y-72193127D01*
X140288242Y-72193130D01*
X140353904Y-72395217D01*
X140450375Y-72584550D01*
X140489728Y-72638716D01*
X141122037Y-72006408D01*
X141139075Y-72069993D01*
X141204901Y-72184007D01*
X141297993Y-72277099D01*
X141412007Y-72342925D01*
X141475590Y-72359962D01*
X140843282Y-72992269D01*
X140843282Y-72992270D01*
X140897449Y-73031624D01*
X141086782Y-73128095D01*
X141288870Y-73193757D01*
X141498754Y-73227000D01*
X141711246Y-73227000D01*
X141921127Y-73193757D01*
X141921130Y-73193757D01*
X142123217Y-73128095D01*
X142312554Y-73031622D01*
X142366716Y-72992270D01*
X142366717Y-72992270D01*
X141734408Y-72359962D01*
X141797993Y-72342925D01*
X141912007Y-72277099D01*
X142005099Y-72184007D01*
X142070925Y-72069993D01*
X142087962Y-72006408D01*
X142720270Y-72638717D01*
X142720270Y-72638716D01*
X142759622Y-72584554D01*
X142856095Y-72395217D01*
X142921757Y-72193130D01*
X142921757Y-72193127D01*
X142955000Y-71983246D01*
X142955000Y-71770753D01*
X142941655Y-71686500D01*
X144019000Y-71686500D01*
X145244500Y-71686500D01*
X145244500Y-71661379D01*
X146242500Y-71661379D01*
X146242500Y-71848620D01*
X146279025Y-72032243D01*
X146279027Y-72032251D01*
X146350676Y-72205228D01*
X146350681Y-72205237D01*
X146454697Y-72360907D01*
X146454700Y-72360911D01*
X146587088Y-72493299D01*
X146587092Y-72493302D01*
X146742762Y-72597318D01*
X146742771Y-72597323D01*
X146745509Y-72598457D01*
X146915749Y-72668973D01*
X147058069Y-72697282D01*
X147099379Y-72705499D01*
X147099383Y-72705500D01*
X147099384Y-72705500D01*
X147286617Y-72705500D01*
X147286618Y-72705499D01*
X147470251Y-72668973D01*
X147643231Y-72597322D01*
X147798908Y-72493302D01*
X147931302Y-72360908D01*
X148035322Y-72205231D01*
X148106973Y-72032251D01*
X148143500Y-71848616D01*
X148143500Y-71661384D01*
X148106973Y-71477749D01*
X148045129Y-71328446D01*
X148035323Y-71304771D01*
X148035318Y-71304762D01*
X147931302Y-71149092D01*
X147931299Y-71149088D01*
X147798911Y-71016700D01*
X147798907Y-71016697D01*
X147643237Y-70912681D01*
X147643228Y-70912676D01*
X147470251Y-70841027D01*
X147470243Y-70841025D01*
X147286620Y-70804500D01*
X147286616Y-70804500D01*
X147099384Y-70804500D01*
X147099379Y-70804500D01*
X146915756Y-70841025D01*
X146915748Y-70841027D01*
X146742771Y-70912676D01*
X146742762Y-70912681D01*
X146587092Y-71016697D01*
X146587088Y-71016700D01*
X146454700Y-71149088D01*
X146454697Y-71149092D01*
X146350681Y-71304762D01*
X146350676Y-71304771D01*
X146279027Y-71477748D01*
X146279025Y-71477756D01*
X146242500Y-71661379D01*
X145244500Y-71661379D01*
X145244500Y-71636882D01*
X145244649Y-71630800D01*
X145246455Y-71594025D01*
X145246903Y-71587954D01*
X145251706Y-71539185D01*
X145252451Y-71533142D01*
X145257855Y-71496714D01*
X145258896Y-71490719D01*
X145304985Y-71259013D01*
X145306318Y-71253076D01*
X145315267Y-71217348D01*
X145316891Y-71211478D01*
X145331118Y-71164582D01*
X145333027Y-71158803D01*
X145345430Y-71124141D01*
X145347620Y-71118465D01*
X145438021Y-70900217D01*
X145440487Y-70894654D01*
X145456227Y-70861374D01*
X145458963Y-70855939D01*
X145482064Y-70812718D01*
X145485064Y-70807422D01*
X145503999Y-70775830D01*
X145507255Y-70770687D01*
X145521000Y-70750115D01*
X145521000Y-70430993D01*
X155172114Y-70430993D01*
X155172114Y-70618234D01*
X155208639Y-70801857D01*
X155208641Y-70801865D01*
X155280290Y-70974842D01*
X155280295Y-70974851D01*
X155384311Y-71130521D01*
X155384314Y-71130525D01*
X155516702Y-71262913D01*
X155516706Y-71262916D01*
X155672376Y-71366932D01*
X155672385Y-71366937D01*
X155711570Y-71383168D01*
X155845363Y-71438587D01*
X155991303Y-71467616D01*
X156028993Y-71475113D01*
X156028997Y-71475114D01*
X156028998Y-71475114D01*
X156216231Y-71475114D01*
X156216232Y-71475113D01*
X156399865Y-71438587D01*
X156572845Y-71366936D01*
X156728522Y-71262916D01*
X156860916Y-71130522D01*
X156964936Y-70974845D01*
X157036587Y-70801865D01*
X157055031Y-70709142D01*
X161519000Y-70709142D01*
X161519000Y-71686500D01*
X163021000Y-71686500D01*
X164019000Y-71686500D01*
X165521000Y-71686500D01*
X165521000Y-71264279D01*
X169019000Y-71264279D01*
X169036360Y-71266855D01*
X169042357Y-71267896D01*
X169264408Y-71312065D01*
X169270349Y-71313399D01*
X169306084Y-71322351D01*
X169311952Y-71323975D01*
X169358845Y-71338202D01*
X169364620Y-71340110D01*
X169399272Y-71352509D01*
X169404949Y-71354699D01*
X169614095Y-71441329D01*
X169619656Y-71443794D01*
X169652938Y-71459534D01*
X169658377Y-71462271D01*
X169701599Y-71485373D01*
X169706894Y-71488373D01*
X169738488Y-71507309D01*
X169743632Y-71510566D01*
X169931869Y-71636343D01*
X169936845Y-71639847D01*
X169966417Y-71661779D01*
X169971215Y-71665524D01*
X169996774Y-71686500D01*
X170521000Y-71686500D01*
X170521000Y-70951015D01*
X171844864Y-70951015D01*
X171844864Y-71138256D01*
X171881389Y-71321879D01*
X171881391Y-71321887D01*
X171953040Y-71494864D01*
X171953045Y-71494873D01*
X172057061Y-71650543D01*
X172057064Y-71650547D01*
X172189452Y-71782935D01*
X172189456Y-71782938D01*
X172345126Y-71886954D01*
X172345132Y-71886957D01*
X172345133Y-71886958D01*
X172518113Y-71958609D01*
X172701507Y-71995088D01*
X172701743Y-71995135D01*
X172701747Y-71995136D01*
X172701748Y-71995136D01*
X172888981Y-71995136D01*
X172888982Y-71995135D01*
X173072615Y-71958609D01*
X173245595Y-71886958D01*
X173401272Y-71782938D01*
X173533666Y-71650544D01*
X173577670Y-71584688D01*
X173601781Y-71548603D01*
X173655393Y-71503798D01*
X173724718Y-71495091D01*
X173787745Y-71525245D01*
X173824465Y-71584688D01*
X173826500Y-71593303D01*
X173838025Y-71651243D01*
X173838027Y-71651251D01*
X173909676Y-71824228D01*
X173909681Y-71824237D01*
X174013697Y-71979907D01*
X174013700Y-71979911D01*
X174146088Y-72112299D01*
X174146092Y-72112302D01*
X174301762Y-72216318D01*
X174301771Y-72216323D01*
X174304499Y-72217453D01*
X174474749Y-72287973D01*
X174654644Y-72323756D01*
X174658379Y-72324499D01*
X174658383Y-72324500D01*
X174658384Y-72324500D01*
X174845617Y-72324500D01*
X174845618Y-72324499D01*
X175029251Y-72287973D01*
X175202231Y-72216322D01*
X175357908Y-72112302D01*
X175490302Y-71979908D01*
X175594322Y-71824231D01*
X175665973Y-71651251D01*
X175702500Y-71467616D01*
X175702500Y-71280384D01*
X175665973Y-71096749D01*
X175608080Y-70956983D01*
X175594323Y-70923771D01*
X175594318Y-70923762D01*
X175490302Y-70768092D01*
X175490299Y-70768088D01*
X175357911Y-70635700D01*
X175357907Y-70635697D01*
X175227015Y-70548237D01*
X176519000Y-70548237D01*
X176597380Y-70737465D01*
X176599570Y-70743141D01*
X176611973Y-70777803D01*
X176613882Y-70783582D01*
X176628109Y-70830478D01*
X176629733Y-70836348D01*
X176638682Y-70872076D01*
X176640015Y-70878013D01*
X176686104Y-71109719D01*
X176687145Y-71115714D01*
X176692549Y-71152142D01*
X176693294Y-71158185D01*
X176698097Y-71206954D01*
X176698545Y-71213025D01*
X176700351Y-71249800D01*
X176700500Y-71255882D01*
X176700500Y-71492118D01*
X176700351Y-71498200D01*
X176698545Y-71534975D01*
X176698097Y-71541046D01*
X176693294Y-71589815D01*
X176692549Y-71595858D01*
X176687145Y-71632286D01*
X176686104Y-71638281D01*
X176676513Y-71686500D01*
X178021000Y-71686500D01*
X178021000Y-70351500D01*
X177940809Y-70351500D01*
X177934726Y-70351351D01*
X177897954Y-70349545D01*
X177891884Y-70349097D01*
X177843112Y-70344294D01*
X177837071Y-70343549D01*
X177800640Y-70338145D01*
X177794643Y-70337104D01*
X177572592Y-70292935D01*
X177566651Y-70291601D01*
X177530916Y-70282649D01*
X177525048Y-70281025D01*
X177478155Y-70266798D01*
X177472380Y-70264890D01*
X177437728Y-70252491D01*
X177432051Y-70250301D01*
X177273191Y-70184500D01*
X176519000Y-70184500D01*
X176519000Y-70548237D01*
X175227015Y-70548237D01*
X175202237Y-70531681D01*
X175202228Y-70531676D01*
X175029251Y-70460027D01*
X175029243Y-70460025D01*
X174845620Y-70423500D01*
X174845616Y-70423500D01*
X174658384Y-70423500D01*
X174658379Y-70423500D01*
X174474756Y-70460025D01*
X174474748Y-70460027D01*
X174301771Y-70531676D01*
X174301762Y-70531681D01*
X174146092Y-70635697D01*
X174146088Y-70635700D01*
X174013700Y-70768088D01*
X173945582Y-70870033D01*
X173891969Y-70914837D01*
X173822644Y-70923544D01*
X173759617Y-70893389D01*
X173722898Y-70833945D01*
X173720868Y-70825360D01*
X173709337Y-70767385D01*
X173637686Y-70594405D01*
X173637685Y-70594404D01*
X173637682Y-70594398D01*
X173533666Y-70438728D01*
X173533663Y-70438724D01*
X173401275Y-70306336D01*
X173401271Y-70306333D01*
X173245601Y-70202317D01*
X173245592Y-70202312D01*
X173072615Y-70130663D01*
X173072607Y-70130661D01*
X172888984Y-70094136D01*
X172888980Y-70094136D01*
X172701748Y-70094136D01*
X172701743Y-70094136D01*
X172518120Y-70130661D01*
X172518112Y-70130663D01*
X172345135Y-70202312D01*
X172345126Y-70202317D01*
X172189456Y-70306333D01*
X172189452Y-70306336D01*
X172057064Y-70438724D01*
X172057061Y-70438728D01*
X171953045Y-70594398D01*
X171953040Y-70594407D01*
X171881391Y-70767384D01*
X171881389Y-70767392D01*
X171844864Y-70951015D01*
X170521000Y-70951015D01*
X170521000Y-70184500D01*
X169019000Y-70184500D01*
X169019000Y-71264279D01*
X165521000Y-71264279D01*
X165521000Y-70184500D01*
X164019000Y-70184500D01*
X164019000Y-71686500D01*
X163021000Y-71686500D01*
X163021000Y-70184500D01*
X162078649Y-70184500D01*
X162043657Y-70236869D01*
X162040153Y-70241845D01*
X162018221Y-70271417D01*
X162014476Y-70276215D01*
X161983387Y-70314097D01*
X161979413Y-70318704D01*
X161954682Y-70345991D01*
X161950484Y-70350400D01*
X161790400Y-70510484D01*
X161785991Y-70514682D01*
X161758704Y-70539413D01*
X161754097Y-70543387D01*
X161716215Y-70574476D01*
X161711417Y-70578221D01*
X161681845Y-70600153D01*
X161676869Y-70603657D01*
X161519000Y-70709142D01*
X157055031Y-70709142D01*
X157073114Y-70618230D01*
X157073114Y-70430998D01*
X157036587Y-70247363D01*
X156964936Y-70074383D01*
X156964935Y-70074382D01*
X156964932Y-70074376D01*
X156860916Y-69918706D01*
X156860913Y-69918702D01*
X156728525Y-69786314D01*
X156728521Y-69786311D01*
X156572851Y-69682295D01*
X156572842Y-69682290D01*
X156399865Y-69610641D01*
X156399857Y-69610639D01*
X156216234Y-69574114D01*
X156216230Y-69574114D01*
X156028998Y-69574114D01*
X156028993Y-69574114D01*
X155845370Y-69610639D01*
X155845362Y-69610641D01*
X155672385Y-69682290D01*
X155672376Y-69682295D01*
X155516706Y-69786311D01*
X155516702Y-69786314D01*
X155384314Y-69918702D01*
X155384311Y-69918706D01*
X155280295Y-70074376D01*
X155280290Y-70074385D01*
X155208641Y-70247362D01*
X155208639Y-70247370D01*
X155172114Y-70430993D01*
X145521000Y-70430993D01*
X145521000Y-70184500D01*
X144019000Y-70184500D01*
X144019000Y-71686500D01*
X142941655Y-71686500D01*
X142921757Y-71560872D01*
X142921757Y-71560869D01*
X142856095Y-71358782D01*
X142759624Y-71169449D01*
X142720270Y-71115282D01*
X142720269Y-71115282D01*
X142087962Y-71747590D01*
X142070925Y-71684007D01*
X142005099Y-71569993D01*
X141912007Y-71476901D01*
X141797993Y-71411075D01*
X141734409Y-71394037D01*
X142404627Y-70723818D01*
X142465950Y-70690333D01*
X142492307Y-70687499D01*
X142502872Y-70687499D01*
X142562483Y-70681091D01*
X142697331Y-70630796D01*
X142812546Y-70544546D01*
X142898796Y-70429331D01*
X142949091Y-70294483D01*
X142955500Y-70234873D01*
X142955499Y-69186500D01*
X144019000Y-69186500D01*
X145521000Y-69186500D01*
X146519000Y-69186500D01*
X148021000Y-69186500D01*
X149019000Y-69186500D01*
X150521000Y-69186500D01*
X154041095Y-69186500D01*
X154705133Y-69186500D01*
X154828341Y-69063292D01*
X154832750Y-69059094D01*
X154860037Y-69034363D01*
X154864644Y-69030389D01*
X154902526Y-68999300D01*
X154907326Y-68995554D01*
X154936900Y-68973621D01*
X154941874Y-68970118D01*
X155138300Y-68838870D01*
X155143444Y-68835613D01*
X155175036Y-68816678D01*
X155180332Y-68813678D01*
X155223553Y-68790577D01*
X155228988Y-68787841D01*
X155262268Y-68772101D01*
X155267831Y-68769635D01*
X155486079Y-68679234D01*
X155491755Y-68677044D01*
X155521000Y-68666579D01*
X155521000Y-68616787D01*
X156519000Y-68616787D01*
X156618601Y-68636599D01*
X156624538Y-68637932D01*
X156660266Y-68646881D01*
X156666136Y-68648505D01*
X156713032Y-68662732D01*
X156718811Y-68664641D01*
X156753473Y-68677044D01*
X156759149Y-68679234D01*
X156977397Y-68769635D01*
X156982960Y-68772101D01*
X157016240Y-68787841D01*
X157021675Y-68790577D01*
X157064896Y-68813678D01*
X157070192Y-68816678D01*
X157101784Y-68835613D01*
X157106928Y-68838870D01*
X157303354Y-68970118D01*
X157308328Y-68973621D01*
X157337902Y-68995554D01*
X157342702Y-68999300D01*
X157380584Y-69030389D01*
X157385191Y-69034363D01*
X157412478Y-69059094D01*
X157416887Y-69063292D01*
X157540095Y-69186500D01*
X158021000Y-69186500D01*
X158021000Y-68820216D01*
X157968699Y-68693949D01*
X157966509Y-68688272D01*
X157954110Y-68653620D01*
X157952202Y-68647845D01*
X157937975Y-68600952D01*
X157936351Y-68595084D01*
X157927399Y-68559349D01*
X157926065Y-68553408D01*
X157881896Y-68331357D01*
X157880855Y-68325360D01*
X157875451Y-68288929D01*
X157874706Y-68282888D01*
X157869903Y-68234116D01*
X157869455Y-68228046D01*
X157867649Y-68191274D01*
X157867500Y-68185191D01*
X157867500Y-67983304D01*
X158865500Y-67983304D01*
X158865500Y-68160695D01*
X158900103Y-68334658D01*
X158900106Y-68334667D01*
X158967983Y-68498540D01*
X158967990Y-68498553D01*
X159066535Y-68646034D01*
X159066538Y-68646038D01*
X159191961Y-68771461D01*
X159191965Y-68771464D01*
X159339446Y-68870009D01*
X159339459Y-68870016D01*
X159413027Y-68900488D01*
X159503334Y-68937894D01*
X159527691Y-68942738D01*
X159589602Y-68975123D01*
X159624176Y-69035839D01*
X159627500Y-69064356D01*
X159627500Y-69176695D01*
X159662103Y-69350658D01*
X159662106Y-69350667D01*
X159729983Y-69514540D01*
X159729990Y-69514553D01*
X159828535Y-69662034D01*
X159828538Y-69662038D01*
X159953961Y-69787461D01*
X159953965Y-69787464D01*
X160101446Y-69886009D01*
X160101459Y-69886016D01*
X160224363Y-69936923D01*
X160265334Y-69953894D01*
X160265336Y-69953894D01*
X160265341Y-69953896D01*
X160439304Y-69988499D01*
X160439307Y-69988500D01*
X160439309Y-69988500D01*
X160616693Y-69988500D01*
X160616694Y-69988499D01*
X160674682Y-69976964D01*
X160790658Y-69953896D01*
X160790661Y-69953894D01*
X160790666Y-69953894D01*
X160954547Y-69886013D01*
X161102035Y-69787464D01*
X161227464Y-69662035D01*
X161326013Y-69514547D01*
X161393894Y-69350666D01*
X161400214Y-69318896D01*
X161428499Y-69176695D01*
X161428500Y-69176693D01*
X161428500Y-68999306D01*
X161428499Y-68999300D01*
X161426369Y-68988594D01*
X164019000Y-68988594D01*
X164019000Y-69186500D01*
X165521000Y-69186500D01*
X166519000Y-69186500D01*
X166657047Y-69186500D01*
X169019000Y-69186500D01*
X170521000Y-69186500D01*
X171519000Y-69186500D01*
X172194033Y-69186500D01*
X174019000Y-69186500D01*
X175521000Y-69186500D01*
X175521000Y-68364304D01*
X177153500Y-68364304D01*
X177153500Y-68541695D01*
X177188103Y-68715658D01*
X177188106Y-68715667D01*
X177255983Y-68879540D01*
X177255990Y-68879553D01*
X177354535Y-69027034D01*
X177354538Y-69027038D01*
X177479961Y-69152461D01*
X177479965Y-69152464D01*
X177627446Y-69251009D01*
X177627459Y-69251016D01*
X177750363Y-69301923D01*
X177791334Y-69318894D01*
X177791336Y-69318894D01*
X177791341Y-69318896D01*
X177965304Y-69353499D01*
X177965307Y-69353500D01*
X177965309Y-69353500D01*
X178142693Y-69353500D01*
X178142694Y-69353499D01*
X178200682Y-69341964D01*
X178316658Y-69318896D01*
X178316661Y-69318894D01*
X178316666Y-69318894D01*
X178480547Y-69251013D01*
X178628035Y-69152464D01*
X178753464Y-69027035D01*
X178852013Y-68879547D01*
X178889328Y-68789457D01*
X178933166Y-68735057D01*
X178999460Y-68712991D01*
X179067160Y-68730269D01*
X179114771Y-68781406D01*
X179127178Y-68850165D01*
X179126362Y-68856309D01*
X179124369Y-68868894D01*
X179106500Y-68981713D01*
X179106500Y-68981718D01*
X179106500Y-69194286D01*
X179139753Y-69404239D01*
X179205444Y-69606414D01*
X179301951Y-69795820D01*
X179426890Y-69967786D01*
X179577213Y-70118109D01*
X179749182Y-70243050D01*
X179757946Y-70247516D01*
X179808742Y-70295491D01*
X179825536Y-70363312D01*
X179802998Y-70429447D01*
X179757946Y-70468484D01*
X179749182Y-70472949D01*
X179577213Y-70597890D01*
X179426890Y-70748213D01*
X179301951Y-70920179D01*
X179205444Y-71109585D01*
X179139753Y-71311760D01*
X179106500Y-71521713D01*
X179106500Y-71734286D01*
X179139735Y-71944127D01*
X179139754Y-71944243D01*
X179180602Y-72069961D01*
X179205444Y-72146414D01*
X179301951Y-72335820D01*
X179426890Y-72507786D01*
X179577213Y-72658109D01*
X179749179Y-72783048D01*
X179749181Y-72783049D01*
X179749184Y-72783051D01*
X179938588Y-72879557D01*
X180140757Y-72945246D01*
X180350713Y-72978500D01*
X180350714Y-72978500D01*
X180563286Y-72978500D01*
X180563287Y-72978500D01*
X180773243Y-72945246D01*
X180975412Y-72879557D01*
X181164816Y-72783051D01*
X181225015Y-72739314D01*
X181336786Y-72658109D01*
X181336788Y-72658106D01*
X181336792Y-72658104D01*
X181487104Y-72507792D01*
X181487106Y-72507788D01*
X181487109Y-72507786D01*
X181572890Y-72389717D01*
X181612051Y-72335816D01*
X181616793Y-72326508D01*
X181664763Y-72275711D01*
X181732583Y-72258911D01*
X181798719Y-72281445D01*
X181837763Y-72326500D01*
X181842373Y-72335547D01*
X181881728Y-72389716D01*
X182514037Y-71757408D01*
X182531075Y-71820993D01*
X182596901Y-71935007D01*
X182689993Y-72028099D01*
X182804007Y-72093925D01*
X182867590Y-72110962D01*
X182235282Y-72743269D01*
X182235282Y-72743270D01*
X182289449Y-72782624D01*
X182478782Y-72879095D01*
X182680870Y-72944757D01*
X182890754Y-72978000D01*
X183103246Y-72978000D01*
X183313127Y-72944757D01*
X183313130Y-72944757D01*
X183515217Y-72879095D01*
X183704554Y-72782622D01*
X183758716Y-72743270D01*
X183758717Y-72743270D01*
X183126408Y-72110962D01*
X183189993Y-72093925D01*
X183304007Y-72028099D01*
X183397099Y-71935007D01*
X183462925Y-71820993D01*
X183479962Y-71757408D01*
X184112270Y-72389717D01*
X184112270Y-72389716D01*
X184151622Y-72335554D01*
X184248095Y-72146217D01*
X184313757Y-71944130D01*
X184313757Y-71944127D01*
X184347000Y-71734246D01*
X184347000Y-71521753D01*
X184313757Y-71311872D01*
X184313757Y-71311869D01*
X184248095Y-71109782D01*
X184151624Y-70920449D01*
X184112270Y-70866282D01*
X184112269Y-70866282D01*
X183479962Y-71498590D01*
X183462925Y-71435007D01*
X183397099Y-71320993D01*
X183304007Y-71227901D01*
X183189993Y-71162075D01*
X183126409Y-71145037D01*
X183758716Y-70512728D01*
X183704547Y-70473373D01*
X183704547Y-70473372D01*
X183695500Y-70468763D01*
X183644706Y-70420788D01*
X183627912Y-70352966D01*
X183650451Y-70286832D01*
X183695508Y-70247793D01*
X183704816Y-70243051D01*
X183785405Y-70184500D01*
X183876786Y-70118109D01*
X183876788Y-70118106D01*
X183876792Y-70118104D01*
X184027104Y-69967792D01*
X184027106Y-69967788D01*
X184027109Y-69967786D01*
X184152048Y-69795820D01*
X184152047Y-69795820D01*
X184152051Y-69795816D01*
X184248557Y-69606412D01*
X184314246Y-69404243D01*
X184347500Y-69194287D01*
X184347500Y-68981713D01*
X184314246Y-68771757D01*
X184248557Y-68569588D01*
X184152051Y-68380184D01*
X184152049Y-68380181D01*
X184152048Y-68380179D01*
X184027109Y-68208213D01*
X183876786Y-68057890D01*
X183704820Y-67932951D01*
X183704115Y-67932591D01*
X183696054Y-67928485D01*
X183645259Y-67880512D01*
X183628463Y-67812692D01*
X183650999Y-67746556D01*
X183696054Y-67707515D01*
X183704816Y-67703051D01*
X183770971Y-67654987D01*
X183876786Y-67578109D01*
X183876788Y-67578106D01*
X183876792Y-67578104D01*
X184027104Y-67427792D01*
X184027106Y-67427788D01*
X184027109Y-67427786D01*
X184152048Y-67255820D01*
X184152047Y-67255820D01*
X184152051Y-67255816D01*
X184248557Y-67066412D01*
X184314246Y-66864243D01*
X184347500Y-66654287D01*
X184347500Y-66441713D01*
X184314246Y-66231757D01*
X184248557Y-66029588D01*
X184152051Y-65840184D01*
X184152049Y-65840181D01*
X184152048Y-65840179D01*
X184027109Y-65668213D01*
X183876786Y-65517890D01*
X183704820Y-65392951D01*
X183515414Y-65296444D01*
X183515413Y-65296443D01*
X183515412Y-65296443D01*
X183313243Y-65230754D01*
X183313241Y-65230753D01*
X183313240Y-65230753D01*
X183151957Y-65205208D01*
X183103287Y-65197500D01*
X182890713Y-65197500D01*
X182842042Y-65205208D01*
X182680760Y-65230753D01*
X182478585Y-65296444D01*
X182289179Y-65392951D01*
X182117215Y-65517889D01*
X182003673Y-65631431D01*
X181942350Y-65664915D01*
X181872658Y-65659931D01*
X181816725Y-65618059D01*
X181799810Y-65587082D01*
X181750797Y-65455671D01*
X181750793Y-65455664D01*
X181664547Y-65340455D01*
X181664544Y-65340452D01*
X181549335Y-65254206D01*
X181549328Y-65254202D01*
X181414482Y-65203908D01*
X181414483Y-65203908D01*
X181354883Y-65197501D01*
X181354881Y-65197500D01*
X181354873Y-65197500D01*
X181354864Y-65197500D01*
X179559129Y-65197500D01*
X179559123Y-65197501D01*
X179499516Y-65203908D01*
X179364671Y-65254202D01*
X179364664Y-65254206D01*
X179249455Y-65340452D01*
X179249452Y-65340455D01*
X179163206Y-65455664D01*
X179163202Y-65455671D01*
X179112908Y-65590517D01*
X179106501Y-65650116D01*
X179106500Y-65650135D01*
X179106500Y-67445870D01*
X179106501Y-67445876D01*
X179112908Y-67505483D01*
X179163202Y-67640328D01*
X179163206Y-67640335D01*
X179249452Y-67755544D01*
X179249455Y-67755547D01*
X179364664Y-67841793D01*
X179364671Y-67841797D01*
X179496082Y-67890810D01*
X179552016Y-67932681D01*
X179576433Y-67998145D01*
X179561582Y-68066418D01*
X179540431Y-68094673D01*
X179426889Y-68208215D01*
X179301951Y-68380179D01*
X179205444Y-68569583D01*
X179193814Y-68605379D01*
X179154376Y-68663054D01*
X179090017Y-68690252D01*
X179021170Y-68678337D01*
X178969695Y-68631092D01*
X178951934Y-68563518D01*
X178954267Y-68542863D01*
X178954500Y-68541691D01*
X178954500Y-68364306D01*
X178954499Y-68364304D01*
X178919896Y-68190341D01*
X178919893Y-68190332D01*
X178852016Y-68026459D01*
X178852009Y-68026446D01*
X178753464Y-67878965D01*
X178753461Y-67878961D01*
X178628038Y-67753538D01*
X178628034Y-67753535D01*
X178480553Y-67654990D01*
X178480540Y-67654983D01*
X178316667Y-67587106D01*
X178316658Y-67587103D01*
X178142694Y-67552500D01*
X178142691Y-67552500D01*
X177965309Y-67552500D01*
X177965306Y-67552500D01*
X177791341Y-67587103D01*
X177791332Y-67587106D01*
X177627459Y-67654983D01*
X177627446Y-67654990D01*
X177479965Y-67753535D01*
X177479961Y-67753538D01*
X177354538Y-67878961D01*
X177354535Y-67878965D01*
X177255990Y-68026446D01*
X177255983Y-68026459D01*
X177188106Y-68190332D01*
X177188103Y-68190341D01*
X177153500Y-68364304D01*
X175521000Y-68364304D01*
X175521000Y-67684500D01*
X174019000Y-67684500D01*
X174019000Y-69186500D01*
X172194033Y-69186500D01*
X172199167Y-69184663D01*
X172204946Y-69182754D01*
X172251842Y-69168527D01*
X172257712Y-69166903D01*
X172293440Y-69157954D01*
X172299377Y-69156621D01*
X172531083Y-69110532D01*
X172537078Y-69109491D01*
X172573506Y-69104087D01*
X172579549Y-69103342D01*
X172628318Y-69098539D01*
X172634389Y-69098091D01*
X172671164Y-69096285D01*
X172677246Y-69096136D01*
X172913482Y-69096136D01*
X172919564Y-69096285D01*
X172956339Y-69098091D01*
X172962410Y-69098539D01*
X173011179Y-69103342D01*
X173017222Y-69104087D01*
X173021000Y-69104647D01*
X173021000Y-67728717D01*
X172927601Y-67713925D01*
X172908681Y-67709383D01*
X172832099Y-67684500D01*
X171519000Y-67684500D01*
X171519000Y-69186500D01*
X170521000Y-69186500D01*
X170521000Y-67684500D01*
X169019000Y-67684500D01*
X169019000Y-69186500D01*
X166657047Y-69186500D01*
X166658367Y-69185373D01*
X166811178Y-69074350D01*
X166827768Y-69064183D01*
X166996065Y-68978431D01*
X167014042Y-68970985D01*
X167193681Y-68912617D01*
X167212601Y-68908075D01*
X167399160Y-68878527D01*
X167418558Y-68877000D01*
X167607442Y-68877000D01*
X167626840Y-68878527D01*
X167813399Y-68908075D01*
X167832319Y-68912617D01*
X168011958Y-68970985D01*
X168021000Y-68974730D01*
X168021000Y-67684500D01*
X166519000Y-67684500D01*
X166519000Y-69186500D01*
X165521000Y-69186500D01*
X165521000Y-67684500D01*
X164316877Y-67684500D01*
X164317104Y-67685642D01*
X164318145Y-67691640D01*
X164323549Y-67728071D01*
X164324294Y-67734112D01*
X164329097Y-67782884D01*
X164329545Y-67788954D01*
X164331351Y-67825726D01*
X164331500Y-67831809D01*
X164331500Y-68058191D01*
X164331351Y-68064274D01*
X164329545Y-68101046D01*
X164329097Y-68107116D01*
X164324294Y-68155888D01*
X164323549Y-68161929D01*
X164318145Y-68198360D01*
X164317104Y-68204357D01*
X164272935Y-68426408D01*
X164271601Y-68432349D01*
X164262649Y-68468084D01*
X164261025Y-68473952D01*
X164246798Y-68520845D01*
X164244890Y-68526620D01*
X164232491Y-68561272D01*
X164230301Y-68566949D01*
X164143671Y-68776095D01*
X164141206Y-68781656D01*
X164125466Y-68814938D01*
X164122729Y-68820377D01*
X164099627Y-68863599D01*
X164096627Y-68868894D01*
X164077691Y-68900488D01*
X164074434Y-68905633D01*
X164019000Y-68988594D01*
X161426369Y-68988594D01*
X161393896Y-68825341D01*
X161393893Y-68825332D01*
X161390308Y-68816678D01*
X161359794Y-68743009D01*
X161326016Y-68661459D01*
X161326012Y-68661452D01*
X161325257Y-68660322D01*
X161263162Y-68567391D01*
X161242285Y-68500715D01*
X161260769Y-68433335D01*
X161312748Y-68386644D01*
X161366265Y-68374501D01*
X161472777Y-68374501D01*
X161536436Y-68361838D01*
X161606027Y-68368065D01*
X161661205Y-68410927D01*
X161663730Y-68414564D01*
X161733535Y-68519034D01*
X161733538Y-68519038D01*
X161858961Y-68644461D01*
X161858965Y-68644464D01*
X162006446Y-68743009D01*
X162006459Y-68743016D01*
X162121284Y-68790577D01*
X162170334Y-68810894D01*
X162170336Y-68810894D01*
X162170341Y-68810896D01*
X162344304Y-68845499D01*
X162344307Y-68845500D01*
X162344309Y-68845500D01*
X162521693Y-68845500D01*
X162521694Y-68845499D01*
X162579682Y-68833964D01*
X162695658Y-68810896D01*
X162695661Y-68810894D01*
X162695666Y-68810894D01*
X162859547Y-68743013D01*
X163007035Y-68644464D01*
X163132464Y-68519035D01*
X163231013Y-68371547D01*
X163232064Y-68369011D01*
X163273807Y-68268231D01*
X163298894Y-68207666D01*
X163299553Y-68204357D01*
X163328269Y-68059988D01*
X163333500Y-68033691D01*
X163333500Y-67856309D01*
X163333500Y-67856306D01*
X163333499Y-67856304D01*
X163298896Y-67682341D01*
X163298893Y-67682332D01*
X163295752Y-67674750D01*
X163259450Y-67587106D01*
X163231016Y-67518459D01*
X163231009Y-67518446D01*
X163132464Y-67370965D01*
X163132461Y-67370961D01*
X163007038Y-67245538D01*
X163007034Y-67245535D01*
X162859553Y-67146990D01*
X162859540Y-67146983D01*
X162695667Y-67079106D01*
X162695658Y-67079103D01*
X162521694Y-67044500D01*
X162521691Y-67044500D01*
X162344309Y-67044500D01*
X162304101Y-67052497D01*
X162280646Y-67057163D01*
X162211055Y-67050934D01*
X162155878Y-67008071D01*
X162153354Y-67004436D01*
X162107710Y-66936126D01*
X162083549Y-66899966D01*
X162083546Y-66899962D01*
X161958123Y-66774539D01*
X161958119Y-66774536D01*
X161826366Y-66686500D01*
X164019000Y-66686500D01*
X165521000Y-66686500D01*
X165521000Y-66668500D01*
X165494809Y-66668500D01*
X165488726Y-66668351D01*
X165451954Y-66666545D01*
X165445884Y-66666097D01*
X165397112Y-66661294D01*
X165391071Y-66660549D01*
X165354640Y-66655145D01*
X165348643Y-66654104D01*
X165126592Y-66609935D01*
X165120651Y-66608601D01*
X165084916Y-66599649D01*
X165079048Y-66598025D01*
X165032155Y-66583798D01*
X165026380Y-66581890D01*
X164991728Y-66569491D01*
X164986051Y-66567301D01*
X164776905Y-66480671D01*
X164771344Y-66478206D01*
X164738062Y-66462466D01*
X164732623Y-66459729D01*
X164696999Y-66440688D01*
X166519000Y-66440688D01*
X166519000Y-66686500D01*
X168021000Y-66686500D01*
X169019000Y-66686500D01*
X170521000Y-66686500D01*
X170521000Y-65359141D01*
X174019000Y-65359141D01*
X174082633Y-65405373D01*
X174097429Y-65418010D01*
X174230990Y-65551571D01*
X174243627Y-65566367D01*
X174354650Y-65719178D01*
X174364817Y-65735768D01*
X174450569Y-65904065D01*
X174458015Y-65922042D01*
X174516383Y-66101681D01*
X174520925Y-66120601D01*
X174550473Y-66307160D01*
X174552000Y-66326558D01*
X174552000Y-66515442D01*
X174550473Y-66534840D01*
X174526452Y-66686500D01*
X175521000Y-66686500D01*
X175521000Y-66215646D01*
X176519000Y-66215646D01*
X176519000Y-66686500D01*
X177357690Y-66686500D01*
X177432051Y-66655699D01*
X177437728Y-66653509D01*
X177472380Y-66641110D01*
X177478155Y-66639202D01*
X177525048Y-66624975D01*
X177530916Y-66623351D01*
X177566651Y-66614399D01*
X177572592Y-66613065D01*
X177794643Y-66568896D01*
X177800640Y-66567855D01*
X177837071Y-66562451D01*
X177843112Y-66561706D01*
X177891884Y-66556903D01*
X177897954Y-66556455D01*
X177934726Y-66554649D01*
X177940809Y-66554500D01*
X178021000Y-66554500D01*
X178021000Y-65184500D01*
X177951968Y-65184500D01*
X177949925Y-65197399D01*
X177945383Y-65216319D01*
X177887015Y-65395958D01*
X177879569Y-65413935D01*
X177793817Y-65582232D01*
X177783650Y-65598822D01*
X177672627Y-65751633D01*
X177659990Y-65766429D01*
X177526429Y-65899990D01*
X177511633Y-65912627D01*
X177358822Y-66023650D01*
X177342232Y-66033817D01*
X177173935Y-66119569D01*
X177155958Y-66127015D01*
X176976319Y-66185383D01*
X176957399Y-66189925D01*
X176770840Y-66219473D01*
X176751442Y-66221000D01*
X176562558Y-66221000D01*
X176543160Y-66219473D01*
X176519000Y-66215646D01*
X175521000Y-66215646D01*
X175521000Y-65583565D01*
X175520183Y-65582232D01*
X175434431Y-65413935D01*
X175426985Y-65395958D01*
X175368617Y-65216319D01*
X175364075Y-65197399D01*
X175362032Y-65184500D01*
X174019000Y-65184500D01*
X174019000Y-65359141D01*
X170521000Y-65359141D01*
X170521000Y-65184500D01*
X169019000Y-65184500D01*
X169019000Y-66686500D01*
X168021000Y-66686500D01*
X168021000Y-65184500D01*
X167461244Y-65184500D01*
X167447935Y-65251408D01*
X167446601Y-65257349D01*
X167437649Y-65293084D01*
X167436025Y-65298952D01*
X167421798Y-65345845D01*
X167419890Y-65351620D01*
X167407491Y-65386272D01*
X167405301Y-65391949D01*
X167318671Y-65601095D01*
X167316206Y-65606656D01*
X167300466Y-65639938D01*
X167297729Y-65645377D01*
X167274627Y-65688599D01*
X167271627Y-65693894D01*
X167252691Y-65725488D01*
X167249434Y-65730632D01*
X167123657Y-65918869D01*
X167120153Y-65923845D01*
X167098221Y-65953417D01*
X167094476Y-65958215D01*
X167063387Y-65996097D01*
X167059413Y-66000704D01*
X167034682Y-66027991D01*
X167030484Y-66032400D01*
X166870400Y-66192484D01*
X166865991Y-66196682D01*
X166838704Y-66221413D01*
X166834097Y-66225387D01*
X166796215Y-66256476D01*
X166791417Y-66260221D01*
X166761845Y-66282153D01*
X166756869Y-66285657D01*
X166568632Y-66411434D01*
X166563488Y-66414691D01*
X166531894Y-66433627D01*
X166526599Y-66436627D01*
X166519000Y-66440688D01*
X164696999Y-66440688D01*
X164689401Y-66436627D01*
X164684106Y-66433627D01*
X164652512Y-66414691D01*
X164647368Y-66411434D01*
X164459131Y-66285657D01*
X164454155Y-66282153D01*
X164424583Y-66260221D01*
X164419785Y-66256476D01*
X164381903Y-66225387D01*
X164377296Y-66221413D01*
X164350009Y-66196682D01*
X164345600Y-66192484D01*
X164185516Y-66032400D01*
X164181318Y-66027991D01*
X164156587Y-66000704D01*
X164152613Y-65996097D01*
X164121524Y-65958215D01*
X164117779Y-65953417D01*
X164095847Y-65923845D01*
X164092343Y-65918869D01*
X164019000Y-65809104D01*
X164019000Y-66686500D01*
X161826366Y-66686500D01*
X161810638Y-66675991D01*
X161810625Y-66675984D01*
X161646752Y-66608107D01*
X161646743Y-66608104D01*
X161472779Y-66573501D01*
X161472776Y-66573501D01*
X161295394Y-66573501D01*
X161295391Y-66573501D01*
X161121426Y-66608104D01*
X161121417Y-66608107D01*
X160957544Y-66675984D01*
X160957531Y-66675991D01*
X160810050Y-66774536D01*
X160810046Y-66774539D01*
X160684623Y-66899962D01*
X160684620Y-66899966D01*
X160586075Y-67047447D01*
X160586068Y-67047460D01*
X160518191Y-67211333D01*
X160518189Y-67211341D01*
X160505191Y-67276686D01*
X160472806Y-67338597D01*
X160412090Y-67373171D01*
X160342320Y-67369430D01*
X160314683Y-67355596D01*
X160192552Y-67273990D01*
X160192540Y-67273983D01*
X160028667Y-67206106D01*
X160028658Y-67206103D01*
X159854694Y-67171500D01*
X159854691Y-67171500D01*
X159677309Y-67171500D01*
X159677306Y-67171500D01*
X159503341Y-67206103D01*
X159503332Y-67206106D01*
X159339459Y-67273983D01*
X159339446Y-67273990D01*
X159191965Y-67372535D01*
X159191961Y-67372538D01*
X159066538Y-67497961D01*
X159066535Y-67497965D01*
X158967990Y-67645446D01*
X158967983Y-67645459D01*
X158900106Y-67809332D01*
X158900103Y-67809341D01*
X158865500Y-67983304D01*
X157867500Y-67983304D01*
X157867500Y-67958809D01*
X157867649Y-67952726D01*
X157869455Y-67915954D01*
X157869903Y-67909884D01*
X157874706Y-67861112D01*
X157875451Y-67855071D01*
X157880855Y-67818640D01*
X157881896Y-67812643D01*
X157907385Y-67684500D01*
X156519000Y-67684500D01*
X156519000Y-68616787D01*
X155521000Y-68616787D01*
X155521000Y-67684500D01*
X154914370Y-67684500D01*
X154910425Y-67694025D01*
X154907960Y-67699586D01*
X154892220Y-67732868D01*
X154889483Y-67738307D01*
X154866381Y-67781529D01*
X154863381Y-67786824D01*
X154844445Y-67818418D01*
X154841188Y-67823562D01*
X154715411Y-68011799D01*
X154711907Y-68016775D01*
X154689975Y-68046347D01*
X154686230Y-68051145D01*
X154655141Y-68089027D01*
X154651167Y-68093634D01*
X154626436Y-68120921D01*
X154622238Y-68125331D01*
X154568938Y-68178629D01*
X154542015Y-68313987D01*
X154540682Y-68319924D01*
X154531733Y-68355652D01*
X154530109Y-68361522D01*
X154515882Y-68408418D01*
X154513973Y-68414197D01*
X154501570Y-68448859D01*
X154499380Y-68454535D01*
X154408979Y-68672783D01*
X154406513Y-68678346D01*
X154390773Y-68711626D01*
X154388037Y-68717061D01*
X154364936Y-68760282D01*
X154361936Y-68765578D01*
X154343001Y-68797170D01*
X154339744Y-68802314D01*
X154208496Y-68998740D01*
X154204993Y-69003714D01*
X154183060Y-69033288D01*
X154179314Y-69038088D01*
X154148225Y-69075970D01*
X154144251Y-69080577D01*
X154119520Y-69107864D01*
X154115322Y-69112273D01*
X154041095Y-69186500D01*
X150521000Y-69186500D01*
X150521000Y-67724379D01*
X151703500Y-67724379D01*
X151703500Y-67911620D01*
X151740025Y-68095243D01*
X151740027Y-68095251D01*
X151811676Y-68268228D01*
X151811681Y-68268237D01*
X151915697Y-68423907D01*
X151915700Y-68423911D01*
X152048088Y-68556299D01*
X152048092Y-68556302D01*
X152203762Y-68660318D01*
X152203771Y-68660323D01*
X152233852Y-68672783D01*
X152376749Y-68731973D01*
X152519069Y-68760282D01*
X152560379Y-68768499D01*
X152560383Y-68768500D01*
X152560384Y-68768500D01*
X152747617Y-68768500D01*
X152747618Y-68768499D01*
X152931251Y-68731973D01*
X153104231Y-68660322D01*
X153259908Y-68556302D01*
X153392302Y-68423908D01*
X153496322Y-68268231D01*
X153567973Y-68095251D01*
X153604500Y-67911616D01*
X153604500Y-67741789D01*
X153624185Y-67674750D01*
X153659609Y-67638687D01*
X153773789Y-67562394D01*
X153899218Y-67436965D01*
X153997767Y-67289477D01*
X154065648Y-67125596D01*
X154074778Y-67079700D01*
X154089748Y-67004436D01*
X154100254Y-66951621D01*
X154100254Y-66774239D01*
X154100254Y-66774236D01*
X154100253Y-66774234D01*
X154065650Y-66600271D01*
X154065647Y-66600262D01*
X154064720Y-66598025D01*
X154030514Y-66515442D01*
X153997770Y-66436389D01*
X153997763Y-66436376D01*
X153899218Y-66288895D01*
X153899215Y-66288891D01*
X153773792Y-66163468D01*
X153773788Y-66163465D01*
X153626307Y-66064920D01*
X153626294Y-66064913D01*
X153462421Y-65997036D01*
X153462412Y-65997033D01*
X153288448Y-65962430D01*
X153288445Y-65962430D01*
X153111063Y-65962430D01*
X153111060Y-65962430D01*
X152937095Y-65997033D01*
X152937086Y-65997036D01*
X152773213Y-66064913D01*
X152773200Y-66064920D01*
X152625719Y-66163465D01*
X152625715Y-66163468D01*
X152500292Y-66288891D01*
X152500289Y-66288895D01*
X152401744Y-66436376D01*
X152401737Y-66436389D01*
X152333860Y-66600262D01*
X152333857Y-66600271D01*
X152299254Y-66774234D01*
X152299254Y-66853272D01*
X152279569Y-66920311D01*
X152226765Y-66966066D01*
X152222708Y-66967832D01*
X152203775Y-66975674D01*
X152203766Y-66975679D01*
X152048096Y-67079694D01*
X152048088Y-67079700D01*
X151915700Y-67212088D01*
X151915697Y-67212092D01*
X151811681Y-67367762D01*
X151811676Y-67367771D01*
X151740027Y-67540748D01*
X151740025Y-67540756D01*
X151703500Y-67724379D01*
X150521000Y-67724379D01*
X150521000Y-67684500D01*
X149019000Y-67684500D01*
X149019000Y-69186500D01*
X148021000Y-69186500D01*
X148021000Y-67684500D01*
X146519000Y-67684500D01*
X146519000Y-69186500D01*
X145521000Y-69186500D01*
X145521000Y-67684500D01*
X144019000Y-67684500D01*
X144019000Y-69186500D01*
X142955499Y-69186500D01*
X142955499Y-68439128D01*
X142949163Y-68380184D01*
X142949091Y-68379516D01*
X142898797Y-68244671D01*
X142898793Y-68244664D01*
X142812547Y-68129455D01*
X142812544Y-68129452D01*
X142697335Y-68043206D01*
X142697328Y-68043202D01*
X142562482Y-67992908D01*
X142562483Y-67992908D01*
X142502883Y-67986501D01*
X142502881Y-67986500D01*
X142502873Y-67986500D01*
X142502864Y-67986500D01*
X140707129Y-67986500D01*
X140707123Y-67986501D01*
X140647516Y-67992908D01*
X140512671Y-68043202D01*
X140512664Y-68043206D01*
X140397455Y-68129452D01*
X140397452Y-68129455D01*
X140311206Y-68244664D01*
X140311202Y-68244671D01*
X140260908Y-68379517D01*
X140255051Y-68433998D01*
X140254501Y-68439123D01*
X140254500Y-68439135D01*
X139256500Y-68439135D01*
X139256500Y-68425752D01*
X139256545Y-68422428D01*
X139257084Y-68402327D01*
X139257217Y-68399007D01*
X139258649Y-68372320D01*
X139258871Y-68369011D01*
X139260481Y-68349018D01*
X139260792Y-68345715D01*
X139271962Y-68241825D01*
X139273029Y-68234157D01*
X139280936Y-68187971D01*
X139282481Y-68180381D01*
X139296826Y-68119670D01*
X139298842Y-68112191D01*
X139312450Y-68067328D01*
X139314929Y-68059988D01*
X139388587Y-67862498D01*
X139391975Y-67854318D01*
X139414233Y-67805581D01*
X139418195Y-67797667D01*
X139452372Y-67735077D01*
X139456890Y-67727463D01*
X139484502Y-67684500D01*
X139019000Y-67684500D01*
X139019000Y-69186500D01*
X138021000Y-69186500D01*
X138021000Y-67684500D01*
X137395000Y-67684500D01*
X137395000Y-69186500D01*
X136271000Y-69186500D01*
X136271000Y-66686500D01*
X137395000Y-66686500D01*
X138021000Y-66686500D01*
X139019000Y-66686500D01*
X140521000Y-66686500D01*
X140521000Y-65767000D01*
X139019000Y-65767000D01*
X139019000Y-66686500D01*
X138021000Y-66686500D01*
X138021000Y-65767000D01*
X137395000Y-65767000D01*
X137395000Y-66686500D01*
X136271000Y-66686500D01*
X136271000Y-65737415D01*
X141519000Y-65737415D01*
X141519000Y-66686500D01*
X143021000Y-66686500D01*
X144019000Y-66686500D01*
X145521000Y-66686500D01*
X149019000Y-66686500D01*
X150521000Y-66686500D01*
X150521000Y-66318093D01*
X150513728Y-66315491D01*
X150508051Y-66313301D01*
X150298905Y-66226671D01*
X150293344Y-66224206D01*
X150260062Y-66208466D01*
X150254623Y-66205729D01*
X150211401Y-66182627D01*
X150206106Y-66179627D01*
X150174512Y-66160691D01*
X150169368Y-66157434D01*
X149981131Y-66031657D01*
X149976155Y-66028153D01*
X149946583Y-66006221D01*
X149941785Y-66002476D01*
X149903903Y-65971387D01*
X149899296Y-65967413D01*
X149872009Y-65942682D01*
X149867600Y-65938484D01*
X149707516Y-65778400D01*
X149703318Y-65773991D01*
X149678587Y-65746704D01*
X149674613Y-65742097D01*
X149643524Y-65704215D01*
X149639779Y-65699417D01*
X149617847Y-65669845D01*
X149614343Y-65664869D01*
X149488566Y-65476632D01*
X149485309Y-65471488D01*
X149466373Y-65439894D01*
X149463373Y-65434599D01*
X149440271Y-65391377D01*
X149437534Y-65385938D01*
X149421794Y-65352656D01*
X149419329Y-65347095D01*
X149351981Y-65184500D01*
X149019000Y-65184500D01*
X149019000Y-66686500D01*
X145521000Y-66686500D01*
X145521000Y-65709794D01*
X145515007Y-65701714D01*
X145511504Y-65696740D01*
X145380256Y-65500314D01*
X145376999Y-65495170D01*
X145358064Y-65463578D01*
X145355064Y-65458282D01*
X145331963Y-65415061D01*
X145329227Y-65409626D01*
X145313487Y-65376346D01*
X145311021Y-65370783D01*
X145233860Y-65184500D01*
X144019000Y-65184500D01*
X144019000Y-66686500D01*
X143021000Y-66686500D01*
X143021000Y-65184500D01*
X142272075Y-65184500D01*
X141878135Y-65578440D01*
X141837907Y-65605320D01*
X141519000Y-65737415D01*
X136271000Y-65737415D01*
X136271000Y-64767000D01*
X136290685Y-64699961D01*
X136343489Y-64654206D01*
X136395000Y-64643000D01*
X141224000Y-64643000D01*
X141351000Y-64516000D01*
X141351000Y-64422379D01*
X146115500Y-64422379D01*
X146115500Y-64609620D01*
X146152025Y-64793243D01*
X146152027Y-64793251D01*
X146223676Y-64966228D01*
X146223681Y-64966237D01*
X146327697Y-65121907D01*
X146327700Y-65121911D01*
X146460088Y-65254299D01*
X146460092Y-65254302D01*
X146615762Y-65358318D01*
X146615768Y-65358321D01*
X146615769Y-65358322D01*
X146788749Y-65429973D01*
X146917943Y-65455671D01*
X146972379Y-65466499D01*
X146972383Y-65466500D01*
X146972384Y-65466500D01*
X147159617Y-65466500D01*
X147159618Y-65466499D01*
X147343251Y-65429973D01*
X147516231Y-65358322D01*
X147671908Y-65254302D01*
X147804302Y-65121908D01*
X147908322Y-64966231D01*
X147979973Y-64793251D01*
X148016500Y-64609616D01*
X148016500Y-64427304D01*
X150229500Y-64427304D01*
X150229500Y-64604695D01*
X150264103Y-64778658D01*
X150264106Y-64778667D01*
X150331983Y-64942540D01*
X150331990Y-64942553D01*
X150430535Y-65090034D01*
X150430538Y-65090038D01*
X150555961Y-65215461D01*
X150555965Y-65215464D01*
X150703446Y-65314009D01*
X150703459Y-65314016D01*
X150810428Y-65358323D01*
X150867334Y-65381894D01*
X150867336Y-65381894D01*
X150867341Y-65381896D01*
X151041304Y-65416499D01*
X151041307Y-65416500D01*
X151041309Y-65416500D01*
X151218693Y-65416500D01*
X151218694Y-65416499D01*
X151276682Y-65404964D01*
X151392658Y-65381896D01*
X151392661Y-65381894D01*
X151392666Y-65381894D01*
X151556547Y-65314013D01*
X151704035Y-65215464D01*
X151734999Y-65184500D01*
X154096271Y-65184500D01*
X154118353Y-65196303D01*
X154123648Y-65199303D01*
X154155242Y-65218239D01*
X154160386Y-65221496D01*
X154348623Y-65347273D01*
X154353599Y-65350777D01*
X154383171Y-65372709D01*
X154387969Y-65376454D01*
X154425851Y-65407543D01*
X154430458Y-65411517D01*
X154457745Y-65436248D01*
X154462154Y-65440446D01*
X154622238Y-65600530D01*
X154626436Y-65604939D01*
X154651167Y-65632226D01*
X154655141Y-65636833D01*
X154686230Y-65674715D01*
X154689975Y-65679513D01*
X154711907Y-65709085D01*
X154715411Y-65714061D01*
X154841188Y-65902298D01*
X154844445Y-65907442D01*
X154863381Y-65939036D01*
X154866381Y-65944331D01*
X154889483Y-65987553D01*
X154892220Y-65992992D01*
X154907960Y-66026274D01*
X154910425Y-66031835D01*
X154997055Y-66240981D01*
X154999245Y-66246658D01*
X155011644Y-66281310D01*
X155013552Y-66287085D01*
X155027779Y-66333978D01*
X155029403Y-66339846D01*
X155038355Y-66375581D01*
X155039689Y-66381522D01*
X155083858Y-66603573D01*
X155084899Y-66609570D01*
X155090303Y-66646001D01*
X155091048Y-66652042D01*
X155094441Y-66686500D01*
X155521000Y-66686500D01*
X156519000Y-66686500D01*
X158021000Y-66686500D01*
X158021000Y-66326496D01*
X159019000Y-66326496D01*
X159144051Y-66274699D01*
X159149728Y-66272509D01*
X159184380Y-66260110D01*
X159190155Y-66258202D01*
X159237048Y-66243975D01*
X159242916Y-66242351D01*
X159278651Y-66233399D01*
X159284592Y-66232065D01*
X159506643Y-66187896D01*
X159512640Y-66186855D01*
X159549071Y-66181451D01*
X159555112Y-66180706D01*
X159603884Y-66175903D01*
X159609954Y-66175455D01*
X159646726Y-66173649D01*
X159652809Y-66173500D01*
X159879191Y-66173500D01*
X159885274Y-66173649D01*
X159922046Y-66175455D01*
X159928116Y-66175903D01*
X159976888Y-66180706D01*
X159982929Y-66181451D01*
X159990611Y-66182590D01*
X160121685Y-66051517D01*
X160126094Y-66047319D01*
X160153381Y-66022588D01*
X160157988Y-66018614D01*
X160195870Y-65987525D01*
X160200668Y-65983780D01*
X160230240Y-65961848D01*
X160235216Y-65958344D01*
X160423453Y-65832567D01*
X160428597Y-65829310D01*
X160460191Y-65810374D01*
X160465486Y-65807374D01*
X160508708Y-65784272D01*
X160514147Y-65781535D01*
X160521000Y-65778294D01*
X160521000Y-65690168D01*
X160330286Y-65728104D01*
X160324289Y-65729145D01*
X160287858Y-65734549D01*
X160281817Y-65735294D01*
X160233045Y-65740097D01*
X160226975Y-65740545D01*
X160190203Y-65742351D01*
X160184120Y-65742500D01*
X159957738Y-65742500D01*
X159951655Y-65742351D01*
X159914883Y-65740545D01*
X159908813Y-65740097D01*
X159860041Y-65735294D01*
X159854000Y-65734549D01*
X159817569Y-65729145D01*
X159811572Y-65728104D01*
X159589521Y-65683935D01*
X159583580Y-65682601D01*
X159547845Y-65673649D01*
X159541977Y-65672025D01*
X159495084Y-65657798D01*
X159489309Y-65655890D01*
X159454657Y-65643491D01*
X159448980Y-65641301D01*
X159292337Y-65576418D01*
X161519000Y-65576418D01*
X161540131Y-65577456D01*
X161546201Y-65577904D01*
X161594973Y-65582707D01*
X161601014Y-65583452D01*
X161637445Y-65588856D01*
X161643442Y-65589897D01*
X161865493Y-65634066D01*
X161871434Y-65635400D01*
X161907169Y-65644352D01*
X161913037Y-65645976D01*
X161959930Y-65660203D01*
X161965705Y-65662111D01*
X162000357Y-65674510D01*
X162006034Y-65676700D01*
X162215180Y-65763330D01*
X162220741Y-65765795D01*
X162254023Y-65781535D01*
X162259462Y-65784272D01*
X162302684Y-65807374D01*
X162307979Y-65810374D01*
X162339573Y-65829310D01*
X162344717Y-65832567D01*
X162532954Y-65958344D01*
X162537930Y-65961848D01*
X162567502Y-65983780D01*
X162572300Y-65987525D01*
X162610182Y-66018614D01*
X162614789Y-66022588D01*
X162642076Y-66047319D01*
X162646485Y-66051517D01*
X162649347Y-66054379D01*
X162649929Y-66054451D01*
X162686360Y-66059855D01*
X162692357Y-66060896D01*
X162914408Y-66105065D01*
X162920349Y-66106399D01*
X162956084Y-66115351D01*
X162961952Y-66116975D01*
X163008845Y-66131202D01*
X163014620Y-66133110D01*
X163021000Y-66135392D01*
X163021000Y-65184500D01*
X161519000Y-65184500D01*
X161519000Y-65576418D01*
X159292337Y-65576418D01*
X159239834Y-65554671D01*
X159234273Y-65552206D01*
X159200991Y-65536466D01*
X159195552Y-65533729D01*
X159152330Y-65510627D01*
X159147035Y-65507627D01*
X159115441Y-65488691D01*
X159110297Y-65485434D01*
X159019000Y-65424430D01*
X159019000Y-66326496D01*
X158021000Y-66326496D01*
X158021000Y-65184500D01*
X156519000Y-65184500D01*
X156519000Y-66686500D01*
X155521000Y-66686500D01*
X155521000Y-65184500D01*
X154096271Y-65184500D01*
X151734999Y-65184500D01*
X151829464Y-65090035D01*
X151928013Y-64942547D01*
X151995894Y-64778666D01*
X152002691Y-64744499D01*
X152022880Y-64643000D01*
X152030500Y-64604691D01*
X152030500Y-64427309D01*
X152030500Y-64427306D01*
X152030499Y-64427304D01*
X151995896Y-64253341D01*
X151995893Y-64253332D01*
X151968211Y-64186500D01*
X154019000Y-64186500D01*
X155521000Y-64186500D01*
X156519000Y-64186500D01*
X158021000Y-64186500D01*
X158021000Y-63755304D01*
X159170429Y-63755304D01*
X159170429Y-63932695D01*
X159205032Y-64106658D01*
X159205035Y-64106667D01*
X159272912Y-64270540D01*
X159272919Y-64270553D01*
X159371464Y-64418034D01*
X159371467Y-64418038D01*
X159496890Y-64543461D01*
X159496894Y-64543464D01*
X159644375Y-64642009D01*
X159644388Y-64642016D01*
X159739252Y-64681309D01*
X159808263Y-64709894D01*
X159808265Y-64709894D01*
X159808270Y-64709896D01*
X159982233Y-64744499D01*
X159982236Y-64744500D01*
X159982238Y-64744500D01*
X160159622Y-64744500D01*
X160159623Y-64744499D01*
X160217611Y-64732964D01*
X160333587Y-64709896D01*
X160333590Y-64709894D01*
X160333595Y-64709894D01*
X160497476Y-64642013D01*
X160644964Y-64543464D01*
X160770393Y-64418035D01*
X160868942Y-64270547D01*
X160936823Y-64106666D01*
X160937482Y-64103357D01*
X160963612Y-63971987D01*
X160971429Y-63932691D01*
X160971429Y-63755309D01*
X160971429Y-63755306D01*
X160971428Y-63755304D01*
X160936825Y-63581341D01*
X160936822Y-63581332D01*
X160868945Y-63417459D01*
X160868938Y-63417446D01*
X160770393Y-63269965D01*
X160770390Y-63269961D01*
X160644967Y-63144538D01*
X160644963Y-63144535D01*
X160497482Y-63045990D01*
X160497469Y-63045983D01*
X160333596Y-62978106D01*
X160333587Y-62978103D01*
X160159623Y-62943500D01*
X160159620Y-62943500D01*
X159982238Y-62943500D01*
X159982235Y-62943500D01*
X159808270Y-62978103D01*
X159808261Y-62978106D01*
X159644388Y-63045983D01*
X159644375Y-63045990D01*
X159496894Y-63144535D01*
X159496890Y-63144538D01*
X159371467Y-63269961D01*
X159371464Y-63269965D01*
X159272919Y-63417446D01*
X159272912Y-63417459D01*
X159205035Y-63581332D01*
X159205032Y-63581341D01*
X159170429Y-63755304D01*
X158021000Y-63755304D01*
X158021000Y-62684500D01*
X161578888Y-62684500D01*
X161583082Y-62690155D01*
X161586586Y-62695131D01*
X161712363Y-62883368D01*
X161715620Y-62888512D01*
X161734556Y-62920106D01*
X161737556Y-62925401D01*
X161760658Y-62968623D01*
X161763395Y-62974062D01*
X161779135Y-63007344D01*
X161781600Y-63012905D01*
X161868230Y-63222051D01*
X161870420Y-63227728D01*
X161882819Y-63262380D01*
X161884727Y-63268155D01*
X161898954Y-63315048D01*
X161900578Y-63320916D01*
X161909530Y-63356651D01*
X161910864Y-63362592D01*
X161955033Y-63584643D01*
X161956074Y-63590640D01*
X161961478Y-63627071D01*
X161962223Y-63633112D01*
X161967026Y-63681884D01*
X161967474Y-63687954D01*
X161969280Y-63724726D01*
X161969429Y-63730809D01*
X161969429Y-63957191D01*
X161969280Y-63963274D01*
X161967474Y-64000046D01*
X161967026Y-64006116D01*
X161962223Y-64054888D01*
X161961478Y-64060929D01*
X161956074Y-64097360D01*
X161955033Y-64103357D01*
X161938495Y-64186500D01*
X163021000Y-64186500D01*
X163021000Y-63660379D01*
X164149500Y-63660379D01*
X164149500Y-63847620D01*
X164186025Y-64031243D01*
X164186027Y-64031251D01*
X164257676Y-64204228D01*
X164257681Y-64204237D01*
X164361697Y-64359907D01*
X164361700Y-64359911D01*
X164494091Y-64492302D01*
X164652391Y-64598074D01*
X164697196Y-64651686D01*
X164707500Y-64701176D01*
X164707500Y-64858695D01*
X164742103Y-65032658D01*
X164742106Y-65032667D01*
X164809983Y-65196540D01*
X164809990Y-65196553D01*
X164908535Y-65344034D01*
X164908538Y-65344038D01*
X165033961Y-65469461D01*
X165033965Y-65469464D01*
X165181446Y-65568009D01*
X165181459Y-65568016D01*
X165270601Y-65604939D01*
X165345334Y-65635894D01*
X165345336Y-65635894D01*
X165345341Y-65635896D01*
X165519304Y-65670499D01*
X165519307Y-65670500D01*
X165519309Y-65670500D01*
X165696693Y-65670500D01*
X165696694Y-65670499D01*
X165770140Y-65655890D01*
X165870658Y-65635896D01*
X165870661Y-65635894D01*
X165870666Y-65635894D01*
X166034547Y-65568013D01*
X166182035Y-65469464D01*
X166307464Y-65344035D01*
X166406013Y-65196547D01*
X166473894Y-65032666D01*
X166487110Y-64966228D01*
X166508499Y-64858695D01*
X166508500Y-64858693D01*
X166508500Y-64681306D01*
X166508499Y-64681304D01*
X166473896Y-64507341D01*
X166473893Y-64507332D01*
X166406016Y-64343459D01*
X166406009Y-64343446D01*
X166307464Y-64195965D01*
X166307461Y-64195961D01*
X166182038Y-64070538D01*
X166182034Y-64070535D01*
X166095682Y-64012836D01*
X166050877Y-63959224D01*
X166042170Y-63889899D01*
X166042956Y-63885541D01*
X166050500Y-63847617D01*
X166050500Y-63660383D01*
X166050499Y-63660379D01*
X166045075Y-63633112D01*
X166013973Y-63476749D01*
X165951352Y-63325569D01*
X165942323Y-63303771D01*
X165942318Y-63303762D01*
X165838302Y-63148092D01*
X165838299Y-63148088D01*
X165705911Y-63015700D01*
X165705907Y-63015697D01*
X165550237Y-62911681D01*
X165550228Y-62911676D01*
X165377251Y-62840027D01*
X165377243Y-62840025D01*
X165193620Y-62803500D01*
X165193616Y-62803500D01*
X165006384Y-62803500D01*
X165006379Y-62803500D01*
X164822756Y-62840025D01*
X164822748Y-62840027D01*
X164649771Y-62911676D01*
X164649762Y-62911681D01*
X164494092Y-63015697D01*
X164494088Y-63015700D01*
X164361700Y-63148088D01*
X164361697Y-63148092D01*
X164257681Y-63303762D01*
X164257676Y-63303771D01*
X164186027Y-63476748D01*
X164186025Y-63476756D01*
X164149500Y-63660379D01*
X163021000Y-63660379D01*
X163021000Y-62684500D01*
X166728824Y-62684500D01*
X166785744Y-62769686D01*
X166789001Y-62774830D01*
X166807936Y-62806422D01*
X166810936Y-62811718D01*
X166834037Y-62854939D01*
X166836773Y-62860374D01*
X166852513Y-62893654D01*
X166854979Y-62899217D01*
X166945380Y-63117465D01*
X166947570Y-63123141D01*
X166959973Y-63157803D01*
X166961882Y-63163582D01*
X166976109Y-63210478D01*
X166977733Y-63216348D01*
X166986682Y-63252076D01*
X166988015Y-63258013D01*
X167034104Y-63489719D01*
X167035145Y-63495714D01*
X167038126Y-63515808D01*
X167059413Y-63539296D01*
X167063387Y-63543903D01*
X167094476Y-63581785D01*
X167098221Y-63586583D01*
X167120153Y-63616155D01*
X167123657Y-63621131D01*
X167249434Y-63809368D01*
X167252691Y-63814512D01*
X167271627Y-63846106D01*
X167274627Y-63851401D01*
X167297729Y-63894623D01*
X167300466Y-63900062D01*
X167316206Y-63933344D01*
X167318671Y-63938905D01*
X167405301Y-64148051D01*
X167407491Y-64153728D01*
X167419217Y-64186500D01*
X168021000Y-64186500D01*
X168021000Y-63371341D01*
X167903042Y-63333015D01*
X167885065Y-63325569D01*
X167784998Y-63274582D01*
X169019000Y-63274582D01*
X169019000Y-64186500D01*
X170057357Y-64186500D01*
X170023896Y-64018281D01*
X170022855Y-64012286D01*
X170017451Y-63975858D01*
X170016706Y-63969815D01*
X170011903Y-63921046D01*
X170011455Y-63914975D01*
X170009649Y-63878200D01*
X170009500Y-63872118D01*
X170009500Y-63660379D01*
X171007500Y-63660379D01*
X171007500Y-63847620D01*
X171044025Y-64031243D01*
X171044027Y-64031251D01*
X171115676Y-64204228D01*
X171115681Y-64204237D01*
X171219697Y-64359907D01*
X171219700Y-64359911D01*
X171352088Y-64492299D01*
X171352092Y-64492302D01*
X171507762Y-64596318D01*
X171507771Y-64596323D01*
X171527973Y-64604691D01*
X171680749Y-64667973D01*
X171841565Y-64699961D01*
X171864379Y-64704499D01*
X171864383Y-64704500D01*
X171864384Y-64704500D01*
X172051617Y-64704500D01*
X172051618Y-64704499D01*
X172235251Y-64667973D01*
X172408231Y-64596322D01*
X172563908Y-64492302D01*
X172696302Y-64359908D01*
X172800322Y-64204231D01*
X172807666Y-64186500D01*
X174019000Y-64186500D01*
X175521000Y-64186500D01*
X175521000Y-63578353D01*
X176519000Y-63578353D01*
X176543161Y-63574527D01*
X176562558Y-63573000D01*
X176751442Y-63573000D01*
X176770840Y-63574527D01*
X176957399Y-63604075D01*
X176976319Y-63608617D01*
X177155958Y-63666985D01*
X177173935Y-63674431D01*
X177342232Y-63760183D01*
X177358822Y-63770350D01*
X177511633Y-63881373D01*
X177526429Y-63894010D01*
X177659990Y-64027571D01*
X177672627Y-64042367D01*
X177777345Y-64186500D01*
X178021000Y-64186500D01*
X178021000Y-62684500D01*
X176519000Y-62684500D01*
X176519000Y-63578353D01*
X175521000Y-63578353D01*
X175521000Y-62684500D01*
X174019000Y-62684500D01*
X174019000Y-64186500D01*
X172807666Y-64186500D01*
X172871973Y-64031251D01*
X172908500Y-63847616D01*
X172908500Y-63660384D01*
X172871973Y-63476749D01*
X172809352Y-63325569D01*
X172800323Y-63303771D01*
X172800318Y-63303762D01*
X172696302Y-63148092D01*
X172696299Y-63148088D01*
X172563911Y-63015700D01*
X172563907Y-63015697D01*
X172408237Y-62911681D01*
X172408228Y-62911676D01*
X172235251Y-62840027D01*
X172235243Y-62840025D01*
X172051620Y-62803500D01*
X172051616Y-62803500D01*
X171864384Y-62803500D01*
X171864379Y-62803500D01*
X171680756Y-62840025D01*
X171680748Y-62840027D01*
X171507771Y-62911676D01*
X171507762Y-62911681D01*
X171352092Y-63015697D01*
X171352088Y-63015700D01*
X171219700Y-63148088D01*
X171219697Y-63148092D01*
X171115681Y-63303762D01*
X171115676Y-63303771D01*
X171044027Y-63476748D01*
X171044025Y-63476756D01*
X171007500Y-63660379D01*
X170009500Y-63660379D01*
X170009500Y-63635882D01*
X170009649Y-63629800D01*
X170011455Y-63593025D01*
X170011903Y-63586954D01*
X170016706Y-63538185D01*
X170017451Y-63532142D01*
X170022855Y-63495714D01*
X170023896Y-63489719D01*
X170069985Y-63258013D01*
X170071318Y-63252076D01*
X170080267Y-63216348D01*
X170081891Y-63210478D01*
X170096118Y-63163582D01*
X170098027Y-63157803D01*
X170110430Y-63123141D01*
X170112620Y-63117465D01*
X170203021Y-62899217D01*
X170205487Y-62893654D01*
X170221227Y-62860374D01*
X170223963Y-62854939D01*
X170247064Y-62811718D01*
X170250064Y-62806422D01*
X170268999Y-62774830D01*
X170272256Y-62769686D01*
X170329176Y-62684500D01*
X169591671Y-62684500D01*
X169538817Y-62788232D01*
X169528650Y-62804822D01*
X169417627Y-62957633D01*
X169404990Y-62972429D01*
X169271429Y-63105990D01*
X169256633Y-63118627D01*
X169103822Y-63229650D01*
X169087232Y-63239817D01*
X169019000Y-63274582D01*
X167784998Y-63274582D01*
X167716768Y-63239817D01*
X167700178Y-63229650D01*
X167547367Y-63118627D01*
X167532571Y-63105990D01*
X167399010Y-62972429D01*
X167386373Y-62957633D01*
X167275350Y-62804822D01*
X167265183Y-62788232D01*
X167212329Y-62684500D01*
X166728824Y-62684500D01*
X163021000Y-62684500D01*
X161578888Y-62684500D01*
X158021000Y-62684500D01*
X156519000Y-62684500D01*
X156519000Y-64186500D01*
X155521000Y-64186500D01*
X155521000Y-62684500D01*
X154019000Y-62684500D01*
X154019000Y-64186500D01*
X151968211Y-64186500D01*
X151928016Y-64089459D01*
X151928009Y-64089446D01*
X151829464Y-63941965D01*
X151829461Y-63941961D01*
X151704038Y-63816538D01*
X151704034Y-63816535D01*
X151556553Y-63717990D01*
X151556540Y-63717983D01*
X151392667Y-63650106D01*
X151392658Y-63650103D01*
X151218694Y-63615500D01*
X151218691Y-63615500D01*
X151041309Y-63615500D01*
X151041306Y-63615500D01*
X150867341Y-63650103D01*
X150867332Y-63650106D01*
X150703459Y-63717983D01*
X150703446Y-63717990D01*
X150555965Y-63816535D01*
X150555961Y-63816538D01*
X150430538Y-63941961D01*
X150430535Y-63941965D01*
X150331990Y-64089446D01*
X150331983Y-64089459D01*
X150264106Y-64253332D01*
X150264103Y-64253341D01*
X150229500Y-64427304D01*
X148016500Y-64427304D01*
X148016500Y-64422384D01*
X147979973Y-64238749D01*
X147958331Y-64186500D01*
X149019000Y-64186500D01*
X149259848Y-64186500D01*
X149290065Y-64034592D01*
X149291399Y-64028651D01*
X149300351Y-63992916D01*
X149301975Y-63987048D01*
X149316202Y-63940155D01*
X149318110Y-63934380D01*
X149330509Y-63899728D01*
X149332699Y-63894051D01*
X149419329Y-63684905D01*
X149421794Y-63679344D01*
X149437534Y-63646062D01*
X149440271Y-63640623D01*
X149463373Y-63597401D01*
X149466373Y-63592106D01*
X149485309Y-63560512D01*
X149488566Y-63555368D01*
X149582374Y-63414974D01*
X149562800Y-63291395D01*
X149541678Y-63270273D01*
X149537480Y-63265864D01*
X149512749Y-63238577D01*
X149508775Y-63233970D01*
X149477686Y-63196088D01*
X149473940Y-63191288D01*
X149452007Y-63161714D01*
X149448504Y-63156740D01*
X149317256Y-62960314D01*
X149313999Y-62955170D01*
X149295064Y-62923578D01*
X149292064Y-62918282D01*
X149268963Y-62875061D01*
X149266227Y-62869626D01*
X149250487Y-62836346D01*
X149248021Y-62830783D01*
X149187429Y-62684500D01*
X149019000Y-62684500D01*
X149019000Y-64186500D01*
X147958331Y-64186500D01*
X147923892Y-64103357D01*
X147908323Y-64065771D01*
X147908318Y-64065762D01*
X147804302Y-63910092D01*
X147804299Y-63910088D01*
X147671911Y-63777700D01*
X147671907Y-63777697D01*
X147516237Y-63673681D01*
X147516228Y-63673676D01*
X147343251Y-63602027D01*
X147343243Y-63602025D01*
X147159620Y-63565500D01*
X147159616Y-63565500D01*
X146972384Y-63565500D01*
X146972379Y-63565500D01*
X146788756Y-63602025D01*
X146788748Y-63602027D01*
X146615771Y-63673676D01*
X146615762Y-63673681D01*
X146460092Y-63777697D01*
X146460088Y-63777700D01*
X146327700Y-63910088D01*
X146327697Y-63910092D01*
X146223681Y-64065762D01*
X146223676Y-64065771D01*
X146152027Y-64238748D01*
X146152025Y-64238756D01*
X146115500Y-64422379D01*
X141351000Y-64422379D01*
X141351000Y-64186500D01*
X142475000Y-64186500D01*
X143021000Y-64186500D01*
X144019000Y-64186500D01*
X145144869Y-64186500D01*
X145177985Y-64020013D01*
X145179318Y-64014076D01*
X145188267Y-63978348D01*
X145189891Y-63972478D01*
X145204118Y-63925582D01*
X145206027Y-63919803D01*
X145218430Y-63885141D01*
X145220620Y-63879465D01*
X145311021Y-63661217D01*
X145313487Y-63655654D01*
X145329227Y-63622374D01*
X145331963Y-63616939D01*
X145355064Y-63573718D01*
X145358064Y-63568422D01*
X145376999Y-63536830D01*
X145380256Y-63531686D01*
X145511504Y-63335260D01*
X145515007Y-63330286D01*
X145521000Y-63322205D01*
X145521000Y-62684500D01*
X144019000Y-62684500D01*
X144019000Y-64186500D01*
X143021000Y-64186500D01*
X143021000Y-62684500D01*
X142475000Y-62684500D01*
X142475000Y-64186500D01*
X141351000Y-64186500D01*
X141351000Y-61882379D01*
X150052500Y-61882379D01*
X150052500Y-62069620D01*
X150089025Y-62253243D01*
X150089027Y-62253251D01*
X150160676Y-62426228D01*
X150160681Y-62426237D01*
X150264697Y-62581907D01*
X150264700Y-62581911D01*
X150397088Y-62714299D01*
X150397092Y-62714302D01*
X150552762Y-62818318D01*
X150552768Y-62818321D01*
X150552769Y-62818322D01*
X150725749Y-62889973D01*
X150868069Y-62918282D01*
X150909379Y-62926499D01*
X150909383Y-62926500D01*
X150909384Y-62926500D01*
X151096617Y-62926500D01*
X151096618Y-62926499D01*
X151280251Y-62889973D01*
X151453231Y-62818322D01*
X151608908Y-62714302D01*
X151741302Y-62581908D01*
X151845322Y-62426231D01*
X151916973Y-62253251D01*
X151953500Y-62069616D01*
X151953500Y-61882384D01*
X151916973Y-61698749D01*
X151845322Y-61525769D01*
X151845321Y-61525768D01*
X151845318Y-61525762D01*
X151741302Y-61370092D01*
X151741299Y-61370088D01*
X151608911Y-61237700D01*
X151608907Y-61237697D01*
X151453237Y-61133681D01*
X151453228Y-61133676D01*
X151280251Y-61062027D01*
X151280243Y-61062025D01*
X151096620Y-61025500D01*
X151096616Y-61025500D01*
X150909384Y-61025500D01*
X150909379Y-61025500D01*
X150725756Y-61062025D01*
X150725748Y-61062027D01*
X150552771Y-61133676D01*
X150552762Y-61133681D01*
X150397092Y-61237697D01*
X150397088Y-61237700D01*
X150264700Y-61370088D01*
X150264697Y-61370092D01*
X150160681Y-61525762D01*
X150160676Y-61525771D01*
X150089027Y-61698748D01*
X150089025Y-61698756D01*
X150052500Y-61882379D01*
X141351000Y-61882379D01*
X141351000Y-61686500D01*
X144019000Y-61686500D01*
X145521000Y-61686500D01*
X146519000Y-61686500D01*
X148021000Y-61686500D01*
X148021000Y-60934500D01*
X146519000Y-60934500D01*
X146519000Y-61686500D01*
X145521000Y-61686500D01*
X145521000Y-60934500D01*
X144019000Y-60934500D01*
X144019000Y-61686500D01*
X141351000Y-61686500D01*
X141351000Y-60060500D01*
X141370685Y-59993461D01*
X141423489Y-59947706D01*
X141475000Y-59936500D01*
X155181796Y-59936500D01*
X155248835Y-59956185D01*
G37*
%TD.AperFunction*%
%TD*%
M02*
