M48
; DRILL file {KiCad 9.0.5} date 2025-10-31T14:09:04+0900
; FORMAT={-:-/ absolute / inch / decimal}
; #@! TF.CreationDate,2025-10-31T14:09:04+09:00
; #@! TF.GenerationSoftware,Kicad,Pcbnew,9.0.5
; #@! TF.FileFunction,Plated,1,4,PTH
FMAT,2
INCH
; #@! TA.AperFunction,Plated,PTH,ViaDrill
T1C0.0157
; #@! TA.AperFunction,Plated,PTH,ComponentDrill
T2C0.0394
%
G90
G05
T1
X5.725Y-3.2066
X5.785Y-2.59
X5.79Y-2.49
X5.79Y-2.54
X5.79Y-2.875
X5.795Y-2.825
X5.8475Y-3.145
X5.9059Y-3.0984
X5.91Y-3.145
X5.935Y-2.875
X5.94Y-2.485
X5.94Y-2.825
X5.945Y-2.44
X5.95Y-2.54
X5.9675Y-2.775
X5.985Y-2.94
X5.995Y-3.205
X6.01Y-2.67
X6.0315Y-2.6324
X6.145Y-2.86
X6.1466Y-2.7766
X6.1485Y-2.9
X6.15Y-2.3774
X6.24Y-2.39
X6.245Y-3.055
X6.265Y-2.795
X6.275Y-2.735
X6.29Y-2.68
X6.302Y-2.445
X6.302Y-2.5135
X6.31Y-2.395
X6.32Y-2.72
X6.3537Y-2.6565
X6.37Y-3.05
X6.395Y-2.675
X6.435Y-3.055
X6.5Y-2.51
X6.52Y-2.55
X6.525Y-2.985
X6.555Y-2.95
X6.595Y-2.7638
X6.595Y-2.8583
X6.605Y-2.905
X6.63Y-2.445
X6.645Y-2.88
X6.695Y-2.94
X6.76Y-3.22
X6.765Y-2.945
X6.77Y-2.51
X6.77Y-3.0775
X6.803Y-2.797
X6.81Y-2.9
X6.82Y-2.615
X6.88Y-2.81
X6.955Y-2.555
X7.01Y-2.695
T2
X5.575Y-2.7298
X5.575Y-2.8298
X5.6674Y-3.425
X5.7674Y-3.425
X5.8674Y-3.425
X5.9674Y-3.425
X6.0674Y-3.425
X6.1674Y-3.425
X6.2674Y-3.425
X6.3674Y-3.425
X6.4674Y-3.425
X6.6774Y-3.425
X6.7774Y-3.425
X6.8774Y-3.425
X6.9774Y-3.425
X7.1046Y-2.62
X7.1046Y-2.72
X7.1046Y-2.82
X7.2046Y-2.62
X7.2046Y-2.72
X7.2046Y-2.82
X7.205Y-2.96
X7.205Y-3.06
X7.205Y-3.16
X7.205Y-3.26
M30
