%TF.GenerationSoftware,KiCad,Pcbnew,9.0.5*%
%TF.CreationDate,2025-10-30T12:00:21+09:00*%
%TF.ProjectId,MCU_Datalogger,4d43555f-4461-4746-916c-6f676765722e,1*%
%TF.SameCoordinates,Original*%
%TF.FileFunction,Copper,L1,Top*%
%TF.FilePolarity,Positive*%
%FSLAX46Y46*%
G04 Gerber Fmt 4.6, Leading zero omitted, Abs format (unit mm)*
G04 Created by KiCad (PCBNEW 9.0.5) date 2025-10-30 12:00:21*
%MOMM*%
%LPD*%
G01*
G04 APERTURE LIST*
G04 Aperture macros list*
%AMRoundRect*
0 Rectangle with rounded corners*
0 $1 Rounding radius*
0 $2 $3 $4 $5 $6 $7 $8 $9 X,Y pos of 4 corners*
0 Add a 4 corners polygon primitive as box body*
4,1,4,$2,$3,$4,$5,$6,$7,$8,$9,$2,$3,0*
0 Add four circle primitives for the rounded corners*
1,1,$1+$1,$2,$3*
1,1,$1+$1,$4,$5*
1,1,$1+$1,$6,$7*
1,1,$1+$1,$8,$9*
0 Add four rect primitives between the rounded corners*
20,1,$1+$1,$2,$3,$4,$5,0*
20,1,$1+$1,$4,$5,$6,$7,0*
20,1,$1+$1,$6,$7,$8,$9,0*
20,1,$1+$1,$8,$9,$2,$3,0*%
G04 Aperture macros list end*
%TA.AperFunction,SMDPad,CuDef*%
%ADD10RoundRect,0.068750X-0.206250X-0.666250X0.206250X-0.666250X0.206250X0.666250X-0.206250X0.666250X0*%
%TD*%
%TA.AperFunction,SMDPad,CuDef*%
%ADD11RoundRect,0.068750X-0.666250X-0.206250X0.666250X-0.206250X0.666250X0.206250X-0.666250X0.206250X0*%
%TD*%
%TA.AperFunction,SMDPad,CuDef*%
%ADD12RoundRect,0.250000X-0.250000X-0.475000X0.250000X-0.475000X0.250000X0.475000X-0.250000X0.475000X0*%
%TD*%
%TA.AperFunction,SMDPad,CuDef*%
%ADD13RoundRect,0.243750X-0.243750X-0.456250X0.243750X-0.456250X0.243750X0.456250X-0.243750X0.456250X0*%
%TD*%
%TA.AperFunction,ComponentPad*%
%ADD14R,1.700000X1.700000*%
%TD*%
%TA.AperFunction,ComponentPad*%
%ADD15C,1.700000*%
%TD*%
%TA.AperFunction,SMDPad,CuDef*%
%ADD16RoundRect,0.073750X-0.911250X-0.221250X0.911250X-0.221250X0.911250X0.221250X-0.911250X0.221250X0*%
%TD*%
%TA.AperFunction,SMDPad,CuDef*%
%ADD17RoundRect,0.250000X-0.262500X-0.450000X0.262500X-0.450000X0.262500X0.450000X-0.262500X0.450000X0*%
%TD*%
%TA.AperFunction,SMDPad,CuDef*%
%ADD18RoundRect,0.150000X-0.650000X-0.150000X0.650000X-0.150000X0.650000X0.150000X-0.650000X0.150000X0*%
%TD*%
%TA.AperFunction,SMDPad,CuDef*%
%ADD19RoundRect,0.250000X0.250000X0.475000X-0.250000X0.475000X-0.250000X-0.475000X0.250000X-0.475000X0*%
%TD*%
%TA.AperFunction,SMDPad,CuDef*%
%ADD20RoundRect,0.250000X0.262500X0.450000X-0.262500X0.450000X-0.262500X-0.450000X0.262500X-0.450000X0*%
%TD*%
%TA.AperFunction,SMDPad,CuDef*%
%ADD21RoundRect,0.250001X1.499999X0.949999X-1.499999X0.949999X-1.499999X-0.949999X1.499999X-0.949999X0*%
%TD*%
%TA.AperFunction,SMDPad,CuDef*%
%ADD22RoundRect,0.250001X0.949999X-1.499999X0.949999X1.499999X-0.949999X1.499999X-0.949999X-1.499999X0*%
%TD*%
%TA.AperFunction,ViaPad*%
%ADD23C,0.800000*%
%TD*%
%TA.AperFunction,ViaPad*%
%ADD24C,0.900000*%
%TD*%
%TA.AperFunction,Conductor*%
%ADD25C,0.250000*%
%TD*%
%TA.AperFunction,Conductor*%
%ADD26C,0.350000*%
%TD*%
G04 APERTURE END LIST*
D10*
%TO.P,U4,32,PD2*%
%TO.N,/D2*%
X158959500Y-66456000D03*
%TO.P,U4,31,PD1*%
%TO.N,/TX*%
X159759500Y-66456000D03*
%TO.P,U4,30,PD0*%
%TO.N,/RX*%
X160559500Y-66456000D03*
%TO.P,U4,29,PC6/~{RESET}*%
%TO.N,/RESET*%
X161359500Y-66456000D03*
%TO.P,U4,28,PC5*%
%TO.N,/SCK*%
X162159500Y-66456000D03*
%TO.P,U4,27,PC4*%
%TO.N,/SDA*%
X162959500Y-66456000D03*
%TO.P,U4,26,PC3*%
%TO.N,unconnected-(U4-PC3-Pad26)*%
X163759500Y-66456000D03*
%TO.P,U4,25,PC2*%
%TO.N,unconnected-(U4-PC2-Pad25)*%
X164559500Y-66456000D03*
D11*
%TO.P,U4,24,PC1*%
%TO.N,unconnected-(U4-PC1-Pad24)*%
X165929500Y-67826000D03*
%TO.P,U4,23,PC0*%
%TO.N,unconnected-(U4-PC0-Pad23)*%
X165929500Y-68626000D03*
%TO.P,U4,22,ADC7*%
%TO.N,unconnected-(U4-ADC7-Pad22)*%
X165929500Y-69426000D03*
%TO.P,U4,21,GND*%
%TO.N,GND*%
X165929500Y-70226000D03*
%TO.P,U4,20,AREF*%
%TO.N,Net-(U4-AREF)*%
X165929500Y-71026000D03*
%TO.P,U4,19,ADC6*%
%TO.N,unconnected-(U4-ADC6-Pad19)*%
X165929500Y-71826000D03*
%TO.P,U4,18,AVCC*%
%TO.N,Net-(D2-A)*%
X165929500Y-72626000D03*
%TO.P,U4,17,PB5*%
%TO.N,/SCK*%
X165929500Y-73426000D03*
D10*
%TO.P,U4,16,PB4*%
%TO.N,/MISO*%
X164559500Y-74796000D03*
%TO.P,U4,15,PB3*%
%TO.N,/MOSI*%
X163759500Y-74796000D03*
%TO.P,U4,14,PB2*%
%TO.N,unconnected-(U4-PB2-Pad14)*%
X162959500Y-74796000D03*
%TO.P,U4,13,PB1*%
%TO.N,unconnected-(U4-PB1-Pad13)*%
X162159500Y-74796000D03*
%TO.P,U4,12,PB0*%
%TO.N,/D8*%
X161359500Y-74796000D03*
%TO.P,U4,11,PD7*%
%TO.N,/D7*%
X160559500Y-74796000D03*
%TO.P,U4,10,PD6*%
%TO.N,/D6*%
X159759500Y-74796000D03*
%TO.P,U4,9,PD5*%
%TO.N,/D5*%
X158959500Y-74796000D03*
D11*
%TO.P,U4,8,PB7*%
%TO.N,Net-(U4-PB7)*%
X157589500Y-73426000D03*
%TO.P,U4,7,PB6*%
%TO.N,Net-(U4-PB6)*%
X157589500Y-72626000D03*
%TO.P,U4,6,VCC*%
%TO.N,unconnected-(U4-VCC-Pad6)*%
X157589500Y-71826000D03*
%TO.P,U4,5,GND*%
%TO.N,GND*%
X157589500Y-71026000D03*
%TO.P,U4,4,VCC*%
%TO.N,Net-(D2-A)*%
X157589500Y-70226000D03*
%TO.P,U4,3,GND*%
%TO.N,GND*%
X157589500Y-69426000D03*
%TO.P,U4,2,PD4*%
%TO.N,/D4*%
X157589500Y-68626000D03*
%TO.P,U4,1,PD3*%
%TO.N,/D3*%
X157589500Y-67826000D03*
%TD*%
D12*
%TO.P,C5,1*%
%TO.N,Net-(D2-A)*%
X165167000Y-62088000D03*
%TO.P,C5,2*%
%TO.N,GND*%
X167067000Y-62088000D03*
%TD*%
D13*
%TO.P,D2,1,K*%
%TO.N,Net-(D2-K)*%
X170049000Y-62103000D03*
%TO.P,D2,2,A*%
%TO.N,Net-(D2-A)*%
X171924000Y-62103000D03*
%TD*%
D14*
%TO.P,J3,1,Pin_1*%
%TO.N,GND*%
X169607000Y-86995000D03*
D15*
%TO.P,J3,2,Pin_2*%
%TO.N,/VCC*%
X172147000Y-86995000D03*
%TO.P,J3,3,Pin_3*%
%TO.N,/RX*%
X174687000Y-86995000D03*
%TO.P,J3,4,Pin_4*%
%TO.N,/TX*%
X177227000Y-86995000D03*
%TD*%
D16*
%TO.P,U2,1,X1*%
%TO.N,Net-(U2-X1)*%
X147004000Y-76073000D03*
%TO.P,U2,2,X2*%
%TO.N,Net-(U2-X2)*%
X147004000Y-77343000D03*
%TO.P,U2,3,~{INTA}*%
%TO.N,Net-(U2-~{INTA})*%
X147004000Y-78613000D03*
%TO.P,U2,4,GND*%
%TO.N,GND*%
X147004000Y-79883000D03*
%TO.P,U2,5,SDA*%
%TO.N,/SDA*%
X151954000Y-79883000D03*
%TO.P,U2,6,SCL*%
%TO.N,/SCK*%
X151954000Y-78613000D03*
%TO.P,U2,7,SQW/~INT*%
%TO.N,Net-(U2-SQW{slash}~INT)*%
X151954000Y-77343000D03*
%TO.P,U2,8,VCC*%
%TO.N,/VCC*%
X151954000Y-76073000D03*
%TD*%
D17*
%TO.P,R7,1*%
%TO.N,Net-(D2-K)*%
X170054000Y-66421000D03*
%TO.P,R7,2*%
%TO.N,GND*%
X171879000Y-66421000D03*
%TD*%
D18*
%TO.P,U1,1,A0*%
%TO.N,/VCC*%
X145424000Y-69215000D03*
%TO.P,U1,2,A1*%
X145424000Y-70485000D03*
%TO.P,U1,3,A2*%
X145424000Y-71755000D03*
%TO.P,U1,4,GND*%
%TO.N,GND*%
X145424000Y-73025000D03*
%TO.P,U1,5,SDA*%
%TO.N,/SDA*%
X152624000Y-73025000D03*
%TO.P,U1,6,SCL*%
%TO.N,/SCK*%
X152624000Y-71755000D03*
%TO.P,U1,7,WP*%
%TO.N,GND*%
X152624000Y-70485000D03*
%TO.P,U1,8,VCC*%
%TO.N,/VCC*%
X152624000Y-69215000D03*
%TD*%
D12*
%TO.P,C1,1*%
%TO.N,/VCC*%
X156211000Y-62088000D03*
%TO.P,C1,2*%
%TO.N,GND*%
X158111000Y-62088000D03*
%TD*%
D19*
%TO.P,C2,1*%
%TO.N,GND*%
X171916500Y-76581000D03*
%TO.P,C2,2*%
%TO.N,Net-(U4-PB6)*%
X170016500Y-76581000D03*
%TD*%
D14*
%TO.P,J4,1,Pin_1*%
%TO.N,/MISO*%
X180457000Y-66548000D03*
D15*
%TO.P,J4,2,Pin_2*%
%TO.N,/VCC*%
X182997000Y-66548000D03*
%TO.P,J4,3,Pin_3*%
%TO.N,/SCK*%
X180457000Y-69088000D03*
%TO.P,J4,4,Pin_4*%
%TO.N,/MOSI*%
X182997000Y-69088000D03*
%TO.P,J4,5,Pin_5*%
%TO.N,/RESET*%
X180457000Y-71628000D03*
%TO.P,J4,6,Pin_6*%
%TO.N,GND*%
X182997000Y-71628000D03*
%TD*%
D20*
%TO.P,R4,1*%
%TO.N,/VCC*%
X171879000Y-69850000D03*
%TO.P,R4,2*%
%TO.N,/SDA*%
X170054000Y-69850000D03*
%TD*%
D21*
%TO.P,Y2,1,1*%
%TO.N,Net-(U4-PB7)*%
X163763000Y-79502000D03*
%TO.P,Y2,2,2*%
%TO.N,Net-(U4-PB6)*%
X158563000Y-79502000D03*
%TD*%
D12*
%TO.P,C3,1*%
%TO.N,GND*%
X160849000Y-62088000D03*
%TO.P,C3,2*%
%TO.N,Net-(U4-PB7)*%
X162749000Y-62088000D03*
%TD*%
D14*
%TO.P,J1,1,Pin_1*%
%TO.N,GND*%
X183007000Y-75184000D03*
D15*
%TO.P,J1,2,Pin_2*%
%TO.N,/VCC*%
X183007000Y-77724000D03*
%TO.P,J1,3,Pin_3*%
%TO.N,/SDA*%
X183007000Y-80264000D03*
%TO.P,J1,4,Pin_4*%
%TO.N,/SCK*%
X183007000Y-82804000D03*
%TD*%
D19*
%TO.P,C4,1*%
%TO.N,GND*%
X171916500Y-80264000D03*
%TO.P,C4,2*%
%TO.N,Net-(U4-AREF)*%
X170016500Y-80264000D03*
%TD*%
D18*
%TO.P,U3,1,A0*%
%TO.N,/VCC*%
X145424000Y-61976000D03*
%TO.P,U3,2,A1*%
%TO.N,GND*%
X145424000Y-63246000D03*
%TO.P,U3,3,A2*%
%TO.N,/VCC*%
X145424000Y-64516000D03*
%TO.P,U3,4,GND*%
%TO.N,GND*%
X145424000Y-65786000D03*
%TO.P,U3,5,SDA*%
%TO.N,/SDA*%
X152624000Y-65786000D03*
%TO.P,U3,6,SCL*%
%TO.N,/SCK*%
X152624000Y-64516000D03*
%TO.P,U3,7,WP*%
%TO.N,GND*%
X152624000Y-63246000D03*
%TO.P,U3,8,VCC*%
%TO.N,/VCC*%
X152624000Y-61976000D03*
%TD*%
D14*
%TO.P,J2,1,Pin_1*%
%TO.N,/D2*%
X143953000Y-86995000D03*
D15*
%TO.P,J2,2,Pin_2*%
%TO.N,/D3*%
X146493000Y-86995000D03*
%TO.P,J2,3,Pin_3*%
%TO.N,/D4*%
X149033000Y-86995000D03*
%TO.P,J2,4,Pin_4*%
%TO.N,/D5*%
X151573000Y-86995000D03*
%TO.P,J2,5,Pin_5*%
%TO.N,/D6*%
X154113000Y-86995000D03*
%TO.P,J2,6,Pin_6*%
%TO.N,/D7*%
X156653000Y-86995000D03*
%TO.P,J2,7,Pin_7*%
%TO.N,/D8*%
X159193000Y-86995000D03*
%TO.P,J2,8,Pin_8*%
%TO.N,GND*%
X161733000Y-86995000D03*
%TO.P,J2,9,Pin_9*%
%TO.N,/VCC*%
X164273000Y-86995000D03*
%TD*%
D13*
%TO.P,D1,1,K*%
%TO.N,Net-(D1-K)*%
X174827000Y-62103000D03*
%TO.P,D1,2,A*%
%TO.N,/SCK*%
X176702000Y-62103000D03*
%TD*%
D22*
%TO.P,Y1,1,1*%
%TO.N,Net-(U2-X2)*%
X141286000Y-81407000D03*
%TO.P,Y1,2,2*%
%TO.N,Net-(U2-X1)*%
X141286000Y-76207000D03*
%TD*%
D17*
%TO.P,R6,1*%
%TO.N,/VCC*%
X174832000Y-69977000D03*
%TO.P,R6,2*%
%TO.N,/RESET*%
X176657000Y-69977000D03*
%TD*%
%TO.P,R1,1*%
%TO.N,/VCC*%
X146239000Y-82931000D03*
%TO.P,R1,2*%
%TO.N,Net-(U2-~{INTA})*%
X148064000Y-82931000D03*
%TD*%
D20*
%TO.P,R2,1*%
%TO.N,/VCC*%
X152208000Y-83058000D03*
%TO.P,R2,2*%
%TO.N,Net-(U2-SQW{slash}~INT)*%
X150383000Y-83058000D03*
%TD*%
%TO.P,R3,1*%
%TO.N,/VCC*%
X171879000Y-73279000D03*
%TO.P,R3,2*%
%TO.N,/SCK*%
X170054000Y-73279000D03*
%TD*%
%TO.P,R5,1*%
%TO.N,GND*%
X176657000Y-66421000D03*
%TO.P,R5,2*%
%TO.N,Net-(D1-K)*%
X174832000Y-66421000D03*
%TD*%
D14*
%TO.P,BAT,1*%
%TO.N,Net-(D2-A)*%
X141413000Y-69404000D03*
D15*
%TO.P,BAT,2*%
%TO.N,GND*%
X141413000Y-71944000D03*
%TD*%
D23*
%TO.N,Net-(D2-A)*%
X172974000Y-63627000D03*
X164488499Y-71840062D03*
X156518143Y-70226001D03*
X162673414Y-72639718D03*
X168021000Y-71628000D03*
X157607000Y-63791000D03*
D24*
%TO.N,GND*%
X164494500Y-69476709D03*
X176657000Y-64516000D03*
X160274000Y-61087000D03*
X159390237Y-72376036D03*
X173990000Y-80391000D03*
X159968364Y-70409636D03*
X148590000Y-63246000D03*
X168275000Y-63373000D03*
D23*
X171958000Y-64389000D03*
D24*
X149352000Y-70612000D03*
X149018281Y-78914281D03*
X146558000Y-65786000D03*
%TO.N,/VCC*%
X175387000Y-72263000D03*
D23*
%TO.N,Net-(U4-PB7)*%
X159004000Y-73406000D03*
X162687000Y-63500000D03*
%TO.N,Net-(U4-AREF)*%
X168275000Y-80264000D03*
%TO.N,/SCK*%
X154186652Y-73287652D03*
X150495000Y-72263000D03*
X178181000Y-70739000D03*
%TO.N,/SDA*%
X170561000Y-71501000D03*
X175133000Y-76205000D03*
%TO.N,/D7*%
X160148503Y-77226809D03*
%TO.N,/D2*%
X159004000Y-68072000D03*
%TO.N,/D6*%
X159385000Y-76581000D03*
%TO.N,/D8*%
X161363999Y-78442304D03*
%TO.N,/D5*%
X158314500Y-76581000D03*
%TO.N,/TX*%
X162086993Y-70704940D03*
%TO.N,/RX*%
X162553553Y-69820447D03*
%TO.N,/MISO*%
X166370000Y-74301000D03*
%TO.N,/RESET*%
X167296000Y-68580000D03*
X161434501Y-67676090D03*
%TO.N,Net-(U4-AREF)*%
X163957000Y-70993000D03*
%TD*%
D25*
%TO.N,Net-(D2-A)*%
X162873554Y-72439578D02*
X162873554Y-72322554D01*
X162873554Y-72322554D02*
X162179000Y-71628000D01*
X162673414Y-72639718D02*
X162873554Y-72439578D01*
X162179000Y-71628000D02*
X160020000Y-71628000D01*
X162669132Y-72644000D02*
X162560000Y-72644000D01*
X162673414Y-72639718D02*
X162669132Y-72644000D01*
X160020000Y-71628000D02*
X158618000Y-70226000D01*
X158618000Y-70226000D02*
X157589500Y-70226000D01*
X156530413Y-70238271D02*
X157577229Y-70238271D01*
X156518143Y-70226001D02*
X156530413Y-70238271D01*
X164488499Y-71840062D02*
X165292437Y-72644000D01*
X165292437Y-72644000D02*
X165911500Y-72644000D01*
X160763226Y-63791000D02*
X157607000Y-63791000D01*
X165911500Y-72644000D02*
X165929500Y-72626000D01*
X167023000Y-72626000D02*
X165929500Y-72626000D01*
X161923000Y-62631226D02*
X160763226Y-63791000D01*
X168021000Y-71628000D02*
X167023000Y-72626000D01*
X161923000Y-61367486D02*
X161923000Y-62631226D01*
X162253486Y-61037000D02*
X161923000Y-61367486D01*
X164116000Y-61037000D02*
X162253486Y-61037000D01*
X165167000Y-62088000D02*
X164116000Y-61037000D01*
X171924000Y-62577000D02*
X172974000Y-63627000D01*
X171924000Y-62103000D02*
X171924000Y-62577000D01*
D26*
%TO.N,GND*%
X160274000Y-61087000D02*
X160875000Y-60486000D01*
X160875000Y-60486000D02*
X165465000Y-60486000D01*
X159390237Y-72052649D02*
X159390237Y-72376036D01*
X171879000Y-64437000D02*
X171831000Y-64389000D01*
X167067000Y-62088000D02*
X168275000Y-63296000D01*
X160849000Y-62088000D02*
X160849000Y-61662000D01*
X173863000Y-80264000D02*
X173990000Y-80391000D01*
X165465000Y-60486000D02*
X167067000Y-62088000D01*
X145424000Y-63246000D02*
X148590000Y-63246000D01*
X176657000Y-66421000D02*
X176657000Y-64516000D01*
X147004000Y-79883000D02*
X148049562Y-79883000D01*
X158111000Y-62088000D02*
X160849000Y-62088000D01*
X156953000Y-63246000D02*
X152624000Y-63246000D01*
X148590000Y-63246000D02*
X149225000Y-63246000D01*
X157589500Y-69426000D02*
X158984728Y-69426000D01*
X171879000Y-66421000D02*
X171879000Y-64468000D01*
X145424000Y-65786000D02*
X146558000Y-65786000D01*
X158111000Y-62088000D02*
X156953000Y-63246000D01*
X149479000Y-70485000D02*
X149352000Y-70612000D01*
X168275000Y-63296000D02*
X168275000Y-63373000D01*
X158363588Y-71026000D02*
X159390237Y-72052649D01*
X149225000Y-63246000D02*
X152624000Y-63246000D01*
X148049562Y-79883000D02*
X149018281Y-78914281D01*
X146939000Y-73025000D02*
X149352000Y-70612000D01*
X158984728Y-69426000D02*
X159968364Y-70409636D01*
X152624000Y-70485000D02*
X149479000Y-70485000D01*
X171879000Y-64468000D02*
X171958000Y-64389000D01*
X171916500Y-80264000D02*
X173863000Y-80264000D01*
X157589500Y-71026000D02*
X158363588Y-71026000D01*
X160849000Y-61662000D02*
X160274000Y-61087000D01*
X171916500Y-76581000D02*
X171916500Y-80264000D01*
X145424000Y-73025000D02*
X146939000Y-73025000D01*
X171831000Y-64389000D02*
X171958000Y-64389000D01*
%TO.N,/VCC*%
X144198000Y-62853256D02*
X144198000Y-64089999D01*
X171879000Y-69850000D02*
X171879000Y-71374000D01*
X145465000Y-82931000D02*
X146239000Y-82931000D01*
X144198000Y-64089999D02*
X144624001Y-64516000D01*
X184404000Y-76327000D02*
X184404000Y-67955000D01*
X184404000Y-67955000D02*
X182997000Y-66548000D01*
X183007000Y-77724000D02*
X184404000Y-76327000D01*
X164273000Y-86995000D02*
X162997000Y-88271000D01*
X171879000Y-71501000D02*
X174625000Y-71501000D01*
X172006000Y-69977000D02*
X171879000Y-69850000D01*
X142677000Y-88271000D02*
X141986000Y-87580000D01*
X145424000Y-69215000D02*
X145424000Y-70485000D01*
X174832000Y-69977000D02*
X172006000Y-69977000D01*
X147583000Y-69215000D02*
X152624000Y-69215000D01*
X145424000Y-61976000D02*
X145075256Y-61976000D01*
X152624000Y-61976000D02*
X156099000Y-61976000D01*
X141986000Y-87580000D02*
X141986000Y-86410000D01*
X144624001Y-64516000D02*
X145424000Y-64516000D01*
X145424000Y-70485000D02*
X145424000Y-71374000D01*
X156099000Y-61976000D02*
X156211000Y-62088000D01*
X145075256Y-61976000D02*
X144198000Y-62853256D01*
X171879000Y-71374000D02*
X171879000Y-71501000D01*
X145424000Y-71374000D02*
X147583000Y-69215000D01*
X141986000Y-86410000D02*
X145465000Y-82931000D01*
X162997000Y-88271000D02*
X142677000Y-88271000D01*
X174625000Y-71501000D02*
X175387000Y-72263000D01*
X145424000Y-71374000D02*
X145424000Y-71755000D01*
X171879000Y-71501000D02*
X171879000Y-73279000D01*
D25*
%TO.N,Net-(U4-PB6)*%
X158563000Y-79502000D02*
X160089000Y-81028000D01*
X158496000Y-79502000D02*
X156528500Y-77534500D01*
X156528500Y-72952000D02*
X156854500Y-72626000D01*
X158563000Y-79502000D02*
X158496000Y-79502000D01*
X165569500Y-81028000D02*
X170016500Y-76581000D01*
X160089000Y-81028000D02*
X165569500Y-81028000D01*
X156528500Y-77534500D02*
X156528500Y-72952000D01*
X156854500Y-72626000D02*
X157589500Y-72626000D01*
%TO.N,Net-(U4-PB7)*%
X157589500Y-77452500D02*
X157589500Y-73426000D01*
X160639000Y-78306486D02*
X160308514Y-77976000D01*
X161207001Y-79502000D02*
X160639000Y-78933999D01*
X159004000Y-73406000D02*
X157609500Y-73406000D01*
X162687000Y-63500000D02*
X162749000Y-63438000D01*
X162749000Y-63438000D02*
X162749000Y-62088000D01*
X160639000Y-78933999D02*
X160639000Y-78306486D01*
X160308514Y-77976000D02*
X158113000Y-77976000D01*
X163763000Y-79502000D02*
X161207001Y-79502000D01*
X158113000Y-77976000D02*
X157589500Y-77452500D01*
X157609500Y-73406000D02*
X157589500Y-73426000D01*
%TO.N,Net-(U4-AREF)*%
X170016500Y-80264000D02*
X168275000Y-80264000D01*
%TO.N,/SCK*%
X158094530Y-64968000D02*
X157119470Y-64968000D01*
X153971095Y-68610417D02*
X151498000Y-66137322D01*
X153981000Y-66491000D02*
X153613000Y-66859000D01*
X150495000Y-72263000D02*
X152116000Y-72263000D01*
X153981000Y-65604810D02*
X153981000Y-66491000D01*
X156667470Y-64516000D02*
X155069810Y-64516000D01*
X152416678Y-64516000D02*
X152624000Y-64516000D01*
X155069810Y-64516000D02*
X153981000Y-65604810D01*
X158369530Y-64693000D02*
X158094530Y-64968000D01*
X184233000Y-65278000D02*
X182582000Y-65278000D01*
X181771000Y-66089000D02*
X181633000Y-66227000D01*
X176702000Y-62103000D02*
X176657000Y-62103000D01*
X152939000Y-78613000D02*
X153315000Y-78237000D01*
X171163464Y-74806000D02*
X174649951Y-74806000D01*
X151498000Y-65434678D02*
X152416678Y-64516000D01*
X151954000Y-78613000D02*
X152939000Y-78613000D01*
X170054000Y-73279000D02*
X166076500Y-73279000D01*
X152902034Y-71755000D02*
X153971095Y-70685939D01*
X154305000Y-72781809D02*
X154305000Y-73169304D01*
X177545500Y-66176500D02*
X180457000Y-69088000D01*
X181633000Y-67912000D02*
X180457000Y-69088000D01*
X181633000Y-66227000D02*
X181633000Y-67912000D01*
X153971095Y-70685939D02*
X153971095Y-68610417D01*
X177545500Y-62946500D02*
X177545500Y-66176500D01*
X176702000Y-62103000D02*
X177545500Y-62946500D01*
X154873095Y-72213714D02*
X154305000Y-72781809D01*
X162159500Y-66456000D02*
X162159500Y-65721000D01*
X162159500Y-65721000D02*
X161131500Y-64693000D01*
X161131500Y-64693000D02*
X158369530Y-64693000D01*
X151498000Y-66137322D02*
X151498000Y-65434678D01*
X183007000Y-82804000D02*
X185166000Y-80645000D01*
X151824001Y-71755000D02*
X152624000Y-71755000D01*
X170054000Y-73696536D02*
X171163464Y-74806000D01*
X153613000Y-66976702D02*
X154873095Y-68236797D01*
X151498000Y-73376322D02*
X151498000Y-72081001D01*
X154305000Y-73169304D02*
X154186652Y-73287652D01*
X151498000Y-72081001D02*
X151824001Y-71755000D01*
X166076500Y-73279000D02*
X165929500Y-73426000D01*
X152116000Y-72263000D02*
X152624000Y-71755000D01*
X181771000Y-66040174D02*
X181771000Y-66089000D01*
X154873095Y-68236797D02*
X154873095Y-72213714D01*
X178181000Y-71274951D02*
X178181000Y-70739000D01*
X157119470Y-64968000D02*
X156667470Y-64516000D01*
X182582000Y-65278000D02*
X182538000Y-65322000D01*
X153315000Y-78237000D02*
X153315000Y-75193322D01*
X170054000Y-73279000D02*
X170054000Y-73696536D01*
X152624000Y-71755000D02*
X152902034Y-71755000D01*
X182538000Y-65322000D02*
X182489174Y-65322000D01*
X182489174Y-65322000D02*
X181771000Y-66040174D01*
X153613000Y-66859000D02*
X153613000Y-66976702D01*
X185166000Y-66211000D02*
X184233000Y-65278000D01*
X153315000Y-75193322D02*
X151498000Y-73376322D01*
X185166000Y-80645000D02*
X185166000Y-66211000D01*
%TO.N,Net-(D1-K)*%
X174827000Y-62103000D02*
X174827000Y-66416000D01*
X174827000Y-62103000D02*
X174879000Y-62103000D01*
X174827000Y-66416000D02*
X174832000Y-66421000D01*
%TO.N,Net-(D2-K)*%
X170053000Y-61976000D02*
X170054000Y-61977000D01*
X170049000Y-61980000D02*
X170053000Y-61976000D01*
X170049000Y-62103000D02*
X170049000Y-61980000D01*
X170054000Y-61977000D02*
X170054000Y-66421000D01*
%TO.N,/SDA*%
X153210500Y-65737500D02*
X154940000Y-64008000D01*
X153423999Y-73025000D02*
X154422095Y-72026904D01*
X157306280Y-64517000D02*
X157907720Y-64517000D01*
X153210500Y-66372500D02*
X152624000Y-65786000D01*
X163195000Y-65151000D02*
X162959500Y-65386500D01*
X152624000Y-73025000D02*
X153423999Y-73025000D01*
X154940000Y-64008000D02*
X156881000Y-64008000D01*
X153766000Y-79056000D02*
X153766000Y-74167000D01*
X153210500Y-66372500D02*
X153210500Y-65737500D01*
X153162000Y-66421000D02*
X153210500Y-66372500D01*
X153766000Y-74167000D02*
X152624000Y-73025000D01*
X154422095Y-68423607D02*
X153162000Y-67163512D01*
X170561000Y-70357000D02*
X170054000Y-69850000D01*
X162052000Y-64008000D02*
X163195000Y-65151000D01*
X183007000Y-80264000D02*
X178948000Y-76205000D01*
X160950036Y-64242000D02*
X161184036Y-64008000D01*
X178948000Y-76205000D02*
X175133000Y-76205000D01*
X170054000Y-69850000D02*
X165355000Y-65151000D01*
X170561000Y-71501000D02*
X170561000Y-70357000D01*
X158182720Y-64242000D02*
X160950036Y-64242000D01*
X152939000Y-79883000D02*
X153766000Y-79056000D01*
X161184036Y-64008000D02*
X162052000Y-64008000D01*
X165355000Y-65151000D02*
X163195000Y-65151000D01*
X153162000Y-67163512D02*
X153162000Y-66421000D01*
X151954000Y-79883000D02*
X152939000Y-79883000D01*
X156881000Y-64008000D02*
X156881000Y-64091720D01*
X154422095Y-72026904D02*
X154422095Y-68423607D01*
X162959500Y-65386500D02*
X162959500Y-66456000D01*
X157907720Y-64517000D02*
X158182720Y-64242000D01*
X156881000Y-64091720D02*
X157306280Y-64517000D01*
%TO.N,/D4*%
X155363652Y-73775182D02*
X154668000Y-74470834D01*
X154668000Y-74470834D02*
X154668000Y-79429620D01*
X154883000Y-66971082D02*
X155775095Y-67863177D01*
X157589500Y-68626000D02*
X157390500Y-68427000D01*
X150243000Y-85785000D02*
X149033000Y-86995000D01*
X156972000Y-67010834D02*
X156972000Y-66169810D01*
X156972000Y-66169810D02*
X156277190Y-65475000D01*
X154883000Y-65978430D02*
X154883000Y-66971082D01*
X154668000Y-79429620D02*
X153740000Y-80357620D01*
X157390500Y-68427000D02*
X156757834Y-68427000D01*
X153740000Y-80357620D02*
X153740000Y-83768536D01*
X155775095Y-72587334D02*
X155363652Y-72998777D01*
X156528500Y-68197666D02*
X156528500Y-67454334D01*
X155775095Y-67863177D02*
X155775095Y-72587334D01*
X156757834Y-68427000D02*
X156528500Y-68197666D01*
X155363652Y-72998777D02*
X155363652Y-73775182D01*
X155386430Y-65475000D02*
X154883000Y-65978430D01*
X156528500Y-67454334D02*
X156972000Y-67010834D01*
X151723536Y-85785000D02*
X150243000Y-85785000D01*
X156277190Y-65475000D02*
X155386430Y-65475000D01*
X153740000Y-83768536D02*
X151723536Y-85785000D01*
%TO.N,/D7*%
X160559500Y-76815812D02*
X160559500Y-74796000D01*
X160148503Y-77226809D02*
X160559500Y-76815812D01*
%TO.N,/D2*%
X158959500Y-68027500D02*
X158959500Y-66456000D01*
X159004000Y-68072000D02*
X158959500Y-68027500D01*
%TO.N,/D6*%
X159385000Y-76581000D02*
X159759500Y-76206500D01*
X159759500Y-76206500D02*
X159759500Y-74796000D01*
%TO.N,/D8*%
X161363999Y-77797999D02*
X161359500Y-77793500D01*
X161363999Y-78442304D02*
X161363999Y-77797999D01*
X161359500Y-77793500D02*
X161359500Y-74796000D01*
%TO.N,/D5*%
X158314500Y-75441000D02*
X158959500Y-74796000D01*
X158314500Y-76581000D02*
X158314500Y-75441000D01*
%TO.N,/D3*%
X151536726Y-85334000D02*
X153289000Y-83581726D01*
X154432000Y-65791620D02*
X155199620Y-65024000D01*
X155199620Y-65024000D02*
X156464000Y-65024000D01*
X156464000Y-65024000D02*
X157480000Y-66040000D01*
X147890000Y-85598000D02*
X149792190Y-85598000D01*
X154912652Y-73588372D02*
X154912652Y-72811967D01*
X157589500Y-67165500D02*
X157589500Y-67826000D01*
X154912652Y-72811967D02*
X155324095Y-72400524D01*
X157480000Y-67056000D02*
X157589500Y-67165500D01*
X155324095Y-68049987D02*
X154432000Y-67157892D01*
X154432000Y-67157892D02*
X154432000Y-65791620D01*
X146493000Y-86995000D02*
X147890000Y-85598000D01*
X150056190Y-85334000D02*
X151536726Y-85334000D01*
X154217000Y-79242810D02*
X154217000Y-74284024D01*
X155324095Y-72400524D02*
X155324095Y-68049987D01*
X153289000Y-80170810D02*
X154217000Y-79242810D01*
X157480000Y-66040000D02*
X157480000Y-67056000D01*
X153289000Y-83581726D02*
X153289000Y-80170810D01*
X154217000Y-74284024D02*
X154912652Y-73588372D01*
X149792190Y-85598000D02*
X150056190Y-85334000D01*
%TO.N,/TX*%
X160922800Y-69215000D02*
X160922800Y-68974800D01*
X159759500Y-67811500D02*
X159759500Y-66456000D01*
X162086993Y-70379193D02*
X160922800Y-69215000D01*
X162086993Y-70704940D02*
X162086993Y-70379193D01*
X160922800Y-68974800D02*
X159759500Y-67811500D01*
%TO.N,/RX*%
X160528000Y-67794894D02*
X160528000Y-66487500D01*
X160528000Y-66487500D02*
X160559500Y-66456000D01*
X162553553Y-69820447D02*
X160528000Y-67794894D01*
%TO.N,/MISO*%
X166370000Y-74301000D02*
X165054500Y-74301000D01*
X165054500Y-74301000D02*
X164559500Y-74796000D01*
%TO.N,/MOSI*%
X181633000Y-72115116D02*
X178268116Y-75480000D01*
X178268116Y-75480000D02*
X165308166Y-75480000D01*
X163759500Y-75428666D02*
X163759500Y-74796000D01*
X165308166Y-75480000D02*
X164931166Y-75857000D01*
X181633000Y-70462000D02*
X181633000Y-72115116D01*
X164931166Y-75857000D02*
X164187834Y-75857000D01*
X183007000Y-69088000D02*
X181633000Y-70462000D01*
X164187834Y-75857000D02*
X163759500Y-75428666D01*
X182997000Y-69088000D02*
X183007000Y-69088000D01*
%TO.N,/RESET*%
X178806000Y-69977000D02*
X180457000Y-71628000D01*
X167296000Y-69379000D02*
X170144000Y-72227000D01*
X170990500Y-73995226D02*
X171350274Y-74355000D01*
X171350274Y-74355000D02*
X174463141Y-74355000D01*
X161434501Y-67676090D02*
X161359500Y-67601089D01*
X170990500Y-72562774D02*
X170990500Y-73995226D01*
X161359500Y-67601089D02*
X161359500Y-66456000D01*
X170654726Y-72227000D02*
X170990500Y-72562774D01*
X170144000Y-72227000D02*
X170654726Y-72227000D01*
X176657000Y-69977000D02*
X178806000Y-69977000D01*
X167296000Y-68580000D02*
X167296000Y-69379000D01*
X176657000Y-72161141D02*
X176657000Y-69977000D01*
X174463141Y-74355000D02*
X176657000Y-72161141D01*
%TO.N,Net-(U2-~{INTA})*%
X146019000Y-78613000D02*
X147004000Y-78613000D01*
X145643000Y-78989000D02*
X146019000Y-78613000D01*
X148064000Y-82931000D02*
X145643000Y-80510000D01*
X145643000Y-80510000D02*
X145643000Y-78989000D01*
%TO.N,Net-(U2-SQW{slash}~INT)*%
X150622000Y-77690000D02*
X150969000Y-77343000D01*
X150622000Y-83058000D02*
X150622000Y-77690000D01*
X150969000Y-77343000D02*
X151954000Y-77343000D01*
X150383000Y-83058000D02*
X150622000Y-83058000D01*
%TO.N,Net-(U2-X1)*%
X141286000Y-76207000D02*
X146870000Y-76207000D01*
X146870000Y-76207000D02*
X147004000Y-76073000D01*
%TO.N,Net-(U2-X2)*%
X141286000Y-81407000D02*
X145350000Y-77343000D01*
X145350000Y-77343000D02*
X147004000Y-77343000D01*
D26*
%TO.N,/VCC*%
X147492000Y-84184000D02*
X149225000Y-84184000D01*
X146239000Y-82931000D02*
X147492000Y-84184000D01*
X151082000Y-84184000D02*
X152208000Y-83058000D01*
X149225000Y-84184000D02*
X151082000Y-84184000D01*
D25*
%TO.N,/SCK*%
X174649951Y-74806000D02*
X178181000Y-71274951D01*
D26*
%TO.N,/VCC*%
X149225000Y-79945000D02*
X149225000Y-84184000D01*
X151954000Y-76073000D02*
X150969000Y-76073000D01*
X150969000Y-76073000D02*
X149894281Y-77147719D01*
X149894281Y-77147719D02*
X149894281Y-79275719D01*
X149894281Y-79275719D02*
X149225000Y-79945000D01*
D25*
%TO.N,Net-(U4-AREF)*%
X165896500Y-70993000D02*
X165929500Y-71026000D01*
X163957000Y-70993000D02*
X165896500Y-70993000D01*
%TO.N,/SCK*%
X162159500Y-68399674D02*
X162159500Y-66456000D01*
X163449000Y-69689174D02*
X162159500Y-68399674D01*
X163449000Y-70474280D02*
X163449000Y-69689174D01*
X164592000Y-72970283D02*
X163762499Y-72140782D01*
X163652782Y-72140782D02*
X163762499Y-72140782D01*
X163231000Y-71719000D02*
X163652782Y-72140782D01*
X164592000Y-73152000D02*
X164592000Y-72970283D01*
X163231000Y-71719000D02*
X163231000Y-70692280D01*
X163231000Y-70692280D02*
X163449000Y-70474280D01*
X164866000Y-73426000D02*
X164592000Y-73152000D01*
X165929500Y-73426000D02*
X164866000Y-73426000D01*
D26*
%TO.N,GND*%
X165929500Y-70226000D02*
X165155412Y-70226000D01*
X164494500Y-69565088D02*
X164494500Y-69476709D01*
X165155412Y-70226000D02*
X164494500Y-69565088D01*
X140137000Y-68143000D02*
X142494000Y-65786000D01*
X142494000Y-65786000D02*
X145424000Y-65786000D01*
X140137000Y-70668000D02*
X140137000Y-68143000D01*
X141413000Y-71944000D02*
X140137000Y-70668000D01*
X141413000Y-71944000D02*
X142494000Y-73025000D01*
X142494000Y-73025000D02*
X145424000Y-73025000D01*
%TD*%
%TA.AperFunction,Conductor*%
%TO.N,/VCC*%
G36*
X160011425Y-59956185D02*
G01*
X160057180Y-60008989D01*
X160067124Y-60078147D01*
X160038099Y-60141703D01*
X159991839Y-60175061D01*
X159823771Y-60244676D01*
X159823762Y-60244681D01*
X159668092Y-60348697D01*
X159668088Y-60348700D01*
X159535700Y-60481088D01*
X159535697Y-60481092D01*
X159431681Y-60636762D01*
X159431676Y-60636771D01*
X159360027Y-60809748D01*
X159360025Y-60809756D01*
X159323500Y-60993379D01*
X159323500Y-61180620D01*
X159340147Y-61264309D01*
X159333920Y-61333900D01*
X159291057Y-61389078D01*
X159225167Y-61412322D01*
X159218530Y-61412500D01*
X159174733Y-61412500D01*
X159107694Y-61392815D01*
X159061939Y-61340011D01*
X159057028Y-61327506D01*
X159050668Y-61308314D01*
X159045814Y-61293666D01*
X158953712Y-61144344D01*
X158829656Y-61020288D01*
X158680334Y-60928186D01*
X158513797Y-60873001D01*
X158513795Y-60873000D01*
X158411010Y-60862500D01*
X157810998Y-60862500D01*
X157810980Y-60862501D01*
X157708203Y-60873000D01*
X157708200Y-60873001D01*
X157541668Y-60928185D01*
X157541663Y-60928187D01*
X157392342Y-61020289D01*
X157268288Y-61144343D01*
X157268283Y-61144349D01*
X157266241Y-61147661D01*
X157264247Y-61149453D01*
X157263807Y-61150011D01*
X157263711Y-61149935D01*
X157214291Y-61194383D01*
X157145328Y-61205602D01*
X157081247Y-61177755D01*
X157055168Y-61147656D01*
X157053319Y-61144659D01*
X157053316Y-61144655D01*
X156929345Y-61020684D01*
X156780124Y-60928643D01*
X156780119Y-60928641D01*
X156613697Y-60873494D01*
X156613690Y-60873493D01*
X156510986Y-60863000D01*
X156461000Y-60863000D01*
X156461000Y-61964000D01*
X156441315Y-62031039D01*
X156388511Y-62076794D01*
X156337000Y-62088000D01*
X156211000Y-62088000D01*
X156211000Y-62214000D01*
X156191315Y-62281039D01*
X156138511Y-62326794D01*
X156087000Y-62338000D01*
X155211001Y-62338000D01*
X155211001Y-62446500D01*
X155191316Y-62513539D01*
X155138512Y-62559294D01*
X155087001Y-62570500D01*
X153983681Y-62570500D01*
X153916642Y-62550815D01*
X153870887Y-62498011D01*
X153860943Y-62428853D01*
X153873272Y-62393824D01*
X153872185Y-62393354D01*
X153875280Y-62386200D01*
X153921100Y-62228486D01*
X153921295Y-62226001D01*
X153921295Y-62226000D01*
X151326705Y-62226000D01*
X151326704Y-62226001D01*
X151326899Y-62228486D01*
X151372719Y-62386200D01*
X151375815Y-62393354D01*
X151373802Y-62394224D01*
X151388233Y-62451105D01*
X151366073Y-62517367D01*
X151311606Y-62561129D01*
X151264319Y-62570500D01*
X149310073Y-62570500D01*
X149243034Y-62550815D01*
X149222392Y-62534181D01*
X149195911Y-62507700D01*
X149195907Y-62507697D01*
X149040237Y-62403681D01*
X149040228Y-62403676D01*
X148867251Y-62332027D01*
X148867243Y-62332025D01*
X148683620Y-62295500D01*
X148683616Y-62295500D01*
X148496384Y-62295500D01*
X148496379Y-62295500D01*
X148312756Y-62332025D01*
X148312748Y-62332027D01*
X148139771Y-62403676D01*
X148139762Y-62403681D01*
X147984092Y-62507697D01*
X147984088Y-62507700D01*
X147957608Y-62534181D01*
X147896285Y-62567666D01*
X147869927Y-62570500D01*
X146783681Y-62570500D01*
X146716642Y-62550815D01*
X146670887Y-62498011D01*
X146660943Y-62428853D01*
X146673272Y-62393824D01*
X146672185Y-62393354D01*
X146675280Y-62386200D01*
X146721100Y-62228486D01*
X146721295Y-62226001D01*
X146721295Y-62226000D01*
X144126705Y-62226000D01*
X144126704Y-62226001D01*
X144126899Y-62228486D01*
X144172718Y-62386198D01*
X144256314Y-62527552D01*
X144261100Y-62533722D01*
X144258640Y-62535629D01*
X144285210Y-62584288D01*
X144280226Y-62653980D01*
X144259162Y-62686781D01*
X144260699Y-62687974D01*
X144255915Y-62694140D01*
X144172255Y-62835603D01*
X144172254Y-62835606D01*
X144126402Y-62993426D01*
X144126401Y-62993432D01*
X144123500Y-63030298D01*
X144123500Y-63461701D01*
X144126401Y-63498567D01*
X144126402Y-63498573D01*
X144172254Y-63656393D01*
X144172255Y-63656396D01*
X144172256Y-63656398D01*
X144199791Y-63702957D01*
X144255917Y-63797862D01*
X144260702Y-63804031D01*
X144258369Y-63805840D01*
X144285210Y-63854995D01*
X144280226Y-63924687D01*
X144259470Y-63957021D01*
X144261097Y-63958283D01*
X144256313Y-63964449D01*
X144172718Y-64105801D01*
X144126899Y-64263513D01*
X144126704Y-64265998D01*
X144126705Y-64266000D01*
X146721295Y-64266000D01*
X146721295Y-64265998D01*
X146721100Y-64263513D01*
X146675280Y-64105799D01*
X146672185Y-64098646D01*
X146674197Y-64097775D01*
X146659767Y-64040895D01*
X146681927Y-63974633D01*
X146736394Y-63930871D01*
X146783681Y-63921500D01*
X147869927Y-63921500D01*
X147936966Y-63941185D01*
X147957608Y-63957819D01*
X147984088Y-63984299D01*
X147984092Y-63984302D01*
X148139762Y-64088318D01*
X148139768Y-64088321D01*
X148139769Y-64088322D01*
X148312749Y-64159973D01*
X148496379Y-64196499D01*
X148496383Y-64196500D01*
X148496384Y-64196500D01*
X148683617Y-64196500D01*
X148683618Y-64196499D01*
X148867251Y-64159973D01*
X149040231Y-64088322D01*
X149195908Y-63984302D01*
X149205577Y-63974633D01*
X149222392Y-63957819D01*
X149283715Y-63924334D01*
X149310073Y-63921500D01*
X151263739Y-63921500D01*
X151330778Y-63941185D01*
X151376533Y-63993989D01*
X151386477Y-64063147D01*
X151374223Y-64097957D01*
X151375353Y-64098446D01*
X151372254Y-64105606D01*
X151326402Y-64263426D01*
X151326401Y-64263432D01*
X151323500Y-64300298D01*
X151323500Y-64673225D01*
X151303815Y-64740264D01*
X151287181Y-64760906D01*
X151210901Y-64837186D01*
X151099270Y-64948817D01*
X151099267Y-64948820D01*
X151062587Y-64985500D01*
X151012142Y-65035944D01*
X150985199Y-65076268D01*
X150943689Y-65138390D01*
X150943688Y-65138392D01*
X150924576Y-65184535D01*
X150924575Y-65184537D01*
X150896537Y-65252225D01*
X150896535Y-65252231D01*
X150889781Y-65286185D01*
X150889782Y-65286186D01*
X150873761Y-65366734D01*
X150873760Y-65366735D01*
X150872500Y-65373069D01*
X150872500Y-66198928D01*
X150879386Y-66233550D01*
X150879385Y-66233550D01*
X150896535Y-66319766D01*
X150896538Y-66319778D01*
X150907227Y-66345583D01*
X150943685Y-66433603D01*
X150943691Y-66433614D01*
X150973086Y-66477604D01*
X150973087Y-66477607D01*
X150973088Y-66477607D01*
X151012140Y-66536053D01*
X151012141Y-66536054D01*
X151012142Y-66536055D01*
X151099267Y-66623180D01*
X151099268Y-66623180D01*
X151106335Y-66630247D01*
X151106334Y-66630247D01*
X151106338Y-66630250D01*
X152837681Y-68361593D01*
X152871166Y-68422916D01*
X152874000Y-68449274D01*
X152874000Y-69091000D01*
X152854315Y-69158039D01*
X152801511Y-69203794D01*
X152750000Y-69215000D01*
X152624000Y-69215000D01*
X152624000Y-69341000D01*
X152604315Y-69408039D01*
X152551511Y-69453794D01*
X152500000Y-69465000D01*
X151326705Y-69465000D01*
X151326704Y-69465001D01*
X151326899Y-69467486D01*
X151372719Y-69625200D01*
X151375815Y-69632354D01*
X151373802Y-69633224D01*
X151388233Y-69690105D01*
X151366073Y-69756367D01*
X151311606Y-69800129D01*
X151264319Y-69809500D01*
X149899444Y-69809500D01*
X149832405Y-69789815D01*
X149830552Y-69788601D01*
X149802239Y-69769682D01*
X149802228Y-69769676D01*
X149629251Y-69698027D01*
X149629243Y-69698025D01*
X149445620Y-69661500D01*
X149445616Y-69661500D01*
X149258384Y-69661500D01*
X149258379Y-69661500D01*
X149074756Y-69698025D01*
X149074748Y-69698027D01*
X148901771Y-69769676D01*
X148901762Y-69769681D01*
X148746092Y-69873697D01*
X148746088Y-69873700D01*
X148613700Y-70006088D01*
X148613697Y-70006092D01*
X148509681Y-70161762D01*
X148509676Y-70161771D01*
X148438027Y-70334748D01*
X148438025Y-70334756D01*
X148401500Y-70518379D01*
X148401500Y-70555837D01*
X148381815Y-70622876D01*
X148365181Y-70643518D01*
X146934841Y-72073857D01*
X146873518Y-72107342D01*
X146803826Y-72102358D01*
X146747893Y-72060486D01*
X146731190Y-72015704D01*
X146721295Y-72005000D01*
X144126705Y-72005000D01*
X144126704Y-72005001D01*
X144126899Y-72007486D01*
X144172719Y-72165200D01*
X144175815Y-72172354D01*
X144173802Y-72173224D01*
X144188233Y-72230105D01*
X144166073Y-72296367D01*
X144111606Y-72340129D01*
X144064319Y-72349500D01*
X142861294Y-72349500D01*
X142794255Y-72329815D01*
X142748500Y-72277011D01*
X142738556Y-72207853D01*
X142738821Y-72206102D01*
X142739465Y-72202034D01*
X142763500Y-72050287D01*
X142763500Y-71837713D01*
X142730246Y-71627757D01*
X142664557Y-71425588D01*
X142568051Y-71236184D01*
X142568049Y-71236181D01*
X142568048Y-71236179D01*
X142443109Y-71064213D01*
X142329569Y-70950673D01*
X142296084Y-70889350D01*
X142301068Y-70819658D01*
X142342940Y-70763725D01*
X142373915Y-70746810D01*
X142405577Y-70735001D01*
X144126704Y-70735001D01*
X144126899Y-70737486D01*
X144172718Y-70895198D01*
X144256314Y-71036552D01*
X144261100Y-71042722D01*
X144258753Y-71044542D01*
X144285564Y-71093642D01*
X144280580Y-71163334D01*
X144259541Y-71196069D01*
X144261100Y-71197278D01*
X144256314Y-71203447D01*
X144172718Y-71344801D01*
X144126899Y-71502513D01*
X144126704Y-71504998D01*
X144126705Y-71505000D01*
X145174000Y-71505000D01*
X145674000Y-71505000D01*
X146721295Y-71505000D01*
X146721295Y-71504998D01*
X146721100Y-71502513D01*
X146675281Y-71344801D01*
X146591685Y-71203447D01*
X146586900Y-71197278D01*
X146589252Y-71195453D01*
X146562445Y-71146405D01*
X146567402Y-71076712D01*
X146588465Y-71043936D01*
X146586900Y-71042722D01*
X146591685Y-71036552D01*
X146675281Y-70895198D01*
X146721100Y-70737486D01*
X146721295Y-70735001D01*
X146721295Y-70735000D01*
X145674000Y-70735000D01*
X145674000Y-71505000D01*
X145174000Y-71505000D01*
X145174000Y-70735000D01*
X144126705Y-70735000D01*
X144126704Y-70735001D01*
X142405577Y-70735001D01*
X142505331Y-70697796D01*
X142620546Y-70611546D01*
X142706796Y-70496331D01*
X142757091Y-70361483D01*
X142763500Y-70301873D01*
X142763499Y-69465001D01*
X144126704Y-69465001D01*
X144126899Y-69467486D01*
X144172718Y-69625198D01*
X144256314Y-69766552D01*
X144261100Y-69772722D01*
X144258753Y-69774542D01*
X144285564Y-69823642D01*
X144280580Y-69893334D01*
X144259541Y-69926069D01*
X144261100Y-69927278D01*
X144256314Y-69933447D01*
X144172718Y-70074801D01*
X144126899Y-70232513D01*
X144126704Y-70234998D01*
X144126705Y-70235000D01*
X145174000Y-70235000D01*
X145674000Y-70235000D01*
X146721295Y-70235000D01*
X146721295Y-70234998D01*
X146721100Y-70232513D01*
X146675281Y-70074801D01*
X146591685Y-69933447D01*
X146586900Y-69927278D01*
X146589252Y-69925453D01*
X146562445Y-69876405D01*
X146567402Y-69806712D01*
X146588465Y-69773936D01*
X146586900Y-69772722D01*
X146591685Y-69766552D01*
X146675281Y-69625198D01*
X146721100Y-69467486D01*
X146721295Y-69465001D01*
X146721295Y-69465000D01*
X145674000Y-69465000D01*
X145674000Y-70235000D01*
X145174000Y-70235000D01*
X145174000Y-69465000D01*
X144126705Y-69465000D01*
X144126704Y-69465001D01*
X142763499Y-69465001D01*
X142763499Y-68964998D01*
X144126704Y-68964998D01*
X144126705Y-68965000D01*
X145174000Y-68965000D01*
X145674000Y-68965000D01*
X146721295Y-68965000D01*
X146721295Y-68964998D01*
X146721100Y-68962513D01*
X146675281Y-68804801D01*
X146591685Y-68663447D01*
X146591678Y-68663438D01*
X146475561Y-68547321D01*
X146475552Y-68547314D01*
X146334196Y-68463717D01*
X146334193Y-68463716D01*
X146176495Y-68417900D01*
X146176489Y-68417899D01*
X146139649Y-68415000D01*
X145674000Y-68415000D01*
X145674000Y-68965000D01*
X145174000Y-68965000D01*
X145174000Y-68415000D01*
X144708350Y-68415000D01*
X144671510Y-68417899D01*
X144671504Y-68417900D01*
X144513806Y-68463716D01*
X144513803Y-68463717D01*
X144372447Y-68547314D01*
X144372438Y-68547321D01*
X144256321Y-68663438D01*
X144256314Y-68663447D01*
X144172718Y-68804801D01*
X144126899Y-68962513D01*
X144126704Y-68964998D01*
X142763499Y-68964998D01*
X142763499Y-68506128D01*
X142757091Y-68446517D01*
X142753622Y-68437217D01*
X142706797Y-68311671D01*
X142706793Y-68311664D01*
X142620547Y-68196455D01*
X142620544Y-68196452D01*
X142505335Y-68110206D01*
X142505328Y-68110202D01*
X142370482Y-68059908D01*
X142370483Y-68059908D01*
X142310883Y-68053501D01*
X142310881Y-68053500D01*
X142310873Y-68053500D01*
X142310865Y-68053500D01*
X141481162Y-68053500D01*
X141414123Y-68033815D01*
X141368368Y-67981011D01*
X141358424Y-67911853D01*
X141387449Y-67848297D01*
X141393481Y-67841819D01*
X141547211Y-67688089D01*
X146983229Y-67688089D01*
X147010578Y-67704263D01*
X147017156Y-67708437D01*
X147056139Y-67734930D01*
X147062438Y-67739507D01*
X147112015Y-67777961D01*
X147118019Y-67782928D01*
X147153384Y-67814106D01*
X147159063Y-67819439D01*
X147319561Y-67979937D01*
X147324894Y-67985616D01*
X147356072Y-68020981D01*
X147361039Y-68026985D01*
X147399493Y-68076562D01*
X147404070Y-68082861D01*
X147430563Y-68121844D01*
X147434737Y-68128422D01*
X147550268Y-68323776D01*
X147554019Y-68330599D01*
X147575415Y-68372588D01*
X147578732Y-68379636D01*
X147603652Y-68437217D01*
X147606521Y-68444463D01*
X147622494Y-68488829D01*
X147624901Y-68496238D01*
X147686582Y-68708546D01*
X147688192Y-68714666D01*
X147696984Y-68751929D01*
X147698280Y-68758124D01*
X147707439Y-68808268D01*
X147708417Y-68814525D01*
X147713368Y-68852519D01*
X147714026Y-68858816D01*
X147732778Y-69097160D01*
X147726315Y-69147514D01*
X147712795Y-69186500D01*
X148021905Y-69186500D01*
X148057727Y-69150678D01*
X148062136Y-69146480D01*
X148089423Y-69121749D01*
X148094030Y-69117775D01*
X148131912Y-69086686D01*
X148136712Y-69082940D01*
X148166286Y-69061007D01*
X148171260Y-69057504D01*
X148220540Y-69024575D01*
X148220540Y-68964998D01*
X151326704Y-68964998D01*
X151326705Y-68965000D01*
X152374000Y-68965000D01*
X152374000Y-68415000D01*
X151908350Y-68415000D01*
X151871510Y-68417899D01*
X151871504Y-68417900D01*
X151713806Y-68463716D01*
X151713803Y-68463717D01*
X151572447Y-68547314D01*
X151572438Y-68547321D01*
X151456321Y-68663438D01*
X151456314Y-68663447D01*
X151372718Y-68804801D01*
X151326899Y-68962513D01*
X151326704Y-68964998D01*
X148220540Y-68964998D01*
X148220540Y-68664103D01*
X149218540Y-68664103D01*
X149227800Y-68663649D01*
X149233882Y-68663500D01*
X149470118Y-68663500D01*
X149476200Y-68663649D01*
X149512975Y-68665455D01*
X149519046Y-68665903D01*
X149567815Y-68670706D01*
X149573858Y-68671451D01*
X149610286Y-68676855D01*
X149616281Y-68677896D01*
X149847987Y-68723985D01*
X149853924Y-68725318D01*
X149889652Y-68734267D01*
X149895522Y-68735891D01*
X149942418Y-68750118D01*
X149948197Y-68752027D01*
X149982859Y-68764430D01*
X149988535Y-68766620D01*
X150096885Y-68811500D01*
X150340056Y-68811500D01*
X150340561Y-68808268D01*
X150349720Y-68758124D01*
X150351016Y-68751929D01*
X150359808Y-68714666D01*
X150361418Y-68708546D01*
X150423099Y-68496238D01*
X150425506Y-68488829D01*
X150441479Y-68444463D01*
X150444348Y-68437217D01*
X150469268Y-68379636D01*
X150472585Y-68372588D01*
X150493981Y-68330599D01*
X150497732Y-68323776D01*
X150613263Y-68128422D01*
X150617437Y-68121844D01*
X150643930Y-68082861D01*
X150648507Y-68076562D01*
X150686961Y-68026985D01*
X150691928Y-68020981D01*
X150720540Y-67988526D01*
X150720540Y-67684500D01*
X149218540Y-67684500D01*
X149218540Y-68664103D01*
X148220540Y-68664103D01*
X148220540Y-67684500D01*
X147001275Y-67684500D01*
X146983229Y-67688089D01*
X141547211Y-67688089D01*
X141979747Y-67255554D01*
X142737482Y-66497819D01*
X142798805Y-66464334D01*
X142825163Y-66461500D01*
X144350758Y-66461500D01*
X144413878Y-66478767D01*
X144513602Y-66537744D01*
X144536681Y-66544449D01*
X144671426Y-66583597D01*
X144671429Y-66583597D01*
X144671431Y-66583598D01*
X144708306Y-66586500D01*
X146007563Y-66586500D01*
X146074602Y-66606185D01*
X146076455Y-66607399D01*
X146107760Y-66628317D01*
X146107771Y-66628323D01*
X146118920Y-66632941D01*
X146280749Y-66699973D01*
X146464379Y-66736499D01*
X146464383Y-66736500D01*
X146464384Y-66736500D01*
X146651617Y-66736500D01*
X146651618Y-66736499D01*
X146835251Y-66699973D01*
X146867778Y-66686500D01*
X149218540Y-66686500D01*
X149968213Y-66686500D01*
X149965129Y-66679054D01*
X149962939Y-66673378D01*
X149950537Y-66638718D01*
X149948628Y-66632941D01*
X149934401Y-66586046D01*
X149932777Y-66580176D01*
X149923828Y-66544449D01*
X149922495Y-66538511D01*
X149900561Y-66428242D01*
X149900560Y-66428241D01*
X149888893Y-66369583D01*
X149887853Y-66363584D01*
X149882451Y-66327159D01*
X149881706Y-66321122D01*
X149876903Y-66272354D01*
X149876455Y-66266283D01*
X149874649Y-66229511D01*
X149874500Y-66223428D01*
X149874500Y-65348560D01*
X149874649Y-65342474D01*
X149876457Y-65305680D01*
X149876906Y-65299606D01*
X149881712Y-65250833D01*
X149882457Y-65244794D01*
X149887859Y-65208385D01*
X149888898Y-65202394D01*
X149892457Y-65184500D01*
X149218540Y-65184500D01*
X149218540Y-66686500D01*
X146867778Y-66686500D01*
X147008231Y-66628322D01*
X147163908Y-66524302D01*
X147296302Y-66391908D01*
X147400322Y-66236231D01*
X147471973Y-66063251D01*
X147508500Y-65879616D01*
X147508500Y-65692384D01*
X147471973Y-65508749D01*
X147407266Y-65352533D01*
X147400323Y-65335771D01*
X147400318Y-65335762D01*
X147296302Y-65180092D01*
X147296299Y-65180088D01*
X147163911Y-65047700D01*
X147163907Y-65047697D01*
X147008237Y-64943681D01*
X147008228Y-64943676D01*
X146835251Y-64872027D01*
X146835245Y-64872025D01*
X146822906Y-64869571D01*
X146760995Y-64837186D01*
X146726421Y-64776470D01*
X146726007Y-64771098D01*
X146721295Y-64766000D01*
X144126705Y-64766000D01*
X144126704Y-64766001D01*
X144126899Y-64768486D01*
X144172719Y-64926200D01*
X144175815Y-64933354D01*
X144173802Y-64934224D01*
X144188233Y-64991105D01*
X144166073Y-65057367D01*
X144111606Y-65101129D01*
X144064319Y-65110500D01*
X142427467Y-65110500D01*
X142296969Y-65136458D01*
X142296959Y-65136461D01*
X142174038Y-65187376D01*
X142174025Y-65187383D01*
X142073875Y-65254302D01*
X142073871Y-65254305D01*
X142063394Y-65261304D01*
X139612307Y-67712390D01*
X139612304Y-67712394D01*
X139538383Y-67823024D01*
X139538378Y-67823034D01*
X139487459Y-67945963D01*
X139487457Y-67945971D01*
X139478993Y-67988526D01*
X139464794Y-68059909D01*
X139462874Y-68069562D01*
X139461500Y-68076470D01*
X139461500Y-70734535D01*
X139487457Y-70865028D01*
X139487459Y-70865036D01*
X139538378Y-70987965D01*
X139538383Y-70987975D01*
X139612304Y-71098605D01*
X139612307Y-71098609D01*
X140057326Y-71543628D01*
X140090811Y-71604951D01*
X140092118Y-71650706D01*
X140062500Y-71837712D01*
X140062500Y-71837713D01*
X140062500Y-72050287D01*
X140066233Y-72073857D01*
X140092022Y-72236684D01*
X140095754Y-72260243D01*
X140149741Y-72426398D01*
X140161444Y-72462414D01*
X140257951Y-72651820D01*
X140382890Y-72823786D01*
X140533213Y-72974109D01*
X140705179Y-73099048D01*
X140705181Y-73099049D01*
X140705184Y-73099051D01*
X140894588Y-73195557D01*
X141096757Y-73261246D01*
X141306713Y-73294500D01*
X141306714Y-73294500D01*
X141519286Y-73294500D01*
X141519287Y-73294500D01*
X141706292Y-73264881D01*
X141775585Y-73273836D01*
X141813371Y-73299673D01*
X142063390Y-73549692D01*
X142063394Y-73549695D01*
X142174024Y-73623616D01*
X142174028Y-73623618D01*
X142174031Y-73623620D01*
X142296964Y-73674541D01*
X142390674Y-73693181D01*
X142427464Y-73700499D01*
X142427468Y-73700500D01*
X142427469Y-73700500D01*
X144350758Y-73700500D01*
X144413878Y-73717767D01*
X144513602Y-73776744D01*
X144555224Y-73788836D01*
X144671426Y-73822597D01*
X144671429Y-73822597D01*
X144671431Y-73822598D01*
X144708306Y-73825500D01*
X144708314Y-73825500D01*
X146139686Y-73825500D01*
X146139694Y-73825500D01*
X146176569Y-73822598D01*
X146176571Y-73822597D01*
X146176573Y-73822597D01*
X146218191Y-73810505D01*
X146334398Y-73776744D01*
X146434121Y-73717767D01*
X146497242Y-73700500D01*
X147005532Y-73700500D01*
X147005533Y-73700499D01*
X147136036Y-73674541D01*
X147258969Y-73623620D01*
X147369606Y-73549695D01*
X149320482Y-71598819D01*
X149381805Y-71565334D01*
X149408163Y-71562500D01*
X149445617Y-71562500D01*
X149445618Y-71562499D01*
X149540493Y-71543628D01*
X149629242Y-71525975D01*
X149629242Y-71525974D01*
X149629251Y-71525973D01*
X149632091Y-71524796D01*
X149633698Y-71524623D01*
X149635078Y-71524205D01*
X149635157Y-71524466D01*
X149701555Y-71517322D01*
X149764037Y-71548591D01*
X149799695Y-71608676D01*
X149797208Y-71678502D01*
X149782652Y-71708245D01*
X149696990Y-71836446D01*
X149696983Y-71836459D01*
X149629106Y-72000332D01*
X149629103Y-72000341D01*
X149594500Y-72174304D01*
X149594500Y-72351695D01*
X149629103Y-72525658D01*
X149629106Y-72525667D01*
X149696983Y-72689540D01*
X149696990Y-72689553D01*
X149795535Y-72837034D01*
X149795538Y-72837038D01*
X149920961Y-72962461D01*
X149920965Y-72962464D01*
X150068446Y-73061009D01*
X150068459Y-73061016D01*
X150160286Y-73099051D01*
X150232334Y-73128894D01*
X150232336Y-73128894D01*
X150232341Y-73128896D01*
X150406304Y-73163499D01*
X150406307Y-73163500D01*
X150406309Y-73163500D01*
X150583693Y-73163500D01*
X150670829Y-73146167D01*
X150724309Y-73135529D01*
X150793900Y-73141756D01*
X150849077Y-73184619D01*
X150872322Y-73250508D01*
X150872500Y-73257146D01*
X150872500Y-73437932D01*
X150884518Y-73498351D01*
X150889023Y-73520997D01*
X150896537Y-73558776D01*
X150897252Y-73560501D01*
X150901910Y-73571746D01*
X150943685Y-73672603D01*
X150943690Y-73672612D01*
X150971063Y-73713577D01*
X150971064Y-73713578D01*
X151012141Y-73775054D01*
X151012144Y-73775058D01*
X151103586Y-73866500D01*
X151103608Y-73866520D01*
X152303407Y-75066319D01*
X152336892Y-75127642D01*
X152331908Y-75197334D01*
X152290036Y-75253267D01*
X152224572Y-75277684D01*
X152215726Y-75278000D01*
X152204000Y-75278000D01*
X152204000Y-75949000D01*
X152184315Y-76016039D01*
X152131511Y-76061794D01*
X152080000Y-76073000D01*
X151954000Y-76073000D01*
X151954000Y-76199000D01*
X151934315Y-76266039D01*
X151881511Y-76311794D01*
X151830000Y-76323000D01*
X150469000Y-76323000D01*
X150469000Y-76331863D01*
X150483768Y-76444028D01*
X150483769Y-76444032D01*
X150541578Y-76583598D01*
X150578797Y-76632102D01*
X150603991Y-76697272D01*
X150589953Y-76765716D01*
X150578798Y-76783074D01*
X150541143Y-76832147D01*
X150541141Y-76832151D01*
X150512312Y-76901749D01*
X150485452Y-76941956D01*
X150483161Y-76944248D01*
X150483142Y-76944267D01*
X150136144Y-77291264D01*
X150136138Y-77291272D01*
X150067690Y-77393708D01*
X150067688Y-77393713D01*
X150047973Y-77441311D01*
X150047973Y-77441312D01*
X150020537Y-77507547D01*
X150020535Y-77507553D01*
X150008517Y-77567974D01*
X150001774Y-77601880D01*
X150001773Y-77601888D01*
X149996500Y-77628394D01*
X149996500Y-78258660D01*
X149976815Y-78325699D01*
X149924011Y-78371454D01*
X149854853Y-78381398D01*
X149791297Y-78352373D01*
X149769398Y-78327552D01*
X149756580Y-78308369D01*
X149624192Y-78175981D01*
X149624188Y-78175978D01*
X149468518Y-78071962D01*
X149468509Y-78071957D01*
X149295532Y-78000308D01*
X149295524Y-78000306D01*
X149111901Y-77963781D01*
X149111897Y-77963781D01*
X148924665Y-77963781D01*
X148924660Y-77963781D01*
X148741037Y-78000306D01*
X148741029Y-78000308D01*
X148568049Y-78071958D01*
X148549350Y-78084453D01*
X148482672Y-78105329D01*
X148415292Y-78086843D01*
X148382079Y-78056824D01*
X148379505Y-78053470D01*
X148354321Y-77988299D01*
X148368370Y-77919856D01*
X148379518Y-77902513D01*
X148416856Y-77853853D01*
X148426413Y-77830780D01*
X148474719Y-77714159D01*
X148489500Y-77601887D01*
X148489499Y-77084114D01*
X148483389Y-77037703D01*
X148474720Y-76971848D01*
X148474719Y-76971847D01*
X148474719Y-76971841D01*
X148431218Y-76866819D01*
X148416856Y-76832146D01*
X148379518Y-76783487D01*
X148354323Y-76718318D01*
X148368361Y-76649873D01*
X148379518Y-76632513D01*
X148416856Y-76583853D01*
X148436125Y-76537333D01*
X148474719Y-76444159D01*
X148489500Y-76331887D01*
X148489499Y-75814136D01*
X150469000Y-75814136D01*
X150469000Y-75823000D01*
X151704000Y-75823000D01*
X151704000Y-75278000D01*
X151005136Y-75278000D01*
X150892971Y-75292768D01*
X150892967Y-75292769D01*
X150753401Y-75350578D01*
X150633547Y-75442547D01*
X150541578Y-75562401D01*
X150483769Y-75701967D01*
X150483768Y-75701971D01*
X150469000Y-75814136D01*
X148489499Y-75814136D01*
X148489499Y-75814114D01*
X148489037Y-75810608D01*
X148474720Y-75701848D01*
X148474719Y-75701847D01*
X148474719Y-75701841D01*
X148416856Y-75562147D01*
X148324810Y-75442190D01*
X148204853Y-75350144D01*
X148204852Y-75350143D01*
X148204850Y-75350142D01*
X148065162Y-75292282D01*
X148065160Y-75292281D01*
X148065159Y-75292281D01*
X147952887Y-75277500D01*
X146055111Y-75277500D01*
X145942848Y-75292279D01*
X145942837Y-75292282D01*
X145803149Y-75350142D01*
X145683188Y-75442191D01*
X145613520Y-75532986D01*
X145557092Y-75574189D01*
X145515144Y-75581500D01*
X143110500Y-75581500D01*
X143043461Y-75561815D01*
X142997706Y-75509011D01*
X142986500Y-75457500D01*
X142986500Y-74656997D01*
X142986499Y-74656984D01*
X142975999Y-74554204D01*
X142975999Y-74554203D01*
X142920814Y-74387666D01*
X142886543Y-74332105D01*
X142828713Y-74238348D01*
X142828710Y-74238344D01*
X142704655Y-74114289D01*
X142704651Y-74114286D01*
X142555337Y-74022187D01*
X142555335Y-74022186D01*
X142437380Y-73983100D01*
X142388797Y-73967001D01*
X142388795Y-73967000D01*
X142286015Y-73956500D01*
X142286008Y-73956500D01*
X140285992Y-73956500D01*
X140285984Y-73956500D01*
X140183204Y-73967000D01*
X140183203Y-73967001D01*
X140016664Y-74022186D01*
X140016662Y-74022187D01*
X139867348Y-74114286D01*
X139867344Y-74114289D01*
X139743289Y-74238344D01*
X139743286Y-74238348D01*
X139651187Y-74387662D01*
X139651186Y-74387664D01*
X139596001Y-74554203D01*
X139596000Y-74554204D01*
X139585500Y-74656984D01*
X139585500Y-77757015D01*
X139596000Y-77859795D01*
X139596001Y-77859797D01*
X139610156Y-77902513D01*
X139651186Y-78026335D01*
X139651187Y-78026337D01*
X139743286Y-78175651D01*
X139743289Y-78175655D01*
X139867344Y-78299710D01*
X139867348Y-78299713D01*
X140016662Y-78391812D01*
X140016664Y-78391813D01*
X140016666Y-78391814D01*
X140183203Y-78446999D01*
X140285992Y-78457500D01*
X140285997Y-78457500D01*
X142286003Y-78457500D01*
X142286008Y-78457500D01*
X142388797Y-78446999D01*
X142555334Y-78391814D01*
X142704655Y-78299711D01*
X142828711Y-78175655D01*
X142920814Y-78026334D01*
X142975999Y-77859797D01*
X142986500Y-77757008D01*
X142986500Y-76956500D01*
X143006185Y-76889461D01*
X143058989Y-76843706D01*
X143110500Y-76832500D01*
X144676547Y-76832500D01*
X144743586Y-76852185D01*
X144789341Y-76904989D01*
X144799285Y-76974147D01*
X144770260Y-77037703D01*
X144764228Y-77044181D01*
X142632617Y-79175791D01*
X142571294Y-79209276D01*
X142505932Y-79205816D01*
X142388797Y-79167001D01*
X142388795Y-79167000D01*
X142286015Y-79156500D01*
X142286008Y-79156500D01*
X140285992Y-79156500D01*
X140285984Y-79156500D01*
X140183204Y-79167000D01*
X140183203Y-79167001D01*
X140016664Y-79222186D01*
X140016662Y-79222187D01*
X139867348Y-79314286D01*
X139867344Y-79314289D01*
X139743289Y-79438344D01*
X139743286Y-79438348D01*
X139651187Y-79587662D01*
X139651186Y-79587664D01*
X139596001Y-79754203D01*
X139596000Y-79754204D01*
X139585500Y-79856984D01*
X139585500Y-82957015D01*
X139596000Y-83059795D01*
X139596001Y-83059796D01*
X139651186Y-83226335D01*
X139651187Y-83226337D01*
X139743286Y-83375651D01*
X139743289Y-83375655D01*
X139867344Y-83499710D01*
X139867348Y-83499713D01*
X140016662Y-83591812D01*
X140016664Y-83591813D01*
X140016666Y-83591814D01*
X140183203Y-83646999D01*
X140285992Y-83657500D01*
X140285997Y-83657500D01*
X142286003Y-83657500D01*
X142286008Y-83657500D01*
X142388797Y-83646999D01*
X142555334Y-83591814D01*
X142704655Y-83499711D01*
X142773380Y-83430986D01*
X145226501Y-83430986D01*
X145236994Y-83533697D01*
X145292141Y-83700119D01*
X145292143Y-83700124D01*
X145384184Y-83849345D01*
X145508154Y-83973315D01*
X145657375Y-84065356D01*
X145657380Y-84065358D01*
X145823802Y-84120505D01*
X145823809Y-84120506D01*
X145926519Y-84130999D01*
X145988999Y-84130998D01*
X145989000Y-84130998D01*
X145989000Y-83181000D01*
X145226501Y-83181000D01*
X145226501Y-83430986D01*
X142773380Y-83430986D01*
X142828711Y-83375655D01*
X142920814Y-83226334D01*
X142975999Y-83059797D01*
X142986500Y-82957008D01*
X142986500Y-80642452D01*
X143006185Y-80575413D01*
X143022819Y-80554771D01*
X143878181Y-79699409D01*
X144819658Y-78757931D01*
X144880979Y-78724448D01*
X144950671Y-78729432D01*
X145006604Y-78771304D01*
X145031021Y-78836768D01*
X145028955Y-78869803D01*
X145020265Y-78913495D01*
X145020263Y-78913502D01*
X145017500Y-78927389D01*
X145017500Y-78927394D01*
X145017500Y-80448393D01*
X145017500Y-80571607D01*
X145028969Y-80629267D01*
X145039037Y-80679885D01*
X145041537Y-80692453D01*
X145041538Y-80692457D01*
X145047397Y-80706598D01*
X145047398Y-80706607D01*
X145047400Y-80706607D01*
X145088688Y-80806286D01*
X145113537Y-80843474D01*
X145113538Y-80843477D01*
X145113539Y-80843477D01*
X145157141Y-80908732D01*
X145157144Y-80908736D01*
X145248586Y-81000178D01*
X145248608Y-81000198D01*
X145806410Y-81558000D01*
X145839895Y-81619323D01*
X145834911Y-81689015D01*
X145793039Y-81744948D01*
X145757734Y-81763387D01*
X145657378Y-81796642D01*
X145657375Y-81796643D01*
X145508154Y-81888684D01*
X145384184Y-82012654D01*
X145292143Y-82161875D01*
X145292141Y-82161880D01*
X145236994Y-82328302D01*
X145236993Y-82328309D01*
X145226500Y-82431013D01*
X145226500Y-82681000D01*
X146115000Y-82681000D01*
X146182039Y-82700685D01*
X146227794Y-82753489D01*
X146239000Y-82805000D01*
X146239000Y-82931000D01*
X146365000Y-82931000D01*
X146432039Y-82950685D01*
X146477794Y-83003489D01*
X146489000Y-83055000D01*
X146489000Y-84130999D01*
X146551472Y-84130999D01*
X146551486Y-84130998D01*
X146654197Y-84120505D01*
X146820619Y-84065358D01*
X146820624Y-84065356D01*
X146969842Y-83973317D01*
X147063464Y-83879695D01*
X147124787Y-83846210D01*
X147194479Y-83851194D01*
X147238827Y-83879695D01*
X147332844Y-83973712D01*
X147482166Y-84065814D01*
X147648703Y-84120999D01*
X147751491Y-84131500D01*
X148376508Y-84131499D01*
X148376516Y-84131498D01*
X148376519Y-84131498D01*
X148432802Y-84125748D01*
X148479297Y-84120999D01*
X148645834Y-84065814D01*
X148795156Y-83973712D01*
X148919212Y-83849656D01*
X149011314Y-83700334D01*
X149066499Y-83533797D01*
X149077000Y-83431009D01*
X149076999Y-82430992D01*
X149066499Y-82328203D01*
X149011314Y-82161666D01*
X148919212Y-82012344D01*
X148795156Y-81888288D01*
X148646575Y-81796643D01*
X148645836Y-81796187D01*
X148645831Y-81796185D01*
X148578567Y-81773896D01*
X148479297Y-81741001D01*
X148479295Y-81741000D01*
X148376516Y-81730500D01*
X147799452Y-81730500D01*
X147732413Y-81710815D01*
X147711771Y-81694181D01*
X146907770Y-80890180D01*
X146874285Y-80828857D01*
X146879269Y-80759165D01*
X146921141Y-80703232D01*
X146986605Y-80678815D01*
X146995451Y-80678499D01*
X147952888Y-80678499D01*
X148065151Y-80663720D01*
X148065150Y-80663720D01*
X148065159Y-80663719D01*
X148204853Y-80605856D01*
X148324810Y-80513810D01*
X148324815Y-80513804D01*
X148330560Y-80508060D01*
X148332908Y-80510408D01*
X148364828Y-80485743D01*
X148364159Y-80484491D01*
X148369524Y-80481622D01*
X148369531Y-80481620D01*
X148480168Y-80407695D01*
X148986763Y-79901100D01*
X149048086Y-79867615D01*
X149074444Y-79864781D01*
X149111898Y-79864781D01*
X149111899Y-79864780D01*
X149295532Y-79828254D01*
X149468512Y-79756603D01*
X149624189Y-79652583D01*
X149756583Y-79520189D01*
X149769397Y-79501010D01*
X149823009Y-79456206D01*
X149892334Y-79447497D01*
X149955362Y-79477652D01*
X149992081Y-79537094D01*
X149996500Y-79569901D01*
X149996500Y-81768917D01*
X149976815Y-81835956D01*
X149924011Y-81881711D01*
X149911505Y-81886623D01*
X149801166Y-81923186D01*
X149801163Y-81923187D01*
X149651842Y-82015289D01*
X149527789Y-82139342D01*
X149435687Y-82288663D01*
X149435685Y-82288668D01*
X149416634Y-82346160D01*
X149380501Y-82455203D01*
X149380501Y-82455204D01*
X149380500Y-82455204D01*
X149370000Y-82557983D01*
X149370000Y-83558001D01*
X149370001Y-83558019D01*
X149380500Y-83660796D01*
X149380501Y-83660799D01*
X149435685Y-83827331D01*
X149435686Y-83827334D01*
X149527788Y-83976656D01*
X149651844Y-84100712D01*
X149801166Y-84192814D01*
X149967703Y-84247999D01*
X150070491Y-84258500D01*
X150695508Y-84258499D01*
X150695516Y-84258498D01*
X150695519Y-84258498D01*
X150751802Y-84252748D01*
X150798297Y-84247999D01*
X150964834Y-84192814D01*
X151114156Y-84100712D01*
X151208175Y-84006692D01*
X151269494Y-83973210D01*
X151339186Y-83978194D01*
X151383534Y-84006695D01*
X151477154Y-84100315D01*
X151596439Y-84173891D01*
X151643163Y-84225839D01*
X151654386Y-84294802D01*
X151626542Y-84358884D01*
X151619024Y-84367111D01*
X151489846Y-84496289D01*
X151313953Y-84672182D01*
X151252632Y-84705666D01*
X151226274Y-84708500D01*
X149994579Y-84708500D01*
X149934161Y-84720518D01*
X149890933Y-84729116D01*
X149873736Y-84732537D01*
X149759906Y-84779687D01*
X149657457Y-84848141D01*
X149613438Y-84892161D01*
X149569416Y-84936182D01*
X149508096Y-84969666D01*
X149481737Y-84972500D01*
X147828389Y-84972500D01*
X147767971Y-84984518D01*
X147724743Y-84993116D01*
X147707546Y-84996537D01*
X147593716Y-85043687D01*
X147491265Y-85112142D01*
X146950837Y-85652570D01*
X146889514Y-85686055D01*
X146824842Y-85682821D01*
X146809246Y-85677754D01*
X146650239Y-85652570D01*
X146599287Y-85644500D01*
X146386713Y-85644500D01*
X146338042Y-85652208D01*
X146176760Y-85677753D01*
X145974585Y-85743444D01*
X145785179Y-85839951D01*
X145613215Y-85964889D01*
X145499673Y-86078431D01*
X145438350Y-86111915D01*
X145368658Y-86106931D01*
X145312725Y-86065059D01*
X145295810Y-86034082D01*
X145246797Y-85902671D01*
X145246793Y-85902664D01*
X145160547Y-85787455D01*
X145160544Y-85787452D01*
X145045335Y-85701206D01*
X145045328Y-85701202D01*
X144910482Y-85650908D01*
X144910483Y-85650908D01*
X144850883Y-85644501D01*
X144850881Y-85644500D01*
X144850873Y-85644500D01*
X144850864Y-85644500D01*
X143055129Y-85644500D01*
X143055123Y-85644501D01*
X142995516Y-85650908D01*
X142860671Y-85701202D01*
X142860664Y-85701206D01*
X142745455Y-85787452D01*
X142745452Y-85787455D01*
X142659206Y-85902664D01*
X142659202Y-85902671D01*
X142608908Y-86037517D01*
X142604510Y-86078431D01*
X142602501Y-86097123D01*
X142602500Y-86097135D01*
X142602500Y-87892870D01*
X142602501Y-87892876D01*
X142608908Y-87952483D01*
X142659202Y-88087328D01*
X142659206Y-88087335D01*
X142745452Y-88202544D01*
X142745455Y-88202547D01*
X142860664Y-88288793D01*
X142860671Y-88288797D01*
X142995517Y-88339091D01*
X142995516Y-88339091D01*
X143002444Y-88339835D01*
X143055127Y-88345500D01*
X144850872Y-88345499D01*
X144910483Y-88339091D01*
X145045331Y-88288796D01*
X145160546Y-88202546D01*
X145246796Y-88087331D01*
X145295810Y-87955916D01*
X145337681Y-87899984D01*
X145403145Y-87875566D01*
X145471418Y-87890417D01*
X145499673Y-87911569D01*
X145613213Y-88025109D01*
X145785179Y-88150048D01*
X145785181Y-88150049D01*
X145785184Y-88150051D01*
X145974588Y-88246557D01*
X146176757Y-88312246D01*
X146386713Y-88345500D01*
X146386714Y-88345500D01*
X146599286Y-88345500D01*
X146599287Y-88345500D01*
X146809243Y-88312246D01*
X147011412Y-88246557D01*
X147200816Y-88150051D01*
X147287138Y-88087335D01*
X147372786Y-88025109D01*
X147372788Y-88025106D01*
X147372792Y-88025104D01*
X147523104Y-87874792D01*
X147523106Y-87874788D01*
X147523109Y-87874786D01*
X147648048Y-87702820D01*
X147648047Y-87702820D01*
X147648051Y-87702816D01*
X147652514Y-87694054D01*
X147700488Y-87643259D01*
X147768308Y-87626463D01*
X147834444Y-87648999D01*
X147873486Y-87694056D01*
X147877951Y-87702820D01*
X148002890Y-87874786D01*
X148153213Y-88025109D01*
X148325179Y-88150048D01*
X148325181Y-88150049D01*
X148325184Y-88150051D01*
X148514588Y-88246557D01*
X148716757Y-88312246D01*
X148926713Y-88345500D01*
X148926714Y-88345500D01*
X149139286Y-88345500D01*
X149139287Y-88345500D01*
X149349243Y-88312246D01*
X149551412Y-88246557D01*
X149740816Y-88150051D01*
X149827138Y-88087335D01*
X149912786Y-88025109D01*
X149912788Y-88025106D01*
X149912792Y-88025104D01*
X150063104Y-87874792D01*
X150063106Y-87874788D01*
X150063109Y-87874786D01*
X150188048Y-87702820D01*
X150188047Y-87702820D01*
X150188051Y-87702816D01*
X150192514Y-87694054D01*
X150240488Y-87643259D01*
X150308308Y-87626463D01*
X150374444Y-87648999D01*
X150413486Y-87694056D01*
X150417951Y-87702820D01*
X150542890Y-87874786D01*
X150693213Y-88025109D01*
X150865179Y-88150048D01*
X150865181Y-88150049D01*
X150865184Y-88150051D01*
X151054588Y-88246557D01*
X151256757Y-88312246D01*
X151466713Y-88345500D01*
X151466714Y-88345500D01*
X151679286Y-88345500D01*
X151679287Y-88345500D01*
X151889243Y-88312246D01*
X152091412Y-88246557D01*
X152280816Y-88150051D01*
X152367138Y-88087335D01*
X152452786Y-88025109D01*
X152452788Y-88025106D01*
X152452792Y-88025104D01*
X152603104Y-87874792D01*
X152603106Y-87874788D01*
X152603109Y-87874786D01*
X152728048Y-87702820D01*
X152728047Y-87702820D01*
X152728051Y-87702816D01*
X152732514Y-87694054D01*
X152780488Y-87643259D01*
X152848308Y-87626463D01*
X152914444Y-87648999D01*
X152953486Y-87694056D01*
X152957951Y-87702820D01*
X153082890Y-87874786D01*
X153233213Y-88025109D01*
X153405179Y-88150048D01*
X153405181Y-88150049D01*
X153405184Y-88150051D01*
X153594588Y-88246557D01*
X153796757Y-88312246D01*
X154006713Y-88345500D01*
X154006714Y-88345500D01*
X154219286Y-88345500D01*
X154219287Y-88345500D01*
X154429243Y-88312246D01*
X154631412Y-88246557D01*
X154820816Y-88150051D01*
X154907138Y-88087335D01*
X154992786Y-88025109D01*
X154992788Y-88025106D01*
X154992792Y-88025104D01*
X155143104Y-87874792D01*
X155143106Y-87874788D01*
X155143109Y-87874786D01*
X155268048Y-87702820D01*
X155268047Y-87702820D01*
X155268051Y-87702816D01*
X155272514Y-87694054D01*
X155320488Y-87643259D01*
X155388308Y-87626463D01*
X155454444Y-87648999D01*
X155493486Y-87694056D01*
X155497951Y-87702820D01*
X155622890Y-87874786D01*
X155773213Y-88025109D01*
X155945179Y-88150048D01*
X155945181Y-88150049D01*
X155945184Y-88150051D01*
X156134588Y-88246557D01*
X156336757Y-88312246D01*
X156546713Y-88345500D01*
X156546714Y-88345500D01*
X156759286Y-88345500D01*
X156759287Y-88345500D01*
X156969243Y-88312246D01*
X157171412Y-88246557D01*
X157360816Y-88150051D01*
X157447138Y-88087335D01*
X157532786Y-88025109D01*
X157532788Y-88025106D01*
X157532792Y-88025104D01*
X157683104Y-87874792D01*
X157683106Y-87874788D01*
X157683109Y-87874786D01*
X157808048Y-87702820D01*
X157808047Y-87702820D01*
X157808051Y-87702816D01*
X157812514Y-87694054D01*
X157860488Y-87643259D01*
X157928308Y-87626463D01*
X157994444Y-87648999D01*
X158033486Y-87694056D01*
X158037951Y-87702820D01*
X158162890Y-87874786D01*
X158313213Y-88025109D01*
X158485179Y-88150048D01*
X158485181Y-88150049D01*
X158485184Y-88150051D01*
X158674588Y-88246557D01*
X158876757Y-88312246D01*
X159086713Y-88345500D01*
X159086714Y-88345500D01*
X159299286Y-88345500D01*
X159299287Y-88345500D01*
X159509243Y-88312246D01*
X159711412Y-88246557D01*
X159900816Y-88150051D01*
X159987138Y-88087335D01*
X160072786Y-88025109D01*
X160072788Y-88025106D01*
X160072792Y-88025104D01*
X160223104Y-87874792D01*
X160223106Y-87874788D01*
X160223109Y-87874786D01*
X160348048Y-87702820D01*
X160348047Y-87702820D01*
X160348051Y-87702816D01*
X160352514Y-87694054D01*
X160400488Y-87643259D01*
X160468308Y-87626463D01*
X160534444Y-87648999D01*
X160573486Y-87694056D01*
X160577951Y-87702820D01*
X160702890Y-87874786D01*
X160853213Y-88025109D01*
X161025179Y-88150048D01*
X161025181Y-88150049D01*
X161025184Y-88150051D01*
X161214588Y-88246557D01*
X161416757Y-88312246D01*
X161626713Y-88345500D01*
X161626714Y-88345500D01*
X161839286Y-88345500D01*
X161839287Y-88345500D01*
X162049243Y-88312246D01*
X162251412Y-88246557D01*
X162440816Y-88150051D01*
X162527138Y-88087335D01*
X162612786Y-88025109D01*
X162612788Y-88025106D01*
X162612792Y-88025104D01*
X162763104Y-87874792D01*
X162763106Y-87874788D01*
X162763109Y-87874786D01*
X162848890Y-87756717D01*
X162888051Y-87702816D01*
X162892793Y-87693508D01*
X162940763Y-87642711D01*
X163008583Y-87625911D01*
X163074719Y-87648445D01*
X163113763Y-87693500D01*
X163118373Y-87702547D01*
X163157728Y-87756716D01*
X163790037Y-87124408D01*
X163807075Y-87187993D01*
X163872901Y-87302007D01*
X163965993Y-87395099D01*
X164080007Y-87460925D01*
X164143590Y-87477962D01*
X163511282Y-88110269D01*
X163511282Y-88110270D01*
X163565449Y-88149624D01*
X163754782Y-88246095D01*
X163956870Y-88311757D01*
X164166754Y-88345000D01*
X164379246Y-88345000D01*
X164589127Y-88311757D01*
X164589130Y-88311757D01*
X164791217Y-88246095D01*
X164980554Y-88149622D01*
X165034716Y-88110270D01*
X165034717Y-88110270D01*
X164402408Y-87477962D01*
X164465993Y-87460925D01*
X164580007Y-87395099D01*
X164673099Y-87302007D01*
X164738925Y-87187993D01*
X164755962Y-87124408D01*
X165388270Y-87756717D01*
X165388270Y-87756716D01*
X165427622Y-87702554D01*
X165524095Y-87513217D01*
X165589757Y-87311130D01*
X165589757Y-87311127D01*
X165623000Y-87101246D01*
X165623000Y-86888753D01*
X165590965Y-86686500D01*
X166718540Y-86686500D01*
X167258500Y-86686500D01*
X167258500Y-86097135D01*
X168256500Y-86097135D01*
X168256500Y-87892870D01*
X168256501Y-87892876D01*
X168262908Y-87952483D01*
X168313202Y-88087328D01*
X168313206Y-88087335D01*
X168399452Y-88202544D01*
X168399455Y-88202547D01*
X168514664Y-88288793D01*
X168514671Y-88288797D01*
X168649517Y-88339091D01*
X168649516Y-88339091D01*
X168656444Y-88339835D01*
X168709127Y-88345500D01*
X170504872Y-88345499D01*
X170564483Y-88339091D01*
X170699331Y-88288796D01*
X170814546Y-88202546D01*
X170900796Y-88087331D01*
X170951091Y-87952483D01*
X170957500Y-87892873D01*
X170957499Y-87882312D01*
X170977179Y-87815275D01*
X170993818Y-87794626D01*
X171664036Y-87124407D01*
X171681075Y-87187993D01*
X171746901Y-87302007D01*
X171839993Y-87395099D01*
X171954007Y-87460925D01*
X172017590Y-87477962D01*
X171385282Y-88110269D01*
X171385282Y-88110270D01*
X171439449Y-88149624D01*
X171628782Y-88246095D01*
X171830870Y-88311757D01*
X172040754Y-88345000D01*
X172253246Y-88345000D01*
X172463127Y-88311757D01*
X172463130Y-88311757D01*
X172665217Y-88246095D01*
X172854554Y-88149622D01*
X172908716Y-88110270D01*
X172908717Y-88110270D01*
X172276408Y-87477962D01*
X172339993Y-87460925D01*
X172454007Y-87395099D01*
X172547099Y-87302007D01*
X172612925Y-87187993D01*
X172629962Y-87124409D01*
X173262270Y-87756717D01*
X173262270Y-87756716D01*
X173301622Y-87702555D01*
X173306232Y-87693507D01*
X173354205Y-87642709D01*
X173422025Y-87625912D01*
X173488161Y-87648447D01*
X173527204Y-87693504D01*
X173531949Y-87702817D01*
X173656890Y-87874786D01*
X173807213Y-88025109D01*
X173979179Y-88150048D01*
X173979181Y-88150049D01*
X173979184Y-88150051D01*
X174168588Y-88246557D01*
X174370757Y-88312246D01*
X174580713Y-88345500D01*
X174580714Y-88345500D01*
X174793286Y-88345500D01*
X174793287Y-88345500D01*
X175003243Y-88312246D01*
X175205412Y-88246557D01*
X175394816Y-88150051D01*
X175481138Y-88087335D01*
X175566786Y-88025109D01*
X175566788Y-88025106D01*
X175566792Y-88025104D01*
X175717104Y-87874792D01*
X175717106Y-87874788D01*
X175717109Y-87874786D01*
X175842048Y-87702820D01*
X175842047Y-87702820D01*
X175842051Y-87702816D01*
X175846514Y-87694054D01*
X175894488Y-87643259D01*
X175962308Y-87626463D01*
X176028444Y-87648999D01*
X176067486Y-87694056D01*
X176071951Y-87702820D01*
X176196890Y-87874786D01*
X176347213Y-88025109D01*
X176519179Y-88150048D01*
X176519181Y-88150049D01*
X176519184Y-88150051D01*
X176708588Y-88246557D01*
X176910757Y-88312246D01*
X177120713Y-88345500D01*
X177120714Y-88345500D01*
X177333286Y-88345500D01*
X177333287Y-88345500D01*
X177543243Y-88312246D01*
X177745412Y-88246557D01*
X177934816Y-88150051D01*
X178021138Y-88087335D01*
X178106786Y-88025109D01*
X178106788Y-88025106D01*
X178106792Y-88025104D01*
X178257104Y-87874792D01*
X178257106Y-87874788D01*
X178257109Y-87874786D01*
X178382048Y-87702820D01*
X178382047Y-87702820D01*
X178382051Y-87702816D01*
X178478557Y-87513412D01*
X178544246Y-87311243D01*
X178577500Y-87101287D01*
X178577500Y-86888713D01*
X178544246Y-86678757D01*
X178478557Y-86476588D01*
X178382051Y-86287184D01*
X178382049Y-86287181D01*
X178382048Y-86287179D01*
X178257109Y-86115213D01*
X178106786Y-85964890D01*
X177934820Y-85839951D01*
X177745414Y-85743444D01*
X177745413Y-85743443D01*
X177745412Y-85743443D01*
X177543243Y-85677754D01*
X177543241Y-85677753D01*
X177543240Y-85677753D01*
X177381957Y-85652208D01*
X177333287Y-85644500D01*
X177120713Y-85644500D01*
X177072042Y-85652208D01*
X176910760Y-85677753D01*
X176708585Y-85743444D01*
X176519179Y-85839951D01*
X176347213Y-85964890D01*
X176196890Y-86115213D01*
X176071949Y-86287182D01*
X176067484Y-86295946D01*
X176019509Y-86346742D01*
X175951688Y-86363536D01*
X175885553Y-86340998D01*
X175846516Y-86295946D01*
X175842050Y-86287182D01*
X175717109Y-86115213D01*
X175566786Y-85964890D01*
X175394820Y-85839951D01*
X175205414Y-85743444D01*
X175205413Y-85743443D01*
X175205412Y-85743443D01*
X175003243Y-85677754D01*
X175003241Y-85677753D01*
X175003240Y-85677753D01*
X174841957Y-85652208D01*
X174793287Y-85644500D01*
X174580713Y-85644500D01*
X174532042Y-85652208D01*
X174370760Y-85677753D01*
X174168585Y-85743444D01*
X173979179Y-85839951D01*
X173807213Y-85964890D01*
X173656890Y-86115213D01*
X173531949Y-86287182D01*
X173527202Y-86296499D01*
X173479227Y-86347293D01*
X173411405Y-86364087D01*
X173345271Y-86341548D01*
X173306234Y-86296495D01*
X173301626Y-86287452D01*
X173262270Y-86233282D01*
X173262269Y-86233282D01*
X172629962Y-86865590D01*
X172612925Y-86802007D01*
X172547099Y-86687993D01*
X172454007Y-86594901D01*
X172339993Y-86529075D01*
X172276409Y-86512037D01*
X172908716Y-85879728D01*
X172854550Y-85840375D01*
X172665217Y-85743904D01*
X172463129Y-85678242D01*
X172253246Y-85645000D01*
X172040754Y-85645000D01*
X171830872Y-85678242D01*
X171830869Y-85678242D01*
X171628782Y-85743904D01*
X171439439Y-85840380D01*
X171385282Y-85879727D01*
X171385282Y-85879728D01*
X172017591Y-86512037D01*
X171954007Y-86529075D01*
X171839993Y-86594901D01*
X171746901Y-86687993D01*
X171681075Y-86802007D01*
X171664037Y-86865591D01*
X170993818Y-86195372D01*
X170960333Y-86134049D01*
X170957499Y-86107691D01*
X170957499Y-86097129D01*
X170957498Y-86097123D01*
X170957497Y-86097116D01*
X170951091Y-86037517D01*
X170900796Y-85902669D01*
X170900795Y-85902668D01*
X170900793Y-85902664D01*
X170814547Y-85787455D01*
X170814544Y-85787452D01*
X170699335Y-85701206D01*
X170699328Y-85701202D01*
X170564482Y-85650908D01*
X170564483Y-85650908D01*
X170504883Y-85644501D01*
X170504881Y-85644500D01*
X170504873Y-85644500D01*
X170504864Y-85644500D01*
X168709129Y-85644500D01*
X168709123Y-85644501D01*
X168649516Y-85650908D01*
X168514671Y-85701202D01*
X168514664Y-85701206D01*
X168399455Y-85787452D01*
X168399452Y-85787455D01*
X168313206Y-85902664D01*
X168313202Y-85902671D01*
X168262908Y-86037517D01*
X168258510Y-86078431D01*
X168256501Y-86097123D01*
X168256500Y-86097135D01*
X167258500Y-86097135D01*
X167258500Y-86083752D01*
X167258545Y-86080428D01*
X167259084Y-86060327D01*
X167259217Y-86057007D01*
X167260649Y-86030320D01*
X167260871Y-86027011D01*
X167262481Y-86007018D01*
X167262792Y-86003715D01*
X167273962Y-85899825D01*
X167275029Y-85892157D01*
X167282936Y-85845971D01*
X167284481Y-85838381D01*
X167298826Y-85777670D01*
X167300842Y-85770191D01*
X167314450Y-85725328D01*
X167316929Y-85717988D01*
X167390587Y-85520498D01*
X167393975Y-85512318D01*
X167416233Y-85463581D01*
X167420195Y-85455667D01*
X167454372Y-85393077D01*
X167458890Y-85385463D01*
X167487854Y-85340396D01*
X167492902Y-85333126D01*
X167604164Y-85184500D01*
X166718540Y-85184500D01*
X166718540Y-86686500D01*
X165590965Y-86686500D01*
X165589757Y-86678872D01*
X165589757Y-86678869D01*
X165524095Y-86476782D01*
X165427624Y-86287449D01*
X165388270Y-86233282D01*
X165388269Y-86233282D01*
X164755962Y-86865590D01*
X164738925Y-86802007D01*
X164673099Y-86687993D01*
X164580007Y-86594901D01*
X164465993Y-86529075D01*
X164402409Y-86512037D01*
X165034716Y-85879728D01*
X164980550Y-85840375D01*
X164791217Y-85743904D01*
X164589129Y-85678242D01*
X164379246Y-85645000D01*
X164166754Y-85645000D01*
X163956872Y-85678242D01*
X163956869Y-85678242D01*
X163754782Y-85743904D01*
X163565439Y-85840380D01*
X163511282Y-85879727D01*
X163511282Y-85879728D01*
X164143591Y-86512037D01*
X164080007Y-86529075D01*
X163965993Y-86594901D01*
X163872901Y-86687993D01*
X163807075Y-86802007D01*
X163790037Y-86865591D01*
X163157728Y-86233282D01*
X163157727Y-86233282D01*
X163118380Y-86287440D01*
X163118376Y-86287446D01*
X163113760Y-86296505D01*
X163065781Y-86347297D01*
X162997959Y-86364087D01*
X162931826Y-86341543D01*
X162892794Y-86296493D01*
X162888051Y-86287184D01*
X162888049Y-86287181D01*
X162888048Y-86287179D01*
X162763109Y-86115213D01*
X162612786Y-85964890D01*
X162440820Y-85839951D01*
X162251414Y-85743444D01*
X162251413Y-85743443D01*
X162251412Y-85743443D01*
X162049243Y-85677754D01*
X162049241Y-85677753D01*
X162049240Y-85677753D01*
X161887957Y-85652208D01*
X161839287Y-85644500D01*
X161626713Y-85644500D01*
X161578042Y-85652208D01*
X161416760Y-85677753D01*
X161214585Y-85743444D01*
X161025179Y-85839951D01*
X160853213Y-85964890D01*
X160702890Y-86115213D01*
X160577949Y-86287182D01*
X160573484Y-86295946D01*
X160525509Y-86346742D01*
X160457688Y-86363536D01*
X160391553Y-86340998D01*
X160352516Y-86295946D01*
X160348050Y-86287182D01*
X160223109Y-86115213D01*
X160072786Y-85964890D01*
X159900820Y-85839951D01*
X159711414Y-85743444D01*
X159711413Y-85743443D01*
X159711412Y-85743443D01*
X159509243Y-85677754D01*
X159509241Y-85677753D01*
X159509240Y-85677753D01*
X159347957Y-85652208D01*
X159299287Y-85644500D01*
X159086713Y-85644500D01*
X159038042Y-85652208D01*
X158876760Y-85677753D01*
X158674585Y-85743444D01*
X158485179Y-85839951D01*
X158313213Y-85964890D01*
X158162890Y-86115213D01*
X158037949Y-86287182D01*
X158033484Y-86295946D01*
X157985509Y-86346742D01*
X157917688Y-86363536D01*
X157851553Y-86340998D01*
X157812516Y-86295946D01*
X157808050Y-86287182D01*
X157683109Y-86115213D01*
X157532786Y-85964890D01*
X157360820Y-85839951D01*
X157171414Y-85743444D01*
X157171413Y-85743443D01*
X157171412Y-85743443D01*
X156969243Y-85677754D01*
X156969241Y-85677753D01*
X156969240Y-85677753D01*
X156807957Y-85652208D01*
X156759287Y-85644500D01*
X156546713Y-85644500D01*
X156498042Y-85652208D01*
X156336760Y-85677753D01*
X156134585Y-85743444D01*
X155945179Y-85839951D01*
X155773213Y-85964890D01*
X155622890Y-86115213D01*
X155497949Y-86287182D01*
X155493484Y-86295946D01*
X155445509Y-86346742D01*
X155377688Y-86363536D01*
X155311553Y-86340998D01*
X155272516Y-86295946D01*
X155268050Y-86287182D01*
X155143109Y-86115213D01*
X154992786Y-85964890D01*
X154820820Y-85839951D01*
X154631414Y-85743444D01*
X154631413Y-85743443D01*
X154631412Y-85743443D01*
X154429243Y-85677754D01*
X154429241Y-85677753D01*
X154429240Y-85677753D01*
X154267957Y-85652208D01*
X154219287Y-85644500D01*
X154006713Y-85644500D01*
X153958042Y-85652208D01*
X153796760Y-85677753D01*
X153594585Y-85743444D01*
X153405179Y-85839951D01*
X153233213Y-85964890D01*
X153082890Y-86115213D01*
X152957949Y-86287182D01*
X152953484Y-86295946D01*
X152905509Y-86346742D01*
X152837688Y-86363536D01*
X152771553Y-86340998D01*
X152732516Y-86295946D01*
X152728050Y-86287182D01*
X152603109Y-86115213D01*
X152528191Y-86040295D01*
X152494706Y-85978972D01*
X152499690Y-85909280D01*
X152528189Y-85864935D01*
X154138729Y-84254396D01*
X154138733Y-84254394D01*
X154206627Y-84186500D01*
X155311458Y-84186500D01*
X155720540Y-84186500D01*
X156718540Y-84186500D01*
X158220540Y-84186500D01*
X159218540Y-84186500D01*
X160720540Y-84186500D01*
X161718540Y-84186500D01*
X163220540Y-84186500D01*
X164218540Y-84186500D01*
X165720540Y-84186500D01*
X166718540Y-84186500D01*
X168220540Y-84186500D01*
X169218540Y-84186500D01*
X170720540Y-84186500D01*
X171718540Y-84186500D01*
X173220540Y-84186500D01*
X174218540Y-84186500D01*
X175720540Y-84186500D01*
X176718540Y-84186500D01*
X178220540Y-84186500D01*
X178220540Y-83111376D01*
X179218540Y-83111376D01*
X179343597Y-82986319D01*
X179404920Y-82952834D01*
X179431278Y-82950000D01*
X180659195Y-82950000D01*
X180658596Y-82934769D01*
X180658500Y-82929897D01*
X180658500Y-82684500D01*
X179218540Y-82684500D01*
X179218540Y-83111376D01*
X178220540Y-83111376D01*
X178220540Y-82684500D01*
X176718540Y-82684500D01*
X176718540Y-84186500D01*
X175720540Y-84186500D01*
X175720540Y-82684500D01*
X174218540Y-82684500D01*
X174218540Y-84186500D01*
X173220540Y-84186500D01*
X173220540Y-82684500D01*
X171718540Y-82684500D01*
X171718540Y-84186500D01*
X170720540Y-84186500D01*
X170720540Y-82684500D01*
X169218540Y-82684500D01*
X169218540Y-84186500D01*
X168220540Y-84186500D01*
X168220540Y-82684500D01*
X166718540Y-82684500D01*
X166718540Y-84186500D01*
X165720540Y-84186500D01*
X165720540Y-82684500D01*
X164218540Y-82684500D01*
X164218540Y-84186500D01*
X163220540Y-84186500D01*
X163220540Y-82684500D01*
X161718540Y-82684500D01*
X161718540Y-84186500D01*
X160720540Y-84186500D01*
X160720540Y-82684500D01*
X160174168Y-82684500D01*
X160158735Y-82691055D01*
X160120186Y-82689506D01*
X160095018Y-82684500D01*
X159218540Y-82684500D01*
X159218540Y-84186500D01*
X158220540Y-84186500D01*
X158220540Y-82684500D01*
X156718540Y-82684500D01*
X156718540Y-84186500D01*
X155720540Y-84186500D01*
X155720540Y-82684500D01*
X155363500Y-82684500D01*
X155363500Y-83854644D01*
X155363351Y-83860726D01*
X155361545Y-83897501D01*
X155361097Y-83903572D01*
X155356294Y-83952341D01*
X155355549Y-83958382D01*
X155350146Y-83994807D01*
X155349105Y-84000804D01*
X155315506Y-84169721D01*
X155314173Y-84175660D01*
X155311458Y-84186500D01*
X154206627Y-84186500D01*
X154225858Y-84167269D01*
X154257104Y-84120505D01*
X154277254Y-84090349D01*
X154277256Y-84090346D01*
X154294310Y-84064824D01*
X154294313Y-84064818D01*
X154298149Y-84055557D01*
X154321932Y-83998139D01*
X154341463Y-83950988D01*
X154365500Y-83830142D01*
X154365500Y-81686500D01*
X176718540Y-81686500D01*
X178220540Y-81686500D01*
X179218540Y-81686500D01*
X180720540Y-81686500D01*
X180720540Y-80818261D01*
X180714758Y-80794183D01*
X180713713Y-80789423D01*
X180707964Y-80760523D01*
X180707108Y-80755728D01*
X180667723Y-80507059D01*
X180667056Y-80502236D01*
X180663596Y-80473003D01*
X180663119Y-80468165D01*
X180660041Y-80429086D01*
X180659754Y-80424221D01*
X180658596Y-80394769D01*
X180658500Y-80389897D01*
X180658500Y-80211474D01*
X180631526Y-80184500D01*
X179218540Y-80184500D01*
X179218540Y-81686500D01*
X178220540Y-81686500D01*
X178220540Y-80184500D01*
X176718540Y-80184500D01*
X176718540Y-81686500D01*
X154365500Y-81686500D01*
X154365500Y-80668071D01*
X154385185Y-80601032D01*
X154401815Y-80580394D01*
X155066729Y-79915480D01*
X155066733Y-79915478D01*
X155153858Y-79828353D01*
X155222311Y-79725906D01*
X155269463Y-79612072D01*
X155293500Y-79491226D01*
X155293500Y-74781286D01*
X155313185Y-74714247D01*
X155329819Y-74693605D01*
X155554426Y-74468998D01*
X155691320Y-74332104D01*
X155752642Y-74298620D01*
X155822334Y-74303604D01*
X155878267Y-74345476D01*
X155902684Y-74410940D01*
X155903000Y-74419786D01*
X155903000Y-77596108D01*
X155910726Y-77634947D01*
X155910726Y-77634952D01*
X155910727Y-77634952D01*
X155926478Y-77714146D01*
X155927036Y-77716949D01*
X155927037Y-77716951D01*
X155974185Y-77830780D01*
X155974187Y-77830783D01*
X155974188Y-77830786D01*
X155998510Y-77867186D01*
X155999233Y-77868267D01*
X155999234Y-77868269D01*
X156042641Y-77933232D01*
X156042644Y-77933236D01*
X156134086Y-78024678D01*
X156134108Y-78024698D01*
X156315115Y-78205705D01*
X156348600Y-78267028D01*
X156345140Y-78332389D01*
X156323001Y-78399199D01*
X156312500Y-78501984D01*
X156312500Y-80502015D01*
X156323000Y-80604795D01*
X156323001Y-80604797D01*
X156347528Y-80678815D01*
X156378186Y-80771335D01*
X156378187Y-80771337D01*
X156470286Y-80920651D01*
X156470289Y-80920655D01*
X156594344Y-81044710D01*
X156594348Y-81044713D01*
X156743662Y-81136812D01*
X156743664Y-81136813D01*
X156743666Y-81136814D01*
X156910203Y-81191999D01*
X157012992Y-81202500D01*
X159327548Y-81202500D01*
X159394587Y-81222185D01*
X159415229Y-81238819D01*
X159600016Y-81423606D01*
X159600045Y-81423637D01*
X159690264Y-81513856D01*
X159690267Y-81513858D01*
X159767190Y-81565256D01*
X159792710Y-81582309D01*
X159792712Y-81582310D01*
X159792715Y-81582312D01*
X159859396Y-81609931D01*
X159859398Y-81609933D01*
X159882068Y-81619323D01*
X159906548Y-81629463D01*
X159966971Y-81641481D01*
X160027393Y-81653500D01*
X165631107Y-81653500D01*
X165691529Y-81641481D01*
X165751952Y-81629463D01*
X165788076Y-81614500D01*
X165865786Y-81582312D01*
X165917009Y-81548084D01*
X165968233Y-81513858D01*
X166055358Y-81426733D01*
X166055358Y-81426731D01*
X166065566Y-81416524D01*
X166065568Y-81416521D01*
X167169796Y-80312292D01*
X167231117Y-80278809D01*
X167300809Y-80283793D01*
X167356742Y-80325665D01*
X167379092Y-80375783D01*
X167409104Y-80526659D01*
X167409106Y-80526667D01*
X167476983Y-80690540D01*
X167476990Y-80690553D01*
X167575535Y-80838034D01*
X167575538Y-80838038D01*
X167700961Y-80963461D01*
X167700965Y-80963464D01*
X167848446Y-81062009D01*
X167848459Y-81062016D01*
X167971363Y-81112923D01*
X168012334Y-81129894D01*
X168012336Y-81129894D01*
X168012341Y-81129896D01*
X168186304Y-81164499D01*
X168186307Y-81164500D01*
X168186309Y-81164500D01*
X168363693Y-81164500D01*
X168363694Y-81164499D01*
X168421682Y-81152964D01*
X168537658Y-81129896D01*
X168537661Y-81129894D01*
X168537666Y-81129894D01*
X168701547Y-81062013D01*
X168849035Y-80963464D01*
X168858014Y-80954484D01*
X168919334Y-80920999D01*
X168989026Y-80925981D01*
X169044961Y-80967850D01*
X169063402Y-81003157D01*
X169081686Y-81058334D01*
X169173788Y-81207656D01*
X169297844Y-81331712D01*
X169447166Y-81423814D01*
X169613703Y-81478999D01*
X169716491Y-81489500D01*
X170316508Y-81489499D01*
X170316516Y-81489498D01*
X170316519Y-81489498D01*
X170372802Y-81483748D01*
X170419297Y-81478999D01*
X170585834Y-81423814D01*
X170735156Y-81331712D01*
X170859212Y-81207656D01*
X170860961Y-81204819D01*
X170862669Y-81203283D01*
X170863693Y-81201989D01*
X170863914Y-81202163D01*
X170912906Y-81158096D01*
X170981868Y-81146872D01*
X171045951Y-81174713D01*
X171072037Y-81204817D01*
X171073788Y-81207656D01*
X171197844Y-81331712D01*
X171347166Y-81423814D01*
X171513703Y-81478999D01*
X171616491Y-81489500D01*
X172216508Y-81489499D01*
X172216516Y-81489498D01*
X172216519Y-81489498D01*
X172272802Y-81483748D01*
X172319297Y-81478999D01*
X172485834Y-81423814D01*
X172635156Y-81331712D01*
X172759212Y-81207656D01*
X172851314Y-81058334D01*
X172862528Y-81024494D01*
X172902301Y-80967050D01*
X172966817Y-80940228D01*
X172980233Y-80939500D01*
X173147060Y-80939500D01*
X173214099Y-80959185D01*
X173247765Y-80992256D01*
X173247834Y-80992200D01*
X173248359Y-80992840D01*
X173250165Y-80994614D01*
X173251697Y-80996907D01*
X173251700Y-80996911D01*
X173384088Y-81129299D01*
X173384092Y-81129302D01*
X173539762Y-81233318D01*
X173539768Y-81233321D01*
X173539769Y-81233322D01*
X173712749Y-81304973D01*
X173896379Y-81341499D01*
X173896383Y-81341500D01*
X173896384Y-81341500D01*
X174083617Y-81341500D01*
X174083618Y-81341499D01*
X174267251Y-81304973D01*
X174440231Y-81233322D01*
X174595908Y-81129302D01*
X174728302Y-80996908D01*
X174832322Y-80841231D01*
X174903973Y-80668251D01*
X174940500Y-80484616D01*
X174940500Y-80297384D01*
X174903973Y-80113749D01*
X174832322Y-79940769D01*
X174832321Y-79940768D01*
X174832318Y-79940762D01*
X174728302Y-79785092D01*
X174728299Y-79785088D01*
X174595911Y-79652700D01*
X174595907Y-79652697D01*
X174440237Y-79548681D01*
X174440228Y-79548676D01*
X174267251Y-79477027D01*
X174267243Y-79477025D01*
X174083620Y-79440500D01*
X174083616Y-79440500D01*
X173896384Y-79440500D01*
X173896379Y-79440500D01*
X173712756Y-79477025D01*
X173712748Y-79477027D01*
X173539771Y-79548676D01*
X173539760Y-79548682D01*
X173511448Y-79567601D01*
X173444771Y-79588480D01*
X173442556Y-79588500D01*
X172980233Y-79588500D01*
X172913194Y-79568815D01*
X172867439Y-79516011D01*
X172862528Y-79503506D01*
X172853753Y-79477027D01*
X172851314Y-79469666D01*
X172759212Y-79320344D01*
X172635156Y-79196288D01*
X172630049Y-79191181D01*
X172631935Y-79189294D01*
X172598712Y-79142375D01*
X172592000Y-79102132D01*
X172592000Y-78451442D01*
X174218540Y-78451442D01*
X174248286Y-78455855D01*
X174254281Y-78456896D01*
X174485987Y-78502985D01*
X174491924Y-78504318D01*
X174527652Y-78513267D01*
X174533522Y-78514891D01*
X174580418Y-78529118D01*
X174586197Y-78531027D01*
X174620859Y-78543430D01*
X174626535Y-78545620D01*
X174844783Y-78636021D01*
X174850346Y-78638487D01*
X174883626Y-78654227D01*
X174889061Y-78656963D01*
X174932282Y-78680064D01*
X174937578Y-78683064D01*
X174969170Y-78701999D01*
X174974314Y-78705256D01*
X175170740Y-78836504D01*
X175175714Y-78840007D01*
X175205288Y-78861940D01*
X175210088Y-78865686D01*
X175247970Y-78896775D01*
X175252577Y-78900749D01*
X175279864Y-78925480D01*
X175284273Y-78929678D01*
X175451322Y-79096727D01*
X175455520Y-79101136D01*
X175480251Y-79128423D01*
X175484225Y-79133030D01*
X175515314Y-79170912D01*
X175519060Y-79175712D01*
X175527061Y-79186500D01*
X175720540Y-79186500D01*
X176718540Y-79186500D01*
X178220540Y-79186500D01*
X178220540Y-77828500D01*
X176718540Y-77828500D01*
X176718540Y-79186500D01*
X175720540Y-79186500D01*
X175720540Y-78014771D01*
X175714620Y-78016890D01*
X175708845Y-78018798D01*
X175661952Y-78033025D01*
X175656084Y-78034649D01*
X175620349Y-78043601D01*
X175614408Y-78044935D01*
X175392357Y-78089104D01*
X175386360Y-78090145D01*
X175349929Y-78095549D01*
X175343888Y-78096294D01*
X175295116Y-78101097D01*
X175289046Y-78101545D01*
X175252274Y-78103351D01*
X175246191Y-78103500D01*
X175019809Y-78103500D01*
X175013726Y-78103351D01*
X174976954Y-78101545D01*
X174970884Y-78101097D01*
X174922112Y-78096294D01*
X174916071Y-78095549D01*
X174879640Y-78090145D01*
X174873643Y-78089104D01*
X174651592Y-78044935D01*
X174645651Y-78043601D01*
X174609916Y-78034649D01*
X174604048Y-78033025D01*
X174557155Y-78018798D01*
X174551380Y-78016890D01*
X174516728Y-78004491D01*
X174511051Y-78002301D01*
X174301905Y-77915671D01*
X174296344Y-77913206D01*
X174263062Y-77897466D01*
X174257623Y-77894729D01*
X174218540Y-77873839D01*
X174218540Y-78451442D01*
X172592000Y-78451442D01*
X172592000Y-77742867D01*
X172611685Y-77675828D01*
X172630886Y-77654656D01*
X172630049Y-77653819D01*
X172687761Y-77596107D01*
X172759212Y-77524656D01*
X172851314Y-77375334D01*
X172906499Y-77208797D01*
X172917000Y-77106009D01*
X172916999Y-76229499D01*
X172936683Y-76162461D01*
X172989487Y-76116706D01*
X173040999Y-76105500D01*
X174108500Y-76105500D01*
X174175539Y-76125185D01*
X174221294Y-76177989D01*
X174232500Y-76229500D01*
X174232500Y-76293695D01*
X174267103Y-76467658D01*
X174267106Y-76467666D01*
X174334983Y-76631540D01*
X174334990Y-76631553D01*
X174433535Y-76779034D01*
X174433538Y-76779038D01*
X174558961Y-76904461D01*
X174558965Y-76904464D01*
X174706446Y-77003009D01*
X174706459Y-77003016D01*
X174790203Y-77037703D01*
X174870334Y-77070894D01*
X174870336Y-77070894D01*
X174870341Y-77070896D01*
X175044304Y-77105499D01*
X175044307Y-77105500D01*
X175044309Y-77105500D01*
X175221693Y-77105500D01*
X175221694Y-77105499D01*
X175279682Y-77093964D01*
X175395658Y-77070896D01*
X175395661Y-77070894D01*
X175395666Y-77070894D01*
X175559547Y-77003013D01*
X175707035Y-76904464D01*
X175744679Y-76866820D01*
X175806001Y-76833334D01*
X175832361Y-76830500D01*
X178637548Y-76830500D01*
X178704587Y-76850185D01*
X178725229Y-76866819D01*
X181664571Y-79806161D01*
X181698056Y-79867484D01*
X181694822Y-79932158D01*
X181689753Y-79947757D01*
X181672560Y-80056312D01*
X181656500Y-80157713D01*
X181656500Y-80370287D01*
X181659606Y-80389897D01*
X181685719Y-80554771D01*
X181689754Y-80580243D01*
X181751844Y-80771337D01*
X181755444Y-80782414D01*
X181851951Y-80971820D01*
X181976890Y-81143786D01*
X182127213Y-81294109D01*
X182299182Y-81419050D01*
X182307946Y-81423516D01*
X182358742Y-81471491D01*
X182375536Y-81539312D01*
X182352998Y-81605447D01*
X182307946Y-81644484D01*
X182299182Y-81648949D01*
X182127213Y-81773890D01*
X181976890Y-81924213D01*
X181851951Y-82096179D01*
X181755444Y-82285585D01*
X181689753Y-82487760D01*
X181659147Y-82681000D01*
X181656500Y-82697713D01*
X181656500Y-82910287D01*
X181663239Y-82952834D01*
X181688349Y-83111376D01*
X181689754Y-83120243D01*
X181724226Y-83226337D01*
X181755444Y-83322414D01*
X181851951Y-83511820D01*
X181976890Y-83683786D01*
X182127209Y-83834105D01*
X182127214Y-83834109D01*
X182148648Y-83849682D01*
X182191314Y-83905012D01*
X182197293Y-83974625D01*
X182164688Y-84036420D01*
X182103849Y-84070777D01*
X182075763Y-84074000D01*
X179845492Y-84074000D01*
X179845492Y-87467436D01*
X179826644Y-87533156D01*
X179465949Y-88110269D01*
X178845353Y-89103220D01*
X178793132Y-89149636D01*
X178740203Y-89161500D01*
X141742492Y-89161500D01*
X141675453Y-89141815D01*
X141629698Y-89089011D01*
X141618492Y-89037500D01*
X141618492Y-84074000D01*
X136732008Y-84074000D01*
X136664969Y-84054315D01*
X136619214Y-84001511D01*
X136609104Y-83966454D01*
X136471635Y-82939601D01*
X136470543Y-82922313D01*
X136479007Y-81686500D01*
X137603034Y-81686500D01*
X138220540Y-81686500D01*
X138220540Y-80184500D01*
X137613322Y-80184500D01*
X137603034Y-81686500D01*
X136479007Y-81686500D01*
X136496130Y-79186500D01*
X137620157Y-79186500D01*
X138220540Y-79186500D01*
X138220540Y-77684500D01*
X137630445Y-77684500D01*
X137620157Y-79186500D01*
X136496130Y-79186500D01*
X136513253Y-76686500D01*
X137637280Y-76686500D01*
X138220540Y-76686500D01*
X138220540Y-75184500D01*
X137647568Y-75184500D01*
X137637280Y-76686500D01*
X136513253Y-76686500D01*
X136530376Y-74186500D01*
X137654404Y-74186500D01*
X138220540Y-74186500D01*
X138220540Y-72684500D01*
X137664692Y-72684500D01*
X137654404Y-74186500D01*
X136530376Y-74186500D01*
X136547500Y-71686500D01*
X137671527Y-71686500D01*
X138220540Y-71686500D01*
X138220540Y-70184500D01*
X137681815Y-70184500D01*
X137671527Y-71686500D01*
X136547500Y-71686500D01*
X136564623Y-69186500D01*
X137688650Y-69186500D01*
X138220540Y-69186500D01*
X138220540Y-67684500D01*
X137698938Y-67684500D01*
X137688650Y-69186500D01*
X136564623Y-69186500D01*
X136594051Y-64890075D01*
X136614194Y-64823175D01*
X136667310Y-64777782D01*
X136714869Y-64766968D01*
X141550964Y-64643000D01*
X141585201Y-64112500D01*
X142711540Y-64112500D01*
X143140056Y-64112500D01*
X143140561Y-64109268D01*
X143149720Y-64059124D01*
X143151016Y-64052929D01*
X143159808Y-64015666D01*
X143161417Y-64009547D01*
X143198502Y-63881893D01*
X143160921Y-63752535D01*
X143159310Y-63746414D01*
X143150518Y-63709149D01*
X143149223Y-63702957D01*
X143140064Y-63652817D01*
X143139086Y-63646561D01*
X143134135Y-63608574D01*
X143133477Y-63602276D01*
X143127228Y-63522868D01*
X143126941Y-63518003D01*
X143125595Y-63483706D01*
X143125500Y-63478843D01*
X143125500Y-63013157D01*
X143125595Y-63008294D01*
X143126941Y-62973997D01*
X143127228Y-62969132D01*
X143133477Y-62889724D01*
X143134135Y-62883426D01*
X143139086Y-62845439D01*
X143140064Y-62839183D01*
X143149223Y-62789043D01*
X143150518Y-62782851D01*
X143159310Y-62745586D01*
X143160921Y-62739465D01*
X143176890Y-62684500D01*
X142803699Y-62684500D01*
X142711540Y-64112500D01*
X141585201Y-64112500D01*
X141739219Y-61725998D01*
X144126704Y-61725998D01*
X144126705Y-61726000D01*
X145174000Y-61726000D01*
X145674000Y-61726000D01*
X146721295Y-61726000D01*
X146721295Y-61725998D01*
X151326704Y-61725998D01*
X151326705Y-61726000D01*
X152374000Y-61726000D01*
X152874000Y-61726000D01*
X153921295Y-61726000D01*
X153921295Y-61725998D01*
X153921100Y-61723513D01*
X153875281Y-61565801D01*
X153873632Y-61563013D01*
X155211000Y-61563013D01*
X155211000Y-61838000D01*
X155961000Y-61838000D01*
X155961000Y-60863000D01*
X155960999Y-60862999D01*
X155911029Y-60863000D01*
X155911011Y-60863001D01*
X155808302Y-60873494D01*
X155641880Y-60928641D01*
X155641875Y-60928643D01*
X155492654Y-61020684D01*
X155368684Y-61144654D01*
X155276643Y-61293875D01*
X155276641Y-61293880D01*
X155221494Y-61460302D01*
X155221493Y-61460309D01*
X155211000Y-61563013D01*
X153873632Y-61563013D01*
X153791685Y-61424447D01*
X153791678Y-61424438D01*
X153675561Y-61308321D01*
X153675552Y-61308314D01*
X153534196Y-61224717D01*
X153534193Y-61224716D01*
X153376495Y-61178900D01*
X153376489Y-61178899D01*
X153339649Y-61176000D01*
X152874000Y-61176000D01*
X152874000Y-61726000D01*
X152374000Y-61726000D01*
X152374000Y-61176000D01*
X151908350Y-61176000D01*
X151871510Y-61178899D01*
X151871504Y-61178900D01*
X151713806Y-61224716D01*
X151713803Y-61224717D01*
X151572447Y-61308314D01*
X151572438Y-61308321D01*
X151456321Y-61424438D01*
X151456314Y-61424447D01*
X151372718Y-61565801D01*
X151326899Y-61723513D01*
X151326704Y-61725998D01*
X146721295Y-61725998D01*
X146721100Y-61723513D01*
X146675281Y-61565801D01*
X146591685Y-61424447D01*
X146591678Y-61424438D01*
X146564840Y-61397600D01*
X149218540Y-61397600D01*
X149220859Y-61398430D01*
X149226535Y-61400620D01*
X149444783Y-61491021D01*
X149450346Y-61493487D01*
X149483626Y-61509227D01*
X149489061Y-61511963D01*
X149532282Y-61535064D01*
X149537578Y-61538064D01*
X149569170Y-61556999D01*
X149574314Y-61560256D01*
X149592638Y-61572500D01*
X150340056Y-61572500D01*
X150340561Y-61569268D01*
X150349720Y-61519124D01*
X150351016Y-61512929D01*
X150359808Y-61475666D01*
X150361418Y-61469546D01*
X150423099Y-61257238D01*
X150425506Y-61249829D01*
X150441479Y-61205463D01*
X150444348Y-61198217D01*
X150469268Y-61140636D01*
X150472585Y-61133588D01*
X150493981Y-61091599D01*
X150497732Y-61084776D01*
X150586604Y-60934500D01*
X149218540Y-60934500D01*
X149218540Y-61397600D01*
X146564840Y-61397600D01*
X146475561Y-61308321D01*
X146475552Y-61308314D01*
X146334196Y-61224717D01*
X146334193Y-61224716D01*
X146176495Y-61178900D01*
X146176489Y-61178899D01*
X146139649Y-61176000D01*
X145674000Y-61176000D01*
X145674000Y-61726000D01*
X145174000Y-61726000D01*
X145174000Y-61176000D01*
X144708350Y-61176000D01*
X144671510Y-61178899D01*
X144671504Y-61178900D01*
X144513806Y-61224716D01*
X144513803Y-61224717D01*
X144372447Y-61308314D01*
X144372438Y-61308321D01*
X144256321Y-61424438D01*
X144256314Y-61424447D01*
X144172718Y-61565801D01*
X144126899Y-61723513D01*
X144126704Y-61725998D01*
X141739219Y-61725998D01*
X141753032Y-61511963D01*
X141847221Y-60052514D01*
X141871183Y-59986881D01*
X141926824Y-59944622D01*
X141970964Y-59936500D01*
X159944386Y-59936500D01*
X160011425Y-59956185D01*
G37*
%TD.AperFunction*%
%TA.AperFunction,Conductor*%
G36*
X152606539Y-80698184D02*
G01*
X152652294Y-80750988D01*
X152663500Y-80802499D01*
X152663500Y-81735297D01*
X152643815Y-81802336D01*
X152591011Y-81848091D01*
X152526905Y-81858656D01*
X152520486Y-81858000D01*
X152458000Y-81858000D01*
X152458000Y-82934000D01*
X152438315Y-83001039D01*
X152385511Y-83046794D01*
X152334000Y-83058000D01*
X152082000Y-83058000D01*
X152014961Y-83038315D01*
X151969206Y-82985511D01*
X151958000Y-82934000D01*
X151958000Y-81858000D01*
X151957999Y-81857999D01*
X151895528Y-81858000D01*
X151895511Y-81858001D01*
X151792802Y-81868494D01*
X151626380Y-81923641D01*
X151626375Y-81923643D01*
X151477154Y-82015684D01*
X151459179Y-82033659D01*
X151397855Y-82067143D01*
X151328164Y-82062157D01*
X151272231Y-82020284D01*
X151247816Y-81954819D01*
X151247500Y-81945976D01*
X151247500Y-80802499D01*
X151267185Y-80735460D01*
X151319989Y-80689705D01*
X151371500Y-80678499D01*
X152539500Y-80678499D01*
X152606539Y-80698184D01*
G37*
%TD.AperFunction*%
%TA.AperFunction,Conductor*%
G36*
X184122270Y-78485717D02*
G01*
X184122270Y-78485716D01*
X184161622Y-78431554D01*
X184258095Y-78242217D01*
X184298569Y-78117652D01*
X184338006Y-78059977D01*
X184402365Y-78032778D01*
X184471211Y-78044692D01*
X184522687Y-78091937D01*
X184540500Y-78155970D01*
X184540500Y-79830414D01*
X184520815Y-79897453D01*
X184468011Y-79943208D01*
X184398853Y-79953152D01*
X184335297Y-79924127D01*
X184298569Y-79868732D01*
X184298206Y-79867615D01*
X184258557Y-79745588D01*
X184162051Y-79556184D01*
X184162049Y-79556181D01*
X184162048Y-79556179D01*
X184037109Y-79384213D01*
X183886786Y-79233890D01*
X183714817Y-79108949D01*
X183705504Y-79104204D01*
X183654707Y-79056230D01*
X183637912Y-78988409D01*
X183660449Y-78922274D01*
X183705507Y-78883232D01*
X183714555Y-78878622D01*
X183768716Y-78839270D01*
X183768717Y-78839270D01*
X183136408Y-78206962D01*
X183199993Y-78189925D01*
X183314007Y-78124099D01*
X183407099Y-78031007D01*
X183472925Y-77916993D01*
X183489962Y-77853409D01*
X184122270Y-78485717D01*
G37*
%TD.AperFunction*%
%TA.AperFunction,Conductor*%
G36*
X184471211Y-71919531D02*
G01*
X184522687Y-71966775D01*
X184540500Y-72030808D01*
X184540500Y-74047053D01*
X184520815Y-74114092D01*
X184468011Y-74159847D01*
X184398853Y-74169791D01*
X184335297Y-74140766D01*
X184306183Y-74098833D01*
X184305047Y-74099454D01*
X184300793Y-74091664D01*
X184214547Y-73976455D01*
X184214544Y-73976452D01*
X184099335Y-73890206D01*
X184099328Y-73890202D01*
X183964482Y-73839908D01*
X183964483Y-73839908D01*
X183904883Y-73833501D01*
X183904881Y-73833500D01*
X183904873Y-73833500D01*
X183904864Y-73833500D01*
X182109129Y-73833500D01*
X182109123Y-73833501D01*
X182049516Y-73839908D01*
X181914671Y-73890202D01*
X181914664Y-73890206D01*
X181799455Y-73976452D01*
X181799452Y-73976455D01*
X181713206Y-74091664D01*
X181713202Y-74091671D01*
X181662908Y-74226517D01*
X181656501Y-74286116D01*
X181656500Y-74286135D01*
X181656500Y-76081870D01*
X181656501Y-76081876D01*
X181662908Y-76141483D01*
X181713202Y-76276328D01*
X181713206Y-76276335D01*
X181799452Y-76391544D01*
X181799455Y-76391547D01*
X181914664Y-76477793D01*
X181914671Y-76477797D01*
X181927278Y-76482499D01*
X182049517Y-76528091D01*
X182109127Y-76534500D01*
X182119685Y-76534499D01*
X182186723Y-76554179D01*
X182207372Y-76570818D01*
X182877591Y-77241037D01*
X182814007Y-77258075D01*
X182699993Y-77323901D01*
X182606901Y-77416993D01*
X182541075Y-77531007D01*
X182524037Y-77594591D01*
X181891728Y-76962282D01*
X181891727Y-76962282D01*
X181852380Y-77016439D01*
X181755904Y-77205782D01*
X181690242Y-77407869D01*
X181690242Y-77407872D01*
X181657000Y-77617753D01*
X181657000Y-77730048D01*
X181637315Y-77797087D01*
X181584511Y-77842842D01*
X181515353Y-77852786D01*
X181451797Y-77823761D01*
X181445319Y-77817729D01*
X179438198Y-75810608D01*
X179438178Y-75810586D01*
X179346735Y-75719143D01*
X179320834Y-75701837D01*
X179279995Y-75674549D01*
X179279996Y-75674549D01*
X179279994Y-75674547D01*
X179244290Y-75650690D01*
X179244283Y-75650686D01*
X179230288Y-75644890D01*
X179175884Y-75601051D01*
X179153817Y-75534757D01*
X179171095Y-75467057D01*
X179190053Y-75442651D01*
X181959726Y-72672979D01*
X182021047Y-72639496D01*
X182090739Y-72644480D01*
X182120290Y-72660344D01*
X182271675Y-72770330D01*
X182289184Y-72783051D01*
X182478588Y-72879557D01*
X182680757Y-72945246D01*
X182890713Y-72978500D01*
X182890714Y-72978500D01*
X183103286Y-72978500D01*
X183103287Y-72978500D01*
X183313243Y-72945246D01*
X183515412Y-72879557D01*
X183704816Y-72783051D01*
X183726789Y-72767086D01*
X183876786Y-72658109D01*
X183876788Y-72658106D01*
X183876792Y-72658104D01*
X184027104Y-72507792D01*
X184027106Y-72507788D01*
X184027109Y-72507786D01*
X184152048Y-72335820D01*
X184152047Y-72335820D01*
X184152051Y-72335816D01*
X184248557Y-72146412D01*
X184298570Y-71992488D01*
X184338006Y-71934814D01*
X184402365Y-71907616D01*
X184471211Y-71919531D01*
G37*
%TD.AperFunction*%
%TA.AperFunction,Conductor*%
G36*
X184475923Y-76212112D02*
G01*
X184525330Y-76261515D01*
X184540500Y-76320946D01*
X184540500Y-77292029D01*
X184520815Y-77359068D01*
X184468011Y-77404823D01*
X184398853Y-77414767D01*
X184335297Y-77385742D01*
X184298569Y-77330347D01*
X184258095Y-77205782D01*
X184161624Y-77016449D01*
X184122270Y-76962282D01*
X184122269Y-76962282D01*
X183489962Y-77594590D01*
X183472925Y-77531007D01*
X183407099Y-77416993D01*
X183314007Y-77323901D01*
X183199993Y-77258075D01*
X183136409Y-77241037D01*
X183806627Y-76570818D01*
X183867950Y-76537333D01*
X183894307Y-76534499D01*
X183904872Y-76534499D01*
X183964483Y-76528091D01*
X184099331Y-76477796D01*
X184214546Y-76391546D01*
X184300796Y-76276331D01*
X184300797Y-76276326D01*
X184305047Y-76268546D01*
X184306509Y-76269344D01*
X184342186Y-76221682D01*
X184407649Y-76197262D01*
X184475923Y-76212112D01*
G37*
%TD.AperFunction*%
%TA.AperFunction,Conductor*%
G36*
X179407531Y-59956185D02*
G01*
X179453286Y-60008989D01*
X179464492Y-60060500D01*
X179464492Y-64643000D01*
X181984220Y-64643000D01*
X182051259Y-64662685D01*
X182097014Y-64715489D01*
X182106958Y-64784647D01*
X182077933Y-64848203D01*
X182071901Y-64854681D01*
X181694557Y-65232024D01*
X181633234Y-65265509D01*
X181563542Y-65260525D01*
X181551340Y-65254953D01*
X181414482Y-65203908D01*
X181414483Y-65203908D01*
X181354883Y-65197501D01*
X181354881Y-65197500D01*
X181354873Y-65197500D01*
X181354864Y-65197500D01*
X179559129Y-65197500D01*
X179559123Y-65197501D01*
X179499516Y-65203908D01*
X179364671Y-65254202D01*
X179364664Y-65254206D01*
X179249455Y-65340452D01*
X179249452Y-65340455D01*
X179163206Y-65455664D01*
X179163202Y-65455671D01*
X179112908Y-65590517D01*
X179106501Y-65650116D01*
X179106500Y-65650135D01*
X179106500Y-66553548D01*
X179086815Y-66620587D01*
X179034011Y-66666342D01*
X178964853Y-66676286D01*
X178901297Y-66647261D01*
X178894819Y-66641229D01*
X178207319Y-65953729D01*
X178173834Y-65892406D01*
X178171000Y-65866048D01*
X178171000Y-62884897D01*
X178171000Y-62884894D01*
X178170769Y-62883734D01*
X178170773Y-62883686D01*
X178170760Y-62883689D01*
X178156835Y-62813677D01*
X178156835Y-62813676D01*
X178146964Y-62764053D01*
X178146963Y-62764052D01*
X178146963Y-62764048D01*
X178126025Y-62713500D01*
X178124896Y-62710775D01*
X178099814Y-62650219D01*
X178099812Y-62650214D01*
X178051505Y-62577919D01*
X178031358Y-62547767D01*
X178031356Y-62547764D01*
X177941137Y-62457545D01*
X177941106Y-62457516D01*
X177726319Y-62242729D01*
X177692834Y-62181406D01*
X177690000Y-62155048D01*
X177690000Y-61597157D01*
X177689999Y-61597144D01*
X177679587Y-61495225D01*
X177624862Y-61330075D01*
X177624858Y-61330069D01*
X177624857Y-61330066D01*
X177533528Y-61182000D01*
X177533525Y-61181996D01*
X177410503Y-61058974D01*
X177410499Y-61058971D01*
X177262433Y-60967642D01*
X177262427Y-60967639D01*
X177262425Y-60967638D01*
X177162421Y-60934500D01*
X177097276Y-60912913D01*
X176995355Y-60902500D01*
X176995348Y-60902500D01*
X176408652Y-60902500D01*
X176408644Y-60902500D01*
X176306723Y-60912913D01*
X176141577Y-60967637D01*
X176141566Y-60967642D01*
X175993500Y-61058971D01*
X175993496Y-61058974D01*
X175870474Y-61181996D01*
X175870471Y-61182000D01*
X175870038Y-61182703D01*
X175869614Y-61183083D01*
X175865993Y-61187664D01*
X175865210Y-61187045D01*
X175818090Y-61229428D01*
X175749128Y-61240649D01*
X175685046Y-61212806D01*
X175663157Y-61187544D01*
X175663007Y-61187664D01*
X175660359Y-61184315D01*
X175658962Y-61182703D01*
X175658528Y-61182000D01*
X175658525Y-61181996D01*
X175535503Y-61058974D01*
X175535499Y-61058971D01*
X175387433Y-60967642D01*
X175387427Y-60967639D01*
X175387425Y-60967638D01*
X175287421Y-60934500D01*
X175222276Y-60912913D01*
X175120355Y-60902500D01*
X175120348Y-60902500D01*
X174533652Y-60902500D01*
X174533644Y-60902500D01*
X174431723Y-60912913D01*
X174266577Y-60967637D01*
X174266566Y-60967642D01*
X174118500Y-61058971D01*
X174118496Y-61058974D01*
X173995474Y-61181996D01*
X173995471Y-61182000D01*
X173904142Y-61330066D01*
X173904137Y-61330077D01*
X173849413Y-61495223D01*
X173839000Y-61597144D01*
X173839000Y-62608855D01*
X173849413Y-62710776D01*
X173904137Y-62875922D01*
X173904142Y-62875933D01*
X173995471Y-63023999D01*
X173995474Y-63024003D01*
X174118497Y-63147026D01*
X174142596Y-63161891D01*
X174189321Y-63213837D01*
X174201500Y-63267429D01*
X174201500Y-65246995D01*
X174181815Y-65314034D01*
X174142598Y-65352533D01*
X174100844Y-65378287D01*
X173976789Y-65502342D01*
X173884687Y-65651663D01*
X173884686Y-65651666D01*
X173829501Y-65818203D01*
X173829501Y-65818204D01*
X173829500Y-65818204D01*
X173819000Y-65920983D01*
X173819000Y-66921001D01*
X173819001Y-66921019D01*
X173829500Y-67023796D01*
X173829501Y-67023799D01*
X173884685Y-67190331D01*
X173884686Y-67190334D01*
X173976788Y-67339656D01*
X174100844Y-67463712D01*
X174250166Y-67555814D01*
X174416703Y-67610999D01*
X174519491Y-67621500D01*
X175144508Y-67621499D01*
X175144516Y-67621498D01*
X175144519Y-67621498D01*
X175200802Y-67615748D01*
X175247297Y-67610999D01*
X175413834Y-67555814D01*
X175563156Y-67463712D01*
X175656819Y-67370049D01*
X175718142Y-67336564D01*
X175787834Y-67341548D01*
X175832181Y-67370049D01*
X175925844Y-67463712D01*
X176075166Y-67555814D01*
X176241703Y-67610999D01*
X176344491Y-67621500D01*
X176969508Y-67621499D01*
X176969516Y-67621498D01*
X176969519Y-67621498D01*
X177025802Y-67615748D01*
X177072297Y-67610999D01*
X177238834Y-67555814D01*
X177388156Y-67463712D01*
X177512212Y-67339656D01*
X177548854Y-67280248D01*
X177600801Y-67233524D01*
X177669764Y-67222301D01*
X177733846Y-67250144D01*
X177742074Y-67257664D01*
X179114571Y-68630161D01*
X179148056Y-68691484D01*
X179144822Y-68756158D01*
X179139753Y-68771757D01*
X179106500Y-68981713D01*
X179106500Y-69194286D01*
X179112149Y-69229953D01*
X179103194Y-69299247D01*
X179058198Y-69352699D01*
X178991446Y-69373338D01*
X178965487Y-69370969D01*
X178907670Y-69359469D01*
X178907669Y-69359468D01*
X178907668Y-69359468D01*
X178867611Y-69351500D01*
X178867607Y-69351500D01*
X178867606Y-69351500D01*
X177741517Y-69351500D01*
X177674478Y-69331815D01*
X177628723Y-69279011D01*
X177623811Y-69266505D01*
X177621381Y-69259172D01*
X177604314Y-69207666D01*
X177512212Y-69058344D01*
X177388156Y-68934288D01*
X177255587Y-68852519D01*
X177238836Y-68842187D01*
X177238831Y-68842185D01*
X177237362Y-68841698D01*
X177072297Y-68787001D01*
X177072295Y-68787000D01*
X176969510Y-68776500D01*
X176344498Y-68776500D01*
X176344480Y-68776501D01*
X176241703Y-68787000D01*
X176241700Y-68787001D01*
X176075168Y-68842185D01*
X176075163Y-68842187D01*
X175925845Y-68934287D01*
X175831827Y-69028305D01*
X175770503Y-69061789D01*
X175700812Y-69056805D01*
X175656465Y-69028304D01*
X175562845Y-68934684D01*
X175413624Y-68842643D01*
X175413619Y-68842641D01*
X175247197Y-68787494D01*
X175247190Y-68787493D01*
X175144486Y-68777000D01*
X175082000Y-68777000D01*
X175082000Y-71176999D01*
X175144472Y-71176999D01*
X175144486Y-71176998D01*
X175247197Y-71166505D01*
X175413619Y-71111358D01*
X175413624Y-71111356D01*
X175562842Y-71019317D01*
X175656464Y-70925695D01*
X175717787Y-70892210D01*
X175787479Y-70897194D01*
X175831827Y-70925695D01*
X175925844Y-71019712D01*
X175972596Y-71048548D01*
X176019320Y-71100494D01*
X176031500Y-71154087D01*
X176031500Y-71850689D01*
X176011815Y-71917728D01*
X175995181Y-71938370D01*
X174240370Y-73693181D01*
X174179047Y-73726666D01*
X174152689Y-73729500D01*
X173015500Y-73729500D01*
X172948461Y-73709815D01*
X172902706Y-73657011D01*
X172891500Y-73605500D01*
X172891500Y-73529000D01*
X172003000Y-73529000D01*
X171935961Y-73509315D01*
X171890206Y-73456511D01*
X171879000Y-73405000D01*
X171879000Y-73279000D01*
X171753000Y-73279000D01*
X171685961Y-73259315D01*
X171640206Y-73206511D01*
X171629000Y-73155000D01*
X171629000Y-73029000D01*
X172129000Y-73029000D01*
X172891499Y-73029000D01*
X172891499Y-72779028D01*
X172891498Y-72779013D01*
X172881005Y-72676302D01*
X172825858Y-72509880D01*
X172825856Y-72509875D01*
X172733815Y-72360654D01*
X172609845Y-72236684D01*
X172460624Y-72144643D01*
X172460619Y-72144641D01*
X172294197Y-72089494D01*
X172294190Y-72089493D01*
X172191486Y-72079000D01*
X172129000Y-72079000D01*
X172129000Y-73029000D01*
X171629000Y-73029000D01*
X171629000Y-72079000D01*
X171628999Y-72078999D01*
X171566528Y-72079000D01*
X171566511Y-72079001D01*
X171490998Y-72086716D01*
X171422305Y-72073946D01*
X171371421Y-72026066D01*
X171354500Y-71958276D01*
X171363835Y-71915906D01*
X171396748Y-71836446D01*
X171426894Y-71763666D01*
X171442244Y-71686500D01*
X171449964Y-71647682D01*
X171461500Y-71589691D01*
X171461500Y-71412309D01*
X171461500Y-71412306D01*
X171461499Y-71412304D01*
X171426896Y-71238341D01*
X171426894Y-71238336D01*
X171426894Y-71238334D01*
X171418763Y-71218705D01*
X171411294Y-71149240D01*
X171442567Y-71086760D01*
X171502655Y-71051106D01*
X171545927Y-71047896D01*
X171566519Y-71049999D01*
X172129000Y-71049999D01*
X172191472Y-71049999D01*
X172191486Y-71049998D01*
X172294197Y-71039505D01*
X172460619Y-70984358D01*
X172460624Y-70984356D01*
X172609845Y-70892315D01*
X172733815Y-70768345D01*
X172825856Y-70619124D01*
X172825858Y-70619119D01*
X172872956Y-70476986D01*
X173819501Y-70476986D01*
X173829994Y-70579697D01*
X173885141Y-70746119D01*
X173885143Y-70746124D01*
X173977184Y-70895345D01*
X174101154Y-71019315D01*
X174250375Y-71111356D01*
X174250380Y-71111358D01*
X174416802Y-71166505D01*
X174416809Y-71166506D01*
X174519519Y-71176999D01*
X174581999Y-71176998D01*
X174582000Y-71176998D01*
X174582000Y-70227000D01*
X173819501Y-70227000D01*
X173819501Y-70476986D01*
X172872956Y-70476986D01*
X172881005Y-70452697D01*
X172881006Y-70452690D01*
X172891499Y-70349986D01*
X172891500Y-70349973D01*
X172891500Y-70100000D01*
X172129000Y-70100000D01*
X172129000Y-71049999D01*
X171566519Y-71049999D01*
X171628999Y-71049998D01*
X171629000Y-71049998D01*
X171629000Y-69600000D01*
X172129000Y-69600000D01*
X172891499Y-69600000D01*
X172891499Y-69477013D01*
X173819500Y-69477013D01*
X173819500Y-69727000D01*
X174582000Y-69727000D01*
X174582000Y-68777000D01*
X174581999Y-68776999D01*
X174519528Y-68777000D01*
X174519511Y-68777001D01*
X174416802Y-68787494D01*
X174250380Y-68842641D01*
X174250375Y-68842643D01*
X174101154Y-68934684D01*
X173977184Y-69058654D01*
X173885143Y-69207875D01*
X173885141Y-69207880D01*
X173829994Y-69374302D01*
X173829993Y-69374309D01*
X173819500Y-69477013D01*
X172891499Y-69477013D01*
X172891499Y-69350028D01*
X172891498Y-69350013D01*
X172881005Y-69247302D01*
X172825858Y-69080880D01*
X172825856Y-69080875D01*
X172733815Y-68931654D01*
X172609845Y-68807684D01*
X172460624Y-68715643D01*
X172460619Y-68715641D01*
X172294197Y-68660494D01*
X172294190Y-68660493D01*
X172191486Y-68650000D01*
X172129000Y-68650000D01*
X172129000Y-69600000D01*
X171629000Y-69600000D01*
X171629000Y-68650000D01*
X171628999Y-68649999D01*
X171566528Y-68650000D01*
X171566511Y-68650001D01*
X171463802Y-68660494D01*
X171297380Y-68715641D01*
X171297375Y-68715643D01*
X171148157Y-68807682D01*
X171054534Y-68901305D01*
X170993210Y-68934789D01*
X170923519Y-68929805D01*
X170879172Y-68901304D01*
X170785157Y-68807289D01*
X170785156Y-68807288D01*
X170673485Y-68738409D01*
X170635836Y-68715187D01*
X170635831Y-68715185D01*
X170596714Y-68702223D01*
X170469297Y-68660001D01*
X170469295Y-68660000D01*
X170366516Y-68649500D01*
X169789452Y-68649500D01*
X169722413Y-68629815D01*
X169701771Y-68613181D01*
X165847928Y-64759338D01*
X165847925Y-64759334D01*
X165847925Y-64759335D01*
X165840859Y-64752269D01*
X165840858Y-64752267D01*
X165753733Y-64665142D01*
X165753729Y-64665139D01*
X165753728Y-64665138D01*
X165694057Y-64625267D01*
X165694055Y-64625266D01*
X165651286Y-64596688D01*
X165651287Y-64596688D01*
X165651285Y-64596687D01*
X165609788Y-64579499D01*
X165568291Y-64562311D01*
X165568289Y-64562309D01*
X165537455Y-64549538D01*
X165537453Y-64549537D01*
X165537452Y-64549537D01*
X165477029Y-64537518D01*
X165416610Y-64525500D01*
X165416607Y-64525500D01*
X165416606Y-64525500D01*
X163505452Y-64525500D01*
X163438413Y-64505815D01*
X163417771Y-64489181D01*
X163282226Y-64353636D01*
X163248741Y-64292313D01*
X163253725Y-64222621D01*
X163282226Y-64178274D01*
X163386461Y-64074038D01*
X163386464Y-64074035D01*
X163485013Y-63926547D01*
X163485784Y-63924687D01*
X163527807Y-63823231D01*
X163552894Y-63762666D01*
X163554910Y-63752535D01*
X163587043Y-63590987D01*
X163587500Y-63588691D01*
X163587500Y-63411309D01*
X163587500Y-63411306D01*
X163587499Y-63411304D01*
X163552896Y-63237341D01*
X163552894Y-63237336D01*
X163552894Y-63237334D01*
X163535727Y-63195890D01*
X163528259Y-63126423D01*
X163559534Y-63063944D01*
X163562564Y-63060803D01*
X163591712Y-63031656D01*
X163683814Y-62882334D01*
X163738999Y-62715797D01*
X163749500Y-62613009D01*
X163749499Y-61854450D01*
X163769183Y-61787412D01*
X163821987Y-61741657D01*
X163891146Y-61731713D01*
X163954702Y-61760738D01*
X163961180Y-61766770D01*
X164130181Y-61935771D01*
X164163666Y-61997094D01*
X164166500Y-62023452D01*
X164166500Y-62613001D01*
X164166501Y-62613019D01*
X164177000Y-62715796D01*
X164177001Y-62715799D01*
X164232185Y-62882331D01*
X164232187Y-62882336D01*
X164233767Y-62884897D01*
X164324288Y-63031656D01*
X164448344Y-63155712D01*
X164597666Y-63247814D01*
X164764203Y-63302999D01*
X164866991Y-63313500D01*
X165467008Y-63313499D01*
X165467016Y-63313498D01*
X165467019Y-63313498D01*
X165564892Y-63303500D01*
X165569797Y-63302999D01*
X165736334Y-63247814D01*
X165885656Y-63155712D01*
X166009712Y-63031656D01*
X166011461Y-63028819D01*
X166013169Y-63027283D01*
X166014193Y-63025989D01*
X166014414Y-63026163D01*
X166063406Y-62982096D01*
X166132368Y-62970872D01*
X166196451Y-62998713D01*
X166222537Y-63028817D01*
X166224288Y-63031656D01*
X166348344Y-63155712D01*
X166497666Y-63247814D01*
X166664203Y-63302999D01*
X166766991Y-63313500D01*
X167200500Y-63313499D01*
X167267539Y-63333183D01*
X167313294Y-63385987D01*
X167324500Y-63437499D01*
X167324500Y-63466620D01*
X167361025Y-63650243D01*
X167361027Y-63650251D01*
X167432676Y-63823228D01*
X167432681Y-63823237D01*
X167536697Y-63978907D01*
X167536700Y-63978911D01*
X167669088Y-64111299D01*
X167669092Y-64111302D01*
X167824762Y-64215318D01*
X167824768Y-64215321D01*
X167824769Y-64215322D01*
X167997749Y-64286973D01*
X168181379Y-64323499D01*
X168181383Y-64323500D01*
X168181384Y-64323500D01*
X168368617Y-64323500D01*
X168368618Y-64323499D01*
X168552251Y-64286973D01*
X168725231Y-64215322D01*
X168880908Y-64111302D01*
X169013302Y-63978908D01*
X169117322Y-63823231D01*
X169188973Y-63650251D01*
X169188973Y-63650249D01*
X169189939Y-63647918D01*
X169233780Y-63593515D01*
X169300074Y-63571450D01*
X169367773Y-63588729D01*
X169415384Y-63639866D01*
X169428500Y-63695371D01*
X169428500Y-65243911D01*
X169408815Y-65310950D01*
X169369598Y-65349449D01*
X169322844Y-65378287D01*
X169198789Y-65502342D01*
X169106687Y-65651663D01*
X169106686Y-65651666D01*
X169051501Y-65818203D01*
X169051501Y-65818204D01*
X169051500Y-65818204D01*
X169041000Y-65920983D01*
X169041000Y-66921001D01*
X169041001Y-66921019D01*
X169051500Y-67023796D01*
X169051501Y-67023799D01*
X169106685Y-67190331D01*
X169106686Y-67190334D01*
X169198788Y-67339656D01*
X169322844Y-67463712D01*
X169472166Y-67555814D01*
X169638703Y-67610999D01*
X169741491Y-67621500D01*
X170366508Y-67621499D01*
X170366516Y-67621498D01*
X170366519Y-67621498D01*
X170422802Y-67615748D01*
X170469297Y-67610999D01*
X170635834Y-67555814D01*
X170785156Y-67463712D01*
X170878819Y-67370049D01*
X170940142Y-67336564D01*
X171009834Y-67341548D01*
X171054181Y-67370049D01*
X171147844Y-67463712D01*
X171297166Y-67555814D01*
X171463703Y-67610999D01*
X171566491Y-67621500D01*
X172191508Y-67621499D01*
X172191516Y-67621498D01*
X172191519Y-67621498D01*
X172247802Y-67615748D01*
X172294297Y-67610999D01*
X172460834Y-67555814D01*
X172610156Y-67463712D01*
X172734212Y-67339656D01*
X172826314Y-67190334D01*
X172881499Y-67023797D01*
X172892000Y-66921009D01*
X172891999Y-65920992D01*
X172887772Y-65879616D01*
X172881499Y-65818203D01*
X172881498Y-65818200D01*
X172859707Y-65752439D01*
X172826314Y-65651666D01*
X172734212Y-65502344D01*
X172610156Y-65378288D01*
X172604489Y-65373807D01*
X172605930Y-65371984D01*
X172566675Y-65328335D01*
X172554500Y-65274752D01*
X172554500Y-65117361D01*
X172574185Y-65050322D01*
X172590814Y-65029684D01*
X172657464Y-64963035D01*
X172756013Y-64815547D01*
X172823894Y-64651666D01*
X172828738Y-64627308D01*
X172861123Y-64565398D01*
X172921839Y-64530824D01*
X172950356Y-64527500D01*
X173062693Y-64527500D01*
X173062694Y-64527499D01*
X173120682Y-64515964D01*
X173236658Y-64492896D01*
X173236661Y-64492894D01*
X173236666Y-64492894D01*
X173400547Y-64425013D01*
X173548035Y-64326464D01*
X173673464Y-64201035D01*
X173772013Y-64053547D01*
X173839894Y-63889666D01*
X173841441Y-63881893D01*
X173874499Y-63715695D01*
X173874500Y-63715693D01*
X173874500Y-63538306D01*
X173874499Y-63538304D01*
X173839896Y-63364341D01*
X173839893Y-63364332D01*
X173772016Y-63200459D01*
X173772009Y-63200446D01*
X173673464Y-63052965D01*
X173673461Y-63052961D01*
X173548038Y-62927538D01*
X173548034Y-62927535D01*
X173400553Y-62828990D01*
X173400540Y-62828983D01*
X173236667Y-62761106D01*
X173236658Y-62761103D01*
X173062694Y-62726500D01*
X173062691Y-62726500D01*
X173036000Y-62726500D01*
X172968961Y-62706815D01*
X172923206Y-62654011D01*
X172912000Y-62602500D01*
X172912000Y-61597157D01*
X172911999Y-61597144D01*
X172901587Y-61495225D01*
X172846862Y-61330075D01*
X172846858Y-61330069D01*
X172846857Y-61330066D01*
X172755528Y-61182000D01*
X172755525Y-61181996D01*
X172632503Y-61058974D01*
X172632499Y-61058971D01*
X172484433Y-60967642D01*
X172484427Y-60967639D01*
X172484425Y-60967638D01*
X172384421Y-60934500D01*
X172319276Y-60912913D01*
X172217355Y-60902500D01*
X172217348Y-60902500D01*
X171630652Y-60902500D01*
X171630644Y-60902500D01*
X171528723Y-60912913D01*
X171363577Y-60967637D01*
X171363566Y-60967642D01*
X171215500Y-61058971D01*
X171215496Y-61058974D01*
X171092474Y-61181996D01*
X171092471Y-61182000D01*
X171092038Y-61182703D01*
X171091614Y-61183083D01*
X171087993Y-61187664D01*
X171087210Y-61187045D01*
X171040090Y-61229428D01*
X170971128Y-61240649D01*
X170907046Y-61212806D01*
X170885157Y-61187544D01*
X170885007Y-61187664D01*
X170882359Y-61184315D01*
X170880962Y-61182703D01*
X170880528Y-61182000D01*
X170880525Y-61181996D01*
X170757503Y-61058974D01*
X170757499Y-61058971D01*
X170609433Y-60967642D01*
X170609427Y-60967639D01*
X170609425Y-60967638D01*
X170509421Y-60934500D01*
X170444276Y-60912913D01*
X170342355Y-60902500D01*
X170342348Y-60902500D01*
X169755652Y-60902500D01*
X169755644Y-60902500D01*
X169653723Y-60912913D01*
X169488577Y-60967637D01*
X169488566Y-60967642D01*
X169340500Y-61058971D01*
X169340496Y-61058974D01*
X169217474Y-61181996D01*
X169217471Y-61182000D01*
X169126142Y-61330066D01*
X169126137Y-61330077D01*
X169071413Y-61495223D01*
X169061000Y-61597144D01*
X169061000Y-62523043D01*
X169041315Y-62590082D01*
X168988511Y-62635837D01*
X168919353Y-62645781D01*
X168868109Y-62626145D01*
X168725237Y-62530681D01*
X168725228Y-62530676D01*
X168552251Y-62459027D01*
X168552245Y-62459025D01*
X168390757Y-62426903D01*
X168328846Y-62394518D01*
X168327268Y-62392967D01*
X168103818Y-62169517D01*
X168070333Y-62108194D01*
X168067499Y-62081836D01*
X168067499Y-61562998D01*
X168067498Y-61562981D01*
X168056999Y-61460203D01*
X168056998Y-61460200D01*
X168001814Y-61293666D01*
X167909712Y-61144344D01*
X167785656Y-61020288D01*
X167636334Y-60928186D01*
X167469797Y-60873001D01*
X167469795Y-60873000D01*
X167367016Y-60862500D01*
X167367009Y-60862500D01*
X166848163Y-60862500D01*
X166781124Y-60842815D01*
X166760482Y-60826181D01*
X166082483Y-60148181D01*
X166048998Y-60086858D01*
X166053982Y-60017166D01*
X166095854Y-59961233D01*
X166161318Y-59936816D01*
X166170164Y-59936500D01*
X179340492Y-59936500D01*
X179407531Y-59956185D01*
G37*
%TD.AperFunction*%
%TA.AperFunction,Conductor*%
G36*
X184471211Y-69379531D02*
G01*
X184522687Y-69426775D01*
X184540500Y-69490808D01*
X184540500Y-71225191D01*
X184520815Y-71292230D01*
X184468011Y-71337985D01*
X184398853Y-71347929D01*
X184335297Y-71318904D01*
X184298569Y-71263509D01*
X184248557Y-71109588D01*
X184152051Y-70920184D01*
X184152049Y-70920181D01*
X184152048Y-70920179D01*
X184027109Y-70748213D01*
X183876786Y-70597890D01*
X183704820Y-70472951D01*
X183704115Y-70472591D01*
X183696054Y-70468485D01*
X183645259Y-70420512D01*
X183628463Y-70352692D01*
X183650999Y-70286556D01*
X183696054Y-70247515D01*
X183704816Y-70243051D01*
X183799103Y-70174548D01*
X183876786Y-70118109D01*
X183876788Y-70118106D01*
X183876792Y-70118104D01*
X184027104Y-69967792D01*
X184027106Y-69967788D01*
X184027109Y-69967786D01*
X184152048Y-69795820D01*
X184152047Y-69795820D01*
X184152051Y-69795816D01*
X184248557Y-69606412D01*
X184298570Y-69452488D01*
X184338006Y-69394814D01*
X184402365Y-69367616D01*
X184471211Y-69379531D01*
G37*
%TD.AperFunction*%
%TA.AperFunction,Conductor*%
G36*
X184112270Y-67309717D02*
G01*
X184112270Y-67309716D01*
X184151622Y-67255554D01*
X184248095Y-67066217D01*
X184298569Y-66910875D01*
X184338006Y-66853200D01*
X184402365Y-66826001D01*
X184471211Y-66837915D01*
X184522687Y-66885160D01*
X184540500Y-66949193D01*
X184540500Y-68685191D01*
X184520815Y-68752230D01*
X184468011Y-68797985D01*
X184398853Y-68807929D01*
X184335297Y-68778904D01*
X184298569Y-68723509D01*
X184296013Y-68715643D01*
X184248557Y-68569588D01*
X184152051Y-68380184D01*
X184152049Y-68380181D01*
X184152048Y-68380179D01*
X184027109Y-68208213D01*
X183876786Y-68057890D01*
X183704817Y-67932949D01*
X183695504Y-67928204D01*
X183644707Y-67880230D01*
X183627912Y-67812409D01*
X183650449Y-67746274D01*
X183695507Y-67707232D01*
X183704555Y-67702622D01*
X183758716Y-67663270D01*
X183758717Y-67663270D01*
X183126409Y-67030962D01*
X183189993Y-67013925D01*
X183304007Y-66948099D01*
X183397099Y-66855007D01*
X183462925Y-66740993D01*
X183479962Y-66677409D01*
X184112270Y-67309717D01*
G37*
%TD.AperFunction*%
%TD*%
M02*
