%TF.GenerationSoftware,KiCad,Pcbnew,9.0.5*%
%TF.CreationDate,2025-10-30T12:00:21+09:00*%
%TF.ProjectId,MCU_Datalogger,4d43555f-4461-4746-916c-6f676765722e,1*%
%TF.SameCoordinates,Original*%
%TF.FileFunction,Legend,Bot*%
%TF.FilePolarity,Positive*%
%FSLAX46Y46*%
G04 Gerber Fmt 4.6, Leading zero omitted, Abs format (unit mm)*
G04 Created by KiCad (PCBNEW 9.0.5) date 2025-10-30 12:00:21*
%MOMM*%
%LPD*%
G01*
G04 APERTURE LIST*
%ADD10C,0.100000*%
%ADD11C,0.010000*%
G04 APERTURE END LIST*
D10*
X149352000Y-66675000D02*
X167386000Y-66675000D01*
X167386000Y-76835000D01*
X149352000Y-76835000D01*
X149352000Y-66675000D01*
X166256687Y-75977180D02*
X166304306Y-76024800D01*
X166304306Y-76024800D02*
X166447163Y-76072419D01*
X166447163Y-76072419D02*
X166542401Y-76072419D01*
X166542401Y-76072419D02*
X166685258Y-76024800D01*
X166685258Y-76024800D02*
X166780496Y-75929561D01*
X166780496Y-75929561D02*
X166828115Y-75834323D01*
X166828115Y-75834323D02*
X166875734Y-75643847D01*
X166875734Y-75643847D02*
X166875734Y-75500990D01*
X166875734Y-75500990D02*
X166828115Y-75310514D01*
X166828115Y-75310514D02*
X166780496Y-75215276D01*
X166780496Y-75215276D02*
X166685258Y-75120038D01*
X166685258Y-75120038D02*
X166542401Y-75072419D01*
X166542401Y-75072419D02*
X166447163Y-75072419D01*
X166447163Y-75072419D02*
X166304306Y-75120038D01*
X166304306Y-75120038D02*
X166256687Y-75167657D01*
X165923353Y-75072419D02*
X165685258Y-76072419D01*
X165685258Y-76072419D02*
X165494782Y-75358133D01*
X165494782Y-75358133D02*
X165304306Y-76072419D01*
X165304306Y-76072419D02*
X165066211Y-75072419D01*
X164209068Y-76072419D02*
X164685258Y-76072419D01*
X164685258Y-76072419D02*
X164685258Y-75072419D01*
X164113830Y-76167657D02*
X163351925Y-76167657D01*
X162542401Y-75977180D02*
X162590020Y-76024800D01*
X162590020Y-76024800D02*
X162732877Y-76072419D01*
X162732877Y-76072419D02*
X162828115Y-76072419D01*
X162828115Y-76072419D02*
X162970972Y-76024800D01*
X162970972Y-76024800D02*
X163066210Y-75929561D01*
X163066210Y-75929561D02*
X163113829Y-75834323D01*
X163113829Y-75834323D02*
X163161448Y-75643847D01*
X163161448Y-75643847D02*
X163161448Y-75500990D01*
X163161448Y-75500990D02*
X163113829Y-75310514D01*
X163113829Y-75310514D02*
X163066210Y-75215276D01*
X163066210Y-75215276D02*
X162970972Y-75120038D01*
X162970972Y-75120038D02*
X162828115Y-75072419D01*
X162828115Y-75072419D02*
X162732877Y-75072419D01*
X162732877Y-75072419D02*
X162590020Y-75120038D01*
X162590020Y-75120038D02*
X162542401Y-75167657D01*
X161970972Y-76072419D02*
X162066210Y-76024800D01*
X162066210Y-76024800D02*
X162113829Y-75977180D01*
X162113829Y-75977180D02*
X162161448Y-75881942D01*
X162161448Y-75881942D02*
X162161448Y-75596228D01*
X162161448Y-75596228D02*
X162113829Y-75500990D01*
X162113829Y-75500990D02*
X162066210Y-75453371D01*
X162066210Y-75453371D02*
X161970972Y-75405752D01*
X161970972Y-75405752D02*
X161828115Y-75405752D01*
X161828115Y-75405752D02*
X161732877Y-75453371D01*
X161732877Y-75453371D02*
X161685258Y-75500990D01*
X161685258Y-75500990D02*
X161637639Y-75596228D01*
X161637639Y-75596228D02*
X161637639Y-75881942D01*
X161637639Y-75881942D02*
X161685258Y-75977180D01*
X161685258Y-75977180D02*
X161732877Y-76024800D01*
X161732877Y-76024800D02*
X161828115Y-76072419D01*
X161828115Y-76072419D02*
X161970972Y-76072419D01*
X161209067Y-76072419D02*
X161209067Y-75405752D01*
X161209067Y-75500990D02*
X161161448Y-75453371D01*
X161161448Y-75453371D02*
X161066210Y-75405752D01*
X161066210Y-75405752D02*
X160923353Y-75405752D01*
X160923353Y-75405752D02*
X160828115Y-75453371D01*
X160828115Y-75453371D02*
X160780496Y-75548609D01*
X160780496Y-75548609D02*
X160780496Y-76072419D01*
X160780496Y-75548609D02*
X160732877Y-75453371D01*
X160732877Y-75453371D02*
X160637639Y-75405752D01*
X160637639Y-75405752D02*
X160494782Y-75405752D01*
X160494782Y-75405752D02*
X160399543Y-75453371D01*
X160399543Y-75453371D02*
X160351924Y-75548609D01*
X160351924Y-75548609D02*
X160351924Y-76072419D01*
X159875734Y-75405752D02*
X159875734Y-76405752D01*
X159875734Y-75453371D02*
X159780496Y-75405752D01*
X159780496Y-75405752D02*
X159590020Y-75405752D01*
X159590020Y-75405752D02*
X159494782Y-75453371D01*
X159494782Y-75453371D02*
X159447163Y-75500990D01*
X159447163Y-75500990D02*
X159399544Y-75596228D01*
X159399544Y-75596228D02*
X159399544Y-75881942D01*
X159399544Y-75881942D02*
X159447163Y-75977180D01*
X159447163Y-75977180D02*
X159494782Y-76024800D01*
X159494782Y-76024800D02*
X159590020Y-76072419D01*
X159590020Y-76072419D02*
X159780496Y-76072419D01*
X159780496Y-76072419D02*
X159875734Y-76024800D01*
X158542401Y-76072419D02*
X158542401Y-75548609D01*
X158542401Y-75548609D02*
X158590020Y-75453371D01*
X158590020Y-75453371D02*
X158685258Y-75405752D01*
X158685258Y-75405752D02*
X158875734Y-75405752D01*
X158875734Y-75405752D02*
X158970972Y-75453371D01*
X158542401Y-76024800D02*
X158637639Y-76072419D01*
X158637639Y-76072419D02*
X158875734Y-76072419D01*
X158875734Y-76072419D02*
X158970972Y-76024800D01*
X158970972Y-76024800D02*
X159018591Y-75929561D01*
X159018591Y-75929561D02*
X159018591Y-75834323D01*
X159018591Y-75834323D02*
X158970972Y-75739085D01*
X158970972Y-75739085D02*
X158875734Y-75691466D01*
X158875734Y-75691466D02*
X158637639Y-75691466D01*
X158637639Y-75691466D02*
X158542401Y-75643847D01*
X158066210Y-75405752D02*
X158066210Y-76072419D01*
X158066210Y-75500990D02*
X158018591Y-75453371D01*
X158018591Y-75453371D02*
X157923353Y-75405752D01*
X157923353Y-75405752D02*
X157780496Y-75405752D01*
X157780496Y-75405752D02*
X157685258Y-75453371D01*
X157685258Y-75453371D02*
X157637639Y-75548609D01*
X157637639Y-75548609D02*
X157637639Y-76072419D01*
X157256686Y-75405752D02*
X157018591Y-76072419D01*
X156780496Y-75405752D02*
X157018591Y-76072419D01*
X157018591Y-76072419D02*
X157113829Y-76310514D01*
X157113829Y-76310514D02*
X157161448Y-76358133D01*
X157161448Y-76358133D02*
X157256686Y-76405752D01*
X166875734Y-67330881D02*
X166828115Y-67283262D01*
X166828115Y-67283262D02*
X166732877Y-67235643D01*
X166732877Y-67235643D02*
X166494782Y-67235643D01*
X166494782Y-67235643D02*
X166399544Y-67283262D01*
X166399544Y-67283262D02*
X166351925Y-67330881D01*
X166351925Y-67330881D02*
X166304306Y-67426119D01*
X166304306Y-67426119D02*
X166304306Y-67521357D01*
X166304306Y-67521357D02*
X166351925Y-67664214D01*
X166351925Y-67664214D02*
X166923353Y-68235643D01*
X166923353Y-68235643D02*
X166304306Y-68235643D01*
X165732877Y-68235643D02*
X165828115Y-68188024D01*
X165828115Y-68188024D02*
X165875734Y-68092785D01*
X165875734Y-68092785D02*
X165875734Y-67235643D01*
X164923353Y-68235643D02*
X164923353Y-67711833D01*
X164923353Y-67711833D02*
X164970972Y-67616595D01*
X164970972Y-67616595D02*
X165066210Y-67568976D01*
X165066210Y-67568976D02*
X165256686Y-67568976D01*
X165256686Y-67568976D02*
X165351924Y-67616595D01*
X164923353Y-68188024D02*
X165018591Y-68235643D01*
X165018591Y-68235643D02*
X165256686Y-68235643D01*
X165256686Y-68235643D02*
X165351924Y-68188024D01*
X165351924Y-68188024D02*
X165399543Y-68092785D01*
X165399543Y-68092785D02*
X165399543Y-67997547D01*
X165399543Y-67997547D02*
X165351924Y-67902309D01*
X165351924Y-67902309D02*
X165256686Y-67854690D01*
X165256686Y-67854690D02*
X165018591Y-67854690D01*
X165018591Y-67854690D02*
X164923353Y-67807071D01*
X164542400Y-67568976D02*
X164304305Y-68235643D01*
X164066210Y-67568976D02*
X164304305Y-68235643D01*
X164304305Y-68235643D02*
X164399543Y-68473738D01*
X164399543Y-68473738D02*
X164447162Y-68521357D01*
X164447162Y-68521357D02*
X164542400Y-68568976D01*
X163304305Y-68188024D02*
X163399543Y-68235643D01*
X163399543Y-68235643D02*
X163590019Y-68235643D01*
X163590019Y-68235643D02*
X163685257Y-68188024D01*
X163685257Y-68188024D02*
X163732876Y-68092785D01*
X163732876Y-68092785D02*
X163732876Y-67711833D01*
X163732876Y-67711833D02*
X163685257Y-67616595D01*
X163685257Y-67616595D02*
X163590019Y-67568976D01*
X163590019Y-67568976D02*
X163399543Y-67568976D01*
X163399543Y-67568976D02*
X163304305Y-67616595D01*
X163304305Y-67616595D02*
X163256686Y-67711833D01*
X163256686Y-67711833D02*
X163256686Y-67807071D01*
X163256686Y-67807071D02*
X163732876Y-67902309D01*
X162828114Y-68235643D02*
X162828114Y-67568976D01*
X162828114Y-67759452D02*
X162780495Y-67664214D01*
X162780495Y-67664214D02*
X162732876Y-67616595D01*
X162732876Y-67616595D02*
X162637638Y-67568976D01*
X162637638Y-67568976D02*
X162542400Y-67568976D01*
X162447162Y-68330881D02*
X161685257Y-68330881D01*
X161447161Y-68235643D02*
X161447161Y-67235643D01*
X161447161Y-67235643D02*
X161113828Y-67949928D01*
X161113828Y-67949928D02*
X160780495Y-67235643D01*
X160780495Y-67235643D02*
X160780495Y-68235643D01*
X159732876Y-68140404D02*
X159780495Y-68188024D01*
X159780495Y-68188024D02*
X159923352Y-68235643D01*
X159923352Y-68235643D02*
X160018590Y-68235643D01*
X160018590Y-68235643D02*
X160161447Y-68188024D01*
X160161447Y-68188024D02*
X160256685Y-68092785D01*
X160256685Y-68092785D02*
X160304304Y-67997547D01*
X160304304Y-67997547D02*
X160351923Y-67807071D01*
X160351923Y-67807071D02*
X160351923Y-67664214D01*
X160351923Y-67664214D02*
X160304304Y-67473738D01*
X160304304Y-67473738D02*
X160256685Y-67378500D01*
X160256685Y-67378500D02*
X160161447Y-67283262D01*
X160161447Y-67283262D02*
X160018590Y-67235643D01*
X160018590Y-67235643D02*
X159923352Y-67235643D01*
X159923352Y-67235643D02*
X159780495Y-67283262D01*
X159780495Y-67283262D02*
X159732876Y-67330881D01*
X159304304Y-67235643D02*
X159304304Y-68045166D01*
X159304304Y-68045166D02*
X159256685Y-68140404D01*
X159256685Y-68140404D02*
X159209066Y-68188024D01*
X159209066Y-68188024D02*
X159113828Y-68235643D01*
X159113828Y-68235643D02*
X158923352Y-68235643D01*
X158923352Y-68235643D02*
X158828114Y-68188024D01*
X158828114Y-68188024D02*
X158780495Y-68140404D01*
X158780495Y-68140404D02*
X158732876Y-68045166D01*
X158732876Y-68045166D02*
X158732876Y-67235643D01*
X158494781Y-68330881D02*
X157732876Y-68330881D01*
X157494780Y-68235643D02*
X157494780Y-67235643D01*
X157494780Y-67235643D02*
X157256685Y-67235643D01*
X157256685Y-67235643D02*
X157113828Y-67283262D01*
X157113828Y-67283262D02*
X157018590Y-67378500D01*
X157018590Y-67378500D02*
X156970971Y-67473738D01*
X156970971Y-67473738D02*
X156923352Y-67664214D01*
X156923352Y-67664214D02*
X156923352Y-67807071D01*
X156923352Y-67807071D02*
X156970971Y-67997547D01*
X156970971Y-67997547D02*
X157018590Y-68092785D01*
X157018590Y-68092785D02*
X157113828Y-68188024D01*
X157113828Y-68188024D02*
X157256685Y-68235643D01*
X157256685Y-68235643D02*
X157494780Y-68235643D01*
X156066209Y-68235643D02*
X156066209Y-67711833D01*
X156066209Y-67711833D02*
X156113828Y-67616595D01*
X156113828Y-67616595D02*
X156209066Y-67568976D01*
X156209066Y-67568976D02*
X156399542Y-67568976D01*
X156399542Y-67568976D02*
X156494780Y-67616595D01*
X156066209Y-68188024D02*
X156161447Y-68235643D01*
X156161447Y-68235643D02*
X156399542Y-68235643D01*
X156399542Y-68235643D02*
X156494780Y-68188024D01*
X156494780Y-68188024D02*
X156542399Y-68092785D01*
X156542399Y-68092785D02*
X156542399Y-67997547D01*
X156542399Y-67997547D02*
X156494780Y-67902309D01*
X156494780Y-67902309D02*
X156399542Y-67854690D01*
X156399542Y-67854690D02*
X156161447Y-67854690D01*
X156161447Y-67854690D02*
X156066209Y-67807071D01*
X155732875Y-67568976D02*
X155351923Y-67568976D01*
X155590018Y-67235643D02*
X155590018Y-68092785D01*
X155590018Y-68092785D02*
X155542399Y-68188024D01*
X155542399Y-68188024D02*
X155447161Y-68235643D01*
X155447161Y-68235643D02*
X155351923Y-68235643D01*
X154590018Y-68235643D02*
X154590018Y-67711833D01*
X154590018Y-67711833D02*
X154637637Y-67616595D01*
X154637637Y-67616595D02*
X154732875Y-67568976D01*
X154732875Y-67568976D02*
X154923351Y-67568976D01*
X154923351Y-67568976D02*
X155018589Y-67616595D01*
X154590018Y-68188024D02*
X154685256Y-68235643D01*
X154685256Y-68235643D02*
X154923351Y-68235643D01*
X154923351Y-68235643D02*
X155018589Y-68188024D01*
X155018589Y-68188024D02*
X155066208Y-68092785D01*
X155066208Y-68092785D02*
X155066208Y-67997547D01*
X155066208Y-67997547D02*
X155018589Y-67902309D01*
X155018589Y-67902309D02*
X154923351Y-67854690D01*
X154923351Y-67854690D02*
X154685256Y-67854690D01*
X154685256Y-67854690D02*
X154590018Y-67807071D01*
X153970970Y-68235643D02*
X154066208Y-68188024D01*
X154066208Y-68188024D02*
X154113827Y-68092785D01*
X154113827Y-68092785D02*
X154113827Y-67235643D01*
X153447160Y-68235643D02*
X153542398Y-68188024D01*
X153542398Y-68188024D02*
X153590017Y-68140404D01*
X153590017Y-68140404D02*
X153637636Y-68045166D01*
X153637636Y-68045166D02*
X153637636Y-67759452D01*
X153637636Y-67759452D02*
X153590017Y-67664214D01*
X153590017Y-67664214D02*
X153542398Y-67616595D01*
X153542398Y-67616595D02*
X153447160Y-67568976D01*
X153447160Y-67568976D02*
X153304303Y-67568976D01*
X153304303Y-67568976D02*
X153209065Y-67616595D01*
X153209065Y-67616595D02*
X153161446Y-67664214D01*
X153161446Y-67664214D02*
X153113827Y-67759452D01*
X153113827Y-67759452D02*
X153113827Y-68045166D01*
X153113827Y-68045166D02*
X153161446Y-68140404D01*
X153161446Y-68140404D02*
X153209065Y-68188024D01*
X153209065Y-68188024D02*
X153304303Y-68235643D01*
X153304303Y-68235643D02*
X153447160Y-68235643D01*
X152256684Y-67568976D02*
X152256684Y-68378500D01*
X152256684Y-68378500D02*
X152304303Y-68473738D01*
X152304303Y-68473738D02*
X152351922Y-68521357D01*
X152351922Y-68521357D02*
X152447160Y-68568976D01*
X152447160Y-68568976D02*
X152590017Y-68568976D01*
X152590017Y-68568976D02*
X152685255Y-68521357D01*
X152256684Y-68188024D02*
X152351922Y-68235643D01*
X152351922Y-68235643D02*
X152542398Y-68235643D01*
X152542398Y-68235643D02*
X152637636Y-68188024D01*
X152637636Y-68188024D02*
X152685255Y-68140404D01*
X152685255Y-68140404D02*
X152732874Y-68045166D01*
X152732874Y-68045166D02*
X152732874Y-67759452D01*
X152732874Y-67759452D02*
X152685255Y-67664214D01*
X152685255Y-67664214D02*
X152637636Y-67616595D01*
X152637636Y-67616595D02*
X152542398Y-67568976D01*
X152542398Y-67568976D02*
X152351922Y-67568976D01*
X152351922Y-67568976D02*
X152256684Y-67616595D01*
X151351922Y-67568976D02*
X151351922Y-68378500D01*
X151351922Y-68378500D02*
X151399541Y-68473738D01*
X151399541Y-68473738D02*
X151447160Y-68521357D01*
X151447160Y-68521357D02*
X151542398Y-68568976D01*
X151542398Y-68568976D02*
X151685255Y-68568976D01*
X151685255Y-68568976D02*
X151780493Y-68521357D01*
X151351922Y-68188024D02*
X151447160Y-68235643D01*
X151447160Y-68235643D02*
X151637636Y-68235643D01*
X151637636Y-68235643D02*
X151732874Y-68188024D01*
X151732874Y-68188024D02*
X151780493Y-68140404D01*
X151780493Y-68140404D02*
X151828112Y-68045166D01*
X151828112Y-68045166D02*
X151828112Y-67759452D01*
X151828112Y-67759452D02*
X151780493Y-67664214D01*
X151780493Y-67664214D02*
X151732874Y-67616595D01*
X151732874Y-67616595D02*
X151637636Y-67568976D01*
X151637636Y-67568976D02*
X151447160Y-67568976D01*
X151447160Y-67568976D02*
X151351922Y-67616595D01*
X150494779Y-68188024D02*
X150590017Y-68235643D01*
X150590017Y-68235643D02*
X150780493Y-68235643D01*
X150780493Y-68235643D02*
X150875731Y-68188024D01*
X150875731Y-68188024D02*
X150923350Y-68092785D01*
X150923350Y-68092785D02*
X150923350Y-67711833D01*
X150923350Y-67711833D02*
X150875731Y-67616595D01*
X150875731Y-67616595D02*
X150780493Y-67568976D01*
X150780493Y-67568976D02*
X150590017Y-67568976D01*
X150590017Y-67568976D02*
X150494779Y-67616595D01*
X150494779Y-67616595D02*
X150447160Y-67711833D01*
X150447160Y-67711833D02*
X150447160Y-67807071D01*
X150447160Y-67807071D02*
X150923350Y-67902309D01*
X150018588Y-68235643D02*
X150018588Y-67568976D01*
X150018588Y-67759452D02*
X149970969Y-67664214D01*
X149970969Y-67664214D02*
X149923350Y-67616595D01*
X149923350Y-67616595D02*
X149828112Y-67568976D01*
X149828112Y-67568976D02*
X149732874Y-67568976D01*
X166828115Y-69464634D02*
X166066211Y-69464634D01*
X164875734Y-68940825D02*
X164828115Y-68893206D01*
X164828115Y-68893206D02*
X164732877Y-68845587D01*
X164732877Y-68845587D02*
X164494782Y-68845587D01*
X164494782Y-68845587D02*
X164399544Y-68893206D01*
X164399544Y-68893206D02*
X164351925Y-68940825D01*
X164351925Y-68940825D02*
X164304306Y-69036063D01*
X164304306Y-69036063D02*
X164304306Y-69131301D01*
X164304306Y-69131301D02*
X164351925Y-69274158D01*
X164351925Y-69274158D02*
X164923353Y-69845587D01*
X164923353Y-69845587D02*
X164304306Y-69845587D01*
X163875734Y-69845587D02*
X163875734Y-68845587D01*
X163875734Y-68845587D02*
X163542401Y-69559872D01*
X163542401Y-69559872D02*
X163209068Y-68845587D01*
X163209068Y-68845587D02*
X163209068Y-69845587D01*
X162732877Y-69845587D02*
X162732877Y-68845587D01*
X162732877Y-69226539D02*
X162637639Y-69178920D01*
X162637639Y-69178920D02*
X162447163Y-69178920D01*
X162447163Y-69178920D02*
X162351925Y-69226539D01*
X162351925Y-69226539D02*
X162304306Y-69274158D01*
X162304306Y-69274158D02*
X162256687Y-69369396D01*
X162256687Y-69369396D02*
X162256687Y-69655110D01*
X162256687Y-69655110D02*
X162304306Y-69750348D01*
X162304306Y-69750348D02*
X162351925Y-69797968D01*
X162351925Y-69797968D02*
X162447163Y-69845587D01*
X162447163Y-69845587D02*
X162637639Y-69845587D01*
X162637639Y-69845587D02*
X162732877Y-69797968D01*
X161828115Y-69845587D02*
X161828115Y-69178920D01*
X161828115Y-68845587D02*
X161875734Y-68893206D01*
X161875734Y-68893206D02*
X161828115Y-68940825D01*
X161828115Y-68940825D02*
X161780496Y-68893206D01*
X161780496Y-68893206D02*
X161828115Y-68845587D01*
X161828115Y-68845587D02*
X161828115Y-68940825D01*
X161494782Y-69178920D02*
X161113830Y-69178920D01*
X161351925Y-68845587D02*
X161351925Y-69702729D01*
X161351925Y-69702729D02*
X161304306Y-69797968D01*
X161304306Y-69797968D02*
X161209068Y-69845587D01*
X161209068Y-69845587D02*
X161113830Y-69845587D01*
X160018591Y-69321777D02*
X159685258Y-69321777D01*
X159542401Y-69845587D02*
X160018591Y-69845587D01*
X160018591Y-69845587D02*
X160018591Y-68845587D01*
X160018591Y-68845587D02*
X159542401Y-68845587D01*
X159113829Y-69321777D02*
X158780496Y-69321777D01*
X158637639Y-69845587D02*
X159113829Y-69845587D01*
X159113829Y-69845587D02*
X159113829Y-68845587D01*
X159113829Y-68845587D02*
X158637639Y-68845587D01*
X158209067Y-69845587D02*
X158209067Y-68845587D01*
X158209067Y-68845587D02*
X157828115Y-68845587D01*
X157828115Y-68845587D02*
X157732877Y-68893206D01*
X157732877Y-68893206D02*
X157685258Y-68940825D01*
X157685258Y-68940825D02*
X157637639Y-69036063D01*
X157637639Y-69036063D02*
X157637639Y-69178920D01*
X157637639Y-69178920D02*
X157685258Y-69274158D01*
X157685258Y-69274158D02*
X157732877Y-69321777D01*
X157732877Y-69321777D02*
X157828115Y-69369396D01*
X157828115Y-69369396D02*
X158209067Y-69369396D01*
X156637639Y-69845587D02*
X156970972Y-69369396D01*
X157209067Y-69845587D02*
X157209067Y-68845587D01*
X157209067Y-68845587D02*
X156828115Y-68845587D01*
X156828115Y-68845587D02*
X156732877Y-68893206D01*
X156732877Y-68893206D02*
X156685258Y-68940825D01*
X156685258Y-68940825D02*
X156637639Y-69036063D01*
X156637639Y-69036063D02*
X156637639Y-69178920D01*
X156637639Y-69178920D02*
X156685258Y-69274158D01*
X156685258Y-69274158D02*
X156732877Y-69321777D01*
X156732877Y-69321777D02*
X156828115Y-69369396D01*
X156828115Y-69369396D02*
X157209067Y-69369396D01*
X156018591Y-68845587D02*
X155828115Y-68845587D01*
X155828115Y-68845587D02*
X155732877Y-68893206D01*
X155732877Y-68893206D02*
X155637639Y-68988444D01*
X155637639Y-68988444D02*
X155590020Y-69178920D01*
X155590020Y-69178920D02*
X155590020Y-69512253D01*
X155590020Y-69512253D02*
X155637639Y-69702729D01*
X155637639Y-69702729D02*
X155732877Y-69797968D01*
X155732877Y-69797968D02*
X155828115Y-69845587D01*
X155828115Y-69845587D02*
X156018591Y-69845587D01*
X156018591Y-69845587D02*
X156113829Y-69797968D01*
X156113829Y-69797968D02*
X156209067Y-69702729D01*
X156209067Y-69702729D02*
X156256686Y-69512253D01*
X156256686Y-69512253D02*
X156256686Y-69178920D01*
X156256686Y-69178920D02*
X156209067Y-68988444D01*
X156209067Y-68988444D02*
X156113829Y-68893206D01*
X156113829Y-68893206D02*
X156018591Y-68845587D01*
X155161448Y-69845587D02*
X155161448Y-68845587D01*
X155161448Y-68845587D02*
X154828115Y-69559872D01*
X154828115Y-69559872D02*
X154494782Y-68845587D01*
X154494782Y-68845587D02*
X154494782Y-69845587D01*
X166828115Y-71074578D02*
X166066211Y-71074578D01*
X164256687Y-71455531D02*
X164590020Y-70979340D01*
X164828115Y-71455531D02*
X164828115Y-70455531D01*
X164828115Y-70455531D02*
X164447163Y-70455531D01*
X164447163Y-70455531D02*
X164351925Y-70503150D01*
X164351925Y-70503150D02*
X164304306Y-70550769D01*
X164304306Y-70550769D02*
X164256687Y-70646007D01*
X164256687Y-70646007D02*
X164256687Y-70788864D01*
X164256687Y-70788864D02*
X164304306Y-70884102D01*
X164304306Y-70884102D02*
X164351925Y-70931721D01*
X164351925Y-70931721D02*
X164447163Y-70979340D01*
X164447163Y-70979340D02*
X164828115Y-70979340D01*
X163970972Y-70455531D02*
X163399544Y-70455531D01*
X163685258Y-71455531D02*
X163685258Y-70455531D01*
X162494782Y-71360292D02*
X162542401Y-71407912D01*
X162542401Y-71407912D02*
X162685258Y-71455531D01*
X162685258Y-71455531D02*
X162780496Y-71455531D01*
X162780496Y-71455531D02*
X162923353Y-71407912D01*
X162923353Y-71407912D02*
X163018591Y-71312673D01*
X163018591Y-71312673D02*
X163066210Y-71217435D01*
X163066210Y-71217435D02*
X163113829Y-71026959D01*
X163113829Y-71026959D02*
X163113829Y-70884102D01*
X163113829Y-70884102D02*
X163066210Y-70693626D01*
X163066210Y-70693626D02*
X163018591Y-70598388D01*
X163018591Y-70598388D02*
X162923353Y-70503150D01*
X162923353Y-70503150D02*
X162780496Y-70455531D01*
X162780496Y-70455531D02*
X162685258Y-70455531D01*
X162685258Y-70455531D02*
X162542401Y-70503150D01*
X162542401Y-70503150D02*
X162494782Y-70550769D01*
X166828115Y-72684522D02*
X166066211Y-72684522D01*
X164828115Y-73065475D02*
X164828115Y-72065475D01*
X164399544Y-72160713D02*
X164351925Y-72113094D01*
X164351925Y-72113094D02*
X164256687Y-72065475D01*
X164256687Y-72065475D02*
X164018592Y-72065475D01*
X164018592Y-72065475D02*
X163923354Y-72113094D01*
X163923354Y-72113094D02*
X163875735Y-72160713D01*
X163875735Y-72160713D02*
X163828116Y-72255951D01*
X163828116Y-72255951D02*
X163828116Y-72351189D01*
X163828116Y-72351189D02*
X163875735Y-72494046D01*
X163875735Y-72494046D02*
X164447163Y-73065475D01*
X164447163Y-73065475D02*
X163828116Y-73065475D01*
X162828116Y-72970236D02*
X162875735Y-73017856D01*
X162875735Y-73017856D02*
X163018592Y-73065475D01*
X163018592Y-73065475D02*
X163113830Y-73065475D01*
X163113830Y-73065475D02*
X163256687Y-73017856D01*
X163256687Y-73017856D02*
X163351925Y-72922617D01*
X163351925Y-72922617D02*
X163399544Y-72827379D01*
X163399544Y-72827379D02*
X163447163Y-72636903D01*
X163447163Y-72636903D02*
X163447163Y-72494046D01*
X163447163Y-72494046D02*
X163399544Y-72303570D01*
X163399544Y-72303570D02*
X163351925Y-72208332D01*
X163351925Y-72208332D02*
X163256687Y-72113094D01*
X163256687Y-72113094D02*
X163113830Y-72065475D01*
X163113830Y-72065475D02*
X163018592Y-72065475D01*
X163018592Y-72065475D02*
X162875735Y-72113094D01*
X162875735Y-72113094D02*
X162828116Y-72160713D01*
X162351925Y-73017856D02*
X162351925Y-73065475D01*
X162351925Y-73065475D02*
X162399544Y-73160713D01*
X162399544Y-73160713D02*
X162447163Y-73208332D01*
X161209068Y-73017856D02*
X161066211Y-73065475D01*
X161066211Y-73065475D02*
X160828116Y-73065475D01*
X160828116Y-73065475D02*
X160732878Y-73017856D01*
X160732878Y-73017856D02*
X160685259Y-72970236D01*
X160685259Y-72970236D02*
X160637640Y-72874998D01*
X160637640Y-72874998D02*
X160637640Y-72779760D01*
X160637640Y-72779760D02*
X160685259Y-72684522D01*
X160685259Y-72684522D02*
X160732878Y-72636903D01*
X160732878Y-72636903D02*
X160828116Y-72589284D01*
X160828116Y-72589284D02*
X161018592Y-72541665D01*
X161018592Y-72541665D02*
X161113830Y-72494046D01*
X161113830Y-72494046D02*
X161161449Y-72446427D01*
X161161449Y-72446427D02*
X161209068Y-72351189D01*
X161209068Y-72351189D02*
X161209068Y-72255951D01*
X161209068Y-72255951D02*
X161161449Y-72160713D01*
X161161449Y-72160713D02*
X161113830Y-72113094D01*
X161113830Y-72113094D02*
X161018592Y-72065475D01*
X161018592Y-72065475D02*
X160780497Y-72065475D01*
X160780497Y-72065475D02*
X160637640Y-72113094D01*
X160209068Y-73065475D02*
X160209068Y-72065475D01*
X160209068Y-72065475D02*
X159828116Y-72065475D01*
X159828116Y-72065475D02*
X159732878Y-72113094D01*
X159732878Y-72113094D02*
X159685259Y-72160713D01*
X159685259Y-72160713D02*
X159637640Y-72255951D01*
X159637640Y-72255951D02*
X159637640Y-72398808D01*
X159637640Y-72398808D02*
X159685259Y-72494046D01*
X159685259Y-72494046D02*
X159732878Y-72541665D01*
X159732878Y-72541665D02*
X159828116Y-72589284D01*
X159828116Y-72589284D02*
X160209068Y-72589284D01*
X159209068Y-73065475D02*
X159209068Y-72065475D01*
X158685259Y-73017856D02*
X158685259Y-73065475D01*
X158685259Y-73065475D02*
X158732878Y-73160713D01*
X158732878Y-73160713D02*
X158780497Y-73208332D01*
X156970974Y-72113094D02*
X157066212Y-72065475D01*
X157066212Y-72065475D02*
X157209069Y-72065475D01*
X157209069Y-72065475D02*
X157351926Y-72113094D01*
X157351926Y-72113094D02*
X157447164Y-72208332D01*
X157447164Y-72208332D02*
X157494783Y-72303570D01*
X157494783Y-72303570D02*
X157542402Y-72494046D01*
X157542402Y-72494046D02*
X157542402Y-72636903D01*
X157542402Y-72636903D02*
X157494783Y-72827379D01*
X157494783Y-72827379D02*
X157447164Y-72922617D01*
X157447164Y-72922617D02*
X157351926Y-73017856D01*
X157351926Y-73017856D02*
X157209069Y-73065475D01*
X157209069Y-73065475D02*
X157113831Y-73065475D01*
X157113831Y-73065475D02*
X156970974Y-73017856D01*
X156970974Y-73017856D02*
X156923355Y-72970236D01*
X156923355Y-72970236D02*
X156923355Y-72636903D01*
X156923355Y-72636903D02*
X157113831Y-72636903D01*
X156494783Y-73065475D02*
X156494783Y-72065475D01*
X156494783Y-72065475D02*
X156113831Y-72065475D01*
X156113831Y-72065475D02*
X156018593Y-72113094D01*
X156018593Y-72113094D02*
X155970974Y-72160713D01*
X155970974Y-72160713D02*
X155923355Y-72255951D01*
X155923355Y-72255951D02*
X155923355Y-72398808D01*
X155923355Y-72398808D02*
X155970974Y-72494046D01*
X155970974Y-72494046D02*
X156018593Y-72541665D01*
X156018593Y-72541665D02*
X156113831Y-72589284D01*
X156113831Y-72589284D02*
X156494783Y-72589284D01*
X155494783Y-73065475D02*
X155494783Y-72065475D01*
X154828117Y-72065475D02*
X154637641Y-72065475D01*
X154637641Y-72065475D02*
X154542403Y-72113094D01*
X154542403Y-72113094D02*
X154447165Y-72208332D01*
X154447165Y-72208332D02*
X154399546Y-72398808D01*
X154399546Y-72398808D02*
X154399546Y-72732141D01*
X154399546Y-72732141D02*
X154447165Y-72922617D01*
X154447165Y-72922617D02*
X154542403Y-73017856D01*
X154542403Y-73017856D02*
X154637641Y-73065475D01*
X154637641Y-73065475D02*
X154828117Y-73065475D01*
X154828117Y-73065475D02*
X154923355Y-73017856D01*
X154923355Y-73017856D02*
X155018593Y-72922617D01*
X155018593Y-72922617D02*
X155066212Y-72732141D01*
X155066212Y-72732141D02*
X155066212Y-72398808D01*
X155066212Y-72398808D02*
X155018593Y-72208332D01*
X155018593Y-72208332D02*
X154923355Y-72113094D01*
X154923355Y-72113094D02*
X154828117Y-72065475D01*
X154018593Y-73017856D02*
X153923355Y-73065475D01*
X153923355Y-73065475D02*
X153732879Y-73065475D01*
X153732879Y-73065475D02*
X153637641Y-73017856D01*
X153637641Y-73017856D02*
X153590022Y-72922617D01*
X153590022Y-72922617D02*
X153590022Y-72874998D01*
X153590022Y-72874998D02*
X153637641Y-72779760D01*
X153637641Y-72779760D02*
X153732879Y-72732141D01*
X153732879Y-72732141D02*
X153875736Y-72732141D01*
X153875736Y-72732141D02*
X153970974Y-72684522D01*
X153970974Y-72684522D02*
X154018593Y-72589284D01*
X154018593Y-72589284D02*
X154018593Y-72541665D01*
X154018593Y-72541665D02*
X153970974Y-72446427D01*
X153970974Y-72446427D02*
X153875736Y-72398808D01*
X153875736Y-72398808D02*
X153732879Y-72398808D01*
X153732879Y-72398808D02*
X153637641Y-72446427D01*
X166970972Y-73675419D02*
X166637639Y-74675419D01*
X166637639Y-74675419D02*
X166304306Y-73675419D01*
X165590020Y-74627800D02*
X165685258Y-74675419D01*
X165685258Y-74675419D02*
X165875734Y-74675419D01*
X165875734Y-74675419D02*
X165970972Y-74627800D01*
X165970972Y-74627800D02*
X166018591Y-74532561D01*
X166018591Y-74532561D02*
X166018591Y-74151609D01*
X166018591Y-74151609D02*
X165970972Y-74056371D01*
X165970972Y-74056371D02*
X165875734Y-74008752D01*
X165875734Y-74008752D02*
X165685258Y-74008752D01*
X165685258Y-74008752D02*
X165590020Y-74056371D01*
X165590020Y-74056371D02*
X165542401Y-74151609D01*
X165542401Y-74151609D02*
X165542401Y-74246847D01*
X165542401Y-74246847D02*
X166018591Y-74342085D01*
X165113829Y-74675419D02*
X165113829Y-74008752D01*
X165113829Y-74199228D02*
X165066210Y-74103990D01*
X165066210Y-74103990D02*
X165018591Y-74056371D01*
X165018591Y-74056371D02*
X164923353Y-74008752D01*
X164923353Y-74008752D02*
X164828115Y-74008752D01*
X164542400Y-74627800D02*
X164447162Y-74675419D01*
X164447162Y-74675419D02*
X164256686Y-74675419D01*
X164256686Y-74675419D02*
X164161448Y-74627800D01*
X164161448Y-74627800D02*
X164113829Y-74532561D01*
X164113829Y-74532561D02*
X164113829Y-74484942D01*
X164113829Y-74484942D02*
X164161448Y-74389704D01*
X164161448Y-74389704D02*
X164256686Y-74342085D01*
X164256686Y-74342085D02*
X164399543Y-74342085D01*
X164399543Y-74342085D02*
X164494781Y-74294466D01*
X164494781Y-74294466D02*
X164542400Y-74199228D01*
X164542400Y-74199228D02*
X164542400Y-74151609D01*
X164542400Y-74151609D02*
X164494781Y-74056371D01*
X164494781Y-74056371D02*
X164399543Y-74008752D01*
X164399543Y-74008752D02*
X164256686Y-74008752D01*
X164256686Y-74008752D02*
X164161448Y-74056371D01*
X163685257Y-74675419D02*
X163685257Y-74008752D01*
X163685257Y-73675419D02*
X163732876Y-73723038D01*
X163732876Y-73723038D02*
X163685257Y-73770657D01*
X163685257Y-73770657D02*
X163637638Y-73723038D01*
X163637638Y-73723038D02*
X163685257Y-73675419D01*
X163685257Y-73675419D02*
X163685257Y-73770657D01*
X163066210Y-74675419D02*
X163161448Y-74627800D01*
X163161448Y-74627800D02*
X163209067Y-74580180D01*
X163209067Y-74580180D02*
X163256686Y-74484942D01*
X163256686Y-74484942D02*
X163256686Y-74199228D01*
X163256686Y-74199228D02*
X163209067Y-74103990D01*
X163209067Y-74103990D02*
X163161448Y-74056371D01*
X163161448Y-74056371D02*
X163066210Y-74008752D01*
X163066210Y-74008752D02*
X162923353Y-74008752D01*
X162923353Y-74008752D02*
X162828115Y-74056371D01*
X162828115Y-74056371D02*
X162780496Y-74103990D01*
X162780496Y-74103990D02*
X162732877Y-74199228D01*
X162732877Y-74199228D02*
X162732877Y-74484942D01*
X162732877Y-74484942D02*
X162780496Y-74580180D01*
X162780496Y-74580180D02*
X162828115Y-74627800D01*
X162828115Y-74627800D02*
X162923353Y-74675419D01*
X162923353Y-74675419D02*
X163066210Y-74675419D01*
X162304305Y-74008752D02*
X162304305Y-74675419D01*
X162304305Y-74103990D02*
X162256686Y-74056371D01*
X162256686Y-74056371D02*
X162161448Y-74008752D01*
X162161448Y-74008752D02*
X162018591Y-74008752D01*
X162018591Y-74008752D02*
X161923353Y-74056371D01*
X161923353Y-74056371D02*
X161875734Y-74151609D01*
X161875734Y-74151609D02*
X161875734Y-74675419D01*
X160113829Y-74675419D02*
X160685257Y-74675419D01*
X160399543Y-74675419D02*
X160399543Y-73675419D01*
X160399543Y-73675419D02*
X160494781Y-73818276D01*
X160494781Y-73818276D02*
X160590019Y-73913514D01*
X160590019Y-73913514D02*
X160685257Y-73961133D01*
X159685257Y-74580180D02*
X159637638Y-74627800D01*
X159637638Y-74627800D02*
X159685257Y-74675419D01*
X159685257Y-74675419D02*
X159732876Y-74627800D01*
X159732876Y-74627800D02*
X159685257Y-74580180D01*
X159685257Y-74580180D02*
X159685257Y-74675419D01*
X159018591Y-73675419D02*
X158923353Y-73675419D01*
X158923353Y-73675419D02*
X158828115Y-73723038D01*
X158828115Y-73723038D02*
X158780496Y-73770657D01*
X158780496Y-73770657D02*
X158732877Y-73865895D01*
X158732877Y-73865895D02*
X158685258Y-74056371D01*
X158685258Y-74056371D02*
X158685258Y-74294466D01*
X158685258Y-74294466D02*
X158732877Y-74484942D01*
X158732877Y-74484942D02*
X158780496Y-74580180D01*
X158780496Y-74580180D02*
X158828115Y-74627800D01*
X158828115Y-74627800D02*
X158923353Y-74675419D01*
X158923353Y-74675419D02*
X159018591Y-74675419D01*
X159018591Y-74675419D02*
X159113829Y-74627800D01*
X159113829Y-74627800D02*
X159161448Y-74580180D01*
X159161448Y-74580180D02*
X159209067Y-74484942D01*
X159209067Y-74484942D02*
X159256686Y-74294466D01*
X159256686Y-74294466D02*
X159256686Y-74056371D01*
X159256686Y-74056371D02*
X159209067Y-73865895D01*
X159209067Y-73865895D02*
X159161448Y-73770657D01*
X159161448Y-73770657D02*
X159113829Y-73723038D01*
X159113829Y-73723038D02*
X159018591Y-73675419D01*
D11*
%TO.C,REF\u002A\u002A*%
X156891406Y-83300949D02*
X156917127Y-83316647D01*
X156943778Y-83338227D01*
X156943778Y-83985684D01*
X156917127Y-84007264D01*
X156885767Y-84024739D01*
X156849966Y-84025575D01*
X156818528Y-84005082D01*
X156814652Y-84000416D01*
X156809186Y-83990949D01*
X156804979Y-83977267D01*
X156801867Y-83956748D01*
X156799687Y-83926768D01*
X156798276Y-83884704D01*
X156797471Y-83827932D01*
X156797107Y-83753830D01*
X156797022Y-83659773D01*
X156797022Y-83338227D01*
X156823673Y-83316647D01*
X156847386Y-83301877D01*
X156870400Y-83295067D01*
X156891406Y-83300949D01*
G36*
X156891406Y-83300949D02*
G01*
X156917127Y-83316647D01*
X156943778Y-83338227D01*
X156943778Y-83985684D01*
X156917127Y-84007264D01*
X156885767Y-84024739D01*
X156849966Y-84025575D01*
X156818528Y-84005082D01*
X156814652Y-84000416D01*
X156809186Y-83990949D01*
X156804979Y-83977267D01*
X156801867Y-83956748D01*
X156799687Y-83926768D01*
X156798276Y-83884704D01*
X156797471Y-83827932D01*
X156797107Y-83753830D01*
X156797022Y-83659773D01*
X156797022Y-83338227D01*
X156823673Y-83316647D01*
X156847386Y-83301877D01*
X156870400Y-83295067D01*
X156891406Y-83300949D01*
G37*
X164022137Y-83299463D02*
X164056291Y-83322776D01*
X164084000Y-83350485D01*
X164084000Y-83663537D01*
X164083959Y-83747567D01*
X164083701Y-83821789D01*
X164083030Y-83878541D01*
X164081752Y-83920512D01*
X164079673Y-83950389D01*
X164076599Y-83970861D01*
X164072334Y-83984614D01*
X164066684Y-83994337D01*
X164059455Y-84002717D01*
X164027991Y-84024181D01*
X163992826Y-84025947D01*
X163959822Y-84006267D01*
X163954516Y-84000398D01*
X163949066Y-83991314D01*
X163944900Y-83977973D01*
X163941846Y-83957757D01*
X163939732Y-83928049D01*
X163938386Y-83886232D01*
X163937638Y-83829689D01*
X163937314Y-83755802D01*
X163937245Y-83661956D01*
X163937284Y-83586294D01*
X163937539Y-83508385D01*
X163938183Y-83448375D01*
X163939387Y-83403648D01*
X163941324Y-83371585D01*
X163944164Y-83349571D01*
X163948079Y-83334987D01*
X163953242Y-83325218D01*
X163959822Y-83317645D01*
X163989006Y-83298623D01*
X164022137Y-83299463D01*
G36*
X164022137Y-83299463D02*
G01*
X164056291Y-83322776D01*
X164084000Y-83350485D01*
X164084000Y-83663537D01*
X164083959Y-83747567D01*
X164083701Y-83821789D01*
X164083030Y-83878541D01*
X164081752Y-83920512D01*
X164079673Y-83950389D01*
X164076599Y-83970861D01*
X164072334Y-83984614D01*
X164066684Y-83994337D01*
X164059455Y-84002717D01*
X164027991Y-84024181D01*
X163992826Y-84025947D01*
X163959822Y-84006267D01*
X163954516Y-84000398D01*
X163949066Y-83991314D01*
X163944900Y-83977973D01*
X163941846Y-83957757D01*
X163939732Y-83928049D01*
X163938386Y-83886232D01*
X163937638Y-83829689D01*
X163937314Y-83755802D01*
X163937245Y-83661956D01*
X163937284Y-83586294D01*
X163937539Y-83508385D01*
X163938183Y-83448375D01*
X163939387Y-83403648D01*
X163941324Y-83371585D01*
X163944164Y-83349571D01*
X163948079Y-83334987D01*
X163953242Y-83325218D01*
X163959822Y-83317645D01*
X163989006Y-83298623D01*
X164022137Y-83299463D01*
G37*
X163490562Y-78058850D02*
X163573313Y-78086053D01*
X163648406Y-78131484D01*
X163720298Y-78197302D01*
X163758846Y-78241567D01*
X163798256Y-78299961D01*
X163823446Y-78360586D01*
X163836861Y-78429865D01*
X163840948Y-78514222D01*
X163840669Y-78560307D01*
X163838460Y-78601450D01*
X163832894Y-78633582D01*
X163822586Y-78664122D01*
X163806148Y-78700489D01*
X163792200Y-78727728D01*
X163733665Y-78813429D01*
X163661619Y-78882617D01*
X163577947Y-78933741D01*
X163484531Y-78965250D01*
X163451434Y-78972225D01*
X163410960Y-78979094D01*
X163377999Y-78980919D01*
X163343698Y-78977947D01*
X163299200Y-78970426D01*
X163247934Y-78958002D01*
X163157434Y-78920112D01*
X163078345Y-78865836D01*
X163012528Y-78797770D01*
X162961840Y-78718511D01*
X162928140Y-78630654D01*
X162913286Y-78536795D01*
X162919136Y-78439530D01*
X162945399Y-78343220D01*
X162990418Y-78254494D01*
X163051373Y-78179419D01*
X163126184Y-78119641D01*
X163212768Y-78076809D01*
X163309043Y-78052571D01*
X163412928Y-78048576D01*
X163490562Y-78058850D01*
G36*
X163490562Y-78058850D02*
G01*
X163573313Y-78086053D01*
X163648406Y-78131484D01*
X163720298Y-78197302D01*
X163758846Y-78241567D01*
X163798256Y-78299961D01*
X163823446Y-78360586D01*
X163836861Y-78429865D01*
X163840948Y-78514222D01*
X163840669Y-78560307D01*
X163838460Y-78601450D01*
X163832894Y-78633582D01*
X163822586Y-78664122D01*
X163806148Y-78700489D01*
X163792200Y-78727728D01*
X163733665Y-78813429D01*
X163661619Y-78882617D01*
X163577947Y-78933741D01*
X163484531Y-78965250D01*
X163451434Y-78972225D01*
X163410960Y-78979094D01*
X163377999Y-78980919D01*
X163343698Y-78977947D01*
X163299200Y-78970426D01*
X163247934Y-78958002D01*
X163157434Y-78920112D01*
X163078345Y-78865836D01*
X163012528Y-78797770D01*
X162961840Y-78718511D01*
X162928140Y-78630654D01*
X162913286Y-78536795D01*
X162919136Y-78439530D01*
X162945399Y-78343220D01*
X162990418Y-78254494D01*
X163051373Y-78179419D01*
X163126184Y-78119641D01*
X163212768Y-78076809D01*
X163309043Y-78052571D01*
X163412928Y-78048576D01*
X163490562Y-78058850D01*
G37*
X156191767Y-83295068D02*
X156285890Y-83295158D01*
X156360405Y-83295498D01*
X156417811Y-83296239D01*
X156460611Y-83297535D01*
X156491304Y-83299537D01*
X156512391Y-83302396D01*
X156526373Y-83306266D01*
X156535750Y-83311298D01*
X156543022Y-83317645D01*
X156561828Y-83350362D01*
X156563275Y-83387939D01*
X156546917Y-83421178D01*
X156545557Y-83422631D01*
X156534354Y-83430992D01*
X156517252Y-83436547D01*
X156490082Y-83439840D01*
X156448678Y-83441418D01*
X156388873Y-83441822D01*
X156249511Y-83441822D01*
X156249511Y-83705589D01*
X156249436Y-83781417D01*
X156249028Y-83848083D01*
X156248046Y-83897867D01*
X156246250Y-83933784D01*
X156243399Y-83958850D01*
X156239253Y-83976081D01*
X156233571Y-83988492D01*
X156226114Y-83999100D01*
X156223824Y-84001906D01*
X156192646Y-84024548D01*
X156158266Y-84026112D01*
X156125334Y-84006267D01*
X156118355Y-83998191D01*
X156112883Y-83987593D01*
X156108863Y-83971749D01*
X156106072Y-83947773D01*
X156104288Y-83912774D01*
X156103289Y-83863864D01*
X156102852Y-83798154D01*
X156102756Y-83712756D01*
X156102756Y-83441822D01*
X155956820Y-83441822D01*
X155945720Y-83441821D01*
X155889202Y-83441596D01*
X155850358Y-83440457D01*
X155824965Y-83437657D01*
X155808804Y-83432450D01*
X155797652Y-83424089D01*
X155787289Y-83411826D01*
X155771441Y-83381138D01*
X155774543Y-83347358D01*
X155800187Y-83314822D01*
X155805129Y-83311105D01*
X155815338Y-83306269D01*
X155830764Y-83302506D01*
X155853886Y-83299683D01*
X155887183Y-83297670D01*
X155933137Y-83296333D01*
X155994228Y-83295542D01*
X156072935Y-83295163D01*
X156171740Y-83295067D01*
X156191767Y-83295068D01*
G36*
X156191767Y-83295068D02*
G01*
X156285890Y-83295158D01*
X156360405Y-83295498D01*
X156417811Y-83296239D01*
X156460611Y-83297535D01*
X156491304Y-83299537D01*
X156512391Y-83302396D01*
X156526373Y-83306266D01*
X156535750Y-83311298D01*
X156543022Y-83317645D01*
X156561828Y-83350362D01*
X156563275Y-83387939D01*
X156546917Y-83421178D01*
X156545557Y-83422631D01*
X156534354Y-83430992D01*
X156517252Y-83436547D01*
X156490082Y-83439840D01*
X156448678Y-83441418D01*
X156388873Y-83441822D01*
X156249511Y-83441822D01*
X156249511Y-83705589D01*
X156249436Y-83781417D01*
X156249028Y-83848083D01*
X156248046Y-83897867D01*
X156246250Y-83933784D01*
X156243399Y-83958850D01*
X156239253Y-83976081D01*
X156233571Y-83988492D01*
X156226114Y-83999100D01*
X156223824Y-84001906D01*
X156192646Y-84024548D01*
X156158266Y-84026112D01*
X156125334Y-84006267D01*
X156118355Y-83998191D01*
X156112883Y-83987593D01*
X156108863Y-83971749D01*
X156106072Y-83947773D01*
X156104288Y-83912774D01*
X156103289Y-83863864D01*
X156102852Y-83798154D01*
X156102756Y-83712756D01*
X156102756Y-83441822D01*
X155956820Y-83441822D01*
X155945720Y-83441821D01*
X155889202Y-83441596D01*
X155850358Y-83440457D01*
X155824965Y-83437657D01*
X155808804Y-83432450D01*
X155797652Y-83424089D01*
X155787289Y-83411826D01*
X155771441Y-83381138D01*
X155774543Y-83347358D01*
X155800187Y-83314822D01*
X155805129Y-83311105D01*
X155815338Y-83306269D01*
X155830764Y-83302506D01*
X155853886Y-83299683D01*
X155887183Y-83297670D01*
X155933137Y-83296333D01*
X155994228Y-83295542D01*
X156072935Y-83295163D01*
X156171740Y-83295067D01*
X156191767Y-83295068D01*
G37*
X155515734Y-83317645D02*
X155521366Y-83323835D01*
X155526456Y-83332041D01*
X155530543Y-83343817D01*
X155533721Y-83361276D01*
X155536087Y-83386530D01*
X155537738Y-83421690D01*
X155538769Y-83468869D01*
X155539277Y-83530177D01*
X155539359Y-83607727D01*
X155539109Y-83703631D01*
X155538625Y-83820000D01*
X155538557Y-83834175D01*
X155537971Y-83895937D01*
X155536648Y-83939620D01*
X155534103Y-83969001D01*
X155529848Y-83987855D01*
X155523396Y-83999959D01*
X155514262Y-84009089D01*
X155480804Y-84026506D01*
X155445856Y-84023604D01*
X155414953Y-83999100D01*
X155405944Y-83985897D01*
X155398492Y-83967361D01*
X155394124Y-83941333D01*
X155392069Y-83902787D01*
X155391556Y-83846700D01*
X155391556Y-83724045D01*
X154894845Y-83724045D01*
X154894845Y-83858871D01*
X154894772Y-83894662D01*
X154894009Y-83940992D01*
X154891833Y-83971526D01*
X154887536Y-83990557D01*
X154880412Y-84002374D01*
X154869755Y-84011271D01*
X154837504Y-84026341D01*
X154802217Y-84023673D01*
X154771486Y-83999100D01*
X154766831Y-83992845D01*
X154760895Y-83982321D01*
X154756364Y-83968391D01*
X154753048Y-83948317D01*
X154750759Y-83919360D01*
X154749308Y-83878780D01*
X154748505Y-83823840D01*
X154748162Y-83751799D01*
X154748089Y-83659920D01*
X154748089Y-83350485D01*
X154775798Y-83322776D01*
X154807177Y-83300533D01*
X154840406Y-83297844D01*
X154872267Y-83317645D01*
X154880553Y-83327415D01*
X154887965Y-83343307D01*
X154892302Y-83367275D01*
X154894338Y-83404148D01*
X154894845Y-83458756D01*
X154894845Y-83577289D01*
X155391556Y-83577289D01*
X155391556Y-83461776D01*
X155391994Y-83410078D01*
X155393958Y-83375554D01*
X155398474Y-83352978D01*
X155406567Y-83337126D01*
X155419265Y-83322776D01*
X155450643Y-83300533D01*
X155483872Y-83297844D01*
X155515734Y-83317645D01*
G36*
X155515734Y-83317645D02*
G01*
X155521366Y-83323835D01*
X155526456Y-83332041D01*
X155530543Y-83343817D01*
X155533721Y-83361276D01*
X155536087Y-83386530D01*
X155537738Y-83421690D01*
X155538769Y-83468869D01*
X155539277Y-83530177D01*
X155539359Y-83607727D01*
X155539109Y-83703631D01*
X155538625Y-83820000D01*
X155538557Y-83834175D01*
X155537971Y-83895937D01*
X155536648Y-83939620D01*
X155534103Y-83969001D01*
X155529848Y-83987855D01*
X155523396Y-83999959D01*
X155514262Y-84009089D01*
X155480804Y-84026506D01*
X155445856Y-84023604D01*
X155414953Y-83999100D01*
X155405944Y-83985897D01*
X155398492Y-83967361D01*
X155394124Y-83941333D01*
X155392069Y-83902787D01*
X155391556Y-83846700D01*
X155391556Y-83724045D01*
X154894845Y-83724045D01*
X154894845Y-83858871D01*
X154894772Y-83894662D01*
X154894009Y-83940992D01*
X154891833Y-83971526D01*
X154887536Y-83990557D01*
X154880412Y-84002374D01*
X154869755Y-84011271D01*
X154837504Y-84026341D01*
X154802217Y-84023673D01*
X154771486Y-83999100D01*
X154766831Y-83992845D01*
X154760895Y-83982321D01*
X154756364Y-83968391D01*
X154753048Y-83948317D01*
X154750759Y-83919360D01*
X154749308Y-83878780D01*
X154748505Y-83823840D01*
X154748162Y-83751799D01*
X154748089Y-83659920D01*
X154748089Y-83350485D01*
X154775798Y-83322776D01*
X154807177Y-83300533D01*
X154840406Y-83297844D01*
X154872267Y-83317645D01*
X154880553Y-83327415D01*
X154887965Y-83343307D01*
X154892302Y-83367275D01*
X154894338Y-83404148D01*
X154894845Y-83458756D01*
X154894845Y-83577289D01*
X155391556Y-83577289D01*
X155391556Y-83461776D01*
X155391994Y-83410078D01*
X155393958Y-83375554D01*
X155398474Y-83352978D01*
X155406567Y-83337126D01*
X155419265Y-83322776D01*
X155450643Y-83300533D01*
X155483872Y-83297844D01*
X155515734Y-83317645D01*
G37*
X160221133Y-83906396D02*
X160219163Y-83939175D01*
X160216235Y-83962095D01*
X160212158Y-83977897D01*
X160206743Y-83989319D01*
X160199803Y-83999100D01*
X160176406Y-84028845D01*
X160010714Y-84028251D01*
X159975918Y-84027953D01*
X159877435Y-84024522D01*
X159796473Y-84016839D01*
X159729379Y-84004282D01*
X159672496Y-83986227D01*
X159622169Y-83962052D01*
X159618810Y-83960135D01*
X159560998Y-83923417D01*
X159518644Y-83886451D01*
X159485828Y-83842966D01*
X159456628Y-83786689D01*
X159452346Y-83777073D01*
X159429769Y-83713887D01*
X159424034Y-83668333D01*
X159573279Y-83668333D01*
X159578892Y-83693061D01*
X159584618Y-83708939D01*
X159617548Y-83768847D01*
X159664886Y-83814600D01*
X159728652Y-83847736D01*
X159810861Y-83869790D01*
X159813655Y-83870292D01*
X159859940Y-83876255D01*
X159916336Y-83880483D01*
X159971274Y-83882089D01*
X160065156Y-83882089D01*
X160065156Y-83441822D01*
X159977667Y-83442270D01*
X159910747Y-83444746D01*
X159818349Y-83455998D01*
X159739034Y-83475537D01*
X159677060Y-83502511D01*
X159646120Y-83523240D01*
X159618000Y-83553006D01*
X159594660Y-83595434D01*
X159587533Y-83611400D01*
X159575709Y-83643902D01*
X159573279Y-83668333D01*
X159424034Y-83668333D01*
X159422797Y-83658509D01*
X159431399Y-83603483D01*
X159455541Y-83541351D01*
X159456337Y-83539658D01*
X159496788Y-83470236D01*
X159547473Y-83413638D01*
X159610198Y-83369070D01*
X159686774Y-83335741D01*
X159779009Y-83312861D01*
X159888712Y-83299636D01*
X160017691Y-83295275D01*
X160021263Y-83295270D01*
X160081283Y-83295410D01*
X160123214Y-83296446D01*
X160151328Y-83299040D01*
X160169897Y-83303853D01*
X160183194Y-83311544D01*
X160195491Y-83322776D01*
X160223200Y-83350485D01*
X160223200Y-83659920D01*
X160223175Y-83721526D01*
X160222950Y-83800311D01*
X160222332Y-83861021D01*
X160221775Y-83882089D01*
X160221133Y-83906396D01*
G36*
X160221133Y-83906396D02*
G01*
X160219163Y-83939175D01*
X160216235Y-83962095D01*
X160212158Y-83977897D01*
X160206743Y-83989319D01*
X160199803Y-83999100D01*
X160176406Y-84028845D01*
X160010714Y-84028251D01*
X159975918Y-84027953D01*
X159877435Y-84024522D01*
X159796473Y-84016839D01*
X159729379Y-84004282D01*
X159672496Y-83986227D01*
X159622169Y-83962052D01*
X159618810Y-83960135D01*
X159560998Y-83923417D01*
X159518644Y-83886451D01*
X159485828Y-83842966D01*
X159456628Y-83786689D01*
X159452346Y-83777073D01*
X159429769Y-83713887D01*
X159424034Y-83668333D01*
X159573279Y-83668333D01*
X159578892Y-83693061D01*
X159584618Y-83708939D01*
X159617548Y-83768847D01*
X159664886Y-83814600D01*
X159728652Y-83847736D01*
X159810861Y-83869790D01*
X159813655Y-83870292D01*
X159859940Y-83876255D01*
X159916336Y-83880483D01*
X159971274Y-83882089D01*
X160065156Y-83882089D01*
X160065156Y-83441822D01*
X159977667Y-83442270D01*
X159910747Y-83444746D01*
X159818349Y-83455998D01*
X159739034Y-83475537D01*
X159677060Y-83502511D01*
X159646120Y-83523240D01*
X159618000Y-83553006D01*
X159594660Y-83595434D01*
X159587533Y-83611400D01*
X159575709Y-83643902D01*
X159573279Y-83668333D01*
X159424034Y-83668333D01*
X159422797Y-83658509D01*
X159431399Y-83603483D01*
X159455541Y-83541351D01*
X159456337Y-83539658D01*
X159496788Y-83470236D01*
X159547473Y-83413638D01*
X159610198Y-83369070D01*
X159686774Y-83335741D01*
X159779009Y-83312861D01*
X159888712Y-83299636D01*
X160017691Y-83295275D01*
X160021263Y-83295270D01*
X160081283Y-83295410D01*
X160123214Y-83296446D01*
X160151328Y-83299040D01*
X160169897Y-83303853D01*
X160183194Y-83311544D01*
X160195491Y-83322776D01*
X160223200Y-83350485D01*
X160223200Y-83659920D01*
X160223175Y-83721526D01*
X160222950Y-83800311D01*
X160222332Y-83861021D01*
X160221775Y-83882089D01*
X160221133Y-83906396D01*
G37*
X167312817Y-83480427D02*
X167312870Y-83561041D01*
X167312622Y-83661956D01*
X167312583Y-83737617D01*
X167312328Y-83815526D01*
X167311684Y-83875536D01*
X167310480Y-83920264D01*
X167308543Y-83952326D01*
X167305703Y-83974340D01*
X167301788Y-83988924D01*
X167296626Y-83998694D01*
X167290045Y-84006267D01*
X167283077Y-84012501D01*
X167270079Y-84019801D01*
X167250931Y-84024554D01*
X167221528Y-84027292D01*
X167177762Y-84028545D01*
X167115528Y-84028845D01*
X167066582Y-84028469D01*
X166959722Y-84024041D01*
X166870494Y-84013953D01*
X166795696Y-83997365D01*
X166732125Y-83973435D01*
X166676579Y-83941321D01*
X166625854Y-83900182D01*
X166619866Y-83894330D01*
X166582999Y-83845821D01*
X166551899Y-83785013D01*
X166530417Y-83720769D01*
X166525136Y-83682026D01*
X166672353Y-83682026D01*
X166690635Y-83732961D01*
X166720305Y-83778878D01*
X166767002Y-83821287D01*
X166828392Y-83851090D01*
X166907538Y-83870226D01*
X166909028Y-83870464D01*
X166957999Y-83876256D01*
X167016693Y-83880396D01*
X167072734Y-83882004D01*
X167165867Y-83882089D01*
X167165867Y-83441822D01*
X167089667Y-83441808D01*
X167086639Y-83441817D01*
X167035519Y-83443782D01*
X166975416Y-83448507D01*
X166918708Y-83455035D01*
X166868750Y-83464331D01*
X166793998Y-83490600D01*
X166736489Y-83529899D01*
X166694988Y-83582933D01*
X166673771Y-83634200D01*
X166672353Y-83682026D01*
X166525136Y-83682026D01*
X166522400Y-83661956D01*
X166523679Y-83640739D01*
X166535991Y-83583323D01*
X166558520Y-83523413D01*
X166587750Y-83469363D01*
X166620167Y-83429532D01*
X166639708Y-83412510D01*
X166694420Y-83373322D01*
X166754723Y-83343193D01*
X166823919Y-83321232D01*
X166905311Y-83306550D01*
X167002200Y-83298259D01*
X167117889Y-83295467D01*
X167157371Y-83295066D01*
X167203082Y-83294653D01*
X167238883Y-83296457D01*
X167265974Y-83302739D01*
X167285556Y-83315759D01*
X167298830Y-83337778D01*
X167306998Y-83371055D01*
X167311260Y-83417851D01*
X167311857Y-83441822D01*
X167312817Y-83480427D01*
G36*
X167312817Y-83480427D02*
G01*
X167312870Y-83561041D01*
X167312622Y-83661956D01*
X167312583Y-83737617D01*
X167312328Y-83815526D01*
X167311684Y-83875536D01*
X167310480Y-83920264D01*
X167308543Y-83952326D01*
X167305703Y-83974340D01*
X167301788Y-83988924D01*
X167296626Y-83998694D01*
X167290045Y-84006267D01*
X167283077Y-84012501D01*
X167270079Y-84019801D01*
X167250931Y-84024554D01*
X167221528Y-84027292D01*
X167177762Y-84028545D01*
X167115528Y-84028845D01*
X167066582Y-84028469D01*
X166959722Y-84024041D01*
X166870494Y-84013953D01*
X166795696Y-83997365D01*
X166732125Y-83973435D01*
X166676579Y-83941321D01*
X166625854Y-83900182D01*
X166619866Y-83894330D01*
X166582999Y-83845821D01*
X166551899Y-83785013D01*
X166530417Y-83720769D01*
X166525136Y-83682026D01*
X166672353Y-83682026D01*
X166690635Y-83732961D01*
X166720305Y-83778878D01*
X166767002Y-83821287D01*
X166828392Y-83851090D01*
X166907538Y-83870226D01*
X166909028Y-83870464D01*
X166957999Y-83876256D01*
X167016693Y-83880396D01*
X167072734Y-83882004D01*
X167165867Y-83882089D01*
X167165867Y-83441822D01*
X167089667Y-83441808D01*
X167086639Y-83441817D01*
X167035519Y-83443782D01*
X166975416Y-83448507D01*
X166918708Y-83455035D01*
X166868750Y-83464331D01*
X166793998Y-83490600D01*
X166736489Y-83529899D01*
X166694988Y-83582933D01*
X166673771Y-83634200D01*
X166672353Y-83682026D01*
X166525136Y-83682026D01*
X166522400Y-83661956D01*
X166523679Y-83640739D01*
X166535991Y-83583323D01*
X166558520Y-83523413D01*
X166587750Y-83469363D01*
X166620167Y-83429532D01*
X166639708Y-83412510D01*
X166694420Y-83373322D01*
X166754723Y-83343193D01*
X166823919Y-83321232D01*
X166905311Y-83306550D01*
X167002200Y-83298259D01*
X167117889Y-83295467D01*
X167157371Y-83295066D01*
X167203082Y-83294653D01*
X167238883Y-83296457D01*
X167265974Y-83302739D01*
X167285556Y-83315759D01*
X167298830Y-83337778D01*
X167306998Y-83371055D01*
X167311260Y-83417851D01*
X167311857Y-83441822D01*
X167312817Y-83480427D01*
G37*
X162367893Y-83293892D02*
X162379301Y-83300029D01*
X162389850Y-83310691D01*
X162401136Y-83324811D01*
X162405589Y-83330772D01*
X162411588Y-83341268D01*
X162416167Y-83355093D01*
X162419519Y-83374998D01*
X162421833Y-83403732D01*
X162423301Y-83444045D01*
X162424113Y-83498687D01*
X162424460Y-83570407D01*
X162424534Y-83661956D01*
X162424511Y-83720486D01*
X162424292Y-83799573D01*
X162423683Y-83860516D01*
X162422492Y-83906062D01*
X162420529Y-83938963D01*
X162417603Y-83961968D01*
X162413523Y-83977826D01*
X162408097Y-83989286D01*
X162401136Y-83999100D01*
X162370708Y-84023493D01*
X162335765Y-84026372D01*
X162298784Y-84007282D01*
X162294600Y-84003807D01*
X162286424Y-83995279D01*
X162280364Y-83983728D01*
X162275981Y-83965896D01*
X162272839Y-83938524D01*
X162270502Y-83898354D01*
X162268531Y-83842128D01*
X162266489Y-83766589D01*
X162260845Y-83547458D01*
X161995556Y-83788099D01*
X161921722Y-83854875D01*
X161856542Y-83912991D01*
X161804348Y-83957949D01*
X161763273Y-83990871D01*
X161731455Y-84012879D01*
X161707026Y-84025094D01*
X161688124Y-84028639D01*
X161672883Y-84024636D01*
X161659439Y-84014207D01*
X161645927Y-83998474D01*
X161639682Y-83989991D01*
X161634050Y-83979413D01*
X161629839Y-83965255D01*
X161626887Y-83944803D01*
X161625032Y-83915342D01*
X161624113Y-83874161D01*
X161623968Y-83818544D01*
X161624435Y-83745779D01*
X161625352Y-83653151D01*
X161628667Y-83338199D01*
X161655318Y-83316633D01*
X161681383Y-83300441D01*
X161714241Y-83297670D01*
X161748772Y-83316623D01*
X161753084Y-83320208D01*
X161761216Y-83328737D01*
X161767245Y-83340329D01*
X161771606Y-83358235D01*
X161774734Y-83385706D01*
X161777063Y-83425994D01*
X161779029Y-83482351D01*
X161781067Y-83558029D01*
X161786711Y-83777878D01*
X161967334Y-83614084D01*
X162054072Y-83535451D01*
X162129843Y-83467058D01*
X162191980Y-83411708D01*
X162242078Y-83368338D01*
X162281735Y-83335881D01*
X162312548Y-83313273D01*
X162336114Y-83299448D01*
X162354030Y-83293343D01*
X162367893Y-83293892D01*
G36*
X162367893Y-83293892D02*
G01*
X162379301Y-83300029D01*
X162389850Y-83310691D01*
X162401136Y-83324811D01*
X162405589Y-83330772D01*
X162411588Y-83341268D01*
X162416167Y-83355093D01*
X162419519Y-83374998D01*
X162421833Y-83403732D01*
X162423301Y-83444045D01*
X162424113Y-83498687D01*
X162424460Y-83570407D01*
X162424534Y-83661956D01*
X162424511Y-83720486D01*
X162424292Y-83799573D01*
X162423683Y-83860516D01*
X162422492Y-83906062D01*
X162420529Y-83938963D01*
X162417603Y-83961968D01*
X162413523Y-83977826D01*
X162408097Y-83989286D01*
X162401136Y-83999100D01*
X162370708Y-84023493D01*
X162335765Y-84026372D01*
X162298784Y-84007282D01*
X162294600Y-84003807D01*
X162286424Y-83995279D01*
X162280364Y-83983728D01*
X162275981Y-83965896D01*
X162272839Y-83938524D01*
X162270502Y-83898354D01*
X162268531Y-83842128D01*
X162266489Y-83766589D01*
X162260845Y-83547458D01*
X161995556Y-83788099D01*
X161921722Y-83854875D01*
X161856542Y-83912991D01*
X161804348Y-83957949D01*
X161763273Y-83990871D01*
X161731455Y-84012879D01*
X161707026Y-84025094D01*
X161688124Y-84028639D01*
X161672883Y-84024636D01*
X161659439Y-84014207D01*
X161645927Y-83998474D01*
X161639682Y-83989991D01*
X161634050Y-83979413D01*
X161629839Y-83965255D01*
X161626887Y-83944803D01*
X161625032Y-83915342D01*
X161624113Y-83874161D01*
X161623968Y-83818544D01*
X161624435Y-83745779D01*
X161625352Y-83653151D01*
X161628667Y-83338199D01*
X161655318Y-83316633D01*
X161681383Y-83300441D01*
X161714241Y-83297670D01*
X161748772Y-83316623D01*
X161753084Y-83320208D01*
X161761216Y-83328737D01*
X161767245Y-83340329D01*
X161771606Y-83358235D01*
X161774734Y-83385706D01*
X161777063Y-83425994D01*
X161779029Y-83482351D01*
X161781067Y-83558029D01*
X161786711Y-83777878D01*
X161967334Y-83614084D01*
X162054072Y-83535451D01*
X162129843Y-83467058D01*
X162191980Y-83411708D01*
X162242078Y-83368338D01*
X162281735Y-83335881D01*
X162312548Y-83313273D01*
X162336114Y-83299448D01*
X162354030Y-83293343D01*
X162367893Y-83293892D01*
G37*
X163165150Y-83300179D02*
X163271157Y-83316494D01*
X163364969Y-83344545D01*
X163443765Y-83383452D01*
X163504719Y-83432334D01*
X163530789Y-83465195D01*
X163560297Y-83514394D01*
X163585568Y-83568252D01*
X163603218Y-83619419D01*
X163609858Y-83660544D01*
X163608298Y-83680259D01*
X163595357Y-83731592D01*
X163572194Y-83788118D01*
X163542302Y-83842035D01*
X163509173Y-83885539D01*
X163498977Y-83895887D01*
X163431892Y-83947662D01*
X163351766Y-83987554D01*
X163265556Y-84011956D01*
X163210592Y-84020068D01*
X163117139Y-84026673D01*
X163027358Y-84024586D01*
X162944869Y-84014340D01*
X162873286Y-83996470D01*
X162816228Y-83971508D01*
X162777311Y-83939988D01*
X162775936Y-83938012D01*
X162768848Y-83912786D01*
X162764609Y-83865535D01*
X162763200Y-83796071D01*
X162764060Y-83733838D01*
X162768780Y-83686456D01*
X162780470Y-83654353D01*
X162802239Y-83634800D01*
X162837198Y-83625070D01*
X162888456Y-83622433D01*
X162959123Y-83624161D01*
X163007743Y-83627173D01*
X163057939Y-83635366D01*
X163090433Y-83649419D01*
X163107892Y-83670654D01*
X163112983Y-83700394D01*
X163112877Y-83704936D01*
X163104175Y-83739730D01*
X163080165Y-83763147D01*
X163038900Y-83776347D01*
X162978431Y-83780489D01*
X162909956Y-83780489D01*
X162909956Y-83818841D01*
X162910006Y-83827976D01*
X162912227Y-83845227D01*
X162921494Y-83855521D01*
X162942875Y-83862459D01*
X162981436Y-83869641D01*
X162986910Y-83870575D01*
X163083860Y-83880478D01*
X163173852Y-83877559D01*
X163254760Y-83862829D01*
X163324459Y-83837299D01*
X163380824Y-83801978D01*
X163421729Y-83757879D01*
X163445051Y-83706012D01*
X163448663Y-83647388D01*
X163443145Y-83618494D01*
X163416461Y-83562604D01*
X163370273Y-83516945D01*
X163305291Y-83482108D01*
X163222229Y-83458690D01*
X163197555Y-83454241D01*
X163108226Y-83443742D01*
X163028419Y-83444971D01*
X162950326Y-83457906D01*
X162915183Y-83464696D01*
X162869745Y-83465713D01*
X162838430Y-83453182D01*
X162818277Y-83426395D01*
X162811893Y-83398148D01*
X162821379Y-83366924D01*
X162830708Y-83353499D01*
X162864943Y-83329967D01*
X162917565Y-83312095D01*
X162986081Y-83300599D01*
X163068000Y-83296192D01*
X163165150Y-83300179D01*
G36*
X163165150Y-83300179D02*
G01*
X163271157Y-83316494D01*
X163364969Y-83344545D01*
X163443765Y-83383452D01*
X163504719Y-83432334D01*
X163530789Y-83465195D01*
X163560297Y-83514394D01*
X163585568Y-83568252D01*
X163603218Y-83619419D01*
X163609858Y-83660544D01*
X163608298Y-83680259D01*
X163595357Y-83731592D01*
X163572194Y-83788118D01*
X163542302Y-83842035D01*
X163509173Y-83885539D01*
X163498977Y-83895887D01*
X163431892Y-83947662D01*
X163351766Y-83987554D01*
X163265556Y-84011956D01*
X163210592Y-84020068D01*
X163117139Y-84026673D01*
X163027358Y-84024586D01*
X162944869Y-84014340D01*
X162873286Y-83996470D01*
X162816228Y-83971508D01*
X162777311Y-83939988D01*
X162775936Y-83938012D01*
X162768848Y-83912786D01*
X162764609Y-83865535D01*
X162763200Y-83796071D01*
X162764060Y-83733838D01*
X162768780Y-83686456D01*
X162780470Y-83654353D01*
X162802239Y-83634800D01*
X162837198Y-83625070D01*
X162888456Y-83622433D01*
X162959123Y-83624161D01*
X163007743Y-83627173D01*
X163057939Y-83635366D01*
X163090433Y-83649419D01*
X163107892Y-83670654D01*
X163112983Y-83700394D01*
X163112877Y-83704936D01*
X163104175Y-83739730D01*
X163080165Y-83763147D01*
X163038900Y-83776347D01*
X162978431Y-83780489D01*
X162909956Y-83780489D01*
X162909956Y-83818841D01*
X162910006Y-83827976D01*
X162912227Y-83845227D01*
X162921494Y-83855521D01*
X162942875Y-83862459D01*
X162981436Y-83869641D01*
X162986910Y-83870575D01*
X163083860Y-83880478D01*
X163173852Y-83877559D01*
X163254760Y-83862829D01*
X163324459Y-83837299D01*
X163380824Y-83801978D01*
X163421729Y-83757879D01*
X163445051Y-83706012D01*
X163448663Y-83647388D01*
X163443145Y-83618494D01*
X163416461Y-83562604D01*
X163370273Y-83516945D01*
X163305291Y-83482108D01*
X163222229Y-83458690D01*
X163197555Y-83454241D01*
X163108226Y-83443742D01*
X163028419Y-83444971D01*
X162950326Y-83457906D01*
X162915183Y-83464696D01*
X162869745Y-83465713D01*
X162838430Y-83453182D01*
X162818277Y-83426395D01*
X162811893Y-83398148D01*
X162821379Y-83366924D01*
X162830708Y-83353499D01*
X162864943Y-83329967D01*
X162917565Y-83312095D01*
X162986081Y-83300599D01*
X163068000Y-83296192D01*
X163165150Y-83300179D01*
G37*
X161215803Y-83324811D02*
X161220752Y-83331495D01*
X161226596Y-83342066D01*
X161231057Y-83356153D01*
X161234321Y-83376478D01*
X161236574Y-83405765D01*
X161238002Y-83446737D01*
X161238792Y-83502117D01*
X161239129Y-83574628D01*
X161239200Y-83666994D01*
X161239171Y-83732911D01*
X161238939Y-83811228D01*
X161238319Y-83871496D01*
X161237126Y-83916393D01*
X161235179Y-83948602D01*
X161232294Y-83970800D01*
X161228288Y-83985669D01*
X161222979Y-83995889D01*
X161216183Y-84004138D01*
X161211668Y-84008795D01*
X161203438Y-84015282D01*
X161192078Y-84020194D01*
X161174810Y-84023749D01*
X161148855Y-84026167D01*
X161111436Y-84027667D01*
X161059773Y-84028467D01*
X160991089Y-84028787D01*
X160902606Y-84028845D01*
X160882931Y-84028838D01*
X160795906Y-84028572D01*
X160728254Y-84027806D01*
X160677299Y-84026392D01*
X160640367Y-84024180D01*
X160614783Y-84021022D01*
X160597871Y-84016769D01*
X160586957Y-84011271D01*
X160576464Y-84001285D01*
X160563203Y-83970168D01*
X160564386Y-83934280D01*
X160580550Y-83902733D01*
X160582739Y-83900457D01*
X160591427Y-83894189D01*
X160604769Y-83889523D01*
X160625752Y-83886227D01*
X160657363Y-83884068D01*
X160702590Y-83882814D01*
X160764420Y-83882231D01*
X160845839Y-83882089D01*
X161092445Y-83882089D01*
X161092445Y-83724045D01*
X160930006Y-83724045D01*
X160894338Y-83723964D01*
X160838568Y-83723167D01*
X160799430Y-83721162D01*
X160772976Y-83717521D01*
X160755259Y-83711812D01*
X160742329Y-83703607D01*
X160738686Y-83700423D01*
X160720278Y-83669448D01*
X160719644Y-83633112D01*
X160737183Y-83599493D01*
X160737245Y-83599424D01*
X160746916Y-83590798D01*
X160760209Y-83584742D01*
X160780917Y-83580811D01*
X160812828Y-83578556D01*
X160859734Y-83577531D01*
X160925424Y-83577289D01*
X161093571Y-83577289D01*
X161090186Y-83512378D01*
X161086800Y-83447467D01*
X160844723Y-83444414D01*
X160819707Y-83444086D01*
X160738087Y-83442606D01*
X160675768Y-83440222D01*
X160630154Y-83436227D01*
X160598652Y-83429913D01*
X160578667Y-83420574D01*
X160567604Y-83407503D01*
X160562869Y-83389992D01*
X160561867Y-83367335D01*
X160561873Y-83364970D01*
X160563027Y-83344939D01*
X160567824Y-83329146D01*
X160578632Y-83317090D01*
X160597817Y-83308267D01*
X160627745Y-83302175D01*
X160670783Y-83298311D01*
X160729299Y-83296174D01*
X160805657Y-83295260D01*
X160902226Y-83295067D01*
X161192406Y-83295067D01*
X161215803Y-83324811D01*
G36*
X161215803Y-83324811D02*
G01*
X161220752Y-83331495D01*
X161226596Y-83342066D01*
X161231057Y-83356153D01*
X161234321Y-83376478D01*
X161236574Y-83405765D01*
X161238002Y-83446737D01*
X161238792Y-83502117D01*
X161239129Y-83574628D01*
X161239200Y-83666994D01*
X161239171Y-83732911D01*
X161238939Y-83811228D01*
X161238319Y-83871496D01*
X161237126Y-83916393D01*
X161235179Y-83948602D01*
X161232294Y-83970800D01*
X161228288Y-83985669D01*
X161222979Y-83995889D01*
X161216183Y-84004138D01*
X161211668Y-84008795D01*
X161203438Y-84015282D01*
X161192078Y-84020194D01*
X161174810Y-84023749D01*
X161148855Y-84026167D01*
X161111436Y-84027667D01*
X161059773Y-84028467D01*
X160991089Y-84028787D01*
X160902606Y-84028845D01*
X160882931Y-84028838D01*
X160795906Y-84028572D01*
X160728254Y-84027806D01*
X160677299Y-84026392D01*
X160640367Y-84024180D01*
X160614783Y-84021022D01*
X160597871Y-84016769D01*
X160586957Y-84011271D01*
X160576464Y-84001285D01*
X160563203Y-83970168D01*
X160564386Y-83934280D01*
X160580550Y-83902733D01*
X160582739Y-83900457D01*
X160591427Y-83894189D01*
X160604769Y-83889523D01*
X160625752Y-83886227D01*
X160657363Y-83884068D01*
X160702590Y-83882814D01*
X160764420Y-83882231D01*
X160845839Y-83882089D01*
X161092445Y-83882089D01*
X161092445Y-83724045D01*
X160930006Y-83724045D01*
X160894338Y-83723964D01*
X160838568Y-83723167D01*
X160799430Y-83721162D01*
X160772976Y-83717521D01*
X160755259Y-83711812D01*
X160742329Y-83703607D01*
X160738686Y-83700423D01*
X160720278Y-83669448D01*
X160719644Y-83633112D01*
X160737183Y-83599493D01*
X160737245Y-83599424D01*
X160746916Y-83590798D01*
X160760209Y-83584742D01*
X160780917Y-83580811D01*
X160812828Y-83578556D01*
X160859734Y-83577531D01*
X160925424Y-83577289D01*
X161093571Y-83577289D01*
X161090186Y-83512378D01*
X161086800Y-83447467D01*
X160844723Y-83444414D01*
X160819707Y-83444086D01*
X160738087Y-83442606D01*
X160675768Y-83440222D01*
X160630154Y-83436227D01*
X160598652Y-83429913D01*
X160578667Y-83420574D01*
X160567604Y-83407503D01*
X160562869Y-83389992D01*
X160561867Y-83367335D01*
X160561873Y-83364970D01*
X160563027Y-83344939D01*
X160567824Y-83329146D01*
X160578632Y-83317090D01*
X160597817Y-83308267D01*
X160627745Y-83302175D01*
X160670783Y-83298311D01*
X160729299Y-83296174D01*
X160805657Y-83295260D01*
X160902226Y-83295067D01*
X161192406Y-83295067D01*
X161215803Y-83324811D01*
G37*
X165892734Y-83295083D02*
X165969831Y-83295275D01*
X166028777Y-83295860D01*
X166072364Y-83297051D01*
X166103383Y-83299064D01*
X166124625Y-83302112D01*
X166138882Y-83306409D01*
X166148945Y-83312172D01*
X166157606Y-83319612D01*
X166159391Y-83321293D01*
X166166635Y-83328832D01*
X166172277Y-83337850D01*
X166176517Y-83350984D01*
X166179556Y-83370872D01*
X166181594Y-83400151D01*
X166182830Y-83441458D01*
X166183465Y-83497431D01*
X166183700Y-83570707D01*
X166183734Y-83663923D01*
X166183697Y-83736713D01*
X166183448Y-83814889D01*
X166182812Y-83875103D01*
X166181615Y-83919982D01*
X166179684Y-83952152D01*
X166176846Y-83974239D01*
X166172927Y-83988870D01*
X166167755Y-83998670D01*
X166161156Y-84006267D01*
X166157822Y-84009444D01*
X166149300Y-84015554D01*
X166137298Y-84020229D01*
X166119087Y-84023659D01*
X166091940Y-84026036D01*
X166053129Y-84027552D01*
X165999924Y-84028398D01*
X165929598Y-84028765D01*
X165839422Y-84028845D01*
X165797314Y-84028833D01*
X165716167Y-84028651D01*
X165653675Y-84028098D01*
X165607109Y-84026982D01*
X165573741Y-84025113D01*
X165550844Y-84022298D01*
X165535688Y-84018346D01*
X165525546Y-84013066D01*
X165517689Y-84006267D01*
X165502963Y-83984667D01*
X165495111Y-83955467D01*
X165500610Y-83931560D01*
X165517689Y-83904667D01*
X165522668Y-83900059D01*
X165532443Y-83893772D01*
X165546559Y-83889146D01*
X165568054Y-83885930D01*
X165599968Y-83883870D01*
X165645342Y-83882712D01*
X165707213Y-83882202D01*
X165788622Y-83882089D01*
X166036978Y-83882089D01*
X166036978Y-83724045D01*
X165875801Y-83724045D01*
X165839983Y-83723899D01*
X165774359Y-83722176D01*
X165727118Y-83717741D01*
X165695383Y-83709637D01*
X165676277Y-83696906D01*
X165666923Y-83678592D01*
X165664445Y-83653738D01*
X165665242Y-83633482D01*
X165670494Y-83611656D01*
X165683288Y-83596304D01*
X165706628Y-83586309D01*
X165743517Y-83580553D01*
X165796959Y-83577919D01*
X165869958Y-83577289D01*
X166038105Y-83577289D01*
X166034719Y-83512378D01*
X166031334Y-83447467D01*
X165783617Y-83444418D01*
X165721026Y-83443539D01*
X165652565Y-83442095D01*
X165601661Y-83440164D01*
X165565408Y-83437514D01*
X165540901Y-83433910D01*
X165525235Y-83429121D01*
X165515506Y-83422913D01*
X165509491Y-83416510D01*
X165496482Y-83384828D01*
X165500043Y-83349142D01*
X165519818Y-83318084D01*
X165523069Y-83315161D01*
X165532049Y-83308810D01*
X165544153Y-83303957D01*
X165562159Y-83300403D01*
X165588847Y-83297946D01*
X165626997Y-83296385D01*
X165679386Y-83295518D01*
X165748794Y-83295146D01*
X165838001Y-83295067D01*
X165892734Y-83295083D01*
G36*
X165892734Y-83295083D02*
G01*
X165969831Y-83295275D01*
X166028777Y-83295860D01*
X166072364Y-83297051D01*
X166103383Y-83299064D01*
X166124625Y-83302112D01*
X166138882Y-83306409D01*
X166148945Y-83312172D01*
X166157606Y-83319612D01*
X166159391Y-83321293D01*
X166166635Y-83328832D01*
X166172277Y-83337850D01*
X166176517Y-83350984D01*
X166179556Y-83370872D01*
X166181594Y-83400151D01*
X166182830Y-83441458D01*
X166183465Y-83497431D01*
X166183700Y-83570707D01*
X166183734Y-83663923D01*
X166183697Y-83736713D01*
X166183448Y-83814889D01*
X166182812Y-83875103D01*
X166181615Y-83919982D01*
X166179684Y-83952152D01*
X166176846Y-83974239D01*
X166172927Y-83988870D01*
X166167755Y-83998670D01*
X166161156Y-84006267D01*
X166157822Y-84009444D01*
X166149300Y-84015554D01*
X166137298Y-84020229D01*
X166119087Y-84023659D01*
X166091940Y-84026036D01*
X166053129Y-84027552D01*
X165999924Y-84028398D01*
X165929598Y-84028765D01*
X165839422Y-84028845D01*
X165797314Y-84028833D01*
X165716167Y-84028651D01*
X165653675Y-84028098D01*
X165607109Y-84026982D01*
X165573741Y-84025113D01*
X165550844Y-84022298D01*
X165535688Y-84018346D01*
X165525546Y-84013066D01*
X165517689Y-84006267D01*
X165502963Y-83984667D01*
X165495111Y-83955467D01*
X165500610Y-83931560D01*
X165517689Y-83904667D01*
X165522668Y-83900059D01*
X165532443Y-83893772D01*
X165546559Y-83889146D01*
X165568054Y-83885930D01*
X165599968Y-83883870D01*
X165645342Y-83882712D01*
X165707213Y-83882202D01*
X165788622Y-83882089D01*
X166036978Y-83882089D01*
X166036978Y-83724045D01*
X165875801Y-83724045D01*
X165839983Y-83723899D01*
X165774359Y-83722176D01*
X165727118Y-83717741D01*
X165695383Y-83709637D01*
X165676277Y-83696906D01*
X165666923Y-83678592D01*
X165664445Y-83653738D01*
X165665242Y-83633482D01*
X165670494Y-83611656D01*
X165683288Y-83596304D01*
X165706628Y-83586309D01*
X165743517Y-83580553D01*
X165796959Y-83577919D01*
X165869958Y-83577289D01*
X166038105Y-83577289D01*
X166034719Y-83512378D01*
X166031334Y-83447467D01*
X165783617Y-83444418D01*
X165721026Y-83443539D01*
X165652565Y-83442095D01*
X165601661Y-83440164D01*
X165565408Y-83437514D01*
X165540901Y-83433910D01*
X165525235Y-83429121D01*
X165515506Y-83422913D01*
X165509491Y-83416510D01*
X165496482Y-83384828D01*
X165500043Y-83349142D01*
X165519818Y-83318084D01*
X165523069Y-83315161D01*
X165532049Y-83308810D01*
X165544153Y-83303957D01*
X165562159Y-83300403D01*
X165588847Y-83297946D01*
X165626997Y-83296385D01*
X165679386Y-83295518D01*
X165748794Y-83295146D01*
X165838001Y-83295067D01*
X165892734Y-83295083D01*
G37*
X157325702Y-83304478D02*
X157343663Y-83322989D01*
X157364263Y-83354071D01*
X157389095Y-83399756D01*
X157419750Y-83462078D01*
X157457820Y-83543071D01*
X157472454Y-83574454D01*
X157502203Y-83637638D01*
X157528297Y-83692244D01*
X157549292Y-83735290D01*
X157563739Y-83763793D01*
X157570191Y-83774770D01*
X157571550Y-83774189D01*
X157581542Y-83760242D01*
X157598833Y-83730704D01*
X157621430Y-83689087D01*
X157647338Y-83638903D01*
X157663311Y-83607414D01*
X157692261Y-83552061D01*
X157714749Y-83513044D01*
X157732965Y-83487566D01*
X157749096Y-83472831D01*
X157765330Y-83466042D01*
X157783857Y-83464400D01*
X157794360Y-83464875D01*
X157810476Y-83469082D01*
X157825790Y-83479946D01*
X157842388Y-83500219D01*
X157862357Y-83532654D01*
X157887783Y-83580004D01*
X157920752Y-83645022D01*
X157930485Y-83664277D01*
X157954943Y-83710946D01*
X157975178Y-83747109D01*
X157989311Y-83769497D01*
X157995460Y-83774845D01*
X157996827Y-83771573D01*
X158006202Y-83750664D01*
X158023062Y-83713725D01*
X158045979Y-83663874D01*
X158073520Y-83604226D01*
X158104255Y-83537898D01*
X158130970Y-83480677D01*
X158160593Y-83418688D01*
X158183664Y-83372949D01*
X158201643Y-83340908D01*
X158215990Y-83320014D01*
X158228166Y-83307718D01*
X158239632Y-83301466D01*
X158249042Y-83298574D01*
X158274147Y-83298425D01*
X158301290Y-83313768D01*
X158302590Y-83314753D01*
X158324674Y-83337388D01*
X158335723Y-83359613D01*
X158335769Y-83360253D01*
X158331228Y-83377915D01*
X158318364Y-83412481D01*
X158298605Y-83460826D01*
X158273381Y-83519825D01*
X158244119Y-83586355D01*
X158212250Y-83657291D01*
X158179201Y-83729507D01*
X158146401Y-83799880D01*
X158115280Y-83865285D01*
X158087265Y-83922597D01*
X158063786Y-83968692D01*
X158046272Y-84000446D01*
X158036151Y-84014733D01*
X158001743Y-84028102D01*
X157960046Y-84021741D01*
X157954681Y-84017044D01*
X157938852Y-83994893D01*
X157916650Y-83958132D01*
X157890233Y-83910415D01*
X157861760Y-83855393D01*
X157781986Y-83696150D01*
X157708799Y-83842742D01*
X157699103Y-83862032D01*
X157672125Y-83914380D01*
X157648096Y-83959170D01*
X157629332Y-83992154D01*
X157618146Y-84009089D01*
X157617000Y-84010332D01*
X157588879Y-84025619D01*
X157553817Y-84027302D01*
X157522776Y-84014733D01*
X157520350Y-84011884D01*
X157508090Y-83991259D01*
X157488352Y-83953708D01*
X157462448Y-83901880D01*
X157431685Y-83838423D01*
X157397375Y-83765985D01*
X157360825Y-83687216D01*
X157340585Y-83643093D01*
X157303812Y-83562365D01*
X157275355Y-83498687D01*
X157254331Y-83449752D01*
X157239854Y-83413257D01*
X157231039Y-83386895D01*
X157227004Y-83368361D01*
X157226862Y-83355352D01*
X157229730Y-83345561D01*
X157244387Y-83324678D01*
X157270990Y-83304377D01*
X157271745Y-83304035D01*
X157291335Y-83297034D01*
X157308790Y-83296504D01*
X157325702Y-83304478D01*
G36*
X157325702Y-83304478D02*
G01*
X157343663Y-83322989D01*
X157364263Y-83354071D01*
X157389095Y-83399756D01*
X157419750Y-83462078D01*
X157457820Y-83543071D01*
X157472454Y-83574454D01*
X157502203Y-83637638D01*
X157528297Y-83692244D01*
X157549292Y-83735290D01*
X157563739Y-83763793D01*
X157570191Y-83774770D01*
X157571550Y-83774189D01*
X157581542Y-83760242D01*
X157598833Y-83730704D01*
X157621430Y-83689087D01*
X157647338Y-83638903D01*
X157663311Y-83607414D01*
X157692261Y-83552061D01*
X157714749Y-83513044D01*
X157732965Y-83487566D01*
X157749096Y-83472831D01*
X157765330Y-83466042D01*
X157783857Y-83464400D01*
X157794360Y-83464875D01*
X157810476Y-83469082D01*
X157825790Y-83479946D01*
X157842388Y-83500219D01*
X157862357Y-83532654D01*
X157887783Y-83580004D01*
X157920752Y-83645022D01*
X157930485Y-83664277D01*
X157954943Y-83710946D01*
X157975178Y-83747109D01*
X157989311Y-83769497D01*
X157995460Y-83774845D01*
X157996827Y-83771573D01*
X158006202Y-83750664D01*
X158023062Y-83713725D01*
X158045979Y-83663874D01*
X158073520Y-83604226D01*
X158104255Y-83537898D01*
X158130970Y-83480677D01*
X158160593Y-83418688D01*
X158183664Y-83372949D01*
X158201643Y-83340908D01*
X158215990Y-83320014D01*
X158228166Y-83307718D01*
X158239632Y-83301466D01*
X158249042Y-83298574D01*
X158274147Y-83298425D01*
X158301290Y-83313768D01*
X158302590Y-83314753D01*
X158324674Y-83337388D01*
X158335723Y-83359613D01*
X158335769Y-83360253D01*
X158331228Y-83377915D01*
X158318364Y-83412481D01*
X158298605Y-83460826D01*
X158273381Y-83519825D01*
X158244119Y-83586355D01*
X158212250Y-83657291D01*
X158179201Y-83729507D01*
X158146401Y-83799880D01*
X158115280Y-83865285D01*
X158087265Y-83922597D01*
X158063786Y-83968692D01*
X158046272Y-84000446D01*
X158036151Y-84014733D01*
X158001743Y-84028102D01*
X157960046Y-84021741D01*
X157954681Y-84017044D01*
X157938852Y-83994893D01*
X157916650Y-83958132D01*
X157890233Y-83910415D01*
X157861760Y-83855393D01*
X157781986Y-83696150D01*
X157708799Y-83842742D01*
X157699103Y-83862032D01*
X157672125Y-83914380D01*
X157648096Y-83959170D01*
X157629332Y-83992154D01*
X157618146Y-84009089D01*
X157617000Y-84010332D01*
X157588879Y-84025619D01*
X157553817Y-84027302D01*
X157522776Y-84014733D01*
X157520350Y-84011884D01*
X157508090Y-83991259D01*
X157488352Y-83953708D01*
X157462448Y-83901880D01*
X157431685Y-83838423D01*
X157397375Y-83765985D01*
X157360825Y-83687216D01*
X157340585Y-83643093D01*
X157303812Y-83562365D01*
X157275355Y-83498687D01*
X157254331Y-83449752D01*
X157239854Y-83413257D01*
X157231039Y-83386895D01*
X157227004Y-83368361D01*
X157226862Y-83355352D01*
X157229730Y-83345561D01*
X157244387Y-83324678D01*
X157270990Y-83304377D01*
X157271745Y-83304035D01*
X157291335Y-83297034D01*
X157308790Y-83296504D01*
X157325702Y-83304478D01*
G37*
X164876853Y-83295936D02*
X164943100Y-83301366D01*
X164998400Y-83310964D01*
X165049283Y-83325825D01*
X165120595Y-83358958D01*
X165171752Y-83401640D01*
X165202575Y-83453705D01*
X165212889Y-83514983D01*
X165211952Y-83546232D01*
X165206160Y-83571029D01*
X165191353Y-83592699D01*
X165163380Y-83620049D01*
X165155402Y-83627378D01*
X165131692Y-83648281D01*
X165109298Y-83665251D01*
X165085265Y-83679205D01*
X165056637Y-83691056D01*
X165020460Y-83701720D01*
X164973780Y-83712111D01*
X164913641Y-83723146D01*
X164837090Y-83735738D01*
X164741171Y-83750804D01*
X164722808Y-83753838D01*
X164660478Y-83767458D01*
X164615260Y-83783192D01*
X164588976Y-83800263D01*
X164583447Y-83817897D01*
X164586068Y-83822168D01*
X164604000Y-83837233D01*
X164632126Y-83853867D01*
X164644926Y-83859857D01*
X164666224Y-83867050D01*
X164692610Y-83871827D01*
X164728454Y-83874646D01*
X164778128Y-83875964D01*
X164846000Y-83876237D01*
X164863785Y-83876164D01*
X164931406Y-83875053D01*
X164996345Y-83872828D01*
X165051970Y-83869762D01*
X165091651Y-83866127D01*
X165127162Y-83862059D01*
X165156415Y-83861276D01*
X165175315Y-83865876D01*
X165190429Y-83876551D01*
X165194085Y-83880144D01*
X165210427Y-83911918D01*
X165209107Y-83947572D01*
X165190150Y-83978190D01*
X165169780Y-83989796D01*
X165133796Y-84002491D01*
X165091372Y-84012541D01*
X165087922Y-84013140D01*
X165045252Y-84018356D01*
X164987866Y-84022730D01*
X164922849Y-84025818D01*
X164857289Y-84027177D01*
X164841057Y-84027218D01*
X164742744Y-84024741D01*
X164662692Y-84016735D01*
X164597513Y-84002203D01*
X164543817Y-83980149D01*
X164498216Y-83949576D01*
X164457323Y-83909486D01*
X164437202Y-83883259D01*
X164425576Y-83853712D01*
X164422667Y-83813995D01*
X164422808Y-83802026D01*
X164426681Y-83769345D01*
X164439065Y-83742819D01*
X164464230Y-83711971D01*
X164485442Y-83689831D01*
X164511838Y-83667285D01*
X164541555Y-83648917D01*
X164577785Y-83633661D01*
X164623717Y-83620449D01*
X164682544Y-83608214D01*
X164757456Y-83595889D01*
X164851645Y-83582406D01*
X164896957Y-83575396D01*
X164964911Y-83560837D01*
X165014047Y-83544337D01*
X165043614Y-83526439D01*
X165052864Y-83507685D01*
X165041048Y-83488615D01*
X165007416Y-83469771D01*
X165004370Y-83468557D01*
X164958011Y-83456479D01*
X164895361Y-83448279D01*
X164821927Y-83444119D01*
X164743217Y-83444161D01*
X164664739Y-83448569D01*
X164592000Y-83457505D01*
X164588073Y-83458154D01*
X164539257Y-83465861D01*
X164507005Y-83469473D01*
X164486008Y-83468876D01*
X164470954Y-83463954D01*
X164456534Y-83454596D01*
X164455364Y-83453725D01*
X164430847Y-83423351D01*
X164426054Y-83387850D01*
X164441860Y-83353269D01*
X164446406Y-83348813D01*
X164476020Y-83333673D01*
X164523002Y-83320550D01*
X164583306Y-83309750D01*
X164652888Y-83301581D01*
X164727703Y-83296351D01*
X164803706Y-83294367D01*
X164876853Y-83295936D01*
G36*
X164876853Y-83295936D02*
G01*
X164943100Y-83301366D01*
X164998400Y-83310964D01*
X165049283Y-83325825D01*
X165120595Y-83358958D01*
X165171752Y-83401640D01*
X165202575Y-83453705D01*
X165212889Y-83514983D01*
X165211952Y-83546232D01*
X165206160Y-83571029D01*
X165191353Y-83592699D01*
X165163380Y-83620049D01*
X165155402Y-83627378D01*
X165131692Y-83648281D01*
X165109298Y-83665251D01*
X165085265Y-83679205D01*
X165056637Y-83691056D01*
X165020460Y-83701720D01*
X164973780Y-83712111D01*
X164913641Y-83723146D01*
X164837090Y-83735738D01*
X164741171Y-83750804D01*
X164722808Y-83753838D01*
X164660478Y-83767458D01*
X164615260Y-83783192D01*
X164588976Y-83800263D01*
X164583447Y-83817897D01*
X164586068Y-83822168D01*
X164604000Y-83837233D01*
X164632126Y-83853867D01*
X164644926Y-83859857D01*
X164666224Y-83867050D01*
X164692610Y-83871827D01*
X164728454Y-83874646D01*
X164778128Y-83875964D01*
X164846000Y-83876237D01*
X164863785Y-83876164D01*
X164931406Y-83875053D01*
X164996345Y-83872828D01*
X165051970Y-83869762D01*
X165091651Y-83866127D01*
X165127162Y-83862059D01*
X165156415Y-83861276D01*
X165175315Y-83865876D01*
X165190429Y-83876551D01*
X165194085Y-83880144D01*
X165210427Y-83911918D01*
X165209107Y-83947572D01*
X165190150Y-83978190D01*
X165169780Y-83989796D01*
X165133796Y-84002491D01*
X165091372Y-84012541D01*
X165087922Y-84013140D01*
X165045252Y-84018356D01*
X164987866Y-84022730D01*
X164922849Y-84025818D01*
X164857289Y-84027177D01*
X164841057Y-84027218D01*
X164742744Y-84024741D01*
X164662692Y-84016735D01*
X164597513Y-84002203D01*
X164543817Y-83980149D01*
X164498216Y-83949576D01*
X164457323Y-83909486D01*
X164437202Y-83883259D01*
X164425576Y-83853712D01*
X164422667Y-83813995D01*
X164422808Y-83802026D01*
X164426681Y-83769345D01*
X164439065Y-83742819D01*
X164464230Y-83711971D01*
X164485442Y-83689831D01*
X164511838Y-83667285D01*
X164541555Y-83648917D01*
X164577785Y-83633661D01*
X164623717Y-83620449D01*
X164682544Y-83608214D01*
X164757456Y-83595889D01*
X164851645Y-83582406D01*
X164896957Y-83575396D01*
X164964911Y-83560837D01*
X165014047Y-83544337D01*
X165043614Y-83526439D01*
X165052864Y-83507685D01*
X165041048Y-83488615D01*
X165007416Y-83469771D01*
X165004370Y-83468557D01*
X164958011Y-83456479D01*
X164895361Y-83448279D01*
X164821927Y-83444119D01*
X164743217Y-83444161D01*
X164664739Y-83448569D01*
X164592000Y-83457505D01*
X164588073Y-83458154D01*
X164539257Y-83465861D01*
X164507005Y-83469473D01*
X164486008Y-83468876D01*
X164470954Y-83463954D01*
X164456534Y-83454596D01*
X164455364Y-83453725D01*
X164430847Y-83423351D01*
X164426054Y-83387850D01*
X164441860Y-83353269D01*
X164446406Y-83348813D01*
X164476020Y-83333673D01*
X164523002Y-83320550D01*
X164583306Y-83309750D01*
X164652888Y-83301581D01*
X164727703Y-83296351D01*
X164803706Y-83294367D01*
X164876853Y-83295936D01*
G37*
X161024711Y-78988033D02*
X161120268Y-79005523D01*
X161284558Y-79050564D01*
X161438589Y-79113656D01*
X161584509Y-79195915D01*
X161724466Y-79298457D01*
X161860608Y-79422399D01*
X161904473Y-79467661D01*
X162016758Y-79599865D01*
X162109972Y-79737832D01*
X162186719Y-79885750D01*
X162249603Y-80047803D01*
X162253420Y-80059391D01*
X162303507Y-80245392D01*
X162336899Y-80441521D01*
X162353584Y-80643568D01*
X162353551Y-80847325D01*
X162336791Y-81048581D01*
X162303292Y-81243128D01*
X162253044Y-81426756D01*
X162209190Y-81544053D01*
X162131348Y-81706951D01*
X162037828Y-81860866D01*
X161930822Y-82002671D01*
X161812519Y-82129239D01*
X161685111Y-82237441D01*
X161607606Y-82290120D01*
X161480725Y-82359750D01*
X161343243Y-82418468D01*
X161201716Y-82463587D01*
X161062702Y-82492422D01*
X161048597Y-82494106D01*
X161005153Y-82497434D01*
X160947723Y-82500275D01*
X160882122Y-82502373D01*
X160814167Y-82503468D01*
X160687378Y-82501140D01*
X160539673Y-82488136D01*
X160401779Y-82463133D01*
X160268014Y-82425318D01*
X160244562Y-82416889D01*
X160196612Y-82397408D01*
X160140140Y-82372473D01*
X160078379Y-82343722D01*
X160014563Y-82312790D01*
X159951926Y-82281315D01*
X159893703Y-82250934D01*
X159843127Y-82223283D01*
X159803433Y-82199999D01*
X159777854Y-82182718D01*
X159769625Y-82173079D01*
X159771076Y-82169984D01*
X159782250Y-82150079D01*
X159803134Y-82114420D01*
X159832265Y-82065459D01*
X159868181Y-82005646D01*
X159909420Y-81937433D01*
X159954517Y-81863271D01*
X160135785Y-81566008D01*
X160182315Y-81610539D01*
X160273723Y-81688865D01*
X160387334Y-81763439D01*
X160505122Y-81817474D01*
X160625559Y-81850290D01*
X160747117Y-81861211D01*
X160788585Y-81859868D01*
X160906080Y-81841612D01*
X161016089Y-81802617D01*
X161117430Y-81743670D01*
X161208921Y-81665557D01*
X161289380Y-81569064D01*
X161357627Y-81454978D01*
X161373908Y-81420724D01*
X161419982Y-81297240D01*
X161455106Y-81158918D01*
X161479197Y-81009561D01*
X161492173Y-80852973D01*
X161493949Y-80692956D01*
X161484443Y-80533314D01*
X161463572Y-80377850D01*
X161431252Y-80230366D01*
X161387399Y-80094667D01*
X161349982Y-80008076D01*
X161285185Y-79894688D01*
X161209772Y-79801070D01*
X161123418Y-79726959D01*
X161025795Y-79672094D01*
X160916577Y-79636212D01*
X160795439Y-79619051D01*
X160726038Y-79617880D01*
X160603168Y-79632141D01*
X160487664Y-79667241D01*
X160380953Y-79722682D01*
X160284464Y-79797964D01*
X160268720Y-79812440D01*
X160238150Y-79838962D01*
X160215809Y-79856138D01*
X160205691Y-79860787D01*
X160203706Y-79858597D01*
X160189241Y-79839721D01*
X160165400Y-79806397D01*
X160134029Y-79761380D01*
X160096974Y-79707425D01*
X160056083Y-79647285D01*
X160013202Y-79583718D01*
X159970178Y-79519476D01*
X159928857Y-79457315D01*
X159891086Y-79399991D01*
X159858712Y-79350257D01*
X159833582Y-79310868D01*
X159817542Y-79284580D01*
X159812439Y-79274147D01*
X159817050Y-79269941D01*
X159836267Y-79264933D01*
X159845838Y-79262386D01*
X159873809Y-79251249D01*
X159915448Y-79232802D01*
X159966995Y-79208725D01*
X160024690Y-79180699D01*
X160035957Y-79175154D01*
X160213687Y-79095889D01*
X160383490Y-79036385D01*
X160547430Y-78996245D01*
X160707571Y-78975071D01*
X160865977Y-78972466D01*
X161024711Y-78988033D01*
G36*
X161024711Y-78988033D02*
G01*
X161120268Y-79005523D01*
X161284558Y-79050564D01*
X161438589Y-79113656D01*
X161584509Y-79195915D01*
X161724466Y-79298457D01*
X161860608Y-79422399D01*
X161904473Y-79467661D01*
X162016758Y-79599865D01*
X162109972Y-79737832D01*
X162186719Y-79885750D01*
X162249603Y-80047803D01*
X162253420Y-80059391D01*
X162303507Y-80245392D01*
X162336899Y-80441521D01*
X162353584Y-80643568D01*
X162353551Y-80847325D01*
X162336791Y-81048581D01*
X162303292Y-81243128D01*
X162253044Y-81426756D01*
X162209190Y-81544053D01*
X162131348Y-81706951D01*
X162037828Y-81860866D01*
X161930822Y-82002671D01*
X161812519Y-82129239D01*
X161685111Y-82237441D01*
X161607606Y-82290120D01*
X161480725Y-82359750D01*
X161343243Y-82418468D01*
X161201716Y-82463587D01*
X161062702Y-82492422D01*
X161048597Y-82494106D01*
X161005153Y-82497434D01*
X160947723Y-82500275D01*
X160882122Y-82502373D01*
X160814167Y-82503468D01*
X160687378Y-82501140D01*
X160539673Y-82488136D01*
X160401779Y-82463133D01*
X160268014Y-82425318D01*
X160244562Y-82416889D01*
X160196612Y-82397408D01*
X160140140Y-82372473D01*
X160078379Y-82343722D01*
X160014563Y-82312790D01*
X159951926Y-82281315D01*
X159893703Y-82250934D01*
X159843127Y-82223283D01*
X159803433Y-82199999D01*
X159777854Y-82182718D01*
X159769625Y-82173079D01*
X159771076Y-82169984D01*
X159782250Y-82150079D01*
X159803134Y-82114420D01*
X159832265Y-82065459D01*
X159868181Y-82005646D01*
X159909420Y-81937433D01*
X159954517Y-81863271D01*
X160135785Y-81566008D01*
X160182315Y-81610539D01*
X160273723Y-81688865D01*
X160387334Y-81763439D01*
X160505122Y-81817474D01*
X160625559Y-81850290D01*
X160747117Y-81861211D01*
X160788585Y-81859868D01*
X160906080Y-81841612D01*
X161016089Y-81802617D01*
X161117430Y-81743670D01*
X161208921Y-81665557D01*
X161289380Y-81569064D01*
X161357627Y-81454978D01*
X161373908Y-81420724D01*
X161419982Y-81297240D01*
X161455106Y-81158918D01*
X161479197Y-81009561D01*
X161492173Y-80852973D01*
X161493949Y-80692956D01*
X161484443Y-80533314D01*
X161463572Y-80377850D01*
X161431252Y-80230366D01*
X161387399Y-80094667D01*
X161349982Y-80008076D01*
X161285185Y-79894688D01*
X161209772Y-79801070D01*
X161123418Y-79726959D01*
X161025795Y-79672094D01*
X160916577Y-79636212D01*
X160795439Y-79619051D01*
X160726038Y-79617880D01*
X160603168Y-79632141D01*
X160487664Y-79667241D01*
X160380953Y-79722682D01*
X160284464Y-79797964D01*
X160268720Y-79812440D01*
X160238150Y-79838962D01*
X160215809Y-79856138D01*
X160205691Y-79860787D01*
X160203706Y-79858597D01*
X160189241Y-79839721D01*
X160165400Y-79806397D01*
X160134029Y-79761380D01*
X160096974Y-79707425D01*
X160056083Y-79647285D01*
X160013202Y-79583718D01*
X159970178Y-79519476D01*
X159928857Y-79457315D01*
X159891086Y-79399991D01*
X159858712Y-79350257D01*
X159833582Y-79310868D01*
X159817542Y-79284580D01*
X159812439Y-79274147D01*
X159817050Y-79269941D01*
X159836267Y-79264933D01*
X159845838Y-79262386D01*
X159873809Y-79251249D01*
X159915448Y-79232802D01*
X159966995Y-79208725D01*
X160024690Y-79180699D01*
X160035957Y-79175154D01*
X160213687Y-79095889D01*
X160383490Y-79036385D01*
X160547430Y-78996245D01*
X160707571Y-78975071D01*
X160865977Y-78972466D01*
X161024711Y-78988033D01*
G37*
X157221994Y-81268711D02*
X157221268Y-81346158D01*
X157212689Y-81497594D01*
X157193833Y-81634283D01*
X157163837Y-81760276D01*
X157121836Y-81879625D01*
X157066969Y-81996381D01*
X157000167Y-82107179D01*
X156909363Y-82220739D01*
X156805708Y-82316211D01*
X156689887Y-82393073D01*
X156562586Y-82450797D01*
X156424489Y-82488858D01*
X156386793Y-82494666D01*
X156307752Y-82500396D01*
X156219629Y-82500583D01*
X156130236Y-82495539D01*
X156047384Y-82485578D01*
X155978887Y-82471012D01*
X155948035Y-82461364D01*
X155870730Y-82431123D01*
X155793679Y-82393617D01*
X155724200Y-82352614D01*
X155669615Y-82311879D01*
X155646916Y-82292505D01*
X155624201Y-82274662D01*
X155612779Y-82267778D01*
X155611537Y-82269424D01*
X155608728Y-82287205D01*
X155606776Y-82320370D01*
X155606045Y-82363733D01*
X155606045Y-82459689D01*
X154747896Y-82459689D01*
X154782161Y-82398974D01*
X154787355Y-82389868D01*
X154795715Y-82375249D01*
X154803288Y-82361173D01*
X154810112Y-82346540D01*
X154816227Y-82330249D01*
X154821673Y-82311198D01*
X154826487Y-82288286D01*
X154830708Y-82260413D01*
X154834377Y-82226478D01*
X154837531Y-82185379D01*
X154840211Y-82136015D01*
X154842454Y-82077286D01*
X154844299Y-82008090D01*
X154845787Y-81927326D01*
X154846955Y-81833894D01*
X154847844Y-81726692D01*
X154848491Y-81604620D01*
X154848936Y-81466576D01*
X154849218Y-81311459D01*
X154849375Y-81138168D01*
X154849448Y-80945603D01*
X154849474Y-80732662D01*
X154849485Y-80596530D01*
X155651200Y-80596530D01*
X155651200Y-81746721D01*
X155721756Y-81793089D01*
X155762417Y-81816791D01*
X155816546Y-81842639D01*
X155865689Y-81860829D01*
X155929165Y-81876551D01*
X156025331Y-81887541D01*
X156109900Y-81879365D01*
X156183219Y-81851805D01*
X156245637Y-81804642D01*
X156297502Y-81737658D01*
X156339160Y-81650633D01*
X156370962Y-81543350D01*
X156373545Y-81531009D01*
X156382000Y-81469772D01*
X156387663Y-81392692D01*
X156390576Y-81305002D01*
X156390783Y-81211934D01*
X156388330Y-81118720D01*
X156383261Y-81030594D01*
X156375619Y-80952788D01*
X156365448Y-80890533D01*
X156364167Y-80884666D01*
X156335126Y-80774121D01*
X156300610Y-80683575D01*
X156259456Y-80610953D01*
X156210499Y-80554181D01*
X156152574Y-80511184D01*
X156120620Y-80495615D01*
X156047784Y-80476722D01*
X155966443Y-80473465D01*
X155881319Y-80485389D01*
X155797133Y-80512040D01*
X155718608Y-80552962D01*
X155651200Y-80596530D01*
X154849485Y-80596530D01*
X154849493Y-80498245D01*
X154849689Y-78813378D01*
X155755017Y-78813378D01*
X155730585Y-78850067D01*
X155724318Y-78859647D01*
X155698208Y-78905981D01*
X155680469Y-78953102D01*
X155668908Y-79008251D01*
X155661331Y-79078667D01*
X155660839Y-79085650D01*
X155659062Y-79123641D01*
X155657444Y-79177576D01*
X155655999Y-79244703D01*
X155654740Y-79322271D01*
X155653680Y-79407528D01*
X155652829Y-79497724D01*
X155652203Y-79590107D01*
X155651812Y-79681925D01*
X155651670Y-79770427D01*
X155651790Y-79852862D01*
X155652183Y-79926479D01*
X155652862Y-79988526D01*
X155653841Y-80036251D01*
X155655132Y-80066904D01*
X155656747Y-80077733D01*
X155664957Y-80073333D01*
X155686647Y-80058362D01*
X155716014Y-80036448D01*
X155764879Y-80002236D01*
X155853125Y-79955714D01*
X155951916Y-79922046D01*
X156064510Y-79900231D01*
X156194164Y-79889265D01*
X156286670Y-79888219D01*
X156408011Y-79898014D01*
X156518099Y-79922174D01*
X156621389Y-79961785D01*
X156722338Y-80017932D01*
X156767503Y-80048883D01*
X156872911Y-80140115D01*
X156964538Y-80249106D01*
X157042332Y-80375726D01*
X157106241Y-80519845D01*
X157156214Y-80681332D01*
X157192198Y-80860059D01*
X157214143Y-81055895D01*
X157219900Y-81211934D01*
X157221994Y-81268711D01*
G36*
X157221994Y-81268711D02*
G01*
X157221268Y-81346158D01*
X157212689Y-81497594D01*
X157193833Y-81634283D01*
X157163837Y-81760276D01*
X157121836Y-81879625D01*
X157066969Y-81996381D01*
X157000167Y-82107179D01*
X156909363Y-82220739D01*
X156805708Y-82316211D01*
X156689887Y-82393073D01*
X156562586Y-82450797D01*
X156424489Y-82488858D01*
X156386793Y-82494666D01*
X156307752Y-82500396D01*
X156219629Y-82500583D01*
X156130236Y-82495539D01*
X156047384Y-82485578D01*
X155978887Y-82471012D01*
X155948035Y-82461364D01*
X155870730Y-82431123D01*
X155793679Y-82393617D01*
X155724200Y-82352614D01*
X155669615Y-82311879D01*
X155646916Y-82292505D01*
X155624201Y-82274662D01*
X155612779Y-82267778D01*
X155611537Y-82269424D01*
X155608728Y-82287205D01*
X155606776Y-82320370D01*
X155606045Y-82363733D01*
X155606045Y-82459689D01*
X154747896Y-82459689D01*
X154782161Y-82398974D01*
X154787355Y-82389868D01*
X154795715Y-82375249D01*
X154803288Y-82361173D01*
X154810112Y-82346540D01*
X154816227Y-82330249D01*
X154821673Y-82311198D01*
X154826487Y-82288286D01*
X154830708Y-82260413D01*
X154834377Y-82226478D01*
X154837531Y-82185379D01*
X154840211Y-82136015D01*
X154842454Y-82077286D01*
X154844299Y-82008090D01*
X154845787Y-81927326D01*
X154846955Y-81833894D01*
X154847844Y-81726692D01*
X154848491Y-81604620D01*
X154848936Y-81466576D01*
X154849218Y-81311459D01*
X154849375Y-81138168D01*
X154849448Y-80945603D01*
X154849474Y-80732662D01*
X154849485Y-80596530D01*
X155651200Y-80596530D01*
X155651200Y-81746721D01*
X155721756Y-81793089D01*
X155762417Y-81816791D01*
X155816546Y-81842639D01*
X155865689Y-81860829D01*
X155929165Y-81876551D01*
X156025331Y-81887541D01*
X156109900Y-81879365D01*
X156183219Y-81851805D01*
X156245637Y-81804642D01*
X156297502Y-81737658D01*
X156339160Y-81650633D01*
X156370962Y-81543350D01*
X156373545Y-81531009D01*
X156382000Y-81469772D01*
X156387663Y-81392692D01*
X156390576Y-81305002D01*
X156390783Y-81211934D01*
X156388330Y-81118720D01*
X156383261Y-81030594D01*
X156375619Y-80952788D01*
X156365448Y-80890533D01*
X156364167Y-80884666D01*
X156335126Y-80774121D01*
X156300610Y-80683575D01*
X156259456Y-80610953D01*
X156210499Y-80554181D01*
X156152574Y-80511184D01*
X156120620Y-80495615D01*
X156047784Y-80476722D01*
X155966443Y-80473465D01*
X155881319Y-80485389D01*
X155797133Y-80512040D01*
X155718608Y-80552962D01*
X155651200Y-80596530D01*
X154849485Y-80596530D01*
X154849493Y-80498245D01*
X154849689Y-78813378D01*
X155755017Y-78813378D01*
X155730585Y-78850067D01*
X155724318Y-78859647D01*
X155698208Y-78905981D01*
X155680469Y-78953102D01*
X155668908Y-79008251D01*
X155661331Y-79078667D01*
X155660839Y-79085650D01*
X155659062Y-79123641D01*
X155657444Y-79177576D01*
X155655999Y-79244703D01*
X155654740Y-79322271D01*
X155653680Y-79407528D01*
X155652829Y-79497724D01*
X155652203Y-79590107D01*
X155651812Y-79681925D01*
X155651670Y-79770427D01*
X155651790Y-79852862D01*
X155652183Y-79926479D01*
X155652862Y-79988526D01*
X155653841Y-80036251D01*
X155655132Y-80066904D01*
X155656747Y-80077733D01*
X155664957Y-80073333D01*
X155686647Y-80058362D01*
X155716014Y-80036448D01*
X155764879Y-80002236D01*
X155853125Y-79955714D01*
X155951916Y-79922046D01*
X156064510Y-79900231D01*
X156194164Y-79889265D01*
X156286670Y-79888219D01*
X156408011Y-79898014D01*
X156518099Y-79922174D01*
X156621389Y-79961785D01*
X156722338Y-80017932D01*
X156767503Y-80048883D01*
X156872911Y-80140115D01*
X156964538Y-80249106D01*
X157042332Y-80375726D01*
X157106241Y-80519845D01*
X157156214Y-80681332D01*
X157192198Y-80860059D01*
X157214143Y-81055895D01*
X157219900Y-81211934D01*
X157221994Y-81268711D01*
G37*
X159763755Y-81669467D02*
X159763261Y-81703363D01*
X159759632Y-81778202D01*
X159752022Y-81840401D01*
X159739688Y-81896984D01*
X159695313Y-82023076D01*
X159632400Y-82137679D01*
X159552238Y-82238568D01*
X159455740Y-82324924D01*
X159343822Y-82395932D01*
X159217397Y-82450776D01*
X159077378Y-82488638D01*
X159041149Y-82494351D01*
X158962155Y-82500313D01*
X158873841Y-82500646D01*
X158784075Y-82495659D01*
X158700722Y-82485666D01*
X158631651Y-82470978D01*
X158545187Y-82440749D01*
X158435286Y-82386057D01*
X158337956Y-82318543D01*
X158275867Y-82267556D01*
X158272605Y-82363622D01*
X158269343Y-82459689D01*
X157846450Y-82459689D01*
X157835543Y-82459686D01*
X157741056Y-82459380D01*
X157654331Y-82458616D01*
X157577837Y-82457451D01*
X157514043Y-82455942D01*
X157465418Y-82454147D01*
X157434433Y-82452121D01*
X157423556Y-82449922D01*
X157423578Y-82449463D01*
X157430614Y-82433910D01*
X157446434Y-82411071D01*
X157450734Y-82405638D01*
X157461777Y-82391606D01*
X157471311Y-82378186D01*
X157479461Y-82363722D01*
X157486352Y-82346556D01*
X157492111Y-82325034D01*
X157496862Y-82297498D01*
X157500731Y-82262292D01*
X157503844Y-82217760D01*
X157506325Y-82162246D01*
X157508300Y-82094093D01*
X157509894Y-82011645D01*
X157511234Y-81913246D01*
X157512444Y-81797239D01*
X157513649Y-81661968D01*
X157514595Y-81550586D01*
X158315378Y-81550586D01*
X158315378Y-81746462D01*
X158360048Y-81802973D01*
X158372785Y-81818212D01*
X158419604Y-81860844D01*
X158480255Y-81896672D01*
X158490897Y-81901850D01*
X158529676Y-81918745D01*
X158564692Y-81928909D01*
X158604722Y-81934325D01*
X158658541Y-81936978D01*
X158676648Y-81937383D01*
X158752011Y-81934540D01*
X158812743Y-81922620D01*
X158864452Y-81900037D01*
X158912746Y-81865211D01*
X158917803Y-81860798D01*
X158966272Y-81805160D01*
X158994459Y-81741333D01*
X159003752Y-81666282D01*
X158996520Y-81594693D01*
X158971796Y-81531645D01*
X158927249Y-81473758D01*
X158872319Y-81426808D01*
X158799894Y-81386961D01*
X158713340Y-81359263D01*
X158610670Y-81343096D01*
X158489894Y-81337842D01*
X158481007Y-81337857D01*
X158425660Y-81338655D01*
X158378736Y-81340488D01*
X158344953Y-81343111D01*
X158329028Y-81346274D01*
X158324943Y-81352741D01*
X158320572Y-81374875D01*
X158317604Y-81413988D01*
X158315914Y-81471939D01*
X158315378Y-81550586D01*
X157514595Y-81550586D01*
X157514975Y-81505778D01*
X157516228Y-81363012D01*
X157517651Y-81217942D01*
X157519176Y-81092027D01*
X157520933Y-80983436D01*
X157523051Y-80890334D01*
X157525660Y-80810891D01*
X157528890Y-80743273D01*
X157532869Y-80685649D01*
X157537728Y-80636185D01*
X157543597Y-80593050D01*
X157550604Y-80554410D01*
X157558880Y-80518434D01*
X157568554Y-80483289D01*
X157579756Y-80447142D01*
X157592616Y-80408161D01*
X157608090Y-80365091D01*
X157650994Y-80272871D01*
X157704735Y-80193099D01*
X157773576Y-80118965D01*
X157851185Y-80055405D01*
X157955761Y-79993725D01*
X158075244Y-79946202D01*
X158210508Y-79912567D01*
X158362426Y-79892552D01*
X158531872Y-79885889D01*
X158589890Y-79886287D01*
X158655398Y-79888335D01*
X158716693Y-79892704D01*
X158778097Y-79900035D01*
X158843932Y-79910969D01*
X158918520Y-79926147D01*
X159006184Y-79946209D01*
X159111245Y-79971797D01*
X159139806Y-79978820D01*
X159215054Y-79996776D01*
X159285388Y-80012820D01*
X159346567Y-80026028D01*
X159394354Y-80035474D01*
X159424511Y-80040231D01*
X159452783Y-80043910D01*
X159479060Y-80049187D01*
X159489059Y-80053942D01*
X159485952Y-80062781D01*
X159475194Y-80090072D01*
X159457864Y-80132906D01*
X159435126Y-80188425D01*
X159408147Y-80253772D01*
X159378090Y-80326089D01*
X159371493Y-80341879D01*
X159332907Y-80432484D01*
X159301768Y-80502217D01*
X159277917Y-80551405D01*
X159261198Y-80580374D01*
X159251454Y-80589452D01*
X159243766Y-80587405D01*
X159217415Y-80577760D01*
X159178982Y-80562190D01*
X159133822Y-80542815D01*
X159039293Y-80504814D01*
X158902480Y-80463780D01*
X158761289Y-80438612D01*
X158723314Y-80434611D01*
X158620059Y-80432447D01*
X158532952Y-80445622D01*
X158461129Y-80474756D01*
X158403731Y-80520466D01*
X158359896Y-80583372D01*
X158328762Y-80664092D01*
X158309470Y-80763245D01*
X158302050Y-80822224D01*
X158463936Y-80815445D01*
X158590495Y-80813813D01*
X158741951Y-80820194D01*
X158890396Y-80834777D01*
X159026578Y-80856882D01*
X159091245Y-80871821D01*
X159223490Y-80914741D01*
X159345762Y-80971340D01*
X159455685Y-81040017D01*
X159550883Y-81119170D01*
X159628980Y-81207196D01*
X159687599Y-81302493D01*
X159711595Y-81354864D01*
X159737232Y-81425590D01*
X159753478Y-81496812D01*
X159761822Y-81575712D01*
X159763690Y-81666282D01*
X159763755Y-81669467D01*
G36*
X159763755Y-81669467D02*
G01*
X159763261Y-81703363D01*
X159759632Y-81778202D01*
X159752022Y-81840401D01*
X159739688Y-81896984D01*
X159695313Y-82023076D01*
X159632400Y-82137679D01*
X159552238Y-82238568D01*
X159455740Y-82324924D01*
X159343822Y-82395932D01*
X159217397Y-82450776D01*
X159077378Y-82488638D01*
X159041149Y-82494351D01*
X158962155Y-82500313D01*
X158873841Y-82500646D01*
X158784075Y-82495659D01*
X158700722Y-82485666D01*
X158631651Y-82470978D01*
X158545187Y-82440749D01*
X158435286Y-82386057D01*
X158337956Y-82318543D01*
X158275867Y-82267556D01*
X158272605Y-82363622D01*
X158269343Y-82459689D01*
X157846450Y-82459689D01*
X157835543Y-82459686D01*
X157741056Y-82459380D01*
X157654331Y-82458616D01*
X157577837Y-82457451D01*
X157514043Y-82455942D01*
X157465418Y-82454147D01*
X157434433Y-82452121D01*
X157423556Y-82449922D01*
X157423578Y-82449463D01*
X157430614Y-82433910D01*
X157446434Y-82411071D01*
X157450734Y-82405638D01*
X157461777Y-82391606D01*
X157471311Y-82378186D01*
X157479461Y-82363722D01*
X157486352Y-82346556D01*
X157492111Y-82325034D01*
X157496862Y-82297498D01*
X157500731Y-82262292D01*
X157503844Y-82217760D01*
X157506325Y-82162246D01*
X157508300Y-82094093D01*
X157509894Y-82011645D01*
X157511234Y-81913246D01*
X157512444Y-81797239D01*
X157513649Y-81661968D01*
X157514595Y-81550586D01*
X158315378Y-81550586D01*
X158315378Y-81746462D01*
X158360048Y-81802973D01*
X158372785Y-81818212D01*
X158419604Y-81860844D01*
X158480255Y-81896672D01*
X158490897Y-81901850D01*
X158529676Y-81918745D01*
X158564692Y-81928909D01*
X158604722Y-81934325D01*
X158658541Y-81936978D01*
X158676648Y-81937383D01*
X158752011Y-81934540D01*
X158812743Y-81922620D01*
X158864452Y-81900037D01*
X158912746Y-81865211D01*
X158917803Y-81860798D01*
X158966272Y-81805160D01*
X158994459Y-81741333D01*
X159003752Y-81666282D01*
X158996520Y-81594693D01*
X158971796Y-81531645D01*
X158927249Y-81473758D01*
X158872319Y-81426808D01*
X158799894Y-81386961D01*
X158713340Y-81359263D01*
X158610670Y-81343096D01*
X158489894Y-81337842D01*
X158481007Y-81337857D01*
X158425660Y-81338655D01*
X158378736Y-81340488D01*
X158344953Y-81343111D01*
X158329028Y-81346274D01*
X158324943Y-81352741D01*
X158320572Y-81374875D01*
X158317604Y-81413988D01*
X158315914Y-81471939D01*
X158315378Y-81550586D01*
X157514595Y-81550586D01*
X157514975Y-81505778D01*
X157516228Y-81363012D01*
X157517651Y-81217942D01*
X157519176Y-81092027D01*
X157520933Y-80983436D01*
X157523051Y-80890334D01*
X157525660Y-80810891D01*
X157528890Y-80743273D01*
X157532869Y-80685649D01*
X157537728Y-80636185D01*
X157543597Y-80593050D01*
X157550604Y-80554410D01*
X157558880Y-80518434D01*
X157568554Y-80483289D01*
X157579756Y-80447142D01*
X157592616Y-80408161D01*
X157608090Y-80365091D01*
X157650994Y-80272871D01*
X157704735Y-80193099D01*
X157773576Y-80118965D01*
X157851185Y-80055405D01*
X157955761Y-79993725D01*
X158075244Y-79946202D01*
X158210508Y-79912567D01*
X158362426Y-79892552D01*
X158531872Y-79885889D01*
X158589890Y-79886287D01*
X158655398Y-79888335D01*
X158716693Y-79892704D01*
X158778097Y-79900035D01*
X158843932Y-79910969D01*
X158918520Y-79926147D01*
X159006184Y-79946209D01*
X159111245Y-79971797D01*
X159139806Y-79978820D01*
X159215054Y-79996776D01*
X159285388Y-80012820D01*
X159346567Y-80026028D01*
X159394354Y-80035474D01*
X159424511Y-80040231D01*
X159452783Y-80043910D01*
X159479060Y-80049187D01*
X159489059Y-80053942D01*
X159485952Y-80062781D01*
X159475194Y-80090072D01*
X159457864Y-80132906D01*
X159435126Y-80188425D01*
X159408147Y-80253772D01*
X159378090Y-80326089D01*
X159371493Y-80341879D01*
X159332907Y-80432484D01*
X159301768Y-80502217D01*
X159277917Y-80551405D01*
X159261198Y-80580374D01*
X159251454Y-80589452D01*
X159243766Y-80587405D01*
X159217415Y-80577760D01*
X159178982Y-80562190D01*
X159133822Y-80542815D01*
X159039293Y-80504814D01*
X158902480Y-80463780D01*
X158761289Y-80438612D01*
X158723314Y-80434611D01*
X158620059Y-80432447D01*
X158532952Y-80445622D01*
X158461129Y-80474756D01*
X158403731Y-80520466D01*
X158359896Y-80583372D01*
X158328762Y-80664092D01*
X158309470Y-80763245D01*
X158302050Y-80822224D01*
X158463936Y-80815445D01*
X158590495Y-80813813D01*
X158741951Y-80820194D01*
X158890396Y-80834777D01*
X159026578Y-80856882D01*
X159091245Y-80871821D01*
X159223490Y-80914741D01*
X159345762Y-80971340D01*
X159455685Y-81040017D01*
X159550883Y-81119170D01*
X159628980Y-81207196D01*
X159687599Y-81302493D01*
X159711595Y-81354864D01*
X159737232Y-81425590D01*
X159753478Y-81496812D01*
X159761822Y-81575712D01*
X159763690Y-81666282D01*
X159763755Y-81669467D01*
G37*
X167311614Y-79137792D02*
X167312059Y-79269011D01*
X167312362Y-79416216D01*
X167312548Y-79580349D01*
X167312642Y-79762352D01*
X167312671Y-79963165D01*
X167312661Y-80183732D01*
X167312636Y-80424992D01*
X167312622Y-80687889D01*
X167312622Y-80730040D01*
X167312646Y-80990668D01*
X167312685Y-81229796D01*
X167312708Y-81448360D01*
X167312687Y-81647295D01*
X167312593Y-81827535D01*
X167312395Y-81990015D01*
X167312063Y-82135670D01*
X167311569Y-82265434D01*
X167310883Y-82380243D01*
X167309976Y-82481030D01*
X167308817Y-82568730D01*
X167307378Y-82644279D01*
X167305629Y-82708611D01*
X167303540Y-82762661D01*
X167301083Y-82807363D01*
X167298227Y-82843652D01*
X167294943Y-82872463D01*
X167291202Y-82894731D01*
X167286974Y-82911390D01*
X167282229Y-82923375D01*
X167276939Y-82931621D01*
X167271073Y-82937062D01*
X167264602Y-82940634D01*
X167257497Y-82943270D01*
X167249728Y-82945906D01*
X167241266Y-82949477D01*
X167236908Y-82951145D01*
X167228395Y-82953111D01*
X167215694Y-82954911D01*
X167197885Y-82956555D01*
X167174049Y-82958047D01*
X167143266Y-82959397D01*
X167104617Y-82960611D01*
X167057182Y-82961697D01*
X167000043Y-82962661D01*
X166932279Y-82963511D01*
X166852971Y-82964253D01*
X166761199Y-82964897D01*
X166656044Y-82965447D01*
X166536587Y-82965913D01*
X166401908Y-82966300D01*
X166251088Y-82966616D01*
X166083206Y-82966869D01*
X165897345Y-82967066D01*
X165692583Y-82967213D01*
X165468002Y-82967318D01*
X165222682Y-82967389D01*
X164955704Y-82967432D01*
X164917321Y-82967437D01*
X164651922Y-82967480D01*
X164408050Y-82967525D01*
X164184783Y-82967548D01*
X163981196Y-82967524D01*
X163796367Y-82967430D01*
X163629373Y-82967243D01*
X163479290Y-82966939D01*
X163345196Y-82966494D01*
X163226166Y-82965885D01*
X163121279Y-82965089D01*
X163029610Y-82964080D01*
X162950237Y-82962837D01*
X162882237Y-82961335D01*
X162824686Y-82959551D01*
X162776662Y-82957461D01*
X162737240Y-82955042D01*
X162705499Y-82952270D01*
X162680514Y-82949121D01*
X162661364Y-82945572D01*
X162647123Y-82941598D01*
X162636871Y-82937178D01*
X162629682Y-82932286D01*
X162624635Y-82926900D01*
X162620805Y-82920996D01*
X162617271Y-82914549D01*
X162613108Y-82907537D01*
X162612025Y-82905687D01*
X162609813Y-82900180D01*
X162607786Y-82891868D01*
X162605938Y-82879809D01*
X162604261Y-82863063D01*
X162602745Y-82840687D01*
X162601383Y-82811740D01*
X162600167Y-82775280D01*
X162599089Y-82730367D01*
X162598140Y-82676057D01*
X162597312Y-82611410D01*
X162596597Y-82535484D01*
X162595987Y-82447338D01*
X162595942Y-82438493D01*
X162887378Y-82438493D01*
X162891260Y-82439765D01*
X162914520Y-82441791D01*
X162956874Y-82443626D01*
X163016132Y-82445227D01*
X163090107Y-82446549D01*
X163176610Y-82447548D01*
X163273452Y-82448180D01*
X163378445Y-82448400D01*
X164076651Y-82448400D01*
X165231090Y-82448400D01*
X165230456Y-82372200D01*
X165231574Y-82330160D01*
X165237304Y-82294334D01*
X165249890Y-82256772D01*
X165271568Y-82208577D01*
X165274789Y-82201897D01*
X165300188Y-82152359D01*
X165326996Y-82104369D01*
X165349917Y-82067466D01*
X165354485Y-82060834D01*
X165376516Y-82029593D01*
X165408693Y-81984654D01*
X165449457Y-81928147D01*
X165497245Y-81862204D01*
X165550498Y-81788957D01*
X165607655Y-81710536D01*
X165667155Y-81629072D01*
X165727437Y-81546698D01*
X165786940Y-81465544D01*
X165844105Y-81387742D01*
X165897370Y-81315423D01*
X165945174Y-81250718D01*
X165985957Y-81195759D01*
X166018158Y-81152676D01*
X166040216Y-81123602D01*
X166050571Y-81110667D01*
X166055044Y-81106351D01*
X166059236Y-81104312D01*
X166062643Y-81106926D01*
X166065325Y-81115986D01*
X166067341Y-81133285D01*
X166068748Y-81160614D01*
X166069605Y-81199765D01*
X166069970Y-81252533D01*
X166069903Y-81320707D01*
X166069460Y-81406082D01*
X166068702Y-81510449D01*
X166067685Y-81635600D01*
X166067308Y-81680300D01*
X166066169Y-81801395D01*
X166064972Y-81902688D01*
X166063636Y-81986262D01*
X166062077Y-82054204D01*
X166060215Y-82108599D01*
X166057966Y-82151532D01*
X166055248Y-82185089D01*
X166051979Y-82211355D01*
X166048078Y-82232416D01*
X166043461Y-82250357D01*
X166035192Y-82276770D01*
X166011583Y-82338772D01*
X165985685Y-82391573D01*
X165960535Y-82428645D01*
X165959339Y-82430075D01*
X165957168Y-82434424D01*
X165959328Y-82438026D01*
X165967644Y-82440951D01*
X165983940Y-82443269D01*
X166010041Y-82445051D01*
X166047771Y-82446367D01*
X166098956Y-82447286D01*
X166165420Y-82447878D01*
X166248987Y-82448215D01*
X166351483Y-82448365D01*
X166474732Y-82448400D01*
X167006296Y-82448400D01*
X166967523Y-82390783D01*
X166961432Y-82381893D01*
X166950976Y-82367069D01*
X166941579Y-82353422D01*
X166933183Y-82339765D01*
X166925733Y-82324911D01*
X166919173Y-82307670D01*
X166913446Y-82286855D01*
X166908495Y-82261280D01*
X166904266Y-82229755D01*
X166900701Y-82191093D01*
X166897744Y-82144107D01*
X166895340Y-82087608D01*
X166893431Y-82020409D01*
X166891962Y-81941322D01*
X166890876Y-81849160D01*
X166890118Y-81742734D01*
X166889630Y-81620857D01*
X166889358Y-81482341D01*
X166889243Y-81325999D01*
X166889231Y-81150642D01*
X166889265Y-80955082D01*
X166889289Y-80738133D01*
X166889280Y-80615513D01*
X166889243Y-80410447D01*
X166889227Y-80226116D01*
X166889288Y-80061334D01*
X166889484Y-79914916D01*
X166889870Y-79785674D01*
X166890505Y-79672422D01*
X166891444Y-79573975D01*
X166892745Y-79489144D01*
X166894464Y-79416744D01*
X166896659Y-79355589D01*
X166899385Y-79304492D01*
X166902701Y-79262267D01*
X166906662Y-79227727D01*
X166911325Y-79199686D01*
X166916747Y-79176958D01*
X166922986Y-79158356D01*
X166930097Y-79142693D01*
X166938138Y-79128784D01*
X166947166Y-79115441D01*
X166957236Y-79101479D01*
X166968407Y-79085711D01*
X167008197Y-79027867D01*
X165948314Y-79027867D01*
X165986311Y-79090966D01*
X166000993Y-79116005D01*
X166015531Y-79143586D01*
X166027627Y-79171700D01*
X166037532Y-79202551D01*
X166045494Y-79238344D01*
X166051761Y-79281283D01*
X166056582Y-79333574D01*
X166060206Y-79397419D01*
X166062881Y-79475025D01*
X166064857Y-79568594D01*
X166066382Y-79680333D01*
X166067704Y-79812445D01*
X166068613Y-79932434D01*
X166069020Y-80049063D01*
X166068767Y-80144531D01*
X166067857Y-80218556D01*
X166066293Y-80270855D01*
X166064079Y-80301149D01*
X166061220Y-80309156D01*
X166058161Y-80305858D01*
X166040006Y-80284408D01*
X166010275Y-80247889D01*
X165970639Y-80198442D01*
X165922771Y-80138207D01*
X165868343Y-80069327D01*
X165809027Y-79993943D01*
X165746495Y-79914196D01*
X165682421Y-79832228D01*
X165618475Y-79750180D01*
X165556331Y-79670194D01*
X165497661Y-79594411D01*
X165444137Y-79524973D01*
X165397430Y-79464021D01*
X165359214Y-79413696D01*
X165331161Y-79376140D01*
X165314943Y-79353495D01*
X165269635Y-79281212D01*
X165229661Y-79201463D01*
X165208130Y-79133188D01*
X165204827Y-79075844D01*
X165210116Y-79027867D01*
X164078356Y-79028117D01*
X164117867Y-79058722D01*
X164127248Y-79066089D01*
X164190183Y-79120438D01*
X164258997Y-79188259D01*
X164335596Y-79271516D01*
X164421888Y-79372178D01*
X164439052Y-79392847D01*
X164479833Y-79442409D01*
X164529588Y-79503326D01*
X164586955Y-79573898D01*
X164650569Y-79652424D01*
X164719069Y-79737204D01*
X164791090Y-79826537D01*
X164865270Y-79918722D01*
X164880517Y-79937702D01*
X164940246Y-80012060D01*
X165014653Y-80104848D01*
X165087131Y-80195388D01*
X165156314Y-80281978D01*
X165220841Y-80362918D01*
X165279347Y-80436506D01*
X165330470Y-80501044D01*
X165372847Y-80554829D01*
X165405115Y-80596162D01*
X165425910Y-80623342D01*
X165433869Y-80634668D01*
X165432111Y-80638771D01*
X165419230Y-80659334D01*
X165394885Y-80695561D01*
X165360247Y-80745824D01*
X165316486Y-80808492D01*
X165264775Y-80881936D01*
X165206284Y-80964527D01*
X165142184Y-81054636D01*
X165073646Y-81150631D01*
X165001843Y-81250885D01*
X164927944Y-81353768D01*
X164853121Y-81457650D01*
X164778545Y-81560901D01*
X164705387Y-81661892D01*
X164634819Y-81758994D01*
X164568011Y-81850577D01*
X164506135Y-81935011D01*
X164450361Y-82010667D01*
X164401862Y-82075916D01*
X164361807Y-82129128D01*
X164331369Y-82168673D01*
X164310944Y-82194026D01*
X164264899Y-82248295D01*
X164214612Y-82304775D01*
X164167815Y-82354669D01*
X164076651Y-82448400D01*
X163378445Y-82448400D01*
X163447356Y-82448349D01*
X163545607Y-82448091D01*
X163635030Y-82447637D01*
X163713333Y-82447010D01*
X163778223Y-82446235D01*
X163827411Y-82445335D01*
X163858604Y-82444334D01*
X163869511Y-82443257D01*
X163868322Y-82440037D01*
X163858176Y-82422452D01*
X163841040Y-82396158D01*
X163832540Y-82383691D01*
X163823329Y-82369622D01*
X163815233Y-82355351D01*
X163808185Y-82339479D01*
X163802117Y-82320609D01*
X163796961Y-82297341D01*
X163792651Y-82268278D01*
X163789119Y-82232021D01*
X163786297Y-82187170D01*
X163784118Y-82132328D01*
X163782514Y-82066097D01*
X163781419Y-81987077D01*
X163780765Y-81893871D01*
X163780484Y-81785079D01*
X163780509Y-81659303D01*
X163780772Y-81515145D01*
X163781206Y-81351207D01*
X163781745Y-81166089D01*
X163782279Y-80987232D01*
X163782805Y-80828374D01*
X163783350Y-80689316D01*
X163783945Y-80568665D01*
X163784619Y-80465028D01*
X163785403Y-80377011D01*
X163786326Y-80303223D01*
X163787419Y-80242269D01*
X163788712Y-80192757D01*
X163790235Y-80153293D01*
X163792019Y-80122484D01*
X163794092Y-80098938D01*
X163796486Y-80081260D01*
X163799230Y-80068059D01*
X163802356Y-80057940D01*
X163805892Y-80049511D01*
X163809791Y-80041375D01*
X163829438Y-80004544D01*
X163848225Y-79974391D01*
X163849272Y-79972908D01*
X163863602Y-79950659D01*
X163869511Y-79937702D01*
X163868504Y-79937249D01*
X163851305Y-79935803D01*
X163814656Y-79934480D01*
X163760962Y-79933316D01*
X163692630Y-79932347D01*
X163612064Y-79931611D01*
X163521670Y-79931142D01*
X163423853Y-79930978D01*
X162978195Y-79930978D01*
X162975120Y-81107845D01*
X162972045Y-82284711D01*
X162945407Y-82343622D01*
X162933485Y-82368183D01*
X162916246Y-82398434D01*
X162903074Y-82415560D01*
X162895076Y-82423591D01*
X162887378Y-82438493D01*
X162595942Y-82438493D01*
X162595474Y-82346029D01*
X162595050Y-82230617D01*
X162594706Y-82100160D01*
X162594434Y-81953716D01*
X162594227Y-81790344D01*
X162594076Y-81609101D01*
X162593972Y-81409048D01*
X162593908Y-81189241D01*
X162593876Y-80948739D01*
X162593867Y-80686602D01*
X162593867Y-78495031D01*
X162632249Y-78456649D01*
X162659355Y-78432911D01*
X162686253Y-78421111D01*
X162722560Y-78418267D01*
X162774489Y-78418267D01*
X162774489Y-78506206D01*
X162776427Y-78556102D01*
X162795199Y-78666523D01*
X162832217Y-78767987D01*
X162885369Y-78859152D01*
X162952546Y-78938673D01*
X163031638Y-79005205D01*
X163120534Y-79057406D01*
X163217125Y-79093930D01*
X163319300Y-79113434D01*
X163424950Y-79114573D01*
X163531964Y-79096005D01*
X163638232Y-79056384D01*
X163735219Y-78998516D01*
X163820293Y-78923684D01*
X163889015Y-78835615D01*
X163939918Y-78736616D01*
X163971535Y-78628993D01*
X163982400Y-78515054D01*
X163982400Y-78418267D01*
X165602753Y-78418267D01*
X165813897Y-78418280D01*
X166018020Y-78418330D01*
X166201686Y-78418430D01*
X166365991Y-78418592D01*
X166512029Y-78418829D01*
X166640894Y-78419153D01*
X166753683Y-78419575D01*
X166851488Y-78420109D01*
X166935404Y-78420767D01*
X167006527Y-78421561D01*
X167065950Y-78422504D01*
X167114768Y-78423608D01*
X167154077Y-78424884D01*
X167184969Y-78426347D01*
X167208541Y-78428007D01*
X167225886Y-78429878D01*
X167238099Y-78431972D01*
X167246275Y-78434300D01*
X167251508Y-78436876D01*
X167257504Y-78440445D01*
X167264279Y-78443978D01*
X167270478Y-78447488D01*
X167276126Y-78451918D01*
X167281247Y-78458208D01*
X167285869Y-78467301D01*
X167290015Y-78480139D01*
X167293713Y-78497662D01*
X167296987Y-78520813D01*
X167299863Y-78550534D01*
X167302367Y-78587765D01*
X167304524Y-78633449D01*
X167306360Y-78688527D01*
X167307900Y-78753941D01*
X167309170Y-78830633D01*
X167310195Y-78919544D01*
X167311001Y-79021617D01*
X167311034Y-79027867D01*
X167311614Y-79137792D01*
G36*
X167311614Y-79137792D02*
G01*
X167312059Y-79269011D01*
X167312362Y-79416216D01*
X167312548Y-79580349D01*
X167312642Y-79762352D01*
X167312671Y-79963165D01*
X167312661Y-80183732D01*
X167312636Y-80424992D01*
X167312622Y-80687889D01*
X167312622Y-80730040D01*
X167312646Y-80990668D01*
X167312685Y-81229796D01*
X167312708Y-81448360D01*
X167312687Y-81647295D01*
X167312593Y-81827535D01*
X167312395Y-81990015D01*
X167312063Y-82135670D01*
X167311569Y-82265434D01*
X167310883Y-82380243D01*
X167309976Y-82481030D01*
X167308817Y-82568730D01*
X167307378Y-82644279D01*
X167305629Y-82708611D01*
X167303540Y-82762661D01*
X167301083Y-82807363D01*
X167298227Y-82843652D01*
X167294943Y-82872463D01*
X167291202Y-82894731D01*
X167286974Y-82911390D01*
X167282229Y-82923375D01*
X167276939Y-82931621D01*
X167271073Y-82937062D01*
X167264602Y-82940634D01*
X167257497Y-82943270D01*
X167249728Y-82945906D01*
X167241266Y-82949477D01*
X167236908Y-82951145D01*
X167228395Y-82953111D01*
X167215694Y-82954911D01*
X167197885Y-82956555D01*
X167174049Y-82958047D01*
X167143266Y-82959397D01*
X167104617Y-82960611D01*
X167057182Y-82961697D01*
X167000043Y-82962661D01*
X166932279Y-82963511D01*
X166852971Y-82964253D01*
X166761199Y-82964897D01*
X166656044Y-82965447D01*
X166536587Y-82965913D01*
X166401908Y-82966300D01*
X166251088Y-82966616D01*
X166083206Y-82966869D01*
X165897345Y-82967066D01*
X165692583Y-82967213D01*
X165468002Y-82967318D01*
X165222682Y-82967389D01*
X164955704Y-82967432D01*
X164917321Y-82967437D01*
X164651922Y-82967480D01*
X164408050Y-82967525D01*
X164184783Y-82967548D01*
X163981196Y-82967524D01*
X163796367Y-82967430D01*
X163629373Y-82967243D01*
X163479290Y-82966939D01*
X163345196Y-82966494D01*
X163226166Y-82965885D01*
X163121279Y-82965089D01*
X163029610Y-82964080D01*
X162950237Y-82962837D01*
X162882237Y-82961335D01*
X162824686Y-82959551D01*
X162776662Y-82957461D01*
X162737240Y-82955042D01*
X162705499Y-82952270D01*
X162680514Y-82949121D01*
X162661364Y-82945572D01*
X162647123Y-82941598D01*
X162636871Y-82937178D01*
X162629682Y-82932286D01*
X162624635Y-82926900D01*
X162620805Y-82920996D01*
X162617271Y-82914549D01*
X162613108Y-82907537D01*
X162612025Y-82905687D01*
X162609813Y-82900180D01*
X162607786Y-82891868D01*
X162605938Y-82879809D01*
X162604261Y-82863063D01*
X162602745Y-82840687D01*
X162601383Y-82811740D01*
X162600167Y-82775280D01*
X162599089Y-82730367D01*
X162598140Y-82676057D01*
X162597312Y-82611410D01*
X162596597Y-82535484D01*
X162595987Y-82447338D01*
X162595942Y-82438493D01*
X162887378Y-82438493D01*
X162891260Y-82439765D01*
X162914520Y-82441791D01*
X162956874Y-82443626D01*
X163016132Y-82445227D01*
X163090107Y-82446549D01*
X163176610Y-82447548D01*
X163273452Y-82448180D01*
X163378445Y-82448400D01*
X164076651Y-82448400D01*
X165231090Y-82448400D01*
X165230456Y-82372200D01*
X165231574Y-82330160D01*
X165237304Y-82294334D01*
X165249890Y-82256772D01*
X165271568Y-82208577D01*
X165274789Y-82201897D01*
X165300188Y-82152359D01*
X165326996Y-82104369D01*
X165349917Y-82067466D01*
X165354485Y-82060834D01*
X165376516Y-82029593D01*
X165408693Y-81984654D01*
X165449457Y-81928147D01*
X165497245Y-81862204D01*
X165550498Y-81788957D01*
X165607655Y-81710536D01*
X165667155Y-81629072D01*
X165727437Y-81546698D01*
X165786940Y-81465544D01*
X165844105Y-81387742D01*
X165897370Y-81315423D01*
X165945174Y-81250718D01*
X165985957Y-81195759D01*
X166018158Y-81152676D01*
X166040216Y-81123602D01*
X166050571Y-81110667D01*
X166055044Y-81106351D01*
X166059236Y-81104312D01*
X166062643Y-81106926D01*
X166065325Y-81115986D01*
X166067341Y-81133285D01*
X166068748Y-81160614D01*
X166069605Y-81199765D01*
X166069970Y-81252533D01*
X166069903Y-81320707D01*
X166069460Y-81406082D01*
X166068702Y-81510449D01*
X166067685Y-81635600D01*
X166067308Y-81680300D01*
X166066169Y-81801395D01*
X166064972Y-81902688D01*
X166063636Y-81986262D01*
X166062077Y-82054204D01*
X166060215Y-82108599D01*
X166057966Y-82151532D01*
X166055248Y-82185089D01*
X166051979Y-82211355D01*
X166048078Y-82232416D01*
X166043461Y-82250357D01*
X166035192Y-82276770D01*
X166011583Y-82338772D01*
X165985685Y-82391573D01*
X165960535Y-82428645D01*
X165959339Y-82430075D01*
X165957168Y-82434424D01*
X165959328Y-82438026D01*
X165967644Y-82440951D01*
X165983940Y-82443269D01*
X166010041Y-82445051D01*
X166047771Y-82446367D01*
X166098956Y-82447286D01*
X166165420Y-82447878D01*
X166248987Y-82448215D01*
X166351483Y-82448365D01*
X166474732Y-82448400D01*
X167006296Y-82448400D01*
X166967523Y-82390783D01*
X166961432Y-82381893D01*
X166950976Y-82367069D01*
X166941579Y-82353422D01*
X166933183Y-82339765D01*
X166925733Y-82324911D01*
X166919173Y-82307670D01*
X166913446Y-82286855D01*
X166908495Y-82261280D01*
X166904266Y-82229755D01*
X166900701Y-82191093D01*
X166897744Y-82144107D01*
X166895340Y-82087608D01*
X166893431Y-82020409D01*
X166891962Y-81941322D01*
X166890876Y-81849160D01*
X166890118Y-81742734D01*
X166889630Y-81620857D01*
X166889358Y-81482341D01*
X166889243Y-81325999D01*
X166889231Y-81150642D01*
X166889265Y-80955082D01*
X166889289Y-80738133D01*
X166889280Y-80615513D01*
X166889243Y-80410447D01*
X166889227Y-80226116D01*
X166889288Y-80061334D01*
X166889484Y-79914916D01*
X166889870Y-79785674D01*
X166890505Y-79672422D01*
X166891444Y-79573975D01*
X166892745Y-79489144D01*
X166894464Y-79416744D01*
X166896659Y-79355589D01*
X166899385Y-79304492D01*
X166902701Y-79262267D01*
X166906662Y-79227727D01*
X166911325Y-79199686D01*
X166916747Y-79176958D01*
X166922986Y-79158356D01*
X166930097Y-79142693D01*
X166938138Y-79128784D01*
X166947166Y-79115441D01*
X166957236Y-79101479D01*
X166968407Y-79085711D01*
X167008197Y-79027867D01*
X165948314Y-79027867D01*
X165986311Y-79090966D01*
X166000993Y-79116005D01*
X166015531Y-79143586D01*
X166027627Y-79171700D01*
X166037532Y-79202551D01*
X166045494Y-79238344D01*
X166051761Y-79281283D01*
X166056582Y-79333574D01*
X166060206Y-79397419D01*
X166062881Y-79475025D01*
X166064857Y-79568594D01*
X166066382Y-79680333D01*
X166067704Y-79812445D01*
X166068613Y-79932434D01*
X166069020Y-80049063D01*
X166068767Y-80144531D01*
X166067857Y-80218556D01*
X166066293Y-80270855D01*
X166064079Y-80301149D01*
X166061220Y-80309156D01*
X166058161Y-80305858D01*
X166040006Y-80284408D01*
X166010275Y-80247889D01*
X165970639Y-80198442D01*
X165922771Y-80138207D01*
X165868343Y-80069327D01*
X165809027Y-79993943D01*
X165746495Y-79914196D01*
X165682421Y-79832228D01*
X165618475Y-79750180D01*
X165556331Y-79670194D01*
X165497661Y-79594411D01*
X165444137Y-79524973D01*
X165397430Y-79464021D01*
X165359214Y-79413696D01*
X165331161Y-79376140D01*
X165314943Y-79353495D01*
X165269635Y-79281212D01*
X165229661Y-79201463D01*
X165208130Y-79133188D01*
X165204827Y-79075844D01*
X165210116Y-79027867D01*
X164078356Y-79028117D01*
X164117867Y-79058722D01*
X164127248Y-79066089D01*
X164190183Y-79120438D01*
X164258997Y-79188259D01*
X164335596Y-79271516D01*
X164421888Y-79372178D01*
X164439052Y-79392847D01*
X164479833Y-79442409D01*
X164529588Y-79503326D01*
X164586955Y-79573898D01*
X164650569Y-79652424D01*
X164719069Y-79737204D01*
X164791090Y-79826537D01*
X164865270Y-79918722D01*
X164880517Y-79937702D01*
X164940246Y-80012060D01*
X165014653Y-80104848D01*
X165087131Y-80195388D01*
X165156314Y-80281978D01*
X165220841Y-80362918D01*
X165279347Y-80436506D01*
X165330470Y-80501044D01*
X165372847Y-80554829D01*
X165405115Y-80596162D01*
X165425910Y-80623342D01*
X165433869Y-80634668D01*
X165432111Y-80638771D01*
X165419230Y-80659334D01*
X165394885Y-80695561D01*
X165360247Y-80745824D01*
X165316486Y-80808492D01*
X165264775Y-80881936D01*
X165206284Y-80964527D01*
X165142184Y-81054636D01*
X165073646Y-81150631D01*
X165001843Y-81250885D01*
X164927944Y-81353768D01*
X164853121Y-81457650D01*
X164778545Y-81560901D01*
X164705387Y-81661892D01*
X164634819Y-81758994D01*
X164568011Y-81850577D01*
X164506135Y-81935011D01*
X164450361Y-82010667D01*
X164401862Y-82075916D01*
X164361807Y-82129128D01*
X164331369Y-82168673D01*
X164310944Y-82194026D01*
X164264899Y-82248295D01*
X164214612Y-82304775D01*
X164167815Y-82354669D01*
X164076651Y-82448400D01*
X163378445Y-82448400D01*
X163447356Y-82448349D01*
X163545607Y-82448091D01*
X163635030Y-82447637D01*
X163713333Y-82447010D01*
X163778223Y-82446235D01*
X163827411Y-82445335D01*
X163858604Y-82444334D01*
X163869511Y-82443257D01*
X163868322Y-82440037D01*
X163858176Y-82422452D01*
X163841040Y-82396158D01*
X163832540Y-82383691D01*
X163823329Y-82369622D01*
X163815233Y-82355351D01*
X163808185Y-82339479D01*
X163802117Y-82320609D01*
X163796961Y-82297341D01*
X163792651Y-82268278D01*
X163789119Y-82232021D01*
X163786297Y-82187170D01*
X163784118Y-82132328D01*
X163782514Y-82066097D01*
X163781419Y-81987077D01*
X163780765Y-81893871D01*
X163780484Y-81785079D01*
X163780509Y-81659303D01*
X163780772Y-81515145D01*
X163781206Y-81351207D01*
X163781745Y-81166089D01*
X163782279Y-80987232D01*
X163782805Y-80828374D01*
X163783350Y-80689316D01*
X163783945Y-80568665D01*
X163784619Y-80465028D01*
X163785403Y-80377011D01*
X163786326Y-80303223D01*
X163787419Y-80242269D01*
X163788712Y-80192757D01*
X163790235Y-80153293D01*
X163792019Y-80122484D01*
X163794092Y-80098938D01*
X163796486Y-80081260D01*
X163799230Y-80068059D01*
X163802356Y-80057940D01*
X163805892Y-80049511D01*
X163809791Y-80041375D01*
X163829438Y-80004544D01*
X163848225Y-79974391D01*
X163849272Y-79972908D01*
X163863602Y-79950659D01*
X163869511Y-79937702D01*
X163868504Y-79937249D01*
X163851305Y-79935803D01*
X163814656Y-79934480D01*
X163760962Y-79933316D01*
X163692630Y-79932347D01*
X163612064Y-79931611D01*
X163521670Y-79931142D01*
X163423853Y-79930978D01*
X162978195Y-79930978D01*
X162975120Y-81107845D01*
X162972045Y-82284711D01*
X162945407Y-82343622D01*
X162933485Y-82368183D01*
X162916246Y-82398434D01*
X162903074Y-82415560D01*
X162895076Y-82423591D01*
X162887378Y-82438493D01*
X162595942Y-82438493D01*
X162595474Y-82346029D01*
X162595050Y-82230617D01*
X162594706Y-82100160D01*
X162594434Y-81953716D01*
X162594227Y-81790344D01*
X162594076Y-81609101D01*
X162593972Y-81409048D01*
X162593908Y-81189241D01*
X162593876Y-80948739D01*
X162593867Y-80686602D01*
X162593867Y-78495031D01*
X162632249Y-78456649D01*
X162659355Y-78432911D01*
X162686253Y-78421111D01*
X162722560Y-78418267D01*
X162774489Y-78418267D01*
X162774489Y-78506206D01*
X162776427Y-78556102D01*
X162795199Y-78666523D01*
X162832217Y-78767987D01*
X162885369Y-78859152D01*
X162952546Y-78938673D01*
X163031638Y-79005205D01*
X163120534Y-79057406D01*
X163217125Y-79093930D01*
X163319300Y-79113434D01*
X163424950Y-79114573D01*
X163531964Y-79096005D01*
X163638232Y-79056384D01*
X163735219Y-78998516D01*
X163820293Y-78923684D01*
X163889015Y-78835615D01*
X163939918Y-78736616D01*
X163971535Y-78628993D01*
X163982400Y-78515054D01*
X163982400Y-78418267D01*
X165602753Y-78418267D01*
X165813897Y-78418280D01*
X166018020Y-78418330D01*
X166201686Y-78418430D01*
X166365991Y-78418592D01*
X166512029Y-78418829D01*
X166640894Y-78419153D01*
X166753683Y-78419575D01*
X166851488Y-78420109D01*
X166935404Y-78420767D01*
X167006527Y-78421561D01*
X167065950Y-78422504D01*
X167114768Y-78423608D01*
X167154077Y-78424884D01*
X167184969Y-78426347D01*
X167208541Y-78428007D01*
X167225886Y-78429878D01*
X167238099Y-78431972D01*
X167246275Y-78434300D01*
X167251508Y-78436876D01*
X167257504Y-78440445D01*
X167264279Y-78443978D01*
X167270478Y-78447488D01*
X167276126Y-78451918D01*
X167281247Y-78458208D01*
X167285869Y-78467301D01*
X167290015Y-78480139D01*
X167293713Y-78497662D01*
X167296987Y-78520813D01*
X167299863Y-78550534D01*
X167302367Y-78587765D01*
X167304524Y-78633449D01*
X167306360Y-78688527D01*
X167307900Y-78753941D01*
X167309170Y-78830633D01*
X167310195Y-78919544D01*
X167311001Y-79021617D01*
X167311034Y-79027867D01*
X167311614Y-79137792D01*
G37*
%TD*%
M02*
