%TF.GenerationSoftware,KiCad,Pcbnew,9.0.5*%
%TF.CreationDate,2025-10-30T12:00:21+09:00*%
%TF.ProjectId,MCU_Datalogger,4d43555f-4461-4746-916c-6f676765722e,1*%
%TF.SameCoordinates,Original*%
%TF.FileFunction,Copper,L2,Bot*%
%TF.FilePolarity,Positive*%
%FSLAX46Y46*%
G04 Gerber Fmt 4.6, Leading zero omitted, Abs format (unit mm)*
G04 Created by KiCad (PCBNEW 9.0.5) date 2025-10-30 12:00:21*
%MOMM*%
%LPD*%
G01*
G04 APERTURE LIST*
%TA.AperFunction,ComponentPad*%
%ADD10R,1.700000X1.700000*%
%TD*%
%TA.AperFunction,ComponentPad*%
%ADD11C,1.700000*%
%TD*%
%TA.AperFunction,ViaPad*%
%ADD12C,0.800000*%
%TD*%
%TA.AperFunction,ViaPad*%
%ADD13C,0.900000*%
%TD*%
%TA.AperFunction,Conductor*%
%ADD14C,0.250000*%
%TD*%
%TA.AperFunction,Conductor*%
%ADD15C,0.350000*%
%TD*%
G04 APERTURE END LIST*
D10*
%TO.P,J3,1,Pin_1*%
%TO.N,GND*%
X169607000Y-86995000D03*
D11*
%TO.P,J3,2,Pin_2*%
%TO.N,/VCC*%
X172147000Y-86995000D03*
%TO.P,J3,3,Pin_3*%
%TO.N,/RX*%
X174687000Y-86995000D03*
%TO.P,J3,4,Pin_4*%
%TO.N,/TX*%
X177227000Y-86995000D03*
%TD*%
D10*
%TO.P,J4,1,Pin_1*%
%TO.N,/MISO*%
X180457000Y-66548000D03*
D11*
%TO.P,J4,2,Pin_2*%
%TO.N,/VCC*%
X182997000Y-66548000D03*
%TO.P,J4,3,Pin_3*%
%TO.N,/SCK*%
X180457000Y-69088000D03*
%TO.P,J4,4,Pin_4*%
%TO.N,/MOSI*%
X182997000Y-69088000D03*
%TO.P,J4,5,Pin_5*%
%TO.N,/RESET*%
X180457000Y-71628000D03*
%TO.P,J4,6,Pin_6*%
%TO.N,GND*%
X182997000Y-71628000D03*
%TD*%
D10*
%TO.P,J1,1,Pin_1*%
%TO.N,GND*%
X183007000Y-75184000D03*
D11*
%TO.P,J1,2,Pin_2*%
%TO.N,/VCC*%
X183007000Y-77724000D03*
%TO.P,J1,3,Pin_3*%
%TO.N,/SDA*%
X183007000Y-80264000D03*
%TO.P,J1,4,Pin_4*%
%TO.N,/SCK*%
X183007000Y-82804000D03*
%TD*%
D10*
%TO.P,J2,1,Pin_1*%
%TO.N,/D2*%
X143953000Y-86995000D03*
D11*
%TO.P,J2,2,Pin_2*%
%TO.N,/D3*%
X146493000Y-86995000D03*
%TO.P,J2,3,Pin_3*%
%TO.N,/D4*%
X149033000Y-86995000D03*
%TO.P,J2,4,Pin_4*%
%TO.N,/D5*%
X151573000Y-86995000D03*
%TO.P,J2,5,Pin_5*%
%TO.N,/D6*%
X154113000Y-86995000D03*
%TO.P,J2,6,Pin_6*%
%TO.N,/D7*%
X156653000Y-86995000D03*
%TO.P,J2,7,Pin_7*%
%TO.N,/D8*%
X159193000Y-86995000D03*
%TO.P,J2,8,Pin_8*%
%TO.N,GND*%
X161733000Y-86995000D03*
%TO.P,J2,9,Pin_9*%
%TO.N,/VCC*%
X164273000Y-86995000D03*
%TD*%
D10*
%TO.P,BAT,1*%
%TO.N,Net-(D2-A)*%
X141413000Y-69404000D03*
D11*
%TO.P,BAT,2*%
%TO.N,GND*%
X141413000Y-71944000D03*
%TD*%
D12*
%TO.N,Net-(D2-A)*%
X172974000Y-63627000D03*
X164488499Y-71840062D03*
X156518143Y-70226001D03*
X162673414Y-72639718D03*
X168021000Y-71628000D03*
X157607000Y-63791000D03*
D13*
%TO.N,GND*%
X164494500Y-69476709D03*
X176657000Y-64516000D03*
X160274000Y-61087000D03*
X159390237Y-72376036D03*
X173990000Y-80391000D03*
X159968364Y-70409636D03*
X148590000Y-63246000D03*
X168275000Y-63373000D03*
D12*
X171958000Y-64389000D03*
D13*
X149352000Y-70612000D03*
X149018281Y-78914281D03*
X146558000Y-65786000D03*
%TO.N,/VCC*%
X175387000Y-72263000D03*
D12*
%TO.N,Net-(U4-PB7)*%
X159004000Y-73406000D03*
X162687000Y-63500000D03*
%TO.N,Net-(U4-AREF)*%
X168275000Y-80264000D03*
%TO.N,/SCK*%
X154186652Y-73287652D03*
X150495000Y-72263000D03*
X178181000Y-70739000D03*
%TO.N,/SDA*%
X170561000Y-71501000D03*
X175133000Y-76205000D03*
%TO.N,/D7*%
X160148503Y-77226809D03*
%TO.N,/D2*%
X159004000Y-68072000D03*
%TO.N,/D6*%
X159385000Y-76581000D03*
%TO.N,/D8*%
X161363999Y-78442304D03*
%TO.N,/D5*%
X158314500Y-76581000D03*
%TO.N,/TX*%
X162086993Y-70704940D03*
%TO.N,/RX*%
X162553553Y-69820447D03*
%TO.N,/MISO*%
X166370000Y-74301000D03*
%TO.N,/RESET*%
X167296000Y-68580000D03*
X161434501Y-67676090D03*
%TO.N,Net-(U4-AREF)*%
X163957000Y-70993000D03*
%TD*%
D14*
%TO.N,Net-(D2-A)*%
X162673414Y-72639718D02*
X162673412Y-72639718D01*
X162560000Y-72526306D02*
X162560000Y-71363280D01*
X162673412Y-72639718D02*
X162560000Y-72526306D01*
X162560000Y-71363280D02*
X163656280Y-70267000D01*
X163656280Y-70267000D02*
X164257720Y-70267000D01*
X164257720Y-70267000D02*
X164719000Y-70728280D01*
X164719000Y-70728280D02*
X164719000Y-71609561D01*
X156500094Y-70207952D02*
X156500094Y-64897906D01*
X156518143Y-70226001D02*
X156500094Y-70207952D01*
X164719000Y-71609561D02*
X164488499Y-71840062D01*
X156500094Y-64897906D02*
X157607000Y-63791000D01*
X168021000Y-64389000D02*
X168021000Y-71628000D01*
X168021000Y-64374000D02*
X168021000Y-64389000D01*
X163709000Y-60062000D02*
X168021000Y-64374000D01*
X170860570Y-64389000D02*
X168021000Y-64389000D01*
X146171000Y-60062000D02*
X163709000Y-60062000D01*
X171636570Y-63613000D02*
X170860570Y-64389000D01*
X143129000Y-63104000D02*
X146171000Y-60062000D01*
X172960000Y-63613000D02*
X171636570Y-63613000D01*
X143129000Y-67688000D02*
X143129000Y-63104000D01*
X172974000Y-63627000D02*
X172960000Y-63613000D01*
X141413000Y-69404000D02*
X143129000Y-67688000D01*
D15*
%TO.N,GND*%
X159390237Y-70987763D02*
X159968364Y-70409636D01*
X159968364Y-61392636D02*
X160274000Y-61087000D01*
X159968364Y-70409636D02*
X159968364Y-61392636D01*
X159390237Y-72376036D02*
X159390237Y-70987763D01*
X146558000Y-65786000D02*
X146558000Y-65278000D01*
X146558000Y-65278000D02*
X148590000Y-63246000D01*
%TO.N,/VCC*%
X177546000Y-72263000D02*
X175387000Y-72263000D01*
X179197000Y-88646000D02*
X180467000Y-87376000D01*
X180467000Y-87376000D02*
X180467000Y-80264000D01*
X173798000Y-88646000D02*
X179197000Y-88646000D01*
X183007000Y-77724000D02*
X177546000Y-72263000D01*
X180467000Y-80264000D02*
X183007000Y-77724000D01*
X172147000Y-86995000D02*
X173798000Y-88646000D01*
D14*
%TO.N,Net-(U4-PB7)*%
X160642000Y-72382786D02*
X160909993Y-72114793D01*
X162687000Y-65024000D02*
X162687000Y-63500000D01*
X160708501Y-67976810D02*
X160708501Y-67375370D01*
X159004000Y-73406000D02*
X160147000Y-73406000D01*
X161036000Y-69974190D02*
X161036000Y-68304309D01*
X160909993Y-70100197D02*
X161036000Y-69974190D01*
X160909993Y-72114793D02*
X160909993Y-70100197D01*
X161036000Y-67047871D02*
X161036000Y-66675000D01*
X160642000Y-72911000D02*
X160642000Y-72382786D01*
X160147000Y-73406000D02*
X160642000Y-72911000D01*
X161036000Y-66675000D02*
X162687000Y-65024000D01*
X161036000Y-68304309D02*
X160708501Y-67976810D01*
X160708501Y-67375370D02*
X161036000Y-67047871D01*
%TO.N,/SCK*%
X154186652Y-73287652D02*
X151519652Y-73287652D01*
X178181000Y-69850000D02*
X178943000Y-69088000D01*
X178181000Y-70739000D02*
X178181000Y-69850000D01*
X178943000Y-69088000D02*
X180457000Y-69088000D01*
X151519652Y-73287652D02*
X150495000Y-72263000D01*
%TO.N,/SDA*%
X175133000Y-76073000D02*
X170561000Y-71501000D01*
X175133000Y-76205000D02*
X175133000Y-76073000D01*
%TO.N,/D7*%
X160148503Y-83499497D02*
X160148503Y-77226809D01*
X156653000Y-86995000D02*
X160148503Y-83499497D01*
%TO.N,/D2*%
X159004000Y-68072000D02*
X158496000Y-68580000D01*
X158496000Y-68580000D02*
X158496000Y-72452000D01*
X158496000Y-72452000D02*
X143953000Y-86995000D01*
%TO.N,/D6*%
X154940000Y-81280000D02*
X159385000Y-76835000D01*
X159385000Y-76835000D02*
X159385000Y-76581000D01*
X154113000Y-86995000D02*
X154940000Y-86168000D01*
X154940000Y-86168000D02*
X154940000Y-81280000D01*
%TO.N,/D8*%
X161363999Y-84824001D02*
X161363999Y-78442304D01*
X159193000Y-86995000D02*
X161363999Y-84824001D01*
%TO.N,/D5*%
X154305000Y-84263000D02*
X154305000Y-80899000D01*
X158314500Y-76889500D02*
X158314500Y-76581000D01*
X154305000Y-80899000D02*
X158314500Y-76889500D01*
X151573000Y-86995000D02*
X154305000Y-84263000D01*
%TO.N,/TX*%
X173698884Y-85318000D02*
X174199884Y-85819000D01*
X171452364Y-85318000D02*
X173698884Y-85318000D01*
X176350116Y-86995000D02*
X177227000Y-86995000D01*
X169902810Y-85318000D02*
X171019810Y-85318000D01*
X171019810Y-85318000D02*
X171236087Y-85534277D01*
X161544000Y-72756406D02*
X161544000Y-76959190D01*
X162086993Y-72213413D02*
X161544000Y-72756406D01*
X171236087Y-85534277D02*
X171452364Y-85318000D01*
X174199884Y-85819000D02*
X175174116Y-85819000D01*
X161544000Y-76959190D02*
X169902810Y-85318000D01*
X175174116Y-85819000D02*
X176350116Y-86995000D01*
X162086993Y-70704940D02*
X162086993Y-72213413D01*
%TO.N,/RX*%
X161635993Y-71685000D02*
X161635993Y-72026603D01*
X162553553Y-69820447D02*
X161827553Y-69820447D01*
X161827553Y-69820447D02*
X161360993Y-70287007D01*
X161093000Y-72569596D02*
X161093000Y-73129993D01*
X161093000Y-73129993D02*
X161036000Y-73186993D01*
X169716000Y-85769000D02*
X170833000Y-85769000D01*
X161036000Y-77089000D02*
X169716000Y-85769000D01*
X161360993Y-71410000D02*
X161635993Y-71685000D01*
X170833000Y-85769000D02*
X171049277Y-85985277D01*
X173880826Y-86995000D02*
X174687000Y-86995000D01*
X161360993Y-70287007D02*
X161360993Y-71410000D01*
X161635993Y-72026603D02*
X161093000Y-72569596D01*
X161036000Y-73186993D02*
X161036000Y-77089000D01*
X171049277Y-85985277D02*
X171422897Y-85985277D01*
X171639174Y-85769000D02*
X172654826Y-85769000D01*
X172654826Y-85769000D02*
X173880826Y-86995000D01*
X171422897Y-85985277D02*
X171639174Y-85769000D01*
%TO.N,/MISO*%
X180457000Y-66548000D02*
X174127720Y-66548000D01*
%TO.N,/RESET*%
X166392090Y-67676090D02*
X167296000Y-68580000D01*
X161434501Y-67676090D02*
X166392090Y-67676090D01*
%TO.N,Net-(U4-AREF)*%
X168275000Y-80264000D02*
X165486620Y-80264000D01*
X165486620Y-80264000D02*
X163011000Y-77788380D01*
%TO.N,/MISO*%
X166374720Y-74301000D02*
X166370000Y-74301000D01*
X174127720Y-66548000D02*
X166374720Y-74301000D01*
%TO.N,Net-(U4-AREF)*%
X163011000Y-77788380D02*
X163011000Y-73328852D01*
X163011000Y-73328852D02*
X163399414Y-72940438D01*
X163399414Y-72940438D02*
X163399414Y-72338998D01*
X163011000Y-71950584D02*
X163011000Y-71939000D01*
X163011000Y-71939000D02*
X163957000Y-70993000D01*
X163399414Y-72338998D02*
X163011000Y-71950584D01*
D15*
%TO.N,GND*%
X181721000Y-72904000D02*
X182997000Y-71628000D01*
X179076000Y-72904000D02*
X181721000Y-72904000D01*
X177559000Y-71387000D02*
X179076000Y-72904000D01*
X175024148Y-71387000D02*
X177559000Y-71387000D01*
X174511000Y-71900148D02*
X175024148Y-71387000D01*
X174511000Y-72625852D02*
X174511000Y-71900148D01*
X175024148Y-73139000D02*
X174511000Y-72625852D01*
X176740859Y-73139000D02*
X175024148Y-73139000D01*
X177546000Y-73944141D02*
X176740859Y-73139000D01*
X175475141Y-77031000D02*
X177546000Y-74960141D01*
X177546000Y-74960141D02*
X177546000Y-73944141D01*
X167931859Y-77031000D02*
X175475141Y-77031000D01*
X165544000Y-70526209D02*
X165544000Y-74643141D01*
X164494500Y-69476709D02*
X165544000Y-70526209D01*
X165544000Y-74643141D02*
X167931859Y-77031000D01*
%TD*%
%TA.AperFunction,Conductor*%
%TO.N,GND*%
G36*
X145172086Y-59963685D02*
G01*
X145217841Y-60016489D01*
X145227785Y-60085647D01*
X145198760Y-60149203D01*
X145192728Y-60155681D01*
X142643141Y-62705267D01*
X142634593Y-62718061D01*
X142628955Y-62726500D01*
X142574689Y-62807711D01*
X142574682Y-62807724D01*
X142565878Y-62828983D01*
X142565877Y-62828987D01*
X142527538Y-62921545D01*
X142527535Y-62921555D01*
X142503500Y-63042389D01*
X142503500Y-67377547D01*
X142483815Y-67444586D01*
X142467181Y-67465228D01*
X141915227Y-68017181D01*
X141853904Y-68050666D01*
X141827546Y-68053500D01*
X140515129Y-68053500D01*
X140515123Y-68053501D01*
X140455516Y-68059908D01*
X140320671Y-68110202D01*
X140320664Y-68110206D01*
X140205455Y-68196452D01*
X140205452Y-68196455D01*
X140119206Y-68311664D01*
X140119202Y-68311671D01*
X140068908Y-68446517D01*
X140062501Y-68506116D01*
X140062500Y-68506135D01*
X140062500Y-70301870D01*
X140062501Y-70301876D01*
X140068908Y-70361483D01*
X140119202Y-70496328D01*
X140119206Y-70496335D01*
X140205452Y-70611544D01*
X140205455Y-70611547D01*
X140320664Y-70697793D01*
X140320671Y-70697797D01*
X140358771Y-70712007D01*
X140455517Y-70748091D01*
X140515127Y-70754500D01*
X140525685Y-70754499D01*
X140592723Y-70774179D01*
X140613372Y-70790818D01*
X141283591Y-71461037D01*
X141220007Y-71478075D01*
X141105993Y-71543901D01*
X141012901Y-71636993D01*
X140947075Y-71751007D01*
X140930037Y-71814591D01*
X140297728Y-71182282D01*
X140297727Y-71182282D01*
X140258380Y-71236439D01*
X140161904Y-71425782D01*
X140096242Y-71627869D01*
X140096242Y-71627872D01*
X140063000Y-71837753D01*
X140063000Y-72050246D01*
X140096242Y-72260127D01*
X140096242Y-72260130D01*
X140161904Y-72462217D01*
X140258375Y-72651550D01*
X140297728Y-72705716D01*
X140930037Y-72073408D01*
X140947075Y-72136993D01*
X141012901Y-72251007D01*
X141105993Y-72344099D01*
X141220007Y-72409925D01*
X141283590Y-72426962D01*
X140651282Y-73059269D01*
X140651282Y-73059270D01*
X140705449Y-73098624D01*
X140894782Y-73195095D01*
X141096870Y-73260757D01*
X141306754Y-73294000D01*
X141519246Y-73294000D01*
X141729127Y-73260757D01*
X141729130Y-73260757D01*
X141931217Y-73195095D01*
X142120554Y-73098622D01*
X142174716Y-73059270D01*
X142174717Y-73059270D01*
X141542408Y-72426962D01*
X141605993Y-72409925D01*
X141720007Y-72344099D01*
X141813099Y-72251007D01*
X141878925Y-72136993D01*
X141895962Y-72073409D01*
X142528270Y-72705717D01*
X142528270Y-72705716D01*
X142567622Y-72651554D01*
X142664095Y-72462217D01*
X142729757Y-72260130D01*
X142729757Y-72260127D01*
X142743350Y-72174304D01*
X149594500Y-72174304D01*
X149594500Y-72351695D01*
X149629103Y-72525658D01*
X149629106Y-72525667D01*
X149696983Y-72689540D01*
X149696990Y-72689553D01*
X149795535Y-72837034D01*
X149795538Y-72837038D01*
X149920961Y-72962461D01*
X149920965Y-72962464D01*
X150068446Y-73061009D01*
X150068459Y-73061016D01*
X150175428Y-73105323D01*
X150232334Y-73128894D01*
X150232336Y-73128894D01*
X150232341Y-73128896D01*
X150406304Y-73163499D01*
X150406307Y-73163500D01*
X150406309Y-73163500D01*
X150459548Y-73163500D01*
X150526587Y-73183185D01*
X150547229Y-73199819D01*
X151030668Y-73683258D01*
X151030697Y-73683289D01*
X151120915Y-73773507D01*
X151120923Y-73773513D01*
X151179260Y-73812493D01*
X151179262Y-73812494D01*
X151223362Y-73841961D01*
X151223361Y-73841961D01*
X151223364Y-73841962D01*
X151223367Y-73841964D01*
X151290048Y-73869583D01*
X151290050Y-73869585D01*
X151330292Y-73886253D01*
X151337200Y-73889115D01*
X151397623Y-73901133D01*
X151458045Y-73913152D01*
X151458046Y-73913152D01*
X153487291Y-73913152D01*
X153554330Y-73932837D01*
X153574973Y-73949472D01*
X153612613Y-73987113D01*
X153612617Y-73987116D01*
X153760098Y-74085661D01*
X153760111Y-74085668D01*
X153881128Y-74135794D01*
X153923986Y-74153546D01*
X153923988Y-74153546D01*
X153923993Y-74153548D01*
X154097956Y-74188151D01*
X154097959Y-74188152D01*
X154097961Y-74188152D01*
X154275345Y-74188152D01*
X154275346Y-74188151D01*
X154333334Y-74176616D01*
X154449310Y-74153548D01*
X154449313Y-74153546D01*
X154449318Y-74153546D01*
X154613199Y-74085665D01*
X154760687Y-73987116D01*
X154886116Y-73861687D01*
X154984665Y-73714199D01*
X155052546Y-73550318D01*
X155061163Y-73507001D01*
X155082347Y-73400500D01*
X155087152Y-73376343D01*
X155087152Y-73198961D01*
X155087152Y-73198958D01*
X155087151Y-73198956D01*
X155052548Y-73024993D01*
X155052545Y-73024984D01*
X154984668Y-72861111D01*
X154984661Y-72861098D01*
X154886116Y-72713617D01*
X154886113Y-72713613D01*
X154760690Y-72588190D01*
X154760686Y-72588187D01*
X154613205Y-72489642D01*
X154613192Y-72489635D01*
X154449319Y-72421758D01*
X154449310Y-72421755D01*
X154275346Y-72387152D01*
X154275343Y-72387152D01*
X154097961Y-72387152D01*
X154097958Y-72387152D01*
X153923993Y-72421755D01*
X153923984Y-72421758D01*
X153760111Y-72489635D01*
X153760098Y-72489642D01*
X153612617Y-72588187D01*
X153612613Y-72588190D01*
X153574973Y-72625832D01*
X153513651Y-72659318D01*
X153487291Y-72662152D01*
X151830104Y-72662152D01*
X151763065Y-72642467D01*
X151742423Y-72625833D01*
X151431819Y-72315229D01*
X151398334Y-72253906D01*
X151395500Y-72227548D01*
X151395500Y-72174306D01*
X151395499Y-72174304D01*
X151360896Y-72000341D01*
X151360893Y-72000332D01*
X151293016Y-71836459D01*
X151293009Y-71836446D01*
X151194464Y-71688965D01*
X151194461Y-71688961D01*
X151069038Y-71563538D01*
X151069034Y-71563535D01*
X150921553Y-71464990D01*
X150921540Y-71464983D01*
X150757667Y-71397106D01*
X150757658Y-71397103D01*
X150583694Y-71362500D01*
X150583691Y-71362500D01*
X150406309Y-71362500D01*
X150406306Y-71362500D01*
X150232341Y-71397103D01*
X150232332Y-71397106D01*
X150068459Y-71464983D01*
X150068446Y-71464990D01*
X149920965Y-71563535D01*
X149920961Y-71563538D01*
X149795538Y-71688961D01*
X149795535Y-71688965D01*
X149696990Y-71836446D01*
X149696983Y-71836459D01*
X149629106Y-72000332D01*
X149629103Y-72000341D01*
X149594500Y-72174304D01*
X142743350Y-72174304D01*
X142763000Y-72050246D01*
X142763000Y-71837753D01*
X142740231Y-71694000D01*
X144011500Y-71694000D01*
X145513500Y-71694000D01*
X146511500Y-71694000D01*
X148013500Y-71694000D01*
X148013500Y-70658896D01*
X151511500Y-70658896D01*
X151643869Y-70747343D01*
X151648845Y-70750847D01*
X151678417Y-70772779D01*
X151683215Y-70776524D01*
X151721097Y-70807613D01*
X151725704Y-70811587D01*
X151752991Y-70836318D01*
X151757400Y-70840516D01*
X151917484Y-71000600D01*
X151921682Y-71005009D01*
X151946413Y-71032296D01*
X151950387Y-71036903D01*
X151981476Y-71074785D01*
X151985221Y-71079583D01*
X152007153Y-71109155D01*
X152010657Y-71114131D01*
X152136434Y-71302368D01*
X152139691Y-71307512D01*
X152158627Y-71339106D01*
X152161627Y-71344401D01*
X152184729Y-71387623D01*
X152187466Y-71393062D01*
X152203206Y-71426344D01*
X152205671Y-71431905D01*
X152292301Y-71641051D01*
X152294491Y-71646728D01*
X152300726Y-71664152D01*
X153013500Y-71664152D01*
X153013500Y-71392838D01*
X154011500Y-71392838D01*
X154024536Y-71391555D01*
X154030606Y-71391107D01*
X154067378Y-71389301D01*
X154073461Y-71389152D01*
X154299843Y-71389152D01*
X154305926Y-71389301D01*
X154342698Y-71391107D01*
X154348768Y-71391555D01*
X154397540Y-71396358D01*
X154403581Y-71397103D01*
X154440012Y-71402507D01*
X154446009Y-71403548D01*
X154668060Y-71447717D01*
X154674001Y-71449051D01*
X154709736Y-71458003D01*
X154715604Y-71459627D01*
X154762497Y-71473854D01*
X154768272Y-71475762D01*
X154802924Y-71488161D01*
X154808601Y-71490351D01*
X155017747Y-71576981D01*
X155023308Y-71579446D01*
X155056590Y-71595186D01*
X155062029Y-71597923D01*
X155105251Y-71621025D01*
X155110546Y-71624025D01*
X155142140Y-71642961D01*
X155147284Y-71646218D01*
X155218794Y-71694000D01*
X155307414Y-71694000D01*
X155292046Y-71681388D01*
X155287439Y-71677414D01*
X155260152Y-71652683D01*
X155255743Y-71648485D01*
X155095659Y-71488401D01*
X155091461Y-71483992D01*
X155066730Y-71456705D01*
X155062756Y-71452098D01*
X155031667Y-71414216D01*
X155027922Y-71409418D01*
X155005990Y-71379846D01*
X155002486Y-71374870D01*
X154876709Y-71186633D01*
X154873452Y-71181489D01*
X154854516Y-71149895D01*
X154851516Y-71144600D01*
X154828414Y-71101378D01*
X154825677Y-71095939D01*
X154809937Y-71062657D01*
X154807472Y-71057096D01*
X154720842Y-70847950D01*
X154718652Y-70842273D01*
X154706253Y-70807621D01*
X154704345Y-70801846D01*
X154690118Y-70754953D01*
X154688494Y-70749085D01*
X154679542Y-70713350D01*
X154678208Y-70707409D01*
X154634039Y-70485358D01*
X154632998Y-70479361D01*
X154627594Y-70442930D01*
X154626849Y-70436889D01*
X154622046Y-70388117D01*
X154621598Y-70382047D01*
X154619792Y-70345275D01*
X154619643Y-70339192D01*
X154619643Y-70192000D01*
X154011500Y-70192000D01*
X154011500Y-71392838D01*
X153013500Y-71392838D01*
X153013500Y-70192000D01*
X151511500Y-70192000D01*
X151511500Y-70658896D01*
X148013500Y-70658896D01*
X148013500Y-70192000D01*
X146511500Y-70192000D01*
X146511500Y-71694000D01*
X145513500Y-71694000D01*
X145513500Y-70192000D01*
X144011500Y-70192000D01*
X144011500Y-71694000D01*
X142740231Y-71694000D01*
X142729757Y-71627872D01*
X142729757Y-71627869D01*
X142664095Y-71425782D01*
X142567624Y-71236449D01*
X142528270Y-71182282D01*
X142528269Y-71182282D01*
X141895962Y-71814590D01*
X141878925Y-71751007D01*
X141813099Y-71636993D01*
X141720007Y-71543901D01*
X141605993Y-71478075D01*
X141542409Y-71461037D01*
X142212627Y-70790818D01*
X142273950Y-70757333D01*
X142300307Y-70754499D01*
X142310872Y-70754499D01*
X142370483Y-70748091D01*
X142505331Y-70697796D01*
X142620546Y-70611546D01*
X142706796Y-70496331D01*
X142757091Y-70361483D01*
X142763500Y-70301873D01*
X142763500Y-70137305D01*
X155617643Y-70137305D01*
X155617643Y-70314696D01*
X155652246Y-70488659D01*
X155652249Y-70488668D01*
X155720126Y-70652541D01*
X155720133Y-70652554D01*
X155818678Y-70800035D01*
X155818681Y-70800039D01*
X155944104Y-70925462D01*
X155944108Y-70925465D01*
X156091589Y-71024010D01*
X156091602Y-71024017D01*
X156184889Y-71062657D01*
X156255477Y-71091895D01*
X156255479Y-71091895D01*
X156255484Y-71091897D01*
X156429447Y-71126500D01*
X156429450Y-71126501D01*
X156429452Y-71126501D01*
X156606836Y-71126501D01*
X156606837Y-71126500D01*
X156694038Y-71109155D01*
X156780801Y-71091897D01*
X156780804Y-71091895D01*
X156780809Y-71091895D01*
X156944690Y-71024014D01*
X157092178Y-70925465D01*
X157217607Y-70800036D01*
X157316156Y-70652548D01*
X157317084Y-70650309D01*
X157333140Y-70611544D01*
X157384037Y-70488667D01*
X157384696Y-70485358D01*
X157413697Y-70339557D01*
X157418643Y-70314692D01*
X157418643Y-70137310D01*
X157418643Y-70137307D01*
X157418642Y-70137305D01*
X157384039Y-69963342D01*
X157384036Y-69963333D01*
X157316159Y-69799460D01*
X157316152Y-69799447D01*
X157217607Y-69651965D01*
X157161913Y-69596271D01*
X157128428Y-69534948D01*
X157125594Y-69508590D01*
X157125594Y-66173500D01*
X159011500Y-66173500D01*
X159117191Y-66173500D01*
X159123274Y-66173649D01*
X159160046Y-66175455D01*
X159166116Y-66175903D01*
X159214888Y-66180706D01*
X159220929Y-66181451D01*
X159257360Y-66186855D01*
X159263357Y-66187896D01*
X159471561Y-66229310D01*
X159472401Y-66226278D01*
X159486628Y-66179381D01*
X159488538Y-66173601D01*
X159500941Y-66138940D01*
X159503130Y-66133266D01*
X159533561Y-66059797D01*
X159569029Y-65974167D01*
X159571497Y-65968600D01*
X159587238Y-65935319D01*
X159589972Y-65929887D01*
X159613073Y-65886665D01*
X159616073Y-65881369D01*
X159635008Y-65849776D01*
X159638266Y-65844630D01*
X159733958Y-65701420D01*
X159737464Y-65696443D01*
X159759407Y-65666858D01*
X159763153Y-65662058D01*
X159794242Y-65624179D01*
X159798216Y-65619573D01*
X159822935Y-65592301D01*
X159827130Y-65587895D01*
X160223025Y-65192000D01*
X159011500Y-65192000D01*
X159011500Y-66173500D01*
X157125594Y-66173500D01*
X157125594Y-65208358D01*
X157145279Y-65141319D01*
X157161913Y-65120677D01*
X157554772Y-64727819D01*
X157616095Y-64694334D01*
X157642453Y-64691500D01*
X157695693Y-64691500D01*
X157695694Y-64691499D01*
X157753682Y-64679964D01*
X157869658Y-64656896D01*
X157869661Y-64656894D01*
X157869666Y-64656894D01*
X158033547Y-64589013D01*
X158181035Y-64490464D01*
X158306464Y-64365035D01*
X158405013Y-64217547D01*
X158472894Y-64053666D01*
X158472917Y-64053553D01*
X158497248Y-63931232D01*
X158507500Y-63879691D01*
X158507500Y-63702309D01*
X158507500Y-63702306D01*
X158507499Y-63702304D01*
X158472896Y-63528341D01*
X158472893Y-63528332D01*
X158405016Y-63364459D01*
X158405009Y-63364446D01*
X158306464Y-63216965D01*
X158306461Y-63216961D01*
X158181038Y-63091538D01*
X158181034Y-63091535D01*
X158033553Y-62992990D01*
X158033540Y-62992983D01*
X157869667Y-62925106D01*
X157869658Y-62925103D01*
X157695694Y-62890500D01*
X157695691Y-62890500D01*
X157518309Y-62890500D01*
X157518306Y-62890500D01*
X157344341Y-62925103D01*
X157344332Y-62925106D01*
X157180459Y-62992983D01*
X157180446Y-62992990D01*
X157032965Y-63091535D01*
X157032961Y-63091538D01*
X156907538Y-63216961D01*
X156907535Y-63216965D01*
X156808990Y-63364446D01*
X156808983Y-63364459D01*
X156741106Y-63528332D01*
X156741103Y-63528341D01*
X156706500Y-63702304D01*
X156706500Y-63755547D01*
X156686815Y-63822586D01*
X156670181Y-63843228D01*
X156101363Y-64412046D01*
X156101361Y-64412048D01*
X156057798Y-64455610D01*
X156014236Y-64499172D01*
X155988197Y-64538143D01*
X155988196Y-64538144D01*
X155945784Y-64601615D01*
X155945782Y-64601619D01*
X155945782Y-64601620D01*
X155917340Y-64670286D01*
X155898632Y-64715450D01*
X155898629Y-64715462D01*
X155874594Y-64836295D01*
X155874594Y-69544688D01*
X155854909Y-69611727D01*
X155838275Y-69632369D01*
X155818681Y-69651962D01*
X155818679Y-69651965D01*
X155720133Y-69799447D01*
X155720126Y-69799460D01*
X155652249Y-69963333D01*
X155652246Y-69963342D01*
X155617643Y-70137305D01*
X142763500Y-70137305D01*
X142763499Y-69101474D01*
X144011500Y-69101474D01*
X144011500Y-69194000D01*
X145513500Y-69194000D01*
X146511500Y-69194000D01*
X148013500Y-69194000D01*
X149011500Y-69194000D01*
X150513500Y-69194000D01*
X151511500Y-69194000D01*
X153013500Y-69194000D01*
X154011500Y-69194000D01*
X154876594Y-69194000D01*
X154876594Y-67692000D01*
X154011500Y-67692000D01*
X154011500Y-69194000D01*
X153013500Y-69194000D01*
X153013500Y-67692000D01*
X151511500Y-67692000D01*
X151511500Y-69194000D01*
X150513500Y-69194000D01*
X150513500Y-67692000D01*
X149011500Y-67692000D01*
X149011500Y-69194000D01*
X148013500Y-69194000D01*
X148013500Y-67692000D01*
X146511500Y-67692000D01*
X146511500Y-69194000D01*
X145513500Y-69194000D01*
X145513500Y-67692000D01*
X144752500Y-67692000D01*
X144752500Y-67774109D01*
X144752351Y-67780191D01*
X144750545Y-67816966D01*
X144750097Y-67823037D01*
X144745294Y-67871807D01*
X144744549Y-67877850D01*
X144739145Y-67914278D01*
X144738104Y-67920273D01*
X144721443Y-68004034D01*
X144704506Y-68089184D01*
X144703173Y-68095123D01*
X144694223Y-68130853D01*
X144692599Y-68136720D01*
X144678372Y-68183618D01*
X144676463Y-68189396D01*
X144664060Y-68224059D01*
X144661870Y-68229737D01*
X144595965Y-68388845D01*
X144593498Y-68394410D01*
X144577751Y-68427703D01*
X144575015Y-68433139D01*
X144551914Y-68476357D01*
X144548913Y-68481654D01*
X144529985Y-68513232D01*
X144526731Y-68518371D01*
X144466869Y-68607962D01*
X144466867Y-68607965D01*
X144431039Y-68661583D01*
X144427535Y-68666557D01*
X144405593Y-68696142D01*
X144401845Y-68700945D01*
X144370756Y-68738823D01*
X144366783Y-68743428D01*
X144342064Y-68770700D01*
X144337869Y-68775106D01*
X144011500Y-69101474D01*
X142763499Y-69101474D01*
X142763499Y-68989452D01*
X142783184Y-68922414D01*
X142799818Y-68901772D01*
X143188358Y-68513232D01*
X143614857Y-68086734D01*
X143631570Y-68061720D01*
X143637065Y-68053499D01*
X143683310Y-67984287D01*
X143683311Y-67984286D01*
X143730463Y-67870452D01*
X143742620Y-67809334D01*
X143754500Y-67749607D01*
X143754500Y-67626394D01*
X143754500Y-66694000D01*
X144752500Y-66694000D01*
X145513500Y-66694000D01*
X149011500Y-66694000D01*
X150513500Y-66694000D01*
X151511500Y-66694000D01*
X153013500Y-66694000D01*
X154011500Y-66694000D01*
X154876594Y-66694000D01*
X154876594Y-65192000D01*
X154011500Y-65192000D01*
X154011500Y-66694000D01*
X153013500Y-66694000D01*
X153013500Y-65192000D01*
X151511500Y-65192000D01*
X151511500Y-66694000D01*
X150513500Y-66694000D01*
X150513500Y-65192000D01*
X149011500Y-65192000D01*
X149011500Y-66694000D01*
X145513500Y-66694000D01*
X145513500Y-66600892D01*
X145431350Y-66487822D01*
X145421183Y-66471232D01*
X145335431Y-66302935D01*
X145327985Y-66284958D01*
X145269617Y-66105319D01*
X145265075Y-66086399D01*
X145235527Y-65899840D01*
X145234000Y-65880442D01*
X145234000Y-65691558D01*
X145235527Y-65672160D01*
X145265075Y-65485601D01*
X145269617Y-65466681D01*
X145327985Y-65287042D01*
X145335431Y-65269065D01*
X145374698Y-65192000D01*
X144752500Y-65192000D01*
X144752500Y-66694000D01*
X143754500Y-66694000D01*
X143754500Y-63776474D01*
X144752500Y-63776474D01*
X144752500Y-64194000D01*
X145513500Y-64194000D01*
X146511500Y-64194000D01*
X147665581Y-64194000D01*
X149514419Y-64194000D01*
X150513500Y-64194000D01*
X151511500Y-64194000D01*
X153013500Y-64194000D01*
X154011500Y-64194000D01*
X155034485Y-64194000D01*
X155035592Y-64191502D01*
X155051340Y-64158207D01*
X155054076Y-64152773D01*
X155077180Y-64109548D01*
X155080181Y-64104251D01*
X155099113Y-64072666D01*
X155102369Y-64067523D01*
X155158398Y-63983673D01*
X155198037Y-63924348D01*
X155201542Y-63919372D01*
X155223462Y-63889816D01*
X155227201Y-63885024D01*
X155258288Y-63847139D01*
X155262267Y-63842526D01*
X155287012Y-63815223D01*
X155291211Y-63810812D01*
X155395672Y-63706352D01*
X155513500Y-63588523D01*
X155513500Y-62692000D01*
X159155979Y-62692000D01*
X159248434Y-62830368D01*
X159251691Y-62835512D01*
X159270627Y-62867106D01*
X159273627Y-62872401D01*
X159296729Y-62915623D01*
X159299466Y-62921062D01*
X159315206Y-62954344D01*
X159317671Y-62959905D01*
X159404301Y-63169051D01*
X159406491Y-63174728D01*
X159418890Y-63209380D01*
X159420798Y-63215155D01*
X159435025Y-63262048D01*
X159436649Y-63267916D01*
X159445601Y-63303651D01*
X159446935Y-63309592D01*
X159491104Y-63531643D01*
X159492145Y-63537640D01*
X159497549Y-63574071D01*
X159498294Y-63580112D01*
X159503097Y-63628884D01*
X159503545Y-63634954D01*
X159505351Y-63671726D01*
X159505500Y-63677809D01*
X159505500Y-63904191D01*
X159505351Y-63910274D01*
X159503545Y-63947046D01*
X159503097Y-63953116D01*
X159498294Y-64001888D01*
X159497549Y-64007929D01*
X159492145Y-64044360D01*
X159491104Y-64050357D01*
X159462531Y-64194000D01*
X160513500Y-64194000D01*
X160513500Y-62692000D01*
X159155979Y-62692000D01*
X155513500Y-62692000D01*
X154011500Y-62692000D01*
X154011500Y-64194000D01*
X153013500Y-64194000D01*
X153013500Y-62692000D01*
X151511500Y-62692000D01*
X151511500Y-64194000D01*
X150513500Y-64194000D01*
X150513500Y-62692000D01*
X149793683Y-62692000D01*
X149812569Y-62729065D01*
X149820015Y-62747042D01*
X149878383Y-62926681D01*
X149882925Y-62945601D01*
X149912473Y-63132160D01*
X149914000Y-63151558D01*
X149914000Y-63340442D01*
X149912473Y-63359840D01*
X149882925Y-63546399D01*
X149878383Y-63565319D01*
X149820015Y-63744958D01*
X149812569Y-63762935D01*
X149726817Y-63931232D01*
X149716650Y-63947822D01*
X149605627Y-64100633D01*
X149592990Y-64115429D01*
X149514419Y-64194000D01*
X147665581Y-64194000D01*
X147587010Y-64115429D01*
X147574373Y-64100633D01*
X147463350Y-63947822D01*
X147453183Y-63931232D01*
X147367431Y-63762935D01*
X147359985Y-63744958D01*
X147301617Y-63565319D01*
X147297075Y-63546399D01*
X147267527Y-63359840D01*
X147266000Y-63340442D01*
X147266000Y-63151558D01*
X147267527Y-63132160D01*
X147297075Y-62945601D01*
X147301617Y-62926681D01*
X147359985Y-62747042D01*
X147367431Y-62729065D01*
X147386317Y-62692000D01*
X146511500Y-62692000D01*
X146511500Y-64194000D01*
X145513500Y-64194000D01*
X145513500Y-63015474D01*
X144752500Y-63776474D01*
X143754500Y-63776474D01*
X143754500Y-63414452D01*
X143774185Y-63347413D01*
X143790819Y-63326771D01*
X146393772Y-60723819D01*
X146455095Y-60690334D01*
X146481453Y-60687500D01*
X163398548Y-60687500D01*
X163465587Y-60707185D01*
X163486229Y-60723819D01*
X167359181Y-64596771D01*
X167392666Y-64658094D01*
X167395500Y-64684452D01*
X167395500Y-67495548D01*
X167375815Y-67562587D01*
X167323011Y-67608342D01*
X167253853Y-67618286D01*
X167190297Y-67589261D01*
X167183819Y-67583229D01*
X166882288Y-67281698D01*
X166882268Y-67281676D01*
X166790826Y-67190234D01*
X166790818Y-67190228D01*
X166729809Y-67149463D01*
X166729807Y-67149462D01*
X166688376Y-67121778D01*
X166688377Y-67121778D01*
X166688375Y-67121777D01*
X166645835Y-67104157D01*
X166603295Y-67086537D01*
X166574542Y-67074627D01*
X166574543Y-67074627D01*
X166562416Y-67072215D01*
X166513574Y-67062500D01*
X166483635Y-67056545D01*
X166453698Y-67050590D01*
X166453697Y-67050590D01*
X166453696Y-67050590D01*
X162133862Y-67050590D01*
X162066823Y-67030905D01*
X162046180Y-67014270D01*
X162008539Y-66976628D01*
X162008536Y-66976625D01*
X161900634Y-66904528D01*
X161855829Y-66850916D01*
X161847122Y-66781591D01*
X161877276Y-66718564D01*
X161881844Y-66713745D01*
X162124358Y-66471232D01*
X162557370Y-66038220D01*
X164011500Y-66038220D01*
X164011500Y-66052590D01*
X165513500Y-66052590D01*
X165513500Y-65192000D01*
X164307689Y-65192000D01*
X164307927Y-65196854D01*
X164262505Y-65425191D01*
X164261171Y-65431130D01*
X164252224Y-65466845D01*
X164250602Y-65472707D01*
X164236377Y-65519602D01*
X164234468Y-65525382D01*
X164222063Y-65560052D01*
X164219872Y-65565730D01*
X164037554Y-66005889D01*
X164011500Y-66038220D01*
X162557370Y-66038220D01*
X163172858Y-65422733D01*
X163241312Y-65320285D01*
X163268932Y-65253603D01*
X163288463Y-65206452D01*
X163292451Y-65186402D01*
X163312501Y-65085606D01*
X163312501Y-64962393D01*
X163312501Y-64957283D01*
X163312500Y-64957257D01*
X163312500Y-64199361D01*
X163314074Y-64194000D01*
X164454457Y-64194000D01*
X165513500Y-64194000D01*
X165513500Y-64162474D01*
X164565997Y-63214971D01*
X164571104Y-63240643D01*
X164572145Y-63246640D01*
X164577549Y-63283071D01*
X164578294Y-63289112D01*
X164583097Y-63337884D01*
X164583545Y-63343954D01*
X164585351Y-63380726D01*
X164585500Y-63386809D01*
X164585500Y-63613191D01*
X164585351Y-63619274D01*
X164583545Y-63656046D01*
X164583097Y-63662116D01*
X164578294Y-63710888D01*
X164577549Y-63716929D01*
X164572145Y-63753360D01*
X164571104Y-63759357D01*
X164526935Y-63981408D01*
X164525601Y-63987349D01*
X164516649Y-64023084D01*
X164515025Y-64028952D01*
X164500798Y-64075845D01*
X164498890Y-64081620D01*
X164486491Y-64116272D01*
X164484301Y-64121949D01*
X164454457Y-64194000D01*
X163314074Y-64194000D01*
X163332185Y-64132322D01*
X163348820Y-64111679D01*
X163386461Y-64074038D01*
X163386464Y-64074035D01*
X163485013Y-63926547D01*
X163552894Y-63762666D01*
X163553553Y-63759357D01*
X163581417Y-63619274D01*
X163587500Y-63588691D01*
X163587500Y-63411309D01*
X163587500Y-63411306D01*
X163587499Y-63411304D01*
X163552896Y-63237341D01*
X163552893Y-63237332D01*
X163485016Y-63073459D01*
X163485009Y-63073446D01*
X163386464Y-62925965D01*
X163386461Y-62925961D01*
X163261038Y-62800538D01*
X163261034Y-62800535D01*
X163113553Y-62701990D01*
X163113540Y-62701983D01*
X162949667Y-62634106D01*
X162949658Y-62634103D01*
X162775694Y-62599500D01*
X162775691Y-62599500D01*
X162598309Y-62599500D01*
X162598306Y-62599500D01*
X162424341Y-62634103D01*
X162424332Y-62634106D01*
X162260459Y-62701983D01*
X162260446Y-62701990D01*
X162112965Y-62800535D01*
X162112961Y-62800538D01*
X161987538Y-62925961D01*
X161987535Y-62925965D01*
X161888990Y-63073446D01*
X161888983Y-63073459D01*
X161821106Y-63237332D01*
X161821103Y-63237341D01*
X161786500Y-63411304D01*
X161786500Y-63588695D01*
X161821103Y-63762658D01*
X161821106Y-63762667D01*
X161888983Y-63926540D01*
X161888990Y-63926553D01*
X161987535Y-64074034D01*
X161987538Y-64074038D01*
X162025180Y-64111679D01*
X162058666Y-64173001D01*
X162061500Y-64199361D01*
X162061500Y-64713547D01*
X162041815Y-64780586D01*
X162025181Y-64801228D01*
X160550144Y-66276264D01*
X160550138Y-66276272D01*
X160515914Y-66327489D01*
X160515915Y-66327490D01*
X160481691Y-66378708D01*
X160481684Y-66378721D01*
X160455594Y-66441711D01*
X160434538Y-66492543D01*
X160434538Y-66492545D01*
X160410500Y-66613396D01*
X160410500Y-66737418D01*
X160390815Y-66804457D01*
X160374181Y-66825099D01*
X160309770Y-66889510D01*
X160309768Y-66889512D01*
X160266205Y-66933074D01*
X160222643Y-66976636D01*
X160207466Y-66999350D01*
X160192390Y-67021914D01*
X160173289Y-67050499D01*
X160154189Y-67079083D01*
X160125037Y-67149461D01*
X160125038Y-67149462D01*
X160108158Y-67190216D01*
X160108154Y-67190224D01*
X160107039Y-67192913D01*
X160107037Y-67192921D01*
X160087873Y-67289268D01*
X160087873Y-67289269D01*
X160083001Y-67313761D01*
X160083001Y-67700429D01*
X160063316Y-67767468D01*
X160010512Y-67813223D01*
X159941354Y-67823167D01*
X159877798Y-67794142D01*
X159844440Y-67747881D01*
X159802016Y-67645459D01*
X159802009Y-67645446D01*
X159703464Y-67497965D01*
X159703461Y-67497961D01*
X159578038Y-67372538D01*
X159578034Y-67372535D01*
X159430553Y-67273990D01*
X159430540Y-67273983D01*
X159266667Y-67206106D01*
X159266658Y-67206103D01*
X159092694Y-67171500D01*
X159092691Y-67171500D01*
X158915309Y-67171500D01*
X158915306Y-67171500D01*
X158741341Y-67206103D01*
X158741332Y-67206106D01*
X158577459Y-67273983D01*
X158577446Y-67273990D01*
X158429965Y-67372535D01*
X158429961Y-67372538D01*
X158304538Y-67497961D01*
X158304535Y-67497965D01*
X158205990Y-67645446D01*
X158205983Y-67645459D01*
X158138106Y-67809332D01*
X158138103Y-67809341D01*
X158103500Y-67983304D01*
X158103500Y-68036546D01*
X158083815Y-68103585D01*
X158067181Y-68124227D01*
X158010146Y-68181261D01*
X158010143Y-68181264D01*
X157992140Y-68208209D01*
X157941689Y-68283712D01*
X157941685Y-68283719D01*
X157914368Y-68349671D01*
X157914368Y-68349672D01*
X157901730Y-68380180D01*
X157901731Y-68380181D01*
X157894538Y-68397546D01*
X157894535Y-68397556D01*
X157876836Y-68486538D01*
X157876836Y-68486539D01*
X157870500Y-68518391D01*
X157870500Y-72141547D01*
X157850815Y-72208586D01*
X157834181Y-72229228D01*
X144455227Y-85608181D01*
X144393904Y-85641666D01*
X144367546Y-85644500D01*
X143055129Y-85644500D01*
X143055123Y-85644501D01*
X142995516Y-85650908D01*
X142860671Y-85701202D01*
X142860664Y-85701206D01*
X142745455Y-85787452D01*
X142745452Y-85787455D01*
X142659206Y-85902664D01*
X142659202Y-85902671D01*
X142608908Y-86037517D01*
X142602501Y-86097116D01*
X142602500Y-86097135D01*
X142602500Y-87892870D01*
X142602501Y-87892876D01*
X142608908Y-87952483D01*
X142659202Y-88087328D01*
X142659206Y-88087335D01*
X142745452Y-88202544D01*
X142745455Y-88202547D01*
X142860664Y-88288793D01*
X142860671Y-88288797D01*
X142995517Y-88339091D01*
X142995516Y-88339091D01*
X143002444Y-88339835D01*
X143055127Y-88345500D01*
X144850872Y-88345499D01*
X144910483Y-88339091D01*
X145045331Y-88288796D01*
X145160546Y-88202546D01*
X145246796Y-88087331D01*
X145295810Y-87955916D01*
X145337681Y-87899984D01*
X145403145Y-87875566D01*
X145471418Y-87890417D01*
X145499673Y-87911569D01*
X145613213Y-88025109D01*
X145785179Y-88150048D01*
X145785181Y-88150049D01*
X145785184Y-88150051D01*
X145974588Y-88246557D01*
X146176757Y-88312246D01*
X146386713Y-88345500D01*
X146386714Y-88345500D01*
X146599286Y-88345500D01*
X146599287Y-88345500D01*
X146809243Y-88312246D01*
X147011412Y-88246557D01*
X147200816Y-88150051D01*
X147287138Y-88087335D01*
X147372786Y-88025109D01*
X147372788Y-88025106D01*
X147372792Y-88025104D01*
X147523104Y-87874792D01*
X147523106Y-87874788D01*
X147523109Y-87874786D01*
X147648048Y-87702820D01*
X147648047Y-87702820D01*
X147648051Y-87702816D01*
X147652514Y-87694054D01*
X147700488Y-87643259D01*
X147768308Y-87626463D01*
X147834444Y-87648999D01*
X147873484Y-87694054D01*
X147877591Y-87702115D01*
X147877951Y-87702820D01*
X148002890Y-87874786D01*
X148153213Y-88025109D01*
X148325179Y-88150048D01*
X148325181Y-88150049D01*
X148325184Y-88150051D01*
X148514588Y-88246557D01*
X148716757Y-88312246D01*
X148926713Y-88345500D01*
X148926714Y-88345500D01*
X149139286Y-88345500D01*
X149139287Y-88345500D01*
X149349243Y-88312246D01*
X149551412Y-88246557D01*
X149740816Y-88150051D01*
X149827138Y-88087335D01*
X149912786Y-88025109D01*
X149912788Y-88025106D01*
X149912792Y-88025104D01*
X150063104Y-87874792D01*
X150063106Y-87874788D01*
X150063109Y-87874786D01*
X150188048Y-87702820D01*
X150188047Y-87702820D01*
X150188051Y-87702816D01*
X150192514Y-87694054D01*
X150240488Y-87643259D01*
X150308308Y-87626463D01*
X150374444Y-87648999D01*
X150413484Y-87694054D01*
X150417591Y-87702115D01*
X150417951Y-87702820D01*
X150542890Y-87874786D01*
X150693213Y-88025109D01*
X150865179Y-88150048D01*
X150865181Y-88150049D01*
X150865184Y-88150051D01*
X151054588Y-88246557D01*
X151256757Y-88312246D01*
X151466713Y-88345500D01*
X151466714Y-88345500D01*
X151679286Y-88345500D01*
X151679287Y-88345500D01*
X151889243Y-88312246D01*
X152091412Y-88246557D01*
X152280816Y-88150051D01*
X152367138Y-88087335D01*
X152452786Y-88025109D01*
X152452788Y-88025106D01*
X152452792Y-88025104D01*
X152603104Y-87874792D01*
X152603106Y-87874788D01*
X152603109Y-87874786D01*
X152728048Y-87702820D01*
X152728047Y-87702820D01*
X152728051Y-87702816D01*
X152732514Y-87694054D01*
X152780488Y-87643259D01*
X152848308Y-87626463D01*
X152914444Y-87648999D01*
X152953484Y-87694054D01*
X152957591Y-87702115D01*
X152957951Y-87702820D01*
X153082890Y-87874786D01*
X153233213Y-88025109D01*
X153405179Y-88150048D01*
X153405181Y-88150049D01*
X153405184Y-88150051D01*
X153594588Y-88246557D01*
X153796757Y-88312246D01*
X154006713Y-88345500D01*
X154006714Y-88345500D01*
X154219286Y-88345500D01*
X154219287Y-88345500D01*
X154429243Y-88312246D01*
X154631412Y-88246557D01*
X154820816Y-88150051D01*
X154907138Y-88087335D01*
X154992786Y-88025109D01*
X154992788Y-88025106D01*
X154992792Y-88025104D01*
X155143104Y-87874792D01*
X155143106Y-87874788D01*
X155143109Y-87874786D01*
X155268048Y-87702820D01*
X155268047Y-87702820D01*
X155268051Y-87702816D01*
X155272514Y-87694054D01*
X155320488Y-87643259D01*
X155388308Y-87626463D01*
X155454444Y-87648999D01*
X155493484Y-87694054D01*
X155497591Y-87702115D01*
X155497951Y-87702820D01*
X155622890Y-87874786D01*
X155773213Y-88025109D01*
X155945179Y-88150048D01*
X155945181Y-88150049D01*
X155945184Y-88150051D01*
X156134588Y-88246557D01*
X156336757Y-88312246D01*
X156546713Y-88345500D01*
X156546714Y-88345500D01*
X156759286Y-88345500D01*
X156759287Y-88345500D01*
X156969243Y-88312246D01*
X157171412Y-88246557D01*
X157360816Y-88150051D01*
X157447138Y-88087335D01*
X157532786Y-88025109D01*
X157532788Y-88025106D01*
X157532792Y-88025104D01*
X157683104Y-87874792D01*
X157683106Y-87874788D01*
X157683109Y-87874786D01*
X157808048Y-87702820D01*
X157808047Y-87702820D01*
X157808051Y-87702816D01*
X157812514Y-87694054D01*
X157860488Y-87643259D01*
X157928308Y-87626463D01*
X157994444Y-87648999D01*
X158033484Y-87694054D01*
X158037591Y-87702115D01*
X158037951Y-87702820D01*
X158162890Y-87874786D01*
X158313213Y-88025109D01*
X158485179Y-88150048D01*
X158485181Y-88150049D01*
X158485184Y-88150051D01*
X158674588Y-88246557D01*
X158876757Y-88312246D01*
X159086713Y-88345500D01*
X159086714Y-88345500D01*
X159299286Y-88345500D01*
X159299287Y-88345500D01*
X159509243Y-88312246D01*
X159711412Y-88246557D01*
X159900816Y-88150051D01*
X159987138Y-88087335D01*
X160072786Y-88025109D01*
X160072788Y-88025106D01*
X160072792Y-88025104D01*
X160223104Y-87874792D01*
X160223106Y-87874788D01*
X160223109Y-87874786D01*
X160308890Y-87756717D01*
X160348051Y-87702816D01*
X160352793Y-87693508D01*
X160400763Y-87642711D01*
X160468583Y-87625911D01*
X160534719Y-87648445D01*
X160573763Y-87693500D01*
X160578373Y-87702547D01*
X160617728Y-87756716D01*
X161250037Y-87124408D01*
X161267075Y-87187993D01*
X161332901Y-87302007D01*
X161425993Y-87395099D01*
X161540007Y-87460925D01*
X161603590Y-87477962D01*
X160971282Y-88110269D01*
X160971282Y-88110270D01*
X161025449Y-88149624D01*
X161214782Y-88246095D01*
X161416870Y-88311757D01*
X161626754Y-88345000D01*
X161839246Y-88345000D01*
X162049127Y-88311757D01*
X162049130Y-88311757D01*
X162251217Y-88246095D01*
X162440554Y-88149622D01*
X162494716Y-88110270D01*
X162494717Y-88110270D01*
X161862408Y-87477962D01*
X161925993Y-87460925D01*
X162040007Y-87395099D01*
X162133099Y-87302007D01*
X162198925Y-87187993D01*
X162215962Y-87124409D01*
X162848270Y-87756717D01*
X162848270Y-87756716D01*
X162887622Y-87702555D01*
X162892232Y-87693507D01*
X162940205Y-87642709D01*
X163008025Y-87625912D01*
X163074161Y-87648447D01*
X163113204Y-87693504D01*
X163117949Y-87702817D01*
X163242890Y-87874786D01*
X163393213Y-88025109D01*
X163565179Y-88150048D01*
X163565181Y-88150049D01*
X163565184Y-88150051D01*
X163754588Y-88246557D01*
X163956757Y-88312246D01*
X164166713Y-88345500D01*
X164166714Y-88345500D01*
X164379286Y-88345500D01*
X164379287Y-88345500D01*
X164589243Y-88312246D01*
X164791412Y-88246557D01*
X164980816Y-88150051D01*
X165067138Y-88087335D01*
X165152786Y-88025109D01*
X165152788Y-88025106D01*
X165152792Y-88025104D01*
X165303104Y-87874792D01*
X165303106Y-87874788D01*
X165303109Y-87874786D01*
X165428048Y-87702820D01*
X165428047Y-87702820D01*
X165428051Y-87702816D01*
X165524557Y-87513412D01*
X165590246Y-87311243D01*
X165623500Y-87101287D01*
X165623500Y-86888713D01*
X165590246Y-86678757D01*
X165524557Y-86476588D01*
X165428051Y-86287184D01*
X165428049Y-86287181D01*
X165428048Y-86287179D01*
X165426094Y-86284490D01*
X166511500Y-86284490D01*
X166545455Y-86388993D01*
X166546869Y-86393653D01*
X166554862Y-86421995D01*
X166556089Y-86426700D01*
X166565242Y-86464817D01*
X166566287Y-86469577D01*
X166572036Y-86498477D01*
X166572892Y-86503272D01*
X166603100Y-86694000D01*
X167259000Y-86694000D01*
X167259000Y-86083823D01*
X167259044Y-86080509D01*
X167259580Y-86060461D01*
X167259713Y-86057145D01*
X167261142Y-86030458D01*
X167261364Y-86027144D01*
X167262977Y-86007095D01*
X167263289Y-86003783D01*
X167274455Y-85899931D01*
X167275522Y-85892262D01*
X167283428Y-85846084D01*
X167284972Y-85838499D01*
X167299315Y-85777788D01*
X167301332Y-85770305D01*
X167314942Y-85725436D01*
X167317421Y-85718097D01*
X167331465Y-85680440D01*
X166843025Y-85192000D01*
X166511500Y-85192000D01*
X166511500Y-86284490D01*
X165426094Y-86284490D01*
X165303109Y-86115213D01*
X165152786Y-85964890D01*
X164980820Y-85839951D01*
X164791414Y-85743444D01*
X164791413Y-85743443D01*
X164791412Y-85743443D01*
X164589243Y-85677754D01*
X164589241Y-85677753D01*
X164589240Y-85677753D01*
X164427957Y-85652208D01*
X164379287Y-85644500D01*
X164166713Y-85644500D01*
X164118042Y-85652208D01*
X163956760Y-85677753D01*
X163754585Y-85743444D01*
X163565179Y-85839951D01*
X163393213Y-85964890D01*
X163242890Y-86115213D01*
X163117949Y-86287182D01*
X163113202Y-86296499D01*
X163065227Y-86347293D01*
X162997405Y-86364087D01*
X162931271Y-86341548D01*
X162892234Y-86296495D01*
X162887626Y-86287452D01*
X162848270Y-86233282D01*
X162848269Y-86233282D01*
X162215962Y-86865590D01*
X162198925Y-86802007D01*
X162133099Y-86687993D01*
X162040007Y-86594901D01*
X161925993Y-86529075D01*
X161862408Y-86512037D01*
X162494716Y-85879728D01*
X162440550Y-85840375D01*
X162251217Y-85743904D01*
X162049129Y-85678242D01*
X161839246Y-85645000D01*
X161726951Y-85645000D01*
X161659912Y-85625315D01*
X161614157Y-85572511D01*
X161604213Y-85503353D01*
X161633238Y-85439797D01*
X161639255Y-85433333D01*
X161762728Y-85309861D01*
X161762732Y-85309859D01*
X161849857Y-85222734D01*
X161918310Y-85120287D01*
X161965462Y-85006453D01*
X161989499Y-84885607D01*
X161989499Y-84194000D01*
X164011500Y-84194000D01*
X165513500Y-84194000D01*
X165513500Y-83862474D01*
X164343026Y-82692000D01*
X164011500Y-82692000D01*
X164011500Y-84194000D01*
X161989499Y-84194000D01*
X161989499Y-79226451D01*
X162009184Y-79159412D01*
X162061988Y-79113657D01*
X162131146Y-79103713D01*
X162194702Y-79132738D01*
X162201180Y-79138770D01*
X168559938Y-85497529D01*
X168593423Y-85558852D01*
X168588439Y-85628544D01*
X168546567Y-85684477D01*
X168515605Y-85701386D01*
X168514923Y-85701640D01*
X168514906Y-85701649D01*
X168399812Y-85787809D01*
X168399809Y-85787812D01*
X168313649Y-85902906D01*
X168313645Y-85902913D01*
X168263403Y-86037620D01*
X168263401Y-86037627D01*
X168257000Y-86097155D01*
X168257000Y-86745000D01*
X169173988Y-86745000D01*
X169141075Y-86802007D01*
X169107000Y-86929174D01*
X169107000Y-87060826D01*
X169141075Y-87187993D01*
X169173988Y-87245000D01*
X168257000Y-87245000D01*
X168257000Y-87892844D01*
X168263401Y-87952372D01*
X168263403Y-87952379D01*
X168313645Y-88087086D01*
X168313649Y-88087093D01*
X168399809Y-88202187D01*
X168399812Y-88202190D01*
X168514906Y-88288350D01*
X168514913Y-88288354D01*
X168649620Y-88338596D01*
X168649627Y-88338598D01*
X168709155Y-88344999D01*
X168709172Y-88345000D01*
X169357000Y-88345000D01*
X169357000Y-87428012D01*
X169414007Y-87460925D01*
X169541174Y-87495000D01*
X169672826Y-87495000D01*
X169799993Y-87460925D01*
X169857000Y-87428012D01*
X169857000Y-88345000D01*
X170504828Y-88345000D01*
X170504844Y-88344999D01*
X170564372Y-88338598D01*
X170564379Y-88338596D01*
X170699086Y-88288354D01*
X170699093Y-88288350D01*
X170814187Y-88202190D01*
X170814190Y-88202187D01*
X170900350Y-88087093D01*
X170900354Y-88087086D01*
X170949422Y-87955529D01*
X170991293Y-87899595D01*
X171056757Y-87875178D01*
X171125030Y-87890030D01*
X171153285Y-87911181D01*
X171267213Y-88025109D01*
X171439179Y-88150048D01*
X171439181Y-88150049D01*
X171439184Y-88150051D01*
X171628588Y-88246557D01*
X171830757Y-88312246D01*
X172040713Y-88345500D01*
X172040714Y-88345500D01*
X172253286Y-88345500D01*
X172253287Y-88345500D01*
X172440293Y-88315881D01*
X172509587Y-88324836D01*
X172547372Y-88350673D01*
X173146518Y-88949819D01*
X173180003Y-89011142D01*
X173175019Y-89080834D01*
X173133147Y-89136767D01*
X173067683Y-89161184D01*
X173058837Y-89161500D01*
X141856000Y-89161500D01*
X141788961Y-89141815D01*
X141743206Y-89089011D01*
X141732000Y-89037500D01*
X141732000Y-84836000D01*
X141224000Y-84328000D01*
X136703362Y-84328000D01*
X136636323Y-84308315D01*
X136615681Y-84291681D01*
X136299819Y-83975819D01*
X136266334Y-83914496D01*
X136263500Y-83888138D01*
X136263500Y-83230477D01*
X141511500Y-83230477D01*
X141837907Y-83365680D01*
X141878135Y-83392560D01*
X142667440Y-84181865D01*
X142675548Y-84194000D01*
X143013500Y-84194000D01*
X144011500Y-84194000D01*
X144458023Y-84194000D01*
X145513500Y-83138523D01*
X145513500Y-82692000D01*
X144011500Y-82692000D01*
X144011500Y-84194000D01*
X143013500Y-84194000D01*
X143013500Y-82692000D01*
X141511500Y-82692000D01*
X141511500Y-83230477D01*
X136263500Y-83230477D01*
X136263500Y-83204000D01*
X139011500Y-83204000D01*
X140513500Y-83204000D01*
X140513500Y-82692000D01*
X139011500Y-82692000D01*
X139011500Y-83204000D01*
X136263500Y-83204000D01*
X136263500Y-81694000D01*
X137268000Y-81694000D01*
X138013500Y-81694000D01*
X139011500Y-81694000D01*
X140513500Y-81694000D01*
X141511500Y-81694000D01*
X143013500Y-81694000D01*
X144011500Y-81694000D01*
X145513500Y-81694000D01*
X146511500Y-81694000D01*
X146958023Y-81694000D01*
X148013500Y-80638523D01*
X148013500Y-80192000D01*
X146511500Y-80192000D01*
X146511500Y-81694000D01*
X145513500Y-81694000D01*
X145513500Y-80192000D01*
X144011500Y-80192000D01*
X144011500Y-81694000D01*
X143013500Y-81694000D01*
X143013500Y-80192000D01*
X141511500Y-80192000D01*
X141511500Y-81694000D01*
X140513500Y-81694000D01*
X140513500Y-80192000D01*
X139011500Y-80192000D01*
X139011500Y-81694000D01*
X138013500Y-81694000D01*
X138013500Y-80192000D01*
X137268000Y-80192000D01*
X137268000Y-81694000D01*
X136263500Y-81694000D01*
X136263500Y-79194000D01*
X137268000Y-79194000D01*
X138013500Y-79194000D01*
X139011500Y-79194000D01*
X140513500Y-79194000D01*
X141511500Y-79194000D01*
X143013500Y-79194000D01*
X144011500Y-79194000D01*
X145513500Y-79194000D01*
X146511500Y-79194000D01*
X147722081Y-79194000D01*
X147695808Y-79028121D01*
X147694281Y-79008723D01*
X147694281Y-78819839D01*
X147695808Y-78800441D01*
X147725356Y-78613882D01*
X147729898Y-78594962D01*
X147788266Y-78415323D01*
X147795712Y-78397346D01*
X147881464Y-78229049D01*
X147891631Y-78212459D01*
X148002654Y-78059648D01*
X148013500Y-78046948D01*
X148013500Y-77692000D01*
X146511500Y-77692000D01*
X146511500Y-79194000D01*
X145513500Y-79194000D01*
X145513500Y-77692000D01*
X144011500Y-77692000D01*
X144011500Y-79194000D01*
X143013500Y-79194000D01*
X143013500Y-77692000D01*
X141511500Y-77692000D01*
X141511500Y-79194000D01*
X140513500Y-79194000D01*
X140513500Y-77692000D01*
X139011500Y-77692000D01*
X139011500Y-79194000D01*
X138013500Y-79194000D01*
X138013500Y-77692000D01*
X137268000Y-77692000D01*
X137268000Y-79194000D01*
X136263500Y-79194000D01*
X136263500Y-76694000D01*
X137268000Y-76694000D01*
X138013500Y-76694000D01*
X139011500Y-76694000D01*
X140513500Y-76694000D01*
X141511500Y-76694000D01*
X143013500Y-76694000D01*
X144011500Y-76694000D01*
X145513500Y-76694000D01*
X146511500Y-76694000D01*
X148013500Y-76694000D01*
X149011500Y-76694000D01*
X150513500Y-76694000D01*
X151511500Y-76694000D01*
X151958023Y-76694000D01*
X153013500Y-75638523D01*
X153013500Y-75192000D01*
X151511500Y-75192000D01*
X151511500Y-76694000D01*
X150513500Y-76694000D01*
X150513500Y-75192000D01*
X149011500Y-75192000D01*
X149011500Y-76694000D01*
X148013500Y-76694000D01*
X148013500Y-75192000D01*
X146511500Y-75192000D01*
X146511500Y-76694000D01*
X145513500Y-76694000D01*
X145513500Y-75192000D01*
X144011500Y-75192000D01*
X144011500Y-76694000D01*
X143013500Y-76694000D01*
X143013500Y-75192000D01*
X141511500Y-75192000D01*
X141511500Y-76694000D01*
X140513500Y-76694000D01*
X140513500Y-75192000D01*
X139011500Y-75192000D01*
X139011500Y-76694000D01*
X138013500Y-76694000D01*
X138013500Y-75192000D01*
X137268000Y-75192000D01*
X137268000Y-76694000D01*
X136263500Y-76694000D01*
X136263500Y-74194000D01*
X137268000Y-74194000D01*
X138013500Y-74194000D01*
X139011500Y-74194000D01*
X140513500Y-74194000D01*
X144011500Y-74194000D01*
X145513500Y-74194000D01*
X146511500Y-74194000D01*
X148013500Y-74194000D01*
X148013500Y-72692000D01*
X146511500Y-72692000D01*
X146511500Y-74194000D01*
X145513500Y-74194000D01*
X145513500Y-72692000D01*
X144011500Y-72692000D01*
X144011500Y-74194000D01*
X140513500Y-74194000D01*
X140513500Y-74117390D01*
X140494739Y-74109619D01*
X140490281Y-74107669D01*
X140463537Y-74095340D01*
X140459154Y-74093214D01*
X140234890Y-73978944D01*
X140230595Y-73976648D01*
X140204883Y-73962248D01*
X140200681Y-73959785D01*
X140167260Y-73939303D01*
X140163159Y-73936678D01*
X140138682Y-73920322D01*
X140134691Y-73917541D01*
X139885301Y-73736351D01*
X139849997Y-73696622D01*
X139781924Y-73575072D01*
X139660376Y-73507001D01*
X139620647Y-73471697D01*
X139439458Y-73222308D01*
X139436676Y-73218316D01*
X139420321Y-73193840D01*
X139417697Y-73189740D01*
X139397215Y-73156319D01*
X139394752Y-73152117D01*
X139380352Y-73126405D01*
X139378056Y-73122110D01*
X139263786Y-72897846D01*
X139261660Y-72893463D01*
X139249331Y-72866719D01*
X139247381Y-72862261D01*
X139232379Y-72826045D01*
X139230604Y-72821509D01*
X139220405Y-72793864D01*
X139218809Y-72789263D01*
X139187207Y-72692000D01*
X139011500Y-72692000D01*
X139011500Y-74194000D01*
X138013500Y-74194000D01*
X138013500Y-72692000D01*
X137268000Y-72692000D01*
X137268000Y-74194000D01*
X136263500Y-74194000D01*
X136263500Y-71694000D01*
X137268000Y-71694000D01*
X138013500Y-71694000D01*
X138013500Y-70192000D01*
X137268000Y-70192000D01*
X137268000Y-71694000D01*
X136263500Y-71694000D01*
X136263500Y-69194000D01*
X137268000Y-69194000D01*
X138013500Y-69194000D01*
X138013500Y-67692000D01*
X137268000Y-67692000D01*
X137268000Y-69194000D01*
X136263500Y-69194000D01*
X136263500Y-66694000D01*
X139011500Y-66694000D01*
X140513500Y-66694000D01*
X140513500Y-66148000D01*
X139011500Y-66148000D01*
X139011500Y-66694000D01*
X136263500Y-66694000D01*
X136263500Y-65148000D01*
X136283185Y-65080961D01*
X136335989Y-65035206D01*
X136387500Y-65024000D01*
X141732000Y-65024000D01*
X141732000Y-60068000D01*
X141751685Y-60000961D01*
X141804489Y-59955206D01*
X141856000Y-59944000D01*
X145105047Y-59944000D01*
X145172086Y-59963685D01*
G37*
%TD.AperFunction*%
%TA.AperFunction,Conductor*%
G36*
X179049540Y-67193185D02*
G01*
X179095295Y-67245989D01*
X179106501Y-67297500D01*
X179106501Y-67445876D01*
X179112908Y-67505483D01*
X179163202Y-67640328D01*
X179163206Y-67640335D01*
X179249452Y-67755544D01*
X179249455Y-67755547D01*
X179364664Y-67841793D01*
X179364671Y-67841797D01*
X179496082Y-67890810D01*
X179552016Y-67932681D01*
X179576433Y-67998145D01*
X179561582Y-68066418D01*
X179540431Y-68094673D01*
X179426889Y-68208215D01*
X179301950Y-68380180D01*
X179294503Y-68394797D01*
X179246527Y-68445592D01*
X179184019Y-68462500D01*
X178881394Y-68462500D01*
X178760548Y-68486537D01*
X178760546Y-68486537D01*
X178760545Y-68486538D01*
X178760543Y-68486538D01*
X178731552Y-68498546D01*
X178731553Y-68498547D01*
X178646719Y-68533686D01*
X178646711Y-68533690D01*
X178634299Y-68541984D01*
X178621190Y-68550743D01*
X178621189Y-68550744D01*
X178621188Y-68550743D01*
X178544266Y-68602142D01*
X178544265Y-68602143D01*
X178520060Y-68626349D01*
X178457142Y-68689267D01*
X178457139Y-68689270D01*
X177782270Y-69364139D01*
X177782267Y-69364142D01*
X177752516Y-69393893D01*
X177695140Y-69451268D01*
X177670175Y-69488633D01*
X177670173Y-69488636D01*
X177626690Y-69553710D01*
X177626687Y-69553716D01*
X177601576Y-69614338D01*
X177601577Y-69614339D01*
X177579536Y-69667549D01*
X177579536Y-69667552D01*
X177555500Y-69788389D01*
X177555500Y-70039638D01*
X177535815Y-70106677D01*
X177519181Y-70127319D01*
X177481538Y-70164961D01*
X177481535Y-70164965D01*
X177382990Y-70312446D01*
X177382983Y-70312459D01*
X177315106Y-70476332D01*
X177315103Y-70476341D01*
X177280500Y-70650304D01*
X177280500Y-70827695D01*
X177315103Y-71001658D01*
X177315106Y-71001667D01*
X177382983Y-71165540D01*
X177382990Y-71165553D01*
X177481535Y-71313034D01*
X177481538Y-71313038D01*
X177544319Y-71375819D01*
X177577804Y-71437142D01*
X177572820Y-71506834D01*
X177530948Y-71562767D01*
X177465484Y-71587184D01*
X177456638Y-71587500D01*
X176107073Y-71587500D01*
X176040034Y-71567815D01*
X176019392Y-71551181D01*
X175992911Y-71524700D01*
X175992907Y-71524697D01*
X175837237Y-71420681D01*
X175837228Y-71420676D01*
X175664251Y-71349027D01*
X175664243Y-71349025D01*
X175480620Y-71312500D01*
X175480616Y-71312500D01*
X175293384Y-71312500D01*
X175293379Y-71312500D01*
X175109756Y-71349025D01*
X175109748Y-71349027D01*
X174936771Y-71420676D01*
X174936762Y-71420681D01*
X174781092Y-71524697D01*
X174781088Y-71524700D01*
X174648700Y-71657088D01*
X174648697Y-71657092D01*
X174544681Y-71812762D01*
X174544676Y-71812771D01*
X174473027Y-71985748D01*
X174473025Y-71985756D01*
X174436500Y-72169379D01*
X174436500Y-72356620D01*
X174473025Y-72540243D01*
X174473027Y-72540251D01*
X174544676Y-72713228D01*
X174544681Y-72713237D01*
X174648697Y-72868907D01*
X174648700Y-72868911D01*
X174781088Y-73001299D01*
X174781092Y-73001302D01*
X174936762Y-73105318D01*
X174936768Y-73105321D01*
X174936769Y-73105322D01*
X175109749Y-73176973D01*
X175293379Y-73213499D01*
X175293383Y-73213500D01*
X175293384Y-73213500D01*
X175480617Y-73213500D01*
X175480618Y-73213499D01*
X175664251Y-73176973D01*
X175837231Y-73105322D01*
X175992908Y-73001302D01*
X175992911Y-73001299D01*
X176019392Y-72974819D01*
X176080715Y-72941334D01*
X176107073Y-72938500D01*
X177214837Y-72938500D01*
X177281876Y-72958185D01*
X177302518Y-72974819D01*
X181651327Y-77323628D01*
X181684812Y-77384951D01*
X181686119Y-77430707D01*
X181656500Y-77617713D01*
X181656500Y-77830287D01*
X181656499Y-77830287D01*
X181686118Y-78017293D01*
X181677163Y-78086586D01*
X181651326Y-78124371D01*
X179942307Y-79833390D01*
X179942304Y-79833394D01*
X179868383Y-79944024D01*
X179868378Y-79944034D01*
X179817459Y-80066963D01*
X179817459Y-80066964D01*
X179799408Y-80157713D01*
X179799408Y-80157715D01*
X179791500Y-80197467D01*
X179791500Y-87044837D01*
X179771815Y-87111876D01*
X179755181Y-87132518D01*
X178953518Y-87934181D01*
X178892195Y-87967666D01*
X178865837Y-87970500D01*
X178430932Y-87970500D01*
X178363893Y-87950815D01*
X178318138Y-87898011D01*
X178308194Y-87828853D01*
X178330613Y-87773615D01*
X178342891Y-87756716D01*
X178382051Y-87702816D01*
X178478557Y-87513412D01*
X178544246Y-87311243D01*
X178577500Y-87101287D01*
X178577500Y-86888713D01*
X178544246Y-86678757D01*
X178478557Y-86476588D01*
X178382051Y-86287184D01*
X178382049Y-86287181D01*
X178382048Y-86287179D01*
X178257109Y-86115213D01*
X178106786Y-85964890D01*
X177934820Y-85839951D01*
X177745414Y-85743444D01*
X177745413Y-85743443D01*
X177745412Y-85743443D01*
X177543243Y-85677754D01*
X177543241Y-85677753D01*
X177543240Y-85677753D01*
X177381957Y-85652208D01*
X177333287Y-85644500D01*
X177120713Y-85644500D01*
X177072042Y-85652208D01*
X176910760Y-85677753D01*
X176708585Y-85743444D01*
X176519184Y-85839948D01*
X176350290Y-85962656D01*
X176284483Y-85986135D01*
X176216429Y-85970309D01*
X176189724Y-85950018D01*
X175664314Y-85424608D01*
X175664294Y-85424586D01*
X175572849Y-85333141D01*
X175521625Y-85298915D01*
X175470403Y-85264689D01*
X175470402Y-85264688D01*
X175470399Y-85264686D01*
X175470396Y-85264685D01*
X175389908Y-85231347D01*
X175356569Y-85217537D01*
X175346543Y-85215543D01*
X175296145Y-85205518D01*
X175235726Y-85193500D01*
X175235723Y-85193500D01*
X175235722Y-85193500D01*
X174510336Y-85193500D01*
X174443297Y-85173815D01*
X174422655Y-85157181D01*
X174189082Y-84923608D01*
X174189062Y-84923586D01*
X174097617Y-84832141D01*
X174046393Y-84797915D01*
X173995171Y-84763689D01*
X173995170Y-84763688D01*
X173995167Y-84763686D01*
X173995164Y-84763685D01*
X173914676Y-84730347D01*
X173881337Y-84716537D01*
X173871311Y-84714543D01*
X173820913Y-84704518D01*
X173760494Y-84692500D01*
X173760491Y-84692500D01*
X173760490Y-84692500D01*
X171513971Y-84692500D01*
X171390757Y-84692500D01*
X171390753Y-84692500D01*
X171263938Y-84717725D01*
X171263586Y-84715956D01*
X171208491Y-84716444D01*
X171208237Y-84717726D01*
X171202264Y-84716538D01*
X171202262Y-84716537D01*
X171141839Y-84704518D01*
X171081420Y-84692500D01*
X171081417Y-84692500D01*
X171081416Y-84692500D01*
X170213263Y-84692500D01*
X170146224Y-84672815D01*
X170125582Y-84656181D01*
X169194277Y-83724876D01*
X174011500Y-83724876D01*
X174015607Y-83725693D01*
X174015609Y-83725694D01*
X174100069Y-83742494D01*
X174106008Y-83743827D01*
X174141738Y-83752777D01*
X174147606Y-83754401D01*
X174194503Y-83768628D01*
X174200282Y-83770537D01*
X174234944Y-83782940D01*
X174240619Y-83785130D01*
X174865250Y-84043859D01*
X174919654Y-84087700D01*
X174941719Y-84153994D01*
X174939415Y-84182611D01*
X174937150Y-84194000D01*
X175513500Y-84194000D01*
X176511500Y-84194000D01*
X178013500Y-84194000D01*
X178013500Y-82692000D01*
X176511500Y-82692000D01*
X176511500Y-84194000D01*
X175513500Y-84194000D01*
X175513500Y-82692000D01*
X174011500Y-82692000D01*
X174011500Y-83724876D01*
X169194277Y-83724876D01*
X169163901Y-83694500D01*
X171511500Y-83694500D01*
X173013500Y-83694500D01*
X173013500Y-82692000D01*
X171511500Y-82692000D01*
X171511500Y-83694500D01*
X169163901Y-83694500D01*
X168161401Y-82692000D01*
X169572785Y-82692000D01*
X170513500Y-83632715D01*
X170513500Y-82692000D01*
X169572785Y-82692000D01*
X168161401Y-82692000D01*
X167163401Y-81694000D01*
X169529330Y-81694000D01*
X170513500Y-81694000D01*
X171511500Y-81694000D01*
X173013500Y-81694000D01*
X174226788Y-81694000D01*
X175513500Y-81694000D01*
X176511500Y-81694000D01*
X178013500Y-81694000D01*
X178013500Y-80192000D01*
X176511500Y-80192000D01*
X176511500Y-81694000D01*
X175513500Y-81694000D01*
X175513500Y-80192000D01*
X175298985Y-80192000D01*
X175312473Y-80277160D01*
X175314000Y-80296558D01*
X175314000Y-80485442D01*
X175312473Y-80504840D01*
X175282925Y-80691399D01*
X175278383Y-80710319D01*
X175220015Y-80889958D01*
X175212569Y-80907935D01*
X175126817Y-81076232D01*
X175116650Y-81092822D01*
X175005627Y-81245633D01*
X174992990Y-81260429D01*
X174859429Y-81393990D01*
X174844633Y-81406627D01*
X174691822Y-81517650D01*
X174675232Y-81527817D01*
X174506935Y-81613569D01*
X174488958Y-81621015D01*
X174309319Y-81679383D01*
X174290399Y-81683925D01*
X174226788Y-81694000D01*
X173013500Y-81694000D01*
X173013500Y-81286919D01*
X172987010Y-81260429D01*
X172974373Y-81245633D01*
X172863350Y-81092822D01*
X172853183Y-81076232D01*
X172767431Y-80907935D01*
X172759985Y-80889958D01*
X172701617Y-80710319D01*
X172697075Y-80691399D01*
X172667527Y-80504840D01*
X172666000Y-80485442D01*
X172666000Y-80296558D01*
X172667527Y-80277160D01*
X172681015Y-80192000D01*
X171511500Y-80192000D01*
X171511500Y-81694000D01*
X170513500Y-81694000D01*
X170513500Y-80192000D01*
X170173500Y-80192000D01*
X170173500Y-80377191D01*
X170173351Y-80383274D01*
X170171545Y-80420046D01*
X170171097Y-80426116D01*
X170166294Y-80474888D01*
X170165549Y-80480929D01*
X170160145Y-80517360D01*
X170159104Y-80523357D01*
X170114935Y-80745408D01*
X170113601Y-80751349D01*
X170104649Y-80787084D01*
X170103025Y-80792952D01*
X170088798Y-80839845D01*
X170086890Y-80845620D01*
X170074491Y-80880272D01*
X170072301Y-80885949D01*
X169985671Y-81095095D01*
X169983206Y-81100656D01*
X169967466Y-81133938D01*
X169964729Y-81139377D01*
X169941627Y-81182599D01*
X169938627Y-81187894D01*
X169919691Y-81219488D01*
X169916434Y-81224632D01*
X169790657Y-81412869D01*
X169787153Y-81417845D01*
X169765221Y-81447417D01*
X169761476Y-81452215D01*
X169730387Y-81490097D01*
X169726413Y-81494704D01*
X169701682Y-81521991D01*
X169697484Y-81526400D01*
X169537400Y-81686484D01*
X169532991Y-81690682D01*
X169529330Y-81694000D01*
X167163401Y-81694000D01*
X166570582Y-81101181D01*
X166537097Y-81039858D01*
X166542081Y-80970166D01*
X166583953Y-80914233D01*
X166649417Y-80889816D01*
X166658263Y-80889500D01*
X167575639Y-80889500D01*
X167642678Y-80909185D01*
X167663321Y-80925820D01*
X167700961Y-80963461D01*
X167700965Y-80963464D01*
X167848446Y-81062009D01*
X167848459Y-81062016D01*
X167941746Y-81100656D01*
X168012334Y-81129894D01*
X168012336Y-81129894D01*
X168012341Y-81129896D01*
X168186304Y-81164499D01*
X168186307Y-81164500D01*
X168186309Y-81164500D01*
X168363693Y-81164500D01*
X168363694Y-81164499D01*
X168421682Y-81152964D01*
X168537658Y-81129896D01*
X168537661Y-81129894D01*
X168537666Y-81129894D01*
X168701547Y-81062013D01*
X168849035Y-80963464D01*
X168974464Y-80838035D01*
X169073013Y-80690547D01*
X169140894Y-80526666D01*
X169141553Y-80523357D01*
X169169417Y-80383274D01*
X169175500Y-80352691D01*
X169175500Y-80175309D01*
X169175500Y-80175306D01*
X169175499Y-80175304D01*
X169140896Y-80001341D01*
X169140893Y-80001332D01*
X169073016Y-79837459D01*
X169073009Y-79837446D01*
X168974464Y-79689965D01*
X168974461Y-79689961D01*
X168849038Y-79564538D01*
X168849034Y-79564535D01*
X168701553Y-79465990D01*
X168701540Y-79465983D01*
X168537667Y-79398106D01*
X168537658Y-79398103D01*
X168363694Y-79363500D01*
X168363691Y-79363500D01*
X168186309Y-79363500D01*
X168186306Y-79363500D01*
X168012341Y-79398103D01*
X168012332Y-79398106D01*
X167848459Y-79465983D01*
X167848446Y-79465990D01*
X167700965Y-79564535D01*
X167700961Y-79564538D01*
X167663321Y-79602180D01*
X167601999Y-79635666D01*
X167575639Y-79638500D01*
X165797073Y-79638500D01*
X165730034Y-79618815D01*
X165709392Y-79602181D01*
X164747711Y-78640500D01*
X166511500Y-78640500D01*
X167287528Y-78640500D01*
X167314368Y-78622566D01*
X167319512Y-78619309D01*
X167351106Y-78600373D01*
X167356401Y-78597373D01*
X167399623Y-78574271D01*
X167405062Y-78571534D01*
X167438344Y-78555794D01*
X167443905Y-78553329D01*
X167538502Y-78514146D01*
X169011500Y-78514146D01*
X169106095Y-78553329D01*
X169111656Y-78555794D01*
X169144938Y-78571534D01*
X169150377Y-78574271D01*
X169193599Y-78597373D01*
X169198894Y-78600373D01*
X169230488Y-78619309D01*
X169235632Y-78622566D01*
X169423869Y-78748343D01*
X169428845Y-78751847D01*
X169458417Y-78773779D01*
X169463215Y-78777524D01*
X169501097Y-78808613D01*
X169505704Y-78812587D01*
X169532991Y-78837318D01*
X169537400Y-78841516D01*
X169697484Y-79001600D01*
X169701682Y-79006009D01*
X169726413Y-79033296D01*
X169730387Y-79037903D01*
X169761476Y-79075785D01*
X169765221Y-79080583D01*
X169787153Y-79110155D01*
X169790657Y-79115131D01*
X169843356Y-79194000D01*
X170513500Y-79194000D01*
X171511500Y-79194000D01*
X173013500Y-79194000D01*
X173013500Y-79067000D01*
X174011500Y-79067000D01*
X174084442Y-79067000D01*
X174103840Y-79068527D01*
X174290399Y-79098075D01*
X174309319Y-79102617D01*
X174488958Y-79160985D01*
X174506935Y-79168431D01*
X174557117Y-79194000D01*
X175513500Y-79194000D01*
X176511500Y-79194000D01*
X178013500Y-79194000D01*
X179011500Y-79194000D01*
X179175986Y-79194000D01*
X179186381Y-79181333D01*
X179190356Y-79176725D01*
X179215087Y-79149438D01*
X179219285Y-79145029D01*
X180513500Y-77850813D01*
X180513500Y-77692000D01*
X179011500Y-77692000D01*
X179011500Y-79194000D01*
X178013500Y-79194000D01*
X178013500Y-77692000D01*
X176511500Y-77692000D01*
X176511500Y-79194000D01*
X175513500Y-79194000D01*
X175513500Y-78065006D01*
X175392357Y-78089104D01*
X175386360Y-78090145D01*
X175349929Y-78095549D01*
X175343888Y-78096294D01*
X175295116Y-78101097D01*
X175289046Y-78101545D01*
X175252274Y-78103351D01*
X175246191Y-78103500D01*
X175019809Y-78103500D01*
X175013726Y-78103351D01*
X174976954Y-78101545D01*
X174970884Y-78101097D01*
X174922112Y-78096294D01*
X174916071Y-78095549D01*
X174879640Y-78090145D01*
X174873643Y-78089104D01*
X174651592Y-78044935D01*
X174645651Y-78043601D01*
X174609916Y-78034649D01*
X174604048Y-78033025D01*
X174557155Y-78018798D01*
X174551380Y-78016890D01*
X174516728Y-78004491D01*
X174511051Y-78002301D01*
X174301905Y-77915671D01*
X174296344Y-77913206D01*
X174263062Y-77897466D01*
X174257623Y-77894729D01*
X174214401Y-77871627D01*
X174209106Y-77868627D01*
X174177512Y-77849691D01*
X174172368Y-77846434D01*
X174011500Y-77738944D01*
X174011500Y-79067000D01*
X173013500Y-79067000D01*
X173013500Y-77692000D01*
X171511500Y-77692000D01*
X171511500Y-79194000D01*
X170513500Y-79194000D01*
X170513500Y-77692000D01*
X169011500Y-77692000D01*
X169011500Y-78514146D01*
X167538502Y-78514146D01*
X167653051Y-78466699D01*
X167658728Y-78464509D01*
X167693380Y-78452110D01*
X167699155Y-78450202D01*
X167746048Y-78435975D01*
X167751916Y-78434351D01*
X167787651Y-78425399D01*
X167793592Y-78424065D01*
X168013500Y-78380322D01*
X168013500Y-77692000D01*
X166511500Y-77692000D01*
X166511500Y-78640500D01*
X164747711Y-78640500D01*
X163672819Y-77565608D01*
X163639334Y-77504285D01*
X163636500Y-77477927D01*
X163636500Y-76694000D01*
X164634500Y-76694000D01*
X165513500Y-76694000D01*
X165513500Y-76198259D01*
X166511500Y-76198259D01*
X166511500Y-76694000D01*
X168013500Y-76694000D01*
X169011500Y-76694000D01*
X170513500Y-76694000D01*
X171511500Y-76694000D01*
X173013500Y-76694000D01*
X173013500Y-76249474D01*
X171956025Y-75192000D01*
X171511500Y-75192000D01*
X171511500Y-76694000D01*
X170513500Y-76694000D01*
X170513500Y-75192000D01*
X169011500Y-75192000D01*
X169011500Y-76694000D01*
X168013500Y-76694000D01*
X168013500Y-75258369D01*
X168011434Y-75261632D01*
X167885657Y-75449869D01*
X167882153Y-75454845D01*
X167860221Y-75484417D01*
X167856476Y-75489215D01*
X167825387Y-75527097D01*
X167821413Y-75531704D01*
X167796682Y-75558991D01*
X167792484Y-75563400D01*
X167632400Y-75723484D01*
X167627991Y-75727682D01*
X167600704Y-75752413D01*
X167596097Y-75756387D01*
X167558215Y-75787476D01*
X167553417Y-75791221D01*
X167523845Y-75813153D01*
X167518869Y-75816657D01*
X167330632Y-75942434D01*
X167325488Y-75945691D01*
X167293894Y-75964627D01*
X167288599Y-75967627D01*
X167245377Y-75990729D01*
X167239938Y-75993466D01*
X167206656Y-76009206D01*
X167201095Y-76011671D01*
X166991949Y-76098301D01*
X166986272Y-76100491D01*
X166951620Y-76112890D01*
X166945845Y-76114798D01*
X166898952Y-76129025D01*
X166893084Y-76130649D01*
X166857349Y-76139601D01*
X166851408Y-76140935D01*
X166629357Y-76185104D01*
X166623360Y-76186145D01*
X166586929Y-76191549D01*
X166580888Y-76192294D01*
X166532116Y-76197097D01*
X166526046Y-76197545D01*
X166511500Y-76198259D01*
X165513500Y-76198259D01*
X165513500Y-75999821D01*
X165500062Y-75993466D01*
X165494623Y-75990729D01*
X165451401Y-75967627D01*
X165446106Y-75964627D01*
X165414512Y-75945691D01*
X165409368Y-75942434D01*
X165221131Y-75816657D01*
X165216155Y-75813153D01*
X165186583Y-75791221D01*
X165181785Y-75787476D01*
X165143903Y-75756387D01*
X165139296Y-75752413D01*
X165112009Y-75727682D01*
X165107600Y-75723484D01*
X164947516Y-75563400D01*
X164943318Y-75558991D01*
X164918587Y-75531704D01*
X164914613Y-75527097D01*
X164883524Y-75489215D01*
X164879779Y-75484417D01*
X164857847Y-75454845D01*
X164854343Y-75449869D01*
X164728566Y-75261632D01*
X164725309Y-75256488D01*
X164706373Y-75224894D01*
X164703373Y-75219599D01*
X164688621Y-75192000D01*
X164634500Y-75192000D01*
X164634500Y-76694000D01*
X163636500Y-76694000D01*
X163636500Y-73639304D01*
X163656185Y-73572265D01*
X163672819Y-73551623D01*
X163752745Y-73471697D01*
X163885271Y-73339172D01*
X163892628Y-73328161D01*
X163899882Y-73317307D01*
X163953721Y-73236730D01*
X163953721Y-73236729D01*
X163953725Y-73236724D01*
X164000877Y-73122890D01*
X164014840Y-73052692D01*
X164024914Y-73002045D01*
X164024914Y-72878832D01*
X164024914Y-72808311D01*
X164044599Y-72741272D01*
X164097403Y-72695517D01*
X164166561Y-72685573D01*
X164196360Y-72693748D01*
X164225833Y-72705956D01*
X164225836Y-72705956D01*
X164225840Y-72705958D01*
X164399803Y-72740561D01*
X164399806Y-72740562D01*
X164399808Y-72740562D01*
X164577192Y-72740562D01*
X164577193Y-72740561D01*
X164635181Y-72729026D01*
X164751157Y-72705958D01*
X164751160Y-72705956D01*
X164751165Y-72705956D01*
X164915046Y-72638075D01*
X165062534Y-72539526D01*
X165187963Y-72414097D01*
X165286512Y-72266609D01*
X165292975Y-72251007D01*
X165296457Y-72242597D01*
X165354393Y-72102728D01*
X165364833Y-72050246D01*
X165385918Y-71944243D01*
X165388999Y-71928753D01*
X165388999Y-71751371D01*
X165388999Y-71751368D01*
X165388998Y-71751366D01*
X165354394Y-71577398D01*
X165354392Y-71577394D01*
X165353939Y-71576299D01*
X165353707Y-71575135D01*
X165352624Y-71571563D01*
X165352975Y-71571456D01*
X165344500Y-71528846D01*
X165344500Y-70666672D01*
X165333591Y-70611832D01*
X165331176Y-70599690D01*
X165320463Y-70545828D01*
X165273311Y-70431994D01*
X165273310Y-70431992D01*
X165273310Y-70431991D01*
X165256737Y-70407188D01*
X165256737Y-70407189D01*
X165204859Y-70329548D01*
X165161867Y-70286556D01*
X165117733Y-70242422D01*
X165117732Y-70242421D01*
X164750647Y-69875337D01*
X164750645Y-69875334D01*
X164750645Y-69875335D01*
X164743579Y-69868269D01*
X164743578Y-69868267D01*
X164656453Y-69781142D01*
X164656449Y-69781139D01*
X164656448Y-69781138D01*
X164582544Y-69731757D01*
X164582542Y-69731755D01*
X164582542Y-69731756D01*
X164554005Y-69712687D01*
X164554001Y-69712685D01*
X164445036Y-69667551D01*
X164445036Y-69667552D01*
X164445029Y-69667549D01*
X164440172Y-69665537D01*
X164440165Y-69665535D01*
X164440160Y-69665534D01*
X164371953Y-69651966D01*
X164371944Y-69651966D01*
X164319327Y-69641500D01*
X164319326Y-69641500D01*
X163717887Y-69641500D01*
X163594673Y-69641500D01*
X163594668Y-69641500D01*
X163563596Y-69647681D01*
X163494004Y-69641454D01*
X163438827Y-69598591D01*
X163420745Y-69562060D01*
X163419447Y-69557781D01*
X163351569Y-69393906D01*
X163351562Y-69393893D01*
X163253017Y-69246412D01*
X163253014Y-69246408D01*
X163127591Y-69120985D01*
X163127587Y-69120982D01*
X162980106Y-69022437D01*
X162980093Y-69022430D01*
X162816220Y-68954553D01*
X162816211Y-68954550D01*
X162642247Y-68919947D01*
X162642244Y-68919947D01*
X162464862Y-68919947D01*
X162464859Y-68919947D01*
X162290894Y-68954550D01*
X162290885Y-68954553D01*
X162127012Y-69022430D01*
X162126999Y-69022437D01*
X161979518Y-69120982D01*
X161979514Y-69120985D01*
X161941874Y-69158627D01*
X161880552Y-69192113D01*
X161854192Y-69194947D01*
X161785500Y-69194947D01*
X161718461Y-69175262D01*
X161672706Y-69122458D01*
X161661500Y-69070947D01*
X161661500Y-68639612D01*
X161681185Y-68572573D01*
X161733989Y-68526818D01*
X161738048Y-68525051D01*
X161861041Y-68474106D01*
X161861041Y-68474105D01*
X161861048Y-68474103D01*
X162008536Y-68375554D01*
X162046180Y-68337910D01*
X162107502Y-68304424D01*
X162133862Y-68301590D01*
X166081638Y-68301590D01*
X166148677Y-68321275D01*
X166169319Y-68337909D01*
X166359181Y-68527771D01*
X166392666Y-68589094D01*
X166395500Y-68615452D01*
X166395500Y-68668695D01*
X166430103Y-68842658D01*
X166430106Y-68842667D01*
X166497983Y-69006540D01*
X166497990Y-69006553D01*
X166596535Y-69154034D01*
X166596538Y-69154038D01*
X166721961Y-69279461D01*
X166721965Y-69279464D01*
X166869446Y-69378009D01*
X166869459Y-69378016D01*
X166992363Y-69428923D01*
X167033334Y-69445894D01*
X167033336Y-69445894D01*
X167033341Y-69445896D01*
X167207304Y-69480499D01*
X167207307Y-69480500D01*
X167271500Y-69480500D01*
X167338539Y-69500185D01*
X167384294Y-69552989D01*
X167395500Y-69604500D01*
X167395500Y-70928638D01*
X167375815Y-70995677D01*
X167359181Y-71016319D01*
X167321538Y-71053961D01*
X167321535Y-71053965D01*
X167222990Y-71201446D01*
X167222983Y-71201459D01*
X167155106Y-71365332D01*
X167155103Y-71365341D01*
X167120500Y-71539304D01*
X167120500Y-71716695D01*
X167155103Y-71890658D01*
X167155106Y-71890667D01*
X167222983Y-72054540D01*
X167222990Y-72054553D01*
X167321535Y-72202034D01*
X167321538Y-72202038D01*
X167367633Y-72248133D01*
X167401118Y-72309456D01*
X167396134Y-72379148D01*
X167367633Y-72423495D01*
X166426949Y-73364181D01*
X166365626Y-73397666D01*
X166339268Y-73400500D01*
X166281306Y-73400500D01*
X166107341Y-73435103D01*
X166107332Y-73435106D01*
X165943459Y-73502983D01*
X165943446Y-73502990D01*
X165795965Y-73601535D01*
X165795961Y-73601538D01*
X165670538Y-73726961D01*
X165670535Y-73726965D01*
X165571990Y-73874446D01*
X165571983Y-73874459D01*
X165504106Y-74038332D01*
X165504103Y-74038341D01*
X165469500Y-74212304D01*
X165469500Y-74389695D01*
X165504103Y-74563658D01*
X165504106Y-74563667D01*
X165571983Y-74727540D01*
X165571990Y-74727553D01*
X165670535Y-74875034D01*
X165670538Y-74875038D01*
X165795961Y-75000461D01*
X165795965Y-75000464D01*
X165943446Y-75099009D01*
X165943459Y-75099016D01*
X166066363Y-75149923D01*
X166107334Y-75166894D01*
X166107336Y-75166894D01*
X166107341Y-75166896D01*
X166281304Y-75201499D01*
X166281307Y-75201500D01*
X166281309Y-75201500D01*
X166458693Y-75201500D01*
X166458694Y-75201499D01*
X166516682Y-75189964D01*
X166632658Y-75166896D01*
X166632661Y-75166894D01*
X166632666Y-75166894D01*
X166796547Y-75099013D01*
X166944035Y-75000464D01*
X167069464Y-74875035D01*
X167168013Y-74727547D01*
X167235894Y-74563666D01*
X167270500Y-74389691D01*
X167270500Y-74341171D01*
X167290185Y-74274132D01*
X167306814Y-74253495D01*
X167600118Y-73960191D01*
X169011500Y-73960191D01*
X169011500Y-74194000D01*
X170513500Y-74194000D01*
X170513500Y-73749474D01*
X170111260Y-73347234D01*
X170079593Y-73340936D01*
X170073651Y-73339601D01*
X170037916Y-73330649D01*
X170032048Y-73329025D01*
X169985155Y-73314798D01*
X169979380Y-73312890D01*
X169944728Y-73300491D01*
X169939051Y-73298301D01*
X169751199Y-73220491D01*
X169011500Y-73960191D01*
X167600118Y-73960191D01*
X169603988Y-71956320D01*
X169665309Y-71922837D01*
X169735001Y-71927821D01*
X169790934Y-71969693D01*
X169794769Y-71975112D01*
X169861535Y-72075034D01*
X169861538Y-72075038D01*
X169986961Y-72200461D01*
X169986965Y-72200464D01*
X170134446Y-72299009D01*
X170134459Y-72299016D01*
X170223304Y-72335816D01*
X170298334Y-72366894D01*
X170298336Y-72366894D01*
X170298341Y-72366896D01*
X170472304Y-72401499D01*
X170472307Y-72401500D01*
X170472309Y-72401500D01*
X170525548Y-72401500D01*
X170592587Y-72421185D01*
X170613229Y-72437819D01*
X174196339Y-76020930D01*
X174229824Y-76082253D01*
X174231451Y-76110218D01*
X174232500Y-76110218D01*
X174232500Y-76293695D01*
X174267103Y-76467658D01*
X174267106Y-76467667D01*
X174334983Y-76631540D01*
X174334990Y-76631553D01*
X174433535Y-76779034D01*
X174433538Y-76779038D01*
X174558961Y-76904461D01*
X174558965Y-76904464D01*
X174706446Y-77003009D01*
X174706459Y-77003016D01*
X174829363Y-77053923D01*
X174870334Y-77070894D01*
X174870336Y-77070894D01*
X174870341Y-77070896D01*
X175044304Y-77105499D01*
X175044307Y-77105500D01*
X175044309Y-77105500D01*
X175221693Y-77105500D01*
X175221694Y-77105499D01*
X175279682Y-77093964D01*
X175395658Y-77070896D01*
X175395661Y-77070894D01*
X175395666Y-77070894D01*
X175559547Y-77003013D01*
X175707035Y-76904464D01*
X175832464Y-76779035D01*
X175931013Y-76631547D01*
X175998894Y-76467666D01*
X175999553Y-76464357D01*
X176028598Y-76318334D01*
X176033500Y-76293691D01*
X176033500Y-76116309D01*
X176033500Y-76116306D01*
X176033499Y-76116304D01*
X175998896Y-75942341D01*
X175998893Y-75942332D01*
X175931016Y-75778459D01*
X175931009Y-75778446D01*
X175832464Y-75630965D01*
X175832461Y-75630961D01*
X175707038Y-75505538D01*
X175707034Y-75505535D01*
X175559553Y-75406990D01*
X175559540Y-75406983D01*
X175395670Y-75339107D01*
X175395660Y-75339104D01*
X175292785Y-75318641D01*
X175230874Y-75286256D01*
X175229296Y-75284705D01*
X175136591Y-75192000D01*
X176739443Y-75192000D01*
X176774434Y-75244368D01*
X176777691Y-75249512D01*
X176796627Y-75281106D01*
X176799627Y-75286401D01*
X176822729Y-75329623D01*
X176825466Y-75335062D01*
X176841206Y-75368344D01*
X176843671Y-75373905D01*
X176930301Y-75583051D01*
X176932491Y-75588728D01*
X176944890Y-75623380D01*
X176946798Y-75629155D01*
X176961025Y-75676048D01*
X176962649Y-75681916D01*
X176971601Y-75717651D01*
X176972935Y-75723592D01*
X177017104Y-75945643D01*
X177018145Y-75951640D01*
X177023549Y-75988071D01*
X177024294Y-75994112D01*
X177029097Y-76042884D01*
X177029545Y-76048954D01*
X177031351Y-76085726D01*
X177031500Y-76091809D01*
X177031500Y-76318191D01*
X177031351Y-76324274D01*
X177029545Y-76361046D01*
X177029097Y-76367116D01*
X177024294Y-76415888D01*
X177023549Y-76421929D01*
X177018145Y-76458360D01*
X177017104Y-76464357D01*
X176972935Y-76686408D01*
X176971601Y-76692349D01*
X176971187Y-76694000D01*
X178013500Y-76694000D01*
X178013500Y-75192000D01*
X176739443Y-75192000D01*
X175136591Y-75192000D01*
X171497819Y-71553228D01*
X171464334Y-71491905D01*
X171461500Y-71465547D01*
X171461500Y-71412306D01*
X171461499Y-71412304D01*
X171426896Y-71238341D01*
X171426893Y-71238332D01*
X171423410Y-71229924D01*
X171403348Y-71181489D01*
X171359016Y-71074459D01*
X171359009Y-71074446D01*
X171260464Y-70926965D01*
X171260461Y-70926961D01*
X171135038Y-70801538D01*
X171135034Y-70801535D01*
X171035112Y-70734769D01*
X170998699Y-70691199D01*
X172280491Y-70691199D01*
X172358301Y-70879051D01*
X172360491Y-70884728D01*
X172372890Y-70919380D01*
X172374798Y-70925155D01*
X172389025Y-70972048D01*
X172390649Y-70977916D01*
X172399601Y-71013651D01*
X172400935Y-71019592D01*
X172407233Y-71051258D01*
X173013500Y-71657525D01*
X173013500Y-70882905D01*
X174011500Y-70882905D01*
X174092727Y-70801678D01*
X174097136Y-70797480D01*
X174124423Y-70772749D01*
X174129030Y-70768775D01*
X174166912Y-70737686D01*
X174171712Y-70733940D01*
X174201286Y-70712007D01*
X174206260Y-70708504D01*
X174402686Y-70577256D01*
X174407830Y-70573999D01*
X174439422Y-70555064D01*
X174444718Y-70552064D01*
X174487939Y-70528963D01*
X174493374Y-70526227D01*
X174526654Y-70510487D01*
X174532217Y-70508021D01*
X174750465Y-70417620D01*
X174756141Y-70415430D01*
X174790803Y-70403027D01*
X174796582Y-70401118D01*
X174843478Y-70386891D01*
X174849348Y-70385267D01*
X174885076Y-70376318D01*
X174891013Y-70374985D01*
X175122719Y-70328896D01*
X175128714Y-70327855D01*
X175165142Y-70322451D01*
X175171185Y-70321706D01*
X175219954Y-70316903D01*
X175226025Y-70316455D01*
X175262800Y-70314649D01*
X175268882Y-70314500D01*
X175505118Y-70314500D01*
X175511200Y-70314649D01*
X175513500Y-70314761D01*
X175513500Y-70192000D01*
X174011500Y-70192000D01*
X174011500Y-70882905D01*
X173013500Y-70882905D01*
X173013500Y-70192000D01*
X172779692Y-70192000D01*
X172280491Y-70691199D01*
X170998699Y-70691199D01*
X170990307Y-70681157D01*
X170981600Y-70611832D01*
X171011755Y-70548804D01*
X171016303Y-70544005D01*
X172600116Y-68960193D01*
X174011500Y-68960193D01*
X174011500Y-69194000D01*
X175513500Y-69194000D01*
X176511500Y-69194000D01*
X176695459Y-69194000D01*
X176714034Y-69149156D01*
X176716501Y-69143591D01*
X176732247Y-69110300D01*
X176734983Y-69104864D01*
X176758086Y-69061642D01*
X176761087Y-69056346D01*
X176780019Y-69024761D01*
X176783274Y-69019619D01*
X176840373Y-68934166D01*
X176878942Y-68876443D01*
X176882448Y-68871465D01*
X176904384Y-68841888D01*
X176908126Y-68837092D01*
X176939217Y-68799206D01*
X176943195Y-68794595D01*
X176967928Y-68767307D01*
X176972124Y-68762899D01*
X177076578Y-68658446D01*
X177563525Y-68171500D01*
X176511500Y-68171500D01*
X176511500Y-69194000D01*
X175513500Y-69194000D01*
X175513500Y-68171500D01*
X174800194Y-68171500D01*
X174011500Y-68960193D01*
X172600116Y-68960193D01*
X174350491Y-67209819D01*
X174411814Y-67176334D01*
X174438172Y-67173500D01*
X178982501Y-67173500D01*
X179049540Y-67193185D01*
G37*
%TD.AperFunction*%
%TA.AperFunction,Conductor*%
G36*
X179775039Y-59963685D02*
G01*
X179820794Y-60016489D01*
X179832000Y-60068000D01*
X179832000Y-64516000D01*
X184860638Y-64516000D01*
X184927677Y-64535685D01*
X184948319Y-64552319D01*
X185264181Y-64868181D01*
X185297666Y-64929504D01*
X185300500Y-64955862D01*
X185300500Y-84204000D01*
X185280815Y-84271039D01*
X185228011Y-84316794D01*
X185176500Y-84328000D01*
X183469823Y-84328000D01*
X183402784Y-84308315D01*
X183357029Y-84255511D01*
X183347085Y-84186353D01*
X183376110Y-84122797D01*
X183431503Y-84086069D01*
X183525412Y-84055557D01*
X183714816Y-83959051D01*
X183798530Y-83898230D01*
X183886786Y-83834109D01*
X183886788Y-83834106D01*
X183886792Y-83834104D01*
X184037104Y-83683792D01*
X184037106Y-83683788D01*
X184037109Y-83683786D01*
X184162048Y-83511820D01*
X184162047Y-83511820D01*
X184162051Y-83511816D01*
X184258557Y-83322412D01*
X184324246Y-83120243D01*
X184357500Y-82910287D01*
X184357500Y-82697713D01*
X184324246Y-82487757D01*
X184258557Y-82285588D01*
X184162051Y-82096184D01*
X184162049Y-82096181D01*
X184162048Y-82096179D01*
X184037109Y-81924213D01*
X183886786Y-81773890D01*
X183714820Y-81648951D01*
X183714115Y-81648591D01*
X183706054Y-81644485D01*
X183655259Y-81596512D01*
X183638463Y-81528692D01*
X183660999Y-81462556D01*
X183706054Y-81423515D01*
X183714816Y-81419051D01*
X183749310Y-81393990D01*
X183886786Y-81294109D01*
X183886788Y-81294106D01*
X183886792Y-81294104D01*
X184037104Y-81143792D01*
X184037106Y-81143788D01*
X184037109Y-81143786D01*
X184162048Y-80971820D01*
X184162047Y-80971820D01*
X184162051Y-80971816D01*
X184258557Y-80782412D01*
X184324246Y-80580243D01*
X184357500Y-80370287D01*
X184357500Y-80157713D01*
X184324246Y-79947757D01*
X184258557Y-79745588D01*
X184162051Y-79556184D01*
X184162049Y-79556181D01*
X184162048Y-79556179D01*
X184037109Y-79384213D01*
X183886786Y-79233890D01*
X183714820Y-79108951D01*
X183714115Y-79108591D01*
X183706054Y-79104485D01*
X183655259Y-79056512D01*
X183638463Y-78988692D01*
X183660999Y-78922556D01*
X183706054Y-78883515D01*
X183714816Y-78879051D01*
X183796315Y-78819839D01*
X183886786Y-78754109D01*
X183886788Y-78754106D01*
X183886792Y-78754104D01*
X184037104Y-78603792D01*
X184037106Y-78603788D01*
X184037109Y-78603786D01*
X184162048Y-78431820D01*
X184162047Y-78431820D01*
X184162051Y-78431816D01*
X184258557Y-78242412D01*
X184324246Y-78040243D01*
X184357500Y-77830287D01*
X184357500Y-77617713D01*
X184324246Y-77407757D01*
X184258557Y-77205588D01*
X184162051Y-77016184D01*
X184162049Y-77016181D01*
X184162048Y-77016179D01*
X184037109Y-76844213D01*
X183923181Y-76730285D01*
X183889696Y-76668962D01*
X183894680Y-76599270D01*
X183936552Y-76543337D01*
X183967529Y-76526422D01*
X184099086Y-76477354D01*
X184099093Y-76477350D01*
X184214187Y-76391190D01*
X184214190Y-76391187D01*
X184300350Y-76276093D01*
X184300354Y-76276086D01*
X184350596Y-76141379D01*
X184350598Y-76141372D01*
X184356999Y-76081844D01*
X184357000Y-76081827D01*
X184357000Y-75434000D01*
X183440012Y-75434000D01*
X183472925Y-75376993D01*
X183507000Y-75249826D01*
X183507000Y-75118174D01*
X183472925Y-74991007D01*
X183440012Y-74934000D01*
X184357000Y-74934000D01*
X184357000Y-74286172D01*
X184356999Y-74286155D01*
X184350598Y-74226627D01*
X184350596Y-74226620D01*
X184300354Y-74091913D01*
X184300350Y-74091906D01*
X184214190Y-73976812D01*
X184214187Y-73976809D01*
X184099093Y-73890649D01*
X184099086Y-73890645D01*
X183964379Y-73840403D01*
X183964372Y-73840401D01*
X183904844Y-73834000D01*
X183257000Y-73834000D01*
X183257000Y-74750988D01*
X183199993Y-74718075D01*
X183072826Y-74684000D01*
X182941174Y-74684000D01*
X182814007Y-74718075D01*
X182757000Y-74750988D01*
X182757000Y-73834000D01*
X182109155Y-73834000D01*
X182049627Y-73840401D01*
X182049620Y-73840403D01*
X181914913Y-73890645D01*
X181914906Y-73890649D01*
X181799812Y-73976809D01*
X181799809Y-73976812D01*
X181713649Y-74091906D01*
X181713645Y-74091913D01*
X181663403Y-74226620D01*
X181663401Y-74226627D01*
X181657000Y-74286155D01*
X181657000Y-74934000D01*
X182573988Y-74934000D01*
X182541075Y-74991007D01*
X182507000Y-75118174D01*
X182507000Y-75249826D01*
X182541075Y-75376993D01*
X182573988Y-75434000D01*
X181723663Y-75434000D01*
X181656624Y-75414315D01*
X181635982Y-75397681D01*
X178089483Y-71851181D01*
X178055998Y-71789858D01*
X178060982Y-71720166D01*
X178102854Y-71664233D01*
X178168318Y-71639816D01*
X178177164Y-71639500D01*
X178269693Y-71639500D01*
X178269694Y-71639499D01*
X178362571Y-71621025D01*
X178443658Y-71604896D01*
X178443661Y-71604894D01*
X178443666Y-71604894D01*
X178607547Y-71537013D01*
X178755035Y-71438464D01*
X178880464Y-71313035D01*
X178906060Y-71274726D01*
X178959669Y-71229924D01*
X179028994Y-71221215D01*
X179092022Y-71251369D01*
X179128742Y-71310811D01*
X179131634Y-71363016D01*
X179107261Y-71516909D01*
X179106500Y-71521713D01*
X179106500Y-71734287D01*
X179109148Y-71751007D01*
X179139735Y-71944127D01*
X179139754Y-71944243D01*
X179203862Y-72141547D01*
X179205444Y-72146414D01*
X179301951Y-72335820D01*
X179426890Y-72507786D01*
X179577213Y-72658109D01*
X179749179Y-72783048D01*
X179749181Y-72783049D01*
X179749184Y-72783051D01*
X179938588Y-72879557D01*
X180140757Y-72945246D01*
X180350713Y-72978500D01*
X180350714Y-72978500D01*
X180563286Y-72978500D01*
X180563287Y-72978500D01*
X180773243Y-72945246D01*
X180975412Y-72879557D01*
X181164816Y-72783051D01*
X181223299Y-72740561D01*
X181336786Y-72658109D01*
X181336788Y-72658106D01*
X181336792Y-72658104D01*
X181487104Y-72507792D01*
X181487106Y-72507788D01*
X181487109Y-72507786D01*
X181558208Y-72409925D01*
X181612051Y-72335816D01*
X181616793Y-72326508D01*
X181664763Y-72275711D01*
X181732583Y-72258911D01*
X181798719Y-72281445D01*
X181837763Y-72326500D01*
X181842373Y-72335547D01*
X181881728Y-72389716D01*
X182514037Y-71757408D01*
X182531075Y-71820993D01*
X182596901Y-71935007D01*
X182689993Y-72028099D01*
X182804007Y-72093925D01*
X182867590Y-72110962D01*
X182235282Y-72743269D01*
X182235282Y-72743270D01*
X182289449Y-72782624D01*
X182478782Y-72879095D01*
X182680870Y-72944757D01*
X182890754Y-72978000D01*
X183103246Y-72978000D01*
X183313127Y-72944757D01*
X183313130Y-72944757D01*
X183515217Y-72879095D01*
X183704554Y-72782622D01*
X183758716Y-72743270D01*
X183758717Y-72743270D01*
X183126408Y-72110962D01*
X183189993Y-72093925D01*
X183304007Y-72028099D01*
X183397099Y-71935007D01*
X183462925Y-71820993D01*
X183479962Y-71757408D01*
X184112270Y-72389717D01*
X184112270Y-72389716D01*
X184151622Y-72335554D01*
X184248095Y-72146217D01*
X184313757Y-71944130D01*
X184313757Y-71944127D01*
X184347000Y-71734246D01*
X184347000Y-71521753D01*
X184313757Y-71311872D01*
X184313757Y-71311869D01*
X184248095Y-71109782D01*
X184151624Y-70920449D01*
X184112270Y-70866282D01*
X184112269Y-70866282D01*
X183479962Y-71498590D01*
X183462925Y-71435007D01*
X183397099Y-71320993D01*
X183304007Y-71227901D01*
X183189993Y-71162075D01*
X183126409Y-71145037D01*
X183758716Y-70512728D01*
X183704547Y-70473373D01*
X183704547Y-70473372D01*
X183695500Y-70468763D01*
X183644706Y-70420788D01*
X183627912Y-70352966D01*
X183650451Y-70286832D01*
X183695508Y-70247793D01*
X183704816Y-70243051D01*
X183812293Y-70164965D01*
X183876786Y-70118109D01*
X183876788Y-70118106D01*
X183876792Y-70118104D01*
X184027104Y-69967792D01*
X184027106Y-69967788D01*
X184027109Y-69967786D01*
X184152048Y-69795820D01*
X184152047Y-69795820D01*
X184152051Y-69795816D01*
X184248557Y-69606412D01*
X184314246Y-69404243D01*
X184347500Y-69194287D01*
X184347500Y-68981713D01*
X184314246Y-68771757D01*
X184248557Y-68569588D01*
X184152051Y-68380184D01*
X184152049Y-68380181D01*
X184152048Y-68380179D01*
X184027109Y-68208213D01*
X183876786Y-68057890D01*
X183704820Y-67932951D01*
X183704115Y-67932591D01*
X183696054Y-67928485D01*
X183645259Y-67880512D01*
X183628463Y-67812692D01*
X183650999Y-67746556D01*
X183696054Y-67707515D01*
X183704816Y-67703051D01*
X183784085Y-67645459D01*
X183876786Y-67578109D01*
X183876788Y-67578106D01*
X183876792Y-67578104D01*
X184027104Y-67427792D01*
X184027106Y-67427788D01*
X184027109Y-67427786D01*
X184152048Y-67255820D01*
X184152047Y-67255820D01*
X184152051Y-67255816D01*
X184248557Y-67066412D01*
X184314246Y-66864243D01*
X184347500Y-66654287D01*
X184347500Y-66441713D01*
X184314246Y-66231757D01*
X184248557Y-66029588D01*
X184152051Y-65840184D01*
X184152049Y-65840181D01*
X184152048Y-65840179D01*
X184027109Y-65668213D01*
X183876786Y-65517890D01*
X183704820Y-65392951D01*
X183515414Y-65296444D01*
X183515413Y-65296443D01*
X183515412Y-65296443D01*
X183313243Y-65230754D01*
X183313241Y-65230753D01*
X183313240Y-65230753D01*
X183151957Y-65205208D01*
X183103287Y-65197500D01*
X182890713Y-65197500D01*
X182842042Y-65205208D01*
X182680760Y-65230753D01*
X182478585Y-65296444D01*
X182289179Y-65392951D01*
X182117215Y-65517889D01*
X182003673Y-65631431D01*
X181942350Y-65664915D01*
X181872658Y-65659931D01*
X181816725Y-65618059D01*
X181799810Y-65587082D01*
X181750797Y-65455671D01*
X181750793Y-65455664D01*
X181664547Y-65340455D01*
X181664544Y-65340452D01*
X181549335Y-65254206D01*
X181549328Y-65254202D01*
X181414482Y-65203908D01*
X181414483Y-65203908D01*
X181354883Y-65197501D01*
X181354881Y-65197500D01*
X181354873Y-65197500D01*
X181354864Y-65197500D01*
X179559129Y-65197500D01*
X179559123Y-65197501D01*
X179499516Y-65203908D01*
X179364671Y-65254202D01*
X179364664Y-65254206D01*
X179249455Y-65340452D01*
X179249452Y-65340455D01*
X179163206Y-65455664D01*
X179163202Y-65455671D01*
X179112908Y-65590517D01*
X179106501Y-65650116D01*
X179106500Y-65650135D01*
X179106500Y-65798500D01*
X179086815Y-65865539D01*
X179034011Y-65911294D01*
X178982500Y-65922500D01*
X174066109Y-65922500D01*
X174005691Y-65934518D01*
X173945268Y-65946537D01*
X173945263Y-65946538D01*
X173911266Y-65960620D01*
X173898117Y-65966067D01*
X173878562Y-65974167D01*
X173831433Y-65993688D01*
X173821277Y-66000475D01*
X173821169Y-66000547D01*
X173728988Y-66062140D01*
X173704730Y-66086399D01*
X173641862Y-66149267D01*
X168858181Y-70932948D01*
X168796858Y-70966433D01*
X168727166Y-70961449D01*
X168671233Y-70919577D01*
X168646816Y-70854113D01*
X168646500Y-70845267D01*
X168646500Y-68735245D01*
X169644500Y-68735245D01*
X170513500Y-67866245D01*
X170513500Y-67692000D01*
X169644500Y-67692000D01*
X169644500Y-68735245D01*
X168646500Y-68735245D01*
X168646500Y-66694000D01*
X169644500Y-66694000D01*
X170513500Y-66694000D01*
X170513500Y-66012500D01*
X169644500Y-66012500D01*
X169644500Y-66694000D01*
X168646500Y-66694000D01*
X168646500Y-65896719D01*
X171511500Y-65896719D01*
X171511500Y-66694000D01*
X171685745Y-66694000D01*
X172854409Y-65525335D01*
X172817954Y-65523545D01*
X172811884Y-65523097D01*
X172763112Y-65518294D01*
X172757071Y-65517549D01*
X172720640Y-65512145D01*
X172714642Y-65511104D01*
X172676517Y-65503520D01*
X172659823Y-65515650D01*
X172643232Y-65525817D01*
X172474935Y-65611569D01*
X172456958Y-65619015D01*
X172277319Y-65677383D01*
X172258399Y-65681925D01*
X172071840Y-65711473D01*
X172052442Y-65713000D01*
X171874674Y-65713000D01*
X171873302Y-65715623D01*
X171831520Y-65744084D01*
X171629583Y-65827727D01*
X171539409Y-65887981D01*
X171511500Y-65896719D01*
X168646500Y-65896719D01*
X168646500Y-65138500D01*
X168666185Y-65071461D01*
X168718989Y-65025706D01*
X168770500Y-65014500D01*
X170922178Y-65014500D01*
X170922178Y-65014499D01*
X170997588Y-64999500D01*
X170997589Y-64999500D01*
X171009024Y-64997225D01*
X171043022Y-64990463D01*
X171079235Y-64975463D01*
X171156856Y-64943312D01*
X171208079Y-64909084D01*
X171259303Y-64874858D01*
X171346428Y-64787733D01*
X171346429Y-64787730D01*
X171859343Y-64274816D01*
X171920665Y-64241334D01*
X171947023Y-64238500D01*
X172260639Y-64238500D01*
X172327678Y-64258185D01*
X172348321Y-64274820D01*
X172399961Y-64326461D01*
X172399965Y-64326464D01*
X172547446Y-64425009D01*
X172547459Y-64425016D01*
X172670363Y-64475923D01*
X172711334Y-64492894D01*
X172711336Y-64492894D01*
X172711341Y-64492896D01*
X172885304Y-64527499D01*
X172885307Y-64527500D01*
X172885309Y-64527500D01*
X173062693Y-64527500D01*
X173062694Y-64527499D01*
X173120682Y-64515964D01*
X173236658Y-64492896D01*
X173236661Y-64492894D01*
X173236666Y-64492894D01*
X173400547Y-64425013D01*
X173548035Y-64326464D01*
X173673464Y-64201035D01*
X173772013Y-64053547D01*
X173839894Y-63889666D01*
X173840553Y-63886357D01*
X173864990Y-63763500D01*
X173874500Y-63715691D01*
X173874500Y-63538309D01*
X173874500Y-63538306D01*
X173874499Y-63538304D01*
X173839896Y-63364341D01*
X173839893Y-63364332D01*
X173838032Y-63359840D01*
X173810525Y-63293431D01*
X173772016Y-63200459D01*
X173772009Y-63200446D01*
X173673464Y-63052965D01*
X173673461Y-63052961D01*
X173548038Y-62927538D01*
X173548034Y-62927535D01*
X173400553Y-62828990D01*
X173400540Y-62828983D01*
X173236667Y-62761106D01*
X173236658Y-62761103D01*
X173062694Y-62726500D01*
X173062691Y-62726500D01*
X172885309Y-62726500D01*
X172885306Y-62726500D01*
X172711341Y-62761103D01*
X172711332Y-62761106D01*
X172547459Y-62828983D01*
X172547446Y-62828990D01*
X172399965Y-62927535D01*
X172399961Y-62927538D01*
X172376319Y-62951181D01*
X172314996Y-62984666D01*
X172288638Y-62987500D01*
X171574959Y-62987500D01*
X171454123Y-63011535D01*
X171454111Y-63011539D01*
X171421832Y-63024909D01*
X171406967Y-63031067D01*
X171340289Y-63058685D01*
X171340287Y-63058686D01*
X171237836Y-63127141D01*
X171237833Y-63127144D01*
X170637799Y-63727181D01*
X170576476Y-63760666D01*
X170550118Y-63763500D01*
X168346452Y-63763500D01*
X168279413Y-63743815D01*
X168258771Y-63727181D01*
X167223590Y-62692000D01*
X174630971Y-62692000D01*
X174637627Y-62703106D01*
X174640627Y-62708401D01*
X174663729Y-62751623D01*
X174666466Y-62757062D01*
X174682206Y-62790344D01*
X174684671Y-62795905D01*
X174771301Y-63005051D01*
X174773491Y-63010728D01*
X174785890Y-63045380D01*
X174787798Y-63051155D01*
X174802025Y-63098048D01*
X174803649Y-63103916D01*
X174812601Y-63139651D01*
X174813935Y-63145592D01*
X174858104Y-63367643D01*
X174859145Y-63373640D01*
X174864549Y-63410071D01*
X174865294Y-63416112D01*
X174870097Y-63464884D01*
X174870545Y-63470954D01*
X174872351Y-63507726D01*
X174872500Y-63513809D01*
X174872500Y-63740191D01*
X174872351Y-63746274D01*
X174870545Y-63783046D01*
X174870097Y-63789116D01*
X174865294Y-63837888D01*
X174864549Y-63843929D01*
X174859145Y-63880360D01*
X174858104Y-63886357D01*
X174813935Y-64108408D01*
X174812601Y-64114349D01*
X174803649Y-64150084D01*
X174802025Y-64155952D01*
X174790482Y-64194000D01*
X175369488Y-64194000D01*
X175426985Y-64017042D01*
X175434431Y-63999065D01*
X175513500Y-63843884D01*
X175513500Y-63198541D01*
X176511500Y-63198541D01*
X176543160Y-63193527D01*
X176562558Y-63192000D01*
X176751442Y-63192000D01*
X176770840Y-63193527D01*
X176957399Y-63223075D01*
X176976319Y-63227617D01*
X177155958Y-63285985D01*
X177173935Y-63293431D01*
X177342232Y-63379183D01*
X177358822Y-63389350D01*
X177511633Y-63500373D01*
X177526429Y-63513010D01*
X177659990Y-63646571D01*
X177672627Y-63661367D01*
X177783650Y-63814178D01*
X177793817Y-63830768D01*
X177879569Y-63999065D01*
X177887015Y-64017042D01*
X177944512Y-64194000D01*
X178013500Y-64194000D01*
X178013500Y-62692000D01*
X176511500Y-62692000D01*
X176511500Y-63198541D01*
X175513500Y-63198541D01*
X175513500Y-62692000D01*
X174630971Y-62692000D01*
X167223590Y-62692000D01*
X166225590Y-61694000D01*
X169011500Y-61694000D01*
X170513500Y-61694000D01*
X171511500Y-61694000D01*
X173013500Y-61694000D01*
X174011500Y-61694000D01*
X175513500Y-61694000D01*
X176511500Y-61694000D01*
X178013500Y-61694000D01*
X178013500Y-61068000D01*
X176511500Y-61068000D01*
X176511500Y-61694000D01*
X175513500Y-61694000D01*
X175513500Y-61068000D01*
X174011500Y-61068000D01*
X174011500Y-61694000D01*
X173013500Y-61694000D01*
X173013500Y-61068000D01*
X171511500Y-61068000D01*
X171511500Y-61694000D01*
X170513500Y-61694000D01*
X170513500Y-61068000D01*
X169011500Y-61068000D01*
X169011500Y-61694000D01*
X166225590Y-61694000D01*
X164687271Y-60155681D01*
X164653786Y-60094358D01*
X164658770Y-60024666D01*
X164700642Y-59968733D01*
X164766106Y-59944316D01*
X164774952Y-59944000D01*
X179708000Y-59944000D01*
X179775039Y-59963685D01*
G37*
%TD.AperFunction*%
%TA.AperFunction,Conductor*%
G36*
X160053521Y-68137562D02*
G01*
X160110194Y-68178428D01*
X160126830Y-68207046D01*
X160154188Y-68273094D01*
X160154189Y-68273096D01*
X160181185Y-68313497D01*
X160181186Y-68313500D01*
X160181187Y-68313500D01*
X160222641Y-68375541D01*
X160222642Y-68375542D01*
X160222643Y-68375543D01*
X160309768Y-68462668D01*
X160309769Y-68462668D01*
X160316836Y-68469735D01*
X160316835Y-68469735D01*
X160316839Y-68469738D01*
X160374181Y-68527080D01*
X160407666Y-68588403D01*
X160410500Y-68614761D01*
X160410500Y-69684255D01*
X160390815Y-69751294D01*
X160389601Y-69753147D01*
X160355683Y-69803906D01*
X160355678Y-69803915D01*
X160327020Y-69873103D01*
X160327020Y-69873106D01*
X160326096Y-69875338D01*
X160308530Y-69917746D01*
X160308528Y-69917753D01*
X160284493Y-70038586D01*
X160284493Y-71804340D01*
X160264808Y-71871379D01*
X160248174Y-71892021D01*
X160243269Y-71896926D01*
X160243267Y-71896928D01*
X160217358Y-71922837D01*
X160156140Y-71984054D01*
X160130446Y-72022510D01*
X160130444Y-72022513D01*
X160087690Y-72086496D01*
X160087685Y-72086505D01*
X160069295Y-72130905D01*
X160069295Y-72130906D01*
X160040538Y-72200330D01*
X160040535Y-72200337D01*
X160038411Y-72211022D01*
X160038411Y-72211024D01*
X160018833Y-72309456D01*
X160017744Y-72314930D01*
X160017742Y-72314938D01*
X160016500Y-72321180D01*
X160016500Y-72600546D01*
X159996815Y-72667585D01*
X159980182Y-72688226D01*
X159924229Y-72744180D01*
X159862906Y-72777666D01*
X159836547Y-72780500D01*
X159703361Y-72780500D01*
X159636322Y-72760815D01*
X159615679Y-72744180D01*
X159578038Y-72706538D01*
X159578034Y-72706535D01*
X159430553Y-72607990D01*
X159430540Y-72607983D01*
X159266670Y-72540107D01*
X159266660Y-72540104D01*
X159221308Y-72531083D01*
X159159397Y-72498698D01*
X159124823Y-72437982D01*
X159121500Y-72409466D01*
X159121500Y-69068533D01*
X159141185Y-69001494D01*
X159193989Y-68955739D01*
X159221303Y-68946917D01*
X159266666Y-68937894D01*
X159406535Y-68879958D01*
X159430540Y-68870016D01*
X159430540Y-68870015D01*
X159430547Y-68870013D01*
X159578035Y-68771464D01*
X159703464Y-68646035D01*
X159802013Y-68498547D01*
X159869894Y-68334666D01*
X159890652Y-68230304D01*
X159923036Y-68168397D01*
X159983752Y-68133823D01*
X160053521Y-68137562D01*
G37*
%TD.AperFunction*%
%TA.AperFunction,Conductor*%
G36*
X181798444Y-69741999D02*
G01*
X181837484Y-69787054D01*
X181840495Y-69792963D01*
X181841951Y-69795820D01*
X181966890Y-69967786D01*
X182117213Y-70118109D01*
X182289179Y-70243048D01*
X182289181Y-70243049D01*
X182289184Y-70243051D01*
X182298493Y-70247794D01*
X182349290Y-70295766D01*
X182366087Y-70363587D01*
X182343552Y-70429722D01*
X182298505Y-70468760D01*
X182289446Y-70473376D01*
X182289440Y-70473380D01*
X182235282Y-70512727D01*
X182235282Y-70512728D01*
X182867591Y-71145037D01*
X182804007Y-71162075D01*
X182689993Y-71227901D01*
X182596901Y-71320993D01*
X182531075Y-71435007D01*
X182514037Y-71498591D01*
X181881728Y-70866282D01*
X181881727Y-70866282D01*
X181842380Y-70920440D01*
X181842376Y-70920446D01*
X181837760Y-70929505D01*
X181789781Y-70980297D01*
X181721959Y-70997087D01*
X181655826Y-70974543D01*
X181616794Y-70929493D01*
X181612051Y-70920184D01*
X181612049Y-70920181D01*
X181612048Y-70920179D01*
X181487109Y-70748213D01*
X181336786Y-70597890D01*
X181164820Y-70472951D01*
X181156600Y-70468763D01*
X181156054Y-70468485D01*
X181105259Y-70420512D01*
X181088463Y-70352692D01*
X181110999Y-70286556D01*
X181156054Y-70247515D01*
X181164816Y-70243051D01*
X181272293Y-70164965D01*
X181336786Y-70118109D01*
X181336788Y-70118106D01*
X181336792Y-70118104D01*
X181487104Y-69967792D01*
X181487106Y-69967788D01*
X181487109Y-69967786D01*
X181612048Y-69795820D01*
X181612047Y-69795820D01*
X181612051Y-69795816D01*
X181616514Y-69787054D01*
X181664488Y-69736259D01*
X181732308Y-69719463D01*
X181798444Y-69741999D01*
G37*
%TD.AperFunction*%
%TD*%
M02*
