%TF.GenerationSoftware,KiCad,Pcbnew,9.0.5*%
%TF.CreationDate,2025-10-30T12:00:35+09:00*%
%TF.ProjectId,MCU_Datalogger,4d43555f-4461-4746-916c-6f676765722e,1*%
%TF.SameCoordinates,Original*%
%TF.FileFunction,Plated,1,2,PTH,Drill*%
%TF.FilePolarity,Positive*%
%FSLAX46Y46*%
G04 Gerber Fmt 4.6, Leading zero omitted, Abs format (unit mm)*
G04 Created by KiCad (PCBNEW 9.0.5) date 2025-10-30 12:00:35*
%MOMM*%
%LPD*%
G01*
G04 APERTURE LIST*
%TA.AperFunction,ViaDrill*%
%ADD10C,0.400000*%
%TD*%
%TA.AperFunction,ComponentDrill*%
%ADD11C,1.000000*%
%TD*%
G04 APERTURE END LIST*
D10*
X146558000Y-65786000D03*
X148590000Y-63246000D03*
X149018281Y-78914281D03*
X149352000Y-70612000D03*
X150495000Y-72263000D03*
X154186652Y-73287652D03*
X156518143Y-70226001D03*
X157607000Y-63791000D03*
X158314500Y-76581000D03*
X159004000Y-68072000D03*
X159004000Y-73406000D03*
X159385000Y-76581000D03*
X159390237Y-72376036D03*
X159968364Y-70409636D03*
X160148503Y-77226809D03*
X160274000Y-61087000D03*
X161363999Y-78442304D03*
X161434501Y-67676090D03*
X162086993Y-70704940D03*
X162553553Y-69820447D03*
X162673414Y-72639718D03*
X162687000Y-63500000D03*
X163957000Y-70993000D03*
X164488499Y-71840062D03*
X164494500Y-69476709D03*
X166370000Y-74301000D03*
X167296000Y-68580000D03*
X168021000Y-71628000D03*
X168275000Y-63373000D03*
X168275000Y-80264000D03*
X170561000Y-71501000D03*
X171958000Y-64389000D03*
X172974000Y-63627000D03*
X173990000Y-80391000D03*
X175133000Y-76205000D03*
X175387000Y-72263000D03*
X176657000Y-64516000D03*
X178181000Y-70739000D03*
D11*
%TO.C,BAT*%
X141413000Y-69404000D03*
X141413000Y-71944000D03*
%TO.C,J2*%
X143953000Y-86995000D03*
X146493000Y-86995000D03*
X149033000Y-86995000D03*
X151573000Y-86995000D03*
X154113000Y-86995000D03*
X156653000Y-86995000D03*
X159193000Y-86995000D03*
X161733000Y-86995000D03*
X164273000Y-86995000D03*
%TO.C,J3*%
X169607000Y-86995000D03*
X172147000Y-86995000D03*
X174687000Y-86995000D03*
X177227000Y-86995000D03*
%TO.C,J4*%
X180457000Y-66548000D03*
X180457000Y-69088000D03*
X180457000Y-71628000D03*
X182997000Y-66548000D03*
X182997000Y-69088000D03*
X182997000Y-71628000D03*
%TO.C,J1*%
X183007000Y-75184000D03*
X183007000Y-77724000D03*
X183007000Y-80264000D03*
X183007000Y-82804000D03*
M02*
